0
SECTION
2
HEADER
9
$INSUNITS
70
4
9
$ACADVER
1
AC1014
9
$HANDSEED
5
FFFF
0
ENDSEC
0
SECTION
2
TABLES
0
TABLE
2
VPORT
5
8
100
AcDbSymbolTable
0
ENDTAB
0
TABLE
2
LTYPE
5
5
100
AcDbSymbolTable
0
LTYPE
5
14
100
AcDbSymbolTableRecord
100
AcDbLinetypeTableRecord
2
BYBLOCK
70
0
0
LTYPE
5
15
100
AcDbSymbolTableRecord
100
AcDbLinetypeTableRecord
2
BYLAYER
70
0
0
ENDTAB
0
TABLE
2
LAYER
5
2
100
AcDbSymbolTable
70
2
0
LAYER
5
50
100
AcDbSymbolTableRecord
100
AcDbLayerTableRecord
2
0
70
0
6
CONTINUOUS
0
ENDTAB
0
TABLE
2
STYLE
5
3
100
AcDbSymbolTable
70
1
0
STYLE
5
11
100
AcDbSymbolTableRecord
100
AcDbTextStyleTableRecord
2
STANDARD
70
0
0
ENDTAB
0
TABLE
2
VIEW
5
6
100
AcDbSymbolTable
70
0
0
ENDTAB
0
TABLE
2
UCS
5
7
100
AcDbSymbolTable
70
0
0
ENDTAB
0
TABLE
2
APPID
5
9
100
AcDbSymbolTable
70
2
0
APPID
5
12
100
AcDbSymbolTableRecord
100
AcDbRegAppTableRecord
2
ACAD
70
0
0
ENDTAB
0
TABLE
2
DIMSTYLE
5
A
100
AcDbSymbolTable
70
1
0
ENDTAB
0
TABLE
2
BLOCK_RECORD
5
1
100
AcDbSymbolTable
70
1
0
BLOCK_RECORD
5
1F
100
AcDbSymbolTableRecord
100
AcDbBlockTableRecord
2
*MODEL_SPACE
0
BLOCK_RECORD
5
1B
100
AcDbSymbolTableRecord
100
AcDbBlockTableRecord
2
*PAPER_SPACE
0
ENDTAB
0
ENDSEC
0
SECTION
2
BLOCKS
0
BLOCK
5
20
100
AcDbEntity
100
AcDbBlockBegin
2
*MODEL_SPACE
0
ENDBLK
5
21
100
AcDbEntity
100
AcDbBlockEnd
0
BLOCK
5
1C
100
AcDbEntity
100
AcDbBlockBegin
2
*PAPER_SPACE
0
ENDBLK
5
1D
100
AcDbEntity
100
AcDbBlockEnd
0
ENDSEC
0
SECTION
2
ENTITIES
0
LWPOLYLINE
5
100
100
AcDbEntity
8
0
100
AcDbPolyline
90
12
70
1
43
0.0
10
220.95601475455479
20
-97.390069931117239
10
220.61133204100059
20
-97.450846793300641
10
219.84728005926604
20
-93.117692680046957
10
206.20769268004705
20
-95.52271994073395
10
206.97174466178154
20
-99.855874053987662
10
206.62706194822718
20
-99.916650916171093
10
207.50398524544516
20
-104.88993006888273
10
207.84866795899947
20
-104.8291532066993
10
208.612719940734
20
-109.16230731995304
10
222.25230731995305
20
-106.75728005926602
10
221.48825533821852
20
-102.42412594601231
10
221.83293805177274
20
-102.36334908382888
0
LWPOLYLINE
5
101
100
AcDbEntity
8
0
100
AcDbPolyline
90
12
70
1
43
0.0
10
278.38749999999999
20
-78.870499999999993
10
278.38749999999999
20
-65.020499999999998
10
273.98750000000001
20
-65.020499999999998
10
273.98750000000001
20
-64.67049999999999
10
268.9375
20
-64.67049999999999
10
268.9375
20
-65.020499999999998
10
264.53750000000002
20
-65.020499999999998
10
264.53750000000002
20
-78.870499999999993
10
268.9375
20
-78.870499999999993
10
268.9375
20
-79.220500000000001
10
273.98750000000001
20
-79.220500000000001
10
273.98750000000001
20
-78.870499999999993
0
LWPOLYLINE
5
102
100
AcDbEntity
8
0
100
AcDbPolyline
90
12
70
1
43
0.0
10
278.38749999999999
20
-59.820500000000003
10
278.38749999999999
20
-45.970500000000001
10
273.98750000000001
20
-45.970500000000001
10
273.98750000000001
20
-45.6205
10
268.9375
20
-45.6205
10
268.9375
20
-45.970500000000001
10
264.53750000000002
20
-45.970500000000001
10
264.53750000000002
20
-59.820500000000003
10
268.9375
20
-59.820500000000003
10
268.9375
20
-60.170500000000004
10
273.98750000000001
20
-60.170500000000004
10
273.98750000000001
20
-59.820500000000003
0
LWPOLYLINE
5
103
100
AcDbEntity
8
0
100
AcDbPolyline
90
12
70
1
43
0.0
10
216.83750000000003
20
-82.80749999999999
10
221.23750000000001
20
-82.80749999999999
10
221.23750000000001
20
-68.957499999999982
10
216.83750000000003
20
-68.957499999999982
10
216.83750000000003
20
-68.607500000000002
10
211.78750000000002
20
-68.607500000000002
10
211.78750000000002
20
-68.957499999999982
10
207.38750000000005
20
-68.957499999999982
10
207.38750000000005
20
-82.80749999999999
10
211.78750000000002
20
-82.80749999999999
10
211.78750000000002
20
-83.15749999999997
10
216.83750000000003
20
-83.15749999999997
0
LWPOLYLINE
5
104
100
AcDbEntity
8
0
100
AcDbPolyline
90
12
70
1
43
0.0
10
249.88750000000005
20
-24.094000000000001
10
249.88750000000005
20
-24.443999999999999
10
245.48750000000001
20
-24.443999999999999
10
245.48750000000001
20
-38.294000000000004
10
249.88750000000005
20
-38.294000000000004
10
249.88750000000005
20
-38.644000000000005
10
254.9375
20
-38.644000000000005
10
254.9375
20
-38.294000000000004
10
259.33749999999998
20
-38.294000000000004
10
259.33749999999998
20
-24.443999999999999
10
254.9375
20
-24.443999999999999
10
254.9375
20
-24.094000000000001
0
LWPOLYLINE
5
105
100
AcDbEntity
8
0
100
AcDbPolyline
90
12
70
1
43
0.0
10
230.83750000000003
20
-26.920500000000001
10
226.43750000000006
20
-26.920500000000001
10
226.43750000000006
20
-40.770500000000006
10
230.83750000000003
20
-40.770500000000006
10
230.83750000000003
20
-41.120500000000007
10
235.88750000000005
20
-41.120500000000007
10
235.88750000000005
20
-40.770500000000006
10
240.28750000000002
20
-40.770500000000006
10
240.28750000000002
20
-26.920500000000001
10
235.88750000000005
20
-26.920500000000001
10
235.88750000000005
20
-26.570499999999999
10
230.83750000000003
20
-26.570499999999999
0
LWPOLYLINE
5
106
100
AcDbEntity
8
0
100
AcDbPolyline
90
12
70
1
43
0.0
10
216.83750000000001
20
-63.757500000000007
10
221.23750000000001
20
-63.757500000000007
10
221.23750000000001
20
-49.907500000000013
10
216.83750000000001
20
-49.907500000000013
10
216.83750000000001
20
-49.557500000000012
10
211.78750000000005
20
-49.557500000000012
10
211.78750000000005
20
-49.907500000000013
10
207.38750000000005
20
-49.907500000000013
10
207.38750000000005
20
-63.757500000000007
10
211.78750000000005
20
-63.757500000000007
10
211.78750000000005
20
-64.107500000000016
10
216.83750000000001
20
-64.107500000000016
0
LWPOLYLINE
5
107
100
AcDbEntity
8
0
100
AcDbPolyline
90
12
70
1
43
0.0
10
273.98750000000001
20
-40.770500000000006
10
278.38749999999999
20
-40.770500000000006
10
278.38749999999999
20
-26.920500000000001
10
273.98750000000001
20
-26.920500000000001
10
273.98750000000001
20
-26.570499999999999
10
268.9375
20
-26.570499999999999
10
268.9375
20
-26.920500000000001
10
264.53750000000002
20
-26.920500000000001
10
264.53750000000002
20
-40.770500000000006
10
268.9375
20
-40.770500000000006
10
268.9375
20
-41.120500000000007
10
273.98750000000001
20
-41.120500000000007
0
LWPOLYLINE
5
108
100
AcDbEntity
8
0
100
AcDbPolyline
90
12
70
1
43
0.0
10
289.77269182232368
20
-68.299001504823906
10
285.39679548270323
20
-67.839076266446227
10
283.94907626644624
20
-81.613204517296822
10
288.32497260606664
20
-82.073129755674501
10
288.28838764392299
20
-82.421212419053305
10
293.31072321553279
20
-82.949081158554947
10
293.34730817767644
20
-82.600998495176157
10
297.72320451729678
20
-83.060923733553835
10
299.17092373355382
20
-69.286795482703226
10
294.79502739393348
20
-68.826870244325548
10
294.83161235607713
20
-68.478787580946602
10
289.80927678446733
20
-67.950918841444945
0
LWPOLYLINE
5
109
100
AcDbEntity
8
0
100
AcDbPolyline
90
12
70
1
43
0.0
10
230.83750000000003
20
-84.07050000000001
10
226.43750000000006
20
-84.07050000000001
10
226.43750000000006
20
-97.920500000000004
10
230.83750000000003
20
-97.920500000000004
10
230.83750000000003
20
-98.270499999999998
10
235.88750000000005
20
-98.270499999999998
10
235.88750000000005
20
-97.920500000000004
10
240.28750000000002
20
-97.920500000000004
10
240.28750000000002
20
-84.07050000000001
10
235.88750000000005
20
-84.07050000000001
10
235.88750000000005
20
-83.720500000000015
10
230.83750000000003
20
-83.720500000000015
0
LWPOLYLINE
5
110
100
AcDbEntity
8
0
100
AcDbPolyline
90
12
70
1
43
0.0
10
201.77255443593569
20
-106.19850282404501
10
202.11062847513691
20
-106.10791615825912
10
200.80359229736914
20
-101.22999073549929
10
200.46551825816792
20
-101.32057740128518
10
199.32671445971681
20
-97.070503765613267
10
185.94864176561322
20
-100.65514754028317
10
187.08744556406432
20
-104.90522117595506
10
186.74937152486319
20
-104.99580784174094
10
188.05640770263096
20
-109.87373326450077
10
188.39448174183212
20
-109.78314659871489
10
189.53328554028317
20
-114.03322023438676
10
202.91135823438677
20
-110.44857645971686
0
LWPOLYLINE
5
111
100
AcDbEntity
8
0
100
AcDbPolyline
90
12
70
1
43
0.0
10
268.9375
20
-84.07050000000001
10
264.53750000000002
20
-84.07050000000001
10
264.53750000000002
20
-97.920500000000004
10
268.9375
20
-97.920500000000004
10
268.9375
20
-98.270499999999998
10
273.98750000000001
20
-98.270499999999998
10
273.98750000000001
20
-97.920500000000004
10
278.38749999999999
20
-97.920500000000004
10
278.38749999999999
20
-84.07050000000001
10
273.98750000000001
20
-84.07050000000001
10
273.98750000000001
20
-83.720500000000015
10
268.9375
20
-83.720500000000015
0
LWPOLYLINE
5
112
100
AcDbEntity
8
0
100
AcDbPolyline
90
12
70
1
43
0.0
10
293.80927678446727
20
-29.990918841445012
10
293.77269182232362
20
-30.339001504823891
10
289.39679548270317
20
-29.879076266446212
10
287.94907626644624
20
-43.6532045172968
10
292.32497260606658
20
-44.113129755674471
10
292.28838764392287
20
-44.461212419053396
10
297.31072321553273
20
-44.989081158555052
10
297.34730817767638
20
-44.640998495176127
10
301.72320451729684
20
-45.100923733553806
10
303.17092373355376
20
-31.326795482703211
10
298.79502739393342
20
-30.866870244325547
10
298.83161235607713
20
-30.518787580946668
0
LWPOLYLINE
5
113
100
AcDbEntity
8
0
100
AcDbPolyline
90
12
70
1
43
0.0
10
240.28500000000003
20
-78.844999999999999
10
240.28500000000003
20
-64.995000000000005
10
235.88500000000005
20
-64.995000000000005
10
235.88500000000005
20
-64.644999999999996
10
230.83500000000001
20
-64.644999999999996
10
230.83500000000001
20
-64.995000000000005
10
226.43500000000003
20
-64.995000000000005
10
226.43500000000003
20
-78.844999999999999
10
230.83500000000001
20
-78.844999999999999
10
230.83500000000001
20
-79.195000000000007
10
235.88500000000005
20
-79.195000000000007
10
235.88500000000005
20
-78.844999999999999
0
LWPOLYLINE
5
114
100
AcDbEntity
8
0
100
AcDbPolyline
90
12
70
1
43
0.0
10
254.9375
20
-57.344000000000001
10
259.33749999999998
20
-57.344000000000001
10
259.33749999999998
20
-43.494
10
254.9375
20
-43.494
10
254.9375
20
-43.143999999999998
10
249.88750000000005
20
-43.143999999999998
10
249.88750000000005
20
-43.494
10
245.48750000000001
20
-43.494
10
245.48750000000001
20
-57.344000000000001
10
249.88750000000005
20
-57.344000000000001
10
249.88750000000005
20
-57.694000000000003
10
254.9375
20
-57.694000000000003
0
LWPOLYLINE
5
115
100
AcDbEntity
8
0
100
AcDbPolyline
90
12
70
1
43
0.0
10
211.78750000000002
20
-30.5075
10
211.78750000000002
20
-30.857500000000002
10
207.38750000000005
20
-30.857500000000002
10
207.38750000000005
20
-44.707499999999996
10
211.78750000000002
20
-44.707499999999996
10
211.78750000000002
20
-45.057499999999997
10
216.83750000000003
20
-45.057499999999997
10
216.83750000000003
20
-44.707499999999996
10
221.23750000000001
20
-44.707499999999996
10
221.23750000000001
20
-30.857500000000002
10
216.83750000000003
20
-30.857500000000002
10
216.83750000000003
20
-30.5075
0
LWPOLYLINE
5
116
100
AcDbEntity
8
0
100
AcDbPolyline
90
12
70
1
43
0.0
10
230.83750000000003
20
-45.970500000000001
10
226.43750000000006
20
-45.970500000000001
10
226.43750000000006
20
-59.820500000000003
10
230.83750000000003
20
-59.820500000000003
10
230.83750000000003
20
-60.170500000000004
10
235.88750000000005
20
-60.170500000000004
10
235.88750000000005
20
-59.820500000000003
10
240.28750000000002
20
-59.820500000000003
10
240.28750000000002
20
-45.970500000000001
10
235.88750000000005
20
-45.970500000000001
10
235.88750000000005
20
-45.6205
10
230.83750000000003
20
-45.6205
0
LWPOLYLINE
5
117
100
AcDbEntity
8
0
100
AcDbPolyline
90
12
70
1
43
0.0
10
254.9375
20
-62.543999999999997
10
254.9375
20
-62.193999999999996
10
249.88750000000005
20
-62.193999999999996
10
249.88750000000005
20
-62.543999999999997
10
245.48750000000001
20
-62.543999999999997
10
245.48750000000001
20
-76.393999999999991
10
249.88750000000005
20
-76.393999999999991
10
249.88750000000005
20
-76.744
10
254.9375
20
-76.744
10
254.9375
20
-76.393999999999991
10
259.33749999999998
20
-76.393999999999991
10
259.33749999999998
20
-62.543999999999997
0
LWPOLYLINE
5
118
100
AcDbEntity
8
0
100
AcDbPolyline
90
12
70
1
43
0.0
10
295.35730817767637
20
-63.650998495176125
10
299.73320451729677
20
-64.11092373355379
10
301.18092373355375
20
-50.336795482703216
10
296.80502739393341
20
-49.876870244325545
10
296.84161235607706
20
-49.528787580946592
10
291.81927678446732
20
-49.00091884144495
10
291.78269182232361
20
-49.34900150482391
10
287.40679548270316
20
-48.889076266446232
10
285.95907626644617
20
-62.663204517296805
10
290.33497260606663
20
-63.123129755674483
10
290.29838764392298
20
-63.47121241905333
10
295.32072321553272
20
-63.999081158554972
0
LWPOLYLINE
5
119
100
AcDbEntity
8
0
100
AcDbPolyline
90
12
70
1
43
0.0
10
249.88750000000005
20
-81.594000000000023
10
245.48750000000001
20
-81.594000000000023
10
245.48750000000001
20
-95.443999999999988
10
249.88750000000005
20
-95.443999999999988
10
249.88750000000005
20
-95.793999999999997
10
254.9375
20
-95.793999999999997
10
254.9375
20
-95.443999999999988
10
259.33749999999998
20
-95.443999999999988
10
259.33749999999998
20
-81.594000000000023
10
254.9375
20
-81.594000000000023
10
254.9375
20
-81.244000000000014
10
249.88750000000005
20
-81.244000000000014
0
LWPOLYLINE
5
120
100
AcDbEntity
8
0
100
AcDbPolyline
90
12
70
1
43
0.0
10
181.03466295432017
20
-106.78107958982133
10
180.70577053704511
20
-106.90078663998533
10
179.20088190641218
20
-102.76613910852733
10
166.18613910852733
20
-107.50311809358784
10
167.69102773916029
20
-111.63776562504582
10
167.36213532188518
20
-111.75747267520981
10
169.08933704567986
20
-116.50292041017869
10
169.41822946295491
20
-116.38321336001469
10
170.92311809358787
20
-120.51786089147269
10
183.9378608914727
20
-115.78088190641218
10
182.43297226083973
20
-111.6462343749542
10
182.76186467811485
20
-111.52652732479019
0
LWPOLYLINE
5
121
100
AcDbEntity
8
0
100
AcDbPolyline
90
17
70
1
43
0.0
10
174.05738214185521
20
-74.544147928571519
10
204.755
20
-74.544147928571519
10
204.755
20
-28.297500000000003
10
223.80500000000001
20
-24.360499999999998
10
242.85499999999999
20
-21.884
10
261.90499999999997
20
-21.884
10
280.95500000000004
20
-24.360499999999998
10
306.02999999999997
20
-29.009999999999998
10
300.005
20
-85.955500000000015
10
280.95500000000004
20
-100.5605
10
245.71250000000003
20
-100.5605
10
242.87000000000003
20
-100.57000000000001
10
226.08000000000004
20
-113.55000000000001
10
207.33000000000004
20
-116.87
10
188.90000000000001
20
-121.81
10
171
20
-128.31
10
161.23000000000002
20
-101.48000000000002
0
CIRCLE
5
122
100
AcDbEntity
8
0
100
AcDbCircle
10
223.82000000000002
20
-81.510000000000019
30
0
40
1.0500000000000043
210
0
220
0
230
1
0
CIRCLE
5
123
100
AcDbEntity
8
0
100
AcDbCircle
10
283.1465
20
-43.433999999999997
30
0
40
1.0500000000000043
210
0
220
0
230
1
0
CIRCLE
5
124
100
AcDbEntity
8
0
100
AcDbCircle
10
223.80000000000001
20
-43.410000000000004
30
0
40
1.0500000000000043
210
0
220
0
230
1
0
CIRCLE
5
125
100
AcDbEntity
8
0
100
AcDbCircle
10
281.02999999999997
20
-81.420000000000016
30
0
40
1.0500000000000043
210
0
220
0
230
1
0
CIRCLE
5
126
100
AcDbEntity
8
0
100
AcDbCircle
10
261.94999999999999
20
-60
30
0
40
1.0500000000000043
210
0
220
0
230
1
0
CIRCLE
5
127
100
AcDbEntity
8
0
100
AcDbCircle
10
242.93000000000004
20
-59.969999999999999
30
0
40
1.0500000000000043
210
0
220
0
230
1
0
CIRCLE
5
128
100
AcDbEntity
8
0
100
AcDbCircle
10
184.53042888523879
20
-108.03442575399012
30
0
40
1.0500000000000043
210
0
220
0
230
1
0
CIRCLE
5
129
100
AcDbEntity
8
0
100
AcDbCircle
10
180.00000268220901
20
-78.000001147389412
30
0
40
1.0500000000000043
210
0
220
0
230
1
0
CIRCLE
5
130
100
AcDbEntity
8
0
100
AcDbCircle
10
198.00000268220901
20
-78.000001147389412
30
0
40
1.0500000000000043
210
0
220
0
230
1
0
ENDSEC
0
SECTION
2
OBJECTS
0
DICTIONARY
5
C
100
AcDbDictionary
3
ACAD_GROUP
350
D
3
ACAD_MLINESTYLE
350
17
0
DICTIONARY
5
D
100
AcDbDictionary
0
DICTIONARY
5
1A
330
C
100
AcDbDictionary
0
DICTIONARY
5
17
100
AcDbDictionary
0
ENDSEC
0
EOF
