  0
SECTION
  2
HEADER
  9
$ACADVER
  1
AC1014
  9
$HANDSEED
  5
FFFF
  9
$MEASUREMENT
 70
     1
  0
ENDSEC
  0
SECTION
  2
TABLES
  0
TABLE
  2
VPORT
  5
8
330
0
100
AcDbSymbolTable
 70
     4
  0
VPORT
  5
2E
330
8
100
AcDbSymbolTableRecord
100
AcDbViewportTableRecord
  2
*ACTIVE
 70
     0
 10
0.0
 20
0.0
 11
1.0
 21
1.0
 12
210.0
 22
148.5
 13
0.0
 23
0.0
 14
10.0
 24
10.0
 15
10.0
 25
10.0
 16
0.0
 26
0.0
 36
1.0
 17
0.0
 27
0.0
 37
0.0
 40
341.0
 41
1.24
 42
50.0
 43
0.0
 44
0.0
 50
0.0
 51
0.0
 71
     0
 72
   100
 73
     1
 74
     3
 75
     0
 76
     0
 77
     0
 78
     0
  0
ENDTAB
  0
TABLE
  2
LTYPE
  5
5
330
0
100
AcDbSymbolTable
 70
     1
  0
LTYPE
  5
14
330
5
100
AcDbSymbolTableRecord
100
AcDbLinetypeTableRecord
  2
BYBLOCK
 70
     0
  3

 72
    65
 73
     0
 40
0.0
  0
LTYPE
  5
15
330
5
100
AcDbSymbolTableRecord
100
AcDbLinetypeTableRecord
  2
BYLAYER
 70
     0
  3

 72
    65
 73
     0
 40
0.0
  0
LTYPE
  5
16
330
5
100
AcDbSymbolTableRecord
100
AcDbLinetypeTableRecord
  2
CONTINUOUS
 70
     0
  3
Solid line
 72
    65
 73
     0
 40
0.0
  0
ENDTAB
  0
TABLE
  2
LAYER
  5
2
100
AcDbSymbolTable
 70
1
  0
LAYER
  5
50
100
AcDbSymbolTableRecord
100
AcDbLayerTableRecord
  2
0
 70
0
  6
CONTINUOUS
  0
ENDTAB
  0
TABLE
  2
STYLE
  5
3
330
0
100
AcDbSymbolTable
 70
     1
  0
STYLE
  5
11
330
3
100
AcDbSymbolTableRecord
100
AcDbTextStyleTableRecord
  2
STANDARD
 70
     0
 40
0.0
 41
1.0
 50
0.0
 71
     0
 42
2.5
  3
txt
  4

  0
ENDTAB
  0
TABLE
  2
VIEW
  5
6
330
0
100
AcDbSymbolTable
 70
     0
  0
ENDTAB
  0
TABLE
  2
UCS
  5
7
330
0
100
AcDbSymbolTable
 70
     0
  0
ENDTAB
  0
TABLE
  2
APPID
  5
9
330
0
100
AcDbSymbolTable
 70
     2
  0
APPID
  5
12
330
9
100
AcDbSymbolTableRecord
100
AcDbRegAppTableRecord
  2
ACAD
 70
     0
  0
ENDTAB
  0
TABLE
  2
DIMSTYLE
  5
A
330
0
100
AcDbSymbolTable
 70
     1
  0
DIMSTYLE
105
27
330
A
100
AcDbSymbolTableRecord
100
AcDbDimStyleTableRecord
  2
ISO-25
 70
     0
  3

  4

  5

  6

  7

 40
1.0
 41
2.5
 42
0.625
 43
3.75
 44
1.25
 45
0.0
 46
0.0
 47
0.0
 48
0.0
140
2.5
141
2.5
142
0.0
143
0.03937007874016
144
1.0
145
0.0
146
1.0
147
0.625
 71
     0
 72
     0
 73
     0
 74
     0
 75
     0
 76
     0
 77
     1
 78
     8
170
     0
171
     3
172
     1
173
     0
174
     0
175
     0
176
     0
177
     0
178
     0
270
     2
271
     2
272
     2
273
     2
274
     3
340
11
275
     0
280
     0
281
     0
282
     0
283
     0
284
     8
285
     0
286
     0
287
     3
288
     0
  0
ENDTAB
  0
TABLE
  2
BLOCK_RECORD
  5
1
330
0
100
AcDbSymbolTable
 70
     1
  0
BLOCK_RECORD
  5
1F
330
1
100
AcDbSymbolTableRecord
100
AcDbBlockTableRecord
  2
*MODEL_SPACE
  0
BLOCK_RECORD
  5
1B
330
1
100
AcDbSymbolTableRecord
100
AcDbBlockTableRecord
  2
*PAPER_SPACE
  0
ENDTAB
  0
ENDSEC
  0
SECTION
  2
BLOCKS
  0
BLOCK
  5
20
330
1F
100
AcDbEntity
  8
0
100
AcDbBlockBegin
  2
*MODEL_SPACE
 70
     0
 10
0.0
 20
0.0
 30
0.0
  3
*MODEL_SPACE
  1

  0
ENDBLK
  5
21
330
1F
100
AcDbEntity
  8
0
100
AcDbBlockEnd
  0
BLOCK
  5
1C
330
1B
100
AcDbEntity
 67
     1
  8
0
100
AcDbBlockBegin
  2
*PAPER_SPACE
  1

  0
ENDBLK
  5
1D
330
1B
100
AcDbEntity
 67
     1
  8
0
100
AcDbBlockEnd
  0
ENDSEC
  0
SECTION
  2
ENTITIES
  0
SPLINE
  5
100
100
AcDbEntity
  8
0
 62
7
100
AcDbSpline
 70
8
 71
3
 72
8
 73
4
 74
0
 40
0
 40
0
 40
0
 40
0
 40
1
 40
1
 40
1
 40
1
 10
15.332408
 20
33.521140
 30
0.0
 10
15.332408
 20
32.775545
 30
0.0
 10
14.727992
 20
32.171141
 30
0.0
 10
13.982408
 20
32.171141
 30
0.0
  0
SPLINE
  5
101
100
AcDbEntity
  8
0
 62
7
100
AcDbSpline
 70
8
 71
3
 72
8
 73
4
 74
0
 40
0
 40
0
 40
0
 40
0
 40
1
 40
1
 40
1
 40
1
 10
13.982408
 20
32.171141
 30
0.0
 10
13.236823
 20
32.171141
 30
0.0
 10
12.632408
 20
32.775545
 30
0.0
 10
12.632408
 20
33.521140
 30
0.0
  0
SPLINE
  5
102
100
AcDbEntity
  8
0
 62
7
100
AcDbSpline
 70
8
 71
3
 72
8
 73
4
 74
0
 40
0
 40
0
 40
0
 40
0
 40
1
 40
1
 40
1
 40
1
 10
12.632408
 20
33.521140
 30
0.0
 10
12.632408
 20
34.003449
 30
0.0
 10
12.889716
 20
34.449114
 30
0.0
 10
13.307408
 20
34.690281
 30
0.0
  0
SPLINE
  5
103
100
AcDbEntity
  8
0
 62
7
100
AcDbSpline
 70
8
 71
3
 72
8
 73
4
 74
0
 40
0
 40
0
 40
0
 40
0
 40
1
 40
1
 40
1
 40
1
 10
13.307408
 20
34.690281
 30
0.0
 10
13.725099
 20
34.931422
 30
0.0
 10
14.239716
 20
34.931422
 30
0.0
 10
14.657408
 20
34.690281
 30
0.0
  0
SPLINE
  5
104
100
AcDbEntity
  8
0
 62
7
100
AcDbSpline
 70
8
 71
3
 72
8
 73
4
 74
0
 40
0
 40
0
 40
0
 40
0
 40
1
 40
1
 40
1
 40
1
 10
14.657408
 20
34.690281
 30
0.0
 10
15.075099
 20
34.449114
 30
0.0
 10
15.332408
 20
34.003449
 30
0.0
 10
15.332408
 20
33.521140
 30
0.0
  0
SPLINE
  5
105
100
AcDbEntity
  8
0
 62
7
100
AcDbSpline
 70
8
 71
3
 72
8
 73
4
 74
0
 40
0
 40
0
 40
0
 40
0
 40
1
 40
1
 40
1
 40
1
 10
228.061927
 20
33.521140
 30
0.0
 10
228.061927
 20
32.775545
 30
0.0
 10
227.457513
 20
32.171141
 30
0.0
 10
226.711928
 20
32.171141
 30
0.0
  0
SPLINE
  5
106
100
AcDbEntity
  8
0
 62
7
100
AcDbSpline
 70
8
 71
3
 72
8
 73
4
 74
0
 40
0
 40
0
 40
0
 40
0
 40
1
 40
1
 40
1
 40
1
 10
226.711928
 20
32.171141
 30
0.0
 10
225.966343
 20
32.171141
 30
0.0
 10
225.361929
 20
32.775545
 30
0.0
 10
225.361929
 20
33.521140
 30
0.0
  0
SPLINE
  5
107
100
AcDbEntity
  8
0
 62
7
100
AcDbSpline
 70
8
 71
3
 72
8
 73
4
 74
0
 40
0
 40
0
 40
0
 40
0
 40
1
 40
1
 40
1
 40
1
 10
225.361929
 20
33.521140
 30
0.0
 10
225.361929
 20
34.266736
 30
0.0
 10
225.966343
 20
34.871150
 30
0.0
 10
226.711928
 20
34.871150
 30
0.0
  0
SPLINE
  5
108
100
AcDbEntity
  8
0
 62
7
100
AcDbSpline
 70
8
 71
3
 72
8
 73
4
 74
0
 40
0
 40
0
 40
0
 40
0
 40
1
 40
1
 40
1
 40
1
 10
226.711928
 20
34.871150
 30
0.0
 10
227.457513
 20
34.871150
 30
0.0
 10
228.061927
 20
34.266736
 30
0.0
 10
228.061927
 20
33.521140
 30
0.0
  0
SPLINE
  5
109
100
AcDbEntity
  8
0
 62
7
100
AcDbSpline
 70
8
 71
3
 72
8
 73
4
 74
0
 40
0
 40
0
 40
0
 40
0
 40
1
 40
1
 40
1
 40
1
 10
334.426719
 20
33.521140
 30
0.0
 10
334.426719
 20
33.038831
 30
0.0
 10
334.169411
 20
32.593167
 30
0.0
 10
333.751714
 20
32.352010
 30
0.0
  0
SPLINE
  5
10a
100
AcDbEntity
  8
0
 62
7
100
AcDbSpline
 70
8
 71
3
 72
8
 73
4
 74
0
 40
0
 40
0
 40
0
 40
0
 40
1
 40
1
 40
1
 40
1
 10
333.751714
 20
32.352010
 30
0.0
 10
333.334016
 20
32.110869
 30
0.0
 10
332.819401
 20
32.110869
 30
0.0
 10
332.401704
 20
32.352010
 30
0.0
  0
SPLINE
  5
10b
100
AcDbEntity
  8
0
 62
7
100
AcDbSpline
 70
8
 71
3
 72
8
 73
4
 74
0
 40
0
 40
0
 40
0
 40
0
 40
1
 40
1
 40
1
 40
1
 10
332.401704
 20
32.352010
 30
0.0
 10
331.984006
 20
32.593167
 30
0.0
 10
331.726699
 20
33.038831
 30
0.0
 10
331.726699
 20
33.521140
 30
0.0
  0
SPLINE
  5
10c
100
AcDbEntity
  8
0
 62
7
100
AcDbSpline
 70
8
 71
3
 72
8
 73
4
 74
0
 40
0
 40
0
 40
0
 40
0
 40
1
 40
1
 40
1
 40
1
 10
331.726699
 20
33.521140
 30
0.0
 10
331.726699
 20
34.003449
 30
0.0
 10
331.984006
 20
34.449114
 30
0.0
 10
332.401704
 20
34.690281
 30
0.0
  0
SPLINE
  5
10d
100
AcDbEntity
  8
0
 62
7
100
AcDbSpline
 70
8
 71
3
 72
8
 73
4
 74
0
 40
0
 40
0
 40
0
 40
0
 40
1
 40
1
 40
1
 40
1
 10
332.401704
 20
34.690281
 30
0.0
 10
332.819401
 20
34.931422
 30
0.0
 10
333.334016
 20
34.931422
 30
0.0
 10
333.751714
 20
34.690281
 30
0.0
  0
SPLINE
  5
10e
100
AcDbEntity
  8
0
 62
7
100
AcDbSpline
 70
8
 71
3
 72
8
 73
4
 74
0
 40
0
 40
0
 40
0
 40
0
 40
1
 40
1
 40
1
 40
1
 10
333.751714
 20
34.690281
 30
0.0
 10
334.169411
 20
34.449114
 30
0.0
 10
334.426719
 20
34.003449
 30
0.0
 10
334.426719
 20
33.521140
 30
0.0
  0
SPLINE
  5
10f
100
AcDbEntity
  8
0
 62
7
100
AcDbSpline
 70
8
 71
3
 72
8
 73
4
 74
0
 40
0
 40
0
 40
0
 40
0
 40
1
 40
1
 40
1
 40
1
 10
121.697141
 20
33.521140
 30
0.0
 10
121.697141
 20
33.038831
 30
0.0
 10
121.439834
 20
32.593167
 30
0.0
 10
121.022142
 20
32.352010
 30
0.0
  0
SPLINE
  5
110
100
AcDbEntity
  8
0
 62
7
100
AcDbSpline
 70
8
 71
3
 72
8
 73
4
 74
0
 40
0
 40
0
 40
0
 40
0
 40
1
 40
1
 40
1
 40
1
 10
121.022142
 20
32.352010
 30
0.0
 10
120.604452
 20
32.110869
 30
0.0
 10
120.089832
 20
32.110869
 30
0.0
 10
119.672142
 20
32.352010
 30
0.0
  0
SPLINE
  5
111
100
AcDbEntity
  8
0
 62
7
100
AcDbSpline
 70
8
 71
3
 72
8
 73
4
 74
0
 40
0
 40
0
 40
0
 40
0
 40
1
 40
1
 40
1
 40
1
 10
119.672142
 20
32.352010
 30
0.0
 10
119.254450
 20
32.593167
 30
0.0
 10
118.997143
 20
33.038831
 30
0.0
 10
118.997143
 20
33.521140
 30
0.0
  0
SPLINE
  5
112
100
AcDbEntity
  8
0
 62
7
100
AcDbSpline
 70
8
 71
3
 72
8
 73
4
 74
0
 40
0
 40
0
 40
0
 40
0
 40
1
 40
1
 40
1
 40
1
 10
118.997143
 20
33.521140
 30
0.0
 10
118.997143
 20
34.003449
 30
0.0
 10
119.254450
 20
34.449114
 30
0.0
 10
119.672142
 20
34.690281
 30
0.0
  0
SPLINE
  5
113
100
AcDbEntity
  8
0
 62
7
100
AcDbSpline
 70
8
 71
3
 72
8
 73
4
 74
0
 40
0
 40
0
 40
0
 40
0
 40
1
 40
1
 40
1
 40
1
 10
119.672142
 20
34.690281
 30
0.0
 10
120.089832
 20
34.931422
 30
0.0
 10
120.604452
 20
34.931422
 30
0.0
 10
121.022142
 20
34.690281
 30
0.0
  0
SPLINE
  5
114
100
AcDbEntity
  8
0
 62
7
100
AcDbSpline
 70
8
 71
3
 72
8
 73
4
 74
0
 40
0
 40
0
 40
0
 40
0
 40
1
 40
1
 40
1
 40
1
 10
121.022142
 20
34.690281
 30
0.0
 10
121.439834
 20
34.449114
 30
0.0
 10
121.697141
 20
34.003449
 30
0.0
 10
121.697141
 20
33.521140
 30
0.0
  0
SPLINE
  5
115
100
AcDbEntity
  8
0
 62
7
100
AcDbSpline
 70
8
 71
3
 72
8
 73
4
 74
0
 40
0
 40
0
 40
0
 40
0
 40
1
 40
1
 40
1
 40
1
 10
15.332408
 20
121.271235
 30
0.0
 10
15.332408
 20
120.525639
 30
0.0
 10
14.727992
 20
119.921225
 30
0.0
 10
13.982408
 20
119.921225
 30
0.0
  0
SPLINE
  5
116
100
AcDbEntity
  8
0
 62
7
100
AcDbSpline
 70
8
 71
3
 72
8
 73
4
 74
0
 40
0
 40
0
 40
0
 40
0
 40
1
 40
1
 40
1
 40
1
 10
13.982408
 20
119.921225
 30
0.0
 10
13.236823
 20
119.921225
 30
0.0
 10
12.632408
 20
120.525639
 30
0.0
 10
12.632408
 20
121.271235
 30
0.0
  0
SPLINE
  5
117
100
AcDbEntity
  8
0
 62
7
100
AcDbSpline
 70
8
 71
3
 72
8
 73
4
 74
0
 40
0
 40
0
 40
0
 40
0
 40
1
 40
1
 40
1
 40
1
 10
12.632408
 20
121.271235
 30
0.0
 10
12.632408
 20
121.753544
 30
0.0
 10
12.889716
 20
122.199208
 30
0.0
 10
13.307408
 20
122.440376
 30
0.0
  0
SPLINE
  5
118
100
AcDbEntity
  8
0
 62
7
100
AcDbSpline
 70
8
 71
3
 72
8
 73
4
 74
0
 40
0
 40
0
 40
0
 40
0
 40
1
 40
1
 40
1
 40
1
 10
13.307408
 20
122.440376
 30
0.0
 10
13.725099
 20
122.681517
 30
0.0
 10
14.239716
 20
122.681517
 30
0.0
 10
14.657408
 20
122.440376
 30
0.0
  0
SPLINE
  5
119
100
AcDbEntity
  8
0
 62
7
100
AcDbSpline
 70
8
 71
3
 72
8
 73
4
 74
0
 40
0
 40
0
 40
0
 40
0
 40
1
 40
1
 40
1
 40
1
 10
14.657408
 20
122.440376
 30
0.0
 10
15.075099
 20
122.199208
 30
0.0
 10
15.332408
 20
121.753544
 30
0.0
 10
15.332408
 20
121.271235
 30
0.0
  0
SPLINE
  5
11a
100
AcDbEntity
  8
0
 62
7
100
AcDbSpline
 70
8
 71
3
 72
8
 73
4
 74
0
 40
0
 40
0
 40
0
 40
0
 40
1
 40
1
 40
1
 40
1
 10
334.426719
 20
121.271235
 30
0.0
 10
334.426719
 20
120.788926
 30
0.0
 10
334.169411
 20
120.343262
 30
0.0
 10
333.751714
 20
120.102094
 30
0.0
  0
SPLINE
  5
11b
100
AcDbEntity
  8
0
 62
7
100
AcDbSpline
 70
8
 71
3
 72
8
 73
4
 74
0
 40
0
 40
0
 40
0
 40
0
 40
1
 40
1
 40
1
 40
1
 10
333.751714
 20
120.102094
 30
0.0
 10
333.334016
 20
119.860953
 30
0.0
 10
332.819401
 20
119.860953
 30
0.0
 10
332.401704
 20
120.102094
 30
0.0
  0
SPLINE
  5
11c
100
AcDbEntity
  8
0
 62
7
100
AcDbSpline
 70
8
 71
3
 72
8
 73
4
 74
0
 40
0
 40
0
 40
0
 40
0
 40
1
 40
1
 40
1
 40
1
 10
332.401704
 20
120.102094
 30
0.0
 10
331.984006
 20
120.343262
 30
0.0
 10
331.726699
 20
120.788926
 30
0.0
 10
331.726699
 20
121.271235
 30
0.0
  0
SPLINE
  5
11d
100
AcDbEntity
  8
0
 62
7
100
AcDbSpline
 70
8
 71
3
 72
8
 73
4
 74
0
 40
0
 40
0
 40
0
 40
0
 40
1
 40
1
 40
1
 40
1
 10
331.726699
 20
121.271235
 30
0.0
 10
331.726699
 20
121.753544
 30
0.0
 10
331.984006
 20
122.199208
 30
0.0
 10
332.401704
 20
122.440376
 30
0.0
  0
SPLINE
  5
11e
100
AcDbEntity
  8
0
 62
7
100
AcDbSpline
 70
8
 71
3
 72
8
 73
4
 74
0
 40
0
 40
0
 40
0
 40
0
 40
1
 40
1
 40
1
 40
1
 10
332.401704
 20
122.440376
 30
0.0
 10
332.819401
 20
122.681517
 30
0.0
 10
333.334016
 20
122.681517
 30
0.0
 10
333.751714
 20
122.440376
 30
0.0
  0
SPLINE
  5
11f
100
AcDbEntity
  8
0
 62
7
100
AcDbSpline
 70
8
 71
3
 72
8
 73
4
 74
0
 40
0
 40
0
 40
0
 40
0
 40
1
 40
1
 40
1
 40
1
 10
333.751714
 20
122.440376
 30
0.0
 10
334.169411
 20
122.199208
 30
0.0
 10
334.426719
 20
121.753544
 30
0.0
 10
334.426719
 20
121.271235
 30
0.0
  0
SPLINE
  5
120
100
AcDbEntity
  8
0
 62
7
100
AcDbSpline
 70
8
 71
3
 72
8
 73
4
 74
0
 40
0
 40
0
 40
0
 40
0
 40
1
 40
1
 40
1
 40
1
 10
72.542299
 20
121.271235
 30
0.0
 10
72.542299
 20
120.525639
 30
0.0
 10
71.937883
 20
119.921225
 30
0.0
 10
71.192300
 20
119.921225
 30
0.0
  0
SPLINE
  5
121
100
AcDbEntity
  8
0
 62
7
100
AcDbSpline
 70
8
 71
3
 72
8
 73
4
 74
0
 40
0
 40
0
 40
0
 40
0
 40
1
 40
1
 40
1
 40
1
 10
71.192300
 20
119.921225
 30
0.0
 10
70.446715
 20
119.921225
 30
0.0
 10
69.842301
 20
120.525639
 30
0.0
 10
69.842301
 20
121.271235
 30
0.0
  0
SPLINE
  5
122
100
AcDbEntity
  8
0
 62
7
100
AcDbSpline
 70
8
 71
3
 72
8
 73
4
 74
0
 40
0
 40
0
 40
0
 40
0
 40
1
 40
1
 40
1
 40
1
 10
69.842301
 20
121.271235
 30
0.0
 10
69.842301
 20
121.753544
 30
0.0
 10
70.099608
 20
122.199208
 30
0.0
 10
70.517300
 20
122.440376
 30
0.0
  0
SPLINE
  5
123
100
AcDbEntity
  8
0
 62
7
100
AcDbSpline
 70
8
 71
3
 72
8
 73
4
 74
0
 40
0
 40
0
 40
0
 40
0
 40
1
 40
1
 40
1
 40
1
 10
70.517300
 20
122.440376
 30
0.0
 10
70.934990
 20
122.681517
 30
0.0
 10
71.449610
 20
122.681517
 30
0.0
 10
71.867300
 20
122.440376
 30
0.0
  0
SPLINE
  5
124
100
AcDbEntity
  8
0
 62
7
100
AcDbSpline
 70
8
 71
3
 72
8
 73
4
 74
0
 40
0
 40
0
 40
0
 40
0
 40
1
 40
1
 40
1
 40
1
 10
71.867300
 20
122.440376
 30
0.0
 10
72.284992
 20
122.199208
 30
0.0
 10
72.542299
 20
121.753544
 30
0.0
 10
72.542299
 20
121.271235
 30
0.0
  0
SPLINE
  5
125
100
AcDbEntity
  8
0
 62
7
100
AcDbSpline
 70
8
 71
3
 72
8
 73
4
 74
0
 40
0
 40
0
 40
0
 40
0
 40
1
 40
1
 40
1
 40
1
 10
96.242531
 20
121.271235
 30
0.0
 10
96.242531
 20
120.788926
 30
0.0
 10
95.985224
 20
120.343262
 30
0.0
 10
95.567532
 20
120.102094
 30
0.0
  0
SPLINE
  5
126
100
AcDbEntity
  8
0
 62
7
100
AcDbSpline
 70
8
 71
3
 72
8
 73
4
 74
0
 40
0
 40
0
 40
0
 40
0
 40
1
 40
1
 40
1
 40
1
 10
95.567532
 20
120.102094
 30
0.0
 10
95.149842
 20
119.860953
 30
0.0
 10
94.635222
 20
119.860953
 30
0.0
 10
94.217532
 20
120.102094
 30
0.0
  0
SPLINE
  5
127
100
AcDbEntity
  8
0
 62
7
100
AcDbSpline
 70
8
 71
3
 72
8
 73
4
 74
0
 40
0
 40
0
 40
0
 40
0
 40
1
 40
1
 40
1
 40
1
 10
94.217532
 20
120.102094
 30
0.0
 10
93.799840
 20
120.343262
 30
0.0
 10
93.542533
 20
120.788926
 30
0.0
 10
93.542533
 20
121.271235
 30
0.0
  0
SPLINE
  5
128
100
AcDbEntity
  8
0
 62
7
100
AcDbSpline
 70
8
 71
3
 72
8
 73
4
 74
0
 40
0
 40
0
 40
0
 40
0
 40
1
 40
1
 40
1
 40
1
 10
93.542533
 20
121.271235
 30
0.0
 10
93.542533
 20
121.753544
 30
0.0
 10
93.799840
 20
122.199208
 30
0.0
 10
94.217532
 20
122.440376
 30
0.0
  0
SPLINE
  5
129
100
AcDbEntity
  8
0
 62
7
100
AcDbSpline
 70
8
 71
3
 72
8
 73
4
 74
0
 40
0
 40
0
 40
0
 40
0
 40
1
 40
1
 40
1
 40
1
 10
94.217532
 20
122.440376
 30
0.0
 10
94.635222
 20
122.681517
 30
0.0
 10
95.149842
 20
122.681517
 30
0.0
 10
95.567532
 20
122.440376
 30
0.0
  0
SPLINE
  5
12a
100
AcDbEntity
  8
0
 62
7
100
AcDbSpline
 70
8
 71
3
 72
8
 73
4
 74
0
 40
0
 40
0
 40
0
 40
0
 40
1
 40
1
 40
1
 40
1
 10
95.567532
 20
122.440376
 30
0.0
 10
95.985224
 20
122.199208
 30
0.0
 10
96.242531
 20
121.753544
 30
0.0
 10
96.242531
 20
121.271235
 30
0.0
  0
SPLINE
  5
12b
100
AcDbEntity
  8
0
 62
7
100
AcDbSpline
 70
8
 71
3
 72
8
 73
4
 74
0
 40
0
 40
0
 40
0
 40
0
 40
1
 40
1
 40
1
 40
1
 10
121.697141
 20
121.271235
 30
0.0
 10
121.697141
 20
120.788926
 30
0.0
 10
121.439834
 20
120.343262
 30
0.0
 10
121.022142
 20
120.102094
 30
0.0
  0
SPLINE
  5
12c
100
AcDbEntity
  8
0
 62
7
100
AcDbSpline
 70
8
 71
3
 72
8
 73
4
 74
0
 40
0
 40
0
 40
0
 40
0
 40
1
 40
1
 40
1
 40
1
 10
121.022142
 20
120.102094
 30
0.0
 10
120.604452
 20
119.860953
 30
0.0
 10
120.089832
 20
119.860953
 30
0.0
 10
119.672142
 20
120.102094
 30
0.0
  0
SPLINE
  5
12d
100
AcDbEntity
  8
0
 62
7
100
AcDbSpline
 70
8
 71
3
 72
8
 73
4
 74
0
 40
0
 40
0
 40
0
 40
0
 40
1
 40
1
 40
1
 40
1
 10
119.672142
 20
120.102094
 30
0.0
 10
119.254450
 20
120.343262
 30
0.0
 10
118.997143
 20
120.788926
 30
0.0
 10
118.997143
 20
121.271235
 30
0.0
  0
SPLINE
  5
12e
100
AcDbEntity
  8
0
 62
7
100
AcDbSpline
 70
8
 71
3
 72
8
 73
4
 74
0
 40
0
 40
0
 40
0
 40
0
 40
1
 40
1
 40
1
 40
1
 10
118.997143
 20
121.271235
 30
0.0
 10
118.997143
 20
121.753544
 30
0.0
 10
119.254450
 20
122.199208
 30
0.0
 10
119.672142
 20
122.440376
 30
0.0
  0
SPLINE
  5
12f
100
AcDbEntity
  8
0
 62
7
100
AcDbSpline
 70
8
 71
3
 72
8
 73
4
 74
0
 40
0
 40
0
 40
0
 40
0
 40
1
 40
1
 40
1
 40
1
 10
119.672142
 20
122.440376
 30
0.0
 10
120.089832
 20
122.681517
 30
0.0
 10
120.604452
 20
122.681517
 30
0.0
 10
121.022142
 20
122.440376
 30
0.0
  0
SPLINE
  5
130
100
AcDbEntity
  8
0
 62
7
100
AcDbSpline
 70
8
 71
3
 72
8
 73
4
 74
0
 40
0
 40
0
 40
0
 40
0
 40
1
 40
1
 40
1
 40
1
 10
121.022142
 20
122.440376
 30
0.0
 10
121.439834
 20
122.199208
 30
0.0
 10
121.697141
 20
121.753544
 30
0.0
 10
121.697141
 20
121.271235
 30
0.0
  0
SPLINE
  5
131
100
AcDbEntity
  8
0
 62
7
100
AcDbSpline
 70
8
 71
3
 72
8
 73
4
 74
0
 40
0
 40
0
 40
0
 40
0
 40
1
 40
1
 40
1
 40
1
 10
228.061927
 20
121.271235
 30
0.0
 10
228.061927
 20
120.525639
 30
0.0
 10
227.457513
 20
119.921225
 30
0.0
 10
226.711928
 20
119.921225
 30
0.0
  0
SPLINE
  5
132
100
AcDbEntity
  8
0
 62
7
100
AcDbSpline
 70
8
 71
3
 72
8
 73
4
 74
0
 40
0
 40
0
 40
0
 40
0
 40
1
 40
1
 40
1
 40
1
 10
226.711928
 20
119.921225
 30
0.0
 10
225.966343
 20
119.921225
 30
0.0
 10
225.361929
 20
120.525639
 30
0.0
 10
225.361929
 20
121.271235
 30
0.0
  0
SPLINE
  5
133
100
AcDbEntity
  8
0
 62
7
100
AcDbSpline
 70
8
 71
3
 72
8
 73
4
 74
0
 40
0
 40
0
 40
0
 40
0
 40
1
 40
1
 40
1
 40
1
 10
225.361929
 20
121.271235
 30
0.0
 10
225.361929
 20
122.016804
 30
0.0
 10
225.966343
 20
122.621218
 30
0.0
 10
226.711928
 20
122.621218
 30
0.0
  0
SPLINE
  5
134
100
AcDbEntity
  8
0
 62
7
100
AcDbSpline
 70
8
 71
3
 72
8
 73
4
 74
0
 40
0
 40
0
 40
0
 40
0
 40
1
 40
1
 40
1
 40
1
 10
226.711928
 20
122.621218
 30
0.0
 10
227.457513
 20
122.621218
 30
0.0
 10
228.061927
 20
122.016804
 30
0.0
 10
228.061927
 20
121.271235
 30
0.0
  0
SPLINE
  5
135
100
AcDbEntity
  8
0
 62
7
100
AcDbSpline
 70
8
 71
3
 72
8
 73
4
 74
0
 40
0
 40
0
 40
0
 40
0
 40
1
 40
1
 40
1
 40
1
 10
13.482409
 20
124.771222
 30
0.0
 10
11.825559
 20
124.771222
 30
0.0
 10
10.482417
 20
123.428092
 30
0.0
 10
10.482416
 20
121.771218
 30
0.0
  0
SPLINE
  5
136
100
AcDbEntity
  8
0
 62
7
100
AcDbSpline
 70
8
 71
3
 72
8
 73
4
 74
0
 40
0
 40
0
 40
0
 40
0
 40
1
 40
1
 40
1
 40
1
 10
10.482416
 20
33.021263
 30
0.0
 10
10.482416
 20
31.364426
 30
0.0
 10
11.825558
 20
30.021296
 30
0.0
 10
13.482409
 20
30.021296
 30
0.0
  0
SPLINE
  5
137
100
AcDbEntity
  8
0
 62
7
100
AcDbSpline
 70
8
 71
3
 72
8
 73
4
 74
0
 40
0
 40
0
 40
0
 40
0
 40
1
 40
1
 40
1
 40
1
 10
333.577089
 20
30.021296
 30
0.0
 10
335.233830
 20
30.021428
 30
0.0
 10
336.576829
 20
31.364532
 30
0.0
 10
336.576829
 20
33.021263
 30
0.0
  0
SPLINE
  5
138
100
AcDbEntity
  8
0
 62
7
100
AcDbSpline
 70
8
 71
3
 72
8
 73
4
 74
0
 40
0
 40
0
 40
0
 40
0
 40
1
 40
1
 40
1
 40
1
 10
336.576829
 20
121.771218
 30
0.0
 10
336.576829
 20
123.427986
 30
0.0
 10
335.233830
 20
124.771090
 30
0.0
 10
333.577089
 20
124.771222
 30
0.0
  0
LWPOLYLINE
  5
139
100
AcDbEntity
  8
0
 62
7
100
AcDbPolyline
 90
2
 70
0
 10
10.481475
 20
33.022295
 30
0.0
 10
10.481475
 20
121.772435
 30
0.0
  0
LWPOLYLINE
  5
13a
100
AcDbEntity
  8
0
 62
7
100
AcDbPolyline
 90
2
 70
0
 10
13.481215
 20
124.772175
 30
0.0
 10
333.574549
 20
124.772175
 30
0.0
  0
LWPOLYLINE
  5
13b
100
AcDbEntity
  8
0
 62
7
100
AcDbPolyline
 90
2
 70
0
 10
333.574549
 20
30.022566
 30
0.0
 10
13.481215
 20
30.022566
 30
0.0
  0
LWPOLYLINE
  5
13c
100
AcDbEntity
  8
0
 62
7
100
AcDbPolyline
 90
2
 70
0
 10
336.574289
 20
121.772435
 30
0.0
 10
336.574289
 20
33.022295
 30
0.0
  0
ENDSEC
  0
SECTION
  2
OBJECTS
  0
DICTIONARY
  5
C
330
0
100
AcDbDictionary
  3
ACAD_GROUP
350
D
  3
ACAD_MLINESTYLE
350
17
  0
DICTIONARY
  5
D
330
C
100
AcDbDictionary
  0
DICTIONARY
  5
1A
330
C
100
AcDbDictionary
  0
DICTIONARY
  5
17
330
C
100
AcDbDictionary
  3
STANDARD
350
18
  0
DICTIONARY
  5
19
330
C
100
AcDbDictionary
  0
ENDSEC
  0
EOF
