  0
SECTION
  2
HEADER
  9
$ACADVER
  1
AC1014
  9
$HANDSEED
  5
FFFF
  9
$MEASUREMENT
 70
     1
  0
ENDSEC
  0
SECTION
  2
TABLES
  0
TABLE
  2
VPORT
  5
8
330
0
100
AcDbSymbolTable
 70
     4
  0
VPORT
  5
2E
330
8
100
AcDbSymbolTableRecord
100
AcDbViewportTableRecord
  2
*ACTIVE
 70
     0
 10
0.0
 20
0.0
 11
1.0
 21
1.0
 12
210.0
 22
148.5
 13
0.0
 23
0.0
 14
10.0
 24
10.0
 15
10.0
 25
10.0
 16
0.0
 26
0.0
 36
1.0
 17
0.0
 27
0.0
 37
0.0
 40
341.0
 41
1.24
 42
50.0
 43
0.0
 44
0.0
 50
0.0
 51
0.0
 71
     0
 72
   100
 73
     1
 74
     3
 75
     0
 76
     0
 77
     0
 78
     0
  0
ENDTAB
  0
TABLE
  2
LTYPE
  5
5
330
0
100
AcDbSymbolTable
 70
     1
  0
LTYPE
  5
14
330
5
100
AcDbSymbolTableRecord
100
AcDbLinetypeTableRecord
  2
BYBLOCK
 70
     0
  3

 72
    65
 73
     0
 40
0.0
  0
LTYPE
  5
15
330
5
100
AcDbSymbolTableRecord
100
AcDbLinetypeTableRecord
  2
BYLAYER
 70
     0
  3

 72
    65
 73
     0
 40
0.0
  0
LTYPE
  5
16
330
5
100
AcDbSymbolTableRecord
100
AcDbLinetypeTableRecord
  2
CONTINUOUS
 70
     0
  3
Solid line
 72
    65
 73
     0
 40
0.0
  0
ENDTAB
  0
TABLE
  2
LAYER
  5
2
100
AcDbSymbolTable
 70
1
  0
LAYER
  5
50
100
AcDbSymbolTableRecord
100
AcDbLayerTableRecord
  2
0
 70
0
  6
CONTINUOUS
  0
ENDTAB
  0
TABLE
  2
STYLE
  5
3
330
0
100
AcDbSymbolTable
 70
     1
  0
STYLE
  5
11
330
3
100
AcDbSymbolTableRecord
100
AcDbTextStyleTableRecord
  2
STANDARD
 70
     0
 40
0.0
 41
1.0
 50
0.0
 71
     0
 42
2.5
  3
txt
  4

  0
ENDTAB
  0
TABLE
  2
VIEW
  5
6
330
0
100
AcDbSymbolTable
 70
     0
  0
ENDTAB
  0
TABLE
  2
UCS
  5
7
330
0
100
AcDbSymbolTable
 70
     0
  0
ENDTAB
  0
TABLE
  2
APPID
  5
9
330
0
100
AcDbSymbolTable
 70
     2
  0
APPID
  5
12
330
9
100
AcDbSymbolTableRecord
100
AcDbRegAppTableRecord
  2
ACAD
 70
     0
  0
ENDTAB
  0
TABLE
  2
DIMSTYLE
  5
A
330
0
100
AcDbSymbolTable
 70
     1
  0
DIMSTYLE
105
27
330
A
100
AcDbSymbolTableRecord
100
AcDbDimStyleTableRecord
  2
ISO-25
 70
     0
  3

  4

  5

  6

  7

 40
1.0
 41
2.5
 42
0.625
 43
3.75
 44
1.25
 45
0.0
 46
0.0
 47
0.0
 48
0.0
140
2.5
141
2.5
142
0.0
143
0.03937007874016
144
1.0
145
0.0
146
1.0
147
0.625
 71
     0
 72
     0
 73
     0
 74
     0
 75
     0
 76
     0
 77
     1
 78
     8
170
     0
171
     3
172
     1
173
     0
174
     0
175
     0
176
     0
177
     0
178
     0
270
     2
271
     2
272
     2
273
     2
274
     3
340
11
275
     0
280
     0
281
     0
282
     0
283
     0
284
     8
285
     0
286
     0
287
     3
288
     0
  0
ENDTAB
  0
TABLE
  2
BLOCK_RECORD
  5
1
330
0
100
AcDbSymbolTable
 70
     1
  0
BLOCK_RECORD
  5
1F
330
1
100
AcDbSymbolTableRecord
100
AcDbBlockTableRecord
  2
*MODEL_SPACE
  0
BLOCK_RECORD
  5
1B
330
1
100
AcDbSymbolTableRecord
100
AcDbBlockTableRecord
  2
*PAPER_SPACE
  0
ENDTAB
  0
ENDSEC
  0
SECTION
  2
BLOCKS
  0
BLOCK
  5
20
330
1F
100
AcDbEntity
  8
0
100
AcDbBlockBegin
  2
*MODEL_SPACE
 70
     0
 10
0.0
 20
0.0
 30
0.0
  3
*MODEL_SPACE
  1

  0
ENDBLK
  5
21
330
1F
100
AcDbEntity
  8
0
100
AcDbBlockEnd
  0
BLOCK
  5
1C
330
1B
100
AcDbEntity
 67
     1
  8
0
100
AcDbBlockBegin
  2
*PAPER_SPACE
  1

  0
ENDBLK
  5
1D
330
1B
100
AcDbEntity
 67
     1
  8
0
100
AcDbBlockEnd
  0
ENDSEC
  0
SECTION
  2
ENTITIES
  0
LWPOLYLINE
  5
100
100
AcDbEntity
  8
0
 62
7
100
AcDbPolyline
 90
2
 70
0
 10
51.744312
 20
-55.223099
 30
0.0
 10
51.744312
 20
-36.173093
 30
0.0
  0
LWPOLYLINE
  5
101
100
AcDbEntity
  8
0
 62
7
100
AcDbPolyline
 90
2
 70
0
 10
42.219309
 20
-55.223099
 30
0.0
 10
51.744312
 20
-55.223099
 30
0.0
  0
LWPOLYLINE
  5
102
100
AcDbEntity
  8
0
 62
7
100
AcDbPolyline
 90
2
 70
0
 10
42.219309
 20
-74.273105
 30
0.0
 10
42.219309
 20
-55.223099
 30
0.0
  0
LWPOLYLINE
  5
103
100
AcDbEntity
  8
0
 62
7
100
AcDbPolyline
 90
2
 70
0
 10
27.931804
 20
-74.273105
 30
0.0
 10
42.219309
 20
-74.273105
 30
0.0
  0
LWPOLYLINE
  5
104
100
AcDbEntity
  8
0
 62
7
100
AcDbPolyline
 90
2
 70
0
 10
27.931804
 20
-93.323111
 30
0.0
 10
27.931804
 20
-74.273105
 30
0.0
  0
LWPOLYLINE
  5
105
100
AcDbEntity
  8
0
 62
7
100
AcDbPolyline
 90
2
 70
0
 10
23.169303
 20
-93.323111
 30
0.0
 10
27.931804
 20
-93.323111
 30
0.0
  0
LWPOLYLINE
  5
106
100
AcDbEntity
  8
0
 62
7
100
AcDbPolyline
 90
2
 70
0
 10
23.169303
 20
-112.223256
 30
0.0
 10
23.169303
 20
-93.323111
 30
0.0
  0
LWPOLYLINE
  5
107
100
AcDbEntity
  8
0
 62
7
100
AcDbPolyline
 90
2
 70
0
 10
318.645054
 20
-112.223256
 30
0.0
 10
23.169303
 20
-112.223256
 30
0.0
  0
LWPOLYLINE
  5
108
100
AcDbEntity
  8
0
 62
7
100
AcDbPolyline
 90
2
 70
0
 10
318.645054
 20
-36.173093
 30
0.0
 10
318.645054
 20
-112.223256
 30
0.0
  0
SPLINE
  5
109
100
AcDbEntity
  8
0
 62
7
100
AcDbSpline
 70
8
 71
3
 72
8
 73
4
 74
0
 40
0
 40
0
 40
0
 40
0
 40
1
 40
1
 40
1
 40
1
 10
27.611663
 20
-43.069881
 30
0.0
 10
22.657003
 20
-43.069881
 30
0.0
 10
18.190212
 20
-46.054496
 30
0.0
 10
16.294146
 20
-50.632004
 30
0.0
  0
SPLINE
  5
10a
100
AcDbEntity
  8
0
 62
7
100
AcDbSpline
 70
8
 71
3
 72
8
 73
4
 74
0
 40
0
 40
0
 40
0
 40
0
 40
1
 40
1
 40
1
 40
1
 10
16.294146
 20
-50.632004
 30
0.0
 10
14.398080
 20
-55.209512
 30
0.0
 10
15.446137
 20
-60.478452
 30
0.0
 10
18.949610
 20
-63.981926
 30
0.0
  0
SPLINE
  5
10b
100
AcDbEntity
  8
0
 62
7
100
AcDbSpline
 70
8
 71
3
 72
8
 73
4
 74
0
 40
0
 40
0
 40
0
 40
0
 40
1
 40
1
 40
1
 40
1
 10
18.949610
 20
-63.981926
 30
0.0
 10
22.453083
 20
-67.485399
 30
0.0
 10
27.722023
 20
-68.533456
 30
0.0
 10
32.299532
 20
-66.637390
 30
0.0
  0
SPLINE
  5
10c
100
AcDbEntity
  8
0
 62
7
100
AcDbSpline
 70
8
 71
3
 72
8
 73
4
 74
0
 40
0
 40
0
 40
0
 40
0
 40
1
 40
1
 40
1
 40
1
 10
32.299532
 20
-66.637390
 30
0.0
 10
36.877040
 20
-64.741324
 30
0.0
 10
39.861655
 20
-60.274532
 30
0.0
 10
39.861655
 20
-55.319873
 30
0.0
  0
SPLINE
  5
10d
100
AcDbEntity
  8
0
 62
7
100
AcDbSpline
 70
8
 71
3
 72
8
 73
4
 74
0
 40
0
 40
0
 40
0
 40
0
 40
1
 40
1
 40
1
 40
1
 10
39.861655
 20
-55.319873
 30
0.0
 10
39.861655
 20
-52.070973
 30
0.0
 10
38.571034
 20
-48.955140
 30
0.0
 10
36.273715
 20
-46.657820
 30
0.0
  0
SPLINE
  5
10e
100
AcDbEntity
  8
0
 62
7
100
AcDbSpline
 70
8
 71
3
 72
8
 73
4
 74
0
 40
0
 40
0
 40
0
 40
0
 40
1
 40
1
 40
1
 40
1
 10
36.273715
 20
-46.657820
 30
0.0
 10
33.976396
 20
-44.360501
 30
0.0
 10
30.860563
 20
-43.069881
 30
0.0
 10
27.611663
 20
-43.069881
 30
0.0
  0
LWPOLYLINE
  5
10f
100
AcDbEntity
  8
0
 62
7
100
AcDbPolyline
 90
2
 70
0
 10
51.744312
 20
-36.173093
 30
0.0
 10
318.645054
 20
-36.173093
 30
0.0
  0
SPLINE
  5
110
100
AcDbEntity
  8
0
 62
7
100
AcDbSpline
 70
8
 71
3
 72
8
 73
4
 74
0
 40
0
 40
0
 40
0
 40
0
 40
1
 40
1
 40
1
 40
1
 10
11.361652
 20
-116.919987
 30
0.0
 10
10.815628
 20
-116.919987
 30
0.0
 10
10.323369
 20
-117.248904
 30
0.0
 10
10.114414
 20
-117.753365
 30
0.0
  0
SPLINE
  5
111
100
AcDbEntity
  8
0
 62
7
100
AcDbSpline
 70
8
 71
3
 72
8
 73
4
 74
0
 40
0
 40
0
 40
0
 40
0
 40
1
 40
1
 40
1
 40
1
 10
10.114414
 20
-117.753365
 30
0.0
 10
9.905460
 20
-118.257825
 30
0.0
 10
10.020960
 20
-118.838484
 30
0.0
 10
10.407058
 20
-119.224582
 30
0.0
  0
SPLINE
  5
112
100
AcDbEntity
  8
0
 62
7
100
AcDbSpline
 70
8
 71
3
 72
8
 73
4
 74
0
 40
0
 40
0
 40
0
 40
0
 40
1
 40
1
 40
1
 40
1
 10
10.407058
 20
-119.224582
 30
0.0
 10
10.793155
 20
-119.610679
 30
0.0
 10
11.373814
 20
-119.726179
 30
0.0
 10
11.878275
 20
-119.517225
 30
0.0
  0
SPLINE
  5
113
100
AcDbEntity
  8
0
 62
7
100
AcDbSpline
 70
8
 71
3
 72
8
 73
4
 74
0
 40
0
 40
0
 40
0
 40
0
 40
1
 40
1
 40
1
 40
1
 10
11.878275
 20
-119.517225
 30
0.0
 10
12.382735
 20
-119.308271
 30
0.0
 10
12.711652
 20
-118.816011
 30
0.0
 10
12.711652
 20
-118.269987
 30
0.0
  0
SPLINE
  5
114
100
AcDbEntity
  8
0
 62
7
100
AcDbSpline
 70
8
 71
3
 72
8
 73
4
 74
0
 40
0
 40
0
 40
0
 40
0
 40
1
 40
1
 40
1
 40
1
 10
12.711652
 20
-118.269987
 30
0.0
 10
12.711652
 20
-117.911945
 30
0.0
 10
12.569420
 20
-117.568567
 30
0.0
 10
12.316246
 20
-117.315393
 30
0.0
  0
SPLINE
  5
115
100
AcDbEntity
  8
0
 62
7
100
AcDbSpline
 70
8
 71
3
 72
8
 73
4
 74
0
 40
0
 40
0
 40
0
 40
0
 40
1
 40
1
 40
1
 40
1
 10
12.316246
 20
-117.315393
 30
0.0
 10
12.063072
 20
-117.062219
 30
0.0
 10
11.719694
 20
-116.919987
 30
0.0
 10
11.361652
 20
-116.919987
 30
0.0
  0
LWPOLYLINE
  5
116
100
AcDbEntity
  8
0
 62
7
100
AcDbPolyline
 90
1
 70
1
 10
27.611663
 20
-43.069881
 30
0.0
  0
SPLINE
  5
117
100
AcDbEntity
  8
0
 62
7
100
AcDbSpline
 70
8
 71
3
 72
8
 73
4
 74
0
 40
0
 40
0
 40
0
 40
0
 40
1
 40
1
 40
1
 40
1
 10
224.091244
 20
-116.919987
 30
0.0
 10
223.545219
 20
-116.919987
 30
0.0
 10
223.052960
 20
-117.248904
 30
0.0
 10
222.844006
 20
-117.753365
 30
0.0
  0
SPLINE
  5
118
100
AcDbEntity
  8
0
 62
7
100
AcDbSpline
 70
8
 71
3
 72
8
 73
4
 74
0
 40
0
 40
0
 40
0
 40
0
 40
1
 40
1
 40
1
 40
1
 10
222.844006
 20
-117.753365
 30
0.0
 10
222.635052
 20
-118.257825
 30
0.0
 10
222.750552
 20
-118.838484
 30
0.0
 10
223.136649
 20
-119.224582
 30
0.0
  0
SPLINE
  5
119
100
AcDbEntity
  8
0
 62
7
100
AcDbSpline
 70
8
 71
3
 72
8
 73
4
 74
0
 40
0
 40
0
 40
0
 40
0
 40
1
 40
1
 40
1
 40
1
 10
223.136649
 20
-119.224582
 30
0.0
 10
223.522747
 20
-119.610679
 30
0.0
 10
224.103406
 20
-119.726179
 30
0.0
 10
224.607866
 20
-119.517225
 30
0.0
  0
SPLINE
  5
11a
100
AcDbEntity
  8
0
 62
7
100
AcDbSpline
 70
8
 71
3
 72
8
 73
4
 74
0
 40
0
 40
0
 40
0
 40
0
 40
1
 40
1
 40
1
 40
1
 10
224.607866
 20
-119.517225
 30
0.0
 10
225.112327
 20
-119.308271
 30
0.0
 10
225.441244
 20
-118.816011
 30
0.0
 10
225.441244
 20
-118.269987
 30
0.0
  0
SPLINE
  5
11b
100
AcDbEntity
  8
0
 62
7
100
AcDbSpline
 70
8
 71
3
 72
8
 73
4
 74
0
 40
0
 40
0
 40
0
 40
0
 40
1
 40
1
 40
1
 40
1
 10
225.441244
 20
-118.269987
 30
0.0
 10
225.441244
 20
-117.911945
 30
0.0
 10
225.299012
 20
-117.568567
 30
0.0
 10
225.045838
 20
-117.315393
 30
0.0
  0
SPLINE
  5
11c
100
AcDbEntity
  8
0
 62
7
100
AcDbSpline
 70
8
 71
3
 72
8
 73
4
 74
0
 40
0
 40
0
 40
0
 40
0
 40
1
 40
1
 40
1
 40
1
 10
225.045838
 20
-117.315393
 30
0.0
 10
224.792664
 20
-117.062219
 30
0.0
 10
224.449286
 20
-116.919987
 30
0.0
 10
224.091244
 20
-116.919987
 30
0.0
  0
LWPOLYLINE
  5
11d
100
AcDbEntity
  8
0
 62
7
100
AcDbPolyline
 90
1
 70
1
 10
11.361652
 20
-116.919987
 30
0.0
  0
SPLINE
  5
11e
100
AcDbEntity
  8
0
 62
7
100
AcDbSpline
 70
8
 71
3
 72
8
 73
4
 74
0
 40
0
 40
0
 40
0
 40
0
 40
1
 40
1
 40
1
 40
1
 10
330.456057
 20
-116.919987
 30
0.0
 10
329.910033
 20
-116.919987
 30
0.0
 10
329.417774
 20
-117.248904
 30
0.0
 10
329.208820
 20
-117.753365
 30
0.0
  0
SPLINE
  5
11f
100
AcDbEntity
  8
0
 62
7
100
AcDbSpline
 70
8
 71
3
 72
8
 73
4
 74
0
 40
0
 40
0
 40
0
 40
0
 40
1
 40
1
 40
1
 40
1
 10
329.208820
 20
-117.753365
 30
0.0
 10
328.999865
 20
-118.257825
 30
0.0
 10
329.115366
 20
-118.838484
 30
0.0
 10
329.501463
 20
-119.224582
 30
0.0
  0
SPLINE
  5
120
100
AcDbEntity
  8
0
 62
7
100
AcDbSpline
 70
8
 71
3
 72
8
 73
4
 74
0
 40
0
 40
0
 40
0
 40
0
 40
1
 40
1
 40
1
 40
1
 10
329.501463
 20
-119.224582
 30
0.0
 10
329.887560
 20
-119.610679
 30
0.0
 10
330.468219
 20
-119.726179
 30
0.0
 10
330.972680
 20
-119.517225
 30
0.0
  0
SPLINE
  5
121
100
AcDbEntity
  8
0
 62
7
100
AcDbSpline
 70
8
 71
3
 72
8
 73
4
 74
0
 40
0
 40
0
 40
0
 40
0
 40
1
 40
1
 40
1
 40
1
 10
330.972680
 20
-119.517225
 30
0.0
 10
331.477140
 20
-119.308271
 30
0.0
 10
331.806057
 20
-118.816011
 30
0.0
 10
331.806057
 20
-118.269987
 30
0.0
  0
SPLINE
  5
122
100
AcDbEntity
  8
0
 62
7
100
AcDbSpline
 70
8
 71
3
 72
8
 73
4
 74
0
 40
0
 40
0
 40
0
 40
0
 40
1
 40
1
 40
1
 40
1
 10
331.806057
 20
-118.269987
 30
0.0
 10
331.806057
 20
-117.911945
 30
0.0
 10
331.663826
 20
-117.568567
 30
0.0
 10
331.410651
 20
-117.315393
 30
0.0
  0
SPLINE
  5
123
100
AcDbEntity
  8
0
 62
7
100
AcDbSpline
 70
8
 71
3
 72
8
 73
4
 74
0
 40
0
 40
0
 40
0
 40
0
 40
1
 40
1
 40
1
 40
1
 10
331.410651
 20
-117.315393
 30
0.0
 10
331.157477
 20
-117.062219
 30
0.0
 10
330.814099
 20
-116.919987
 30
0.0
 10
330.456057
 20
-116.919987
 30
0.0
  0
LWPOLYLINE
  5
124
100
AcDbEntity
  8
0
 62
7
100
AcDbPolyline
 90
1
 70
1
 10
224.091244
 20
-116.919987
 30
0.0
  0
SPLINE
  5
125
100
AcDbEntity
  8
0
 62
7
100
AcDbSpline
 70
8
 71
3
 72
8
 73
4
 74
0
 40
0
 40
0
 40
0
 40
0
 40
1
 40
1
 40
1
 40
1
 10
117.726417
 20
-116.919987
 30
0.0
 10
117.180393
 20
-116.919987
 30
0.0
 10
116.688134
 20
-117.248904
 30
0.0
 10
116.479180
 20
-117.753365
 30
0.0
  0
SPLINE
  5
126
100
AcDbEntity
  8
0
 62
7
100
AcDbSpline
 70
8
 71
3
 72
8
 73
4
 74
0
 40
0
 40
0
 40
0
 40
0
 40
1
 40
1
 40
1
 40
1
 10
116.479180
 20
-117.753365
 30
0.0
 10
116.270225
 20
-118.257825
 30
0.0
 10
116.385726
 20
-118.838484
 30
0.0
 10
116.771823
 20
-119.224582
 30
0.0
  0
SPLINE
  5
127
100
AcDbEntity
  8
0
 62
7
100
AcDbSpline
 70
8
 71
3
 72
8
 73
4
 74
0
 40
0
 40
0
 40
0
 40
0
 40
1
 40
1
 40
1
 40
1
 10
116.771823
 20
-119.224582
 30
0.0
 10
117.157920
 20
-119.610679
 30
0.0
 10
117.738580
 20
-119.726179
 30
0.0
 10
118.243040
 20
-119.517225
 30
0.0
  0
SPLINE
  5
128
100
AcDbEntity
  8
0
 62
7
100
AcDbSpline
 70
8
 71
3
 72
8
 73
4
 74
0
 40
0
 40
0
 40
0
 40
0
 40
1
 40
1
 40
1
 40
1
 10
118.243040
 20
-119.517225
 30
0.0
 10
118.747501
 20
-119.308271
 30
0.0
 10
119.076418
 20
-118.816011
 30
0.0
 10
119.076418
 20
-118.269987
 30
0.0
  0
SPLINE
  5
129
100
AcDbEntity
  8
0
 62
7
100
AcDbSpline
 70
8
 71
3
 72
8
 73
4
 74
0
 40
0
 40
0
 40
0
 40
0
 40
1
 40
1
 40
1
 40
1
 10
119.076418
 20
-118.269987
 30
0.0
 10
119.076418
 20
-117.911945
 30
0.0
 10
118.934186
 20
-117.568567
 30
0.0
 10
118.681012
 20
-117.315393
 30
0.0
  0
SPLINE
  5
12a
100
AcDbEntity
  8
0
 62
7
100
AcDbSpline
 70
8
 71
3
 72
8
 73
4
 74
0
 40
0
 40
0
 40
0
 40
0
 40
1
 40
1
 40
1
 40
1
 10
118.681012
 20
-117.315393
 30
0.0
 10
118.427837
 20
-117.062219
 30
0.0
 10
118.084460
 20
-116.919987
 30
0.0
 10
117.726417
 20
-116.919987
 30
0.0
  0
LWPOLYLINE
  5
12b
100
AcDbEntity
  8
0
 62
7
100
AcDbPolyline
 90
1
 70
1
 10
330.456057
 20
-116.919987
 30
0.0
  0
SPLINE
  5
12c
100
AcDbEntity
  8
0
 62
7
100
AcDbSpline
 70
8
 71
3
 72
8
 73
4
 74
0
 40
0
 40
0
 40
0
 40
0
 40
1
 40
1
 40
1
 40
1
 10
11.361652
 20
-29.169864
 30
0.0
 10
10.815628
 20
-29.169864
 30
0.0
 10
10.323369
 20
-29.498781
 30
0.0
 10
10.114414
 20
-30.003241
 30
0.0
  0
SPLINE
  5
12d
100
AcDbEntity
  8
0
 62
7
100
AcDbSpline
 70
8
 71
3
 72
8
 73
4
 74
0
 40
0
 40
0
 40
0
 40
0
 40
1
 40
1
 40
1
 40
1
 10
10.114414
 20
-30.003241
 30
0.0
 10
9.905460
 20
-30.507702
 30
0.0
 10
10.020960
 20
-31.088361
 30
0.0
 10
10.407058
 20
-31.474458
 30
0.0
  0
SPLINE
  5
12e
100
AcDbEntity
  8
0
 62
7
100
AcDbSpline
 70
8
 71
3
 72
8
 73
4
 74
0
 40
0
 40
0
 40
0
 40
0
 40
1
 40
1
 40
1
 40
1
 10
10.407058
 20
-31.474458
 30
0.0
 10
10.793155
 20
-31.860556
 30
0.0
 10
11.373814
 20
-31.976056
 30
0.0
 10
11.878275
 20
-31.767101
 30
0.0
  0
SPLINE
  5
12f
100
AcDbEntity
  8
0
 62
7
100
AcDbSpline
 70
8
 71
3
 72
8
 73
4
 74
0
 40
0
 40
0
 40
0
 40
0
 40
1
 40
1
 40
1
 40
1
 10
11.878275
 20
-31.767101
 30
0.0
 10
12.382735
 20
-31.558147
 30
0.0
 10
12.711652
 20
-31.065888
 30
0.0
 10
12.711652
 20
-30.519864
 30
0.0
  0
SPLINE
  5
130
100
AcDbEntity
  8
0
 62
7
100
AcDbSpline
 70
8
 71
3
 72
8
 73
4
 74
0
 40
0
 40
0
 40
0
 40
0
 40
1
 40
1
 40
1
 40
1
 10
12.711652
 20
-30.519864
 30
0.0
 10
12.711652
 20
-30.161822
 30
0.0
 10
12.569420
 20
-29.818444
 30
0.0
 10
12.316246
 20
-29.565270
 30
0.0
  0
SPLINE
  5
131
100
AcDbEntity
  8
0
 62
7
100
AcDbSpline
 70
8
 71
3
 72
8
 73
4
 74
0
 40
0
 40
0
 40
0
 40
0
 40
1
 40
1
 40
1
 40
1
 10
12.316246
 20
-29.565270
 30
0.0
 10
12.063072
 20
-29.312095
 30
0.0
 10
11.719694
 20
-29.169864
 30
0.0
 10
11.361652
 20
-29.169864
 30
0.0
  0
LWPOLYLINE
  5
132
100
AcDbEntity
  8
0
 62
7
100
AcDbPolyline
 90
1
 70
1
 10
117.726417
 20
-116.919987
 30
0.0
  0
SPLINE
  5
133
100
AcDbEntity
  8
0
 62
7
100
AcDbSpline
 70
8
 71
3
 72
8
 73
4
 74
0
 40
0
 40
0
 40
0
 40
0
 40
1
 40
1
 40
1
 40
1
 10
330.456057
 20
-29.169864
 30
0.0
 10
329.910033
 20
-29.169864
 30
0.0
 10
329.417774
 20
-29.498781
 30
0.0
 10
329.208820
 20
-30.003241
 30
0.0
  0
SPLINE
  5
134
100
AcDbEntity
  8
0
 62
7
100
AcDbSpline
 70
8
 71
3
 72
8
 73
4
 74
0
 40
0
 40
0
 40
0
 40
0
 40
1
 40
1
 40
1
 40
1
 10
329.208820
 20
-30.003241
 30
0.0
 10
328.999865
 20
-30.507702
 30
0.0
 10
329.115366
 20
-31.088361
 30
0.0
 10
329.501463
 20
-31.474458
 30
0.0
  0
SPLINE
  5
135
100
AcDbEntity
  8
0
 62
7
100
AcDbSpline
 70
8
 71
3
 72
8
 73
4
 74
0
 40
0
 40
0
 40
0
 40
0
 40
1
 40
1
 40
1
 40
1
 10
329.501463
 20
-31.474458
 30
0.0
 10
329.887560
 20
-31.860556
 30
0.0
 10
330.468219
 20
-31.976056
 30
0.0
 10
330.972680
 20
-31.767101
 30
0.0
  0
SPLINE
  5
136
100
AcDbEntity
  8
0
 62
7
100
AcDbSpline
 70
8
 71
3
 72
8
 73
4
 74
0
 40
0
 40
0
 40
0
 40
0
 40
1
 40
1
 40
1
 40
1
 10
330.972680
 20
-31.767101
 30
0.0
 10
331.477140
 20
-31.558147
 30
0.0
 10
331.806057
 20
-31.065888
 30
0.0
 10
331.806057
 20
-30.519864
 30
0.0
  0
SPLINE
  5
137
100
AcDbEntity
  8
0
 62
7
100
AcDbSpline
 70
8
 71
3
 72
8
 73
4
 74
0
 40
0
 40
0
 40
0
 40
0
 40
1
 40
1
 40
1
 40
1
 10
331.806057
 20
-30.519864
 30
0.0
 10
331.806057
 20
-30.161822
 30
0.0
 10
331.663826
 20
-29.818444
 30
0.0
 10
331.410651
 20
-29.565270
 30
0.0
  0
SPLINE
  5
138
100
AcDbEntity
  8
0
 62
7
100
AcDbSpline
 70
8
 71
3
 72
8
 73
4
 74
0
 40
0
 40
0
 40
0
 40
0
 40
1
 40
1
 40
1
 40
1
 10
331.410651
 20
-29.565270
 30
0.0
 10
331.157477
 20
-29.312095
 30
0.0
 10
330.814099
 20
-29.169864
 30
0.0
 10
330.456057
 20
-29.169864
 30
0.0
  0
LWPOLYLINE
  5
139
100
AcDbEntity
  8
0
 62
7
100
AcDbPolyline
 90
1
 70
1
 10
11.361652
 20
-29.169864
 30
0.0
  0
SPLINE
  5
13a
100
AcDbEntity
  8
0
 62
7
100
AcDbSpline
 70
8
 71
3
 72
8
 73
4
 74
0
 40
0
 40
0
 40
0
 40
0
 40
1
 40
1
 40
1
 40
1
 10
68.571563
 20
-29.169864
 30
0.0
 10
68.025539
 20
-29.169864
 30
0.0
 10
67.533280
 20
-29.498781
 30
0.0
 10
67.324325
 20
-30.003241
 30
0.0
  0
SPLINE
  5
13b
100
AcDbEntity
  8
0
 62
7
100
AcDbSpline
 70
8
 71
3
 72
8
 73
4
 74
0
 40
0
 40
0
 40
0
 40
0
 40
1
 40
1
 40
1
 40
1
 10
67.324325
 20
-30.003241
 30
0.0
 10
67.115371
 20
-30.507702
 30
0.0
 10
67.230871
 20
-31.088361
 30
0.0
 10
67.616969
 20
-31.474458
 30
0.0
  0
SPLINE
  5
13c
100
AcDbEntity
  8
0
 62
7
100
AcDbSpline
 70
8
 71
3
 72
8
 73
4
 74
0
 40
0
 40
0
 40
0
 40
0
 40
1
 40
1
 40
1
 40
1
 10
67.616969
 20
-31.474458
 30
0.0
 10
68.003066
 20
-31.860556
 30
0.0
 10
68.583725
 20
-31.976056
 30
0.0
 10
69.088186
 20
-31.767101
 30
0.0
  0
SPLINE
  5
13d
100
AcDbEntity
  8
0
 62
7
100
AcDbSpline
 70
8
 71
3
 72
8
 73
4
 74
0
 40
0
 40
0
 40
0
 40
0
 40
1
 40
1
 40
1
 40
1
 10
69.088186
 20
-31.767101
 30
0.0
 10
69.592646
 20
-31.558147
 30
0.0
 10
69.921563
 20
-31.065888
 30
0.0
 10
69.921563
 20
-30.519864
 30
0.0
  0
SPLINE
  5
13e
100
AcDbEntity
  8
0
 62
7
100
AcDbSpline
 70
8
 71
3
 72
8
 73
4
 74
0
 40
0
 40
0
 40
0
 40
0
 40
1
 40
1
 40
1
 40
1
 10
69.921563
 20
-30.519864
 30
0.0
 10
69.921563
 20
-30.161822
 30
0.0
 10
69.779331
 20
-29.818444
 30
0.0
 10
69.526157
 20
-29.565270
 30
0.0
  0
SPLINE
  5
13f
100
AcDbEntity
  8
0
 62
7
100
AcDbSpline
 70
8
 71
3
 72
8
 73
4
 74
0
 40
0
 40
0
 40
0
 40
0
 40
1
 40
1
 40
1
 40
1
 10
69.526157
 20
-29.565270
 30
0.0
 10
69.272983
 20
-29.312095
 30
0.0
 10
68.929605
 20
-29.169864
 30
0.0
 10
68.571563
 20
-29.169864
 30
0.0
  0
LWPOLYLINE
  5
140
100
AcDbEntity
  8
0
 62
7
100
AcDbPolyline
 90
1
 70
1
 10
330.456057
 20
-29.169864
 30
0.0
  0
SPLINE
  5
141
100
AcDbEntity
  8
0
 62
7
100
AcDbSpline
 70
8
 71
3
 72
8
 73
4
 74
0
 40
0
 40
0
 40
0
 40
0
 40
1
 40
1
 40
1
 40
1
 10
92.271800
 20
-29.169864
 30
0.0
 10
91.526215
 20
-29.169864
 30
0.0
 10
90.921799
 20
-29.774279
 30
0.0
 10
90.921799
 20
-30.519864
 30
0.0
  0
SPLINE
  5
142
100
AcDbEntity
  8
0
 62
7
100
AcDbSpline
 70
8
 71
3
 72
8
 73
4
 74
0
 40
0
 40
0
 40
0
 40
0
 40
1
 40
1
 40
1
 40
1
 10
90.921799
 20
-30.519864
 30
0.0
 10
90.921799
 20
-31.265448
 30
0.0
 10
91.526215
 20
-31.869864
 30
0.0
 10
92.271800
 20
-31.869864
 30
0.0
  0
SPLINE
  5
143
100
AcDbEntity
  8
0
 62
7
100
AcDbSpline
 70
8
 71
3
 72
8
 73
4
 74
0
 40
0
 40
0
 40
0
 40
0
 40
1
 40
1
 40
1
 40
1
 10
92.271800
 20
-31.869864
 30
0.0
 10
93.017384
 20
-31.869864
 30
0.0
 10
93.621800
 20
-31.265448
 30
0.0
 10
93.621800
 20
-30.519864
 30
0.0
  0
SPLINE
  5
144
100
AcDbEntity
  8
0
 62
7
100
AcDbSpline
 70
8
 71
3
 72
8
 73
4
 74
0
 40
0
 40
0
 40
0
 40
0
 40
1
 40
1
 40
1
 40
1
 10
93.621800
 20
-30.519864
 30
0.0
 10
93.621800
 20
-30.161822
 30
0.0
 10
93.479568
 20
-29.818444
 30
0.0
 10
93.226394
 20
-29.565270
 30
0.0
  0
SPLINE
  5
145
100
AcDbEntity
  8
0
 62
7
100
AcDbSpline
 70
8
 71
3
 72
8
 73
4
 74
0
 40
0
 40
0
 40
0
 40
0
 40
1
 40
1
 40
1
 40
1
 10
93.226394
 20
-29.565270
 30
0.0
 10
92.973220
 20
-29.312095
 30
0.0
 10
92.629842
 20
-29.169864
 30
0.0
 10
92.271800
 20
-29.169864
 30
0.0
  0
LWPOLYLINE
  5
146
100
AcDbEntity
  8
0
 62
7
100
AcDbPolyline
 90
1
 70
1
 10
68.571563
 20
-29.169864
 30
0.0
  0
SPLINE
  5
147
100
AcDbEntity
  8
0
 62
7
100
AcDbSpline
 70
8
 71
3
 72
8
 73
4
 74
0
 40
0
 40
0
 40
0
 40
0
 40
1
 40
1
 40
1
 40
1
 10
117.726417
 20
-29.169864
 30
0.0
 10
117.180393
 20
-29.169864
 30
0.0
 10
116.688134
 20
-29.498781
 30
0.0
 10
116.479180
 20
-30.003241
 30
0.0
  0
SPLINE
  5
148
100
AcDbEntity
  8
0
 62
7
100
AcDbSpline
 70
8
 71
3
 72
8
 73
4
 74
0
 40
0
 40
0
 40
0
 40
0
 40
1
 40
1
 40
1
 40
1
 10
116.479180
 20
-30.003241
 30
0.0
 10
116.270225
 20
-30.507702
 30
0.0
 10
116.385726
 20
-31.088361
 30
0.0
 10
116.771823
 20
-31.474458
 30
0.0
  0
SPLINE
  5
149
100
AcDbEntity
  8
0
 62
7
100
AcDbSpline
 70
8
 71
3
 72
8
 73
4
 74
0
 40
0
 40
0
 40
0
 40
0
 40
1
 40
1
 40
1
 40
1
 10
116.771823
 20
-31.474458
 30
0.0
 10
117.157920
 20
-31.860556
 30
0.0
 10
117.738580
 20
-31.976056
 30
0.0
 10
118.243040
 20
-31.767101
 30
0.0
  0
SPLINE
  5
14a
100
AcDbEntity
  8
0
 62
7
100
AcDbSpline
 70
8
 71
3
 72
8
 73
4
 74
0
 40
0
 40
0
 40
0
 40
0
 40
1
 40
1
 40
1
 40
1
 10
118.243040
 20
-31.767101
 30
0.0
 10
118.747501
 20
-31.558147
 30
0.0
 10
119.076418
 20
-31.065888
 30
0.0
 10
119.076418
 20
-30.519864
 30
0.0
  0
SPLINE
  5
14b
100
AcDbEntity
  8
0
 62
7
100
AcDbSpline
 70
8
 71
3
 72
8
 73
4
 74
0
 40
0
 40
0
 40
0
 40
0
 40
1
 40
1
 40
1
 40
1
 10
119.076418
 20
-30.519864
 30
0.0
 10
119.076418
 20
-30.161822
 30
0.0
 10
118.934186
 20
-29.818444
 30
0.0
 10
118.681012
 20
-29.565270
 30
0.0
  0
SPLINE
  5
14c
100
AcDbEntity
  8
0
 62
7
100
AcDbSpline
 70
8
 71
3
 72
8
 73
4
 74
0
 40
0
 40
0
 40
0
 40
0
 40
1
 40
1
 40
1
 40
1
 10
118.681012
 20
-29.565270
 30
0.0
 10
118.427837
 20
-29.312095
 30
0.0
 10
118.084460
 20
-29.169864
 30
0.0
 10
117.726417
 20
-29.169864
 30
0.0
  0
LWPOLYLINE
  5
14d
100
AcDbEntity
  8
0
 62
7
100
AcDbPolyline
 90
1
 70
1
 10
92.271800
 20
-29.169864
 30
0.0
  0
SPLINE
  5
14e
100
AcDbEntity
  8
0
 62
7
100
AcDbSpline
 70
8
 71
3
 72
8
 73
4
 74
0
 40
0
 40
0
 40
0
 40
0
 40
1
 40
1
 40
1
 40
1
 10
224.091244
 20
-29.169864
 30
0.0
 10
223.545219
 20
-29.169864
 30
0.0
 10
223.052960
 20
-29.498781
 30
0.0
 10
222.844006
 20
-30.003241
 30
0.0
  0
SPLINE
  5
14f
100
AcDbEntity
  8
0
 62
7
100
AcDbSpline
 70
8
 71
3
 72
8
 73
4
 74
0
 40
0
 40
0
 40
0
 40
0
 40
1
 40
1
 40
1
 40
1
 10
222.844006
 20
-30.003241
 30
0.0
 10
222.635052
 20
-30.507702
 30
0.0
 10
222.750552
 20
-31.088361
 30
0.0
 10
223.136649
 20
-31.474458
 30
0.0
  0
SPLINE
  5
150
100
AcDbEntity
  8
0
 62
7
100
AcDbSpline
 70
8
 71
3
 72
8
 73
4
 74
0
 40
0
 40
0
 40
0
 40
0
 40
1
 40
1
 40
1
 40
1
 10
223.136649
 20
-31.474458
 30
0.0
 10
223.522747
 20
-31.860556
 30
0.0
 10
224.103406
 20
-31.976056
 30
0.0
 10
224.607866
 20
-31.767101
 30
0.0
  0
SPLINE
  5
151
100
AcDbEntity
  8
0
 62
7
100
AcDbSpline
 70
8
 71
3
 72
8
 73
4
 74
0
 40
0
 40
0
 40
0
 40
0
 40
1
 40
1
 40
1
 40
1
 10
224.607866
 20
-31.767101
 30
0.0
 10
225.112327
 20
-31.558147
 30
0.0
 10
225.441244
 20
-31.065888
 30
0.0
 10
225.441244
 20
-30.519864
 30
0.0
  0
SPLINE
  5
152
100
AcDbEntity
  8
0
 62
7
100
AcDbSpline
 70
8
 71
3
 72
8
 73
4
 74
0
 40
0
 40
0
 40
0
 40
0
 40
1
 40
1
 40
1
 40
1
 10
225.441244
 20
-30.519864
 30
0.0
 10
225.441244
 20
-30.161822
 30
0.0
 10
225.299012
 20
-29.818444
 30
0.0
 10
225.045838
 20
-29.565270
 30
0.0
  0
SPLINE
  5
153
100
AcDbEntity
  8
0
 62
7
100
AcDbSpline
 70
8
 71
3
 72
8
 73
4
 74
0
 40
0
 40
0
 40
0
 40
0
 40
1
 40
1
 40
1
 40
1
 10
225.045838
 20
-29.565270
 30
0.0
 10
224.792664
 20
-29.312095
 30
0.0
 10
224.449286
 20
-29.169864
 30
0.0
 10
224.091244
 20
-29.169864
 30
0.0
  0
LWPOLYLINE
  5
154
100
AcDbEntity
  8
0
 62
7
100
AcDbPolyline
 90
1
 70
1
 10
117.726417
 20
-29.169864
 30
0.0
  0
SPLINE
  5
155
100
AcDbEntity
  8
0
 62
7
100
AcDbSpline
 70
8
 71
3
 72
8
 73
4
 74
0
 40
0
 40
0
 40
0
 40
0
 40
1
 40
1
 40
1
 40
1
 10
10.861653
 20
-27.019871
 30
0.0
 10
9.204802
 20
-27.019872
 30
0.0
 10
7.861660
 20
-28.363015
 30
0.0
 10
7.861659
 20
-30.019865
 30
0.0
  0
SPLINE
  5
156
100
AcDbEntity
  8
0
 62
7
100
AcDbSpline
 70
8
 71
3
 72
8
 73
4
 74
0
 40
0
 40
0
 40
0
 40
0
 40
1
 40
1
 40
1
 40
1
 10
7.861659
 20
-118.769854
 30
0.0
 10
7.861659
 20
-120.426705
 30
0.0
 10
9.204802
 20
-121.769849
 30
0.0
 10
10.861653
 20
-121.769849
 30
0.0
  0
SPLINE
  5
157
100
AcDbEntity
  8
0
 62
7
100
AcDbSpline
 70
8
 71
3
 72
8
 73
4
 74
0
 40
0
 40
0
 40
0
 40
0
 40
1
 40
1
 40
1
 40
1
 10
330.956437
 20
-121.769849
 30
0.0
 10
332.613190
 20
-121.769709
 30
0.0
 10
333.956178
 20
-120.426607
 30
0.0
 10
333.956178
 20
-118.769854
 30
0.0
  0
SPLINE
  5
158
100
AcDbEntity
  8
0
 62
7
100
AcDbSpline
 70
8
 71
3
 72
8
 73
4
 74
0
 40
0
 40
0
 40
0
 40
0
 40
1
 40
1
 40
1
 40
1
 10
333.956178
 20
-30.019865
 30
0.0
 10
333.956178
 20
-28.363113
 30
0.0
 10
332.613189
 20
-27.020012
 30
0.0
 10
330.956437
 20
-27.019871
 30
0.0
  0
LWPOLYLINE
  5
159
100
AcDbEntity
  8
0
 62
7
100
AcDbPolyline
 90
1
 70
1
 10
224.091244
 20
-29.169864
 30
0.0
  0
LWPOLYLINE
  5
15a
100
AcDbEntity
  8
0
 62
7
100
AcDbPolyline
 90
2
 70
0
 10
7.860718
 20
-118.768838
 30
0.0
 10
7.860718
 20
-30.018671
 30
0.0
  0
LWPOLYLINE
  5
15b
100
AcDbEntity
  8
0
 62
7
100
AcDbPolyline
 90
2
 70
0
 10
10.860459
 20
-27.018930
 30
0.0
 10
330.953897
 20
-27.018930
 30
0.0
  0
LWPOLYLINE
  5
15c
100
AcDbEntity
  8
0
 62
7
100
AcDbPolyline
 90
2
 70
0
 10
330.953897
 20
-121.768579
 30
0.0
 10
10.860459
 20
-121.768579
 30
0.0
  0
LWPOLYLINE
  5
15d
100
AcDbEntity
  8
0
 62
7
100
AcDbPolyline
 90
2
 70
0
 10
333.953638
 20
-30.018671
 30
0.0
 10
333.953638
 20
-118.768838
 30
0.0
  0
ENDSEC
  0
SECTION
  2
OBJECTS
  0
DICTIONARY
  5
C
330
0
100
AcDbDictionary
  3
ACAD_GROUP
350
D
  3
ACAD_MLINESTYLE
350
17
  0
DICTIONARY
  5
D
330
C
100
AcDbDictionary
  0
DICTIONARY
  5
1A
330
C
100
AcDbDictionary
  0
DICTIONARY
  5
17
330
C
100
AcDbDictionary
  3
STANDARD
350
18
  0
DICTIONARY
  5
19
330
C
100
AcDbDictionary
  0
ENDSEC
  0
EOF
