<?xml version="1.0" standalone="no"?>
 <!DOCTYPE svg PUBLIC "-//W3C//DTD SVG 1.1//EN" 
 "http://www.w3.org/Graphics/SVG/1.1/DTD/svg11.dtd"> 
<svg xmlns="http://www.w3.org/2000/svg" version="1.1" 
    width="32.6288cm" height="9.49452cm" viewBox="0 0 128460 37380 ">
<title>SVG Picture created as SwitchPlate-brd.svg date 2020/06/03 14:04:07 </title>
  <desc>Picture generated by PCBNEW </desc>
<g style="fill:#000000; fill-opacity:1;stroke:#000000; stroke-opacity:1;
stroke-linecap:round; stroke-linejoin:round; "
 transform="translate(0 0) scale(1 1)">
</g>
<g style="fill:#000000; fill-opacity:0.0; 
stroke:#000000; stroke-width:-0.000393701; stroke-opacity:1; 
stroke-linecap:round; stroke-linejoin:round;">
</g>
<g style="fill:#000000; fill-opacity:0.0; 
stroke:#000000; stroke-width:78.7402; stroke-opacity:1; 
stroke-linecap:round; stroke-linejoin:round;">
<circle cx="1417.32" cy="35964.6" r="531.496" /> 
<circle cx="85169.1" cy="35964.6" r="531.496" /> 
<circle cx="127045" cy="35964.6" r="531.496" /> 
<circle cx="43293.2" cy="35964.6" r="531.496" /> 
<circle cx="1417.32" cy="1417.32" r="531.496" /> 
<circle cx="127045" cy="1417.32" r="531.496" /> 
<circle cx="23940.9" cy="1417.32" r="531.496" /> 
<circle cx="33271.7" cy="1417.32" r="531.496" /> 
<circle cx="43293.2" cy="1417.32" r="531.496" /> 
<circle cx="85169.1" cy="1417.32" r="531.496" /> 
<path d="M4566 8385
L4566 13976
" />
<path d="M4566 13976
L10866 13976
" />
<path d="M10866 8385
L10866 13976
" />
<path d="M4566 8385
L10866 8385
" />
<path d="M1220.47 39.3705 A1181.1 1181.1 0.0 0 0 39.3705 1220.47 " />
<path d="M39.3705 36161.4 A1181.1 1181.1 0.0 0 0 1220.47 37342.5 " />
<path d="M127242 37342.5 A1181.1 1181.1 0.0 0 0 128423 36161.4 " />
<path d="M128423 1220.47 A1181.1 1181.1 0.0 0 0 127242 39.3705 " />
<path d="M39 36161
L39 1220
" />
<path d="M108350 32688
L121361 32688
" />
<path d="M1220 39
L127241 39
" />
<path d="M108350 27177
L108350 32688
" />
<path d="M109521 27177
L108350 27177
" />
<path d="M127241 37342
L1220 37342
" />
<path d="M121361 27177
L120190 27177
" />
<path d="M121361 32688
L121361 27177
" />
<path d="M109521 26795
L109521 27177
" />
<path d="M128422 1220
L128422 36161
" />
<path d="M41674 27177
L38633 27177
" />
<path d="M46709 26795
L46709 27267
" />
<path d="M41674 30838
L46030 30838
" />
<path d="M37333 27177
L35225 27177
" />
<path d="M49287 32688
L60424 32688
" />
<path d="M41674 29027
L41674 27177
" />
<path d="M46030 30838
L46030 32110
" />
<path d="M35225 27177
L35225 32688
" />
<path d="M46709 27267
L46030 27267
" />
<path d="M35225 32688
L41674 32688
" />
<path d="M46030 29027
L41674 29027
" />
<path d="M38633 26795
L37333 26795
" />
<path d="M37333 26795
L37333 27177
" />
<path d="M41674 32688
L41674 30838
" />
<path d="M49287 32110
L49287 32688
" />
<path d="M38633 27177
L38633 26795
" />
<path d="M46030 32110
L49287 32110
" />
<path d="M46030 27267
L46030 29027
" />
<path d="M65459 27177
L64287 27177
" />
<path d="M74829 27177
L66757 27177
" />
<path d="M57378 26795
L56078 26795
" />
<path d="M48007 26795
L46709 26795
" />
<path d="M48007 27177
L48007 26795
" />
<path d="M66757 26795
L65459 26795
" />
<path d="M60424 29027
L60424 27177
" />
<path d="M65459 26795
L65459 27177
" />
<path d="M56078 27177
L48007 27177
" />
<path d="M60424 27177
L57378 27177
" />
<path d="M64287 29027
L60424 29027
" />
<path d="M56078 26795
L56078 27177
" />
<path d="M66757 27177
L66757 26795
" />
<path d="M57378 27177
L57378 26795
" />
<path d="M64287 27177
L64287 29027
" />
<path d="M92412 27177
L97924 27177
" />
<path d="M92412 32688
L92412 27177
" />
<path d="M100850 32688
L100850 27177
" />
<path d="M106361 27177
L106361 32688
" />
<path d="M110820 26795
L109521 26795
" />
<path d="M97924 27177
L97924 32688
" />
<path d="M100850 27177
L106361 27177
" />
<path d="M118891 27177
L110820 27177
" />
<path d="M120190 26795
L118891 26795
" />
<path d="M97924 32688
L92412 32688
" />
<path d="M74829 26795
L74829 27177
" />
<path d="M78003 26795
L74829 26795
" />
<path d="M118891 26795
L118891 27177
" />
<path d="M106361 32688
L100850 32688
" />
<path d="M110820 27177
L110820 26795
" />
<path d="M120190 27177
L120190 26795
" />
<path d="M55850 19677
L61361 19677
" />
<path d="M68861 19677
L68861 25188
" />
<path d="M68861 25188
L63350 25188
" />
<path d="M78350 25188
L78350 19677
" />
<path d="M63350 19677
L68861 19677
" />
<path d="M70850 25188
L70850 19677
" />
<path d="M76361 19677
L76361 25188
" />
<path d="M55850 25188
L55850 19677
" />
<path d="M63350 25188
L63350 19677
" />
<path d="M61361 19677
L61361 25188
" />
<path d="M83861 25188
L78350 25188
" />
<path d="M78350 19677
L83861 19677
" />
<path d="M46361 25188
L40850 25188
" />
<path d="M46361 19677
L46361 25188
" />
<path d="M53861 25188
L48350 25188
" />
<path d="M48350 19677
L53861 19677
" />
<path d="M76361 25188
L70850 25188
" />
<path d="M40850 19677
L46361 19677
" />
<path d="M48350 25188
L48350 19677
" />
<path d="M61361 25188
L55850 25188
" />
<path d="M70850 19677
L76361 19677
" />
<path d="M53861 19677
L53861 25188
" />
<path d="M83861 19677
L83861 25188
" />
<path d="M115850 25188
L115850 19677
" />
<path d="M106361 25188
L100850 25188
" />
<path d="M113861 19677
L113861 25188
" />
<path d="M115850 19677
L121361 19677
" />
<path d="M108350 19677
L113861 19677
" />
<path d="M113861 25188
L108350 25188
" />
<path d="M22924 19677
L8975 19677
" />
<path d="M108350 25188
L108350 19677
" />
<path d="M93350 25188
L93350 19677
" />
<path d="M93350 19677
L98861 19677
" />
<path d="M100850 19677
L106361 19677
" />
<path d="M121361 19677
L121361 25188
" />
<path d="M85850 25188
L85850 19677
" />
<path d="M121361 25188
L115850 25188
" />
<path d="M22924 25188
L22924 19677
" />
<path d="M91361 25188
L85850 25188
" />
<path d="M91361 19677
L91361 25188
" />
<path d="M98861 19677
L98861 25188
" />
<path d="M100850 25188
L100850 19677
" />
<path d="M21753 25188
L22924 25188
" />
<path d="M106361 19677
L106361 25188
" />
<path d="M85850 19677
L91361 19677
" />
<path d="M98861 25188
L93350 25188
" />
<path d="M26787 32688
L26787 27177
" />
<path d="M32299 27177
L32299 32688
" />
<path d="M17412 27177
L22924 27177
" />
<path d="M11083 25188
L11083 25570
" />
<path d="M8037 32688
L8037 27177
" />
<path d="M13549 27177
L13549 32688
" />
<path d="M17412 32688
L17412 27177
" />
<path d="M22924 32688
L17412 32688
" />
<path d="M26787 27177
L32299 27177
" />
<path d="M78003 27267
L78003 26794
" />
<path d="M21753 25570
L21753 25188
" />
<path d="M20453 25570
L21753 25570
" />
<path d="M20453 25188
L20453 25570
" />
<path d="M8975 19677
L8975 25188
" />
<path d="M8037 27177
L13549 27177
" />
<path d="M12383 25188
L20453 25188
" />
<path d="M12383 25570
L12383 25188
" />
<path d="M11083 25570
L12383 25570
" />
<path d="M8975 25188
L11083 25188
" />
<path d="M32299 32688
L26787 32688
" />
<path d="M13549 32688
L8037 32688
" />
<path d="M22924 27177
L22924 32688
" />
<path d="M78682 27267
L78003 27267
" />
<path d="M82100 29027
L78682 29027
" />
<path d="M78682 29027
L78682 27267
" />
<path d="M86079 27177
L82100 27177
" />
<path d="M82100 32688
L88549 32688
" />
<path d="M86079 26794
L86079 27177
" />
<path d="M78682 32109
L78682 30838
" />
<path d="M82100 30838
L82100 32688
" />
<path d="M87378 27177
L87378 26794
" />
<path d="M88549 27177
L87378 27177
" />
<path d="M64287 32688
L73549 32688
" />
<path d="M88549 32688
L88549 27177
" />
<path d="M78682 30838
L82100 30838
" />
<path d="M73549 32110
L78682 32109
" />
<path d="M64287 30838
L64287 32688
" />
<path d="M60424 32688
L60424 30838
" />
<path d="M60424 30838
L64287 30838
" />
<path d="M87378 26794
L86079 26794
" />
<path d="M82100 27177
L82100 29027
" />
<path d="M73549 32688
L73549 32110
" />
<path d="M100850 17688
L100850 12177
" />
<path d="M31361 19677
L31361 25188
" />
<path d="M108350 15218
L107968 15218
" />
<path d="M106361 12177
L106361 17688
" />
<path d="M108350 5848
L107968 5848
" />
<path d="M38861 19677
L38861 25188
" />
<path d="M113861 4677
L108350 4677
" />
<path d="M115850 17688
L115850 12177
" />
<path d="M121361 17688
L115850 17688
" />
<path d="M25850 25188
L25850 19677
" />
<path d="M63350 12177
L68861 12177
" />
<path d="M70850 17688
L70850 12177
" />
<path d="M85850 12177
L91361 12177
" />
<path d="M25850 19677
L31361 19677
" />
<path d="M38861 25188
L33350 25188
" />
<path d="M91361 12177
L91361 17688
" />
<path d="M78350 17688
L78350 12177
" />
<path d="M83861 12177
L83861 17688
" />
<path d="M93350 17688
L93350 12177
" />
<path d="M33350 25188
L33350 19677
" />
<path d="M98861 12177
L98861 17688
" />
<path d="M108350 16517
L108350 17688
" />
<path d="M107968 7147
L108350 7147
" />
<path d="M115850 12177
L121361 12177
" />
<path d="M31361 25188
L25850 25188
" />
<path d="M108350 7147
L108350 15218
" />
<path d="M33350 19677
L38861 19677
" />
<path d="M40850 25188
L40850 19677
" />
<path d="M91361 17688
L85850 17688
" />
<path d="M98861 17688
L93350 17688
" />
<path d="M121361 12177
L121361 17688
" />
<path d="M106361 17688
L100850 17688
" />
<path d="M83861 17688
L78350 17688
" />
<path d="M76361 17688
L70850 17688
" />
<path d="M108350 17688
L113861 17688
" />
<path d="M107968 16517
L108350 16517
" />
<path d="M76361 12177
L76361 17688
" />
<path d="M70850 12177
L76361 12177
" />
<path d="M107968 5848
L107968 7147
" />
<path d="M100850 12177
L106361 12177
" />
<path d="M78350 12177
L83861 12177
" />
<path d="M113861 17688
L113861 4677
" />
<path d="M107968 15218
L107968 16517
" />
<path d="M108350 4677
L108350 5848
" />
<path d="M85850 17688
L85850 12177
" />
<path d="M93350 12177
L98861 12177
" />
<path d="M38861 4677
L38861 10188
" />
<path d="M46361 10188
L40850 10188
" />
<path d="M40850 10188
L40850 4677
" />
<path d="M25850 4677
L31361 4677
" />
<path d="M25850 10188
L25850 4677
" />
<path d="M23861 10188
L18350 10188
" />
<path d="M23861 4677
L23861 10188
" />
<path d="M18350 10188
L18350 4677
" />
<path d="M46361 4677
L46361 10188
" />
<path d="M18350 4677
L23861 4677
" />
<path d="M33350 10188
L33350 4677
" />
<path d="M38861 10188
L33350 10188
" />
<path d="M33350 4677
L38861 4677
" />
<path d="M31361 10188
L25850 10188
" />
<path d="M31361 4677
L31361 10188
" />
<path d="M55850 4677
L61361 4677
" />
<path d="M63350 4677
L68861 4677
" />
<path d="M68861 17688
L63350 17688
" />
<path d="M68861 4677
L68861 10188
" />
<path d="M76361 10188
L70850 10188
" />
<path d="M70850 4677
L76361 4677
" />
<path d="M98861 10188
L93350 10188
" />
<path d="M46361 17688
L40850 17688
" />
<path d="M55850 17688
L55850 12177
" />
<path d="M61361 12177
L61361 17688
" />
<path d="M91361 4677
L91361 10188
" />
<path d="M100850 4677
L106361 4677
" />
<path d="M21986 17688
L16475 17688
" />
<path d="M33350 17688
L33350 12177
" />
<path d="M53861 17688
L48350 17688
" />
<path d="M93350 10188
L93350 4677
" />
<path d="M53861 12177
L53861 17688
" />
<path d="M98861 4677
L98861 10188
" />
<path d="M40850 4677
L46361 4677
" />
<path d="M93350 4677
L98861 4677
" />
<path d="M106361 10188
L100850 10188
" />
<path d="M48350 10188
L48350 4677
" />
<path d="M31361 17688
L25850 17688
" />
<path d="M38861 12177
L38861 17688
" />
<path d="M85850 4677
L91361 4677
" />
<path d="M33350 12177
L38861 12177
" />
<path d="M53861 10188
L48350 10188
" />
<path d="M70850 10188
L70850 4677
" />
<path d="M76361 4677
L76361 10188
" />
<path d="M46361 12177
L46361 17688
" />
<path d="M83861 10188
L78350 10188
" />
<path d="M78350 4677
L83861 4677
" />
<path d="M121361 4677
L121361 10188
" />
<path d="M115850 10188
L115850 4677
" />
<path d="M91361 10188
L85850 10188
" />
<path d="M61361 10188
L55850 10188
" />
<path d="M63350 10188
L63350 4677
" />
<path d="M55850 12177
L61361 12177
" />
<path d="M38861 17688
L33350 17688
" />
<path d="M53861 4677
L53861 10188
" />
<path d="M48350 17688
L48350 12177
" />
<path d="M40850 17688
L40850 12177
" />
<path d="M61361 17688
L55850 17688
" />
<path d="M48350 4677
L53861 4677
" />
<path d="M83861 4677
L83861 10188
" />
<path d="M115850 4677
L121361 4677
" />
<path d="M48350 12177
L53861 12177
" />
<path d="M16475 17688
L16475 12177
" />
<path d="M100850 10188
L100850 4677
" />
<path d="M25850 17688
L25850 12177
" />
<path d="M55850 10188
L55850 4677
" />
<path d="M61361 4677
L61361 10188
" />
<path d="M68861 10188
L63350 10188
" />
<path d="M63350 17688
L63350 12177
" />
<path d="M78350 10188
L78350 4677
" />
<path d="M85850 10188
L85850 4677
" />
<path d="M16475 12177
L21986 12177
" />
<path d="M31361 12177
L31361 17688
" />
<path d="M106361 4677
L106361 10188
" />
<path d="M21986 12177
L21986 17688
" />
<path d="M40850 12177
L46361 12177
" />
<path d="M25850 12177
L31361 12177
" />
<path d="M68861 12177
L68861 17688
" />
<path d="M121361 10188
L115850 10188
" />
<g >
</g>
</g> 
</svg>
