  0
SECTION
  2
HEADER
  9
$ACADVER
  1
AC1014
  9
$HANDSEED
  5
FFFF
  9
$MEASUREMENT
 70
     1
  0
ENDSEC
  0
SECTION
  2
TABLES
  0
TABLE
  2
VPORT
  5
8
330
0
100
AcDbSymbolTable
 70
     4
  0
VPORT
  5
2E
330
8
100
AcDbSymbolTableRecord
100
AcDbViewportTableRecord
  2
*ACTIVE
 70
     0
 10
0.0
 20
0.0
 11
1.0
 21
1.0
 12
210.0
 22
148.5
 13
0.0
 23
0.0
 14
10.0
 24
10.0
 15
10.0
 25
10.0
 16
0.0
 26
0.0
 36
1.0
 17
0.0
 27
0.0
 37
0.0
 40
341.0
 41
1.24
 42
50.0
 43
0.0
 44
0.0
 50
0.0
 51
0.0
 71
     0
 72
   100
 73
     1
 74
     3
 75
     0
 76
     0
 77
     0
 78
     0
  0
ENDTAB
  0
TABLE
  2
LTYPE
  5
5
330
0
100
AcDbSymbolTable
 70
     1
  0
LTYPE
  5
14
330
5
100
AcDbSymbolTableRecord
100
AcDbLinetypeTableRecord
  2
BYBLOCK
 70
     0
  3

 72
    65
 73
     0
 40
0.0
  0
LTYPE
  5
15
330
5
100
AcDbSymbolTableRecord
100
AcDbLinetypeTableRecord
  2
BYLAYER
 70
     0
  3

 72
    65
 73
     0
 40
0.0
  0
LTYPE
  5
16
330
5
100
AcDbSymbolTableRecord
100
AcDbLinetypeTableRecord
  2
CONTINUOUS
 70
     0
  3
Solid line
 72
    65
 73
     0
 40
0.0
  0
ENDTAB
  0
TABLE
  2
LAYER
  5
2
100
AcDbSymbolTable
 70
1
  0
LAYER
  5
50
100
AcDbSymbolTableRecord
100
AcDbLayerTableRecord
  2
0
 70
0
  6
CONTINUOUS
  0
ENDTAB
  0
TABLE
  2
STYLE
  5
3
330
0
100
AcDbSymbolTable
 70
     1
  0
STYLE
  5
11
330
3
100
AcDbSymbolTableRecord
100
AcDbTextStyleTableRecord
  2
STANDARD
 70
     0
 40
0.0
 41
1.0
 50
0.0
 71
     0
 42
2.5
  3
txt
  4

  0
ENDTAB
  0
TABLE
  2
VIEW
  5
6
330
0
100
AcDbSymbolTable
 70
     0
  0
ENDTAB
  0
TABLE
  2
UCS
  5
7
330
0
100
AcDbSymbolTable
 70
     0
  0
ENDTAB
  0
TABLE
  2
APPID
  5
9
330
0
100
AcDbSymbolTable
 70
     2
  0
APPID
  5
12
330
9
100
AcDbSymbolTableRecord
100
AcDbRegAppTableRecord
  2
ACAD
 70
     0
  0
ENDTAB
  0
TABLE
  2
DIMSTYLE
  5
A
330
0
100
AcDbSymbolTable
 70
     1
  0
DIMSTYLE
105
27
330
A
100
AcDbSymbolTableRecord
100
AcDbDimStyleTableRecord
  2
ISO-25
 70
     0
  3

  4

  5

  6

  7

 40
1.0
 41
2.5
 42
0.625
 43
3.75
 44
1.25
 45
0.0
 46
0.0
 47
0.0
 48
0.0
140
2.5
141
2.5
142
0.0
143
0.03937007874016
144
1.0
145
0.0
146
1.0
147
0.625
 71
     0
 72
     0
 73
     0
 74
     0
 75
     0
 76
     0
 77
     1
 78
     8
170
     0
171
     3
172
     1
173
     0
174
     0
175
     0
176
     0
177
     0
178
     0
270
     2
271
     2
272
     2
273
     2
274
     3
340
11
275
     0
280
     0
281
     0
282
     0
283
     0
284
     8
285
     0
286
     0
287
     3
288
     0
  0
ENDTAB
  0
TABLE
  2
BLOCK_RECORD
  5
1
330
0
100
AcDbSymbolTable
 70
     1
  0
BLOCK_RECORD
  5
1F
330
1
100
AcDbSymbolTableRecord
100
AcDbBlockTableRecord
  2
*MODEL_SPACE
  0
BLOCK_RECORD
  5
1B
330
1
100
AcDbSymbolTableRecord
100
AcDbBlockTableRecord
  2
*PAPER_SPACE
  0
ENDTAB
  0
ENDSEC
  0
SECTION
  2
BLOCKS
  0
BLOCK
  5
20
330
1F
100
AcDbEntity
  8
0
100
AcDbBlockBegin
  2
*MODEL_SPACE
 70
     0
 10
0.0
 20
0.0
 30
0.0
  3
*MODEL_SPACE
  1

  0
ENDBLK
  5
21
330
1F
100
AcDbEntity
  8
0
100
AcDbBlockEnd
  0
BLOCK
  5
1C
330
1B
100
AcDbEntity
 67
     1
  8
0
100
AcDbBlockBegin
  2
*PAPER_SPACE
  1

  0
ENDBLK
  5
1D
330
1B
100
AcDbEntity
 67
     1
  8
0
100
AcDbBlockEnd
  0
ENDSEC
  0
SECTION
  2
ENTITIES
  0
LWPOLYLINE
  5
100
100
AcDbEntity
  8
0
 62
7
100
AcDbPolyline
 90
2
 70
0
 10
15.509240
 20
-65.590806
 30
0.0
 10
15.509240
 20
-84.640806
 30
0.0
  0
SPLINE
  5
101
100
AcDbEntity
  8
0
 62
7
100
AcDbSpline
 70
8
 71
3
 72
8
 73
4
 74
0
 40
0
 40
0
 40
0
 40
0
 40
1
 40
1
 40
1
 40
1
 10
32.099987
 20
-27.488520
 30
0.0
 10
32.099987
 20
-31.865019
 30
0.0
 10
29.765152
 20
-35.909071
 30
0.0
 10
25.974993
 20
-38.097321
 30
0.0
  0
SPLINE
  5
102
100
AcDbEntity
  8
0
 62
7
100
AcDbSpline
 70
8
 71
3
 72
8
 73
4
 74
0
 40
0
 40
0
 40
0
 40
0
 40
1
 40
1
 40
1
 40
1
 10
25.974993
 20
-38.097321
 30
0.0
 10
22.184833
 20
-40.285571
 30
0.0
 10
17.515164
 20
-40.285571
 30
0.0
 10
13.725004
 20
-38.097321
 30
0.0
  0
SPLINE
  5
103
100
AcDbEntity
  8
0
 62
7
100
AcDbSpline
 70
8
 71
3
 72
8
 73
4
 74
0
 40
0
 40
0
 40
0
 40
0
 40
1
 40
1
 40
1
 40
1
 10
13.725004
 20
-38.097321
 30
0.0
 10
9.934845
 20
-35.909071
 30
0.0
 10
7.600010
 20
-31.865019
 30
0.0
 10
7.600010
 20
-27.488520
 30
0.0
  0
SPLINE
  5
104
100
AcDbEntity
  8
0
 62
7
100
AcDbSpline
 70
8
 71
3
 72
8
 73
4
 74
0
 40
0
 40
0
 40
0
 40
0
 40
1
 40
1
 40
1
 40
1
 10
7.600010
 20
-27.488520
 30
0.0
 10
7.600010
 20
-23.112021
 30
0.0
 10
9.934845
 20
-19.067969
 30
0.0
 10
13.725004
 20
-16.879719
 30
0.0
  0
SPLINE
  5
105
100
AcDbEntity
  8
0
 62
7
100
AcDbSpline
 70
8
 71
3
 72
8
 73
4
 74
0
 40
0
 40
0
 40
0
 40
0
 40
1
 40
1
 40
1
 40
1
 10
13.725004
 20
-16.879719
 30
0.0
 10
17.515164
 20
-14.691469
 30
0.0
 10
22.184833
 20
-14.691469
 30
0.0
 10
25.974993
 20
-16.879719
 30
0.0
  0
SPLINE
  5
106
100
AcDbEntity
  8
0
 62
7
100
AcDbSpline
 70
8
 71
3
 72
8
 73
4
 74
0
 40
0
 40
0
 40
0
 40
0
 40
1
 40
1
 40
1
 40
1
 10
25.974993
 20
-16.879719
 30
0.0
 10
29.765152
 20
-19.067969
 30
0.0
 10
32.099987
 20
-23.112021
 30
0.0
 10
32.099987
 20
-27.488520
 30
0.0
  0
LWPOLYLINE
  5
107
100
AcDbEntity
  8
0
 62
7
100
AcDbPolyline
 90
2
 70
0
 10
15.509240
 20
-65.590806
 30
0.0
 10
20.271740
 20
-65.590806
 30
0.0
  0
LWPOLYLINE
  5
108
100
AcDbEntity
  8
0
 62
7
100
AcDbPolyline
 90
1
 70
1
 10
32.099987
 20
-27.488520
 30
0.0
  0
LWPOLYLINE
  5
109
100
AcDbEntity
  8
0
 62
7
100
AcDbPolyline
 90
2
 70
0
 10
20.271740
 20
-46.543346
 30
0.0
 10
20.271740
 20
-65.590806
 30
0.0
  0
LWPOLYLINE
  5
10a
100
AcDbEntity
  8
0
 62
7
100
AcDbPolyline
 90
2
 70
0
 10
36.939220
 20
-46.543346
 30
0.0
 10
20.271740
 20
-46.543346
 30
0.0
  0
LWPOLYLINE
  5
10b
100
AcDbEntity
  8
0
 62
7
100
AcDbPolyline
 90
2
 70
0
 10
36.939220
 20
-27.490806
 30
0.0
 10
36.939220
 20
-46.543346
 30
0.0
  0
LWPOLYLINE
  5
10c
100
AcDbEntity
  8
0
 62
7
100
AcDbPolyline
 90
2
 70
0
 10
44.084240
 20
-27.490806
 30
0.0
 10
36.939220
 20
-27.490806
 30
0.0
  0
LWPOLYLINE
  5
10d
100
AcDbEntity
  8
0
 62
7
100
AcDbPolyline
 90
2
 70
0
 10
44.084240
 20
-8.443346
 30
0.0
 10
44.084240
 20
-27.490806
 30
0.0
  0
LWPOLYLINE
  5
10e
100
AcDbEntity
  8
0
 62
7
100
AcDbPolyline
 90
2
 70
0
 10
310.784240
 20
-8.443346
 30
0.0
 10
44.084240
 20
-8.443346
 30
0.0
  0
SPLINE
  5
10f
100
AcDbEntity
  8
0
 62
7
100
AcDbSpline
 70
8
 71
3
 72
8
 73
4
 74
0
 40
0
 40
0
 40
0
 40
0
 40
1
 40
1
 40
1
 40
1
 10
4.949993
 20
-90.438610
 30
0.0
 10
4.949993
 20
-91.184194
 30
0.0
 10
4.345577
 20
-91.788610
 30
0.0
 10
3.599993
 20
-91.788610
 30
0.0
  0
SPLINE
  5
110
100
AcDbEntity
  8
0
 62
7
100
AcDbSpline
 70
8
 71
3
 72
8
 73
4
 74
0
 40
0
 40
0
 40
0
 40
0
 40
1
 40
1
 40
1
 40
1
 10
3.599993
 20
-91.788610
 30
0.0
 10
2.854408
 20
-91.788610
 30
0.0
 10
2.249993
 20
-91.184194
 30
0.0
 10
2.249993
 20
-90.438610
 30
0.0
  0
SPLINE
  5
111
100
AcDbEntity
  8
0
 62
7
100
AcDbSpline
 70
8
 71
3
 72
8
 73
4
 74
0
 40
0
 40
0
 40
0
 40
0
 40
1
 40
1
 40
1
 40
1
 10
2.249993
 20
-90.438610
 30
0.0
 10
2.249993
 20
-89.956302
 30
0.0
 10
2.507301
 20
-89.510630
 30
0.0
 10
2.924993
 20
-89.269476
 30
0.0
  0
SPLINE
  5
112
100
AcDbEntity
  8
0
 62
7
100
AcDbSpline
 70
8
 71
3
 72
8
 73
4
 74
0
 40
0
 40
0
 40
0
 40
0
 40
1
 40
1
 40
1
 40
1
 10
2.924993
 20
-89.269476
 30
0.0
 10
3.342684
 20
-89.028322
 30
0.0
 10
3.857301
 20
-89.028322
 30
0.0
 10
4.274993
 20
-89.269476
 30
0.0
  0
SPLINE
  5
113
100
AcDbEntity
  8
0
 62
7
100
AcDbSpline
 70
8
 71
3
 72
8
 73
4
 74
0
 40
0
 40
0
 40
0
 40
0
 40
1
 40
1
 40
1
 40
1
 10
4.274993
 20
-89.269476
 30
0.0
 10
4.692684
 20
-89.510630
 30
0.0
 10
4.949993
 20
-89.956302
 30
0.0
 10
4.949993
 20
-90.438610
 30
0.0
  0
LWPOLYLINE
  5
114
100
AcDbEntity
  8
0
 62
7
100
AcDbPolyline
 90
2
 70
0
 10
310.784240
 20
-84.640806
 30
0.0
 10
310.784240
 20
-8.443346
 30
0.0
  0
SPLINE
  5
115
100
AcDbEntity
  8
0
 62
7
100
AcDbSpline
 70
8
 71
3
 72
8
 73
4
 74
0
 40
0
 40
0
 40
0
 40
0
 40
1
 40
1
 40
1
 40
1
 10
217.679514
 20
-90.438610
 30
0.0
 10
217.679514
 20
-91.184194
 30
0.0
 10
217.075098
 20
-91.788610
 30
0.0
 10
216.329514
 20
-91.788610
 30
0.0
  0
SPLINE
  5
116
100
AcDbEntity
  8
0
 62
7
100
AcDbSpline
 70
8
 71
3
 72
8
 73
4
 74
0
 40
0
 40
0
 40
0
 40
0
 40
1
 40
1
 40
1
 40
1
 10
216.329514
 20
-91.788610
 30
0.0
 10
215.583930
 20
-91.788610
 30
0.0
 10
214.979514
 20
-91.184194
 30
0.0
 10
214.979514
 20
-90.438610
 30
0.0
  0
SPLINE
  5
117
100
AcDbEntity
  8
0
 62
7
100
AcDbSpline
 70
8
 71
3
 72
8
 73
4
 74
0
 40
0
 40
0
 40
0
 40
0
 40
1
 40
1
 40
1
 40
1
 10
214.979514
 20
-90.438610
 30
0.0
 10
214.979514
 20
-89.693026
 30
0.0
 10
215.583930
 20
-89.088610
 30
0.0
 10
216.329514
 20
-89.088610
 30
0.0
  0
SPLINE
  5
118
100
AcDbEntity
  8
0
 62
7
100
AcDbSpline
 70
8
 71
3
 72
8
 73
4
 74
0
 40
0
 40
0
 40
0
 40
0
 40
1
 40
1
 40
1
 40
1
 10
216.329514
 20
-89.088610
 30
0.0
 10
217.075098
 20
-89.088610
 30
0.0
 10
217.679514
 20
-89.693026
 30
0.0
 10
217.679514
 20
-90.438610
 30
0.0
  0
LWPOLYLINE
  5
119
100
AcDbEntity
  8
0
 62
7
100
AcDbPolyline
 90
1
 70
1
 10
4.949993
 20
-90.438610
 30
0.0
  0
SPLINE
  5
11a
100
AcDbEntity
  8
0
 62
7
100
AcDbSpline
 70
8
 71
3
 72
8
 73
4
 74
0
 40
0
 40
0
 40
0
 40
0
 40
1
 40
1
 40
1
 40
1
 10
324.044300
 20
-90.438610
 30
0.0
 10
324.044300
 20
-90.920919
 30
0.0
 10
323.786991
 20
-91.366590
 30
0.0
 10
323.369300
 20
-91.607744
 30
0.0
  0
SPLINE
  5
11b
100
AcDbEntity
  8
0
 62
7
100
AcDbSpline
 70
8
 71
3
 72
8
 73
4
 74
0
 40
0
 40
0
 40
0
 40
0
 40
1
 40
1
 40
1
 40
1
 10
323.369300
 20
-91.607744
 30
0.0
 10
322.951609
 20
-91.848898
 30
0.0
 10
322.436991
 20
-91.848898
 30
0.0
 10
322.019300
 20
-91.607744
 30
0.0
  0
SPLINE
  5
11c
100
AcDbEntity
  8
0
 62
7
100
AcDbSpline
 70
8
 71
3
 72
8
 73
4
 74
0
 40
0
 40
0
 40
0
 40
0
 40
1
 40
1
 40
1
 40
1
 10
322.019300
 20
-91.607744
 30
0.0
 10
321.601609
 20
-91.366590
 30
0.0
 10
321.344300
 20
-90.920919
 30
0.0
 10
321.344300
 20
-90.438610
 30
0.0
  0
SPLINE
  5
11d
100
AcDbEntity
  8
0
 62
7
100
AcDbSpline
 70
8
 71
3
 72
8
 73
4
 74
0
 40
0
 40
0
 40
0
 40
0
 40
1
 40
1
 40
1
 40
1
 10
321.344300
 20
-90.438610
 30
0.0
 10
321.344300
 20
-89.956302
 30
0.0
 10
321.601609
 20
-89.510630
 30
0.0
 10
322.019300
 20
-89.269476
 30
0.0
  0
SPLINE
  5
11e
100
AcDbEntity
  8
0
 62
7
100
AcDbSpline
 70
8
 71
3
 72
8
 73
4
 74
0
 40
0
 40
0
 40
0
 40
0
 40
1
 40
1
 40
1
 40
1
 10
322.019300
 20
-89.269476
 30
0.0
 10
322.436991
 20
-89.028322
 30
0.0
 10
322.951609
 20
-89.028322
 30
0.0
 10
323.369300
 20
-89.269476
 30
0.0
  0
SPLINE
  5
11f
100
AcDbEntity
  8
0
 62
7
100
AcDbSpline
 70
8
 71
3
 72
8
 73
4
 74
0
 40
0
 40
0
 40
0
 40
0
 40
1
 40
1
 40
1
 40
1
 10
323.369300
 20
-89.269476
 30
0.0
 10
323.786991
 20
-89.510630
 30
0.0
 10
324.044300
 20
-89.956302
 30
0.0
 10
324.044300
 20
-90.438610
 30
0.0
  0
LWPOLYLINE
  5
120
100
AcDbEntity
  8
0
 62
7
100
AcDbPolyline
 90
1
 70
1
 10
217.679514
 20
-90.438610
 30
0.0
  0
SPLINE
  5
121
100
AcDbEntity
  8
0
 62
7
100
AcDbSpline
 70
8
 71
3
 72
8
 73
4
 74
0
 40
0
 40
0
 40
0
 40
0
 40
1
 40
1
 40
1
 40
1
 10
111.314728
 20
-90.438610
 30
0.0
 10
111.314728
 20
-90.920919
 30
0.0
 10
111.057419
 20
-91.366590
 30
0.0
 10
110.639728
 20
-91.607744
 30
0.0
  0
SPLINE
  5
122
100
AcDbEntity
  8
0
 62
7
100
AcDbSpline
 70
8
 71
3
 72
8
 73
4
 74
0
 40
0
 40
0
 40
0
 40
0
 40
1
 40
1
 40
1
 40
1
 10
110.639728
 20
-91.607744
 30
0.0
 10
110.222037
 20
-91.848898
 30
0.0
 10
109.707419
 20
-91.848898
 30
0.0
 10
109.289728
 20
-91.607744
 30
0.0
  0
SPLINE
  5
123
100
AcDbEntity
  8
0
 62
7
100
AcDbSpline
 70
8
 71
3
 72
8
 73
4
 74
0
 40
0
 40
0
 40
0
 40
0
 40
1
 40
1
 40
1
 40
1
 10
109.289728
 20
-91.607744
 30
0.0
 10
108.872037
 20
-91.366590
 30
0.0
 10
108.614728
 20
-90.920919
 30
0.0
 10
108.614728
 20
-90.438610
 30
0.0
  0
SPLINE
  5
124
100
AcDbEntity
  8
0
 62
7
100
AcDbSpline
 70
8
 71
3
 72
8
 73
4
 74
0
 40
0
 40
0
 40
0
 40
0
 40
1
 40
1
 40
1
 40
1
 10
108.614728
 20
-90.438610
 30
0.0
 10
108.614728
 20
-89.956302
 30
0.0
 10
108.872037
 20
-89.510630
 30
0.0
 10
109.289728
 20
-89.269476
 30
0.0
  0
SPLINE
  5
125
100
AcDbEntity
  8
0
 62
7
100
AcDbSpline
 70
8
 71
3
 72
8
 73
4
 74
0
 40
0
 40
0
 40
0
 40
0
 40
1
 40
1
 40
1
 40
1
 10
109.289728
 20
-89.269476
 30
0.0
 10
109.707419
 20
-89.028322
 30
0.0
 10
110.222037
 20
-89.028322
 30
0.0
 10
110.639728
 20
-89.269476
 30
0.0
  0
SPLINE
  5
126
100
AcDbEntity
  8
0
 62
7
100
AcDbSpline
 70
8
 71
3
 72
8
 73
4
 74
0
 40
0
 40
0
 40
0
 40
0
 40
1
 40
1
 40
1
 40
1
 10
110.639728
 20
-89.269476
 30
0.0
 10
111.057419
 20
-89.510630
 30
0.0
 10
111.314728
 20
-89.956302
 30
0.0
 10
111.314728
 20
-90.438610
 30
0.0
  0
LWPOLYLINE
  5
127
100
AcDbEntity
  8
0
 62
7
100
AcDbPolyline
 90
1
 70
1
 10
324.044300
 20
-90.438610
 30
0.0
  0
SPLINE
  5
128
100
AcDbEntity
  8
0
 62
7
100
AcDbSpline
 70
8
 71
3
 72
8
 73
4
 74
0
 40
0
 40
0
 40
0
 40
0
 40
1
 40
1
 40
1
 40
1
 10
4.949993
 20
-2.688519
 30
0.0
 10
4.949993
 20
-3.434103
 30
0.0
 10
4.345577
 20
-4.038519
 30
0.0
 10
3.599993
 20
-4.038519
 30
0.0
  0
SPLINE
  5
129
100
AcDbEntity
  8
0
 62
7
100
AcDbSpline
 70
8
 71
3
 72
8
 73
4
 74
0
 40
0
 40
0
 40
0
 40
0
 40
1
 40
1
 40
1
 40
1
 10
3.599993
 20
-4.038519
 30
0.0
 10
2.854408
 20
-4.038519
 30
0.0
 10
2.249993
 20
-3.434103
 30
0.0
 10
2.249993
 20
-2.688519
 30
0.0
  0
SPLINE
  5
12a
100
AcDbEntity
  8
0
 62
7
100
AcDbSpline
 70
8
 71
3
 72
8
 73
4
 74
0
 40
0
 40
0
 40
0
 40
0
 40
1
 40
1
 40
1
 40
1
 10
2.249993
 20
-2.688519
 30
0.0
 10
2.249993
 20
-2.206210
 30
0.0
 10
2.507301
 20
-1.760539
 30
0.0
 10
2.924993
 20
-1.519385
 30
0.0
  0
SPLINE
  5
12b
100
AcDbEntity
  8
0
 62
7
100
AcDbSpline
 70
8
 71
3
 72
8
 73
4
 74
0
 40
0
 40
0
 40
0
 40
0
 40
1
 40
1
 40
1
 40
1
 10
2.924993
 20
-1.519385
 30
0.0
 10
3.342684
 20
-1.278230
 30
0.0
 10
3.857301
 20
-1.278230
 30
0.0
 10
4.274993
 20
-1.519385
 30
0.0
  0
SPLINE
  5
12c
100
AcDbEntity
  8
0
 62
7
100
AcDbSpline
 70
8
 71
3
 72
8
 73
4
 74
0
 40
0
 40
0
 40
0
 40
0
 40
1
 40
1
 40
1
 40
1
 10
4.274993
 20
-1.519385
 30
0.0
 10
4.692684
 20
-1.760539
 30
0.0
 10
4.949993
 20
-2.206210
 30
0.0
 10
4.949993
 20
-2.688519
 30
0.0
  0
LWPOLYLINE
  5
12d
100
AcDbEntity
  8
0
 62
7
100
AcDbPolyline
 90
1
 70
1
 10
111.314728
 20
-90.438610
 30
0.0
  0
SPLINE
  5
12e
100
AcDbEntity
  8
0
 62
7
100
AcDbSpline
 70
8
 71
3
 72
8
 73
4
 74
0
 40
0
 40
0
 40
0
 40
0
 40
1
 40
1
 40
1
 40
1
 10
324.044300
 20
-2.688519
 30
0.0
 10
324.044300
 20
-3.170827
 30
0.0
 10
323.786991
 20
-3.616499
 30
0.0
 10
323.369300
 20
-3.857653
 30
0.0
  0
SPLINE
  5
12f
100
AcDbEntity
  8
0
 62
7
100
AcDbSpline
 70
8
 71
3
 72
8
 73
4
 74
0
 40
0
 40
0
 40
0
 40
0
 40
1
 40
1
 40
1
 40
1
 10
323.369300
 20
-3.857653
 30
0.0
 10
322.951609
 20
-4.098807
 30
0.0
 10
322.436991
 20
-4.098807
 30
0.0
 10
322.019300
 20
-3.857653
 30
0.0
  0
SPLINE
  5
130
100
AcDbEntity
  8
0
 62
7
100
AcDbSpline
 70
8
 71
3
 72
8
 73
4
 74
0
 40
0
 40
0
 40
0
 40
0
 40
1
 40
1
 40
1
 40
1
 10
322.019300
 20
-3.857653
 30
0.0
 10
321.601609
 20
-3.616499
 30
0.0
 10
321.344300
 20
-3.170827
 30
0.0
 10
321.344300
 20
-2.688519
 30
0.0
  0
SPLINE
  5
131
100
AcDbEntity
  8
0
 62
7
100
AcDbSpline
 70
8
 71
3
 72
8
 73
4
 74
0
 40
0
 40
0
 40
0
 40
0
 40
1
 40
1
 40
1
 40
1
 10
321.344300
 20
-2.688519
 30
0.0
 10
321.344300
 20
-2.206210
 30
0.0
 10
321.601609
 20
-1.760539
 30
0.0
 10
322.019300
 20
-1.519385
 30
0.0
  0
SPLINE
  5
132
100
AcDbEntity
  8
0
 62
7
100
AcDbSpline
 70
8
 71
3
 72
8
 73
4
 74
0
 40
0
 40
0
 40
0
 40
0
 40
1
 40
1
 40
1
 40
1
 10
322.019300
 20
-1.519385
 30
0.0
 10
322.436991
 20
-1.278230
 30
0.0
 10
322.951609
 20
-1.278230
 30
0.0
 10
323.369300
 20
-1.519385
 30
0.0
  0
SPLINE
  5
133
100
AcDbEntity
  8
0
 62
7
100
AcDbSpline
 70
8
 71
3
 72
8
 73
4
 74
0
 40
0
 40
0
 40
0
 40
0
 40
1
 40
1
 40
1
 40
1
 10
323.369300
 20
-1.519385
 30
0.0
 10
323.786991
 20
-1.760539
 30
0.0
 10
324.044300
 20
-2.206210
 30
0.0
 10
324.044300
 20
-2.688519
 30
0.0
  0
LWPOLYLINE
  5
134
100
AcDbEntity
  8
0
 62
7
100
AcDbPolyline
 90
1
 70
1
 10
4.949993
 20
-2.688519
 30
0.0
  0
SPLINE
  5
135
100
AcDbEntity
  8
0
 62
7
100
AcDbSpline
 70
8
 71
3
 72
8
 73
4
 74
0
 40
0
 40
0
 40
0
 40
0
 40
1
 40
1
 40
1
 40
1
 10
62.159886
 20
-2.688519
 30
0.0
 10
62.159886
 20
-3.434103
 30
0.0
 10
61.555470
 20
-4.038519
 30
0.0
 10
60.809886
 20
-4.038519
 30
0.0
  0
SPLINE
  5
136
100
AcDbEntity
  8
0
 62
7
100
AcDbSpline
 70
8
 71
3
 72
8
 73
4
 74
0
 40
0
 40
0
 40
0
 40
0
 40
1
 40
1
 40
1
 40
1
 10
60.809886
 20
-4.038519
 30
0.0
 10
60.064302
 20
-4.038519
 30
0.0
 10
59.459886
 20
-3.434103
 30
0.0
 10
59.459886
 20
-2.688519
 30
0.0
  0
SPLINE
  5
137
100
AcDbEntity
  8
0
 62
7
100
AcDbSpline
 70
8
 71
3
 72
8
 73
4
 74
0
 40
0
 40
0
 40
0
 40
0
 40
1
 40
1
 40
1
 40
1
 10
59.459886
 20
-2.688519
 30
0.0
 10
59.459886
 20
-2.206210
 30
0.0
 10
59.717195
 20
-1.760539
 30
0.0
 10
60.134886
 20
-1.519385
 30
0.0
  0
SPLINE
  5
138
100
AcDbEntity
  8
0
 62
7
100
AcDbSpline
 70
8
 71
3
 72
8
 73
4
 74
0
 40
0
 40
0
 40
0
 40
0
 40
1
 40
1
 40
1
 40
1
 10
60.134886
 20
-1.519385
 30
0.0
 10
60.552577
 20
-1.278230
 30
0.0
 10
61.067195
 20
-1.278230
 30
0.0
 10
61.484886
 20
-1.519385
 30
0.0
  0
SPLINE
  5
139
100
AcDbEntity
  8
0
 62
7
100
AcDbSpline
 70
8
 71
3
 72
8
 73
4
 74
0
 40
0
 40
0
 40
0
 40
0
 40
1
 40
1
 40
1
 40
1
 10
61.484886
 20
-1.519385
 30
0.0
 10
61.902577
 20
-1.760539
 30
0.0
 10
62.159886
 20
-2.206210
 30
0.0
 10
62.159886
 20
-2.688519
 30
0.0
  0
LWPOLYLINE
  5
13a
100
AcDbEntity
  8
0
 62
7
100
AcDbPolyline
 90
1
 70
1
 10
324.044300
 20
-2.688519
 30
0.0
  0
SPLINE
  5
13b
100
AcDbEntity
  8
0
 62
7
100
AcDbSpline
 70
8
 71
3
 72
8
 73
4
 74
0
 40
0
 40
0
 40
0
 40
0
 40
1
 40
1
 40
1
 40
1
 10
85.860118
 20
-2.688519
 30
0.0
 10
85.860118
 20
-3.170827
 30
0.0
 10
85.602809
 20
-3.616499
 30
0.0
 10
85.185118
 20
-3.857653
 30
0.0
  0
SPLINE
  5
13c
100
AcDbEntity
  8
0
 62
7
100
AcDbSpline
 70
8
 71
3
 72
8
 73
4
 74
0
 40
0
 40
0
 40
0
 40
0
 40
1
 40
1
 40
1
 40
1
 10
85.185118
 20
-3.857653
 30
0.0
 10
84.767427
 20
-4.098807
 30
0.0
 10
84.252809
 20
-4.098807
 30
0.0
 10
83.835118
 20
-3.857653
 30
0.0
  0
SPLINE
  5
13d
100
AcDbEntity
  8
0
 62
7
100
AcDbSpline
 70
8
 71
3
 72
8
 73
4
 74
0
 40
0
 40
0
 40
0
 40
0
 40
1
 40
1
 40
1
 40
1
 10
83.835118
 20
-3.857653
 30
0.0
 10
83.417427
 20
-3.616499
 30
0.0
 10
83.160118
 20
-3.170827
 30
0.0
 10
83.160118
 20
-2.688519
 30
0.0
  0
SPLINE
  5
13e
100
AcDbEntity
  8
0
 62
7
100
AcDbSpline
 70
8
 71
3
 72
8
 73
4
 74
0
 40
0
 40
0
 40
0
 40
0
 40
1
 40
1
 40
1
 40
1
 10
83.160118
 20
-2.688519
 30
0.0
 10
83.160118
 20
-2.206210
 30
0.0
 10
83.417427
 20
-1.760539
 30
0.0
 10
83.835118
 20
-1.519385
 30
0.0
  0
SPLINE
  5
13f
100
AcDbEntity
  8
0
 62
7
100
AcDbSpline
 70
8
 71
3
 72
8
 73
4
 74
0
 40
0
 40
0
 40
0
 40
0
 40
1
 40
1
 40
1
 40
1
 10
83.835118
 20
-1.519385
 30
0.0
 10
84.252809
 20
-1.278230
 30
0.0
 10
84.767427
 20
-1.278230
 30
0.0
 10
85.185118
 20
-1.519385
 30
0.0
  0
SPLINE
  5
140
100
AcDbEntity
  8
0
 62
7
100
AcDbSpline
 70
8
 71
3
 72
8
 73
4
 74
0
 40
0
 40
0
 40
0
 40
0
 40
1
 40
1
 40
1
 40
1
 10
85.185118
 20
-1.519385
 30
0.0
 10
85.602809
 20
-1.760539
 30
0.0
 10
85.860118
 20
-2.206210
 30
0.0
 10
85.860118
 20
-2.688519
 30
0.0
  0
LWPOLYLINE
  5
141
100
AcDbEntity
  8
0
 62
7
100
AcDbPolyline
 90
1
 70
1
 10
62.159886
 20
-2.688519
 30
0.0
  0
SPLINE
  5
142
100
AcDbEntity
  8
0
 62
7
100
AcDbSpline
 70
8
 71
3
 72
8
 73
4
 74
0
 40
0
 40
0
 40
0
 40
0
 40
1
 40
1
 40
1
 40
1
 10
111.314728
 20
-2.688519
 30
0.0
 10
111.314728
 20
-3.170827
 30
0.0
 10
111.057419
 20
-3.616499
 30
0.0
 10
110.639728
 20
-3.857653
 30
0.0
  0
SPLINE
  5
143
100
AcDbEntity
  8
0
 62
7
100
AcDbSpline
 70
8
 71
3
 72
8
 73
4
 74
0
 40
0
 40
0
 40
0
 40
0
 40
1
 40
1
 40
1
 40
1
 10
110.639728
 20
-3.857653
 30
0.0
 10
110.222037
 20
-4.098807
 30
0.0
 10
109.707419
 20
-4.098807
 30
0.0
 10
109.289728
 20
-3.857653
 30
0.0
  0
SPLINE
  5
144
100
AcDbEntity
  8
0
 62
7
100
AcDbSpline
 70
8
 71
3
 72
8
 73
4
 74
0
 40
0
 40
0
 40
0
 40
0
 40
1
 40
1
 40
1
 40
1
 10
109.289728
 20
-3.857653
 30
0.0
 10
108.872037
 20
-3.616499
 30
0.0
 10
108.614728
 20
-3.170827
 30
0.0
 10
108.614728
 20
-2.688519
 30
0.0
  0
SPLINE
  5
145
100
AcDbEntity
  8
0
 62
7
100
AcDbSpline
 70
8
 71
3
 72
8
 73
4
 74
0
 40
0
 40
0
 40
0
 40
0
 40
1
 40
1
 40
1
 40
1
 10
108.614728
 20
-2.688519
 30
0.0
 10
108.614728
 20
-2.206210
 30
0.0
 10
108.872037
 20
-1.760539
 30
0.0
 10
109.289728
 20
-1.519385
 30
0.0
  0
SPLINE
  5
146
100
AcDbEntity
  8
0
 62
7
100
AcDbSpline
 70
8
 71
3
 72
8
 73
4
 74
0
 40
0
 40
0
 40
0
 40
0
 40
1
 40
1
 40
1
 40
1
 10
109.289728
 20
-1.519385
 30
0.0
 10
109.707419
 20
-1.278230
 30
0.0
 10
110.222037
 20
-1.278230
 30
0.0
 10
110.639728
 20
-1.519385
 30
0.0
  0
SPLINE
  5
147
100
AcDbEntity
  8
0
 62
7
100
AcDbSpline
 70
8
 71
3
 72
8
 73
4
 74
0
 40
0
 40
0
 40
0
 40
0
 40
1
 40
1
 40
1
 40
1
 10
110.639728
 20
-1.519385
 30
0.0
 10
111.057419
 20
-1.760539
 30
0.0
 10
111.314728
 20
-2.206210
 30
0.0
 10
111.314728
 20
-2.688519
 30
0.0
  0
LWPOLYLINE
  5
148
100
AcDbEntity
  8
0
 62
7
100
AcDbPolyline
 90
1
 70
1
 10
85.860118
 20
-2.688519
 30
0.0
  0
SPLINE
  5
149
100
AcDbEntity
  8
0
 62
7
100
AcDbSpline
 70
8
 71
3
 72
8
 73
4
 74
0
 40
0
 40
0
 40
0
 40
0
 40
1
 40
1
 40
1
 40
1
 10
217.679514
 20
-2.688519
 30
0.0
 10
217.679514
 20
-3.434103
 30
0.0
 10
217.075098
 20
-4.038518
 30
0.0
 10
216.329514
 20
-4.038518
 30
0.0
  0
SPLINE
  5
14a
100
AcDbEntity
  8
0
 62
7
100
AcDbSpline
 70
8
 71
3
 72
8
 73
4
 74
0
 40
0
 40
0
 40
0
 40
0
 40
1
 40
1
 40
1
 40
1
 10
216.329514
 20
-4.038518
 30
0.0
 10
215.583930
 20
-4.038518
 30
0.0
 10
214.979514
 20
-3.434103
 30
0.0
 10
214.979514
 20
-2.688519
 30
0.0
  0
SPLINE
  5
14b
100
AcDbEntity
  8
0
 62
7
100
AcDbSpline
 70
8
 71
3
 72
8
 73
4
 74
0
 40
0
 40
0
 40
0
 40
0
 40
1
 40
1
 40
1
 40
1
 10
214.979514
 20
-2.688519
 30
0.0
 10
214.979514
 20
-1.942935
 30
0.0
 10
215.583930
 20
-1.338519
 30
0.0
 10
216.329514
 20
-1.338519
 30
0.0
  0
SPLINE
  5
14c
100
AcDbEntity
  8
0
 62
7
100
AcDbSpline
 70
8
 71
3
 72
8
 73
4
 74
0
 40
0
 40
0
 40
0
 40
0
 40
1
 40
1
 40
1
 40
1
 10
216.329514
 20
-1.338519
 30
0.0
 10
217.075098
 20
-1.338519
 30
0.0
 10
217.679514
 20
-1.942935
 30
0.0
 10
217.679514
 20
-2.688519
 30
0.0
  0
LWPOLYLINE
  5
14d
100
AcDbEntity
  8
0
 62
7
100
AcDbPolyline
 90
1
 70
1
 10
111.314728
 20
-2.688519
 30
0.0
  0
LWPOLYLINE
  5
14e
100
AcDbEntity
  8
0
 62
7
100
AcDbPolyline
 90
1
 70
1
 10
217.679514
 20
-2.688519
 30
0.0
  0
SPLINE
  5
14f
100
AcDbEntity
  8
0
 62
7
100
AcDbSpline
 70
8
 71
3
 72
8
 73
4
 74
0
 40
0
 40
0
 40
0
 40
0
 40
1
 40
1
 40
1
 40
1
 10
3.099994
 20
0.811473
 30
0.0
 10
1.443144
 20
0.811472
 30
0.0
 10
0.100002
 20
-0.531670
 30
0.0
 10
0.100001
 20
-2.188520
 30
0.0
  0
SPLINE
  5
150
100
AcDbEntity
  8
0
 62
7
100
AcDbSpline
 70
8
 71
3
 72
8
 73
4
 74
0
 40
0
 40
0
 40
0
 40
0
 40
1
 40
1
 40
1
 40
1
 10
0.100001
 20
-90.938482
 30
0.0
 10
0.100001
 20
-92.595333
 30
0.0
 10
1.443143
 20
-93.938475
 30
0.0
 10
3.099994
 20
-93.938476
 30
0.0
  0
SPLINE
  5
151
100
AcDbEntity
  8
0
 62
7
100
AcDbSpline
 70
8
 71
3
 72
8
 73
4
 74
0
 40
0
 40
0
 40
0
 40
0
 40
1
 40
1
 40
1
 40
1
 10
323.194680
 20
-93.938476
 30
0.0
 10
324.851432
 20
-93.938336
 30
0.0
 10
326.194420
 20
-92.595234
 30
0.0
 10
326.194420
 20
-90.938482
 30
0.0
  0
SPLINE
  5
152
100
AcDbEntity
  8
0
 62
7
100
AcDbSpline
 70
8
 71
3
 72
8
 73
4
 74
0
 40
0
 40
0
 40
0
 40
0
 40
1
 40
1
 40
1
 40
1
 10
326.194420
 20
-2.188520
 30
0.0
 10
326.194419
 20
-0.531769
 30
0.0
 10
324.851431
 20
0.811333
 30
0.0
 10
323.194680
 20
0.811473
 30
0.0
  0
LWPOLYLINE
  5
153
100
AcDbEntity
  8
0
 62
7
100
AcDbPolyline
 90
2
 70
0
 10
310.784240
 20
-84.640806
 30
0.0
 10
15.509240
 20
-84.640806
 30
0.0
  0
LWPOLYLINE
  5
154
100
AcDbEntity
  8
0
 62
7
100
AcDbPolyline
 90
2
 70
0
 10
0.099060
 20
-90.937466
 30
0.0
 10
0.099060
 20
-2.187326
 30
0.0
  0
LWPOLYLINE
  5
155
100
AcDbEntity
  8
0
 62
7
100
AcDbPolyline
 90
2
 70
0
 10
3.098800
 20
0.812414
 30
0.0
 10
323.192140
 20
0.812414
 30
0.0
  0
LWPOLYLINE
  5
156
100
AcDbEntity
  8
0
 62
7
100
AcDbPolyline
 90
2
 70
0
 10
323.192140
 20
-93.937206
 30
0.0
 10
3.098800
 20
-93.937206
 30
0.0
  0
LWPOLYLINE
  5
157
100
AcDbEntity
  8
0
 62
7
100
AcDbPolyline
 90
2
 70
0
 10
326.191880
 20
-2.187326
 30
0.0
 10
326.191880
 20
-90.937466
 30
0.0
  0
ENDSEC
  0
SECTION
  2
OBJECTS
  0
DICTIONARY
  5
C
330
0
100
AcDbDictionary
  3
ACAD_GROUP
350
D
  3
ACAD_MLINESTYLE
350
17
  0
DICTIONARY
  5
D
330
C
100
AcDbDictionary
  0
DICTIONARY
  5
1A
330
C
100
AcDbDictionary
  0
DICTIONARY
  5
17
330
C
100
AcDbDictionary
  3
STANDARD
350
18
  0
DICTIONARY
  5
19
330
C
100
AcDbDictionary
  0
ENDSEC
  0
EOF
