<?xml version="1.0" standalone="no"?>
 <!DOCTYPE svg PUBLIC "-//W3C//DTD SVG 1.1//EN" 
 "http://www.w3.org/Graphics/SVG/1.1/DTD/svg11.dtd"> 
<svg xmlns="http://www.w3.org/2000/svg" version="1.1" 
    width="32.6288cm" height="9.49452cm" viewBox="0 0 128460 37380 ">
<title>SVG Picture created as S50-Top-brd.svg date 2020/06/03 15:26:48 </title>
  <desc>Picture generated by PCBNEW </desc>
<g style="fill:#000000; fill-opacity:1;stroke:#000000; stroke-opacity:1;
stroke-linecap:round; stroke-linejoin:round; "
 transform="translate(0 0) scale(1 1)">
</g>
<g style="fill:#000000; fill-opacity:0.0; 
stroke:#000000; stroke-width:-0.000393701; stroke-opacity:1; 
stroke-linecap:round; stroke-linejoin:round;">
</g>
<g style="fill:#000000; fill-opacity:0.0; 
stroke:#000000; stroke-width:78.7402; stroke-opacity:1; 
stroke-linecap:round; stroke-linejoin:round;">
<path d="M6106 26182
L6106 33682
" />
<path d="M6106 26182
L7981 26182
" />
<circle cx="7814.96" cy="11181.1" r="4822.83" /> 
<path d="M7981 18683
L7981 26182
" />
<path d="M14543 18683
L7981 18683
" />
<path d="M14543 11182
L14543 18683
" />
<path d="M17356 11182
L14543 11182
" />
<path d="M17356 3683
L17356 11182
" />
<path d="M122356 3683
L17356 3683
" />
<path d="M122356 33682
L122356 3683
" />
<circle cx="1417.32" cy="35964.6" r="531.496" /> 
<circle cx="85169.1" cy="35964.6" r="531.496" /> 
<circle cx="127045" cy="35964.6" r="531.496" /> 
<circle cx="43293.2" cy="35964.6" r="531.496" /> 
<circle cx="1417.32" cy="1417.32" r="531.496" /> 
<circle cx="127045" cy="1417.32" r="531.496" /> 
<circle cx="23940.9" cy="1417.32" r="531.496" /> 
<circle cx="33271.7" cy="1417.32" r="531.496" /> 
<circle cx="43293.2" cy="1417.32" r="531.496" /> 
<circle cx="85169.1" cy="1417.32" r="531.496" /> 
<path d="M122356 33682
L6106 33682
" />
<path d="M1220.47 39.3705 A1181.1 1181.1 0.0 0 0 39.3705 1220.47 " />
<path d="M39.3705 36161.4 A1181.1 1181.1 0.0 0 0 1220.47 37342.5 " />
<path d="M127242 37342.5 A1181.1 1181.1 0.0 0 0 128423 36161.4 " />
<path d="M128423 1220.47 A1181.1 1181.1 0.0 0 0 127242 39.3705 " />
<path d="M39 36161
L39 1220
" />
<path d="M1220 39
L127241 39
" />
<path d="M127241 37342
L1220 37342
" />
<path d="M128422 1220
L128422 36161
" />
<g >
</g>
</g> 
</svg>
