  0
SECTION
  2
HEADER
  9
$ACADVER
  1
AC1009
  9
$INSBASE
 10
0.0
 20
0.0
 30
0.0
  9
$EXTMIN
 10
0.0
 20
0.0
 30
0.0
  9
$EXTMAX
 10
0.0
 20
0.0
 30
0.0
  9
$LIMMIN
 10
0.0
 20
0.0
  9
$LIMMAX
 10
12.0
 20
9.0
  9
$ORTHOMODE
 70
     0
  9
$REGENMODE
 70
     1
  9
$FILLMODE
 70
     1
  9
$QTEXTMODE
 70
     0
  9
$MIRRTEXT
 70
     0
  9
$DRAGMODE
 70
     2
  9
$LTSCALE
 40
1.0
  9
$OSMODE
 70
    37
  9
$ATTMODE
 70
     1
  9
$TEXTSIZE
 40
0.2
  9
$TRACEWID
 40
0.05
  9
$TEXTSTYLE
  7
STANDARD
  9
$CLAYER
  8
0
  9
$CELTYPE
  6
BYLAYER
  9
$CECOLOR
 62
   256
  9
$DIMSCALE
 40
1.0
  9
$DIMASZ
 40
0.18
  9
$DIMEXO
 40
0.0625
  9
$DIMDLI
 40
0.38
  9
$DIMRND
 40
0.0
  9
$DIMDLE
 40
0.0
  9
$DIMEXE
 40
0.18
  9
$DIMTP
 40
0.0
  9
$DIMTM
 40
0.0
  9
$DIMTXT
 40
0.18
  9
$DIMCEN
 40
0.09
  9
$DIMTSZ
 40
0.0
  9
$DIMTOL
 70
     0
  9
$DIMLIM
 70
     0
  9
$DIMTIH
 70
     1
  9
$DIMTOH
 70
     1
  9
$DIMSE1
 70
     0
  9
$DIMSE2
 70
     0
  9
$DIMTAD
 70
     0
  9
$DIMZIN
 70
     0
  9
$DIMBLK
  1

  9
$DIMASO
 70
     1
  9
$DIMSHO
 70
     1
  9
$DIMPOST
  1

  9
$DIMAPOST
  1

  9
$DIMALT
 70
     0
  9
$DIMALTD
 70
     2
  9
$DIMALTF
 40
25.4
  9
$DIMLFAC
 40
1.0
  9
$DIMTOFL
 70
     0
  9
$DIMTVP
 40
0.0
  9
$DIMTIX
 70
     0
  9
$DIMSOXD
 70
     0
  9
$DIMSAH
 70
     0
  9
$DIMBLK1
  1

  9
$DIMBLK2
  1

  9
$DIMSTYLE
  2
STANDARD
  9
$DIMCLRD
 70
     0
  9
$DIMCLRE
 70
     0
  9
$DIMCLRT
 70
     0
  9
$DIMTFAC
 40
1.0
  9
$DIMGAP
 40
0.09
  9
$LUNITS
 70
     2
  9
$LUPREC
 70
     4
  9
$SKETCHINC
 40
0.1
  9
$FILLETRAD
 40
0.0
  9
$AUNITS
 70
     0
  9
$AUPREC
 70
     0
  9
$MENU
  1
.
  9
$ELEVATION
 40
0.0
  9
$PELEVATION
 40
0.0
  9
$THICKNESS
 40
0.0
  9
$LIMCHECK
 70
     0
  9
$BLIPMODE
 70
     0
  9
$CHAMFERA
 40
0.0
  9
$CHAMFERB
 40
0.0
  9
$SKPOLY
 70
     0
  9
$TDCREATE
 40
2458914.452037036885
  9
$TDUPDATE
 40
2458914.452037036885
  9
$TDINDWG
 40
0.0
  9
$TDUSRTIMER
 40
0.0
  9
$USRTIMER
 70
     1
  9
$ANGBASE
 50
0.0
  9
$ANGDIR
 70
     0
  9
$PDMODE
 70
     0
  9
$PDSIZE
 40
0.0
  9
$PLINEWID
 40
0.0
  9
$COORDS
 70
     1
  9
$SPLFRAME
 70
     0
  9
$SPLINETYPE
 70
     6
  9
$SPLINESEGS
 70
     8
  9
$ATTDIA
 70
     1
  9
$ATTREQ
 70
     1
  9
$HANDLING
 70
     1
  9
$HANDSEED
  5
151
  9
$SURFTAB1
 70
     6
  9
$SURFTAB2
 70
     6
  9
$SURFTYPE
 70
     6
  9
$SURFU
 70
     6
  9
$SURFV
 70
     6
  9
$UCSNAME
  2

  9
$UCSORG
 10
0.0
 20
0.0
 30
0.0
  9
$UCSXDIR
 10
1.0
 20
0.0
 30
0.0
  9
$UCSYDIR
 10
0.0
 20
1.0
 30
0.0
  9
$PUCSNAME
  2

  9
$PUCSORG
 10
0.0
 20
0.0
 30
0.0
  9
$PUCSXDIR
 10
1.0
 20
0.0
 30
0.0
  9
$PUCSYDIR
 10
0.0
 20
1.0
 30
0.0
  9
$USERI1
 70
     0
  9
$USERI2
 70
     0
  9
$USERI3
 70
     0
  9
$USERI4
 70
     0
  9
$USERI5
 70
     0
  9
$USERR1
 40
0.0
  9
$USERR2
 40
0.0
  9
$USERR3
 40
0.0
  9
$USERR4
 40
0.0
  9
$USERR5
 40
0.0
  9
$WORLDVIEW
 70
     1
  9
$SHADEDGE
 70
     3
  9
$SHADEDIF
 70
    70
  9
$TILEMODE
 70
     1
  9
$MAXACTVP
 70
    64
  9
$PLIMCHECK
 70
     0
  9
$PEXTMIN
 10
100000000000000000000.0
 20
100000000000000000000.0
 30
100000000000000000000.0
  9
$PEXTMAX
 10
-100000000000000000000.0
 20
-100000000000000000000.0
 30
-100000000000000000000.0
  9
$PLIMMIN
 10
0.0
 20
0.0
  9
$PLIMMAX
 10
12.0
 20
9.0
  9
$UNITMODE
 70
     0
  9
$VISRETAIN
 70
     1
  9
$PLINEGEN
 70
     0
  9
$PSLTSCALE
 70
     1
  0
ENDSEC
  0
SECTION
  2
TABLES
  0
ENDSEC
  0
SECTION
  2
ENTITIES
  0
LINE
  5
1
100
AcDbEntity
  8
0
100
AcDbLine
 10
2.5
 20
2.5
 30
0.0
 11
16.5
 21
2.5
 31
0.0
  0
LINE
  5
2
100
AcDbEntity
  8
0
100
AcDbLine
 10
16.5
 20
2.5
 30
0.0
 11
16.5
 21
16.5
 31
0.0
  0
LINE
  5
3
100
AcDbEntity
  8
0
100
AcDbLine
 10
2.5
 20
16.5
 30
0.0
 11
16.5
 21
16.5
 31
0.0
  0
LINE
  5
4
100
AcDbEntity
  8
0
100
AcDbLine
 10
2.5
 20
2.5
 30
0.0
 11
2.5
 21
16.5
 31
0.0
  0
LINE
  5
5
100
AcDbEntity
  8
0
100
AcDbLine
 10
21.5
 20
2.5
 30
0.0
 11
35.5
 21
2.5
 31
0.0
  0
LINE
  5
6
100
AcDbEntity
  8
0
100
AcDbLine
 10
35.5
 20
2.5
 30
0.0
 11
35.5
 21
16.5
 31
0.0
  0
LINE
  5
7
100
AcDbEntity
  8
0
100
AcDbLine
 10
21.5
 20
16.5
 30
0.0
 11
35.5
 21
16.5
 31
0.0
  0
LINE
  5
8
100
AcDbEntity
  8
0
100
AcDbLine
 10
21.5
 20
2.5
 30
0.0
 11
21.5
 21
16.5
 31
0.0
  0
LINE
  5
9
100
AcDbEntity
  8
0
100
AcDbLine
 10
40.5
 20
2.5
 30
0.0
 11
54.5
 21
2.5
 31
0.0
  0
LINE
  5
A
100
AcDbEntity
  8
0
100
AcDbLine
 10
54.5
 20
2.5
 30
0.0
 11
54.5
 21
16.5
 31
0.0
  0
LINE
  5
B
100
AcDbEntity
  8
0
100
AcDbLine
 10
40.5
 20
16.5
 30
0.0
 11
54.5
 21
16.5
 31
0.0
  0
LINE
  5
C
100
AcDbEntity
  8
0
100
AcDbLine
 10
40.5
 20
2.5
 30
0.0
 11
40.5
 21
16.5
 31
0.0
  0
LINE
  5
D
100
AcDbEntity
  8
0
100
AcDbLine
 10
59.5
 20
2.5
 30
0.0
 11
73.5
 21
2.5
 31
0.0
  0
LINE
  5
E
100
AcDbEntity
  8
0
100
AcDbLine
 10
73.5
 20
2.5
 30
0.0
 11
73.5
 21
16.5
 31
0.0
  0
LINE
  5
F
100
AcDbEntity
  8
0
100
AcDbLine
 10
59.5
 20
16.5
 30
0.0
 11
73.5
 21
16.5
 31
0.0
  0
LINE
  5
10
100
AcDbEntity
  8
0
100
AcDbLine
 10
59.5
 20
2.5
 30
0.0
 11
59.5
 21
16.5
 31
0.0
  0
LINE
  5
11
100
AcDbEntity
  8
0
100
AcDbLine
 10
78.5
 20
2.5
 30
0.0
 11
92.5
 21
2.5
 31
0.0
  0
LINE
  5
12
100
AcDbEntity
  8
0
100
AcDbLine
 10
92.5
 20
2.5
 30
0.0
 11
92.5
 21
16.5
 31
0.0
  0
LINE
  5
13
100
AcDbEntity
  8
0
100
AcDbLine
 10
78.5
 20
16.5
 30
0.0
 11
92.5
 21
16.5
 31
0.0
  0
LINE
  5
14
100
AcDbEntity
  8
0
100
AcDbLine
 10
78.5
 20
2.5
 30
0.0
 11
78.5
 21
16.5
 31
0.0
  0
LINE
  5
15
100
AcDbEntity
  8
0
100
AcDbLine
 10
97.5
 20
2.5
 30
0.0
 11
111.5
 21
2.5
 31
0.0
  0
LINE
  5
16
100
AcDbEntity
  8
0
100
AcDbLine
 10
111.5
 20
2.5
 30
0.0
 11
111.5
 21
16.5
 31
0.0
  0
LINE
  5
17
100
AcDbEntity
  8
0
100
AcDbLine
 10
97.5
 20
16.5
 30
0.0
 11
111.5
 21
16.5
 31
0.0
  0
LINE
  5
18
100
AcDbEntity
  8
0
100
AcDbLine
 10
97.5
 20
2.5
 30
0.0
 11
97.5
 21
16.5
 31
0.0
  0
LINE
  5
19
100
AcDbEntity
  8
0
100
AcDbLine
 10
116.5
 20
2.5
 30
0.0
 11
130.5
 21
2.5
 31
0.0
  0
LINE
  5
1A
100
AcDbEntity
  8
0
100
AcDbLine
 10
130.5
 20
2.5
 30
0.0
 11
130.5
 21
16.5
 31
0.0
  0
LINE
  5
1B
100
AcDbEntity
  8
0
100
AcDbLine
 10
116.5
 20
16.5
 30
0.0
 11
130.5
 21
16.5
 31
0.0
  0
LINE
  5
1C
100
AcDbEntity
  8
0
100
AcDbLine
 10
116.5
 20
2.5
 30
0.0
 11
116.5
 21
16.5
 31
0.0
  0
LINE
  5
1D
100
AcDbEntity
  8
0
100
AcDbLine
 10
135.5
 20
2.5
 30
0.0
 11
149.5
 21
2.5
 31
0.0
  0
LINE
  5
1E
100
AcDbEntity
  8
0
100
AcDbLine
 10
149.5
 20
2.5
 30
0.0
 11
149.5
 21
16.5
 31
0.0
  0
LINE
  5
1F
100
AcDbEntity
  8
0
100
AcDbLine
 10
135.5
 20
16.5
 30
0.0
 11
149.5
 21
16.5
 31
0.0
  0
LINE
  5
20
100
AcDbEntity
  8
0
100
AcDbLine
 10
135.5
 20
2.5
 30
0.0
 11
135.5
 21
16.5
 31
0.0
  0
LINE
  5
21
100
AcDbEntity
  8
0
100
AcDbLine
 10
154.5
 20
2.5
 30
0.0
 11
168.5
 21
2.5
 31
0.0
  0
LINE
  5
22
100
AcDbEntity
  8
0
100
AcDbLine
 10
168.5
 20
2.5
 30
0.0
 11
168.5
 21
16.5
 31
0.0
  0
LINE
  5
23
100
AcDbEntity
  8
0
100
AcDbLine
 10
154.5
 20
16.5
 30
0.0
 11
168.5
 21
16.5
 31
0.0
  0
LINE
  5
24
100
AcDbEntity
  8
0
100
AcDbLine
 10
154.5
 20
2.5
 30
0.0
 11
154.5
 21
16.5
 31
0.0
  0
LINE
  5
25
100
AcDbEntity
  8
0
100
AcDbLine
 10
173.5
 20
2.5
 30
0.0
 11
187.5
 21
2.5
 31
0.0
  0
LINE
  5
26
100
AcDbEntity
  8
0
100
AcDbLine
 10
187.5
 20
2.5
 30
0.0
 11
187.5
 21
16.5
 31
0.0
  0
LINE
  5
27
100
AcDbEntity
  8
0
100
AcDbLine
 10
173.5
 20
16.5
 30
0.0
 11
187.5
 21
16.5
 31
0.0
  0
LINE
  5
28
100
AcDbEntity
  8
0
100
AcDbLine
 10
173.5
 20
2.5
 30
0.0
 11
173.5
 21
16.5
 31
0.0
  0
LINE
  5
29
100
AcDbEntity
  8
0
100
AcDbLine
 10
192.5
 20
2.5
 30
0.0
 11
206.5
 21
2.5
 31
0.0
  0
LINE
  5
2A
100
AcDbEntity
  8
0
100
AcDbLine
 10
206.5
 20
2.5
 30
0.0
 11
206.5
 21
16.5
 31
0.0
  0
LINE
  5
2B
100
AcDbEntity
  8
0
100
AcDbLine
 10
192.5
 20
16.5
 30
0.0
 11
206.5
 21
16.5
 31
0.0
  0
LINE
  5
2C
100
AcDbEntity
  8
0
100
AcDbLine
 10
192.5
 20
2.5
 30
0.0
 11
192.5
 21
16.5
 31
0.0
  0
LINE
  5
2D
100
AcDbEntity
  8
0
100
AcDbLine
 10
211.5
 20
2.5
 30
0.0
 11
225.5
 21
2.5
 31
0.0
  0
LINE
  5
2E
100
AcDbEntity
  8
0
100
AcDbLine
 10
225.5
 20
2.5
 30
0.0
 11
225.5
 21
16.5
 31
0.0
  0
LINE
  5
2F
100
AcDbEntity
  8
0
100
AcDbLine
 10
211.5
 20
16.5
 30
0.0
 11
225.5
 21
16.5
 31
0.0
  0
LINE
  5
30
100
AcDbEntity
  8
0
100
AcDbLine
 10
211.5
 20
2.5
 30
0.0
 11
211.5
 21
16.5
 31
0.0
  0
LINE
  5
31
100
AcDbEntity
  8
0
100
AcDbLine
 10
230.5
 20
2.5
 30
0.0
 11
244.5
 21
2.5
 31
0.0
  0
LINE
  5
32
100
AcDbEntity
  8
0
100
AcDbLine
 10
244.5
 20
2.5
 30
0.0
 11
244.5
 21
16.5
 31
0.0
  0
LINE
  5
33
100
AcDbEntity
  8
0
100
AcDbLine
 10
230.5
 20
16.5
 30
0.0
 11
244.5
 21
16.5
 31
0.0
  0
LINE
  5
34
100
AcDbEntity
  8
0
100
AcDbLine
 10
230.5
 20
2.5
 30
0.0
 11
230.5
 21
16.5
 31
0.0
  0
LINE
  5
35
100
AcDbEntity
  8
0
100
AcDbLine
 10
254.25
 20
2.5
 30
0.0
 11
268.25
 21
2.5
 31
0.0
  0
LINE
  5
36
100
AcDbEntity
  8
0
100
AcDbLine
 10
268.25
 20
2.5
 30
0.0
 11
268.25
 21
16.5
 31
0.0
  0
LINE
  5
37
100
AcDbEntity
  8
0
100
AcDbLine
 10
254.25
 20
16.5
 30
0.0
 11
268.25
 21
16.5
 31
0.0
  0
LINE
  5
38
100
AcDbEntity
  8
0
100
AcDbLine
 10
254.25
 20
2.5
 30
0.0
 11
254.25
 21
16.5
 31
0.0
  0
LINE
  5
39
100
AcDbEntity
  8
0
100
AcDbLine
 10
282.75
 20
2.5
 30
0.0
 11
296.75
 21
2.5
 31
0.0
  0
LINE
  5
3A
100
AcDbEntity
  8
0
100
AcDbLine
 10
296.75
 20
2.5
 30
0.0
 11
296.75
 21
16.5
 31
0.0
  0
LINE
  5
3B
100
AcDbEntity
  8
0
100
AcDbLine
 10
282.75
 20
16.5
 30
0.0
 11
296.75
 21
16.5
 31
0.0
  0
LINE
  5
3C
100
AcDbEntity
  8
0
100
AcDbLine
 10
282.75
 20
2.5
 30
0.0
 11
282.75
 21
16.5
 31
0.0
  0
LINE
  5
3D
100
AcDbEntity
  8
0
100
AcDbLine
 10
2.5
 20
-16.5
 30
0.0
 11
16.5
 21
-16.5
 31
0.0
  0
LINE
  5
3E
100
AcDbEntity
  8
0
100
AcDbLine
 10
16.5
 20
-16.5
 30
0.0
 11
16.5
 21
-2.5
 31
0.0
  0
LINE
  5
3F
100
AcDbEntity
  8
0
100
AcDbLine
 10
2.5
 20
-2.5
 30
0.0
 11
16.5
 21
-2.5
 31
0.0
  0
LINE
  5
40
100
AcDbEntity
  8
0
100
AcDbLine
 10
2.5
 20
-16.5
 30
0.0
 11
2.5
 21
-2.5
 31
0.0
  0
LINE
  5
41
100
AcDbEntity
  8
0
100
AcDbLine
 10
21.5
 20
-16.5
 30
0.0
 11
35.5
 21
-16.5
 31
0.0
  0
LINE
  5
42
100
AcDbEntity
  8
0
100
AcDbLine
 10
35.5
 20
-16.5
 30
0.0
 11
35.5
 21
-2.5
 31
0.0
  0
LINE
  5
43
100
AcDbEntity
  8
0
100
AcDbLine
 10
21.5
 20
-2.5
 30
0.0
 11
35.5
 21
-2.5
 31
0.0
  0
LINE
  5
44
100
AcDbEntity
  8
0
100
AcDbLine
 10
21.5
 20
-16.5
 30
0.0
 11
21.5
 21
-2.5
 31
0.0
  0
LINE
  5
45
100
AcDbEntity
  8
0
100
AcDbLine
 10
40.5
 20
-16.5
 30
0.0
 11
54.5
 21
-16.5
 31
0.0
  0
LINE
  5
46
100
AcDbEntity
  8
0
100
AcDbLine
 10
54.5
 20
-16.5
 30
0.0
 11
54.5
 21
-2.5
 31
0.0
  0
LINE
  5
47
100
AcDbEntity
  8
0
100
AcDbLine
 10
40.5
 20
-2.5
 30
0.0
 11
54.5
 21
-2.5
 31
0.0
  0
LINE
  5
48
100
AcDbEntity
  8
0
100
AcDbLine
 10
40.5
 20
-16.5
 30
0.0
 11
40.5
 21
-2.5
 31
0.0
  0
LINE
  5
49
100
AcDbEntity
  8
0
100
AcDbLine
 10
59.5
 20
-16.5
 30
0.0
 11
73.5
 21
-16.5
 31
0.0
  0
LINE
  5
4A
100
AcDbEntity
  8
0
100
AcDbLine
 10
73.5
 20
-16.5
 30
0.0
 11
73.5
 21
-2.5
 31
0.0
  0
LINE
  5
4B
100
AcDbEntity
  8
0
100
AcDbLine
 10
59.5
 20
-2.5
 30
0.0
 11
73.5
 21
-2.5
 31
0.0
  0
LINE
  5
4C
100
AcDbEntity
  8
0
100
AcDbLine
 10
59.5
 20
-16.5
 30
0.0
 11
59.5
 21
-2.5
 31
0.0
  0
LINE
  5
4D
100
AcDbEntity
  8
0
100
AcDbLine
 10
78.5
 20
-16.5
 30
0.0
 11
92.5
 21
-16.5
 31
0.0
  0
LINE
  5
4E
100
AcDbEntity
  8
0
100
AcDbLine
 10
92.5
 20
-16.5
 30
0.0
 11
92.5
 21
-2.5
 31
0.0
  0
LINE
  5
4F
100
AcDbEntity
  8
0
100
AcDbLine
 10
78.5
 20
-2.5
 30
0.0
 11
92.5
 21
-2.5
 31
0.0
  0
LINE
  5
50
100
AcDbEntity
  8
0
100
AcDbLine
 10
78.5
 20
-16.5
 30
0.0
 11
78.5
 21
-2.5
 31
0.0
  0
LINE
  5
51
100
AcDbEntity
  8
0
100
AcDbLine
 10
97.5
 20
-16.5
 30
0.0
 11
111.5
 21
-16.5
 31
0.0
  0
LINE
  5
52
100
AcDbEntity
  8
0
100
AcDbLine
 10
111.5
 20
-16.5
 30
0.0
 11
111.5
 21
-2.5
 31
0.0
  0
LINE
  5
53
100
AcDbEntity
  8
0
100
AcDbLine
 10
97.5
 20
-2.5
 30
0.0
 11
111.5
 21
-2.5
 31
0.0
  0
LINE
  5
54
100
AcDbEntity
  8
0
100
AcDbLine
 10
97.5
 20
-16.5
 30
0.0
 11
97.5
 21
-2.5
 31
0.0
  0
LINE
  5
55
100
AcDbEntity
  8
0
100
AcDbLine
 10
116.5
 20
-16.5
 30
0.0
 11
130.5
 21
-16.5
 31
0.0
  0
LINE
  5
56
100
AcDbEntity
  8
0
100
AcDbLine
 10
130.5
 20
-16.5
 30
0.0
 11
130.5
 21
-2.5
 31
0.0
  0
LINE
  5
57
100
AcDbEntity
  8
0
100
AcDbLine
 10
116.5
 20
-2.5
 30
0.0
 11
130.5
 21
-2.5
 31
0.0
  0
LINE
  5
58
100
AcDbEntity
  8
0
100
AcDbLine
 10
116.5
 20
-16.5
 30
0.0
 11
116.5
 21
-2.5
 31
0.0
  0
LINE
  5
59
100
AcDbEntity
  8
0
100
AcDbLine
 10
135.5
 20
-16.5
 30
0.0
 11
149.5
 21
-16.5
 31
0.0
  0
LINE
  5
5A
100
AcDbEntity
  8
0
100
AcDbLine
 10
149.5
 20
-16.5
 30
0.0
 11
149.5
 21
-2.5
 31
0.0
  0
LINE
  5
5B
100
AcDbEntity
  8
0
100
AcDbLine
 10
135.5
 20
-2.5
 30
0.0
 11
149.5
 21
-2.5
 31
0.0
  0
LINE
  5
5C
100
AcDbEntity
  8
0
100
AcDbLine
 10
135.5
 20
-16.5
 30
0.0
 11
135.5
 21
-2.5
 31
0.0
  0
LINE
  5
5D
100
AcDbEntity
  8
0
100
AcDbLine
 10
154.5
 20
-16.5
 30
0.0
 11
168.5
 21
-16.5
 31
0.0
  0
LINE
  5
5E
100
AcDbEntity
  8
0
100
AcDbLine
 10
168.5
 20
-16.5
 30
0.0
 11
168.5
 21
-2.5
 31
0.0
  0
LINE
  5
5F
100
AcDbEntity
  8
0
100
AcDbLine
 10
154.5
 20
-2.5
 30
0.0
 11
168.5
 21
-2.5
 31
0.0
  0
LINE
  5
60
100
AcDbEntity
  8
0
100
AcDbLine
 10
154.5
 20
-16.5
 30
0.0
 11
154.5
 21
-2.5
 31
0.0
  0
LINE
  5
61
100
AcDbEntity
  8
0
100
AcDbLine
 10
173.5
 20
-16.5
 30
0.0
 11
187.5
 21
-16.5
 31
0.0
  0
LINE
  5
62
100
AcDbEntity
  8
0
100
AcDbLine
 10
187.5
 20
-16.5
 30
0.0
 11
187.5
 21
-2.5
 31
0.0
  0
LINE
  5
63
100
AcDbEntity
  8
0
100
AcDbLine
 10
173.5
 20
-2.5
 30
0.0
 11
187.5
 21
-2.5
 31
0.0
  0
LINE
  5
64
100
AcDbEntity
  8
0
100
AcDbLine
 10
173.5
 20
-16.5
 30
0.0
 11
173.5
 21
-2.5
 31
0.0
  0
LINE
  5
65
100
AcDbEntity
  8
0
100
AcDbLine
 10
192.5
 20
-16.5
 30
0.0
 11
206.5
 21
-16.5
 31
0.0
  0
LINE
  5
66
100
AcDbEntity
  8
0
100
AcDbLine
 10
206.5
 20
-16.5
 30
0.0
 11
206.5
 21
-2.5
 31
0.0
  0
LINE
  5
67
100
AcDbEntity
  8
0
100
AcDbLine
 10
192.5
 20
-2.5
 30
0.0
 11
206.5
 21
-2.5
 31
0.0
  0
LINE
  5
68
100
AcDbEntity
  8
0
100
AcDbLine
 10
192.5
 20
-16.5
 30
0.0
 11
192.5
 21
-2.5
 31
0.0
  0
LINE
  5
69
100
AcDbEntity
  8
0
100
AcDbLine
 10
211.5
 20
-16.5
 30
0.0
 11
225.5
 21
-16.5
 31
0.0
  0
LINE
  5
6A
100
AcDbEntity
  8
0
100
AcDbLine
 10
225.5
 20
-16.5
 30
0.0
 11
225.5
 21
-2.5
 31
0.0
  0
LINE
  5
6B
100
AcDbEntity
  8
0
100
AcDbLine
 10
211.5
 20
-2.5
 30
0.0
 11
225.5
 21
-2.5
 31
0.0
  0
LINE
  5
6C
100
AcDbEntity
  8
0
100
AcDbLine
 10
211.5
 20
-16.5
 30
0.0
 11
211.5
 21
-2.5
 31
0.0
  0
LINE
  5
6D
100
AcDbEntity
  8
0
100
AcDbLine
 10
230.5
 20
-16.5
 30
0.0
 11
244.5
 21
-16.5
 31
0.0
  0
LINE
  5
6E
100
AcDbEntity
  8
0
100
AcDbLine
 10
244.5
 20
-16.5
 30
0.0
 11
244.5
 21
-2.5
 31
0.0
  0
LINE
  5
6F
100
AcDbEntity
  8
0
100
AcDbLine
 10
230.5
 20
-2.5
 30
0.0
 11
244.5
 21
-2.5
 31
0.0
  0
LINE
  5
70
100
AcDbEntity
  8
0
100
AcDbLine
 10
230.5
 20
-16.5
 30
0.0
 11
230.5
 21
-2.5
 31
0.0
  0
LINE
  5
71
100
AcDbEntity
  8
0
100
AcDbLine
 10
254.25
 20
-16.5
 30
0.0
 11
268.25
 21
-16.5
 31
0.0
  0
LINE
  5
72
100
AcDbEntity
  8
0
100
AcDbLine
 10
268.25
 20
-16.5
 30
0.0
 11
268.25
 21
-2.5
 31
0.0
  0
LINE
  5
73
100
AcDbEntity
  8
0
100
AcDbLine
 10
254.25
 20
-2.5
 30
0.0
 11
268.25
 21
-2.5
 31
0.0
  0
LINE
  5
74
100
AcDbEntity
  8
0
100
AcDbLine
 10
254.25
 20
-16.5
 30
0.0
 11
254.25
 21
-2.5
 31
0.0
  0
LINE
  5
75
100
AcDbEntity
  8
0
100
AcDbLine
 10
282.75
 20
-16.5
 30
0.0
 11
296.75
 21
-16.5
 31
0.0
  0
LINE
  5
76
100
AcDbEntity
  8
0
100
AcDbLine
 10
296.75
 20
-16.5
 30
0.0
 11
296.75
 21
-2.5
 31
0.0
  0
LINE
  5
77
100
AcDbEntity
  8
0
100
AcDbLine
 10
282.75
 20
-2.5
 30
0.0
 11
296.75
 21
-2.5
 31
0.0
  0
LINE
  5
78
100
AcDbEntity
  8
0
100
AcDbLine
 10
282.75
 20
-16.5
 30
0.0
 11
282.75
 21
-2.5
 31
0.0
  0
LINE
  5
79
100
AcDbEntity
  8
0
100
AcDbLine
 10
7.25
 20
-35.5
 30
0.0
 11
21.25
 21
-35.5
 31
0.0
  0
LINE
  5
7A
100
AcDbEntity
  8
0
100
AcDbLine
 10
21.25
 20
-35.5
 30
0.0
 11
21.25
 21
-21.5
 31
0.0
  0
LINE
  5
7B
100
AcDbEntity
  8
0
100
AcDbLine
 10
7.25
 20
-21.5
 30
0.0
 11
21.25
 21
-21.5
 31
0.0
  0
LINE
  5
7C
100
AcDbEntity
  8
0
100
AcDbLine
 10
7.25
 20
-35.5
 30
0.0
 11
7.25
 21
-21.5
 31
0.0
  0
LINE
  5
7D
100
AcDbEntity
  8
0
100
AcDbLine
 10
31.0
 20
-35.5
 30
0.0
 11
45.0
 21
-35.5
 31
0.0
  0
LINE
  5
7E
100
AcDbEntity
  8
0
100
AcDbLine
 10
45.0
 20
-35.5
 30
0.0
 11
45.0
 21
-21.5
 31
0.0
  0
LINE
  5
7F
100
AcDbEntity
  8
0
100
AcDbLine
 10
31.0
 20
-21.5
 30
0.0
 11
45.0
 21
-21.5
 31
0.0
  0
LINE
  5
80
100
AcDbEntity
  8
0
100
AcDbLine
 10
31.0
 20
-35.5
 30
0.0
 11
31.0
 21
-21.5
 31
0.0
  0
LINE
  5
81
100
AcDbEntity
  8
0
100
AcDbLine
 10
50.0
 20
-35.5
 30
0.0
 11
64.0
 21
-35.5
 31
0.0
  0
LINE
  5
82
100
AcDbEntity
  8
0
100
AcDbLine
 10
64.0
 20
-35.5
 30
0.0
 11
64.0
 21
-21.5
 31
0.0
  0
LINE
  5
83
100
AcDbEntity
  8
0
100
AcDbLine
 10
50.0
 20
-21.5
 30
0.0
 11
64.0
 21
-21.5
 31
0.0
  0
LINE
  5
84
100
AcDbEntity
  8
0
100
AcDbLine
 10
50.0
 20
-35.5
 30
0.0
 11
50.0
 21
-21.5
 31
0.0
  0
LINE
  5
85
100
AcDbEntity
  8
0
100
AcDbLine
 10
69.0
 20
-35.5
 30
0.0
 11
83.0
 21
-35.5
 31
0.0
  0
LINE
  5
86
100
AcDbEntity
  8
0
100
AcDbLine
 10
83.0
 20
-35.5
 30
0.0
 11
83.0
 21
-21.5
 31
0.0
  0
LINE
  5
87
100
AcDbEntity
  8
0
100
AcDbLine
 10
69.0
 20
-21.5
 30
0.0
 11
83.0
 21
-21.5
 31
0.0
  0
LINE
  5
88
100
AcDbEntity
  8
0
100
AcDbLine
 10
69.0
 20
-35.5
 30
0.0
 11
69.0
 21
-21.5
 31
0.0
  0
LINE
  5
89
100
AcDbEntity
  8
0
100
AcDbLine
 10
88.0
 20
-35.5
 30
0.0
 11
102.0
 21
-35.5
 31
0.0
  0
LINE
  5
8A
100
AcDbEntity
  8
0
100
AcDbLine
 10
102.0
 20
-35.5
 30
0.0
 11
102.0
 21
-21.5
 31
0.0
  0
LINE
  5
8B
100
AcDbEntity
  8
0
100
AcDbLine
 10
88.0
 20
-21.5
 30
0.0
 11
102.0
 21
-21.5
 31
0.0
  0
LINE
  5
8C
100
AcDbEntity
  8
0
100
AcDbLine
 10
88.0
 20
-35.5
 30
0.0
 11
88.0
 21
-21.5
 31
0.0
  0
LINE
  5
8D
100
AcDbEntity
  8
0
100
AcDbLine
 10
107.0
 20
-35.5
 30
0.0
 11
121.0
 21
-35.5
 31
0.0
  0
LINE
  5
8E
100
AcDbEntity
  8
0
100
AcDbLine
 10
121.0
 20
-35.5
 30
0.0
 11
121.0
 21
-21.5
 31
0.0
  0
LINE
  5
8F
100
AcDbEntity
  8
0
100
AcDbLine
 10
107.0
 20
-21.5
 30
0.0
 11
121.0
 21
-21.5
 31
0.0
  0
LINE
  5
90
100
AcDbEntity
  8
0
100
AcDbLine
 10
107.0
 20
-35.5
 30
0.0
 11
107.0
 21
-21.5
 31
0.0
  0
LINE
  5
91
100
AcDbEntity
  8
0
100
AcDbLine
 10
126.0
 20
-35.5
 30
0.0
 11
140.0
 21
-35.5
 31
0.0
  0
LINE
  5
92
100
AcDbEntity
  8
0
100
AcDbLine
 10
140.0
 20
-35.5
 30
0.0
 11
140.0
 21
-21.5
 31
0.0
  0
LINE
  5
93
100
AcDbEntity
  8
0
100
AcDbLine
 10
126.0
 20
-21.5
 30
0.0
 11
140.0
 21
-21.5
 31
0.0
  0
LINE
  5
94
100
AcDbEntity
  8
0
100
AcDbLine
 10
126.0
 20
-35.5
 30
0.0
 11
126.0
 21
-21.5
 31
0.0
  0
LINE
  5
95
100
AcDbEntity
  8
0
100
AcDbLine
 10
145.0
 20
-35.5
 30
0.0
 11
159.0
 21
-35.5
 31
0.0
  0
LINE
  5
96
100
AcDbEntity
  8
0
100
AcDbLine
 10
159.0
 20
-35.5
 30
0.0
 11
159.0
 21
-21.5
 31
0.0
  0
LINE
  5
97
100
AcDbEntity
  8
0
100
AcDbLine
 10
145.0
 20
-21.5
 30
0.0
 11
159.0
 21
-21.5
 31
0.0
  0
LINE
  5
98
100
AcDbEntity
  8
0
100
AcDbLine
 10
145.0
 20
-35.5
 30
0.0
 11
145.0
 21
-21.5
 31
0.0
  0
LINE
  5
99
100
AcDbEntity
  8
0
100
AcDbLine
 10
164.0
 20
-35.5
 30
0.0
 11
178.0
 21
-35.5
 31
0.0
  0
LINE
  5
9A
100
AcDbEntity
  8
0
100
AcDbLine
 10
178.0
 20
-35.5
 30
0.0
 11
178.0
 21
-21.5
 31
0.0
  0
LINE
  5
9B
100
AcDbEntity
  8
0
100
AcDbLine
 10
164.0
 20
-21.5
 30
0.0
 11
178.0
 21
-21.5
 31
0.0
  0
LINE
  5
9C
100
AcDbEntity
  8
0
100
AcDbLine
 10
164.0
 20
-35.5
 30
0.0
 11
164.0
 21
-21.5
 31
0.0
  0
LINE
  5
9D
100
AcDbEntity
  8
0
100
AcDbLine
 10
183.0
 20
-35.5
 30
0.0
 11
197.0
 21
-35.5
 31
0.0
  0
LINE
  5
9E
100
AcDbEntity
  8
0
100
AcDbLine
 10
197.0
 20
-35.5
 30
0.0
 11
197.0
 21
-21.5
 31
0.0
  0
LINE
  5
9F
100
AcDbEntity
  8
0
100
AcDbLine
 10
183.0
 20
-21.5
 30
0.0
 11
197.0
 21
-21.5
 31
0.0
  0
LINE
  5
A0
100
AcDbEntity
  8
0
100
AcDbLine
 10
183.0
 20
-35.5
 30
0.0
 11
183.0
 21
-21.5
 31
0.0
  0
LINE
  5
A1
100
AcDbEntity
  8
0
100
AcDbLine
 10
202.0
 20
-35.5
 30
0.0
 11
216.0
 21
-35.5
 31
0.0
  0
LINE
  5
A2
100
AcDbEntity
  8
0
100
AcDbLine
 10
216.0
 20
-35.5
 30
0.0
 11
216.0
 21
-21.5
 31
0.0
  0
LINE
  5
A3
100
AcDbEntity
  8
0
100
AcDbLine
 10
202.0
 20
-21.5
 30
0.0
 11
216.0
 21
-21.5
 31
0.0
  0
LINE
  5
A4
100
AcDbEntity
  8
0
100
AcDbLine
 10
202.0
 20
-35.5
 30
0.0
 11
202.0
 21
-21.5
 31
0.0
  0
LINE
  5
A5
100
AcDbEntity
  8
0
100
AcDbLine
 10
221.0
 20
-35.5
 30
0.0
 11
235.0
 21
-35.5
 31
0.0
  0
LINE
  5
A6
100
AcDbEntity
  8
0
100
AcDbLine
 10
235.0
 20
-35.5
 30
0.0
 11
235.0
 21
-21.5
 31
0.0
  0
LINE
  5
A7
100
AcDbEntity
  8
0
100
AcDbLine
 10
221.0
 20
-21.5
 30
0.0
 11
235.0
 21
-21.5
 31
0.0
  0
LINE
  5
A8
100
AcDbEntity
  8
0
100
AcDbLine
 10
221.0
 20
-35.5
 30
0.0
 11
221.0
 21
-21.5
 31
0.0
  0
LINE
  5
A9
100
AcDbEntity
  8
0
100
AcDbLine
 10
240.0
 20
-35.5
 30
0.0
 11
254.0
 21
-35.5
 31
0.0
  0
LINE
  5
AA
100
AcDbEntity
  8
0
100
AcDbLine
 10
254.0
 20
-35.5
 30
0.0
 11
254.0
 21
-21.5
 31
0.0
  0
LINE
  5
AB
100
AcDbEntity
  8
0
100
AcDbLine
 10
240.0
 20
-21.5
 30
0.0
 11
254.0
 21
-21.5
 31
0.0
  0
LINE
  5
AC
100
AcDbEntity
  8
0
100
AcDbLine
 10
240.0
 20
-35.5
 30
0.0
 11
240.0
 21
-21.5
 31
0.0
  0
LINE
  5
AD
100
AcDbEntity
  8
0
100
AcDbLine
 10
259.0
 20
-35.5
 30
0.0
 11
273.0
 21
-35.5
 31
0.0
  0
LINE
  5
AE
100
AcDbEntity
  8
0
100
AcDbLine
 10
273.0
 20
-35.5
 30
0.0
 11
273.0
 21
-21.5
 31
0.0
  0
LINE
  5
AF
100
AcDbEntity
  8
0
100
AcDbLine
 10
259.0
 20
-21.5
 30
0.0
 11
273.0
 21
-21.5
 31
0.0
  0
LINE
  5
B0
100
AcDbEntity
  8
0
100
AcDbLine
 10
259.0
 20
-35.5
 30
0.0
 11
259.0
 21
-21.5
 31
0.0
  0
LINE
  5
B1
100
AcDbEntity
  8
0
100
AcDbLine
 10
282.75
 20
-35.5
 30
0.0
 11
296.75
 21
-35.5
 31
0.0
  0
LINE
  5
B2
100
AcDbEntity
  8
0
100
AcDbLine
 10
296.75
 20
-35.5
 30
0.0
 11
296.75
 21
-21.5
 31
0.0
  0
LINE
  5
B3
100
AcDbEntity
  8
0
100
AcDbLine
 10
282.75
 20
-21.5
 30
0.0
 11
296.75
 21
-21.5
 31
0.0
  0
LINE
  5
B4
100
AcDbEntity
  8
0
100
AcDbLine
 10
282.75
 20
-35.5
 30
0.0
 11
282.75
 21
-21.5
 31
0.0
  0
LINE
  5
B5
100
AcDbEntity
  8
0
100
AcDbLine
 10
12.0
 20
-54.5
 30
0.0
 11
26.0
 21
-54.5
 31
0.0
  0
LINE
  5
B6
100
AcDbEntity
  8
0
100
AcDbLine
 10
26.0
 20
-54.5
 30
0.0
 11
26.0
 21
-40.5
 31
0.0
  0
LINE
  5
B7
100
AcDbEntity
  8
0
100
AcDbLine
 10
12.0
 20
-40.5
 30
0.0
 11
26.0
 21
-40.5
 31
0.0
  0
LINE
  5
B8
100
AcDbEntity
  8
0
100
AcDbLine
 10
12.0
 20
-54.5
 30
0.0
 11
12.0
 21
-40.5
 31
0.0
  0
LINE
  5
B9
100
AcDbEntity
  8
0
100
AcDbLine
 10
35.75
 20
-54.5
 30
0.0
 11
49.75
 21
-54.5
 31
0.0
  0
LINE
  5
BA
100
AcDbEntity
  8
0
100
AcDbLine
 10
49.75
 20
-54.5
 30
0.0
 11
49.75
 21
-40.5
 31
0.0
  0
LINE
  5
BB
100
AcDbEntity
  8
0
100
AcDbLine
 10
35.75
 20
-40.5
 30
0.0
 11
49.75
 21
-40.5
 31
0.0
  0
LINE
  5
BC
100
AcDbEntity
  8
0
100
AcDbLine
 10
35.75
 20
-54.5
 30
0.0
 11
35.75
 21
-40.5
 31
0.0
  0
LINE
  5
BD
100
AcDbEntity
  8
0
100
AcDbLine
 10
54.75
 20
-54.5
 30
0.0
 11
68.75
 21
-54.5
 31
0.0
  0
LINE
  5
BE
100
AcDbEntity
  8
0
100
AcDbLine
 10
68.75
 20
-54.5
 30
0.0
 11
68.75
 21
-40.5
 31
0.0
  0
LINE
  5
BF
100
AcDbEntity
  8
0
100
AcDbLine
 10
54.75
 20
-40.5
 30
0.0
 11
68.75
 21
-40.5
 31
0.0
  0
LINE
  5
C0
100
AcDbEntity
  8
0
100
AcDbLine
 10
54.75
 20
-54.5
 30
0.0
 11
54.75
 21
-40.5
 31
0.0
  0
LINE
  5
C1
100
AcDbEntity
  8
0
100
AcDbLine
 10
73.75
 20
-54.5
 30
0.0
 11
87.75
 21
-54.5
 31
0.0
  0
LINE
  5
C2
100
AcDbEntity
  8
0
100
AcDbLine
 10
87.75
 20
-54.5
 30
0.0
 11
87.75
 21
-40.5
 31
0.0
  0
LINE
  5
C3
100
AcDbEntity
  8
0
100
AcDbLine
 10
73.75
 20
-40.5
 30
0.0
 11
87.75
 21
-40.5
 31
0.0
  0
LINE
  5
C4
100
AcDbEntity
  8
0
100
AcDbLine
 10
73.75
 20
-54.5
 30
0.0
 11
73.75
 21
-40.5
 31
0.0
  0
LINE
  5
C5
100
AcDbEntity
  8
0
100
AcDbLine
 10
92.75
 20
-54.5
 30
0.0
 11
106.75
 21
-54.5
 31
0.0
  0
LINE
  5
C6
100
AcDbEntity
  8
0
100
AcDbLine
 10
106.75
 20
-54.5
 30
0.0
 11
106.75
 21
-40.5
 31
0.0
  0
LINE
  5
C7
100
AcDbEntity
  8
0
100
AcDbLine
 10
92.75
 20
-40.5
 30
0.0
 11
106.75
 21
-40.5
 31
0.0
  0
LINE
  5
C8
100
AcDbEntity
  8
0
100
AcDbLine
 10
92.75
 20
-54.5
 30
0.0
 11
92.75
 21
-40.5
 31
0.0
  0
LINE
  5
C9
100
AcDbEntity
  8
0
100
AcDbLine
 10
111.75
 20
-54.5
 30
0.0
 11
125.75
 21
-54.5
 31
0.0
  0
LINE
  5
CA
100
AcDbEntity
  8
0
100
AcDbLine
 10
125.75
 20
-54.5
 30
0.0
 11
125.75
 21
-40.5
 31
0.0
  0
LINE
  5
CB
100
AcDbEntity
  8
0
100
AcDbLine
 10
111.75
 20
-40.5
 30
0.0
 11
125.75
 21
-40.5
 31
0.0
  0
LINE
  5
CC
100
AcDbEntity
  8
0
100
AcDbLine
 10
111.75
 20
-54.5
 30
0.0
 11
111.75
 21
-40.5
 31
0.0
  0
LINE
  5
CD
100
AcDbEntity
  8
0
100
AcDbLine
 10
130.75
 20
-54.5
 30
0.0
 11
144.75
 21
-54.5
 31
0.0
  0
LINE
  5
CE
100
AcDbEntity
  8
0
100
AcDbLine
 10
144.75
 20
-54.5
 30
0.0
 11
144.75
 21
-40.5
 31
0.0
  0
LINE
  5
CF
100
AcDbEntity
  8
0
100
AcDbLine
 10
130.75
 20
-40.5
 30
0.0
 11
144.75
 21
-40.5
 31
0.0
  0
LINE
  5
D0
100
AcDbEntity
  8
0
100
AcDbLine
 10
130.75
 20
-54.5
 30
0.0
 11
130.75
 21
-40.5
 31
0.0
  0
LINE
  5
D1
100
AcDbEntity
  8
0
100
AcDbLine
 10
149.75
 20
-54.5
 30
0.0
 11
163.75
 21
-54.5
 31
0.0
  0
LINE
  5
D2
100
AcDbEntity
  8
0
100
AcDbLine
 10
163.75
 20
-54.5
 30
0.0
 11
163.75
 21
-40.5
 31
0.0
  0
LINE
  5
D3
100
AcDbEntity
  8
0
100
AcDbLine
 10
149.75
 20
-40.5
 30
0.0
 11
163.75
 21
-40.5
 31
0.0
  0
LINE
  5
D4
100
AcDbEntity
  8
0
100
AcDbLine
 10
149.75
 20
-54.5
 30
0.0
 11
149.75
 21
-40.5
 31
0.0
  0
LINE
  5
D5
100
AcDbEntity
  8
0
100
AcDbLine
 10
168.75
 20
-54.5
 30
0.0
 11
182.75
 21
-54.5
 31
0.0
  0
LINE
  5
D6
100
AcDbEntity
  8
0
100
AcDbLine
 10
182.75
 20
-54.5
 30
0.0
 11
182.75
 21
-40.5
 31
0.0
  0
LINE
  5
D7
100
AcDbEntity
  8
0
100
AcDbLine
 10
168.75
 20
-40.5
 30
0.0
 11
182.75
 21
-40.5
 31
0.0
  0
LINE
  5
D8
100
AcDbEntity
  8
0
100
AcDbLine
 10
168.75
 20
-54.5
 30
0.0
 11
168.75
 21
-40.5
 31
0.0
  0
LINE
  5
D9
100
AcDbEntity
  8
0
100
AcDbLine
 10
187.75
 20
-54.5
 30
0.0
 11
201.75
 21
-54.5
 31
0.0
  0
LINE
  5
DA
100
AcDbEntity
  8
0
100
AcDbLine
 10
201.75
 20
-54.5
 30
0.0
 11
201.75
 21
-40.5
 31
0.0
  0
LINE
  5
DB
100
AcDbEntity
  8
0
100
AcDbLine
 10
187.75
 20
-40.5
 30
0.0
 11
201.75
 21
-40.5
 31
0.0
  0
LINE
  5
DC
100
AcDbEntity
  8
0
100
AcDbLine
 10
187.75
 20
-54.5
 30
0.0
 11
187.75
 21
-40.5
 31
0.0
  0
LINE
  5
DD
100
AcDbEntity
  8
0
100
AcDbLine
 10
206.75
 20
-54.5
 30
0.0
 11
220.75
 21
-54.5
 31
0.0
  0
LINE
  5
DE
100
AcDbEntity
  8
0
100
AcDbLine
 10
220.75
 20
-54.5
 30
0.0
 11
220.75
 21
-40.5
 31
0.0
  0
LINE
  5
DF
100
AcDbEntity
  8
0
100
AcDbLine
 10
206.75
 20
-40.5
 30
0.0
 11
220.75
 21
-40.5
 31
0.0
  0
LINE
  5
E0
100
AcDbEntity
  8
0
100
AcDbLine
 10
206.75
 20
-54.5
 30
0.0
 11
206.75
 21
-40.5
 31
0.0
  0
LINE
  5
E1
100
AcDbEntity
  8
0
100
AcDbLine
 10
225.75
 20
-54.5
 30
0.0
 11
239.75
 21
-54.5
 31
0.0
  0
LINE
  5
E2
100
AcDbEntity
  8
0
100
AcDbLine
 10
239.75
 20
-54.5
 30
0.0
 11
239.75
 21
-40.5
 31
0.0
  0
LINE
  5
E3
100
AcDbEntity
  8
0
100
AcDbLine
 10
225.75
 20
-40.5
 30
0.0
 11
239.75
 21
-40.5
 31
0.0
  0
LINE
  5
E4
100
AcDbEntity
  8
0
100
AcDbLine
 10
225.75
 20
-54.5
 30
0.0
 11
225.75
 21
-40.5
 31
0.0
  0
LINE
  5
E5
100
AcDbEntity
  8
0
100
AcDbLine
 10
249.5
 20
-54.5
 30
0.0
 11
263.5
 21
-54.5
 31
0.0
  0
LINE
  5
E6
100
AcDbEntity
  8
0
100
AcDbLine
 10
263.5
 20
-54.5
 30
0.0
 11
263.5
 21
-40.5
 31
0.0
  0
LINE
  5
E7
100
AcDbEntity
  8
0
100
AcDbLine
 10
249.5
 20
-40.5
 30
0.0
 11
263.5
 21
-40.5
 31
0.0
  0
LINE
  5
E8
100
AcDbEntity
  8
0
100
AcDbLine
 10
249.5
 20
-54.5
 30
0.0
 11
249.5
 21
-40.5
 31
0.0
  0
LINE
  5
E9
100
AcDbEntity
  8
0
100
AcDbLine
 10
282.75
 20
-54.5
 30
0.0
 11
296.75
 21
-54.5
 31
0.0
  0
LINE
  5
EA
100
AcDbEntity
  8
0
100
AcDbLine
 10
296.75
 20
-54.5
 30
0.0
 11
296.75
 21
-40.5
 31
0.0
  0
LINE
  5
EB
100
AcDbEntity
  8
0
100
AcDbLine
 10
282.75
 20
-40.5
 30
0.0
 11
296.75
 21
-40.5
 31
0.0
  0
LINE
  5
EC
100
AcDbEntity
  8
0
100
AcDbLine
 10
282.75
 20
-54.5
 30
0.0
 11
282.75
 21
-40.5
 31
0.0
  0
LINE
  5
ED
100
AcDbEntity
  8
0
100
AcDbLine
 10
16.75
 20
-73.5
 30
0.0
 11
30.75
 21
-73.5
 31
0.0
  0
LINE
  5
EE
100
AcDbEntity
  8
0
100
AcDbLine
 10
30.75
 20
-73.5
 30
0.0
 11
30.75
 21
-59.5
 31
0.0
  0
LINE
  5
EF
100
AcDbEntity
  8
0
100
AcDbLine
 10
16.75
 20
-59.5
 30
0.0
 11
30.75
 21
-59.5
 31
0.0
  0
LINE
  5
F0
100
AcDbEntity
  8
0
100
AcDbLine
 10
16.75
 20
-73.5
 30
0.0
 11
16.75
 21
-59.5
 31
0.0
  0
LINE
  5
F1
100
AcDbEntity
  8
0
100
AcDbLine
 10
45.25
 20
-73.5
 30
0.0
 11
59.25
 21
-73.5
 31
0.0
  0
LINE
  5
F2
100
AcDbEntity
  8
0
100
AcDbLine
 10
59.25
 20
-73.5
 30
0.0
 11
59.25
 21
-59.5
 31
0.0
  0
LINE
  5
F3
100
AcDbEntity
  8
0
100
AcDbLine
 10
45.25
 20
-59.5
 30
0.0
 11
59.25
 21
-59.5
 31
0.0
  0
LINE
  5
F4
100
AcDbEntity
  8
0
100
AcDbLine
 10
45.25
 20
-73.5
 30
0.0
 11
45.25
 21
-59.5
 31
0.0
  0
LINE
  5
F5
100
AcDbEntity
  8
0
100
AcDbLine
 10
64.25
 20
-73.5
 30
0.0
 11
78.25
 21
-73.5
 31
0.0
  0
LINE
  5
F6
100
AcDbEntity
  8
0
100
AcDbLine
 10
78.25
 20
-73.5
 30
0.0
 11
78.25
 21
-59.5
 31
0.0
  0
LINE
  5
F7
100
AcDbEntity
  8
0
100
AcDbLine
 10
64.25
 20
-59.5
 30
0.0
 11
78.25
 21
-59.5
 31
0.0
  0
LINE
  5
F8
100
AcDbEntity
  8
0
100
AcDbLine
 10
64.25
 20
-73.5
 30
0.0
 11
64.25
 21
-59.5
 31
0.0
  0
LINE
  5
F9
100
AcDbEntity
  8
0
100
AcDbLine
 10
83.25
 20
-73.5
 30
0.0
 11
97.25
 21
-73.5
 31
0.0
  0
LINE
  5
FA
100
AcDbEntity
  8
0
100
AcDbLine
 10
97.25
 20
-73.5
 30
0.0
 11
97.25
 21
-59.5
 31
0.0
  0
LINE
  5
FB
100
AcDbEntity
  8
0
100
AcDbLine
 10
83.25
 20
-59.5
 30
0.0
 11
97.25
 21
-59.5
 31
0.0
  0
LINE
  5
FC
100
AcDbEntity
  8
0
100
AcDbLine
 10
83.25
 20
-73.5
 30
0.0
 11
83.25
 21
-59.5
 31
0.0
  0
LINE
  5
FD
100
AcDbEntity
  8
0
100
AcDbLine
 10
102.25
 20
-73.5
 30
0.0
 11
116.25
 21
-73.5
 31
0.0
  0
LINE
  5
FE
100
AcDbEntity
  8
0
100
AcDbLine
 10
116.25
 20
-73.5
 30
0.0
 11
116.25
 21
-59.5
 31
0.0
  0
LINE
  5
FF
100
AcDbEntity
  8
0
100
AcDbLine
 10
102.25
 20
-59.5
 30
0.0
 11
116.25
 21
-59.5
 31
0.0
  0
LINE
  5
100
100
AcDbEntity
  8
0
100
AcDbLine
 10
102.25
 20
-73.5
 30
0.0
 11
102.25
 21
-59.5
 31
0.0
  0
LINE
  5
101
100
AcDbEntity
  8
0
100
AcDbLine
 10
121.25
 20
-73.5
 30
0.0
 11
135.25
 21
-73.5
 31
0.0
  0
LINE
  5
102
100
AcDbEntity
  8
0
100
AcDbLine
 10
135.25
 20
-73.5
 30
0.0
 11
135.25
 21
-59.5
 31
0.0
  0
LINE
  5
103
100
AcDbEntity
  8
0
100
AcDbLine
 10
121.25
 20
-59.5
 30
0.0
 11
135.25
 21
-59.5
 31
0.0
  0
LINE
  5
104
100
AcDbEntity
  8
0
100
AcDbLine
 10
121.25
 20
-73.5
 30
0.0
 11
121.25
 21
-59.5
 31
0.0
  0
LINE
  5
105
100
AcDbEntity
  8
0
100
AcDbLine
 10
140.25
 20
-73.5
 30
0.0
 11
154.25
 21
-73.5
 31
0.0
  0
LINE
  5
106
100
AcDbEntity
  8
0
100
AcDbLine
 10
154.25
 20
-73.5
 30
0.0
 11
154.25
 21
-59.5
 31
0.0
  0
LINE
  5
107
100
AcDbEntity
  8
0
100
AcDbLine
 10
140.25
 20
-59.5
 30
0.0
 11
154.25
 21
-59.5
 31
0.0
  0
LINE
  5
108
100
AcDbEntity
  8
0
100
AcDbLine
 10
140.25
 20
-73.5
 30
0.0
 11
140.25
 21
-59.5
 31
0.0
  0
LINE
  5
109
100
AcDbEntity
  8
0
100
AcDbLine
 10
159.25
 20
-73.5
 30
0.0
 11
173.25
 21
-73.5
 31
0.0
  0
LINE
  5
10A
100
AcDbEntity
  8
0
100
AcDbLine
 10
173.25
 20
-73.5
 30
0.0
 11
173.25
 21
-59.5
 31
0.0
  0
LINE
  5
10B
100
AcDbEntity
  8
0
100
AcDbLine
 10
159.25
 20
-59.5
 30
0.0
 11
173.25
 21
-59.5
 31
0.0
  0
LINE
  5
10C
100
AcDbEntity
  8
0
100
AcDbLine
 10
159.25
 20
-73.5
 30
0.0
 11
159.25
 21
-59.5
 31
0.0
  0
LINE
  5
10D
100
AcDbEntity
  8
0
100
AcDbLine
 10
178.25
 20
-73.5
 30
0.0
 11
192.25
 21
-73.5
 31
0.0
  0
LINE
  5
10E
100
AcDbEntity
  8
0
100
AcDbLine
 10
192.25
 20
-73.5
 30
0.0
 11
192.25
 21
-59.5
 31
0.0
  0
LINE
  5
10F
100
AcDbEntity
  8
0
100
AcDbLine
 10
178.25
 20
-59.5
 30
0.0
 11
192.25
 21
-59.5
 31
0.0
  0
LINE
  5
110
100
AcDbEntity
  8
0
100
AcDbLine
 10
178.25
 20
-73.5
 30
0.0
 11
178.25
 21
-59.5
 31
0.0
  0
LINE
  5
111
100
AcDbEntity
  8
0
100
AcDbLine
 10
197.25
 20
-73.5
 30
0.0
 11
211.25
 21
-73.5
 31
0.0
  0
LINE
  5
112
100
AcDbEntity
  8
0
100
AcDbLine
 10
211.25
 20
-73.5
 30
0.0
 11
211.25
 21
-59.5
 31
0.0
  0
LINE
  5
113
100
AcDbEntity
  8
0
100
AcDbLine
 10
197.25
 20
-59.5
 30
0.0
 11
211.25
 21
-59.5
 31
0.0
  0
LINE
  5
114
100
AcDbEntity
  8
0
100
AcDbLine
 10
197.25
 20
-73.5
 30
0.0
 11
197.25
 21
-59.5
 31
0.0
  0
LINE
  5
115
100
AcDbEntity
  8
0
100
AcDbLine
 10
216.25
 20
-73.5
 30
0.0
 11
230.25
 21
-73.5
 31
0.0
  0
LINE
  5
116
100
AcDbEntity
  8
0
100
AcDbLine
 10
230.25
 20
-73.5
 30
0.0
 11
230.25
 21
-59.5
 31
0.0
  0
LINE
  5
117
100
AcDbEntity
  8
0
100
AcDbLine
 10
216.25
 20
-59.5
 30
0.0
 11
230.25
 21
-59.5
 31
0.0
  0
LINE
  5
118
100
AcDbEntity
  8
0
100
AcDbLine
 10
216.25
 20
-73.5
 30
0.0
 11
216.25
 21
-59.5
 31
0.0
  0
LINE
  5
119
100
AcDbEntity
  8
0
100
AcDbLine
 10
240.0
 20
-73.5
 30
0.0
 11
254.0
 21
-73.5
 31
0.0
  0
LINE
  5
11A
100
AcDbEntity
  8
0
100
AcDbLine
 10
254.0
 20
-73.5
 30
0.0
 11
254.0
 21
-59.5
 31
0.0
  0
LINE
  5
11B
100
AcDbEntity
  8
0
100
AcDbLine
 10
240.0
 20
-59.5
 30
0.0
 11
254.0
 21
-59.5
 31
0.0
  0
LINE
  5
11C
100
AcDbEntity
  8
0
100
AcDbLine
 10
240.0
 20
-73.5
 30
0.0
 11
240.0
 21
-59.5
 31
0.0
  0
LINE
  5
11D
100
AcDbEntity
  8
0
100
AcDbLine
 10
263.75
 20
-73.5
 30
0.0
 11
277.75
 21
-73.5
 31
0.0
  0
LINE
  5
11E
100
AcDbEntity
  8
0
100
AcDbLine
 10
277.75
 20
-73.5
 30
0.0
 11
277.75
 21
-59.5
 31
0.0
  0
LINE
  5
11F
100
AcDbEntity
  8
0
100
AcDbLine
 10
263.75
 20
-59.5
 30
0.0
 11
277.75
 21
-59.5
 31
0.0
  0
LINE
  5
120
100
AcDbEntity
  8
0
100
AcDbLine
 10
263.75
 20
-73.5
 30
0.0
 11
263.75
 21
-59.5
 31
0.0
  0
LINE
  5
121
100
AcDbEntity
  8
0
100
AcDbLine
 10
12.0
 20
-92.5
 30
0.0
 11
26.0
 21
-92.5
 31
0.0
  0
LINE
  5
122
100
AcDbEntity
  8
0
100
AcDbLine
 10
26.0
 20
-92.5
 30
0.0
 11
26.0
 21
-78.5
 31
0.0
  0
LINE
  5
123
100
AcDbEntity
  8
0
100
AcDbLine
 10
12.0
 20
-78.5
 30
0.0
 11
26.0
 21
-78.5
 31
0.0
  0
LINE
  5
124
100
AcDbEntity
  8
0
100
AcDbLine
 10
12.0
 20
-92.5
 30
0.0
 11
12.0
 21
-78.5
 31
0.0
  0
LINE
  5
125
100
AcDbEntity
  8
0
100
AcDbLine
 10
35.75
 20
-92.5
 30
0.0
 11
49.75
 21
-92.5
 31
0.0
  0
LINE
  5
126
100
AcDbEntity
  8
0
100
AcDbLine
 10
49.75
 20
-92.5
 30
0.0
 11
49.75
 21
-78.5
 31
0.0
  0
LINE
  5
127
100
AcDbEntity
  8
0
100
AcDbLine
 10
35.75
 20
-78.5
 30
0.0
 11
49.75
 21
-78.5
 31
0.0
  0
LINE
  5
128
100
AcDbEntity
  8
0
100
AcDbLine
 10
35.75
 20
-92.5
 30
0.0
 11
35.75
 21
-78.5
 31
0.0
  0
LINE
  5
129
100
AcDbEntity
  8
0
100
AcDbLine
 10
54.75
 20
-92.5
 30
0.0
 11
68.75
 21
-92.5
 31
0.0
  0
LINE
  5
12A
100
AcDbEntity
  8
0
100
AcDbLine
 10
68.75
 20
-92.5
 30
0.0
 11
68.75
 21
-78.5
 31
0.0
  0
LINE
  5
12B
100
AcDbEntity
  8
0
100
AcDbLine
 10
54.75
 20
-78.5
 30
0.0
 11
68.75
 21
-78.5
 31
0.0
  0
LINE
  5
12C
100
AcDbEntity
  8
0
100
AcDbLine
 10
54.75
 20
-92.5
 30
0.0
 11
54.75
 21
-78.5
 31
0.0
  0
LINE
  5
12D
100
AcDbEntity
  8
0
100
AcDbLine
 10
73.75
 20
-92.5
 30
0.0
 11
87.75
 21
-92.5
 31
0.0
  0
LINE
  5
12E
100
AcDbEntity
  8
0
100
AcDbLine
 10
87.75
 20
-92.5
 30
0.0
 11
87.75
 21
-78.5
 31
0.0
  0
LINE
  5
12F
100
AcDbEntity
  8
0
100
AcDbLine
 10
73.75
 20
-78.5
 30
0.0
 11
87.75
 21
-78.5
 31
0.0
  0
LINE
  5
130
100
AcDbEntity
  8
0
100
AcDbLine
 10
73.75
 20
-92.5
 30
0.0
 11
73.75
 21
-78.5
 31
0.0
  0
LINE
  5
131
100
AcDbEntity
  8
0
100
AcDbLine
 10
102.25
 20
-92.5
 30
0.0
 11
116.25
 21
-92.5
 31
0.0
  0
LINE
  5
132
100
AcDbEntity
  8
0
100
AcDbLine
 10
116.25
 20
-92.5
 30
0.0
 11
116.25
 21
-78.5
 31
0.0
  0
LINE
  5
133
100
AcDbEntity
  8
0
100
AcDbLine
 10
102.25
 20
-78.5
 30
0.0
 11
116.25
 21
-78.5
 31
0.0
  0
LINE
  5
134
100
AcDbEntity
  8
0
100
AcDbLine
 10
102.25
 20
-92.5
 30
0.0
 11
102.25
 21
-78.5
 31
0.0
  0
LINE
  5
135
100
AcDbEntity
  8
0
100
AcDbLine
 10
140.25
 20
-92.5
 30
0.0
 11
154.25
 21
-92.5
 31
0.0
  0
LINE
  5
136
100
AcDbEntity
  8
0
100
AcDbLine
 10
154.25
 20
-92.5
 30
0.0
 11
154.25
 21
-78.5
 31
0.0
  0
LINE
  5
137
100
AcDbEntity
  8
0
100
AcDbLine
 10
140.25
 20
-78.5
 30
0.0
 11
154.25
 21
-78.5
 31
0.0
  0
LINE
  5
138
100
AcDbEntity
  8
0
100
AcDbLine
 10
140.25
 20
-92.5
 30
0.0
 11
140.25
 21
-78.5
 31
0.0
  0
LINE
  5
139
100
AcDbEntity
  8
0
100
AcDbLine
 10
168.75
 20
-92.5
 30
0.0
 11
182.75
 21
-92.5
 31
0.0
  0
LINE
  5
13A
100
AcDbEntity
  8
0
100
AcDbLine
 10
182.75
 20
-92.5
 30
0.0
 11
182.75
 21
-78.5
 31
0.0
  0
LINE
  5
13B
100
AcDbEntity
  8
0
100
AcDbLine
 10
168.75
 20
-78.5
 30
0.0
 11
182.75
 21
-78.5
 31
0.0
  0
LINE
  5
13C
100
AcDbEntity
  8
0
100
AcDbLine
 10
168.75
 20
-92.5
 30
0.0
 11
168.75
 21
-78.5
 31
0.0
  0
LINE
  5
13D
100
AcDbEntity
  8
0
100
AcDbLine
 10
187.75
 20
-92.5
 30
0.0
 11
201.75
 21
-92.5
 31
0.0
  0
LINE
  5
13E
100
AcDbEntity
  8
0
100
AcDbLine
 10
201.75
 20
-92.5
 30
0.0
 11
201.75
 21
-78.5
 31
0.0
  0
LINE
  5
13F
100
AcDbEntity
  8
0
100
AcDbLine
 10
187.75
 20
-78.5
 30
0.0
 11
201.75
 21
-78.5
 31
0.0
  0
LINE
  5
140
100
AcDbEntity
  8
0
100
AcDbLine
 10
187.75
 20
-92.5
 30
0.0
 11
187.75
 21
-78.5
 31
0.0
  0
LINE
  5
141
100
AcDbEntity
  8
0
100
AcDbLine
 10
211.5
 20
-92.5
 30
0.0
 11
225.5
 21
-92.5
 31
0.0
  0
LINE
  5
142
100
AcDbEntity
  8
0
100
AcDbLine
 10
225.5
 20
-92.5
 30
0.0
 11
225.5
 21
-78.5
 31
0.0
  0
LINE
  5
143
100
AcDbEntity
  8
0
100
AcDbLine
 10
211.5
 20
-78.5
 30
0.0
 11
225.5
 21
-78.5
 31
0.0
  0
LINE
  5
144
100
AcDbEntity
  8
0
100
AcDbLine
 10
211.5
 20
-92.5
 30
0.0
 11
211.5
 21
-78.5
 31
0.0
  0
LINE
  5
145
100
AcDbEntity
  8
0
100
AcDbLine
 10
244.75
 20
-92.5
 30
0.0
 11
258.75
 21
-92.5
 31
0.0
  0
LINE
  5
146
100
AcDbEntity
  8
0
100
AcDbLine
 10
258.75
 20
-92.5
 30
0.0
 11
258.75
 21
-78.5
 31
0.0
  0
LINE
  5
147
100
AcDbEntity
  8
0
100
AcDbLine
 10
244.75
 20
-78.5
 30
0.0
 11
258.75
 21
-78.5
 31
0.0
  0
LINE
  5
148
100
AcDbEntity
  8
0
100
AcDbLine
 10
244.75
 20
-92.5
 30
0.0
 11
244.75
 21
-78.5
 31
0.0
  0
LINE
  5
149
100
AcDbEntity
  8
0
100
AcDbLine
 10
263.75
 20
-92.5
 30
0.0
 11
277.75
 21
-92.5
 31
0.0
  0
LINE
  5
14A
100
AcDbEntity
  8
0
100
AcDbLine
 10
277.75
 20
-92.5
 30
0.0
 11
277.75
 21
-78.5
 31
0.0
  0
LINE
  5
14B
100
AcDbEntity
  8
0
100
AcDbLine
 10
263.75
 20
-78.5
 30
0.0
 11
277.75
 21
-78.5
 31
0.0
  0
LINE
  5
14C
100
AcDbEntity
  8
0
100
AcDbLine
 10
263.75
 20
-92.5
 30
0.0
 11
263.75
 21
-78.5
 31
0.0
  0
LINE
  5
14D
100
AcDbEntity
  8
0
100
AcDbLine
 10
282.75
 20
-92.5
 30
0.0
 11
296.75
 21
-92.5
 31
0.0
  0
LINE
  5
14E
100
AcDbEntity
  8
0
100
AcDbLine
 10
296.75
 20
-92.5
 30
0.0
 11
296.75
 21
-78.5
 31
0.0
  0
LINE
  5
14F
100
AcDbEntity
  8
0
100
AcDbLine
 10
282.75
 20
-78.5
 30
0.0
 11
296.75
 21
-78.5
 31
0.0
  0
LINE
  5
150
100
AcDbEntity
  8
0
100
AcDbLine
 10
282.75
 20
-92.5
 30
0.0
 11
282.75
 21
-78.5
 31
0.0
  0
ENDSEC
  0
SECTION
  2
OBJECTS
  0
ENDSEC
  0
EOF
