<?xml version="1.0" encoding="UTF-8" standalone="no"?>
<!DOCTYPE svg PUBLIC "-//W3C//DTD SVG 1.1//EN" "http://www.w3.org/Graphics/SVG/1.1/DTD/svg11.dtd">
<svg width="100%" height="100%" viewBox="0 0 281 281" version="1.1" xmlns="http://www.w3.org/2000/svg" xmlns:xlink="http://www.w3.org/1999/xlink" xml:space="preserve" xmlns:serif="http://www.serif.com/" style="fill-rule:evenodd;clip-rule:evenodd;stroke-linejoin:round;stroke-miterlimit:2;">
    <g transform="matrix(1,0,0,1,-282.994,-5630.35)">
        <g id="qmk-new-light" transform="matrix(0.632083,0,0,0.627831,411.538,4200.78)">
            <rect x="-203.366" y="2277" width="443" height="446" style="fill:none;"/>
            <g transform="matrix(1.58207,0,0,1.59279,-651.083,-6690.94)">
                <path d="M342,5738.86L321.5,5738.86C317.361,5738.86 314,5735.49 314,5731.36C314,5727.22 317.361,5723.86 321.5,5723.86L342,5723.86L342,5715.47C342,5700.78 353.924,5688.86 368.61,5688.86L376.567,5688.86L376.567,5668.86C376.567,5664.75 379.897,5661.42 384,5661.42C388.103,5661.42 391.433,5664.75 391.433,5668.86L391.433,5688.86L416.067,5688.86L416.067,5668.86C416.067,5664.75 419.397,5661.42 423.5,5661.42C427.603,5661.42 430.933,5664.75 430.933,5668.86L430.933,5688.86L454.567,5688.86L454.567,5668.86C454.567,5664.75 457.897,5661.42 462,5661.42C466.103,5661.42 469.433,5664.75 469.433,5668.86L469.433,5688.86L477.39,5688.86C492.076,5688.86 504,5700.78 504,5715.47L504,5723.86L524.5,5723.86C528.639,5723.86 532,5727.22 532,5731.36C532,5735.49 528.639,5738.86 524.5,5738.86L504,5738.86L504,5762.36L524.5,5762.36C528.639,5762.36 532,5765.72 532,5769.86C532,5773.99 528.639,5777.36 524.5,5777.36L504,5777.36L504,5801.86L524.5,5801.86C528.639,5801.86 532,5805.22 532,5809.36C532,5813.49 528.639,5816.86 524.5,5816.86L504,5816.86L504,5824.25C504,5838.93 492.076,5850.86 477.39,5850.86L469.5,5850.86L469.5,5871.86C469.5,5875.99 466.139,5879.36 462,5879.36C457.861,5879.36 454.5,5875.99 454.5,5871.86L454.5,5850.86L431,5850.86L431,5871.86C431,5875.99 427.639,5879.36 423.5,5879.36C419.361,5879.36 416,5875.99 416,5871.86L416,5850.86L391.5,5850.86L391.5,5871.86C391.5,5875.99 388.139,5879.36 384,5879.36C379.861,5879.36 376.5,5875.99 376.5,5871.86L376.5,5850.86L368.61,5850.86C353.924,5850.86 342,5838.93 342,5824.25L342,5816.86L321.5,5816.86C317.361,5816.86 314,5813.49 314,5809.36C314,5805.22 317.361,5801.86 321.5,5801.86L342,5801.86L342,5777.36L321.5,5777.36C317.361,5777.36 314,5773.99 314,5769.86C314,5765.72 317.361,5762.36 321.5,5762.36L342,5762.36L342,5738.86Z" style="fill:rgb(16,16,16);"/>
            </g>
            <g transform="matrix(1.58207,0,0,1.59279,-651.083,-6690.94)">
                <path d="M416.067,5800.49C402.166,5799.34 393.38,5795 387.738,5790.24C376.29,5780.57 376.567,5768.36 376.567,5768.36L376.567,5731.36C376.567,5727.25 379.897,5723.92 384,5723.92C388.103,5723.92 391.433,5727.25 391.433,5731.36L391.433,5768.36C391.434,5768.36 391.712,5774.14 397.326,5778.88C401.148,5782.1 407.068,5784.67 416.067,5785.57L416.067,5731.36C416.067,5727.25 419.397,5723.92 423.5,5723.92C427.603,5723.92 430.933,5727.25 430.933,5731.36L430.933,5785.55C439.5,5784.63 445.157,5782.11 448.818,5778.94C454.317,5774.18 454.567,5768.36 454.567,5768.36L454.567,5731.36C454.567,5727.25 457.897,5723.92 462,5723.92C466.103,5723.92 469.433,5727.25 469.433,5731.36L469.433,5768.36C469.433,5768.36 469.685,5780.53 458.55,5790.18C453.039,5794.95 444.473,5799.3 430.933,5800.48L430.933,5809.36C430.933,5813.46 427.603,5816.79 423.5,5816.79C419.397,5816.79 416.067,5813.46 416.067,5809.36L416.067,5800.49Z" style="fill:white;"/>
            </g>
        </g>
    </g>
</svg>
