G04 #@! TF.GenerationSoftware,KiCad,Pcbnew,(5.1.4)-1*
G04 #@! TF.CreationDate,2020-10-21T19:16:38-05:00*
G04 #@! TF.ProjectId,Alpha,416c7068-612e-46b6-9963-61645f706362,rev?*
G04 #@! TF.SameCoordinates,Original*
G04 #@! TF.FileFunction,Legend,Top*
G04 #@! TF.FilePolarity,Positive*
%FSLAX46Y46*%
G04 Gerber Fmt 4.6, Leading zero omitted, Abs format (unit mm)*
G04 Created by KiCad (PCBNEW (5.1.4)-1) date 2020-10-21 19:16:38*
%MOMM*%
%LPD*%
G04 APERTURE LIST*
%ADD10C,0.150000*%
%ADD11C,0.120000*%
%ADD12R,1.702000X1.702000*%
%ADD13C,0.100000*%
%ADD14C,1.702000*%
%ADD15O,1.702000X1.702000*%
%ADD16O,1.902000X1.602000*%
%ADD17C,1.402000*%
%ADD18R,1.602000X1.402000*%
%ADD19C,1.802000*%
%ADD20C,4.102000*%
%ADD21C,2.302000*%
%ADD22R,1.802000X1.802000*%
%ADD23O,1.802000X1.802000*%
%ADD24R,1.902000X1.902000*%
%ADD25C,1.902000*%
%ADD26C,3.152000*%
G04 APERTURE END LIST*
D10*
X244744761Y-74404523D02*
X242744761Y-74404523D01*
X244744761Y-73261666D01*
X242744761Y-73261666D01*
X242744761Y-71928333D02*
X242744761Y-71547380D01*
X242840000Y-71356904D01*
X243030476Y-71166428D01*
X243411428Y-71071190D01*
X244078095Y-71071190D01*
X244459047Y-71166428D01*
X244649523Y-71356904D01*
X244744761Y-71547380D01*
X244744761Y-71928333D01*
X244649523Y-72118809D01*
X244459047Y-72309285D01*
X244078095Y-72404523D01*
X243411428Y-72404523D01*
X243030476Y-72309285D01*
X242840000Y-72118809D01*
X242744761Y-71928333D01*
X244649523Y-70309285D02*
X244744761Y-70023571D01*
X244744761Y-69547380D01*
X244649523Y-69356904D01*
X244554285Y-69261666D01*
X244363809Y-69166428D01*
X244173333Y-69166428D01*
X243982857Y-69261666D01*
X243887619Y-69356904D01*
X243792380Y-69547380D01*
X243697142Y-69928333D01*
X243601904Y-70118809D01*
X243506666Y-70214047D01*
X243316190Y-70309285D01*
X243125714Y-70309285D01*
X242935238Y-70214047D01*
X242840000Y-70118809D01*
X242744761Y-69928333D01*
X242744761Y-69452142D01*
X242840000Y-69166428D01*
X242744761Y-68595000D02*
X242744761Y-67452142D01*
X244744761Y-68023571D02*
X242744761Y-68023571D01*
X244744761Y-65642619D02*
X243792380Y-66309285D01*
X244744761Y-66785476D02*
X242744761Y-66785476D01*
X242744761Y-66023571D01*
X242840000Y-65833095D01*
X242935238Y-65737857D01*
X243125714Y-65642619D01*
X243411428Y-65642619D01*
X243601904Y-65737857D01*
X243697142Y-65833095D01*
X243792380Y-66023571D01*
X243792380Y-66785476D01*
X242744761Y-64404523D02*
X242744761Y-64023571D01*
X242840000Y-63833095D01*
X243030476Y-63642619D01*
X243411428Y-63547380D01*
X244078095Y-63547380D01*
X244459047Y-63642619D01*
X244649523Y-63833095D01*
X244744761Y-64023571D01*
X244744761Y-64404523D01*
X244649523Y-64595000D01*
X244459047Y-64785476D01*
X244078095Y-64880714D01*
X243411428Y-64880714D01*
X243030476Y-64785476D01*
X242840000Y-64595000D01*
X242744761Y-64404523D01*
X244744761Y-62690238D02*
X242744761Y-62690238D01*
X244173333Y-62023571D01*
X242744761Y-61356904D01*
X244744761Y-61356904D01*
X242744761Y-60023571D02*
X242744761Y-59642619D01*
X242840000Y-59452142D01*
X243030476Y-59261666D01*
X243411428Y-59166428D01*
X244078095Y-59166428D01*
X244459047Y-59261666D01*
X244649523Y-59452142D01*
X244744761Y-59642619D01*
X244744761Y-60023571D01*
X244649523Y-60214047D01*
X244459047Y-60404523D01*
X244078095Y-60499761D01*
X243411428Y-60499761D01*
X243030476Y-60404523D01*
X242840000Y-60214047D01*
X242744761Y-60023571D01*
X242744761Y-57071190D02*
X244744761Y-56404523D01*
X242744761Y-55737857D01*
X243982857Y-55071190D02*
X243982857Y-53547380D01*
X242744761Y-52214047D02*
X242744761Y-52023571D01*
X242840000Y-51833095D01*
X242935238Y-51737857D01*
X243125714Y-51642619D01*
X243506666Y-51547380D01*
X243982857Y-51547380D01*
X244363809Y-51642619D01*
X244554285Y-51737857D01*
X244649523Y-51833095D01*
X244744761Y-52023571D01*
X244744761Y-52214047D01*
X244649523Y-52404523D01*
X244554285Y-52499761D01*
X244363809Y-52595000D01*
X243982857Y-52690238D01*
X243506666Y-52690238D01*
X243125714Y-52595000D01*
X242935238Y-52499761D01*
X242840000Y-52404523D01*
X242744761Y-52214047D01*
X244554285Y-50690238D02*
X244649523Y-50595000D01*
X244744761Y-50690238D01*
X244649523Y-50785476D01*
X244554285Y-50690238D01*
X244744761Y-50690238D01*
X244744761Y-48690238D02*
X244744761Y-49833095D01*
X244744761Y-49261666D02*
X242744761Y-49261666D01*
X243030476Y-49452142D01*
X243220952Y-49642619D01*
X243316190Y-49833095D01*
X224242380Y-94635952D02*
X225051904Y-94635952D01*
X225147142Y-94588333D01*
X225194761Y-94540714D01*
X225242380Y-94445476D01*
X225242380Y-94255000D01*
X225194761Y-94159761D01*
X225147142Y-94112142D01*
X225051904Y-94064523D01*
X224242380Y-94064523D01*
X224575714Y-93588333D02*
X225242380Y-93588333D01*
X224670952Y-93588333D02*
X224623333Y-93540714D01*
X224575714Y-93445476D01*
X224575714Y-93302619D01*
X224623333Y-93207380D01*
X224718571Y-93159761D01*
X225242380Y-93159761D01*
X225194761Y-92255000D02*
X225242380Y-92350238D01*
X225242380Y-92540714D01*
X225194761Y-92635952D01*
X225147142Y-92683571D01*
X225051904Y-92731190D01*
X224766190Y-92731190D01*
X224670952Y-92683571D01*
X224623333Y-92635952D01*
X224575714Y-92540714D01*
X224575714Y-92350238D01*
X224623333Y-92255000D01*
X225242380Y-91683571D02*
X225194761Y-91778809D01*
X225099523Y-91826428D01*
X224242380Y-91826428D01*
X225242380Y-91159761D02*
X225194761Y-91255000D01*
X225147142Y-91302619D01*
X225051904Y-91350238D01*
X224766190Y-91350238D01*
X224670952Y-91302619D01*
X224623333Y-91255000D01*
X224575714Y-91159761D01*
X224575714Y-91016904D01*
X224623333Y-90921666D01*
X224670952Y-90874047D01*
X224766190Y-90826428D01*
X225051904Y-90826428D01*
X225147142Y-90874047D01*
X225194761Y-90921666D01*
X225242380Y-91016904D01*
X225242380Y-91159761D01*
X224575714Y-89969285D02*
X225242380Y-89969285D01*
X224575714Y-90397857D02*
X225099523Y-90397857D01*
X225194761Y-90350238D01*
X225242380Y-90255000D01*
X225242380Y-90112142D01*
X225194761Y-90016904D01*
X225147142Y-89969285D01*
X225242380Y-89064523D02*
X224242380Y-89064523D01*
X225194761Y-89064523D02*
X225242380Y-89159761D01*
X225242380Y-89350238D01*
X225194761Y-89445476D01*
X225147142Y-89493095D01*
X225051904Y-89540714D01*
X224766190Y-89540714D01*
X224670952Y-89493095D01*
X224623333Y-89445476D01*
X224575714Y-89350238D01*
X224575714Y-89159761D01*
X224623333Y-89064523D01*
X225194761Y-88207380D02*
X225242380Y-88302619D01*
X225242380Y-88493095D01*
X225194761Y-88588333D01*
X225099523Y-88635952D01*
X224718571Y-88635952D01*
X224623333Y-88588333D01*
X224575714Y-88493095D01*
X224575714Y-88302619D01*
X224623333Y-88207380D01*
X224718571Y-88159761D01*
X224813809Y-88159761D01*
X224909047Y-88635952D01*
X225242380Y-87302619D02*
X224242380Y-87302619D01*
X225194761Y-87302619D02*
X225242380Y-87397857D01*
X225242380Y-87588333D01*
X225194761Y-87683571D01*
X225147142Y-87731190D01*
X225051904Y-87778809D01*
X224766190Y-87778809D01*
X224670952Y-87731190D01*
X224623333Y-87683571D01*
X224575714Y-87588333D01*
X224575714Y-87397857D01*
X224623333Y-87302619D01*
X225242380Y-86064523D02*
X224242380Y-86064523D01*
X224623333Y-86064523D02*
X224575714Y-85969285D01*
X224575714Y-85778809D01*
X224623333Y-85683571D01*
X224670952Y-85635952D01*
X224766190Y-85588333D01*
X225051904Y-85588333D01*
X225147142Y-85635952D01*
X225194761Y-85683571D01*
X225242380Y-85778809D01*
X225242380Y-85969285D01*
X225194761Y-86064523D01*
X224575714Y-85255000D02*
X225242380Y-85016904D01*
X224575714Y-84778809D02*
X225242380Y-85016904D01*
X225480476Y-85112142D01*
X225528095Y-85159761D01*
X225575714Y-85255000D01*
X225194761Y-83207380D02*
X225242380Y-83302619D01*
X225242380Y-83493095D01*
X225194761Y-83588333D01*
X225147142Y-83635952D01*
X225051904Y-83683571D01*
X224766190Y-83683571D01*
X224670952Y-83635952D01*
X224623333Y-83588333D01*
X224575714Y-83493095D01*
X224575714Y-83302619D01*
X224623333Y-83207380D01*
X225242380Y-82635952D02*
X225194761Y-82731190D01*
X225147142Y-82778809D01*
X225051904Y-82826428D01*
X224766190Y-82826428D01*
X224670952Y-82778809D01*
X224623333Y-82731190D01*
X224575714Y-82635952D01*
X224575714Y-82493095D01*
X224623333Y-82397857D01*
X224670952Y-82350238D01*
X224766190Y-82302619D01*
X225051904Y-82302619D01*
X225147142Y-82350238D01*
X225194761Y-82397857D01*
X225242380Y-82493095D01*
X225242380Y-82635952D01*
X224575714Y-81874047D02*
X225242380Y-81874047D01*
X224670952Y-81874047D02*
X224623333Y-81826428D01*
X224575714Y-81731190D01*
X224575714Y-81588333D01*
X224623333Y-81493095D01*
X224718571Y-81445476D01*
X225242380Y-81445476D01*
X225194761Y-81016904D02*
X225242380Y-80921666D01*
X225242380Y-80731190D01*
X225194761Y-80635952D01*
X225099523Y-80588333D01*
X225051904Y-80588333D01*
X224956666Y-80635952D01*
X224909047Y-80731190D01*
X224909047Y-80874047D01*
X224861428Y-80969285D01*
X224766190Y-81016904D01*
X224718571Y-81016904D01*
X224623333Y-80969285D01*
X224575714Y-80874047D01*
X224575714Y-80731190D01*
X224623333Y-80635952D01*
X225194761Y-79731190D02*
X225242380Y-79826428D01*
X225242380Y-80016904D01*
X225194761Y-80112142D01*
X225147142Y-80159761D01*
X225051904Y-80207380D01*
X224766190Y-80207380D01*
X224670952Y-80159761D01*
X224623333Y-80112142D01*
X224575714Y-80016904D01*
X224575714Y-79826428D01*
X224623333Y-79731190D01*
X225242380Y-79302619D02*
X224575714Y-79302619D01*
X224242380Y-79302619D02*
X224290000Y-79350238D01*
X224337619Y-79302619D01*
X224290000Y-79255000D01*
X224242380Y-79302619D01*
X224337619Y-79302619D01*
X225194761Y-78445476D02*
X225242380Y-78540714D01*
X225242380Y-78731190D01*
X225194761Y-78826428D01*
X225099523Y-78874047D01*
X224718571Y-78874047D01*
X224623333Y-78826428D01*
X224575714Y-78731190D01*
X224575714Y-78540714D01*
X224623333Y-78445476D01*
X224718571Y-78397857D01*
X224813809Y-78397857D01*
X224909047Y-78874047D01*
X224575714Y-77969285D02*
X225242380Y-77969285D01*
X224670952Y-77969285D02*
X224623333Y-77921666D01*
X224575714Y-77826428D01*
X224575714Y-77683571D01*
X224623333Y-77588333D01*
X224718571Y-77540714D01*
X225242380Y-77540714D01*
X225194761Y-76635952D02*
X225242380Y-76731190D01*
X225242380Y-76921666D01*
X225194761Y-77016904D01*
X225147142Y-77064523D01*
X225051904Y-77112142D01*
X224766190Y-77112142D01*
X224670952Y-77064523D01*
X224623333Y-77016904D01*
X224575714Y-76921666D01*
X224575714Y-76731190D01*
X224623333Y-76635952D01*
X225194761Y-75826428D02*
X225242380Y-75921666D01*
X225242380Y-76112142D01*
X225194761Y-76207380D01*
X225099523Y-76255000D01*
X224718571Y-76255000D01*
X224623333Y-76207380D01*
X224575714Y-76112142D01*
X224575714Y-75921666D01*
X224623333Y-75826428D01*
X224718571Y-75778809D01*
X224813809Y-75778809D01*
X224909047Y-76255000D01*
X225194761Y-75302619D02*
X225242380Y-75302619D01*
X225337619Y-75350238D01*
X225385238Y-75397857D01*
X225242380Y-74112142D02*
X224575714Y-74112142D01*
X224766190Y-74112142D02*
X224670952Y-74064523D01*
X224623333Y-74016904D01*
X224575714Y-73921666D01*
X224575714Y-73826428D01*
X225194761Y-73112142D02*
X225242380Y-73207380D01*
X225242380Y-73397857D01*
X225194761Y-73493095D01*
X225099523Y-73540714D01*
X224718571Y-73540714D01*
X224623333Y-73493095D01*
X224575714Y-73397857D01*
X224575714Y-73207380D01*
X224623333Y-73112142D01*
X224718571Y-73064523D01*
X224813809Y-73064523D01*
X224909047Y-73540714D01*
X225242380Y-72635952D02*
X224575714Y-72635952D01*
X224670952Y-72635952D02*
X224623333Y-72588333D01*
X224575714Y-72493095D01*
X224575714Y-72350238D01*
X224623333Y-72255000D01*
X224718571Y-72207380D01*
X225242380Y-72207380D01*
X224718571Y-72207380D02*
X224623333Y-72159761D01*
X224575714Y-72064523D01*
X224575714Y-71921666D01*
X224623333Y-71826428D01*
X224718571Y-71778809D01*
X225242380Y-71778809D01*
X225242380Y-71159761D02*
X225194761Y-71255000D01*
X225147142Y-71302619D01*
X225051904Y-71350238D01*
X224766190Y-71350238D01*
X224670952Y-71302619D01*
X224623333Y-71255000D01*
X224575714Y-71159761D01*
X224575714Y-71016904D01*
X224623333Y-70921666D01*
X224670952Y-70874047D01*
X224766190Y-70826428D01*
X225051904Y-70826428D01*
X225147142Y-70874047D01*
X225194761Y-70921666D01*
X225242380Y-71016904D01*
X225242380Y-71159761D01*
X225242380Y-70397857D02*
X224575714Y-70397857D01*
X224766190Y-70397857D02*
X224670952Y-70350238D01*
X224623333Y-70302619D01*
X224575714Y-70207380D01*
X224575714Y-70112142D01*
X225194761Y-69826428D02*
X225242380Y-69731190D01*
X225242380Y-69540714D01*
X225194761Y-69445476D01*
X225099523Y-69397857D01*
X225051904Y-69397857D01*
X224956666Y-69445476D01*
X224909047Y-69540714D01*
X224909047Y-69683571D01*
X224861428Y-69778809D01*
X224766190Y-69826428D01*
X224718571Y-69826428D01*
X224623333Y-69778809D01*
X224575714Y-69683571D01*
X224575714Y-69540714D01*
X224623333Y-69445476D01*
X225194761Y-68588333D02*
X225242380Y-68683571D01*
X225242380Y-68874047D01*
X225194761Y-68969285D01*
X225099523Y-69016904D01*
X224718571Y-69016904D01*
X224623333Y-68969285D01*
X224575714Y-68874047D01*
X224575714Y-68683571D01*
X224623333Y-68588333D01*
X224718571Y-68540714D01*
X224813809Y-68540714D01*
X224909047Y-69016904D01*
X225194761Y-68064523D02*
X225242380Y-68064523D01*
X225337619Y-68112142D01*
X225385238Y-68159761D01*
X225242380Y-66731190D02*
X225194761Y-66826428D01*
X225147142Y-66874047D01*
X225051904Y-66921666D01*
X224766190Y-66921666D01*
X224670952Y-66874047D01*
X224623333Y-66826428D01*
X224575714Y-66731190D01*
X224575714Y-66588333D01*
X224623333Y-66493095D01*
X224670952Y-66445476D01*
X224766190Y-66397857D01*
X225051904Y-66397857D01*
X225147142Y-66445476D01*
X225194761Y-66493095D01*
X225242380Y-66588333D01*
X225242380Y-66731190D01*
X225242380Y-65969285D02*
X224575714Y-65969285D01*
X224766190Y-65969285D02*
X224670952Y-65921666D01*
X224623333Y-65874047D01*
X224575714Y-65778809D01*
X224575714Y-65683571D01*
X225242380Y-64159761D02*
X224242380Y-64159761D01*
X225194761Y-64159761D02*
X225242380Y-64255000D01*
X225242380Y-64445476D01*
X225194761Y-64540714D01*
X225147142Y-64588333D01*
X225051904Y-64635952D01*
X224766190Y-64635952D01*
X224670952Y-64588333D01*
X224623333Y-64540714D01*
X224575714Y-64445476D01*
X224575714Y-64255000D01*
X224623333Y-64159761D01*
X225194761Y-63302619D02*
X225242380Y-63397857D01*
X225242380Y-63588333D01*
X225194761Y-63683571D01*
X225099523Y-63731190D01*
X224718571Y-63731190D01*
X224623333Y-63683571D01*
X224575714Y-63588333D01*
X224575714Y-63397857D01*
X224623333Y-63302619D01*
X224718571Y-63255000D01*
X224813809Y-63255000D01*
X224909047Y-63731190D01*
X225242380Y-62683571D02*
X225194761Y-62778809D01*
X225099523Y-62826428D01*
X224242380Y-62826428D01*
X224575714Y-61874047D02*
X225242380Y-61874047D01*
X224575714Y-62302619D02*
X225099523Y-62302619D01*
X225194761Y-62255000D01*
X225242380Y-62159761D01*
X225242380Y-62016904D01*
X225194761Y-61921666D01*
X225147142Y-61874047D01*
X225194761Y-61445476D02*
X225242380Y-61350238D01*
X225242380Y-61159761D01*
X225194761Y-61064523D01*
X225099523Y-61016904D01*
X225051904Y-61016904D01*
X224956666Y-61064523D01*
X224909047Y-61159761D01*
X224909047Y-61302619D01*
X224861428Y-61397857D01*
X224766190Y-61445476D01*
X224718571Y-61445476D01*
X224623333Y-61397857D01*
X224575714Y-61302619D01*
X224575714Y-61159761D01*
X224623333Y-61064523D01*
X225242380Y-60588333D02*
X224575714Y-60588333D01*
X224242380Y-60588333D02*
X224290000Y-60635952D01*
X224337619Y-60588333D01*
X224290000Y-60540714D01*
X224242380Y-60588333D01*
X224337619Y-60588333D01*
X225242380Y-59969285D02*
X225194761Y-60064523D01*
X225147142Y-60112142D01*
X225051904Y-60159761D01*
X224766190Y-60159761D01*
X224670952Y-60112142D01*
X224623333Y-60064523D01*
X224575714Y-59969285D01*
X224575714Y-59826428D01*
X224623333Y-59731190D01*
X224670952Y-59683571D01*
X224766190Y-59635952D01*
X225051904Y-59635952D01*
X225147142Y-59683571D01*
X225194761Y-59731190D01*
X225242380Y-59826428D01*
X225242380Y-59969285D01*
X224575714Y-59207380D02*
X225242380Y-59207380D01*
X224670952Y-59207380D02*
X224623333Y-59159761D01*
X224575714Y-59064523D01*
X224575714Y-58921666D01*
X224623333Y-58826428D01*
X224718571Y-58778809D01*
X225242380Y-58778809D01*
X225194761Y-58350238D02*
X225242380Y-58255000D01*
X225242380Y-58064523D01*
X225194761Y-57969285D01*
X225099523Y-57921666D01*
X225051904Y-57921666D01*
X224956666Y-57969285D01*
X224909047Y-58064523D01*
X224909047Y-58207380D01*
X224861428Y-58302619D01*
X224766190Y-58350238D01*
X224718571Y-58350238D01*
X224623333Y-58302619D01*
X224575714Y-58207380D01*
X224575714Y-58064523D01*
X224623333Y-57969285D01*
X225242380Y-56588333D02*
X225194761Y-56683571D01*
X225147142Y-56731190D01*
X225051904Y-56778809D01*
X224766190Y-56778809D01*
X224670952Y-56731190D01*
X224623333Y-56683571D01*
X224575714Y-56588333D01*
X224575714Y-56445476D01*
X224623333Y-56350238D01*
X224670952Y-56302619D01*
X224766190Y-56255000D01*
X225051904Y-56255000D01*
X225147142Y-56302619D01*
X225194761Y-56350238D01*
X225242380Y-56445476D01*
X225242380Y-56588333D01*
X224575714Y-55969285D02*
X224575714Y-55588333D01*
X225242380Y-55826428D02*
X224385238Y-55826428D01*
X224290000Y-55778809D01*
X224242380Y-55683571D01*
X224242380Y-55588333D01*
X225242380Y-54493095D02*
X224575714Y-54493095D01*
X224670952Y-54493095D02*
X224623333Y-54445476D01*
X224575714Y-54350238D01*
X224575714Y-54207380D01*
X224623333Y-54112142D01*
X224718571Y-54064523D01*
X225242380Y-54064523D01*
X224718571Y-54064523D02*
X224623333Y-54016904D01*
X224575714Y-53921666D01*
X224575714Y-53778809D01*
X224623333Y-53683571D01*
X224718571Y-53635952D01*
X225242380Y-53635952D01*
X225242380Y-53016904D02*
X225194761Y-53112142D01*
X225147142Y-53159761D01*
X225051904Y-53207380D01*
X224766190Y-53207380D01*
X224670952Y-53159761D01*
X224623333Y-53112142D01*
X224575714Y-53016904D01*
X224575714Y-52874047D01*
X224623333Y-52778809D01*
X224670952Y-52731190D01*
X224766190Y-52683571D01*
X225051904Y-52683571D01*
X225147142Y-52731190D01*
X225194761Y-52778809D01*
X225242380Y-52874047D01*
X225242380Y-53016904D01*
X225242380Y-52255000D02*
X224575714Y-52255000D01*
X224766190Y-52255000D02*
X224670952Y-52207380D01*
X224623333Y-52159761D01*
X224575714Y-52064523D01*
X224575714Y-51969285D01*
X225242380Y-51207380D02*
X224718571Y-51207380D01*
X224623333Y-51255000D01*
X224575714Y-51350238D01*
X224575714Y-51540714D01*
X224623333Y-51635952D01*
X225194761Y-51207380D02*
X225242380Y-51302619D01*
X225242380Y-51540714D01*
X225194761Y-51635952D01*
X225099523Y-51683571D01*
X225004285Y-51683571D01*
X224909047Y-51635952D01*
X224861428Y-51540714D01*
X224861428Y-51302619D01*
X224813809Y-51207380D01*
X225242380Y-50588333D02*
X225194761Y-50683571D01*
X225099523Y-50731190D01*
X224242380Y-50731190D01*
X225242380Y-50207380D02*
X224575714Y-50207380D01*
X224242380Y-50207380D02*
X224290000Y-50255000D01*
X224337619Y-50207380D01*
X224290000Y-50159761D01*
X224242380Y-50207380D01*
X224337619Y-50207380D01*
X224575714Y-49874047D02*
X224575714Y-49493095D01*
X224242380Y-49731190D02*
X225099523Y-49731190D01*
X225194761Y-49683571D01*
X225242380Y-49588333D01*
X225242380Y-49493095D01*
X224575714Y-49255000D02*
X225242380Y-49016904D01*
X224575714Y-48778809D02*
X225242380Y-49016904D01*
X225480476Y-49112142D01*
X225528095Y-49159761D01*
X225575714Y-49255000D01*
D11*
X74930000Y-100965000D02*
X74930000Y-97790000D01*
X88900000Y-86995000D02*
X88900000Y-90170000D01*
X85725000Y-86995000D02*
X88900000Y-86995000D01*
X88900000Y-100965000D02*
X88900000Y-97790000D01*
X74930000Y-86995000D02*
X78105000Y-86995000D01*
X85725000Y-100965000D02*
X88900000Y-100965000D01*
X74930000Y-100965000D02*
X78105000Y-100965000D01*
X74930000Y-86995000D02*
X74930000Y-90170000D01*
X93980000Y-100965000D02*
X93980000Y-97790000D01*
X107950000Y-86995000D02*
X107950000Y-90170000D01*
X104775000Y-86995000D02*
X107950000Y-86995000D01*
X107950000Y-100965000D02*
X107950000Y-97790000D01*
X93980000Y-86995000D02*
X97155000Y-86995000D01*
X104775000Y-100965000D02*
X107950000Y-100965000D01*
X93980000Y-100965000D02*
X97155000Y-100965000D01*
X93980000Y-86995000D02*
X93980000Y-90170000D01*
X132080000Y-120015000D02*
X132080000Y-116840000D01*
X146050000Y-106045000D02*
X146050000Y-109220000D01*
X142875000Y-106045000D02*
X146050000Y-106045000D01*
X146050000Y-120015000D02*
X146050000Y-116840000D01*
X132080000Y-106045000D02*
X135255000Y-106045000D01*
X142875000Y-120015000D02*
X146050000Y-120015000D01*
X132080000Y-120015000D02*
X135255000Y-120015000D01*
X132080000Y-106045000D02*
X132080000Y-109220000D01*
X55880000Y-81915000D02*
X55880000Y-78740000D01*
X69850000Y-67945000D02*
X69850000Y-71120000D01*
X66675000Y-67945000D02*
X69850000Y-67945000D01*
X69850000Y-81915000D02*
X69850000Y-78740000D01*
X55880000Y-67945000D02*
X59055000Y-67945000D01*
X66675000Y-81915000D02*
X69850000Y-81915000D01*
X55880000Y-81915000D02*
X59055000Y-81915000D01*
X55880000Y-67945000D02*
X55880000Y-71120000D01*
X167513000Y-139065000D02*
X166497000Y-139065000D01*
X168021000Y-139065000D02*
X168783000Y-139065000D01*
X167513000Y-138684000D02*
X168021000Y-139065000D01*
X167513000Y-139446000D02*
X167513000Y-138684000D01*
X168021000Y-139065000D02*
X167513000Y-139446000D01*
X168021000Y-138684000D02*
X168021000Y-139446000D01*
X170180000Y-135890000D02*
X165227000Y-135890000D01*
X170180000Y-138430000D02*
X170180000Y-135890000D01*
X170180000Y-138430000D02*
X165227000Y-138430000D01*
X148463000Y-139065000D02*
X147447000Y-139065000D01*
X148971000Y-139065000D02*
X149733000Y-139065000D01*
X148463000Y-138684000D02*
X148971000Y-139065000D01*
X148463000Y-139446000D02*
X148463000Y-138684000D01*
X148971000Y-139065000D02*
X148463000Y-139446000D01*
X148971000Y-138684000D02*
X148971000Y-139446000D01*
X151130000Y-135890000D02*
X146177000Y-135890000D01*
X151130000Y-138430000D02*
X151130000Y-135890000D01*
X151130000Y-138430000D02*
X146177000Y-138430000D01*
X132080000Y-138430000D02*
X127127000Y-138430000D01*
X132080000Y-138430000D02*
X132080000Y-135890000D01*
X132080000Y-135890000D02*
X127127000Y-135890000D01*
X129921000Y-138684000D02*
X129921000Y-139446000D01*
X129921000Y-139065000D02*
X129413000Y-139446000D01*
X129413000Y-139446000D02*
X129413000Y-138684000D01*
X129413000Y-138684000D02*
X129921000Y-139065000D01*
X129921000Y-139065000D02*
X130683000Y-139065000D01*
X129413000Y-139065000D02*
X128397000Y-139065000D01*
X166370000Y-139065000D02*
X168910000Y-139065000D01*
X166370000Y-125095000D02*
X168910000Y-125095000D01*
X174625000Y-130810000D02*
X174625000Y-133350000D01*
X160655000Y-130810000D02*
X160655000Y-133350000D01*
X160655000Y-125095000D02*
X160655000Y-123825000D01*
X160655000Y-139065000D02*
X160655000Y-140335000D01*
X174625000Y-139065000D02*
X174625000Y-140335000D01*
X174625000Y-125095000D02*
X174625000Y-123825000D01*
X147320000Y-139065000D02*
X149860000Y-139065000D01*
X147320000Y-125095000D02*
X149860000Y-125095000D01*
X155575000Y-130810000D02*
X155575000Y-133350000D01*
X141605000Y-130810000D02*
X141605000Y-133350000D01*
X141605000Y-125095000D02*
X141605000Y-123825000D01*
X141605000Y-139065000D02*
X141605000Y-140335000D01*
X155575000Y-139065000D02*
X155575000Y-140335000D01*
X155575000Y-125095000D02*
X155575000Y-123825000D01*
X128270000Y-139065000D02*
X130810000Y-139065000D01*
X128270000Y-125095000D02*
X130810000Y-125095000D01*
X136525000Y-130810000D02*
X136525000Y-133350000D01*
X122555000Y-130810000D02*
X122555000Y-133350000D01*
X122555000Y-125095000D02*
X122555000Y-123825000D01*
X122555000Y-139065000D02*
X122555000Y-140335000D01*
X136525000Y-139065000D02*
X136525000Y-140335000D01*
X136525000Y-125095000D02*
X136525000Y-123825000D01*
X253238000Y-139065000D02*
X252222000Y-139065000D01*
X253746000Y-139065000D02*
X254508000Y-139065000D01*
X253238000Y-138684000D02*
X253746000Y-139065000D01*
X253238000Y-139446000D02*
X253238000Y-138684000D01*
X253746000Y-139065000D02*
X253238000Y-139446000D01*
X253746000Y-138684000D02*
X253746000Y-139446000D01*
X255905000Y-135890000D02*
X250952000Y-135890000D01*
X255905000Y-138430000D02*
X255905000Y-135890000D01*
X255905000Y-138430000D02*
X250952000Y-138430000D01*
X234188000Y-139065000D02*
X233172000Y-139065000D01*
X234696000Y-139065000D02*
X235458000Y-139065000D01*
X234188000Y-138684000D02*
X234696000Y-139065000D01*
X234188000Y-139446000D02*
X234188000Y-138684000D01*
X234696000Y-139065000D02*
X234188000Y-139446000D01*
X234696000Y-138684000D02*
X234696000Y-139446000D01*
X236855000Y-135890000D02*
X231902000Y-135890000D01*
X236855000Y-138430000D02*
X236855000Y-135890000D01*
X236855000Y-138430000D02*
X231902000Y-138430000D01*
X215138000Y-139065000D02*
X214122000Y-139065000D01*
X215646000Y-139065000D02*
X216408000Y-139065000D01*
X215138000Y-138684000D02*
X215646000Y-139065000D01*
X215138000Y-139446000D02*
X215138000Y-138684000D01*
X215646000Y-139065000D02*
X215138000Y-139446000D01*
X215646000Y-138684000D02*
X215646000Y-139446000D01*
X217805000Y-135890000D02*
X212852000Y-135890000D01*
X217805000Y-138430000D02*
X217805000Y-135890000D01*
X217805000Y-138430000D02*
X212852000Y-138430000D01*
X196088000Y-139065000D02*
X195072000Y-139065000D01*
X196596000Y-139065000D02*
X197358000Y-139065000D01*
X196088000Y-138684000D02*
X196596000Y-139065000D01*
X196088000Y-139446000D02*
X196088000Y-138684000D01*
X196596000Y-139065000D02*
X196088000Y-139446000D01*
X196596000Y-138684000D02*
X196596000Y-139446000D01*
X198755000Y-135890000D02*
X193802000Y-135890000D01*
X198755000Y-138430000D02*
X198755000Y-135890000D01*
X198755000Y-138430000D02*
X193802000Y-138430000D01*
X177038000Y-139065000D02*
X176022000Y-139065000D01*
X177546000Y-139065000D02*
X178308000Y-139065000D01*
X177038000Y-138684000D02*
X177546000Y-139065000D01*
X177038000Y-139446000D02*
X177038000Y-138684000D01*
X177546000Y-139065000D02*
X177038000Y-139446000D01*
X177546000Y-138684000D02*
X177546000Y-139446000D01*
X179705000Y-135890000D02*
X174752000Y-135890000D01*
X179705000Y-138430000D02*
X179705000Y-135890000D01*
X179705000Y-138430000D02*
X174752000Y-138430000D01*
X157988000Y-139065000D02*
X156972000Y-139065000D01*
X158496000Y-139065000D02*
X159258000Y-139065000D01*
X157988000Y-138684000D02*
X158496000Y-139065000D01*
X157988000Y-139446000D02*
X157988000Y-138684000D01*
X158496000Y-139065000D02*
X157988000Y-139446000D01*
X158496000Y-138684000D02*
X158496000Y-139446000D01*
X160655000Y-135890000D02*
X155702000Y-135890000D01*
X160655000Y-138430000D02*
X160655000Y-135890000D01*
X160655000Y-138430000D02*
X155702000Y-138430000D01*
X138938000Y-139065000D02*
X137922000Y-139065000D01*
X139446000Y-139065000D02*
X140208000Y-139065000D01*
X138938000Y-138684000D02*
X139446000Y-139065000D01*
X138938000Y-139446000D02*
X138938000Y-138684000D01*
X139446000Y-139065000D02*
X138938000Y-139446000D01*
X139446000Y-138684000D02*
X139446000Y-139446000D01*
X141605000Y-135890000D02*
X136652000Y-135890000D01*
X141605000Y-138430000D02*
X141605000Y-135890000D01*
X141605000Y-138430000D02*
X136652000Y-138430000D01*
X119888000Y-139065000D02*
X118872000Y-139065000D01*
X120396000Y-139065000D02*
X121158000Y-139065000D01*
X119888000Y-138684000D02*
X120396000Y-139065000D01*
X119888000Y-139446000D02*
X119888000Y-138684000D01*
X120396000Y-139065000D02*
X119888000Y-139446000D01*
X120396000Y-138684000D02*
X120396000Y-139446000D01*
X122555000Y-135890000D02*
X117602000Y-135890000D01*
X122555000Y-138430000D02*
X122555000Y-135890000D01*
X122555000Y-138430000D02*
X117602000Y-138430000D01*
X100838000Y-139065000D02*
X99822000Y-139065000D01*
X101346000Y-139065000D02*
X102108000Y-139065000D01*
X100838000Y-138684000D02*
X101346000Y-139065000D01*
X100838000Y-139446000D02*
X100838000Y-138684000D01*
X101346000Y-139065000D02*
X100838000Y-139446000D01*
X101346000Y-138684000D02*
X101346000Y-139446000D01*
X103505000Y-135890000D02*
X98552000Y-135890000D01*
X103505000Y-138430000D02*
X103505000Y-135890000D01*
X103505000Y-138430000D02*
X98552000Y-138430000D01*
X81788000Y-139065000D02*
X80772000Y-139065000D01*
X82296000Y-139065000D02*
X83058000Y-139065000D01*
X81788000Y-138684000D02*
X82296000Y-139065000D01*
X81788000Y-139446000D02*
X81788000Y-138684000D01*
X82296000Y-139065000D02*
X81788000Y-139446000D01*
X82296000Y-138684000D02*
X82296000Y-139446000D01*
X84455000Y-135890000D02*
X79502000Y-135890000D01*
X84455000Y-138430000D02*
X84455000Y-135890000D01*
X84455000Y-138430000D02*
X79502000Y-138430000D01*
X62738000Y-139065000D02*
X61722000Y-139065000D01*
X63246000Y-139065000D02*
X64008000Y-139065000D01*
X62738000Y-138684000D02*
X63246000Y-139065000D01*
X62738000Y-139446000D02*
X62738000Y-138684000D01*
X63246000Y-139065000D02*
X62738000Y-139446000D01*
X63246000Y-138684000D02*
X63246000Y-139446000D01*
X65405000Y-135890000D02*
X60452000Y-135890000D01*
X65405000Y-138430000D02*
X65405000Y-135890000D01*
X65405000Y-138430000D02*
X60452000Y-138430000D01*
X43688000Y-139065000D02*
X42672000Y-139065000D01*
X44196000Y-139065000D02*
X44958000Y-139065000D01*
X43688000Y-138684000D02*
X44196000Y-139065000D01*
X43688000Y-139446000D02*
X43688000Y-138684000D01*
X44196000Y-139065000D02*
X43688000Y-139446000D01*
X44196000Y-138684000D02*
X44196000Y-139446000D01*
X46355000Y-135890000D02*
X41402000Y-135890000D01*
X46355000Y-138430000D02*
X46355000Y-135890000D01*
X46355000Y-138430000D02*
X41402000Y-138430000D01*
X253238000Y-120015000D02*
X252222000Y-120015000D01*
X253746000Y-120015000D02*
X254508000Y-120015000D01*
X253238000Y-119634000D02*
X253746000Y-120015000D01*
X253238000Y-120396000D02*
X253238000Y-119634000D01*
X253746000Y-120015000D02*
X253238000Y-120396000D01*
X253746000Y-119634000D02*
X253746000Y-120396000D01*
X255905000Y-116840000D02*
X250952000Y-116840000D01*
X255905000Y-119380000D02*
X255905000Y-116840000D01*
X255905000Y-119380000D02*
X250952000Y-119380000D01*
X234188000Y-120015000D02*
X233172000Y-120015000D01*
X234696000Y-120015000D02*
X235458000Y-120015000D01*
X234188000Y-119634000D02*
X234696000Y-120015000D01*
X234188000Y-120396000D02*
X234188000Y-119634000D01*
X234696000Y-120015000D02*
X234188000Y-120396000D01*
X234696000Y-119634000D02*
X234696000Y-120396000D01*
X236855000Y-116840000D02*
X231902000Y-116840000D01*
X236855000Y-119380000D02*
X236855000Y-116840000D01*
X236855000Y-119380000D02*
X231902000Y-119380000D01*
X215138000Y-120015000D02*
X214122000Y-120015000D01*
X215646000Y-120015000D02*
X216408000Y-120015000D01*
X215138000Y-119634000D02*
X215646000Y-120015000D01*
X215138000Y-120396000D02*
X215138000Y-119634000D01*
X215646000Y-120015000D02*
X215138000Y-120396000D01*
X215646000Y-119634000D02*
X215646000Y-120396000D01*
X217805000Y-116840000D02*
X212852000Y-116840000D01*
X217805000Y-119380000D02*
X217805000Y-116840000D01*
X217805000Y-119380000D02*
X212852000Y-119380000D01*
X196088000Y-120015000D02*
X195072000Y-120015000D01*
X196596000Y-120015000D02*
X197358000Y-120015000D01*
X196088000Y-119634000D02*
X196596000Y-120015000D01*
X196088000Y-120396000D02*
X196088000Y-119634000D01*
X196596000Y-120015000D02*
X196088000Y-120396000D01*
X196596000Y-119634000D02*
X196596000Y-120396000D01*
X198755000Y-116840000D02*
X193802000Y-116840000D01*
X198755000Y-119380000D02*
X198755000Y-116840000D01*
X198755000Y-119380000D02*
X193802000Y-119380000D01*
X177038000Y-120015000D02*
X176022000Y-120015000D01*
X177546000Y-120015000D02*
X178308000Y-120015000D01*
X177038000Y-119634000D02*
X177546000Y-120015000D01*
X177038000Y-120396000D02*
X177038000Y-119634000D01*
X177546000Y-120015000D02*
X177038000Y-120396000D01*
X177546000Y-119634000D02*
X177546000Y-120396000D01*
X179705000Y-116840000D02*
X174752000Y-116840000D01*
X179705000Y-119380000D02*
X179705000Y-116840000D01*
X179705000Y-119380000D02*
X174752000Y-119380000D01*
X157988000Y-120015000D02*
X156972000Y-120015000D01*
X158496000Y-120015000D02*
X159258000Y-120015000D01*
X157988000Y-119634000D02*
X158496000Y-120015000D01*
X157988000Y-120396000D02*
X157988000Y-119634000D01*
X158496000Y-120015000D02*
X157988000Y-120396000D01*
X158496000Y-119634000D02*
X158496000Y-120396000D01*
X160655000Y-116840000D02*
X155702000Y-116840000D01*
X160655000Y-119380000D02*
X160655000Y-116840000D01*
X160655000Y-119380000D02*
X155702000Y-119380000D01*
X138938000Y-120015000D02*
X137922000Y-120015000D01*
X139446000Y-120015000D02*
X140208000Y-120015000D01*
X138938000Y-119634000D02*
X139446000Y-120015000D01*
X138938000Y-120396000D02*
X138938000Y-119634000D01*
X139446000Y-120015000D02*
X138938000Y-120396000D01*
X139446000Y-119634000D02*
X139446000Y-120396000D01*
X141605000Y-116840000D02*
X136652000Y-116840000D01*
X141605000Y-119380000D02*
X141605000Y-116840000D01*
X141605000Y-119380000D02*
X136652000Y-119380000D01*
X119888000Y-120015000D02*
X118872000Y-120015000D01*
X120396000Y-120015000D02*
X121158000Y-120015000D01*
X119888000Y-119634000D02*
X120396000Y-120015000D01*
X119888000Y-120396000D02*
X119888000Y-119634000D01*
X120396000Y-120015000D02*
X119888000Y-120396000D01*
X120396000Y-119634000D02*
X120396000Y-120396000D01*
X122555000Y-116840000D02*
X117602000Y-116840000D01*
X122555000Y-119380000D02*
X122555000Y-116840000D01*
X122555000Y-119380000D02*
X117602000Y-119380000D01*
X100838000Y-120015000D02*
X99822000Y-120015000D01*
X101346000Y-120015000D02*
X102108000Y-120015000D01*
X100838000Y-119634000D02*
X101346000Y-120015000D01*
X100838000Y-120396000D02*
X100838000Y-119634000D01*
X101346000Y-120015000D02*
X100838000Y-120396000D01*
X101346000Y-119634000D02*
X101346000Y-120396000D01*
X103505000Y-116840000D02*
X98552000Y-116840000D01*
X103505000Y-119380000D02*
X103505000Y-116840000D01*
X103505000Y-119380000D02*
X98552000Y-119380000D01*
X81788000Y-120015000D02*
X80772000Y-120015000D01*
X82296000Y-120015000D02*
X83058000Y-120015000D01*
X81788000Y-119634000D02*
X82296000Y-120015000D01*
X81788000Y-120396000D02*
X81788000Y-119634000D01*
X82296000Y-120015000D02*
X81788000Y-120396000D01*
X82296000Y-119634000D02*
X82296000Y-120396000D01*
X84455000Y-116840000D02*
X79502000Y-116840000D01*
X84455000Y-119380000D02*
X84455000Y-116840000D01*
X84455000Y-119380000D02*
X79502000Y-119380000D01*
X62738000Y-120015000D02*
X61722000Y-120015000D01*
X63246000Y-120015000D02*
X64008000Y-120015000D01*
X62738000Y-119634000D02*
X63246000Y-120015000D01*
X62738000Y-120396000D02*
X62738000Y-119634000D01*
X63246000Y-120015000D02*
X62738000Y-120396000D01*
X63246000Y-119634000D02*
X63246000Y-120396000D01*
X65405000Y-116840000D02*
X60452000Y-116840000D01*
X65405000Y-119380000D02*
X65405000Y-116840000D01*
X65405000Y-119380000D02*
X60452000Y-119380000D01*
X43688000Y-120015000D02*
X42672000Y-120015000D01*
X44196000Y-120015000D02*
X44958000Y-120015000D01*
X43688000Y-119634000D02*
X44196000Y-120015000D01*
X43688000Y-120396000D02*
X43688000Y-119634000D01*
X44196000Y-120015000D02*
X43688000Y-120396000D01*
X44196000Y-119634000D02*
X44196000Y-120396000D01*
X46355000Y-116840000D02*
X41402000Y-116840000D01*
X46355000Y-119380000D02*
X46355000Y-116840000D01*
X46355000Y-119380000D02*
X41402000Y-119380000D01*
X253238000Y-100965000D02*
X252222000Y-100965000D01*
X253746000Y-100965000D02*
X254508000Y-100965000D01*
X253238000Y-100584000D02*
X253746000Y-100965000D01*
X253238000Y-101346000D02*
X253238000Y-100584000D01*
X253746000Y-100965000D02*
X253238000Y-101346000D01*
X253746000Y-100584000D02*
X253746000Y-101346000D01*
X255905000Y-97790000D02*
X250952000Y-97790000D01*
X255905000Y-100330000D02*
X255905000Y-97790000D01*
X255905000Y-100330000D02*
X250952000Y-100330000D01*
X234188000Y-100965000D02*
X233172000Y-100965000D01*
X234696000Y-100965000D02*
X235458000Y-100965000D01*
X234188000Y-100584000D02*
X234696000Y-100965000D01*
X234188000Y-101346000D02*
X234188000Y-100584000D01*
X234696000Y-100965000D02*
X234188000Y-101346000D01*
X234696000Y-100584000D02*
X234696000Y-101346000D01*
X236855000Y-97790000D02*
X231902000Y-97790000D01*
X236855000Y-100330000D02*
X236855000Y-97790000D01*
X236855000Y-100330000D02*
X231902000Y-100330000D01*
X215138000Y-100965000D02*
X214122000Y-100965000D01*
X215646000Y-100965000D02*
X216408000Y-100965000D01*
X215138000Y-100584000D02*
X215646000Y-100965000D01*
X215138000Y-101346000D02*
X215138000Y-100584000D01*
X215646000Y-100965000D02*
X215138000Y-101346000D01*
X215646000Y-100584000D02*
X215646000Y-101346000D01*
X217805000Y-97790000D02*
X212852000Y-97790000D01*
X217805000Y-100330000D02*
X217805000Y-97790000D01*
X217805000Y-100330000D02*
X212852000Y-100330000D01*
X196088000Y-100965000D02*
X195072000Y-100965000D01*
X196596000Y-100965000D02*
X197358000Y-100965000D01*
X196088000Y-100584000D02*
X196596000Y-100965000D01*
X196088000Y-101346000D02*
X196088000Y-100584000D01*
X196596000Y-100965000D02*
X196088000Y-101346000D01*
X196596000Y-100584000D02*
X196596000Y-101346000D01*
X198755000Y-97790000D02*
X193802000Y-97790000D01*
X198755000Y-100330000D02*
X198755000Y-97790000D01*
X198755000Y-100330000D02*
X193802000Y-100330000D01*
X177038000Y-100965000D02*
X176022000Y-100965000D01*
X177546000Y-100965000D02*
X178308000Y-100965000D01*
X177038000Y-100584000D02*
X177546000Y-100965000D01*
X177038000Y-101346000D02*
X177038000Y-100584000D01*
X177546000Y-100965000D02*
X177038000Y-101346000D01*
X177546000Y-100584000D02*
X177546000Y-101346000D01*
X179705000Y-97790000D02*
X174752000Y-97790000D01*
X179705000Y-100330000D02*
X179705000Y-97790000D01*
X179705000Y-100330000D02*
X174752000Y-100330000D01*
X157988000Y-100965000D02*
X156972000Y-100965000D01*
X158496000Y-100965000D02*
X159258000Y-100965000D01*
X157988000Y-100584000D02*
X158496000Y-100965000D01*
X157988000Y-101346000D02*
X157988000Y-100584000D01*
X158496000Y-100965000D02*
X157988000Y-101346000D01*
X158496000Y-100584000D02*
X158496000Y-101346000D01*
X160655000Y-97790000D02*
X155702000Y-97790000D01*
X160655000Y-100330000D02*
X160655000Y-97790000D01*
X160655000Y-100330000D02*
X155702000Y-100330000D01*
X138938000Y-100965000D02*
X137922000Y-100965000D01*
X139446000Y-100965000D02*
X140208000Y-100965000D01*
X138938000Y-100584000D02*
X139446000Y-100965000D01*
X138938000Y-101346000D02*
X138938000Y-100584000D01*
X139446000Y-100965000D02*
X138938000Y-101346000D01*
X139446000Y-100584000D02*
X139446000Y-101346000D01*
X141605000Y-97790000D02*
X136652000Y-97790000D01*
X141605000Y-100330000D02*
X141605000Y-97790000D01*
X141605000Y-100330000D02*
X136652000Y-100330000D01*
X119888000Y-100965000D02*
X118872000Y-100965000D01*
X120396000Y-100965000D02*
X121158000Y-100965000D01*
X119888000Y-100584000D02*
X120396000Y-100965000D01*
X119888000Y-101346000D02*
X119888000Y-100584000D01*
X120396000Y-100965000D02*
X119888000Y-101346000D01*
X120396000Y-100584000D02*
X120396000Y-101346000D01*
X122555000Y-97790000D02*
X117602000Y-97790000D01*
X122555000Y-100330000D02*
X122555000Y-97790000D01*
X122555000Y-100330000D02*
X117602000Y-100330000D01*
X100838000Y-100965000D02*
X99822000Y-100965000D01*
X101346000Y-100965000D02*
X102108000Y-100965000D01*
X100838000Y-100584000D02*
X101346000Y-100965000D01*
X100838000Y-101346000D02*
X100838000Y-100584000D01*
X101346000Y-100965000D02*
X100838000Y-101346000D01*
X101346000Y-100584000D02*
X101346000Y-101346000D01*
X103505000Y-97790000D02*
X98552000Y-97790000D01*
X103505000Y-100330000D02*
X103505000Y-97790000D01*
X103505000Y-100330000D02*
X98552000Y-100330000D01*
X81788000Y-100965000D02*
X80772000Y-100965000D01*
X82296000Y-100965000D02*
X83058000Y-100965000D01*
X81788000Y-100584000D02*
X82296000Y-100965000D01*
X81788000Y-101346000D02*
X81788000Y-100584000D01*
X82296000Y-100965000D02*
X81788000Y-101346000D01*
X82296000Y-100584000D02*
X82296000Y-101346000D01*
X84455000Y-97790000D02*
X79502000Y-97790000D01*
X84455000Y-100330000D02*
X84455000Y-97790000D01*
X84455000Y-100330000D02*
X79502000Y-100330000D01*
X62738000Y-100965000D02*
X61722000Y-100965000D01*
X63246000Y-100965000D02*
X64008000Y-100965000D01*
X62738000Y-100584000D02*
X63246000Y-100965000D01*
X62738000Y-101346000D02*
X62738000Y-100584000D01*
X63246000Y-100965000D02*
X62738000Y-101346000D01*
X63246000Y-100584000D02*
X63246000Y-101346000D01*
X65405000Y-97790000D02*
X60452000Y-97790000D01*
X65405000Y-100330000D02*
X65405000Y-97790000D01*
X65405000Y-100330000D02*
X60452000Y-100330000D01*
X43688000Y-100965000D02*
X42672000Y-100965000D01*
X44196000Y-100965000D02*
X44958000Y-100965000D01*
X43688000Y-100584000D02*
X44196000Y-100965000D01*
X43688000Y-101346000D02*
X43688000Y-100584000D01*
X44196000Y-100965000D02*
X43688000Y-101346000D01*
X44196000Y-100584000D02*
X44196000Y-101346000D01*
X46355000Y-97790000D02*
X41402000Y-97790000D01*
X46355000Y-100330000D02*
X46355000Y-97790000D01*
X46355000Y-100330000D02*
X41402000Y-100330000D01*
X253238000Y-81915000D02*
X252222000Y-81915000D01*
X253746000Y-81915000D02*
X254508000Y-81915000D01*
X253238000Y-81534000D02*
X253746000Y-81915000D01*
X253238000Y-82296000D02*
X253238000Y-81534000D01*
X253746000Y-81915000D02*
X253238000Y-82296000D01*
X253746000Y-81534000D02*
X253746000Y-82296000D01*
X255905000Y-78740000D02*
X250952000Y-78740000D01*
X255905000Y-81280000D02*
X255905000Y-78740000D01*
X255905000Y-81280000D02*
X250952000Y-81280000D01*
X234188000Y-81915000D02*
X233172000Y-81915000D01*
X234696000Y-81915000D02*
X235458000Y-81915000D01*
X234188000Y-81534000D02*
X234696000Y-81915000D01*
X234188000Y-82296000D02*
X234188000Y-81534000D01*
X234696000Y-81915000D02*
X234188000Y-82296000D01*
X234696000Y-81534000D02*
X234696000Y-82296000D01*
X236855000Y-78740000D02*
X231902000Y-78740000D01*
X236855000Y-81280000D02*
X236855000Y-78740000D01*
X236855000Y-81280000D02*
X231902000Y-81280000D01*
X215138000Y-81915000D02*
X214122000Y-81915000D01*
X215646000Y-81915000D02*
X216408000Y-81915000D01*
X215138000Y-81534000D02*
X215646000Y-81915000D01*
X215138000Y-82296000D02*
X215138000Y-81534000D01*
X215646000Y-81915000D02*
X215138000Y-82296000D01*
X215646000Y-81534000D02*
X215646000Y-82296000D01*
X217805000Y-78740000D02*
X212852000Y-78740000D01*
X217805000Y-81280000D02*
X217805000Y-78740000D01*
X217805000Y-81280000D02*
X212852000Y-81280000D01*
X196088000Y-81915000D02*
X195072000Y-81915000D01*
X196596000Y-81915000D02*
X197358000Y-81915000D01*
X196088000Y-81534000D02*
X196596000Y-81915000D01*
X196088000Y-82296000D02*
X196088000Y-81534000D01*
X196596000Y-81915000D02*
X196088000Y-82296000D01*
X196596000Y-81534000D02*
X196596000Y-82296000D01*
X198755000Y-78740000D02*
X193802000Y-78740000D01*
X198755000Y-81280000D02*
X198755000Y-78740000D01*
X198755000Y-81280000D02*
X193802000Y-81280000D01*
X177038000Y-81915000D02*
X176022000Y-81915000D01*
X177546000Y-81915000D02*
X178308000Y-81915000D01*
X177038000Y-81534000D02*
X177546000Y-81915000D01*
X177038000Y-82296000D02*
X177038000Y-81534000D01*
X177546000Y-81915000D02*
X177038000Y-82296000D01*
X177546000Y-81534000D02*
X177546000Y-82296000D01*
X179705000Y-78740000D02*
X174752000Y-78740000D01*
X179705000Y-81280000D02*
X179705000Y-78740000D01*
X179705000Y-81280000D02*
X174752000Y-81280000D01*
X157988000Y-81915000D02*
X156972000Y-81915000D01*
X158496000Y-81915000D02*
X159258000Y-81915000D01*
X157988000Y-81534000D02*
X158496000Y-81915000D01*
X157988000Y-82296000D02*
X157988000Y-81534000D01*
X158496000Y-81915000D02*
X157988000Y-82296000D01*
X158496000Y-81534000D02*
X158496000Y-82296000D01*
X160655000Y-78740000D02*
X155702000Y-78740000D01*
X160655000Y-81280000D02*
X160655000Y-78740000D01*
X160655000Y-81280000D02*
X155702000Y-81280000D01*
X138938000Y-81915000D02*
X137922000Y-81915000D01*
X139446000Y-81915000D02*
X140208000Y-81915000D01*
X138938000Y-81534000D02*
X139446000Y-81915000D01*
X138938000Y-82296000D02*
X138938000Y-81534000D01*
X139446000Y-81915000D02*
X138938000Y-82296000D01*
X139446000Y-81534000D02*
X139446000Y-82296000D01*
X141605000Y-78740000D02*
X136652000Y-78740000D01*
X141605000Y-81280000D02*
X141605000Y-78740000D01*
X141605000Y-81280000D02*
X136652000Y-81280000D01*
X119888000Y-81915000D02*
X118872000Y-81915000D01*
X120396000Y-81915000D02*
X121158000Y-81915000D01*
X119888000Y-81534000D02*
X120396000Y-81915000D01*
X119888000Y-82296000D02*
X119888000Y-81534000D01*
X120396000Y-81915000D02*
X119888000Y-82296000D01*
X120396000Y-81534000D02*
X120396000Y-82296000D01*
X122555000Y-78740000D02*
X117602000Y-78740000D01*
X122555000Y-81280000D02*
X122555000Y-78740000D01*
X122555000Y-81280000D02*
X117602000Y-81280000D01*
X100838000Y-81915000D02*
X99822000Y-81915000D01*
X101346000Y-81915000D02*
X102108000Y-81915000D01*
X100838000Y-81534000D02*
X101346000Y-81915000D01*
X100838000Y-82296000D02*
X100838000Y-81534000D01*
X101346000Y-81915000D02*
X100838000Y-82296000D01*
X101346000Y-81534000D02*
X101346000Y-82296000D01*
X103505000Y-78740000D02*
X98552000Y-78740000D01*
X103505000Y-81280000D02*
X103505000Y-78740000D01*
X103505000Y-81280000D02*
X98552000Y-81280000D01*
X81788000Y-81915000D02*
X80772000Y-81915000D01*
X82296000Y-81915000D02*
X83058000Y-81915000D01*
X81788000Y-81534000D02*
X82296000Y-81915000D01*
X81788000Y-82296000D02*
X81788000Y-81534000D01*
X82296000Y-81915000D02*
X81788000Y-82296000D01*
X82296000Y-81534000D02*
X82296000Y-82296000D01*
X84455000Y-78740000D02*
X79502000Y-78740000D01*
X84455000Y-81280000D02*
X84455000Y-78740000D01*
X84455000Y-81280000D02*
X79502000Y-81280000D01*
X62738000Y-81915000D02*
X61722000Y-81915000D01*
X63246000Y-81915000D02*
X64008000Y-81915000D01*
X62738000Y-81534000D02*
X63246000Y-81915000D01*
X62738000Y-82296000D02*
X62738000Y-81534000D01*
X63246000Y-81915000D02*
X62738000Y-82296000D01*
X63246000Y-81534000D02*
X63246000Y-82296000D01*
X65405000Y-78740000D02*
X60452000Y-78740000D01*
X65405000Y-81280000D02*
X65405000Y-78740000D01*
X65405000Y-81280000D02*
X60452000Y-81280000D01*
X43688000Y-81915000D02*
X42672000Y-81915000D01*
X44196000Y-81915000D02*
X44958000Y-81915000D01*
X43688000Y-81534000D02*
X44196000Y-81915000D01*
X43688000Y-82296000D02*
X43688000Y-81534000D01*
X44196000Y-81915000D02*
X43688000Y-82296000D01*
X44196000Y-81534000D02*
X44196000Y-82296000D01*
X46355000Y-78740000D02*
X41402000Y-78740000D01*
X46355000Y-81280000D02*
X46355000Y-78740000D01*
X46355000Y-81280000D02*
X41402000Y-81280000D01*
X253238000Y-62865000D02*
X252222000Y-62865000D01*
X253746000Y-62865000D02*
X254508000Y-62865000D01*
X253238000Y-62484000D02*
X253746000Y-62865000D01*
X253238000Y-63246000D02*
X253238000Y-62484000D01*
X253746000Y-62865000D02*
X253238000Y-63246000D01*
X253746000Y-62484000D02*
X253746000Y-63246000D01*
X255905000Y-59690000D02*
X250952000Y-59690000D01*
X255905000Y-62230000D02*
X255905000Y-59690000D01*
X255905000Y-62230000D02*
X250952000Y-62230000D01*
X234188000Y-62865000D02*
X233172000Y-62865000D01*
X234696000Y-62865000D02*
X235458000Y-62865000D01*
X234188000Y-62484000D02*
X234696000Y-62865000D01*
X234188000Y-63246000D02*
X234188000Y-62484000D01*
X234696000Y-62865000D02*
X234188000Y-63246000D01*
X234696000Y-62484000D02*
X234696000Y-63246000D01*
X236855000Y-59690000D02*
X231902000Y-59690000D01*
X236855000Y-62230000D02*
X236855000Y-59690000D01*
X236855000Y-62230000D02*
X231902000Y-62230000D01*
X215138000Y-62865000D02*
X214122000Y-62865000D01*
X215646000Y-62865000D02*
X216408000Y-62865000D01*
X215138000Y-62484000D02*
X215646000Y-62865000D01*
X215138000Y-63246000D02*
X215138000Y-62484000D01*
X215646000Y-62865000D02*
X215138000Y-63246000D01*
X215646000Y-62484000D02*
X215646000Y-63246000D01*
X217805000Y-59690000D02*
X212852000Y-59690000D01*
X217805000Y-62230000D02*
X217805000Y-59690000D01*
X217805000Y-62230000D02*
X212852000Y-62230000D01*
X196088000Y-62865000D02*
X195072000Y-62865000D01*
X196596000Y-62865000D02*
X197358000Y-62865000D01*
X196088000Y-62484000D02*
X196596000Y-62865000D01*
X196088000Y-63246000D02*
X196088000Y-62484000D01*
X196596000Y-62865000D02*
X196088000Y-63246000D01*
X196596000Y-62484000D02*
X196596000Y-63246000D01*
X198755000Y-59690000D02*
X193802000Y-59690000D01*
X198755000Y-62230000D02*
X198755000Y-59690000D01*
X198755000Y-62230000D02*
X193802000Y-62230000D01*
X177038000Y-62865000D02*
X176022000Y-62865000D01*
X177546000Y-62865000D02*
X178308000Y-62865000D01*
X177038000Y-62484000D02*
X177546000Y-62865000D01*
X177038000Y-63246000D02*
X177038000Y-62484000D01*
X177546000Y-62865000D02*
X177038000Y-63246000D01*
X177546000Y-62484000D02*
X177546000Y-63246000D01*
X179705000Y-59690000D02*
X174752000Y-59690000D01*
X179705000Y-62230000D02*
X179705000Y-59690000D01*
X179705000Y-62230000D02*
X174752000Y-62230000D01*
X157988000Y-62865000D02*
X156972000Y-62865000D01*
X158496000Y-62865000D02*
X159258000Y-62865000D01*
X157988000Y-62484000D02*
X158496000Y-62865000D01*
X157988000Y-63246000D02*
X157988000Y-62484000D01*
X158496000Y-62865000D02*
X157988000Y-63246000D01*
X158496000Y-62484000D02*
X158496000Y-63246000D01*
X160655000Y-59690000D02*
X155702000Y-59690000D01*
X160655000Y-62230000D02*
X160655000Y-59690000D01*
X160655000Y-62230000D02*
X155702000Y-62230000D01*
X138938000Y-62865000D02*
X137922000Y-62865000D01*
X139446000Y-62865000D02*
X140208000Y-62865000D01*
X138938000Y-62484000D02*
X139446000Y-62865000D01*
X138938000Y-63246000D02*
X138938000Y-62484000D01*
X139446000Y-62865000D02*
X138938000Y-63246000D01*
X139446000Y-62484000D02*
X139446000Y-63246000D01*
X141605000Y-59690000D02*
X136652000Y-59690000D01*
X141605000Y-62230000D02*
X141605000Y-59690000D01*
X141605000Y-62230000D02*
X136652000Y-62230000D01*
X119888000Y-62865000D02*
X118872000Y-62865000D01*
X120396000Y-62865000D02*
X121158000Y-62865000D01*
X119888000Y-62484000D02*
X120396000Y-62865000D01*
X119888000Y-63246000D02*
X119888000Y-62484000D01*
X120396000Y-62865000D02*
X119888000Y-63246000D01*
X120396000Y-62484000D02*
X120396000Y-63246000D01*
X122555000Y-59690000D02*
X117602000Y-59690000D01*
X122555000Y-62230000D02*
X122555000Y-59690000D01*
X122555000Y-62230000D02*
X117602000Y-62230000D01*
X100838000Y-62865000D02*
X99822000Y-62865000D01*
X101346000Y-62865000D02*
X102108000Y-62865000D01*
X100838000Y-62484000D02*
X101346000Y-62865000D01*
X100838000Y-63246000D02*
X100838000Y-62484000D01*
X101346000Y-62865000D02*
X100838000Y-63246000D01*
X101346000Y-62484000D02*
X101346000Y-63246000D01*
X103505000Y-59690000D02*
X98552000Y-59690000D01*
X103505000Y-62230000D02*
X103505000Y-59690000D01*
X103505000Y-62230000D02*
X98552000Y-62230000D01*
X81788000Y-62865000D02*
X80772000Y-62865000D01*
X82296000Y-62865000D02*
X83058000Y-62865000D01*
X81788000Y-62484000D02*
X82296000Y-62865000D01*
X81788000Y-63246000D02*
X81788000Y-62484000D01*
X82296000Y-62865000D02*
X81788000Y-63246000D01*
X82296000Y-62484000D02*
X82296000Y-63246000D01*
X84455000Y-59690000D02*
X79502000Y-59690000D01*
X84455000Y-62230000D02*
X84455000Y-59690000D01*
X84455000Y-62230000D02*
X79502000Y-62230000D01*
X62738000Y-62865000D02*
X61722000Y-62865000D01*
X63246000Y-62865000D02*
X64008000Y-62865000D01*
X62738000Y-62484000D02*
X63246000Y-62865000D01*
X62738000Y-63246000D02*
X62738000Y-62484000D01*
X63246000Y-62865000D02*
X62738000Y-63246000D01*
X63246000Y-62484000D02*
X63246000Y-63246000D01*
X65405000Y-59690000D02*
X60452000Y-59690000D01*
X65405000Y-62230000D02*
X65405000Y-59690000D01*
X65405000Y-62230000D02*
X60452000Y-62230000D01*
X246380000Y-139065000D02*
X246380000Y-135890000D01*
X260350000Y-125095000D02*
X260350000Y-128270000D01*
X257175000Y-125095000D02*
X260350000Y-125095000D01*
X260350000Y-139065000D02*
X260350000Y-135890000D01*
X246380000Y-125095000D02*
X249555000Y-125095000D01*
X257175000Y-139065000D02*
X260350000Y-139065000D01*
X246380000Y-139065000D02*
X249555000Y-139065000D01*
X246380000Y-125095000D02*
X246380000Y-128270000D01*
X227330000Y-139065000D02*
X227330000Y-135890000D01*
X241300000Y-125095000D02*
X241300000Y-128270000D01*
X238125000Y-125095000D02*
X241300000Y-125095000D01*
X241300000Y-139065000D02*
X241300000Y-135890000D01*
X227330000Y-125095000D02*
X230505000Y-125095000D01*
X238125000Y-139065000D02*
X241300000Y-139065000D01*
X227330000Y-139065000D02*
X230505000Y-139065000D01*
X227330000Y-125095000D02*
X227330000Y-128270000D01*
X208280000Y-139065000D02*
X208280000Y-135890000D01*
X222250000Y-125095000D02*
X222250000Y-128270000D01*
X219075000Y-125095000D02*
X222250000Y-125095000D01*
X222250000Y-139065000D02*
X222250000Y-135890000D01*
X208280000Y-125095000D02*
X211455000Y-125095000D01*
X219075000Y-139065000D02*
X222250000Y-139065000D01*
X208280000Y-139065000D02*
X211455000Y-139065000D01*
X208280000Y-125095000D02*
X208280000Y-128270000D01*
X189230000Y-139065000D02*
X189230000Y-135890000D01*
X203200000Y-125095000D02*
X203200000Y-128270000D01*
X200025000Y-125095000D02*
X203200000Y-125095000D01*
X203200000Y-139065000D02*
X203200000Y-135890000D01*
X189230000Y-125095000D02*
X192405000Y-125095000D01*
X200025000Y-139065000D02*
X203200000Y-139065000D01*
X189230000Y-139065000D02*
X192405000Y-139065000D01*
X189230000Y-125095000D02*
X189230000Y-128270000D01*
X170180000Y-139065000D02*
X170180000Y-135890000D01*
X184150000Y-125095000D02*
X184150000Y-128270000D01*
X180975000Y-125095000D02*
X184150000Y-125095000D01*
X184150000Y-139065000D02*
X184150000Y-135890000D01*
X170180000Y-125095000D02*
X173355000Y-125095000D01*
X180975000Y-139065000D02*
X184150000Y-139065000D01*
X170180000Y-139065000D02*
X173355000Y-139065000D01*
X170180000Y-125095000D02*
X170180000Y-128270000D01*
X151130000Y-139065000D02*
X151130000Y-135890000D01*
X165100000Y-125095000D02*
X165100000Y-128270000D01*
X161925000Y-125095000D02*
X165100000Y-125095000D01*
X165100000Y-139065000D02*
X165100000Y-135890000D01*
X151130000Y-125095000D02*
X154305000Y-125095000D01*
X161925000Y-139065000D02*
X165100000Y-139065000D01*
X151130000Y-139065000D02*
X154305000Y-139065000D01*
X151130000Y-125095000D02*
X151130000Y-128270000D01*
X132080000Y-139065000D02*
X132080000Y-135890000D01*
X146050000Y-125095000D02*
X146050000Y-128270000D01*
X142875000Y-125095000D02*
X146050000Y-125095000D01*
X146050000Y-139065000D02*
X146050000Y-135890000D01*
X132080000Y-125095000D02*
X135255000Y-125095000D01*
X142875000Y-139065000D02*
X146050000Y-139065000D01*
X132080000Y-139065000D02*
X135255000Y-139065000D01*
X132080000Y-125095000D02*
X132080000Y-128270000D01*
X113030000Y-139065000D02*
X113030000Y-135890000D01*
X127000000Y-125095000D02*
X127000000Y-128270000D01*
X123825000Y-125095000D02*
X127000000Y-125095000D01*
X127000000Y-139065000D02*
X127000000Y-135890000D01*
X113030000Y-125095000D02*
X116205000Y-125095000D01*
X123825000Y-139065000D02*
X127000000Y-139065000D01*
X113030000Y-139065000D02*
X116205000Y-139065000D01*
X113030000Y-125095000D02*
X113030000Y-128270000D01*
X93980000Y-139065000D02*
X93980000Y-135890000D01*
X107950000Y-125095000D02*
X107950000Y-128270000D01*
X104775000Y-125095000D02*
X107950000Y-125095000D01*
X107950000Y-139065000D02*
X107950000Y-135890000D01*
X93980000Y-125095000D02*
X97155000Y-125095000D01*
X104775000Y-139065000D02*
X107950000Y-139065000D01*
X93980000Y-139065000D02*
X97155000Y-139065000D01*
X93980000Y-125095000D02*
X93980000Y-128270000D01*
X74930000Y-139065000D02*
X74930000Y-135890000D01*
X88900000Y-125095000D02*
X88900000Y-128270000D01*
X85725000Y-125095000D02*
X88900000Y-125095000D01*
X88900000Y-139065000D02*
X88900000Y-135890000D01*
X74930000Y-125095000D02*
X78105000Y-125095000D01*
X85725000Y-139065000D02*
X88900000Y-139065000D01*
X74930000Y-139065000D02*
X78105000Y-139065000D01*
X74930000Y-125095000D02*
X74930000Y-128270000D01*
X55880000Y-139065000D02*
X55880000Y-135890000D01*
X69850000Y-125095000D02*
X69850000Y-128270000D01*
X66675000Y-125095000D02*
X69850000Y-125095000D01*
X69850000Y-139065000D02*
X69850000Y-135890000D01*
X55880000Y-125095000D02*
X59055000Y-125095000D01*
X66675000Y-139065000D02*
X69850000Y-139065000D01*
X55880000Y-139065000D02*
X59055000Y-139065000D01*
X55880000Y-125095000D02*
X55880000Y-128270000D01*
X36830000Y-139065000D02*
X36830000Y-135890000D01*
X50800000Y-125095000D02*
X50800000Y-128270000D01*
X47625000Y-125095000D02*
X50800000Y-125095000D01*
X50800000Y-139065000D02*
X50800000Y-135890000D01*
X36830000Y-125095000D02*
X40005000Y-125095000D01*
X47625000Y-139065000D02*
X50800000Y-139065000D01*
X36830000Y-139065000D02*
X40005000Y-139065000D01*
X36830000Y-125095000D02*
X36830000Y-128270000D01*
X246380000Y-120015000D02*
X246380000Y-116840000D01*
X260350000Y-106045000D02*
X260350000Y-109220000D01*
X257175000Y-106045000D02*
X260350000Y-106045000D01*
X260350000Y-120015000D02*
X260350000Y-116840000D01*
X246380000Y-106045000D02*
X249555000Y-106045000D01*
X257175000Y-120015000D02*
X260350000Y-120015000D01*
X246380000Y-120015000D02*
X249555000Y-120015000D01*
X246380000Y-106045000D02*
X246380000Y-109220000D01*
X227330000Y-120015000D02*
X227330000Y-116840000D01*
X241300000Y-106045000D02*
X241300000Y-109220000D01*
X238125000Y-106045000D02*
X241300000Y-106045000D01*
X241300000Y-120015000D02*
X241300000Y-116840000D01*
X227330000Y-106045000D02*
X230505000Y-106045000D01*
X238125000Y-120015000D02*
X241300000Y-120015000D01*
X227330000Y-120015000D02*
X230505000Y-120015000D01*
X227330000Y-106045000D02*
X227330000Y-109220000D01*
X208280000Y-120015000D02*
X208280000Y-116840000D01*
X222250000Y-106045000D02*
X222250000Y-109220000D01*
X219075000Y-106045000D02*
X222250000Y-106045000D01*
X222250000Y-120015000D02*
X222250000Y-116840000D01*
X208280000Y-106045000D02*
X211455000Y-106045000D01*
X219075000Y-120015000D02*
X222250000Y-120015000D01*
X208280000Y-120015000D02*
X211455000Y-120015000D01*
X208280000Y-106045000D02*
X208280000Y-109220000D01*
X189230000Y-120015000D02*
X189230000Y-116840000D01*
X203200000Y-106045000D02*
X203200000Y-109220000D01*
X200025000Y-106045000D02*
X203200000Y-106045000D01*
X203200000Y-120015000D02*
X203200000Y-116840000D01*
X189230000Y-106045000D02*
X192405000Y-106045000D01*
X200025000Y-120015000D02*
X203200000Y-120015000D01*
X189230000Y-120015000D02*
X192405000Y-120015000D01*
X189230000Y-106045000D02*
X189230000Y-109220000D01*
X170180000Y-120015000D02*
X170180000Y-116840000D01*
X184150000Y-106045000D02*
X184150000Y-109220000D01*
X180975000Y-106045000D02*
X184150000Y-106045000D01*
X184150000Y-120015000D02*
X184150000Y-116840000D01*
X170180000Y-106045000D02*
X173355000Y-106045000D01*
X180975000Y-120015000D02*
X184150000Y-120015000D01*
X170180000Y-120015000D02*
X173355000Y-120015000D01*
X170180000Y-106045000D02*
X170180000Y-109220000D01*
X151130000Y-120015000D02*
X151130000Y-116840000D01*
X165100000Y-106045000D02*
X165100000Y-109220000D01*
X161925000Y-106045000D02*
X165100000Y-106045000D01*
X165100000Y-120015000D02*
X165100000Y-116840000D01*
X151130000Y-106045000D02*
X154305000Y-106045000D01*
X161925000Y-120015000D02*
X165100000Y-120015000D01*
X151130000Y-120015000D02*
X154305000Y-120015000D01*
X151130000Y-106045000D02*
X151130000Y-109220000D01*
X113030000Y-120015000D02*
X113030000Y-116840000D01*
X127000000Y-106045000D02*
X127000000Y-109220000D01*
X123825000Y-106045000D02*
X127000000Y-106045000D01*
X127000000Y-120015000D02*
X127000000Y-116840000D01*
X113030000Y-106045000D02*
X116205000Y-106045000D01*
X123825000Y-120015000D02*
X127000000Y-120015000D01*
X113030000Y-120015000D02*
X116205000Y-120015000D01*
X113030000Y-106045000D02*
X113030000Y-109220000D01*
X93980000Y-120015000D02*
X93980000Y-116840000D01*
X107950000Y-106045000D02*
X107950000Y-109220000D01*
X104775000Y-106045000D02*
X107950000Y-106045000D01*
X107950000Y-120015000D02*
X107950000Y-116840000D01*
X93980000Y-106045000D02*
X97155000Y-106045000D01*
X104775000Y-120015000D02*
X107950000Y-120015000D01*
X93980000Y-120015000D02*
X97155000Y-120015000D01*
X93980000Y-106045000D02*
X93980000Y-109220000D01*
X74930000Y-120015000D02*
X74930000Y-116840000D01*
X88900000Y-106045000D02*
X88900000Y-109220000D01*
X85725000Y-106045000D02*
X88900000Y-106045000D01*
X88900000Y-120015000D02*
X88900000Y-116840000D01*
X74930000Y-106045000D02*
X78105000Y-106045000D01*
X85725000Y-120015000D02*
X88900000Y-120015000D01*
X74930000Y-120015000D02*
X78105000Y-120015000D01*
X74930000Y-106045000D02*
X74930000Y-109220000D01*
X55880000Y-120015000D02*
X55880000Y-116840000D01*
X69850000Y-106045000D02*
X69850000Y-109220000D01*
X66675000Y-106045000D02*
X69850000Y-106045000D01*
X69850000Y-120015000D02*
X69850000Y-116840000D01*
X55880000Y-106045000D02*
X59055000Y-106045000D01*
X66675000Y-120015000D02*
X69850000Y-120015000D01*
X55880000Y-120015000D02*
X59055000Y-120015000D01*
X55880000Y-106045000D02*
X55880000Y-109220000D01*
X36830000Y-120015000D02*
X36830000Y-116840000D01*
X50800000Y-106045000D02*
X50800000Y-109220000D01*
X47625000Y-106045000D02*
X50800000Y-106045000D01*
X50800000Y-120015000D02*
X50800000Y-116840000D01*
X36830000Y-106045000D02*
X40005000Y-106045000D01*
X47625000Y-120015000D02*
X50800000Y-120015000D01*
X36830000Y-120015000D02*
X40005000Y-120015000D01*
X36830000Y-106045000D02*
X36830000Y-109220000D01*
X246380000Y-100965000D02*
X246380000Y-97790000D01*
X260350000Y-86995000D02*
X260350000Y-90170000D01*
X257175000Y-86995000D02*
X260350000Y-86995000D01*
X260350000Y-100965000D02*
X260350000Y-97790000D01*
X246380000Y-86995000D02*
X249555000Y-86995000D01*
X257175000Y-100965000D02*
X260350000Y-100965000D01*
X246380000Y-100965000D02*
X249555000Y-100965000D01*
X246380000Y-86995000D02*
X246380000Y-90170000D01*
X227330000Y-100965000D02*
X227330000Y-97790000D01*
X241300000Y-86995000D02*
X241300000Y-90170000D01*
X238125000Y-86995000D02*
X241300000Y-86995000D01*
X241300000Y-100965000D02*
X241300000Y-97790000D01*
X227330000Y-86995000D02*
X230505000Y-86995000D01*
X238125000Y-100965000D02*
X241300000Y-100965000D01*
X227330000Y-100965000D02*
X230505000Y-100965000D01*
X227330000Y-86995000D02*
X227330000Y-90170000D01*
X208280000Y-100965000D02*
X208280000Y-97790000D01*
X222250000Y-86995000D02*
X222250000Y-90170000D01*
X219075000Y-86995000D02*
X222250000Y-86995000D01*
X222250000Y-100965000D02*
X222250000Y-97790000D01*
X208280000Y-86995000D02*
X211455000Y-86995000D01*
X219075000Y-100965000D02*
X222250000Y-100965000D01*
X208280000Y-100965000D02*
X211455000Y-100965000D01*
X208280000Y-86995000D02*
X208280000Y-90170000D01*
X189230000Y-100965000D02*
X189230000Y-97790000D01*
X203200000Y-86995000D02*
X203200000Y-90170000D01*
X200025000Y-86995000D02*
X203200000Y-86995000D01*
X203200000Y-100965000D02*
X203200000Y-97790000D01*
X189230000Y-86995000D02*
X192405000Y-86995000D01*
X200025000Y-100965000D02*
X203200000Y-100965000D01*
X189230000Y-100965000D02*
X192405000Y-100965000D01*
X189230000Y-86995000D02*
X189230000Y-90170000D01*
X170180000Y-100965000D02*
X170180000Y-97790000D01*
X184150000Y-86995000D02*
X184150000Y-90170000D01*
X180975000Y-86995000D02*
X184150000Y-86995000D01*
X184150000Y-100965000D02*
X184150000Y-97790000D01*
X170180000Y-86995000D02*
X173355000Y-86995000D01*
X180975000Y-100965000D02*
X184150000Y-100965000D01*
X170180000Y-100965000D02*
X173355000Y-100965000D01*
X170180000Y-86995000D02*
X170180000Y-90170000D01*
X151130000Y-100965000D02*
X151130000Y-97790000D01*
X165100000Y-86995000D02*
X165100000Y-90170000D01*
X161925000Y-86995000D02*
X165100000Y-86995000D01*
X165100000Y-100965000D02*
X165100000Y-97790000D01*
X151130000Y-86995000D02*
X154305000Y-86995000D01*
X161925000Y-100965000D02*
X165100000Y-100965000D01*
X151130000Y-100965000D02*
X154305000Y-100965000D01*
X151130000Y-86995000D02*
X151130000Y-90170000D01*
X132080000Y-100965000D02*
X132080000Y-97790000D01*
X146050000Y-86995000D02*
X146050000Y-90170000D01*
X142875000Y-86995000D02*
X146050000Y-86995000D01*
X146050000Y-100965000D02*
X146050000Y-97790000D01*
X132080000Y-86995000D02*
X135255000Y-86995000D01*
X142875000Y-100965000D02*
X146050000Y-100965000D01*
X132080000Y-100965000D02*
X135255000Y-100965000D01*
X132080000Y-86995000D02*
X132080000Y-90170000D01*
X113030000Y-100965000D02*
X113030000Y-97790000D01*
X127000000Y-86995000D02*
X127000000Y-90170000D01*
X123825000Y-86995000D02*
X127000000Y-86995000D01*
X127000000Y-100965000D02*
X127000000Y-97790000D01*
X113030000Y-86995000D02*
X116205000Y-86995000D01*
X123825000Y-100965000D02*
X127000000Y-100965000D01*
X113030000Y-100965000D02*
X116205000Y-100965000D01*
X113030000Y-86995000D02*
X113030000Y-90170000D01*
X55880000Y-100965000D02*
X55880000Y-97790000D01*
X69850000Y-86995000D02*
X69850000Y-90170000D01*
X66675000Y-86995000D02*
X69850000Y-86995000D01*
X69850000Y-100965000D02*
X69850000Y-97790000D01*
X55880000Y-86995000D02*
X59055000Y-86995000D01*
X66675000Y-100965000D02*
X69850000Y-100965000D01*
X55880000Y-100965000D02*
X59055000Y-100965000D01*
X55880000Y-86995000D02*
X55880000Y-90170000D01*
X36830000Y-100965000D02*
X36830000Y-97790000D01*
X50800000Y-86995000D02*
X50800000Y-90170000D01*
X47625000Y-86995000D02*
X50800000Y-86995000D01*
X50800000Y-100965000D02*
X50800000Y-97790000D01*
X36830000Y-86995000D02*
X40005000Y-86995000D01*
X47625000Y-100965000D02*
X50800000Y-100965000D01*
X36830000Y-100965000D02*
X40005000Y-100965000D01*
X36830000Y-86995000D02*
X36830000Y-90170000D01*
X246380000Y-81915000D02*
X246380000Y-78740000D01*
X260350000Y-67945000D02*
X260350000Y-71120000D01*
X257175000Y-67945000D02*
X260350000Y-67945000D01*
X260350000Y-81915000D02*
X260350000Y-78740000D01*
X246380000Y-67945000D02*
X249555000Y-67945000D01*
X257175000Y-81915000D02*
X260350000Y-81915000D01*
X246380000Y-81915000D02*
X249555000Y-81915000D01*
X246380000Y-67945000D02*
X246380000Y-71120000D01*
X227330000Y-81915000D02*
X227330000Y-78740000D01*
X241300000Y-67945000D02*
X241300000Y-71120000D01*
X238125000Y-67945000D02*
X241300000Y-67945000D01*
X241300000Y-81915000D02*
X241300000Y-78740000D01*
X227330000Y-67945000D02*
X230505000Y-67945000D01*
X238125000Y-81915000D02*
X241300000Y-81915000D01*
X227330000Y-81915000D02*
X230505000Y-81915000D01*
X227330000Y-67945000D02*
X227330000Y-71120000D01*
X208280000Y-81915000D02*
X208280000Y-78740000D01*
X222250000Y-67945000D02*
X222250000Y-71120000D01*
X219075000Y-67945000D02*
X222250000Y-67945000D01*
X222250000Y-81915000D02*
X222250000Y-78740000D01*
X208280000Y-67945000D02*
X211455000Y-67945000D01*
X219075000Y-81915000D02*
X222250000Y-81915000D01*
X208280000Y-81915000D02*
X211455000Y-81915000D01*
X208280000Y-67945000D02*
X208280000Y-71120000D01*
X189230000Y-81915000D02*
X189230000Y-78740000D01*
X203200000Y-67945000D02*
X203200000Y-71120000D01*
X200025000Y-67945000D02*
X203200000Y-67945000D01*
X203200000Y-81915000D02*
X203200000Y-78740000D01*
X189230000Y-67945000D02*
X192405000Y-67945000D01*
X200025000Y-81915000D02*
X203200000Y-81915000D01*
X189230000Y-81915000D02*
X192405000Y-81915000D01*
X189230000Y-67945000D02*
X189230000Y-71120000D01*
X170180000Y-81915000D02*
X170180000Y-78740000D01*
X184150000Y-67945000D02*
X184150000Y-71120000D01*
X180975000Y-67945000D02*
X184150000Y-67945000D01*
X184150000Y-81915000D02*
X184150000Y-78740000D01*
X170180000Y-67945000D02*
X173355000Y-67945000D01*
X180975000Y-81915000D02*
X184150000Y-81915000D01*
X170180000Y-81915000D02*
X173355000Y-81915000D01*
X170180000Y-67945000D02*
X170180000Y-71120000D01*
X151130000Y-81915000D02*
X151130000Y-78740000D01*
X165100000Y-67945000D02*
X165100000Y-71120000D01*
X161925000Y-67945000D02*
X165100000Y-67945000D01*
X165100000Y-81915000D02*
X165100000Y-78740000D01*
X151130000Y-67945000D02*
X154305000Y-67945000D01*
X161925000Y-81915000D02*
X165100000Y-81915000D01*
X151130000Y-81915000D02*
X154305000Y-81915000D01*
X151130000Y-67945000D02*
X151130000Y-71120000D01*
X132080000Y-81915000D02*
X132080000Y-78740000D01*
X146050000Y-67945000D02*
X146050000Y-71120000D01*
X142875000Y-67945000D02*
X146050000Y-67945000D01*
X146050000Y-81915000D02*
X146050000Y-78740000D01*
X132080000Y-67945000D02*
X135255000Y-67945000D01*
X142875000Y-81915000D02*
X146050000Y-81915000D01*
X132080000Y-81915000D02*
X135255000Y-81915000D01*
X132080000Y-67945000D02*
X132080000Y-71120000D01*
X113030000Y-81915000D02*
X113030000Y-78740000D01*
X127000000Y-67945000D02*
X127000000Y-71120000D01*
X123825000Y-67945000D02*
X127000000Y-67945000D01*
X127000000Y-81915000D02*
X127000000Y-78740000D01*
X113030000Y-67945000D02*
X116205000Y-67945000D01*
X123825000Y-81915000D02*
X127000000Y-81915000D01*
X113030000Y-81915000D02*
X116205000Y-81915000D01*
X113030000Y-67945000D02*
X113030000Y-71120000D01*
X93980000Y-81915000D02*
X93980000Y-78740000D01*
X107950000Y-67945000D02*
X107950000Y-71120000D01*
X104775000Y-67945000D02*
X107950000Y-67945000D01*
X107950000Y-81915000D02*
X107950000Y-78740000D01*
X93980000Y-67945000D02*
X97155000Y-67945000D01*
X104775000Y-81915000D02*
X107950000Y-81915000D01*
X93980000Y-81915000D02*
X97155000Y-81915000D01*
X93980000Y-67945000D02*
X93980000Y-71120000D01*
X74930000Y-81915000D02*
X74930000Y-78740000D01*
X88900000Y-67945000D02*
X88900000Y-71120000D01*
X85725000Y-67945000D02*
X88900000Y-67945000D01*
X88900000Y-81915000D02*
X88900000Y-78740000D01*
X74930000Y-67945000D02*
X78105000Y-67945000D01*
X85725000Y-81915000D02*
X88900000Y-81915000D01*
X74930000Y-81915000D02*
X78105000Y-81915000D01*
X74930000Y-67945000D02*
X74930000Y-71120000D01*
X36830000Y-81915000D02*
X36830000Y-78740000D01*
X50800000Y-67945000D02*
X50800000Y-71120000D01*
X47625000Y-67945000D02*
X50800000Y-67945000D01*
X50800000Y-81915000D02*
X50800000Y-78740000D01*
X36830000Y-67945000D02*
X40005000Y-67945000D01*
X47625000Y-81915000D02*
X50800000Y-81915000D01*
X36830000Y-81915000D02*
X40005000Y-81915000D01*
X36830000Y-67945000D02*
X36830000Y-71120000D01*
X246380000Y-62865000D02*
X246380000Y-59690000D01*
X260350000Y-48895000D02*
X260350000Y-52070000D01*
X257175000Y-48895000D02*
X260350000Y-48895000D01*
X260350000Y-62865000D02*
X260350000Y-59690000D01*
X246380000Y-48895000D02*
X249555000Y-48895000D01*
X257175000Y-62865000D02*
X260350000Y-62865000D01*
X246380000Y-62865000D02*
X249555000Y-62865000D01*
X246380000Y-48895000D02*
X246380000Y-52070000D01*
X227330000Y-62865000D02*
X227330000Y-59690000D01*
X241300000Y-48895000D02*
X241300000Y-52070000D01*
X238125000Y-48895000D02*
X241300000Y-48895000D01*
X241300000Y-62865000D02*
X241300000Y-59690000D01*
X227330000Y-48895000D02*
X230505000Y-48895000D01*
X238125000Y-62865000D02*
X241300000Y-62865000D01*
X227330000Y-62865000D02*
X230505000Y-62865000D01*
X227330000Y-48895000D02*
X227330000Y-52070000D01*
X208280000Y-62865000D02*
X208280000Y-59690000D01*
X222250000Y-48895000D02*
X222250000Y-52070000D01*
X219075000Y-48895000D02*
X222250000Y-48895000D01*
X222250000Y-62865000D02*
X222250000Y-59690000D01*
X208280000Y-48895000D02*
X211455000Y-48895000D01*
X219075000Y-62865000D02*
X222250000Y-62865000D01*
X208280000Y-62865000D02*
X211455000Y-62865000D01*
X208280000Y-48895000D02*
X208280000Y-52070000D01*
X189230000Y-62865000D02*
X189230000Y-59690000D01*
X203200000Y-48895000D02*
X203200000Y-52070000D01*
X200025000Y-48895000D02*
X203200000Y-48895000D01*
X203200000Y-62865000D02*
X203200000Y-59690000D01*
X189230000Y-48895000D02*
X192405000Y-48895000D01*
X200025000Y-62865000D02*
X203200000Y-62865000D01*
X189230000Y-62865000D02*
X192405000Y-62865000D01*
X189230000Y-48895000D02*
X189230000Y-52070000D01*
X170180000Y-62865000D02*
X170180000Y-59690000D01*
X184150000Y-48895000D02*
X184150000Y-52070000D01*
X180975000Y-48895000D02*
X184150000Y-48895000D01*
X184150000Y-62865000D02*
X184150000Y-59690000D01*
X170180000Y-48895000D02*
X173355000Y-48895000D01*
X180975000Y-62865000D02*
X184150000Y-62865000D01*
X170180000Y-62865000D02*
X173355000Y-62865000D01*
X170180000Y-48895000D02*
X170180000Y-52070000D01*
X151130000Y-62865000D02*
X151130000Y-59690000D01*
X165100000Y-48895000D02*
X165100000Y-52070000D01*
X161925000Y-48895000D02*
X165100000Y-48895000D01*
X165100000Y-62865000D02*
X165100000Y-59690000D01*
X151130000Y-48895000D02*
X154305000Y-48895000D01*
X161925000Y-62865000D02*
X165100000Y-62865000D01*
X151130000Y-62865000D02*
X154305000Y-62865000D01*
X151130000Y-48895000D02*
X151130000Y-52070000D01*
X132080000Y-62865000D02*
X132080000Y-59690000D01*
X146050000Y-48895000D02*
X146050000Y-52070000D01*
X142875000Y-48895000D02*
X146050000Y-48895000D01*
X146050000Y-62865000D02*
X146050000Y-59690000D01*
X132080000Y-48895000D02*
X135255000Y-48895000D01*
X142875000Y-62865000D02*
X146050000Y-62865000D01*
X132080000Y-62865000D02*
X135255000Y-62865000D01*
X132080000Y-48895000D02*
X132080000Y-52070000D01*
X113030000Y-62865000D02*
X113030000Y-59690000D01*
X127000000Y-48895000D02*
X127000000Y-52070000D01*
X123825000Y-48895000D02*
X127000000Y-48895000D01*
X127000000Y-62865000D02*
X127000000Y-59690000D01*
X113030000Y-48895000D02*
X116205000Y-48895000D01*
X123825000Y-62865000D02*
X127000000Y-62865000D01*
X113030000Y-62865000D02*
X116205000Y-62865000D01*
X113030000Y-48895000D02*
X113030000Y-52070000D01*
X93980000Y-62865000D02*
X93980000Y-59690000D01*
X107950000Y-48895000D02*
X107950000Y-52070000D01*
X104775000Y-48895000D02*
X107950000Y-48895000D01*
X107950000Y-62865000D02*
X107950000Y-59690000D01*
X93980000Y-48895000D02*
X97155000Y-48895000D01*
X104775000Y-62865000D02*
X107950000Y-62865000D01*
X93980000Y-62865000D02*
X97155000Y-62865000D01*
X93980000Y-48895000D02*
X93980000Y-52070000D01*
X74930000Y-62865000D02*
X74930000Y-59690000D01*
X88900000Y-48895000D02*
X88900000Y-52070000D01*
X85725000Y-48895000D02*
X88900000Y-48895000D01*
X88900000Y-62865000D02*
X88900000Y-59690000D01*
X74930000Y-48895000D02*
X78105000Y-48895000D01*
X85725000Y-62865000D02*
X88900000Y-62865000D01*
X74930000Y-62865000D02*
X78105000Y-62865000D01*
X74930000Y-48895000D02*
X74930000Y-52070000D01*
X55880000Y-62865000D02*
X55880000Y-59690000D01*
X69850000Y-48895000D02*
X69850000Y-52070000D01*
X66675000Y-48895000D02*
X69850000Y-48895000D01*
X69850000Y-62865000D02*
X69850000Y-59690000D01*
X55880000Y-48895000D02*
X59055000Y-48895000D01*
X66675000Y-62865000D02*
X69850000Y-62865000D01*
X55880000Y-62865000D02*
X59055000Y-62865000D01*
X55880000Y-48895000D02*
X55880000Y-52070000D01*
X36830000Y-48895000D02*
X36830000Y-52070000D01*
X36830000Y-62865000D02*
X40005000Y-62865000D01*
X47625000Y-62865000D02*
X50800000Y-62865000D01*
X36830000Y-48895000D02*
X40005000Y-48895000D01*
X50800000Y-62865000D02*
X50800000Y-59690000D01*
X47625000Y-48895000D02*
X50800000Y-48895000D01*
X50800000Y-48895000D02*
X50800000Y-52070000D01*
X36830000Y-62865000D02*
X36830000Y-59690000D01*
X46355000Y-62230000D02*
X41402000Y-62230000D01*
X46355000Y-62230000D02*
X46355000Y-59690000D01*
X46355000Y-59690000D02*
X41402000Y-59690000D01*
X44196000Y-62484000D02*
X44196000Y-63246000D01*
X44196000Y-62865000D02*
X43688000Y-63246000D01*
X43688000Y-63246000D02*
X43688000Y-62484000D01*
X43688000Y-62484000D02*
X44196000Y-62865000D01*
X44196000Y-62865000D02*
X44958000Y-62865000D01*
X43688000Y-62865000D02*
X42672000Y-62865000D01*
D10*
X79724523Y-87066380D02*
X79724523Y-86066380D01*
X80057857Y-86780666D01*
X80391190Y-86066380D01*
X80391190Y-87066380D01*
X80772142Y-86066380D02*
X81438809Y-87066380D01*
X81438809Y-86066380D02*
X80772142Y-87066380D01*
X81581666Y-87161619D02*
X82343571Y-87161619D01*
X83105476Y-87066380D02*
X82534047Y-87066380D01*
X82819761Y-87066380D02*
X82819761Y-86066380D01*
X82724523Y-86209238D01*
X82629285Y-86304476D01*
X82534047Y-86352095D01*
X83534047Y-86066380D02*
X83534047Y-86875904D01*
X83581666Y-86971142D01*
X83629285Y-87018761D01*
X83724523Y-87066380D01*
X83915000Y-87066380D01*
X84010238Y-87018761D01*
X84057857Y-86971142D01*
X84105476Y-86875904D01*
X84105476Y-86066380D01*
X98774523Y-87066380D02*
X98774523Y-86066380D01*
X99107857Y-86780666D01*
X99441190Y-86066380D01*
X99441190Y-87066380D01*
X99822142Y-86066380D02*
X100488809Y-87066380D01*
X100488809Y-86066380D02*
X99822142Y-87066380D01*
X100631666Y-87161619D02*
X101393571Y-87161619D01*
X102155476Y-87066380D02*
X101584047Y-87066380D01*
X101869761Y-87066380D02*
X101869761Y-86066380D01*
X101774523Y-86209238D01*
X101679285Y-86304476D01*
X101584047Y-86352095D01*
X102584047Y-86066380D02*
X102584047Y-86875904D01*
X102631666Y-86971142D01*
X102679285Y-87018761D01*
X102774523Y-87066380D01*
X102965000Y-87066380D01*
X103060238Y-87018761D01*
X103107857Y-86971142D01*
X103155476Y-86875904D01*
X103155476Y-86066380D01*
X136874523Y-106116380D02*
X136874523Y-105116380D01*
X137207857Y-105830666D01*
X137541190Y-105116380D01*
X137541190Y-106116380D01*
X137922142Y-105116380D02*
X138588809Y-106116380D01*
X138588809Y-105116380D02*
X137922142Y-106116380D01*
X138731666Y-106211619D02*
X139493571Y-106211619D01*
X140255476Y-106116380D02*
X139684047Y-106116380D01*
X139969761Y-106116380D02*
X139969761Y-105116380D01*
X139874523Y-105259238D01*
X139779285Y-105354476D01*
X139684047Y-105402095D01*
X140684047Y-105116380D02*
X140684047Y-105925904D01*
X140731666Y-106021142D01*
X140779285Y-106068761D01*
X140874523Y-106116380D01*
X141065000Y-106116380D01*
X141160238Y-106068761D01*
X141207857Y-106021142D01*
X141255476Y-105925904D01*
X141255476Y-105116380D01*
X60674523Y-68016380D02*
X60674523Y-67016380D01*
X61007857Y-67730666D01*
X61341190Y-67016380D01*
X61341190Y-68016380D01*
X61722142Y-67016380D02*
X62388809Y-68016380D01*
X62388809Y-67016380D02*
X61722142Y-68016380D01*
X62531666Y-68111619D02*
X63293571Y-68111619D01*
X64055476Y-68016380D02*
X63484047Y-68016380D01*
X63769761Y-68016380D02*
X63769761Y-67016380D01*
X63674523Y-67159238D01*
X63579285Y-67254476D01*
X63484047Y-67302095D01*
X64484047Y-67016380D02*
X64484047Y-67825904D01*
X64531666Y-67921142D01*
X64579285Y-67968761D01*
X64674523Y-68016380D01*
X64865000Y-68016380D01*
X64960238Y-67968761D01*
X65007857Y-67921142D01*
X65055476Y-67825904D01*
X65055476Y-67016380D01*
X166997142Y-140787380D02*
X166520952Y-140787380D01*
X166520952Y-139787380D01*
X167330476Y-140263571D02*
X167663809Y-140263571D01*
X167806666Y-140787380D02*
X167330476Y-140787380D01*
X167330476Y-139787380D01*
X167806666Y-139787380D01*
X168235238Y-140787380D02*
X168235238Y-139787380D01*
X168473333Y-139787380D01*
X168616190Y-139835000D01*
X168711428Y-139930238D01*
X168759047Y-140025476D01*
X168806666Y-140215952D01*
X168806666Y-140358809D01*
X168759047Y-140549285D01*
X168711428Y-140644523D01*
X168616190Y-140739761D01*
X168473333Y-140787380D01*
X168235238Y-140787380D01*
X147947142Y-140787380D02*
X147470952Y-140787380D01*
X147470952Y-139787380D01*
X148280476Y-140263571D02*
X148613809Y-140263571D01*
X148756666Y-140787380D02*
X148280476Y-140787380D01*
X148280476Y-139787380D01*
X148756666Y-139787380D01*
X149185238Y-140787380D02*
X149185238Y-139787380D01*
X149423333Y-139787380D01*
X149566190Y-139835000D01*
X149661428Y-139930238D01*
X149709047Y-140025476D01*
X149756666Y-140215952D01*
X149756666Y-140358809D01*
X149709047Y-140549285D01*
X149661428Y-140644523D01*
X149566190Y-140739761D01*
X149423333Y-140787380D01*
X149185238Y-140787380D01*
X128897142Y-140787380D02*
X128420952Y-140787380D01*
X128420952Y-139787380D01*
X129230476Y-140263571D02*
X129563809Y-140263571D01*
X129706666Y-140787380D02*
X129230476Y-140787380D01*
X129230476Y-139787380D01*
X129706666Y-139787380D01*
X130135238Y-140787380D02*
X130135238Y-139787380D01*
X130373333Y-139787380D01*
X130516190Y-139835000D01*
X130611428Y-139930238D01*
X130659047Y-140025476D01*
X130706666Y-140215952D01*
X130706666Y-140358809D01*
X130659047Y-140549285D01*
X130611428Y-140644523D01*
X130516190Y-140739761D01*
X130373333Y-140787380D01*
X130135238Y-140787380D01*
X165449523Y-124277380D02*
X165449523Y-123277380D01*
X165782857Y-123991666D01*
X166116190Y-123277380D01*
X166116190Y-124277380D01*
X166497142Y-123277380D02*
X167163809Y-124277380D01*
X167163809Y-123277380D02*
X166497142Y-124277380D01*
X167306666Y-124372619D02*
X168068571Y-124372619D01*
X168259047Y-123372619D02*
X168306666Y-123325000D01*
X168401904Y-123277380D01*
X168640000Y-123277380D01*
X168735238Y-123325000D01*
X168782857Y-123372619D01*
X168830476Y-123467857D01*
X168830476Y-123563095D01*
X168782857Y-123705952D01*
X168211428Y-124277380D01*
X168830476Y-124277380D01*
X169259047Y-123277380D02*
X169259047Y-124086904D01*
X169306666Y-124182142D01*
X169354285Y-124229761D01*
X169449523Y-124277380D01*
X169640000Y-124277380D01*
X169735238Y-124229761D01*
X169782857Y-124182142D01*
X169830476Y-124086904D01*
X169830476Y-123277380D01*
X146399523Y-124277380D02*
X146399523Y-123277380D01*
X146732857Y-123991666D01*
X147066190Y-123277380D01*
X147066190Y-124277380D01*
X147447142Y-123277380D02*
X148113809Y-124277380D01*
X148113809Y-123277380D02*
X147447142Y-124277380D01*
X148256666Y-124372619D02*
X149018571Y-124372619D01*
X149209047Y-123372619D02*
X149256666Y-123325000D01*
X149351904Y-123277380D01*
X149590000Y-123277380D01*
X149685238Y-123325000D01*
X149732857Y-123372619D01*
X149780476Y-123467857D01*
X149780476Y-123563095D01*
X149732857Y-123705952D01*
X149161428Y-124277380D01*
X149780476Y-124277380D01*
X150209047Y-123277380D02*
X150209047Y-124086904D01*
X150256666Y-124182142D01*
X150304285Y-124229761D01*
X150399523Y-124277380D01*
X150590000Y-124277380D01*
X150685238Y-124229761D01*
X150732857Y-124182142D01*
X150780476Y-124086904D01*
X150780476Y-123277380D01*
X127349523Y-124277380D02*
X127349523Y-123277380D01*
X127682857Y-123991666D01*
X128016190Y-123277380D01*
X128016190Y-124277380D01*
X128397142Y-123277380D02*
X129063809Y-124277380D01*
X129063809Y-123277380D02*
X128397142Y-124277380D01*
X129206666Y-124372619D02*
X129968571Y-124372619D01*
X130159047Y-123372619D02*
X130206666Y-123325000D01*
X130301904Y-123277380D01*
X130540000Y-123277380D01*
X130635238Y-123325000D01*
X130682857Y-123372619D01*
X130730476Y-123467857D01*
X130730476Y-123563095D01*
X130682857Y-123705952D01*
X130111428Y-124277380D01*
X130730476Y-124277380D01*
X131159047Y-123277380D02*
X131159047Y-124086904D01*
X131206666Y-124182142D01*
X131254285Y-124229761D01*
X131349523Y-124277380D01*
X131540000Y-124277380D01*
X131635238Y-124229761D01*
X131682857Y-124182142D01*
X131730476Y-124086904D01*
X131730476Y-123277380D01*
X252722142Y-140787380D02*
X252245952Y-140787380D01*
X252245952Y-139787380D01*
X253055476Y-140263571D02*
X253388809Y-140263571D01*
X253531666Y-140787380D02*
X253055476Y-140787380D01*
X253055476Y-139787380D01*
X253531666Y-139787380D01*
X253960238Y-140787380D02*
X253960238Y-139787380D01*
X254198333Y-139787380D01*
X254341190Y-139835000D01*
X254436428Y-139930238D01*
X254484047Y-140025476D01*
X254531666Y-140215952D01*
X254531666Y-140358809D01*
X254484047Y-140549285D01*
X254436428Y-140644523D01*
X254341190Y-140739761D01*
X254198333Y-140787380D01*
X253960238Y-140787380D01*
X233672142Y-140787380D02*
X233195952Y-140787380D01*
X233195952Y-139787380D01*
X234005476Y-140263571D02*
X234338809Y-140263571D01*
X234481666Y-140787380D02*
X234005476Y-140787380D01*
X234005476Y-139787380D01*
X234481666Y-139787380D01*
X234910238Y-140787380D02*
X234910238Y-139787380D01*
X235148333Y-139787380D01*
X235291190Y-139835000D01*
X235386428Y-139930238D01*
X235434047Y-140025476D01*
X235481666Y-140215952D01*
X235481666Y-140358809D01*
X235434047Y-140549285D01*
X235386428Y-140644523D01*
X235291190Y-140739761D01*
X235148333Y-140787380D01*
X234910238Y-140787380D01*
X214622142Y-140787380D02*
X214145952Y-140787380D01*
X214145952Y-139787380D01*
X214955476Y-140263571D02*
X215288809Y-140263571D01*
X215431666Y-140787380D02*
X214955476Y-140787380D01*
X214955476Y-139787380D01*
X215431666Y-139787380D01*
X215860238Y-140787380D02*
X215860238Y-139787380D01*
X216098333Y-139787380D01*
X216241190Y-139835000D01*
X216336428Y-139930238D01*
X216384047Y-140025476D01*
X216431666Y-140215952D01*
X216431666Y-140358809D01*
X216384047Y-140549285D01*
X216336428Y-140644523D01*
X216241190Y-140739761D01*
X216098333Y-140787380D01*
X215860238Y-140787380D01*
X195572142Y-140787380D02*
X195095952Y-140787380D01*
X195095952Y-139787380D01*
X195905476Y-140263571D02*
X196238809Y-140263571D01*
X196381666Y-140787380D02*
X195905476Y-140787380D01*
X195905476Y-139787380D01*
X196381666Y-139787380D01*
X196810238Y-140787380D02*
X196810238Y-139787380D01*
X197048333Y-139787380D01*
X197191190Y-139835000D01*
X197286428Y-139930238D01*
X197334047Y-140025476D01*
X197381666Y-140215952D01*
X197381666Y-140358809D01*
X197334047Y-140549285D01*
X197286428Y-140644523D01*
X197191190Y-140739761D01*
X197048333Y-140787380D01*
X196810238Y-140787380D01*
X176522142Y-140787380D02*
X176045952Y-140787380D01*
X176045952Y-139787380D01*
X176855476Y-140263571D02*
X177188809Y-140263571D01*
X177331666Y-140787380D02*
X176855476Y-140787380D01*
X176855476Y-139787380D01*
X177331666Y-139787380D01*
X177760238Y-140787380D02*
X177760238Y-139787380D01*
X177998333Y-139787380D01*
X178141190Y-139835000D01*
X178236428Y-139930238D01*
X178284047Y-140025476D01*
X178331666Y-140215952D01*
X178331666Y-140358809D01*
X178284047Y-140549285D01*
X178236428Y-140644523D01*
X178141190Y-140739761D01*
X177998333Y-140787380D01*
X177760238Y-140787380D01*
X157472142Y-140787380D02*
X156995952Y-140787380D01*
X156995952Y-139787380D01*
X157805476Y-140263571D02*
X158138809Y-140263571D01*
X158281666Y-140787380D02*
X157805476Y-140787380D01*
X157805476Y-139787380D01*
X158281666Y-139787380D01*
X158710238Y-140787380D02*
X158710238Y-139787380D01*
X158948333Y-139787380D01*
X159091190Y-139835000D01*
X159186428Y-139930238D01*
X159234047Y-140025476D01*
X159281666Y-140215952D01*
X159281666Y-140358809D01*
X159234047Y-140549285D01*
X159186428Y-140644523D01*
X159091190Y-140739761D01*
X158948333Y-140787380D01*
X158710238Y-140787380D01*
X138422142Y-140787380D02*
X137945952Y-140787380D01*
X137945952Y-139787380D01*
X138755476Y-140263571D02*
X139088809Y-140263571D01*
X139231666Y-140787380D02*
X138755476Y-140787380D01*
X138755476Y-139787380D01*
X139231666Y-139787380D01*
X139660238Y-140787380D02*
X139660238Y-139787380D01*
X139898333Y-139787380D01*
X140041190Y-139835000D01*
X140136428Y-139930238D01*
X140184047Y-140025476D01*
X140231666Y-140215952D01*
X140231666Y-140358809D01*
X140184047Y-140549285D01*
X140136428Y-140644523D01*
X140041190Y-140739761D01*
X139898333Y-140787380D01*
X139660238Y-140787380D01*
X119372142Y-140787380D02*
X118895952Y-140787380D01*
X118895952Y-139787380D01*
X119705476Y-140263571D02*
X120038809Y-140263571D01*
X120181666Y-140787380D02*
X119705476Y-140787380D01*
X119705476Y-139787380D01*
X120181666Y-139787380D01*
X120610238Y-140787380D02*
X120610238Y-139787380D01*
X120848333Y-139787380D01*
X120991190Y-139835000D01*
X121086428Y-139930238D01*
X121134047Y-140025476D01*
X121181666Y-140215952D01*
X121181666Y-140358809D01*
X121134047Y-140549285D01*
X121086428Y-140644523D01*
X120991190Y-140739761D01*
X120848333Y-140787380D01*
X120610238Y-140787380D01*
X100322142Y-140787380D02*
X99845952Y-140787380D01*
X99845952Y-139787380D01*
X100655476Y-140263571D02*
X100988809Y-140263571D01*
X101131666Y-140787380D02*
X100655476Y-140787380D01*
X100655476Y-139787380D01*
X101131666Y-139787380D01*
X101560238Y-140787380D02*
X101560238Y-139787380D01*
X101798333Y-139787380D01*
X101941190Y-139835000D01*
X102036428Y-139930238D01*
X102084047Y-140025476D01*
X102131666Y-140215952D01*
X102131666Y-140358809D01*
X102084047Y-140549285D01*
X102036428Y-140644523D01*
X101941190Y-140739761D01*
X101798333Y-140787380D01*
X101560238Y-140787380D01*
X81272142Y-140787380D02*
X80795952Y-140787380D01*
X80795952Y-139787380D01*
X81605476Y-140263571D02*
X81938809Y-140263571D01*
X82081666Y-140787380D02*
X81605476Y-140787380D01*
X81605476Y-139787380D01*
X82081666Y-139787380D01*
X82510238Y-140787380D02*
X82510238Y-139787380D01*
X82748333Y-139787380D01*
X82891190Y-139835000D01*
X82986428Y-139930238D01*
X83034047Y-140025476D01*
X83081666Y-140215952D01*
X83081666Y-140358809D01*
X83034047Y-140549285D01*
X82986428Y-140644523D01*
X82891190Y-140739761D01*
X82748333Y-140787380D01*
X82510238Y-140787380D01*
X62222142Y-140787380D02*
X61745952Y-140787380D01*
X61745952Y-139787380D01*
X62555476Y-140263571D02*
X62888809Y-140263571D01*
X63031666Y-140787380D02*
X62555476Y-140787380D01*
X62555476Y-139787380D01*
X63031666Y-139787380D01*
X63460238Y-140787380D02*
X63460238Y-139787380D01*
X63698333Y-139787380D01*
X63841190Y-139835000D01*
X63936428Y-139930238D01*
X63984047Y-140025476D01*
X64031666Y-140215952D01*
X64031666Y-140358809D01*
X63984047Y-140549285D01*
X63936428Y-140644523D01*
X63841190Y-140739761D01*
X63698333Y-140787380D01*
X63460238Y-140787380D01*
X43172142Y-140787380D02*
X42695952Y-140787380D01*
X42695952Y-139787380D01*
X43505476Y-140263571D02*
X43838809Y-140263571D01*
X43981666Y-140787380D02*
X43505476Y-140787380D01*
X43505476Y-139787380D01*
X43981666Y-139787380D01*
X44410238Y-140787380D02*
X44410238Y-139787380D01*
X44648333Y-139787380D01*
X44791190Y-139835000D01*
X44886428Y-139930238D01*
X44934047Y-140025476D01*
X44981666Y-140215952D01*
X44981666Y-140358809D01*
X44934047Y-140549285D01*
X44886428Y-140644523D01*
X44791190Y-140739761D01*
X44648333Y-140787380D01*
X44410238Y-140787380D01*
X252722142Y-121737380D02*
X252245952Y-121737380D01*
X252245952Y-120737380D01*
X253055476Y-121213571D02*
X253388809Y-121213571D01*
X253531666Y-121737380D02*
X253055476Y-121737380D01*
X253055476Y-120737380D01*
X253531666Y-120737380D01*
X253960238Y-121737380D02*
X253960238Y-120737380D01*
X254198333Y-120737380D01*
X254341190Y-120785000D01*
X254436428Y-120880238D01*
X254484047Y-120975476D01*
X254531666Y-121165952D01*
X254531666Y-121308809D01*
X254484047Y-121499285D01*
X254436428Y-121594523D01*
X254341190Y-121689761D01*
X254198333Y-121737380D01*
X253960238Y-121737380D01*
X233672142Y-121737380D02*
X233195952Y-121737380D01*
X233195952Y-120737380D01*
X234005476Y-121213571D02*
X234338809Y-121213571D01*
X234481666Y-121737380D02*
X234005476Y-121737380D01*
X234005476Y-120737380D01*
X234481666Y-120737380D01*
X234910238Y-121737380D02*
X234910238Y-120737380D01*
X235148333Y-120737380D01*
X235291190Y-120785000D01*
X235386428Y-120880238D01*
X235434047Y-120975476D01*
X235481666Y-121165952D01*
X235481666Y-121308809D01*
X235434047Y-121499285D01*
X235386428Y-121594523D01*
X235291190Y-121689761D01*
X235148333Y-121737380D01*
X234910238Y-121737380D01*
X214622142Y-121737380D02*
X214145952Y-121737380D01*
X214145952Y-120737380D01*
X214955476Y-121213571D02*
X215288809Y-121213571D01*
X215431666Y-121737380D02*
X214955476Y-121737380D01*
X214955476Y-120737380D01*
X215431666Y-120737380D01*
X215860238Y-121737380D02*
X215860238Y-120737380D01*
X216098333Y-120737380D01*
X216241190Y-120785000D01*
X216336428Y-120880238D01*
X216384047Y-120975476D01*
X216431666Y-121165952D01*
X216431666Y-121308809D01*
X216384047Y-121499285D01*
X216336428Y-121594523D01*
X216241190Y-121689761D01*
X216098333Y-121737380D01*
X215860238Y-121737380D01*
X195572142Y-121737380D02*
X195095952Y-121737380D01*
X195095952Y-120737380D01*
X195905476Y-121213571D02*
X196238809Y-121213571D01*
X196381666Y-121737380D02*
X195905476Y-121737380D01*
X195905476Y-120737380D01*
X196381666Y-120737380D01*
X196810238Y-121737380D02*
X196810238Y-120737380D01*
X197048333Y-120737380D01*
X197191190Y-120785000D01*
X197286428Y-120880238D01*
X197334047Y-120975476D01*
X197381666Y-121165952D01*
X197381666Y-121308809D01*
X197334047Y-121499285D01*
X197286428Y-121594523D01*
X197191190Y-121689761D01*
X197048333Y-121737380D01*
X196810238Y-121737380D01*
X176522142Y-121737380D02*
X176045952Y-121737380D01*
X176045952Y-120737380D01*
X176855476Y-121213571D02*
X177188809Y-121213571D01*
X177331666Y-121737380D02*
X176855476Y-121737380D01*
X176855476Y-120737380D01*
X177331666Y-120737380D01*
X177760238Y-121737380D02*
X177760238Y-120737380D01*
X177998333Y-120737380D01*
X178141190Y-120785000D01*
X178236428Y-120880238D01*
X178284047Y-120975476D01*
X178331666Y-121165952D01*
X178331666Y-121308809D01*
X178284047Y-121499285D01*
X178236428Y-121594523D01*
X178141190Y-121689761D01*
X177998333Y-121737380D01*
X177760238Y-121737380D01*
X157472142Y-121737380D02*
X156995952Y-121737380D01*
X156995952Y-120737380D01*
X157805476Y-121213571D02*
X158138809Y-121213571D01*
X158281666Y-121737380D02*
X157805476Y-121737380D01*
X157805476Y-120737380D01*
X158281666Y-120737380D01*
X158710238Y-121737380D02*
X158710238Y-120737380D01*
X158948333Y-120737380D01*
X159091190Y-120785000D01*
X159186428Y-120880238D01*
X159234047Y-120975476D01*
X159281666Y-121165952D01*
X159281666Y-121308809D01*
X159234047Y-121499285D01*
X159186428Y-121594523D01*
X159091190Y-121689761D01*
X158948333Y-121737380D01*
X158710238Y-121737380D01*
X138422142Y-121737380D02*
X137945952Y-121737380D01*
X137945952Y-120737380D01*
X138755476Y-121213571D02*
X139088809Y-121213571D01*
X139231666Y-121737380D02*
X138755476Y-121737380D01*
X138755476Y-120737380D01*
X139231666Y-120737380D01*
X139660238Y-121737380D02*
X139660238Y-120737380D01*
X139898333Y-120737380D01*
X140041190Y-120785000D01*
X140136428Y-120880238D01*
X140184047Y-120975476D01*
X140231666Y-121165952D01*
X140231666Y-121308809D01*
X140184047Y-121499285D01*
X140136428Y-121594523D01*
X140041190Y-121689761D01*
X139898333Y-121737380D01*
X139660238Y-121737380D01*
X119372142Y-121737380D02*
X118895952Y-121737380D01*
X118895952Y-120737380D01*
X119705476Y-121213571D02*
X120038809Y-121213571D01*
X120181666Y-121737380D02*
X119705476Y-121737380D01*
X119705476Y-120737380D01*
X120181666Y-120737380D01*
X120610238Y-121737380D02*
X120610238Y-120737380D01*
X120848333Y-120737380D01*
X120991190Y-120785000D01*
X121086428Y-120880238D01*
X121134047Y-120975476D01*
X121181666Y-121165952D01*
X121181666Y-121308809D01*
X121134047Y-121499285D01*
X121086428Y-121594523D01*
X120991190Y-121689761D01*
X120848333Y-121737380D01*
X120610238Y-121737380D01*
X100322142Y-121737380D02*
X99845952Y-121737380D01*
X99845952Y-120737380D01*
X100655476Y-121213571D02*
X100988809Y-121213571D01*
X101131666Y-121737380D02*
X100655476Y-121737380D01*
X100655476Y-120737380D01*
X101131666Y-120737380D01*
X101560238Y-121737380D02*
X101560238Y-120737380D01*
X101798333Y-120737380D01*
X101941190Y-120785000D01*
X102036428Y-120880238D01*
X102084047Y-120975476D01*
X102131666Y-121165952D01*
X102131666Y-121308809D01*
X102084047Y-121499285D01*
X102036428Y-121594523D01*
X101941190Y-121689761D01*
X101798333Y-121737380D01*
X101560238Y-121737380D01*
X81272142Y-121737380D02*
X80795952Y-121737380D01*
X80795952Y-120737380D01*
X81605476Y-121213571D02*
X81938809Y-121213571D01*
X82081666Y-121737380D02*
X81605476Y-121737380D01*
X81605476Y-120737380D01*
X82081666Y-120737380D01*
X82510238Y-121737380D02*
X82510238Y-120737380D01*
X82748333Y-120737380D01*
X82891190Y-120785000D01*
X82986428Y-120880238D01*
X83034047Y-120975476D01*
X83081666Y-121165952D01*
X83081666Y-121308809D01*
X83034047Y-121499285D01*
X82986428Y-121594523D01*
X82891190Y-121689761D01*
X82748333Y-121737380D01*
X82510238Y-121737380D01*
X62222142Y-121737380D02*
X61745952Y-121737380D01*
X61745952Y-120737380D01*
X62555476Y-121213571D02*
X62888809Y-121213571D01*
X63031666Y-121737380D02*
X62555476Y-121737380D01*
X62555476Y-120737380D01*
X63031666Y-120737380D01*
X63460238Y-121737380D02*
X63460238Y-120737380D01*
X63698333Y-120737380D01*
X63841190Y-120785000D01*
X63936428Y-120880238D01*
X63984047Y-120975476D01*
X64031666Y-121165952D01*
X64031666Y-121308809D01*
X63984047Y-121499285D01*
X63936428Y-121594523D01*
X63841190Y-121689761D01*
X63698333Y-121737380D01*
X63460238Y-121737380D01*
X43172142Y-121737380D02*
X42695952Y-121737380D01*
X42695952Y-120737380D01*
X43505476Y-121213571D02*
X43838809Y-121213571D01*
X43981666Y-121737380D02*
X43505476Y-121737380D01*
X43505476Y-120737380D01*
X43981666Y-120737380D01*
X44410238Y-121737380D02*
X44410238Y-120737380D01*
X44648333Y-120737380D01*
X44791190Y-120785000D01*
X44886428Y-120880238D01*
X44934047Y-120975476D01*
X44981666Y-121165952D01*
X44981666Y-121308809D01*
X44934047Y-121499285D01*
X44886428Y-121594523D01*
X44791190Y-121689761D01*
X44648333Y-121737380D01*
X44410238Y-121737380D01*
X252722142Y-102687380D02*
X252245952Y-102687380D01*
X252245952Y-101687380D01*
X253055476Y-102163571D02*
X253388809Y-102163571D01*
X253531666Y-102687380D02*
X253055476Y-102687380D01*
X253055476Y-101687380D01*
X253531666Y-101687380D01*
X253960238Y-102687380D02*
X253960238Y-101687380D01*
X254198333Y-101687380D01*
X254341190Y-101735000D01*
X254436428Y-101830238D01*
X254484047Y-101925476D01*
X254531666Y-102115952D01*
X254531666Y-102258809D01*
X254484047Y-102449285D01*
X254436428Y-102544523D01*
X254341190Y-102639761D01*
X254198333Y-102687380D01*
X253960238Y-102687380D01*
X233672142Y-102687380D02*
X233195952Y-102687380D01*
X233195952Y-101687380D01*
X234005476Y-102163571D02*
X234338809Y-102163571D01*
X234481666Y-102687380D02*
X234005476Y-102687380D01*
X234005476Y-101687380D01*
X234481666Y-101687380D01*
X234910238Y-102687380D02*
X234910238Y-101687380D01*
X235148333Y-101687380D01*
X235291190Y-101735000D01*
X235386428Y-101830238D01*
X235434047Y-101925476D01*
X235481666Y-102115952D01*
X235481666Y-102258809D01*
X235434047Y-102449285D01*
X235386428Y-102544523D01*
X235291190Y-102639761D01*
X235148333Y-102687380D01*
X234910238Y-102687380D01*
X214622142Y-102687380D02*
X214145952Y-102687380D01*
X214145952Y-101687380D01*
X214955476Y-102163571D02*
X215288809Y-102163571D01*
X215431666Y-102687380D02*
X214955476Y-102687380D01*
X214955476Y-101687380D01*
X215431666Y-101687380D01*
X215860238Y-102687380D02*
X215860238Y-101687380D01*
X216098333Y-101687380D01*
X216241190Y-101735000D01*
X216336428Y-101830238D01*
X216384047Y-101925476D01*
X216431666Y-102115952D01*
X216431666Y-102258809D01*
X216384047Y-102449285D01*
X216336428Y-102544523D01*
X216241190Y-102639761D01*
X216098333Y-102687380D01*
X215860238Y-102687380D01*
X195572142Y-102687380D02*
X195095952Y-102687380D01*
X195095952Y-101687380D01*
X195905476Y-102163571D02*
X196238809Y-102163571D01*
X196381666Y-102687380D02*
X195905476Y-102687380D01*
X195905476Y-101687380D01*
X196381666Y-101687380D01*
X196810238Y-102687380D02*
X196810238Y-101687380D01*
X197048333Y-101687380D01*
X197191190Y-101735000D01*
X197286428Y-101830238D01*
X197334047Y-101925476D01*
X197381666Y-102115952D01*
X197381666Y-102258809D01*
X197334047Y-102449285D01*
X197286428Y-102544523D01*
X197191190Y-102639761D01*
X197048333Y-102687380D01*
X196810238Y-102687380D01*
X176522142Y-102687380D02*
X176045952Y-102687380D01*
X176045952Y-101687380D01*
X176855476Y-102163571D02*
X177188809Y-102163571D01*
X177331666Y-102687380D02*
X176855476Y-102687380D01*
X176855476Y-101687380D01*
X177331666Y-101687380D01*
X177760238Y-102687380D02*
X177760238Y-101687380D01*
X177998333Y-101687380D01*
X178141190Y-101735000D01*
X178236428Y-101830238D01*
X178284047Y-101925476D01*
X178331666Y-102115952D01*
X178331666Y-102258809D01*
X178284047Y-102449285D01*
X178236428Y-102544523D01*
X178141190Y-102639761D01*
X177998333Y-102687380D01*
X177760238Y-102687380D01*
X157472142Y-102687380D02*
X156995952Y-102687380D01*
X156995952Y-101687380D01*
X157805476Y-102163571D02*
X158138809Y-102163571D01*
X158281666Y-102687380D02*
X157805476Y-102687380D01*
X157805476Y-101687380D01*
X158281666Y-101687380D01*
X158710238Y-102687380D02*
X158710238Y-101687380D01*
X158948333Y-101687380D01*
X159091190Y-101735000D01*
X159186428Y-101830238D01*
X159234047Y-101925476D01*
X159281666Y-102115952D01*
X159281666Y-102258809D01*
X159234047Y-102449285D01*
X159186428Y-102544523D01*
X159091190Y-102639761D01*
X158948333Y-102687380D01*
X158710238Y-102687380D01*
X138422142Y-102687380D02*
X137945952Y-102687380D01*
X137945952Y-101687380D01*
X138755476Y-102163571D02*
X139088809Y-102163571D01*
X139231666Y-102687380D02*
X138755476Y-102687380D01*
X138755476Y-101687380D01*
X139231666Y-101687380D01*
X139660238Y-102687380D02*
X139660238Y-101687380D01*
X139898333Y-101687380D01*
X140041190Y-101735000D01*
X140136428Y-101830238D01*
X140184047Y-101925476D01*
X140231666Y-102115952D01*
X140231666Y-102258809D01*
X140184047Y-102449285D01*
X140136428Y-102544523D01*
X140041190Y-102639761D01*
X139898333Y-102687380D01*
X139660238Y-102687380D01*
X119372142Y-102687380D02*
X118895952Y-102687380D01*
X118895952Y-101687380D01*
X119705476Y-102163571D02*
X120038809Y-102163571D01*
X120181666Y-102687380D02*
X119705476Y-102687380D01*
X119705476Y-101687380D01*
X120181666Y-101687380D01*
X120610238Y-102687380D02*
X120610238Y-101687380D01*
X120848333Y-101687380D01*
X120991190Y-101735000D01*
X121086428Y-101830238D01*
X121134047Y-101925476D01*
X121181666Y-102115952D01*
X121181666Y-102258809D01*
X121134047Y-102449285D01*
X121086428Y-102544523D01*
X120991190Y-102639761D01*
X120848333Y-102687380D01*
X120610238Y-102687380D01*
X100322142Y-102687380D02*
X99845952Y-102687380D01*
X99845952Y-101687380D01*
X100655476Y-102163571D02*
X100988809Y-102163571D01*
X101131666Y-102687380D02*
X100655476Y-102687380D01*
X100655476Y-101687380D01*
X101131666Y-101687380D01*
X101560238Y-102687380D02*
X101560238Y-101687380D01*
X101798333Y-101687380D01*
X101941190Y-101735000D01*
X102036428Y-101830238D01*
X102084047Y-101925476D01*
X102131666Y-102115952D01*
X102131666Y-102258809D01*
X102084047Y-102449285D01*
X102036428Y-102544523D01*
X101941190Y-102639761D01*
X101798333Y-102687380D01*
X101560238Y-102687380D01*
X81272142Y-102687380D02*
X80795952Y-102687380D01*
X80795952Y-101687380D01*
X81605476Y-102163571D02*
X81938809Y-102163571D01*
X82081666Y-102687380D02*
X81605476Y-102687380D01*
X81605476Y-101687380D01*
X82081666Y-101687380D01*
X82510238Y-102687380D02*
X82510238Y-101687380D01*
X82748333Y-101687380D01*
X82891190Y-101735000D01*
X82986428Y-101830238D01*
X83034047Y-101925476D01*
X83081666Y-102115952D01*
X83081666Y-102258809D01*
X83034047Y-102449285D01*
X82986428Y-102544523D01*
X82891190Y-102639761D01*
X82748333Y-102687380D01*
X82510238Y-102687380D01*
X62222142Y-102687380D02*
X61745952Y-102687380D01*
X61745952Y-101687380D01*
X62555476Y-102163571D02*
X62888809Y-102163571D01*
X63031666Y-102687380D02*
X62555476Y-102687380D01*
X62555476Y-101687380D01*
X63031666Y-101687380D01*
X63460238Y-102687380D02*
X63460238Y-101687380D01*
X63698333Y-101687380D01*
X63841190Y-101735000D01*
X63936428Y-101830238D01*
X63984047Y-101925476D01*
X64031666Y-102115952D01*
X64031666Y-102258809D01*
X63984047Y-102449285D01*
X63936428Y-102544523D01*
X63841190Y-102639761D01*
X63698333Y-102687380D01*
X63460238Y-102687380D01*
X43172142Y-102687380D02*
X42695952Y-102687380D01*
X42695952Y-101687380D01*
X43505476Y-102163571D02*
X43838809Y-102163571D01*
X43981666Y-102687380D02*
X43505476Y-102687380D01*
X43505476Y-101687380D01*
X43981666Y-101687380D01*
X44410238Y-102687380D02*
X44410238Y-101687380D01*
X44648333Y-101687380D01*
X44791190Y-101735000D01*
X44886428Y-101830238D01*
X44934047Y-101925476D01*
X44981666Y-102115952D01*
X44981666Y-102258809D01*
X44934047Y-102449285D01*
X44886428Y-102544523D01*
X44791190Y-102639761D01*
X44648333Y-102687380D01*
X44410238Y-102687380D01*
X252722142Y-83637380D02*
X252245952Y-83637380D01*
X252245952Y-82637380D01*
X253055476Y-83113571D02*
X253388809Y-83113571D01*
X253531666Y-83637380D02*
X253055476Y-83637380D01*
X253055476Y-82637380D01*
X253531666Y-82637380D01*
X253960238Y-83637380D02*
X253960238Y-82637380D01*
X254198333Y-82637380D01*
X254341190Y-82685000D01*
X254436428Y-82780238D01*
X254484047Y-82875476D01*
X254531666Y-83065952D01*
X254531666Y-83208809D01*
X254484047Y-83399285D01*
X254436428Y-83494523D01*
X254341190Y-83589761D01*
X254198333Y-83637380D01*
X253960238Y-83637380D01*
X233672142Y-83637380D02*
X233195952Y-83637380D01*
X233195952Y-82637380D01*
X234005476Y-83113571D02*
X234338809Y-83113571D01*
X234481666Y-83637380D02*
X234005476Y-83637380D01*
X234005476Y-82637380D01*
X234481666Y-82637380D01*
X234910238Y-83637380D02*
X234910238Y-82637380D01*
X235148333Y-82637380D01*
X235291190Y-82685000D01*
X235386428Y-82780238D01*
X235434047Y-82875476D01*
X235481666Y-83065952D01*
X235481666Y-83208809D01*
X235434047Y-83399285D01*
X235386428Y-83494523D01*
X235291190Y-83589761D01*
X235148333Y-83637380D01*
X234910238Y-83637380D01*
X214622142Y-83637380D02*
X214145952Y-83637380D01*
X214145952Y-82637380D01*
X214955476Y-83113571D02*
X215288809Y-83113571D01*
X215431666Y-83637380D02*
X214955476Y-83637380D01*
X214955476Y-82637380D01*
X215431666Y-82637380D01*
X215860238Y-83637380D02*
X215860238Y-82637380D01*
X216098333Y-82637380D01*
X216241190Y-82685000D01*
X216336428Y-82780238D01*
X216384047Y-82875476D01*
X216431666Y-83065952D01*
X216431666Y-83208809D01*
X216384047Y-83399285D01*
X216336428Y-83494523D01*
X216241190Y-83589761D01*
X216098333Y-83637380D01*
X215860238Y-83637380D01*
X195572142Y-83637380D02*
X195095952Y-83637380D01*
X195095952Y-82637380D01*
X195905476Y-83113571D02*
X196238809Y-83113571D01*
X196381666Y-83637380D02*
X195905476Y-83637380D01*
X195905476Y-82637380D01*
X196381666Y-82637380D01*
X196810238Y-83637380D02*
X196810238Y-82637380D01*
X197048333Y-82637380D01*
X197191190Y-82685000D01*
X197286428Y-82780238D01*
X197334047Y-82875476D01*
X197381666Y-83065952D01*
X197381666Y-83208809D01*
X197334047Y-83399285D01*
X197286428Y-83494523D01*
X197191190Y-83589761D01*
X197048333Y-83637380D01*
X196810238Y-83637380D01*
X176522142Y-83637380D02*
X176045952Y-83637380D01*
X176045952Y-82637380D01*
X176855476Y-83113571D02*
X177188809Y-83113571D01*
X177331666Y-83637380D02*
X176855476Y-83637380D01*
X176855476Y-82637380D01*
X177331666Y-82637380D01*
X177760238Y-83637380D02*
X177760238Y-82637380D01*
X177998333Y-82637380D01*
X178141190Y-82685000D01*
X178236428Y-82780238D01*
X178284047Y-82875476D01*
X178331666Y-83065952D01*
X178331666Y-83208809D01*
X178284047Y-83399285D01*
X178236428Y-83494523D01*
X178141190Y-83589761D01*
X177998333Y-83637380D01*
X177760238Y-83637380D01*
X157472142Y-83637380D02*
X156995952Y-83637380D01*
X156995952Y-82637380D01*
X157805476Y-83113571D02*
X158138809Y-83113571D01*
X158281666Y-83637380D02*
X157805476Y-83637380D01*
X157805476Y-82637380D01*
X158281666Y-82637380D01*
X158710238Y-83637380D02*
X158710238Y-82637380D01*
X158948333Y-82637380D01*
X159091190Y-82685000D01*
X159186428Y-82780238D01*
X159234047Y-82875476D01*
X159281666Y-83065952D01*
X159281666Y-83208809D01*
X159234047Y-83399285D01*
X159186428Y-83494523D01*
X159091190Y-83589761D01*
X158948333Y-83637380D01*
X158710238Y-83637380D01*
X138422142Y-83637380D02*
X137945952Y-83637380D01*
X137945952Y-82637380D01*
X138755476Y-83113571D02*
X139088809Y-83113571D01*
X139231666Y-83637380D02*
X138755476Y-83637380D01*
X138755476Y-82637380D01*
X139231666Y-82637380D01*
X139660238Y-83637380D02*
X139660238Y-82637380D01*
X139898333Y-82637380D01*
X140041190Y-82685000D01*
X140136428Y-82780238D01*
X140184047Y-82875476D01*
X140231666Y-83065952D01*
X140231666Y-83208809D01*
X140184047Y-83399285D01*
X140136428Y-83494523D01*
X140041190Y-83589761D01*
X139898333Y-83637380D01*
X139660238Y-83637380D01*
X119372142Y-83637380D02*
X118895952Y-83637380D01*
X118895952Y-82637380D01*
X119705476Y-83113571D02*
X120038809Y-83113571D01*
X120181666Y-83637380D02*
X119705476Y-83637380D01*
X119705476Y-82637380D01*
X120181666Y-82637380D01*
X120610238Y-83637380D02*
X120610238Y-82637380D01*
X120848333Y-82637380D01*
X120991190Y-82685000D01*
X121086428Y-82780238D01*
X121134047Y-82875476D01*
X121181666Y-83065952D01*
X121181666Y-83208809D01*
X121134047Y-83399285D01*
X121086428Y-83494523D01*
X120991190Y-83589761D01*
X120848333Y-83637380D01*
X120610238Y-83637380D01*
X100322142Y-83637380D02*
X99845952Y-83637380D01*
X99845952Y-82637380D01*
X100655476Y-83113571D02*
X100988809Y-83113571D01*
X101131666Y-83637380D02*
X100655476Y-83637380D01*
X100655476Y-82637380D01*
X101131666Y-82637380D01*
X101560238Y-83637380D02*
X101560238Y-82637380D01*
X101798333Y-82637380D01*
X101941190Y-82685000D01*
X102036428Y-82780238D01*
X102084047Y-82875476D01*
X102131666Y-83065952D01*
X102131666Y-83208809D01*
X102084047Y-83399285D01*
X102036428Y-83494523D01*
X101941190Y-83589761D01*
X101798333Y-83637380D01*
X101560238Y-83637380D01*
X81272142Y-83637380D02*
X80795952Y-83637380D01*
X80795952Y-82637380D01*
X81605476Y-83113571D02*
X81938809Y-83113571D01*
X82081666Y-83637380D02*
X81605476Y-83637380D01*
X81605476Y-82637380D01*
X82081666Y-82637380D01*
X82510238Y-83637380D02*
X82510238Y-82637380D01*
X82748333Y-82637380D01*
X82891190Y-82685000D01*
X82986428Y-82780238D01*
X83034047Y-82875476D01*
X83081666Y-83065952D01*
X83081666Y-83208809D01*
X83034047Y-83399285D01*
X82986428Y-83494523D01*
X82891190Y-83589761D01*
X82748333Y-83637380D01*
X82510238Y-83637380D01*
X62222142Y-83637380D02*
X61745952Y-83637380D01*
X61745952Y-82637380D01*
X62555476Y-83113571D02*
X62888809Y-83113571D01*
X63031666Y-83637380D02*
X62555476Y-83637380D01*
X62555476Y-82637380D01*
X63031666Y-82637380D01*
X63460238Y-83637380D02*
X63460238Y-82637380D01*
X63698333Y-82637380D01*
X63841190Y-82685000D01*
X63936428Y-82780238D01*
X63984047Y-82875476D01*
X64031666Y-83065952D01*
X64031666Y-83208809D01*
X63984047Y-83399285D01*
X63936428Y-83494523D01*
X63841190Y-83589761D01*
X63698333Y-83637380D01*
X63460238Y-83637380D01*
X43172142Y-83637380D02*
X42695952Y-83637380D01*
X42695952Y-82637380D01*
X43505476Y-83113571D02*
X43838809Y-83113571D01*
X43981666Y-83637380D02*
X43505476Y-83637380D01*
X43505476Y-82637380D01*
X43981666Y-82637380D01*
X44410238Y-83637380D02*
X44410238Y-82637380D01*
X44648333Y-82637380D01*
X44791190Y-82685000D01*
X44886428Y-82780238D01*
X44934047Y-82875476D01*
X44981666Y-83065952D01*
X44981666Y-83208809D01*
X44934047Y-83399285D01*
X44886428Y-83494523D01*
X44791190Y-83589761D01*
X44648333Y-83637380D01*
X44410238Y-83637380D01*
X252722142Y-64587380D02*
X252245952Y-64587380D01*
X252245952Y-63587380D01*
X253055476Y-64063571D02*
X253388809Y-64063571D01*
X253531666Y-64587380D02*
X253055476Y-64587380D01*
X253055476Y-63587380D01*
X253531666Y-63587380D01*
X253960238Y-64587380D02*
X253960238Y-63587380D01*
X254198333Y-63587380D01*
X254341190Y-63635000D01*
X254436428Y-63730238D01*
X254484047Y-63825476D01*
X254531666Y-64015952D01*
X254531666Y-64158809D01*
X254484047Y-64349285D01*
X254436428Y-64444523D01*
X254341190Y-64539761D01*
X254198333Y-64587380D01*
X253960238Y-64587380D01*
X233672142Y-64587380D02*
X233195952Y-64587380D01*
X233195952Y-63587380D01*
X234005476Y-64063571D02*
X234338809Y-64063571D01*
X234481666Y-64587380D02*
X234005476Y-64587380D01*
X234005476Y-63587380D01*
X234481666Y-63587380D01*
X234910238Y-64587380D02*
X234910238Y-63587380D01*
X235148333Y-63587380D01*
X235291190Y-63635000D01*
X235386428Y-63730238D01*
X235434047Y-63825476D01*
X235481666Y-64015952D01*
X235481666Y-64158809D01*
X235434047Y-64349285D01*
X235386428Y-64444523D01*
X235291190Y-64539761D01*
X235148333Y-64587380D01*
X234910238Y-64587380D01*
X214622142Y-64587380D02*
X214145952Y-64587380D01*
X214145952Y-63587380D01*
X214955476Y-64063571D02*
X215288809Y-64063571D01*
X215431666Y-64587380D02*
X214955476Y-64587380D01*
X214955476Y-63587380D01*
X215431666Y-63587380D01*
X215860238Y-64587380D02*
X215860238Y-63587380D01*
X216098333Y-63587380D01*
X216241190Y-63635000D01*
X216336428Y-63730238D01*
X216384047Y-63825476D01*
X216431666Y-64015952D01*
X216431666Y-64158809D01*
X216384047Y-64349285D01*
X216336428Y-64444523D01*
X216241190Y-64539761D01*
X216098333Y-64587380D01*
X215860238Y-64587380D01*
X195572142Y-64587380D02*
X195095952Y-64587380D01*
X195095952Y-63587380D01*
X195905476Y-64063571D02*
X196238809Y-64063571D01*
X196381666Y-64587380D02*
X195905476Y-64587380D01*
X195905476Y-63587380D01*
X196381666Y-63587380D01*
X196810238Y-64587380D02*
X196810238Y-63587380D01*
X197048333Y-63587380D01*
X197191190Y-63635000D01*
X197286428Y-63730238D01*
X197334047Y-63825476D01*
X197381666Y-64015952D01*
X197381666Y-64158809D01*
X197334047Y-64349285D01*
X197286428Y-64444523D01*
X197191190Y-64539761D01*
X197048333Y-64587380D01*
X196810238Y-64587380D01*
X176522142Y-64587380D02*
X176045952Y-64587380D01*
X176045952Y-63587380D01*
X176855476Y-64063571D02*
X177188809Y-64063571D01*
X177331666Y-64587380D02*
X176855476Y-64587380D01*
X176855476Y-63587380D01*
X177331666Y-63587380D01*
X177760238Y-64587380D02*
X177760238Y-63587380D01*
X177998333Y-63587380D01*
X178141190Y-63635000D01*
X178236428Y-63730238D01*
X178284047Y-63825476D01*
X178331666Y-64015952D01*
X178331666Y-64158809D01*
X178284047Y-64349285D01*
X178236428Y-64444523D01*
X178141190Y-64539761D01*
X177998333Y-64587380D01*
X177760238Y-64587380D01*
X157472142Y-64587380D02*
X156995952Y-64587380D01*
X156995952Y-63587380D01*
X157805476Y-64063571D02*
X158138809Y-64063571D01*
X158281666Y-64587380D02*
X157805476Y-64587380D01*
X157805476Y-63587380D01*
X158281666Y-63587380D01*
X158710238Y-64587380D02*
X158710238Y-63587380D01*
X158948333Y-63587380D01*
X159091190Y-63635000D01*
X159186428Y-63730238D01*
X159234047Y-63825476D01*
X159281666Y-64015952D01*
X159281666Y-64158809D01*
X159234047Y-64349285D01*
X159186428Y-64444523D01*
X159091190Y-64539761D01*
X158948333Y-64587380D01*
X158710238Y-64587380D01*
X138422142Y-64587380D02*
X137945952Y-64587380D01*
X137945952Y-63587380D01*
X138755476Y-64063571D02*
X139088809Y-64063571D01*
X139231666Y-64587380D02*
X138755476Y-64587380D01*
X138755476Y-63587380D01*
X139231666Y-63587380D01*
X139660238Y-64587380D02*
X139660238Y-63587380D01*
X139898333Y-63587380D01*
X140041190Y-63635000D01*
X140136428Y-63730238D01*
X140184047Y-63825476D01*
X140231666Y-64015952D01*
X140231666Y-64158809D01*
X140184047Y-64349285D01*
X140136428Y-64444523D01*
X140041190Y-64539761D01*
X139898333Y-64587380D01*
X139660238Y-64587380D01*
X119372142Y-64587380D02*
X118895952Y-64587380D01*
X118895952Y-63587380D01*
X119705476Y-64063571D02*
X120038809Y-64063571D01*
X120181666Y-64587380D02*
X119705476Y-64587380D01*
X119705476Y-63587380D01*
X120181666Y-63587380D01*
X120610238Y-64587380D02*
X120610238Y-63587380D01*
X120848333Y-63587380D01*
X120991190Y-63635000D01*
X121086428Y-63730238D01*
X121134047Y-63825476D01*
X121181666Y-64015952D01*
X121181666Y-64158809D01*
X121134047Y-64349285D01*
X121086428Y-64444523D01*
X120991190Y-64539761D01*
X120848333Y-64587380D01*
X120610238Y-64587380D01*
X100322142Y-64587380D02*
X99845952Y-64587380D01*
X99845952Y-63587380D01*
X100655476Y-64063571D02*
X100988809Y-64063571D01*
X101131666Y-64587380D02*
X100655476Y-64587380D01*
X100655476Y-63587380D01*
X101131666Y-63587380D01*
X101560238Y-64587380D02*
X101560238Y-63587380D01*
X101798333Y-63587380D01*
X101941190Y-63635000D01*
X102036428Y-63730238D01*
X102084047Y-63825476D01*
X102131666Y-64015952D01*
X102131666Y-64158809D01*
X102084047Y-64349285D01*
X102036428Y-64444523D01*
X101941190Y-64539761D01*
X101798333Y-64587380D01*
X101560238Y-64587380D01*
X81272142Y-64587380D02*
X80795952Y-64587380D01*
X80795952Y-63587380D01*
X81605476Y-64063571D02*
X81938809Y-64063571D01*
X82081666Y-64587380D02*
X81605476Y-64587380D01*
X81605476Y-63587380D01*
X82081666Y-63587380D01*
X82510238Y-64587380D02*
X82510238Y-63587380D01*
X82748333Y-63587380D01*
X82891190Y-63635000D01*
X82986428Y-63730238D01*
X83034047Y-63825476D01*
X83081666Y-64015952D01*
X83081666Y-64158809D01*
X83034047Y-64349285D01*
X82986428Y-64444523D01*
X82891190Y-64539761D01*
X82748333Y-64587380D01*
X82510238Y-64587380D01*
X62222142Y-64587380D02*
X61745952Y-64587380D01*
X61745952Y-63587380D01*
X62555476Y-64063571D02*
X62888809Y-64063571D01*
X63031666Y-64587380D02*
X62555476Y-64587380D01*
X62555476Y-63587380D01*
X63031666Y-63587380D01*
X63460238Y-64587380D02*
X63460238Y-63587380D01*
X63698333Y-63587380D01*
X63841190Y-63635000D01*
X63936428Y-63730238D01*
X63984047Y-63825476D01*
X64031666Y-64015952D01*
X64031666Y-64158809D01*
X63984047Y-64349285D01*
X63936428Y-64444523D01*
X63841190Y-64539761D01*
X63698333Y-64587380D01*
X63460238Y-64587380D01*
X251174523Y-125166380D02*
X251174523Y-124166380D01*
X251507857Y-124880666D01*
X251841190Y-124166380D01*
X251841190Y-125166380D01*
X252222142Y-124166380D02*
X252888809Y-125166380D01*
X252888809Y-124166380D02*
X252222142Y-125166380D01*
X253031666Y-125261619D02*
X253793571Y-125261619D01*
X254555476Y-125166380D02*
X253984047Y-125166380D01*
X254269761Y-125166380D02*
X254269761Y-124166380D01*
X254174523Y-124309238D01*
X254079285Y-124404476D01*
X253984047Y-124452095D01*
X254984047Y-124166380D02*
X254984047Y-124975904D01*
X255031666Y-125071142D01*
X255079285Y-125118761D01*
X255174523Y-125166380D01*
X255365000Y-125166380D01*
X255460238Y-125118761D01*
X255507857Y-125071142D01*
X255555476Y-124975904D01*
X255555476Y-124166380D01*
X232124523Y-125166380D02*
X232124523Y-124166380D01*
X232457857Y-124880666D01*
X232791190Y-124166380D01*
X232791190Y-125166380D01*
X233172142Y-124166380D02*
X233838809Y-125166380D01*
X233838809Y-124166380D02*
X233172142Y-125166380D01*
X233981666Y-125261619D02*
X234743571Y-125261619D01*
X235505476Y-125166380D02*
X234934047Y-125166380D01*
X235219761Y-125166380D02*
X235219761Y-124166380D01*
X235124523Y-124309238D01*
X235029285Y-124404476D01*
X234934047Y-124452095D01*
X235934047Y-124166380D02*
X235934047Y-124975904D01*
X235981666Y-125071142D01*
X236029285Y-125118761D01*
X236124523Y-125166380D01*
X236315000Y-125166380D01*
X236410238Y-125118761D01*
X236457857Y-125071142D01*
X236505476Y-124975904D01*
X236505476Y-124166380D01*
X213074523Y-125166380D02*
X213074523Y-124166380D01*
X213407857Y-124880666D01*
X213741190Y-124166380D01*
X213741190Y-125166380D01*
X214122142Y-124166380D02*
X214788809Y-125166380D01*
X214788809Y-124166380D02*
X214122142Y-125166380D01*
X214931666Y-125261619D02*
X215693571Y-125261619D01*
X216455476Y-125166380D02*
X215884047Y-125166380D01*
X216169761Y-125166380D02*
X216169761Y-124166380D01*
X216074523Y-124309238D01*
X215979285Y-124404476D01*
X215884047Y-124452095D01*
X216884047Y-124166380D02*
X216884047Y-124975904D01*
X216931666Y-125071142D01*
X216979285Y-125118761D01*
X217074523Y-125166380D01*
X217265000Y-125166380D01*
X217360238Y-125118761D01*
X217407857Y-125071142D01*
X217455476Y-124975904D01*
X217455476Y-124166380D01*
X194024523Y-125166380D02*
X194024523Y-124166380D01*
X194357857Y-124880666D01*
X194691190Y-124166380D01*
X194691190Y-125166380D01*
X195072142Y-124166380D02*
X195738809Y-125166380D01*
X195738809Y-124166380D02*
X195072142Y-125166380D01*
X195881666Y-125261619D02*
X196643571Y-125261619D01*
X197405476Y-125166380D02*
X196834047Y-125166380D01*
X197119761Y-125166380D02*
X197119761Y-124166380D01*
X197024523Y-124309238D01*
X196929285Y-124404476D01*
X196834047Y-124452095D01*
X197834047Y-124166380D02*
X197834047Y-124975904D01*
X197881666Y-125071142D01*
X197929285Y-125118761D01*
X198024523Y-125166380D01*
X198215000Y-125166380D01*
X198310238Y-125118761D01*
X198357857Y-125071142D01*
X198405476Y-124975904D01*
X198405476Y-124166380D01*
X173069523Y-127071380D02*
X173069523Y-126071380D01*
X173402857Y-126785666D01*
X173736190Y-126071380D01*
X173736190Y-127071380D01*
X174117142Y-126071380D02*
X174783809Y-127071380D01*
X174783809Y-126071380D02*
X174117142Y-127071380D01*
X174926666Y-127166619D02*
X175688571Y-127166619D01*
X176450476Y-127071380D02*
X175879047Y-127071380D01*
X176164761Y-127071380D02*
X176164761Y-126071380D01*
X176069523Y-126214238D01*
X175974285Y-126309476D01*
X175879047Y-126357095D01*
X176879047Y-126071380D02*
X176879047Y-126880904D01*
X176926666Y-126976142D01*
X176974285Y-127023761D01*
X177069523Y-127071380D01*
X177260000Y-127071380D01*
X177355238Y-127023761D01*
X177402857Y-126976142D01*
X177450476Y-126880904D01*
X177450476Y-126071380D01*
X154019523Y-127071380D02*
X154019523Y-126071380D01*
X154352857Y-126785666D01*
X154686190Y-126071380D01*
X154686190Y-127071380D01*
X155067142Y-126071380D02*
X155733809Y-127071380D01*
X155733809Y-126071380D02*
X155067142Y-127071380D01*
X155876666Y-127166619D02*
X156638571Y-127166619D01*
X157400476Y-127071380D02*
X156829047Y-127071380D01*
X157114761Y-127071380D02*
X157114761Y-126071380D01*
X157019523Y-126214238D01*
X156924285Y-126309476D01*
X156829047Y-126357095D01*
X157829047Y-126071380D02*
X157829047Y-126880904D01*
X157876666Y-126976142D01*
X157924285Y-127023761D01*
X158019523Y-127071380D01*
X158210000Y-127071380D01*
X158305238Y-127023761D01*
X158352857Y-126976142D01*
X158400476Y-126880904D01*
X158400476Y-126071380D01*
X134969523Y-127071380D02*
X134969523Y-126071380D01*
X135302857Y-126785666D01*
X135636190Y-126071380D01*
X135636190Y-127071380D01*
X136017142Y-126071380D02*
X136683809Y-127071380D01*
X136683809Y-126071380D02*
X136017142Y-127071380D01*
X136826666Y-127166619D02*
X137588571Y-127166619D01*
X138350476Y-127071380D02*
X137779047Y-127071380D01*
X138064761Y-127071380D02*
X138064761Y-126071380D01*
X137969523Y-126214238D01*
X137874285Y-126309476D01*
X137779047Y-126357095D01*
X138779047Y-126071380D02*
X138779047Y-126880904D01*
X138826666Y-126976142D01*
X138874285Y-127023761D01*
X138969523Y-127071380D01*
X139160000Y-127071380D01*
X139255238Y-127023761D01*
X139302857Y-126976142D01*
X139350476Y-126880904D01*
X139350476Y-126071380D01*
X115919523Y-127071380D02*
X115919523Y-126071380D01*
X116252857Y-126785666D01*
X116586190Y-126071380D01*
X116586190Y-127071380D01*
X116967142Y-126071380D02*
X117633809Y-127071380D01*
X117633809Y-126071380D02*
X116967142Y-127071380D01*
X117776666Y-127166619D02*
X118538571Y-127166619D01*
X119300476Y-127071380D02*
X118729047Y-127071380D01*
X119014761Y-127071380D02*
X119014761Y-126071380D01*
X118919523Y-126214238D01*
X118824285Y-126309476D01*
X118729047Y-126357095D01*
X119729047Y-126071380D02*
X119729047Y-126880904D01*
X119776666Y-126976142D01*
X119824285Y-127023761D01*
X119919523Y-127071380D01*
X120110000Y-127071380D01*
X120205238Y-127023761D01*
X120252857Y-126976142D01*
X120300476Y-126880904D01*
X120300476Y-126071380D01*
X98774523Y-125166380D02*
X98774523Y-124166380D01*
X99107857Y-124880666D01*
X99441190Y-124166380D01*
X99441190Y-125166380D01*
X99822142Y-124166380D02*
X100488809Y-125166380D01*
X100488809Y-124166380D02*
X99822142Y-125166380D01*
X100631666Y-125261619D02*
X101393571Y-125261619D01*
X102155476Y-125166380D02*
X101584047Y-125166380D01*
X101869761Y-125166380D02*
X101869761Y-124166380D01*
X101774523Y-124309238D01*
X101679285Y-124404476D01*
X101584047Y-124452095D01*
X102584047Y-124166380D02*
X102584047Y-124975904D01*
X102631666Y-125071142D01*
X102679285Y-125118761D01*
X102774523Y-125166380D01*
X102965000Y-125166380D01*
X103060238Y-125118761D01*
X103107857Y-125071142D01*
X103155476Y-124975904D01*
X103155476Y-124166380D01*
X79724523Y-125166380D02*
X79724523Y-124166380D01*
X80057857Y-124880666D01*
X80391190Y-124166380D01*
X80391190Y-125166380D01*
X80772142Y-124166380D02*
X81438809Y-125166380D01*
X81438809Y-124166380D02*
X80772142Y-125166380D01*
X81581666Y-125261619D02*
X82343571Y-125261619D01*
X83105476Y-125166380D02*
X82534047Y-125166380D01*
X82819761Y-125166380D02*
X82819761Y-124166380D01*
X82724523Y-124309238D01*
X82629285Y-124404476D01*
X82534047Y-124452095D01*
X83534047Y-124166380D02*
X83534047Y-124975904D01*
X83581666Y-125071142D01*
X83629285Y-125118761D01*
X83724523Y-125166380D01*
X83915000Y-125166380D01*
X84010238Y-125118761D01*
X84057857Y-125071142D01*
X84105476Y-124975904D01*
X84105476Y-124166380D01*
X60674523Y-125166380D02*
X60674523Y-124166380D01*
X61007857Y-124880666D01*
X61341190Y-124166380D01*
X61341190Y-125166380D01*
X61722142Y-124166380D02*
X62388809Y-125166380D01*
X62388809Y-124166380D02*
X61722142Y-125166380D01*
X62531666Y-125261619D02*
X63293571Y-125261619D01*
X64055476Y-125166380D02*
X63484047Y-125166380D01*
X63769761Y-125166380D02*
X63769761Y-124166380D01*
X63674523Y-124309238D01*
X63579285Y-124404476D01*
X63484047Y-124452095D01*
X64484047Y-124166380D02*
X64484047Y-124975904D01*
X64531666Y-125071142D01*
X64579285Y-125118761D01*
X64674523Y-125166380D01*
X64865000Y-125166380D01*
X64960238Y-125118761D01*
X65007857Y-125071142D01*
X65055476Y-124975904D01*
X65055476Y-124166380D01*
X41624523Y-125166380D02*
X41624523Y-124166380D01*
X41957857Y-124880666D01*
X42291190Y-124166380D01*
X42291190Y-125166380D01*
X42672142Y-124166380D02*
X43338809Y-125166380D01*
X43338809Y-124166380D02*
X42672142Y-125166380D01*
X43481666Y-125261619D02*
X44243571Y-125261619D01*
X45005476Y-125166380D02*
X44434047Y-125166380D01*
X44719761Y-125166380D02*
X44719761Y-124166380D01*
X44624523Y-124309238D01*
X44529285Y-124404476D01*
X44434047Y-124452095D01*
X45434047Y-124166380D02*
X45434047Y-124975904D01*
X45481666Y-125071142D01*
X45529285Y-125118761D01*
X45624523Y-125166380D01*
X45815000Y-125166380D01*
X45910238Y-125118761D01*
X45957857Y-125071142D01*
X46005476Y-124975904D01*
X46005476Y-124166380D01*
X251174523Y-106116380D02*
X251174523Y-105116380D01*
X251507857Y-105830666D01*
X251841190Y-105116380D01*
X251841190Y-106116380D01*
X252222142Y-105116380D02*
X252888809Y-106116380D01*
X252888809Y-105116380D02*
X252222142Y-106116380D01*
X253031666Y-106211619D02*
X253793571Y-106211619D01*
X254555476Y-106116380D02*
X253984047Y-106116380D01*
X254269761Y-106116380D02*
X254269761Y-105116380D01*
X254174523Y-105259238D01*
X254079285Y-105354476D01*
X253984047Y-105402095D01*
X254984047Y-105116380D02*
X254984047Y-105925904D01*
X255031666Y-106021142D01*
X255079285Y-106068761D01*
X255174523Y-106116380D01*
X255365000Y-106116380D01*
X255460238Y-106068761D01*
X255507857Y-106021142D01*
X255555476Y-105925904D01*
X255555476Y-105116380D01*
X232124523Y-106116380D02*
X232124523Y-105116380D01*
X232457857Y-105830666D01*
X232791190Y-105116380D01*
X232791190Y-106116380D01*
X233172142Y-105116380D02*
X233838809Y-106116380D01*
X233838809Y-105116380D02*
X233172142Y-106116380D01*
X233981666Y-106211619D02*
X234743571Y-106211619D01*
X235505476Y-106116380D02*
X234934047Y-106116380D01*
X235219761Y-106116380D02*
X235219761Y-105116380D01*
X235124523Y-105259238D01*
X235029285Y-105354476D01*
X234934047Y-105402095D01*
X235934047Y-105116380D02*
X235934047Y-105925904D01*
X235981666Y-106021142D01*
X236029285Y-106068761D01*
X236124523Y-106116380D01*
X236315000Y-106116380D01*
X236410238Y-106068761D01*
X236457857Y-106021142D01*
X236505476Y-105925904D01*
X236505476Y-105116380D01*
X213074523Y-106116380D02*
X213074523Y-105116380D01*
X213407857Y-105830666D01*
X213741190Y-105116380D01*
X213741190Y-106116380D01*
X214122142Y-105116380D02*
X214788809Y-106116380D01*
X214788809Y-105116380D02*
X214122142Y-106116380D01*
X214931666Y-106211619D02*
X215693571Y-106211619D01*
X216455476Y-106116380D02*
X215884047Y-106116380D01*
X216169761Y-106116380D02*
X216169761Y-105116380D01*
X216074523Y-105259238D01*
X215979285Y-105354476D01*
X215884047Y-105402095D01*
X216884047Y-105116380D02*
X216884047Y-105925904D01*
X216931666Y-106021142D01*
X216979285Y-106068761D01*
X217074523Y-106116380D01*
X217265000Y-106116380D01*
X217360238Y-106068761D01*
X217407857Y-106021142D01*
X217455476Y-105925904D01*
X217455476Y-105116380D01*
X194024523Y-106116380D02*
X194024523Y-105116380D01*
X194357857Y-105830666D01*
X194691190Y-105116380D01*
X194691190Y-106116380D01*
X195072142Y-105116380D02*
X195738809Y-106116380D01*
X195738809Y-105116380D02*
X195072142Y-106116380D01*
X195881666Y-106211619D02*
X196643571Y-106211619D01*
X197405476Y-106116380D02*
X196834047Y-106116380D01*
X197119761Y-106116380D02*
X197119761Y-105116380D01*
X197024523Y-105259238D01*
X196929285Y-105354476D01*
X196834047Y-105402095D01*
X197834047Y-105116380D02*
X197834047Y-105925904D01*
X197881666Y-106021142D01*
X197929285Y-106068761D01*
X198024523Y-106116380D01*
X198215000Y-106116380D01*
X198310238Y-106068761D01*
X198357857Y-106021142D01*
X198405476Y-105925904D01*
X198405476Y-105116380D01*
X174974523Y-106116380D02*
X174974523Y-105116380D01*
X175307857Y-105830666D01*
X175641190Y-105116380D01*
X175641190Y-106116380D01*
X176022142Y-105116380D02*
X176688809Y-106116380D01*
X176688809Y-105116380D02*
X176022142Y-106116380D01*
X176831666Y-106211619D02*
X177593571Y-106211619D01*
X178355476Y-106116380D02*
X177784047Y-106116380D01*
X178069761Y-106116380D02*
X178069761Y-105116380D01*
X177974523Y-105259238D01*
X177879285Y-105354476D01*
X177784047Y-105402095D01*
X178784047Y-105116380D02*
X178784047Y-105925904D01*
X178831666Y-106021142D01*
X178879285Y-106068761D01*
X178974523Y-106116380D01*
X179165000Y-106116380D01*
X179260238Y-106068761D01*
X179307857Y-106021142D01*
X179355476Y-105925904D01*
X179355476Y-105116380D01*
X155924523Y-106116380D02*
X155924523Y-105116380D01*
X156257857Y-105830666D01*
X156591190Y-105116380D01*
X156591190Y-106116380D01*
X156972142Y-105116380D02*
X157638809Y-106116380D01*
X157638809Y-105116380D02*
X156972142Y-106116380D01*
X157781666Y-106211619D02*
X158543571Y-106211619D01*
X159305476Y-106116380D02*
X158734047Y-106116380D01*
X159019761Y-106116380D02*
X159019761Y-105116380D01*
X158924523Y-105259238D01*
X158829285Y-105354476D01*
X158734047Y-105402095D01*
X159734047Y-105116380D02*
X159734047Y-105925904D01*
X159781666Y-106021142D01*
X159829285Y-106068761D01*
X159924523Y-106116380D01*
X160115000Y-106116380D01*
X160210238Y-106068761D01*
X160257857Y-106021142D01*
X160305476Y-105925904D01*
X160305476Y-105116380D01*
X117824523Y-106116380D02*
X117824523Y-105116380D01*
X118157857Y-105830666D01*
X118491190Y-105116380D01*
X118491190Y-106116380D01*
X118872142Y-105116380D02*
X119538809Y-106116380D01*
X119538809Y-105116380D02*
X118872142Y-106116380D01*
X119681666Y-106211619D02*
X120443571Y-106211619D01*
X121205476Y-106116380D02*
X120634047Y-106116380D01*
X120919761Y-106116380D02*
X120919761Y-105116380D01*
X120824523Y-105259238D01*
X120729285Y-105354476D01*
X120634047Y-105402095D01*
X121634047Y-105116380D02*
X121634047Y-105925904D01*
X121681666Y-106021142D01*
X121729285Y-106068761D01*
X121824523Y-106116380D01*
X122015000Y-106116380D01*
X122110238Y-106068761D01*
X122157857Y-106021142D01*
X122205476Y-105925904D01*
X122205476Y-105116380D01*
X98774523Y-106116380D02*
X98774523Y-105116380D01*
X99107857Y-105830666D01*
X99441190Y-105116380D01*
X99441190Y-106116380D01*
X99822142Y-105116380D02*
X100488809Y-106116380D01*
X100488809Y-105116380D02*
X99822142Y-106116380D01*
X100631666Y-106211619D02*
X101393571Y-106211619D01*
X102155476Y-106116380D02*
X101584047Y-106116380D01*
X101869761Y-106116380D02*
X101869761Y-105116380D01*
X101774523Y-105259238D01*
X101679285Y-105354476D01*
X101584047Y-105402095D01*
X102584047Y-105116380D02*
X102584047Y-105925904D01*
X102631666Y-106021142D01*
X102679285Y-106068761D01*
X102774523Y-106116380D01*
X102965000Y-106116380D01*
X103060238Y-106068761D01*
X103107857Y-106021142D01*
X103155476Y-105925904D01*
X103155476Y-105116380D01*
X79724523Y-106116380D02*
X79724523Y-105116380D01*
X80057857Y-105830666D01*
X80391190Y-105116380D01*
X80391190Y-106116380D01*
X80772142Y-105116380D02*
X81438809Y-106116380D01*
X81438809Y-105116380D02*
X80772142Y-106116380D01*
X81581666Y-106211619D02*
X82343571Y-106211619D01*
X83105476Y-106116380D02*
X82534047Y-106116380D01*
X82819761Y-106116380D02*
X82819761Y-105116380D01*
X82724523Y-105259238D01*
X82629285Y-105354476D01*
X82534047Y-105402095D01*
X83534047Y-105116380D02*
X83534047Y-105925904D01*
X83581666Y-106021142D01*
X83629285Y-106068761D01*
X83724523Y-106116380D01*
X83915000Y-106116380D01*
X84010238Y-106068761D01*
X84057857Y-106021142D01*
X84105476Y-105925904D01*
X84105476Y-105116380D01*
X60674523Y-106116380D02*
X60674523Y-105116380D01*
X61007857Y-105830666D01*
X61341190Y-105116380D01*
X61341190Y-106116380D01*
X61722142Y-105116380D02*
X62388809Y-106116380D01*
X62388809Y-105116380D02*
X61722142Y-106116380D01*
X62531666Y-106211619D02*
X63293571Y-106211619D01*
X64055476Y-106116380D02*
X63484047Y-106116380D01*
X63769761Y-106116380D02*
X63769761Y-105116380D01*
X63674523Y-105259238D01*
X63579285Y-105354476D01*
X63484047Y-105402095D01*
X64484047Y-105116380D02*
X64484047Y-105925904D01*
X64531666Y-106021142D01*
X64579285Y-106068761D01*
X64674523Y-106116380D01*
X64865000Y-106116380D01*
X64960238Y-106068761D01*
X65007857Y-106021142D01*
X65055476Y-105925904D01*
X65055476Y-105116380D01*
X41624523Y-106116380D02*
X41624523Y-105116380D01*
X41957857Y-105830666D01*
X42291190Y-105116380D01*
X42291190Y-106116380D01*
X42672142Y-105116380D02*
X43338809Y-106116380D01*
X43338809Y-105116380D02*
X42672142Y-106116380D01*
X43481666Y-106211619D02*
X44243571Y-106211619D01*
X45005476Y-106116380D02*
X44434047Y-106116380D01*
X44719761Y-106116380D02*
X44719761Y-105116380D01*
X44624523Y-105259238D01*
X44529285Y-105354476D01*
X44434047Y-105402095D01*
X45434047Y-105116380D02*
X45434047Y-105925904D01*
X45481666Y-106021142D01*
X45529285Y-106068761D01*
X45624523Y-106116380D01*
X45815000Y-106116380D01*
X45910238Y-106068761D01*
X45957857Y-106021142D01*
X46005476Y-105925904D01*
X46005476Y-105116380D01*
X251174523Y-87066380D02*
X251174523Y-86066380D01*
X251507857Y-86780666D01*
X251841190Y-86066380D01*
X251841190Y-87066380D01*
X252222142Y-86066380D02*
X252888809Y-87066380D01*
X252888809Y-86066380D02*
X252222142Y-87066380D01*
X253031666Y-87161619D02*
X253793571Y-87161619D01*
X254555476Y-87066380D02*
X253984047Y-87066380D01*
X254269761Y-87066380D02*
X254269761Y-86066380D01*
X254174523Y-86209238D01*
X254079285Y-86304476D01*
X253984047Y-86352095D01*
X254984047Y-86066380D02*
X254984047Y-86875904D01*
X255031666Y-86971142D01*
X255079285Y-87018761D01*
X255174523Y-87066380D01*
X255365000Y-87066380D01*
X255460238Y-87018761D01*
X255507857Y-86971142D01*
X255555476Y-86875904D01*
X255555476Y-86066380D01*
X232124523Y-87066380D02*
X232124523Y-86066380D01*
X232457857Y-86780666D01*
X232791190Y-86066380D01*
X232791190Y-87066380D01*
X233172142Y-86066380D02*
X233838809Y-87066380D01*
X233838809Y-86066380D02*
X233172142Y-87066380D01*
X233981666Y-87161619D02*
X234743571Y-87161619D01*
X235505476Y-87066380D02*
X234934047Y-87066380D01*
X235219761Y-87066380D02*
X235219761Y-86066380D01*
X235124523Y-86209238D01*
X235029285Y-86304476D01*
X234934047Y-86352095D01*
X235934047Y-86066380D02*
X235934047Y-86875904D01*
X235981666Y-86971142D01*
X236029285Y-87018761D01*
X236124523Y-87066380D01*
X236315000Y-87066380D01*
X236410238Y-87018761D01*
X236457857Y-86971142D01*
X236505476Y-86875904D01*
X236505476Y-86066380D01*
X213074523Y-87066380D02*
X213074523Y-86066380D01*
X213407857Y-86780666D01*
X213741190Y-86066380D01*
X213741190Y-87066380D01*
X214122142Y-86066380D02*
X214788809Y-87066380D01*
X214788809Y-86066380D02*
X214122142Y-87066380D01*
X214931666Y-87161619D02*
X215693571Y-87161619D01*
X216455476Y-87066380D02*
X215884047Y-87066380D01*
X216169761Y-87066380D02*
X216169761Y-86066380D01*
X216074523Y-86209238D01*
X215979285Y-86304476D01*
X215884047Y-86352095D01*
X216884047Y-86066380D02*
X216884047Y-86875904D01*
X216931666Y-86971142D01*
X216979285Y-87018761D01*
X217074523Y-87066380D01*
X217265000Y-87066380D01*
X217360238Y-87018761D01*
X217407857Y-86971142D01*
X217455476Y-86875904D01*
X217455476Y-86066380D01*
X194024523Y-87066380D02*
X194024523Y-86066380D01*
X194357857Y-86780666D01*
X194691190Y-86066380D01*
X194691190Y-87066380D01*
X195072142Y-86066380D02*
X195738809Y-87066380D01*
X195738809Y-86066380D02*
X195072142Y-87066380D01*
X195881666Y-87161619D02*
X196643571Y-87161619D01*
X197405476Y-87066380D02*
X196834047Y-87066380D01*
X197119761Y-87066380D02*
X197119761Y-86066380D01*
X197024523Y-86209238D01*
X196929285Y-86304476D01*
X196834047Y-86352095D01*
X197834047Y-86066380D02*
X197834047Y-86875904D01*
X197881666Y-86971142D01*
X197929285Y-87018761D01*
X198024523Y-87066380D01*
X198215000Y-87066380D01*
X198310238Y-87018761D01*
X198357857Y-86971142D01*
X198405476Y-86875904D01*
X198405476Y-86066380D01*
X174974523Y-87066380D02*
X174974523Y-86066380D01*
X175307857Y-86780666D01*
X175641190Y-86066380D01*
X175641190Y-87066380D01*
X176022142Y-86066380D02*
X176688809Y-87066380D01*
X176688809Y-86066380D02*
X176022142Y-87066380D01*
X176831666Y-87161619D02*
X177593571Y-87161619D01*
X178355476Y-87066380D02*
X177784047Y-87066380D01*
X178069761Y-87066380D02*
X178069761Y-86066380D01*
X177974523Y-86209238D01*
X177879285Y-86304476D01*
X177784047Y-86352095D01*
X178784047Y-86066380D02*
X178784047Y-86875904D01*
X178831666Y-86971142D01*
X178879285Y-87018761D01*
X178974523Y-87066380D01*
X179165000Y-87066380D01*
X179260238Y-87018761D01*
X179307857Y-86971142D01*
X179355476Y-86875904D01*
X179355476Y-86066380D01*
X155924523Y-87066380D02*
X155924523Y-86066380D01*
X156257857Y-86780666D01*
X156591190Y-86066380D01*
X156591190Y-87066380D01*
X156972142Y-86066380D02*
X157638809Y-87066380D01*
X157638809Y-86066380D02*
X156972142Y-87066380D01*
X157781666Y-87161619D02*
X158543571Y-87161619D01*
X159305476Y-87066380D02*
X158734047Y-87066380D01*
X159019761Y-87066380D02*
X159019761Y-86066380D01*
X158924523Y-86209238D01*
X158829285Y-86304476D01*
X158734047Y-86352095D01*
X159734047Y-86066380D02*
X159734047Y-86875904D01*
X159781666Y-86971142D01*
X159829285Y-87018761D01*
X159924523Y-87066380D01*
X160115000Y-87066380D01*
X160210238Y-87018761D01*
X160257857Y-86971142D01*
X160305476Y-86875904D01*
X160305476Y-86066380D01*
X136874523Y-87066380D02*
X136874523Y-86066380D01*
X137207857Y-86780666D01*
X137541190Y-86066380D01*
X137541190Y-87066380D01*
X137922142Y-86066380D02*
X138588809Y-87066380D01*
X138588809Y-86066380D02*
X137922142Y-87066380D01*
X138731666Y-87161619D02*
X139493571Y-87161619D01*
X140255476Y-87066380D02*
X139684047Y-87066380D01*
X139969761Y-87066380D02*
X139969761Y-86066380D01*
X139874523Y-86209238D01*
X139779285Y-86304476D01*
X139684047Y-86352095D01*
X140684047Y-86066380D02*
X140684047Y-86875904D01*
X140731666Y-86971142D01*
X140779285Y-87018761D01*
X140874523Y-87066380D01*
X141065000Y-87066380D01*
X141160238Y-87018761D01*
X141207857Y-86971142D01*
X141255476Y-86875904D01*
X141255476Y-86066380D01*
X117824523Y-87066380D02*
X117824523Y-86066380D01*
X118157857Y-86780666D01*
X118491190Y-86066380D01*
X118491190Y-87066380D01*
X118872142Y-86066380D02*
X119538809Y-87066380D01*
X119538809Y-86066380D02*
X118872142Y-87066380D01*
X119681666Y-87161619D02*
X120443571Y-87161619D01*
X121205476Y-87066380D02*
X120634047Y-87066380D01*
X120919761Y-87066380D02*
X120919761Y-86066380D01*
X120824523Y-86209238D01*
X120729285Y-86304476D01*
X120634047Y-86352095D01*
X121634047Y-86066380D02*
X121634047Y-86875904D01*
X121681666Y-86971142D01*
X121729285Y-87018761D01*
X121824523Y-87066380D01*
X122015000Y-87066380D01*
X122110238Y-87018761D01*
X122157857Y-86971142D01*
X122205476Y-86875904D01*
X122205476Y-86066380D01*
X60674523Y-87066380D02*
X60674523Y-86066380D01*
X61007857Y-86780666D01*
X61341190Y-86066380D01*
X61341190Y-87066380D01*
X61722142Y-86066380D02*
X62388809Y-87066380D01*
X62388809Y-86066380D02*
X61722142Y-87066380D01*
X62531666Y-87161619D02*
X63293571Y-87161619D01*
X64055476Y-87066380D02*
X63484047Y-87066380D01*
X63769761Y-87066380D02*
X63769761Y-86066380D01*
X63674523Y-86209238D01*
X63579285Y-86304476D01*
X63484047Y-86352095D01*
X64484047Y-86066380D02*
X64484047Y-86875904D01*
X64531666Y-86971142D01*
X64579285Y-87018761D01*
X64674523Y-87066380D01*
X64865000Y-87066380D01*
X64960238Y-87018761D01*
X65007857Y-86971142D01*
X65055476Y-86875904D01*
X65055476Y-86066380D01*
X41624523Y-87066380D02*
X41624523Y-86066380D01*
X41957857Y-86780666D01*
X42291190Y-86066380D01*
X42291190Y-87066380D01*
X42672142Y-86066380D02*
X43338809Y-87066380D01*
X43338809Y-86066380D02*
X42672142Y-87066380D01*
X43481666Y-87161619D02*
X44243571Y-87161619D01*
X45005476Y-87066380D02*
X44434047Y-87066380D01*
X44719761Y-87066380D02*
X44719761Y-86066380D01*
X44624523Y-86209238D01*
X44529285Y-86304476D01*
X44434047Y-86352095D01*
X45434047Y-86066380D02*
X45434047Y-86875904D01*
X45481666Y-86971142D01*
X45529285Y-87018761D01*
X45624523Y-87066380D01*
X45815000Y-87066380D01*
X45910238Y-87018761D01*
X45957857Y-86971142D01*
X46005476Y-86875904D01*
X46005476Y-86066380D01*
X251174523Y-68016380D02*
X251174523Y-67016380D01*
X251507857Y-67730666D01*
X251841190Y-67016380D01*
X251841190Y-68016380D01*
X252222142Y-67016380D02*
X252888809Y-68016380D01*
X252888809Y-67016380D02*
X252222142Y-68016380D01*
X253031666Y-68111619D02*
X253793571Y-68111619D01*
X254555476Y-68016380D02*
X253984047Y-68016380D01*
X254269761Y-68016380D02*
X254269761Y-67016380D01*
X254174523Y-67159238D01*
X254079285Y-67254476D01*
X253984047Y-67302095D01*
X254984047Y-67016380D02*
X254984047Y-67825904D01*
X255031666Y-67921142D01*
X255079285Y-67968761D01*
X255174523Y-68016380D01*
X255365000Y-68016380D01*
X255460238Y-67968761D01*
X255507857Y-67921142D01*
X255555476Y-67825904D01*
X255555476Y-67016380D01*
X232124523Y-68016380D02*
X232124523Y-67016380D01*
X232457857Y-67730666D01*
X232791190Y-67016380D01*
X232791190Y-68016380D01*
X233172142Y-67016380D02*
X233838809Y-68016380D01*
X233838809Y-67016380D02*
X233172142Y-68016380D01*
X233981666Y-68111619D02*
X234743571Y-68111619D01*
X235505476Y-68016380D02*
X234934047Y-68016380D01*
X235219761Y-68016380D02*
X235219761Y-67016380D01*
X235124523Y-67159238D01*
X235029285Y-67254476D01*
X234934047Y-67302095D01*
X235934047Y-67016380D02*
X235934047Y-67825904D01*
X235981666Y-67921142D01*
X236029285Y-67968761D01*
X236124523Y-68016380D01*
X236315000Y-68016380D01*
X236410238Y-67968761D01*
X236457857Y-67921142D01*
X236505476Y-67825904D01*
X236505476Y-67016380D01*
X213074523Y-68016380D02*
X213074523Y-67016380D01*
X213407857Y-67730666D01*
X213741190Y-67016380D01*
X213741190Y-68016380D01*
X214122142Y-67016380D02*
X214788809Y-68016380D01*
X214788809Y-67016380D02*
X214122142Y-68016380D01*
X214931666Y-68111619D02*
X215693571Y-68111619D01*
X216455476Y-68016380D02*
X215884047Y-68016380D01*
X216169761Y-68016380D02*
X216169761Y-67016380D01*
X216074523Y-67159238D01*
X215979285Y-67254476D01*
X215884047Y-67302095D01*
X216884047Y-67016380D02*
X216884047Y-67825904D01*
X216931666Y-67921142D01*
X216979285Y-67968761D01*
X217074523Y-68016380D01*
X217265000Y-68016380D01*
X217360238Y-67968761D01*
X217407857Y-67921142D01*
X217455476Y-67825904D01*
X217455476Y-67016380D01*
X194024523Y-68016380D02*
X194024523Y-67016380D01*
X194357857Y-67730666D01*
X194691190Y-67016380D01*
X194691190Y-68016380D01*
X195072142Y-67016380D02*
X195738809Y-68016380D01*
X195738809Y-67016380D02*
X195072142Y-68016380D01*
X195881666Y-68111619D02*
X196643571Y-68111619D01*
X197405476Y-68016380D02*
X196834047Y-68016380D01*
X197119761Y-68016380D02*
X197119761Y-67016380D01*
X197024523Y-67159238D01*
X196929285Y-67254476D01*
X196834047Y-67302095D01*
X197834047Y-67016380D02*
X197834047Y-67825904D01*
X197881666Y-67921142D01*
X197929285Y-67968761D01*
X198024523Y-68016380D01*
X198215000Y-68016380D01*
X198310238Y-67968761D01*
X198357857Y-67921142D01*
X198405476Y-67825904D01*
X198405476Y-67016380D01*
X174974523Y-68016380D02*
X174974523Y-67016380D01*
X175307857Y-67730666D01*
X175641190Y-67016380D01*
X175641190Y-68016380D01*
X176022142Y-67016380D02*
X176688809Y-68016380D01*
X176688809Y-67016380D02*
X176022142Y-68016380D01*
X176831666Y-68111619D02*
X177593571Y-68111619D01*
X178355476Y-68016380D02*
X177784047Y-68016380D01*
X178069761Y-68016380D02*
X178069761Y-67016380D01*
X177974523Y-67159238D01*
X177879285Y-67254476D01*
X177784047Y-67302095D01*
X178784047Y-67016380D02*
X178784047Y-67825904D01*
X178831666Y-67921142D01*
X178879285Y-67968761D01*
X178974523Y-68016380D01*
X179165000Y-68016380D01*
X179260238Y-67968761D01*
X179307857Y-67921142D01*
X179355476Y-67825904D01*
X179355476Y-67016380D01*
X155924523Y-68016380D02*
X155924523Y-67016380D01*
X156257857Y-67730666D01*
X156591190Y-67016380D01*
X156591190Y-68016380D01*
X156972142Y-67016380D02*
X157638809Y-68016380D01*
X157638809Y-67016380D02*
X156972142Y-68016380D01*
X157781666Y-68111619D02*
X158543571Y-68111619D01*
X159305476Y-68016380D02*
X158734047Y-68016380D01*
X159019761Y-68016380D02*
X159019761Y-67016380D01*
X158924523Y-67159238D01*
X158829285Y-67254476D01*
X158734047Y-67302095D01*
X159734047Y-67016380D02*
X159734047Y-67825904D01*
X159781666Y-67921142D01*
X159829285Y-67968761D01*
X159924523Y-68016380D01*
X160115000Y-68016380D01*
X160210238Y-67968761D01*
X160257857Y-67921142D01*
X160305476Y-67825904D01*
X160305476Y-67016380D01*
X136874523Y-68016380D02*
X136874523Y-67016380D01*
X137207857Y-67730666D01*
X137541190Y-67016380D01*
X137541190Y-68016380D01*
X137922142Y-67016380D02*
X138588809Y-68016380D01*
X138588809Y-67016380D02*
X137922142Y-68016380D01*
X138731666Y-68111619D02*
X139493571Y-68111619D01*
X140255476Y-68016380D02*
X139684047Y-68016380D01*
X139969761Y-68016380D02*
X139969761Y-67016380D01*
X139874523Y-67159238D01*
X139779285Y-67254476D01*
X139684047Y-67302095D01*
X140684047Y-67016380D02*
X140684047Y-67825904D01*
X140731666Y-67921142D01*
X140779285Y-67968761D01*
X140874523Y-68016380D01*
X141065000Y-68016380D01*
X141160238Y-67968761D01*
X141207857Y-67921142D01*
X141255476Y-67825904D01*
X141255476Y-67016380D01*
X117824523Y-68016380D02*
X117824523Y-67016380D01*
X118157857Y-67730666D01*
X118491190Y-67016380D01*
X118491190Y-68016380D01*
X118872142Y-67016380D02*
X119538809Y-68016380D01*
X119538809Y-67016380D02*
X118872142Y-68016380D01*
X119681666Y-68111619D02*
X120443571Y-68111619D01*
X121205476Y-68016380D02*
X120634047Y-68016380D01*
X120919761Y-68016380D02*
X120919761Y-67016380D01*
X120824523Y-67159238D01*
X120729285Y-67254476D01*
X120634047Y-67302095D01*
X121634047Y-67016380D02*
X121634047Y-67825904D01*
X121681666Y-67921142D01*
X121729285Y-67968761D01*
X121824523Y-68016380D01*
X122015000Y-68016380D01*
X122110238Y-67968761D01*
X122157857Y-67921142D01*
X122205476Y-67825904D01*
X122205476Y-67016380D01*
X98774523Y-68016380D02*
X98774523Y-67016380D01*
X99107857Y-67730666D01*
X99441190Y-67016380D01*
X99441190Y-68016380D01*
X99822142Y-67016380D02*
X100488809Y-68016380D01*
X100488809Y-67016380D02*
X99822142Y-68016380D01*
X100631666Y-68111619D02*
X101393571Y-68111619D01*
X102155476Y-68016380D02*
X101584047Y-68016380D01*
X101869761Y-68016380D02*
X101869761Y-67016380D01*
X101774523Y-67159238D01*
X101679285Y-67254476D01*
X101584047Y-67302095D01*
X102584047Y-67016380D02*
X102584047Y-67825904D01*
X102631666Y-67921142D01*
X102679285Y-67968761D01*
X102774523Y-68016380D01*
X102965000Y-68016380D01*
X103060238Y-67968761D01*
X103107857Y-67921142D01*
X103155476Y-67825904D01*
X103155476Y-67016380D01*
X79724523Y-68016380D02*
X79724523Y-67016380D01*
X80057857Y-67730666D01*
X80391190Y-67016380D01*
X80391190Y-68016380D01*
X80772142Y-67016380D02*
X81438809Y-68016380D01*
X81438809Y-67016380D02*
X80772142Y-68016380D01*
X81581666Y-68111619D02*
X82343571Y-68111619D01*
X83105476Y-68016380D02*
X82534047Y-68016380D01*
X82819761Y-68016380D02*
X82819761Y-67016380D01*
X82724523Y-67159238D01*
X82629285Y-67254476D01*
X82534047Y-67302095D01*
X83534047Y-67016380D02*
X83534047Y-67825904D01*
X83581666Y-67921142D01*
X83629285Y-67968761D01*
X83724523Y-68016380D01*
X83915000Y-68016380D01*
X84010238Y-67968761D01*
X84057857Y-67921142D01*
X84105476Y-67825904D01*
X84105476Y-67016380D01*
X41624523Y-68016380D02*
X41624523Y-67016380D01*
X41957857Y-67730666D01*
X42291190Y-67016380D01*
X42291190Y-68016380D01*
X42672142Y-67016380D02*
X43338809Y-68016380D01*
X43338809Y-67016380D02*
X42672142Y-68016380D01*
X43481666Y-68111619D02*
X44243571Y-68111619D01*
X45005476Y-68016380D02*
X44434047Y-68016380D01*
X44719761Y-68016380D02*
X44719761Y-67016380D01*
X44624523Y-67159238D01*
X44529285Y-67254476D01*
X44434047Y-67302095D01*
X45434047Y-67016380D02*
X45434047Y-67825904D01*
X45481666Y-67921142D01*
X45529285Y-67968761D01*
X45624523Y-68016380D01*
X45815000Y-68016380D01*
X45910238Y-67968761D01*
X45957857Y-67921142D01*
X46005476Y-67825904D01*
X46005476Y-67016380D01*
X251174523Y-48966380D02*
X251174523Y-47966380D01*
X251507857Y-48680666D01*
X251841190Y-47966380D01*
X251841190Y-48966380D01*
X252222142Y-47966380D02*
X252888809Y-48966380D01*
X252888809Y-47966380D02*
X252222142Y-48966380D01*
X253031666Y-49061619D02*
X253793571Y-49061619D01*
X254555476Y-48966380D02*
X253984047Y-48966380D01*
X254269761Y-48966380D02*
X254269761Y-47966380D01*
X254174523Y-48109238D01*
X254079285Y-48204476D01*
X253984047Y-48252095D01*
X254984047Y-47966380D02*
X254984047Y-48775904D01*
X255031666Y-48871142D01*
X255079285Y-48918761D01*
X255174523Y-48966380D01*
X255365000Y-48966380D01*
X255460238Y-48918761D01*
X255507857Y-48871142D01*
X255555476Y-48775904D01*
X255555476Y-47966380D01*
X232124523Y-48966380D02*
X232124523Y-47966380D01*
X232457857Y-48680666D01*
X232791190Y-47966380D01*
X232791190Y-48966380D01*
X233172142Y-47966380D02*
X233838809Y-48966380D01*
X233838809Y-47966380D02*
X233172142Y-48966380D01*
X233981666Y-49061619D02*
X234743571Y-49061619D01*
X235505476Y-48966380D02*
X234934047Y-48966380D01*
X235219761Y-48966380D02*
X235219761Y-47966380D01*
X235124523Y-48109238D01*
X235029285Y-48204476D01*
X234934047Y-48252095D01*
X235934047Y-47966380D02*
X235934047Y-48775904D01*
X235981666Y-48871142D01*
X236029285Y-48918761D01*
X236124523Y-48966380D01*
X236315000Y-48966380D01*
X236410238Y-48918761D01*
X236457857Y-48871142D01*
X236505476Y-48775904D01*
X236505476Y-47966380D01*
X213074523Y-48966380D02*
X213074523Y-47966380D01*
X213407857Y-48680666D01*
X213741190Y-47966380D01*
X213741190Y-48966380D01*
X214122142Y-47966380D02*
X214788809Y-48966380D01*
X214788809Y-47966380D02*
X214122142Y-48966380D01*
X214931666Y-49061619D02*
X215693571Y-49061619D01*
X216455476Y-48966380D02*
X215884047Y-48966380D01*
X216169761Y-48966380D02*
X216169761Y-47966380D01*
X216074523Y-48109238D01*
X215979285Y-48204476D01*
X215884047Y-48252095D01*
X216884047Y-47966380D02*
X216884047Y-48775904D01*
X216931666Y-48871142D01*
X216979285Y-48918761D01*
X217074523Y-48966380D01*
X217265000Y-48966380D01*
X217360238Y-48918761D01*
X217407857Y-48871142D01*
X217455476Y-48775904D01*
X217455476Y-47966380D01*
X194024523Y-48966380D02*
X194024523Y-47966380D01*
X194357857Y-48680666D01*
X194691190Y-47966380D01*
X194691190Y-48966380D01*
X195072142Y-47966380D02*
X195738809Y-48966380D01*
X195738809Y-47966380D02*
X195072142Y-48966380D01*
X195881666Y-49061619D02*
X196643571Y-49061619D01*
X197405476Y-48966380D02*
X196834047Y-48966380D01*
X197119761Y-48966380D02*
X197119761Y-47966380D01*
X197024523Y-48109238D01*
X196929285Y-48204476D01*
X196834047Y-48252095D01*
X197834047Y-47966380D02*
X197834047Y-48775904D01*
X197881666Y-48871142D01*
X197929285Y-48918761D01*
X198024523Y-48966380D01*
X198215000Y-48966380D01*
X198310238Y-48918761D01*
X198357857Y-48871142D01*
X198405476Y-48775904D01*
X198405476Y-47966380D01*
X174974523Y-48966380D02*
X174974523Y-47966380D01*
X175307857Y-48680666D01*
X175641190Y-47966380D01*
X175641190Y-48966380D01*
X176022142Y-47966380D02*
X176688809Y-48966380D01*
X176688809Y-47966380D02*
X176022142Y-48966380D01*
X176831666Y-49061619D02*
X177593571Y-49061619D01*
X178355476Y-48966380D02*
X177784047Y-48966380D01*
X178069761Y-48966380D02*
X178069761Y-47966380D01*
X177974523Y-48109238D01*
X177879285Y-48204476D01*
X177784047Y-48252095D01*
X178784047Y-47966380D02*
X178784047Y-48775904D01*
X178831666Y-48871142D01*
X178879285Y-48918761D01*
X178974523Y-48966380D01*
X179165000Y-48966380D01*
X179260238Y-48918761D01*
X179307857Y-48871142D01*
X179355476Y-48775904D01*
X179355476Y-47966380D01*
X155924523Y-48966380D02*
X155924523Y-47966380D01*
X156257857Y-48680666D01*
X156591190Y-47966380D01*
X156591190Y-48966380D01*
X156972142Y-47966380D02*
X157638809Y-48966380D01*
X157638809Y-47966380D02*
X156972142Y-48966380D01*
X157781666Y-49061619D02*
X158543571Y-49061619D01*
X159305476Y-48966380D02*
X158734047Y-48966380D01*
X159019761Y-48966380D02*
X159019761Y-47966380D01*
X158924523Y-48109238D01*
X158829285Y-48204476D01*
X158734047Y-48252095D01*
X159734047Y-47966380D02*
X159734047Y-48775904D01*
X159781666Y-48871142D01*
X159829285Y-48918761D01*
X159924523Y-48966380D01*
X160115000Y-48966380D01*
X160210238Y-48918761D01*
X160257857Y-48871142D01*
X160305476Y-48775904D01*
X160305476Y-47966380D01*
X136874523Y-48966380D02*
X136874523Y-47966380D01*
X137207857Y-48680666D01*
X137541190Y-47966380D01*
X137541190Y-48966380D01*
X137922142Y-47966380D02*
X138588809Y-48966380D01*
X138588809Y-47966380D02*
X137922142Y-48966380D01*
X138731666Y-49061619D02*
X139493571Y-49061619D01*
X140255476Y-48966380D02*
X139684047Y-48966380D01*
X139969761Y-48966380D02*
X139969761Y-47966380D01*
X139874523Y-48109238D01*
X139779285Y-48204476D01*
X139684047Y-48252095D01*
X140684047Y-47966380D02*
X140684047Y-48775904D01*
X140731666Y-48871142D01*
X140779285Y-48918761D01*
X140874523Y-48966380D01*
X141065000Y-48966380D01*
X141160238Y-48918761D01*
X141207857Y-48871142D01*
X141255476Y-48775904D01*
X141255476Y-47966380D01*
X117824523Y-48966380D02*
X117824523Y-47966380D01*
X118157857Y-48680666D01*
X118491190Y-47966380D01*
X118491190Y-48966380D01*
X118872142Y-47966380D02*
X119538809Y-48966380D01*
X119538809Y-47966380D02*
X118872142Y-48966380D01*
X119681666Y-49061619D02*
X120443571Y-49061619D01*
X121205476Y-48966380D02*
X120634047Y-48966380D01*
X120919761Y-48966380D02*
X120919761Y-47966380D01*
X120824523Y-48109238D01*
X120729285Y-48204476D01*
X120634047Y-48252095D01*
X121634047Y-47966380D02*
X121634047Y-48775904D01*
X121681666Y-48871142D01*
X121729285Y-48918761D01*
X121824523Y-48966380D01*
X122015000Y-48966380D01*
X122110238Y-48918761D01*
X122157857Y-48871142D01*
X122205476Y-48775904D01*
X122205476Y-47966380D01*
X98774523Y-48966380D02*
X98774523Y-47966380D01*
X99107857Y-48680666D01*
X99441190Y-47966380D01*
X99441190Y-48966380D01*
X99822142Y-47966380D02*
X100488809Y-48966380D01*
X100488809Y-47966380D02*
X99822142Y-48966380D01*
X100631666Y-49061619D02*
X101393571Y-49061619D01*
X102155476Y-48966380D02*
X101584047Y-48966380D01*
X101869761Y-48966380D02*
X101869761Y-47966380D01*
X101774523Y-48109238D01*
X101679285Y-48204476D01*
X101584047Y-48252095D01*
X102584047Y-47966380D02*
X102584047Y-48775904D01*
X102631666Y-48871142D01*
X102679285Y-48918761D01*
X102774523Y-48966380D01*
X102965000Y-48966380D01*
X103060238Y-48918761D01*
X103107857Y-48871142D01*
X103155476Y-48775904D01*
X103155476Y-47966380D01*
X79724523Y-48966380D02*
X79724523Y-47966380D01*
X80057857Y-48680666D01*
X80391190Y-47966380D01*
X80391190Y-48966380D01*
X80772142Y-47966380D02*
X81438809Y-48966380D01*
X81438809Y-47966380D02*
X80772142Y-48966380D01*
X81581666Y-49061619D02*
X82343571Y-49061619D01*
X83105476Y-48966380D02*
X82534047Y-48966380D01*
X82819761Y-48966380D02*
X82819761Y-47966380D01*
X82724523Y-48109238D01*
X82629285Y-48204476D01*
X82534047Y-48252095D01*
X83534047Y-47966380D02*
X83534047Y-48775904D01*
X83581666Y-48871142D01*
X83629285Y-48918761D01*
X83724523Y-48966380D01*
X83915000Y-48966380D01*
X84010238Y-48918761D01*
X84057857Y-48871142D01*
X84105476Y-48775904D01*
X84105476Y-47966380D01*
X60674523Y-48966380D02*
X60674523Y-47966380D01*
X61007857Y-48680666D01*
X61341190Y-47966380D01*
X61341190Y-48966380D01*
X61722142Y-47966380D02*
X62388809Y-48966380D01*
X62388809Y-47966380D02*
X61722142Y-48966380D01*
X62531666Y-49061619D02*
X63293571Y-49061619D01*
X64055476Y-48966380D02*
X63484047Y-48966380D01*
X63769761Y-48966380D02*
X63769761Y-47966380D01*
X63674523Y-48109238D01*
X63579285Y-48204476D01*
X63484047Y-48252095D01*
X64484047Y-47966380D02*
X64484047Y-48775904D01*
X64531666Y-48871142D01*
X64579285Y-48918761D01*
X64674523Y-48966380D01*
X64865000Y-48966380D01*
X64960238Y-48918761D01*
X65007857Y-48871142D01*
X65055476Y-48775904D01*
X65055476Y-47966380D01*
X41624523Y-48966380D02*
X41624523Y-47966380D01*
X41957857Y-48680666D01*
X42291190Y-47966380D01*
X42291190Y-48966380D01*
X42672142Y-47966380D02*
X43338809Y-48966380D01*
X43338809Y-47966380D02*
X42672142Y-48966380D01*
X43481666Y-49061619D02*
X44243571Y-49061619D01*
X45005476Y-48966380D02*
X44434047Y-48966380D01*
X44719761Y-48966380D02*
X44719761Y-47966380D01*
X44624523Y-48109238D01*
X44529285Y-48204476D01*
X44434047Y-48252095D01*
X45434047Y-47966380D02*
X45434047Y-48775904D01*
X45481666Y-48871142D01*
X45529285Y-48918761D01*
X45624523Y-48966380D01*
X45815000Y-48966380D01*
X45910238Y-48918761D01*
X45957857Y-48871142D01*
X46005476Y-48775904D01*
X46005476Y-47966380D01*
X43172142Y-64587380D02*
X42695952Y-64587380D01*
X42695952Y-63587380D01*
X43505476Y-64063571D02*
X43838809Y-64063571D01*
X43981666Y-64587380D02*
X43505476Y-64587380D01*
X43505476Y-63587380D01*
X43981666Y-63587380D01*
X44410238Y-64587380D02*
X44410238Y-63587380D01*
X44648333Y-63587380D01*
X44791190Y-63635000D01*
X44886428Y-63730238D01*
X44934047Y-63825476D01*
X44981666Y-64015952D01*
X44981666Y-64158809D01*
X44934047Y-64349285D01*
X44886428Y-64444523D01*
X44791190Y-64539761D01*
X44648333Y-64587380D01*
X44410238Y-64587380D01*
%LPC*%
D12*
X55245000Y-48260000D03*
D13*
G36*
X70952206Y-95671049D02*
G01*
X70993511Y-95677176D01*
X71034016Y-95687322D01*
X71073332Y-95701389D01*
X71111079Y-95719243D01*
X71146895Y-95740710D01*
X71180434Y-95765584D01*
X71211374Y-95793626D01*
X71239416Y-95824566D01*
X71264290Y-95858105D01*
X71285757Y-95893921D01*
X71303611Y-95931668D01*
X71317678Y-95970984D01*
X71327824Y-96011489D01*
X71333951Y-96052794D01*
X71336000Y-96094500D01*
X71336000Y-96945500D01*
X71333951Y-96987206D01*
X71327824Y-97028511D01*
X71317678Y-97069016D01*
X71303611Y-97108332D01*
X71285757Y-97146079D01*
X71264290Y-97181895D01*
X71239416Y-97215434D01*
X71211374Y-97246374D01*
X71180434Y-97274416D01*
X71146895Y-97299290D01*
X71111079Y-97320757D01*
X71073332Y-97338611D01*
X71034016Y-97352678D01*
X70993511Y-97362824D01*
X70952206Y-97368951D01*
X70910500Y-97371000D01*
X70059500Y-97371000D01*
X70017794Y-97368951D01*
X69976489Y-97362824D01*
X69935984Y-97352678D01*
X69896668Y-97338611D01*
X69858921Y-97320757D01*
X69823105Y-97299290D01*
X69789566Y-97274416D01*
X69758626Y-97246374D01*
X69730584Y-97215434D01*
X69705710Y-97181895D01*
X69684243Y-97146079D01*
X69666389Y-97108332D01*
X69652322Y-97069016D01*
X69642176Y-97028511D01*
X69636049Y-96987206D01*
X69634000Y-96945500D01*
X69634000Y-96094500D01*
X69636049Y-96052794D01*
X69642176Y-96011489D01*
X69652322Y-95970984D01*
X69666389Y-95931668D01*
X69684243Y-95893921D01*
X69705710Y-95858105D01*
X69730584Y-95824566D01*
X69758626Y-95793626D01*
X69789566Y-95765584D01*
X69823105Y-95740710D01*
X69858921Y-95719243D01*
X69896668Y-95701389D01*
X69935984Y-95687322D01*
X69976489Y-95677176D01*
X70017794Y-95671049D01*
X70059500Y-95669000D01*
X70910500Y-95669000D01*
X70952206Y-95671049D01*
X70952206Y-95671049D01*
G37*
D14*
X70485000Y-96520000D03*
D15*
X55245000Y-50800000D03*
X70485000Y-93980000D03*
D13*
G36*
X55712206Y-52491049D02*
G01*
X55753511Y-52497176D01*
X55794016Y-52507322D01*
X55833332Y-52521389D01*
X55871079Y-52539243D01*
X55906895Y-52560710D01*
X55940434Y-52585584D01*
X55971374Y-52613626D01*
X55999416Y-52644566D01*
X56024290Y-52678105D01*
X56045757Y-52713921D01*
X56063611Y-52751668D01*
X56077678Y-52790984D01*
X56087824Y-52831489D01*
X56093951Y-52872794D01*
X56096000Y-52914500D01*
X56096000Y-53765500D01*
X56093951Y-53807206D01*
X56087824Y-53848511D01*
X56077678Y-53889016D01*
X56063611Y-53928332D01*
X56045757Y-53966079D01*
X56024290Y-54001895D01*
X55999416Y-54035434D01*
X55971374Y-54066374D01*
X55940434Y-54094416D01*
X55906895Y-54119290D01*
X55871079Y-54140757D01*
X55833332Y-54158611D01*
X55794016Y-54172678D01*
X55753511Y-54182824D01*
X55712206Y-54188951D01*
X55670500Y-54191000D01*
X54819500Y-54191000D01*
X54777794Y-54188951D01*
X54736489Y-54182824D01*
X54695984Y-54172678D01*
X54656668Y-54158611D01*
X54618921Y-54140757D01*
X54583105Y-54119290D01*
X54549566Y-54094416D01*
X54518626Y-54066374D01*
X54490584Y-54035434D01*
X54465710Y-54001895D01*
X54444243Y-53966079D01*
X54426389Y-53928332D01*
X54412322Y-53889016D01*
X54402176Y-53848511D01*
X54396049Y-53807206D01*
X54394000Y-53765500D01*
X54394000Y-52914500D01*
X54396049Y-52872794D01*
X54402176Y-52831489D01*
X54412322Y-52790984D01*
X54426389Y-52751668D01*
X54444243Y-52713921D01*
X54465710Y-52678105D01*
X54490584Y-52644566D01*
X54518626Y-52613626D01*
X54549566Y-52585584D01*
X54583105Y-52560710D01*
X54618921Y-52539243D01*
X54656668Y-52521389D01*
X54695984Y-52507322D01*
X54736489Y-52497176D01*
X54777794Y-52491049D01*
X54819500Y-52489000D01*
X55670500Y-52489000D01*
X55712206Y-52491049D01*
X55712206Y-52491049D01*
G37*
D14*
X55245000Y-53340000D03*
D12*
X70485000Y-91440000D03*
D16*
X55245000Y-55880000D03*
X70485000Y-88900000D03*
D17*
X55245000Y-58420000D03*
D16*
X70485000Y-86360000D03*
X55245000Y-60960000D03*
X70485000Y-83820000D03*
X55245000Y-63500000D03*
X70485000Y-81280000D03*
D17*
X55245000Y-66040000D03*
D16*
X70485000Y-78740000D03*
D17*
X55245000Y-68580000D03*
D16*
X70485000Y-76200000D03*
D17*
X55245000Y-71120000D03*
D16*
X70485000Y-73660000D03*
D17*
X55245000Y-73660000D03*
D16*
X70485000Y-71120000D03*
X55245000Y-76200000D03*
D17*
X70485000Y-68580000D03*
D16*
X55245000Y-78740000D03*
D17*
X70485000Y-66040000D03*
D16*
X55245000Y-81280000D03*
X70485000Y-63500000D03*
X55245000Y-83820000D03*
D17*
X70485000Y-60960000D03*
X55245000Y-86360000D03*
D16*
X70485000Y-58420000D03*
D17*
X55245000Y-88900000D03*
D16*
X70485000Y-55880000D03*
D17*
X55245000Y-91440000D03*
D16*
X70485000Y-53340000D03*
D17*
X55245000Y-93980000D03*
D16*
X70485000Y-50800000D03*
D18*
X55245000Y-96520000D03*
D16*
X70485000Y-48260000D03*
D19*
X86995000Y-93980000D03*
X76835000Y-93980000D03*
D20*
X81915000Y-93980000D03*
D21*
X78105000Y-91440000D03*
X84455000Y-88900000D03*
D19*
X106045000Y-93980000D03*
X95885000Y-93980000D03*
D20*
X100965000Y-93980000D03*
D21*
X97155000Y-91440000D03*
X103505000Y-88900000D03*
D19*
X144145000Y-113030000D03*
X133985000Y-113030000D03*
D20*
X139065000Y-113030000D03*
D21*
X135255000Y-110490000D03*
X141605000Y-107950000D03*
D19*
X67945000Y-74930000D03*
X57785000Y-74930000D03*
D20*
X62865000Y-74930000D03*
D21*
X59055000Y-72390000D03*
X65405000Y-69850000D03*
D22*
X36830000Y-59055000D03*
D23*
X36830000Y-61595000D03*
X36830000Y-64135000D03*
D24*
X168910000Y-137160000D03*
D25*
X166370000Y-137160000D03*
D24*
X149860000Y-137160000D03*
D25*
X147320000Y-137160000D03*
X128270000Y-137160000D03*
D24*
X130810000Y-137160000D03*
D21*
X170180000Y-127000000D03*
X163830000Y-129540000D03*
D20*
X167640000Y-132080000D03*
D19*
X162560000Y-132080000D03*
X172720000Y-132080000D03*
D20*
X155740000Y-123840000D03*
X179540000Y-123840000D03*
D26*
X179540000Y-139080000D03*
X155740000Y-139080000D03*
D21*
X151130000Y-127000000D03*
X144780000Y-129540000D03*
D20*
X148590000Y-132080000D03*
D19*
X143510000Y-132080000D03*
X153670000Y-132080000D03*
D20*
X136690000Y-123840000D03*
X160490000Y-123840000D03*
D26*
X160490000Y-139080000D03*
X136690000Y-139080000D03*
D21*
X132080000Y-127000000D03*
X125730000Y-129540000D03*
D20*
X129540000Y-132080000D03*
D19*
X124460000Y-132080000D03*
X134620000Y-132080000D03*
D20*
X117640000Y-123840000D03*
X141440000Y-123840000D03*
D26*
X141440000Y-139080000D03*
X117640000Y-139080000D03*
D24*
X254635000Y-137160000D03*
D25*
X252095000Y-137160000D03*
D24*
X235585000Y-137160000D03*
D25*
X233045000Y-137160000D03*
D24*
X216535000Y-137160000D03*
D25*
X213995000Y-137160000D03*
D24*
X197485000Y-137160000D03*
D25*
X194945000Y-137160000D03*
D24*
X178435000Y-137160000D03*
D25*
X175895000Y-137160000D03*
D24*
X159385000Y-137160000D03*
D25*
X156845000Y-137160000D03*
D24*
X140335000Y-137160000D03*
D25*
X137795000Y-137160000D03*
D24*
X121285000Y-137160000D03*
D25*
X118745000Y-137160000D03*
D24*
X102235000Y-137160000D03*
D25*
X99695000Y-137160000D03*
D24*
X83185000Y-137160000D03*
D25*
X80645000Y-137160000D03*
D24*
X64135000Y-137160000D03*
D25*
X61595000Y-137160000D03*
D24*
X45085000Y-137160000D03*
D25*
X42545000Y-137160000D03*
D24*
X254635000Y-118110000D03*
D25*
X252095000Y-118110000D03*
D24*
X235585000Y-118110000D03*
D25*
X233045000Y-118110000D03*
D24*
X216535000Y-118110000D03*
D25*
X213995000Y-118110000D03*
D24*
X197485000Y-118110000D03*
D25*
X194945000Y-118110000D03*
D24*
X178435000Y-118110000D03*
D25*
X175895000Y-118110000D03*
D24*
X159385000Y-118110000D03*
D25*
X156845000Y-118110000D03*
D24*
X140335000Y-118110000D03*
D25*
X137795000Y-118110000D03*
D24*
X121285000Y-118110000D03*
D25*
X118745000Y-118110000D03*
D24*
X102235000Y-118110000D03*
D25*
X99695000Y-118110000D03*
D24*
X83185000Y-118110000D03*
D25*
X80645000Y-118110000D03*
D24*
X64135000Y-118110000D03*
D25*
X61595000Y-118110000D03*
D24*
X45085000Y-118110000D03*
D25*
X42545000Y-118110000D03*
D24*
X254635000Y-99060000D03*
D25*
X252095000Y-99060000D03*
D24*
X235585000Y-99060000D03*
D25*
X233045000Y-99060000D03*
D24*
X216535000Y-99060000D03*
D25*
X213995000Y-99060000D03*
D24*
X197485000Y-99060000D03*
D25*
X194945000Y-99060000D03*
D24*
X178435000Y-99060000D03*
D25*
X175895000Y-99060000D03*
D24*
X159385000Y-99060000D03*
D25*
X156845000Y-99060000D03*
D24*
X140335000Y-99060000D03*
D25*
X137795000Y-99060000D03*
D24*
X121285000Y-99060000D03*
D25*
X118745000Y-99060000D03*
D24*
X102235000Y-99060000D03*
D25*
X99695000Y-99060000D03*
D24*
X83185000Y-99060000D03*
D25*
X80645000Y-99060000D03*
D24*
X64135000Y-99060000D03*
D25*
X61595000Y-99060000D03*
D24*
X45085000Y-99060000D03*
D25*
X42545000Y-99060000D03*
D24*
X254635000Y-80010000D03*
D25*
X252095000Y-80010000D03*
D24*
X235585000Y-80010000D03*
D25*
X233045000Y-80010000D03*
D24*
X216535000Y-80010000D03*
D25*
X213995000Y-80010000D03*
D24*
X197485000Y-80010000D03*
D25*
X194945000Y-80010000D03*
D24*
X178435000Y-80010000D03*
D25*
X175895000Y-80010000D03*
D24*
X159385000Y-80010000D03*
D25*
X156845000Y-80010000D03*
D24*
X140335000Y-80010000D03*
D25*
X137795000Y-80010000D03*
D24*
X121285000Y-80010000D03*
D25*
X118745000Y-80010000D03*
D24*
X102235000Y-80010000D03*
D25*
X99695000Y-80010000D03*
D24*
X83185000Y-80010000D03*
D25*
X80645000Y-80010000D03*
D24*
X64135000Y-80010000D03*
D25*
X61595000Y-80010000D03*
D24*
X45085000Y-80010000D03*
D25*
X42545000Y-80010000D03*
D24*
X254635000Y-60960000D03*
D25*
X252095000Y-60960000D03*
D24*
X235585000Y-60960000D03*
D25*
X233045000Y-60960000D03*
D24*
X216535000Y-60960000D03*
D25*
X213995000Y-60960000D03*
D24*
X197485000Y-60960000D03*
D25*
X194945000Y-60960000D03*
D24*
X178435000Y-60960000D03*
D25*
X175895000Y-60960000D03*
D24*
X159385000Y-60960000D03*
D25*
X156845000Y-60960000D03*
D24*
X140335000Y-60960000D03*
D25*
X137795000Y-60960000D03*
D24*
X121285000Y-60960000D03*
D25*
X118745000Y-60960000D03*
D24*
X102235000Y-60960000D03*
D25*
X99695000Y-60960000D03*
D24*
X83185000Y-60960000D03*
D25*
X80645000Y-60960000D03*
D24*
X64135000Y-60960000D03*
D25*
X61595000Y-60960000D03*
D19*
X258445000Y-132080000D03*
X248285000Y-132080000D03*
D20*
X253365000Y-132080000D03*
D21*
X249555000Y-129540000D03*
X255905000Y-127000000D03*
D19*
X239395000Y-132080000D03*
X229235000Y-132080000D03*
D20*
X234315000Y-132080000D03*
D21*
X230505000Y-129540000D03*
X236855000Y-127000000D03*
D19*
X220345000Y-132080000D03*
X210185000Y-132080000D03*
D20*
X215265000Y-132080000D03*
D21*
X211455000Y-129540000D03*
X217805000Y-127000000D03*
D19*
X201295000Y-132080000D03*
X191135000Y-132080000D03*
D20*
X196215000Y-132080000D03*
D21*
X192405000Y-129540000D03*
X198755000Y-127000000D03*
D19*
X182245000Y-132080000D03*
X172085000Y-132080000D03*
D20*
X177165000Y-132080000D03*
D21*
X173355000Y-129540000D03*
X179705000Y-127000000D03*
D19*
X163195000Y-132080000D03*
X153035000Y-132080000D03*
D20*
X158115000Y-132080000D03*
D21*
X154305000Y-129540000D03*
X160655000Y-127000000D03*
D19*
X144145000Y-132080000D03*
X133985000Y-132080000D03*
D20*
X139065000Y-132080000D03*
D21*
X135255000Y-129540000D03*
X141605000Y-127000000D03*
D19*
X125095000Y-132080000D03*
X114935000Y-132080000D03*
D20*
X120015000Y-132080000D03*
D21*
X116205000Y-129540000D03*
X122555000Y-127000000D03*
D19*
X106045000Y-132080000D03*
X95885000Y-132080000D03*
D20*
X100965000Y-132080000D03*
D21*
X97155000Y-129540000D03*
X103505000Y-127000000D03*
D19*
X86995000Y-132080000D03*
X76835000Y-132080000D03*
D20*
X81915000Y-132080000D03*
D21*
X78105000Y-129540000D03*
X84455000Y-127000000D03*
D19*
X67945000Y-132080000D03*
X57785000Y-132080000D03*
D20*
X62865000Y-132080000D03*
D21*
X59055000Y-129540000D03*
X65405000Y-127000000D03*
D19*
X48895000Y-132080000D03*
X38735000Y-132080000D03*
D20*
X43815000Y-132080000D03*
D21*
X40005000Y-129540000D03*
X46355000Y-127000000D03*
D19*
X258445000Y-113030000D03*
X248285000Y-113030000D03*
D20*
X253365000Y-113030000D03*
D21*
X249555000Y-110490000D03*
X255905000Y-107950000D03*
D19*
X239395000Y-113030000D03*
X229235000Y-113030000D03*
D20*
X234315000Y-113030000D03*
D21*
X230505000Y-110490000D03*
X236855000Y-107950000D03*
D19*
X220345000Y-113030000D03*
X210185000Y-113030000D03*
D20*
X215265000Y-113030000D03*
D21*
X211455000Y-110490000D03*
X217805000Y-107950000D03*
D19*
X201295000Y-113030000D03*
X191135000Y-113030000D03*
D20*
X196215000Y-113030000D03*
D21*
X192405000Y-110490000D03*
X198755000Y-107950000D03*
D19*
X182245000Y-113030000D03*
X172085000Y-113030000D03*
D20*
X177165000Y-113030000D03*
D21*
X173355000Y-110490000D03*
X179705000Y-107950000D03*
D19*
X163195000Y-113030000D03*
X153035000Y-113030000D03*
D20*
X158115000Y-113030000D03*
D21*
X154305000Y-110490000D03*
X160655000Y-107950000D03*
D19*
X125095000Y-113030000D03*
X114935000Y-113030000D03*
D20*
X120015000Y-113030000D03*
D21*
X116205000Y-110490000D03*
X122555000Y-107950000D03*
D19*
X106045000Y-113030000D03*
X95885000Y-113030000D03*
D20*
X100965000Y-113030000D03*
D21*
X97155000Y-110490000D03*
X103505000Y-107950000D03*
D19*
X86995000Y-113030000D03*
X76835000Y-113030000D03*
D20*
X81915000Y-113030000D03*
D21*
X78105000Y-110490000D03*
X84455000Y-107950000D03*
D19*
X67945000Y-113030000D03*
X57785000Y-113030000D03*
D20*
X62865000Y-113030000D03*
D21*
X59055000Y-110490000D03*
X65405000Y-107950000D03*
D19*
X48895000Y-113030000D03*
X38735000Y-113030000D03*
D20*
X43815000Y-113030000D03*
D21*
X40005000Y-110490000D03*
X46355000Y-107950000D03*
D19*
X258445000Y-93980000D03*
X248285000Y-93980000D03*
D20*
X253365000Y-93980000D03*
D21*
X249555000Y-91440000D03*
X255905000Y-88900000D03*
D19*
X239395000Y-93980000D03*
X229235000Y-93980000D03*
D20*
X234315000Y-93980000D03*
D21*
X230505000Y-91440000D03*
X236855000Y-88900000D03*
D19*
X220345000Y-93980000D03*
X210185000Y-93980000D03*
D20*
X215265000Y-93980000D03*
D21*
X211455000Y-91440000D03*
X217805000Y-88900000D03*
D19*
X201295000Y-93980000D03*
X191135000Y-93980000D03*
D20*
X196215000Y-93980000D03*
D21*
X192405000Y-91440000D03*
X198755000Y-88900000D03*
D19*
X182245000Y-93980000D03*
X172085000Y-93980000D03*
D20*
X177165000Y-93980000D03*
D21*
X173355000Y-91440000D03*
X179705000Y-88900000D03*
D19*
X163195000Y-93980000D03*
X153035000Y-93980000D03*
D20*
X158115000Y-93980000D03*
D21*
X154305000Y-91440000D03*
X160655000Y-88900000D03*
D19*
X144145000Y-93980000D03*
X133985000Y-93980000D03*
D20*
X139065000Y-93980000D03*
D21*
X135255000Y-91440000D03*
X141605000Y-88900000D03*
D19*
X125095000Y-93980000D03*
X114935000Y-93980000D03*
D20*
X120015000Y-93980000D03*
D21*
X116205000Y-91440000D03*
X122555000Y-88900000D03*
D19*
X67945000Y-93980000D03*
X57785000Y-93980000D03*
D20*
X62865000Y-93980000D03*
D21*
X59055000Y-91440000D03*
X65405000Y-88900000D03*
D19*
X48895000Y-93980000D03*
X38735000Y-93980000D03*
D20*
X43815000Y-93980000D03*
D21*
X40005000Y-91440000D03*
X46355000Y-88900000D03*
D19*
X258445000Y-74930000D03*
X248285000Y-74930000D03*
D20*
X253365000Y-74930000D03*
D21*
X249555000Y-72390000D03*
X255905000Y-69850000D03*
D19*
X239395000Y-74930000D03*
X229235000Y-74930000D03*
D20*
X234315000Y-74930000D03*
D21*
X230505000Y-72390000D03*
X236855000Y-69850000D03*
D19*
X220345000Y-74930000D03*
X210185000Y-74930000D03*
D20*
X215265000Y-74930000D03*
D21*
X211455000Y-72390000D03*
X217805000Y-69850000D03*
D19*
X201295000Y-74930000D03*
X191135000Y-74930000D03*
D20*
X196215000Y-74930000D03*
D21*
X192405000Y-72390000D03*
X198755000Y-69850000D03*
D19*
X182245000Y-74930000D03*
X172085000Y-74930000D03*
D20*
X177165000Y-74930000D03*
D21*
X173355000Y-72390000D03*
X179705000Y-69850000D03*
D19*
X163195000Y-74930000D03*
X153035000Y-74930000D03*
D20*
X158115000Y-74930000D03*
D21*
X154305000Y-72390000D03*
X160655000Y-69850000D03*
D19*
X144145000Y-74930000D03*
X133985000Y-74930000D03*
D20*
X139065000Y-74930000D03*
D21*
X135255000Y-72390000D03*
X141605000Y-69850000D03*
D19*
X125095000Y-74930000D03*
X114935000Y-74930000D03*
D20*
X120015000Y-74930000D03*
D21*
X116205000Y-72390000D03*
X122555000Y-69850000D03*
D19*
X106045000Y-74930000D03*
X95885000Y-74930000D03*
D20*
X100965000Y-74930000D03*
D21*
X97155000Y-72390000D03*
X103505000Y-69850000D03*
D19*
X86995000Y-74930000D03*
X76835000Y-74930000D03*
D20*
X81915000Y-74930000D03*
D21*
X78105000Y-72390000D03*
X84455000Y-69850000D03*
D19*
X48895000Y-74930000D03*
X38735000Y-74930000D03*
D20*
X43815000Y-74930000D03*
D21*
X40005000Y-72390000D03*
X46355000Y-69850000D03*
D19*
X258445000Y-55880000D03*
X248285000Y-55880000D03*
D20*
X253365000Y-55880000D03*
D21*
X249555000Y-53340000D03*
X255905000Y-50800000D03*
D19*
X239395000Y-55880000D03*
X229235000Y-55880000D03*
D20*
X234315000Y-55880000D03*
D21*
X230505000Y-53340000D03*
X236855000Y-50800000D03*
D19*
X220345000Y-55880000D03*
X210185000Y-55880000D03*
D20*
X215265000Y-55880000D03*
D21*
X211455000Y-53340000D03*
X217805000Y-50800000D03*
D19*
X201295000Y-55880000D03*
X191135000Y-55880000D03*
D20*
X196215000Y-55880000D03*
D21*
X192405000Y-53340000D03*
X198755000Y-50800000D03*
D19*
X182245000Y-55880000D03*
X172085000Y-55880000D03*
D20*
X177165000Y-55880000D03*
D21*
X173355000Y-53340000D03*
X179705000Y-50800000D03*
D19*
X163195000Y-55880000D03*
X153035000Y-55880000D03*
D20*
X158115000Y-55880000D03*
D21*
X154305000Y-53340000D03*
X160655000Y-50800000D03*
D19*
X144145000Y-55880000D03*
X133985000Y-55880000D03*
D20*
X139065000Y-55880000D03*
D21*
X135255000Y-53340000D03*
X141605000Y-50800000D03*
D19*
X125095000Y-55880000D03*
X114935000Y-55880000D03*
D20*
X120015000Y-55880000D03*
D21*
X116205000Y-53340000D03*
X122555000Y-50800000D03*
D19*
X106045000Y-55880000D03*
X95885000Y-55880000D03*
D20*
X100965000Y-55880000D03*
D21*
X97155000Y-53340000D03*
X103505000Y-50800000D03*
D19*
X86995000Y-55880000D03*
X76835000Y-55880000D03*
D20*
X81915000Y-55880000D03*
D21*
X78105000Y-53340000D03*
X84455000Y-50800000D03*
D19*
X67945000Y-55880000D03*
X57785000Y-55880000D03*
D20*
X62865000Y-55880000D03*
D21*
X59055000Y-53340000D03*
X65405000Y-50800000D03*
X46355000Y-50800000D03*
X40005000Y-53340000D03*
D20*
X43815000Y-55880000D03*
D19*
X38735000Y-55880000D03*
X48895000Y-55880000D03*
D25*
X42545000Y-60960000D03*
D24*
X45085000Y-60960000D03*
M02*
