M48
; DRILL file {KiCad (5.1.4)-1} date 10/21/2020 7:17:23 PM
; FORMAT={-:-/ absolute / metric / decimal}
; #@! TF.CreationDate,2020-10-21T19:17:23-05:00
; #@! TF.GenerationSoftware,Kicad,Pcbnew,(5.1.4)-1
FMAT,2
METRIC
T1C0.500
T2C0.800
T3C0.900
T4C1.000
T5C1.500
T6C1.700
T7C3.050
T8C4.000
%
G90
G05
T1
X38.735Y-137.16
X55.245Y-101.6
X55.245Y-102.87
X55.245Y-104.14
X55.245Y-120.015
X62.865Y-90.805
X67.945Y-64.135
X67.945Y-66.04
X67.945Y-82.55
X67.945Y-84.455
X72.39Y-127.0
X73.66Y-107.95
X74.93Y-88.9
X76.2Y-69.85
X86.995Y-101.6
X88.265Y-92.075
X91.44Y-57.15
X91.44Y-76.2
X91.44Y-101.6
X91.44Y-114.3
X91.44Y-133.35
X106.045Y-102.87
X110.49Y-50.8
X110.49Y-137.16
X125.095Y-104.14
X146.05Y-120.015
X165.735Y-62.865
X184.785Y-64.135
X186.055Y-50.8
X187.96Y-137.16
X203.835Y-65.405
X222.885Y-81.915
X241.935Y-83.185
X259.08Y-84.455
X259.715Y-66.04
X259.715Y-121.92
T2
X55.245Y-48.26
X55.245Y-50.8
X55.245Y-53.34
X55.245Y-55.88
X55.245Y-58.42
X55.245Y-60.96
X55.245Y-63.5
X55.245Y-66.04
X55.245Y-68.58
X55.245Y-71.12
X55.245Y-73.66
X55.245Y-76.2
X55.245Y-78.74
X55.245Y-81.28
X55.245Y-83.82
X55.245Y-86.36
X55.245Y-88.9
X55.245Y-91.44
X55.245Y-93.98
X55.245Y-96.52
X70.485Y-48.26
X70.485Y-50.8
X70.485Y-53.34
X70.485Y-55.88
X70.485Y-58.42
X70.485Y-60.96
X70.485Y-63.5
X70.485Y-66.04
X70.485Y-68.58
X70.485Y-71.12
X70.485Y-73.66
X70.485Y-76.2
X70.485Y-78.74
X70.485Y-81.28
X70.485Y-83.82
X70.485Y-86.36
X70.485Y-88.9
X70.485Y-91.44
X70.485Y-93.98
X70.485Y-96.52
T3
X118.745Y-99.06
X121.285Y-99.06
X118.745Y-80.01
X121.285Y-80.01
X128.27Y-137.16
X130.81Y-137.16
X61.595Y-99.06
X64.135Y-99.06
X137.795Y-80.01
X140.335Y-80.01
X175.895Y-137.16
X178.435Y-137.16
X213.995Y-80.01
X216.535Y-80.01
X156.845Y-60.96
X159.385Y-60.96
X99.695Y-137.16
X102.235Y-137.16
X99.695Y-60.96
X102.235Y-60.96
X156.845Y-80.01
X159.385Y-80.01
X80.645Y-137.16
X83.185Y-137.16
X194.945Y-60.96
X197.485Y-60.96
X137.795Y-118.11
X140.335Y-118.11
X61.595Y-137.16
X64.135Y-137.16
X99.695Y-118.11
X102.235Y-118.11
X42.545Y-137.16
X45.085Y-137.16
X61.595Y-118.11
X64.135Y-118.11
X156.845Y-99.06
X159.385Y-99.06
X233.045Y-137.16
X235.585Y-137.16
X213.995Y-99.06
X216.535Y-99.06
X80.645Y-99.06
X83.185Y-99.06
X42.545Y-80.01
X45.085Y-80.01
X213.995Y-137.16
X216.535Y-137.16
X252.095Y-80.01
X254.635Y-80.01
X233.045Y-60.96
X235.585Y-60.96
X194.945Y-80.01
X197.485Y-80.01
X166.37Y-137.16
X168.91Y-137.16
X175.895Y-60.96
X178.435Y-60.96
X42.545Y-99.06
X45.085Y-99.06
X80.645Y-60.96
X83.185Y-60.96
X252.095Y-99.06
X254.635Y-99.06
X42.545Y-60.96
X45.085Y-60.96
X213.995Y-118.11
X216.535Y-118.11
X118.745Y-60.96
X121.285Y-60.96
X61.595Y-80.01
X64.135Y-80.01
X252.095Y-118.11
X254.635Y-118.11
X137.795Y-137.16
X140.335Y-137.16
X194.945Y-137.16
X197.485Y-137.16
X233.045Y-118.11
X235.585Y-118.11
X42.545Y-118.11
X45.085Y-118.11
X252.095Y-137.16
X254.635Y-137.16
X156.845Y-118.11
X159.385Y-118.11
X137.795Y-99.06
X140.335Y-99.06
X175.895Y-118.11
X178.435Y-118.11
X80.645Y-80.01
X83.185Y-80.01
X233.045Y-80.01
X235.585Y-80.01
X213.995Y-60.96
X216.535Y-60.96
X156.845Y-137.16
X159.385Y-137.16
X175.895Y-80.01
X178.435Y-80.01
X147.32Y-137.16
X149.86Y-137.16
X137.795Y-60.96
X140.335Y-60.96
X99.695Y-99.06
X102.235Y-99.06
X194.945Y-99.06
X197.485Y-99.06
X252.095Y-60.96
X254.635Y-60.96
X233.045Y-99.06
X235.585Y-99.06
X61.595Y-60.96
X64.135Y-60.96
X194.945Y-118.11
X197.485Y-118.11
X80.645Y-118.11
X83.185Y-118.11
X118.745Y-118.11
X121.285Y-118.11
X175.895Y-99.06
X178.435Y-99.06
X99.695Y-80.01
X102.235Y-80.01
X118.745Y-137.16
X121.285Y-137.16
T4
X36.83Y-59.055
X36.83Y-61.595
X36.83Y-64.135
T5
X249.555Y-72.39
X255.905Y-69.85
X78.105Y-110.49
X84.455Y-107.95
X192.405Y-129.54
X198.755Y-127.0
X192.405Y-91.44
X198.755Y-88.9
X144.78Y-129.54
X151.13Y-127.0
X154.305Y-129.54
X160.655Y-127.0
X78.105Y-91.44
X84.455Y-88.9
X211.455Y-72.39
X217.805Y-69.85
X40.005Y-129.54
X46.355Y-127.0
X249.555Y-129.54
X255.905Y-127.0
X40.005Y-110.49
X46.355Y-107.95
X230.505Y-110.49
X236.855Y-107.95
X40.005Y-53.34
X46.355Y-50.8
X116.205Y-91.44
X122.555Y-88.9
X173.355Y-110.49
X179.705Y-107.95
X59.055Y-110.49
X65.405Y-107.95
X59.055Y-72.39
X65.405Y-69.85
X59.055Y-129.54
X65.405Y-127.0
X59.055Y-53.34
X65.405Y-50.8
X230.505Y-72.39
X236.855Y-69.85
X97.155Y-110.49
X103.505Y-107.95
X78.105Y-72.39
X84.455Y-69.85
X163.83Y-129.54
X170.18Y-127.0
X135.255Y-72.39
X141.605Y-69.85
X173.355Y-91.44
X179.705Y-88.9
X249.555Y-91.44
X255.905Y-88.9
X135.255Y-129.54
X141.605Y-127.0
X173.355Y-129.54
X179.705Y-127.0
X40.005Y-91.44
X46.355Y-88.9
X97.155Y-129.54
X103.505Y-127.0
X230.505Y-53.34
X236.855Y-50.8
X230.505Y-129.54
X236.855Y-127.0
X135.255Y-91.44
X141.605Y-88.9
X211.455Y-110.49
X217.805Y-107.95
X154.305Y-53.34
X160.655Y-50.8
X154.305Y-110.49
X160.655Y-107.95
X192.405Y-72.39
X198.755Y-69.85
X116.205Y-110.49
X122.555Y-107.95
X116.205Y-72.39
X122.555Y-69.85
X97.155Y-72.39
X103.505Y-69.85
X97.155Y-91.44
X103.505Y-88.9
X173.355Y-72.39
X179.705Y-69.85
X192.405Y-53.34
X198.755Y-50.8
X249.555Y-53.34
X255.905Y-50.8
X211.455Y-91.44
X217.805Y-88.9
X211.455Y-129.54
X217.805Y-127.0
X230.505Y-91.44
X236.855Y-88.9
X116.205Y-129.54
X122.555Y-127.0
X40.005Y-72.39
X46.355Y-69.85
X78.105Y-129.54
X84.455Y-127.0
X173.355Y-53.34
X179.705Y-50.8
X249.555Y-110.49
X255.905Y-107.95
X211.455Y-53.34
X217.805Y-50.8
X192.405Y-110.49
X198.755Y-107.95
X135.255Y-53.34
X141.605Y-50.8
X78.105Y-53.34
X84.455Y-50.8
X59.055Y-91.44
X65.405Y-88.9
X125.73Y-129.54
X132.08Y-127.0
X97.155Y-53.34
X103.505Y-50.8
X154.305Y-91.44
X160.655Y-88.9
X135.255Y-110.49
X141.605Y-107.95
X154.305Y-72.39
X160.655Y-69.85
X116.205Y-53.34
X122.555Y-50.8
T6
X95.885Y-93.98
X106.045Y-93.98
X172.085Y-74.93
X182.245Y-74.93
X191.135Y-55.88
X201.295Y-55.88
X248.285Y-55.88
X258.445Y-55.88
X210.185Y-93.98
X220.345Y-93.98
X210.185Y-132.08
X220.345Y-132.08
X229.235Y-93.98
X239.395Y-93.98
X114.935Y-132.08
X125.095Y-132.08
X38.735Y-74.93
X48.895Y-74.93
X76.835Y-132.08
X86.995Y-132.08
X172.085Y-55.88
X182.245Y-55.88
X248.285Y-113.03
X258.445Y-113.03
X210.185Y-55.88
X220.345Y-55.88
X191.135Y-113.03
X201.295Y-113.03
X133.985Y-55.88
X144.145Y-55.88
X76.835Y-55.88
X86.995Y-55.88
X57.785Y-93.98
X67.945Y-93.98
X124.46Y-132.08
X134.62Y-132.08
X95.885Y-55.88
X106.045Y-55.88
X153.035Y-93.98
X163.195Y-93.98
X133.985Y-113.03
X144.145Y-113.03
X153.035Y-74.93
X163.195Y-74.93
X114.935Y-55.88
X125.095Y-55.88
X248.285Y-74.93
X258.445Y-74.93
X76.835Y-113.03
X86.995Y-113.03
X191.135Y-132.08
X201.295Y-132.08
X191.135Y-93.98
X201.295Y-93.98
X143.51Y-132.08
X153.67Y-132.08
X153.035Y-132.08
X163.195Y-132.08
X76.835Y-93.98
X86.995Y-93.98
X210.185Y-74.93
X220.345Y-74.93
X38.735Y-132.08
X48.895Y-132.08
X248.285Y-132.08
X258.445Y-132.08
X38.735Y-113.03
X48.895Y-113.03
X229.235Y-113.03
X239.395Y-113.03
X38.735Y-55.88
X48.895Y-55.88
X114.935Y-93.98
X125.095Y-93.98
X172.085Y-113.03
X182.245Y-113.03
X57.785Y-113.03
X67.945Y-113.03
X57.785Y-74.93
X67.945Y-74.93
X57.785Y-132.08
X67.945Y-132.08
X57.785Y-55.88
X67.945Y-55.88
X229.235Y-74.93
X239.395Y-74.93
X95.885Y-113.03
X106.045Y-113.03
X76.835Y-74.93
X86.995Y-74.93
X162.56Y-132.08
X172.72Y-132.08
X133.985Y-74.93
X144.145Y-74.93
X172.085Y-93.98
X182.245Y-93.98
X248.285Y-93.98
X258.445Y-93.98
X133.985Y-132.08
X144.145Y-132.08
X172.085Y-132.08
X182.245Y-132.08
X38.735Y-93.98
X48.895Y-93.98
X95.885Y-132.08
X106.045Y-132.08
X229.235Y-55.88
X239.395Y-55.88
X229.235Y-132.08
X239.395Y-132.08
X133.985Y-93.98
X144.145Y-93.98
X210.185Y-113.03
X220.345Y-113.03
X153.035Y-55.88
X163.195Y-55.88
X153.035Y-113.03
X163.195Y-113.03
X191.135Y-74.93
X201.295Y-74.93
X114.935Y-113.03
X125.095Y-113.03
X114.935Y-74.93
X125.095Y-74.93
X95.885Y-74.93
X106.045Y-74.93
T7
X117.64Y-139.08
X141.44Y-139.08
X136.69Y-139.08
X160.49Y-139.08
X155.74Y-139.08
X179.54Y-139.08
T8
X215.265Y-132.08
X234.315Y-93.98
X120.015Y-132.08
X43.815Y-74.93
X81.915Y-132.08
X177.165Y-55.88
X253.365Y-113.03
X215.265Y-55.88
X196.215Y-113.03
X139.065Y-55.88
X81.915Y-55.88
X62.865Y-93.98
X117.64Y-123.84
X129.54Y-132.08
X141.44Y-123.84
X100.965Y-55.88
X158.115Y-93.98
X139.065Y-113.03
X158.115Y-74.93
X120.015Y-55.88
X253.365Y-74.93
X81.915Y-113.03
X196.215Y-132.08
X196.215Y-93.98
X136.69Y-123.84
X148.59Y-132.08
X160.49Y-123.84
X158.115Y-132.08
X81.915Y-93.98
X215.265Y-74.93
X43.815Y-132.08
X253.365Y-132.08
X43.815Y-113.03
X234.315Y-113.03
X43.815Y-55.88
X120.015Y-93.98
X177.165Y-113.03
X62.865Y-113.03
X62.865Y-74.93
X62.865Y-132.08
X62.865Y-55.88
X234.315Y-74.93
X100.965Y-113.03
X81.915Y-74.93
X155.74Y-123.84
X167.64Y-132.08
X179.54Y-123.84
X139.065Y-74.93
X177.165Y-93.98
X253.365Y-93.98
X139.065Y-132.08
X177.165Y-132.08
X43.815Y-93.98
X100.965Y-132.08
X234.315Y-55.88
X234.315Y-132.08
X139.065Y-93.98
X215.265Y-113.03
X158.115Y-55.88
X158.115Y-113.03
X196.215Y-74.93
X120.015Y-113.03
X120.015Y-74.93
X100.965Y-74.93
X100.965Y-93.98
X177.165Y-74.93
X196.215Y-55.88
X253.365Y-55.88
X215.265Y-93.98
T0
M30
