  0
SECTION
  2
HEADER
  9
$ACADVER
  1
AC1014
  9
$HANDSEED
  5
FFFF
  9
$MEASUREMENT
 70
     1
  0
ENDSEC
  0
SECTION
  2
TABLES
  0
TABLE
  2
VPORT
  5
8
330
0
100
AcDbSymbolTable
 70
     4
  0
VPORT
  5
2E
330
8
100
AcDbSymbolTableRecord
100
AcDbViewportTableRecord
  2
*ACTIVE
 70
     0
 10
0.0
 20
0.0
 11
1.0
 21
1.0
 12
210.0
 22
148.5
 13
0.0
 23
0.0
 14
10.0
 24
10.0
 15
10.0
 25
10.0
 16
0.0
 26
0.0
 36
1.0
 17
0.0
 27
0.0
 37
0.0
 40
341.0
 41
1.24
 42
50.0
 43
0.0
 44
0.0
 50
0.0
 51
0.0
 71
     0
 72
   100
 73
     1
 74
     3
 75
     0
 76
     0
 77
     0
 78
     0
  0
ENDTAB
  0
TABLE
  2
LTYPE
  5
5
330
0
100
AcDbSymbolTable
 70
     1
  0
LTYPE
  5
14
330
5
100
AcDbSymbolTableRecord
100
AcDbLinetypeTableRecord
  2
BYBLOCK
 70
     0
  3

 72
    65
 73
     0
 40
0.0
  0
LTYPE
  5
15
330
5
100
AcDbSymbolTableRecord
100
AcDbLinetypeTableRecord
  2
BYLAYER
 70
     0
  3

 72
    65
 73
     0
 40
0.0
  0
LTYPE
  5
16
330
5
100
AcDbSymbolTableRecord
100
AcDbLinetypeTableRecord
  2
CONTINUOUS
 70
     0
  3
Solid line
 72
    65
 73
     0
 40
0.0
  0
ENDTAB
  0
TABLE
  2
LAYER
  5
2
100
AcDbSymbolTable
 70
1
  0
LAYER
  5
50
100
AcDbSymbolTableRecord
100
AcDbLayerTableRecord
  2
0
 70
0
  6
CONTINUOUS
  0
ENDTAB
  0
TABLE
  2
STYLE
  5
3
330
0
100
AcDbSymbolTable
 70
     1
  0
STYLE
  5
11
330
3
100
AcDbSymbolTableRecord
100
AcDbTextStyleTableRecord
  2
STANDARD
 70
     0
 40
0.0
 41
1.0
 50
0.0
 71
     0
 42
2.5
  3
txt
  4

  0
ENDTAB
  0
TABLE
  2
VIEW
  5
6
330
0
100
AcDbSymbolTable
 70
     0
  0
ENDTAB
  0
TABLE
  2
UCS
  5
7
330
0
100
AcDbSymbolTable
 70
     0
  0
ENDTAB
  0
TABLE
  2
APPID
  5
9
330
0
100
AcDbSymbolTable
 70
     2
  0
APPID
  5
12
330
9
100
AcDbSymbolTableRecord
100
AcDbRegAppTableRecord
  2
ACAD
 70
     0
  0
ENDTAB
  0
TABLE
  2
DIMSTYLE
  5
A
330
0
100
AcDbSymbolTable
 70
     1
  0
DIMSTYLE
105
27
330
A
100
AcDbSymbolTableRecord
100
AcDbDimStyleTableRecord
  2
ISO-25
 70
     0
  3

  4

  5

  6

  7

 40
1.0
 41
2.5
 42
0.625
 43
3.75
 44
1.25
 45
0.0
 46
0.0
 47
0.0
 48
0.0
140
2.5
141
2.5
142
0.0
143
0.03937007874016
144
1.0
145
0.0
146
1.0
147
0.625
 71
     0
 72
     0
 73
     0
 74
     0
 75
     0
 76
     0
 77
     1
 78
     8
170
     0
171
     3
172
     1
173
     0
174
     0
175
     0
176
     0
177
     0
178
     0
270
     2
271
     2
272
     2
273
     2
274
     3
340
11
275
     0
280
     0
281
     0
282
     0
283
     0
284
     8
285
     0
286
     0
287
     3
288
     0
  0
ENDTAB
  0
TABLE
  2
BLOCK_RECORD
  5
1
330
0
100
AcDbSymbolTable
 70
     1
  0
BLOCK_RECORD
  5
1F
330
1
100
AcDbSymbolTableRecord
100
AcDbBlockTableRecord
  2
*MODEL_SPACE
  0
BLOCK_RECORD
  5
1B
330
1
100
AcDbSymbolTableRecord
100
AcDbBlockTableRecord
  2
*PAPER_SPACE
  0
ENDTAB
  0
ENDSEC
  0
SECTION
  2
BLOCKS
  0
BLOCK
  5
20
330
1F
100
AcDbEntity
  8
0
100
AcDbBlockBegin
  2
*MODEL_SPACE
 70
     0
 10
0.0
 20
0.0
 30
0.0
  3
*MODEL_SPACE
  1

  0
ENDBLK
  5
21
330
1F
100
AcDbEntity
  8
0
100
AcDbBlockEnd
  0
BLOCK
  5
1C
330
1B
100
AcDbEntity
 67
     1
  8
0
100
AcDbBlockBegin
  2
*PAPER_SPACE
  1

  0
ENDBLK
  5
1D
330
1B
100
AcDbEntity
 67
     1
  8
0
100
AcDbBlockEnd
  0
ENDSEC
  0
SECTION
  2
ENTITIES
  0
SPLINE
  5
100
100
AcDbEntity
  8
0
 62
7
100
AcDbSpline
 70
8
 71
3
 72
8
 73
4
 74
0
 40
0
 40
0
 40
0
 40
0
 40
1
 40
1
 40
1
 40
1
 10
298.099480
 20
-84.218457
 30
0.0
 10
297.654571
 20
-84.218457
 30
0.0
 10
297.253471
 20
-84.486464
 30
0.0
 10
297.083212
 20
-84.897506
 30
0.0
  0
SPLINE
  5
101
100
AcDbEntity
  8
0
 62
7
100
AcDbSpline
 70
8
 71
3
 72
8
 73
4
 74
0
 40
0
 40
0
 40
0
 40
0
 40
1
 40
1
 40
1
 40
1
 10
297.083212
 20
-84.897506
 30
0.0
 10
296.912953
 20
-85.308548
 30
0.0
 10
297.007064
 20
-85.781678
 30
0.0
 10
297.321662
 20
-86.096275
 30
0.0
  0
SPLINE
  5
102
100
AcDbEntity
  8
0
 62
7
100
AcDbSpline
 70
8
 71
3
 72
8
 73
4
 74
0
 40
0
 40
0
 40
0
 40
0
 40
1
 40
1
 40
1
 40
1
 10
297.321662
 20
-86.096275
 30
0.0
 10
297.636260
 20
-86.410873
 30
0.0
 10
298.109390
 20
-86.504985
 30
0.0
 10
298.520432
 20
-86.334726
 30
0.0
  0
SPLINE
  5
103
100
AcDbEntity
  8
0
 62
7
100
AcDbSpline
 70
8
 71
3
 72
8
 73
4
 74
0
 40
0
 40
0
 40
0
 40
0
 40
1
 40
1
 40
1
 40
1
 10
298.520432
 20
-86.334726
 30
0.0
 10
298.931474
 20
-86.164466
 30
0.0
 10
299.199480
 20
-85.763366
 30
0.0
 10
299.199480
 20
-85.318458
 30
0.0
  0
SPLINE
  5
104
100
AcDbEntity
  8
0
 62
7
100
AcDbSpline
 70
8
 71
3
 72
8
 73
4
 74
0
 40
0
 40
0
 40
0
 40
0
 40
1
 40
1
 40
1
 40
1
 10
299.199480
 20
-85.318458
 30
0.0
 10
299.199480
 20
-85.026720
 30
0.0
 10
299.083588
 20
-84.746930
 30
0.0
 10
298.877298
 20
-84.540640
 30
0.0
  0
SPLINE
  5
105
100
AcDbEntity
  8
0
 62
7
100
AcDbSpline
 70
8
 71
3
 72
8
 73
4
 74
0
 40
0
 40
0
 40
0
 40
0
 40
1
 40
1
 40
1
 40
1
 10
298.877298
 20
-84.540640
 30
0.0
 10
298.671008
 20
-84.334350
 30
0.0
 10
298.391218
 20
-84.218457
 30
0.0
 10
298.099480
 20
-84.218457
 30
0.0
  0
SPLINE
  5
106
100
AcDbEntity
  8
0
 62
7
100
AcDbSpline
 70
8
 71
3
 72
8
 73
4
 74
0
 40
0
 40
0
 40
0
 40
0
 40
1
 40
1
 40
1
 40
1
 10
198.099934
 20
-84.218457
 30
0.0
 10
197.655025
 20
-84.218457
 30
0.0
 10
197.253925
 20
-84.486464
 30
0.0
 10
197.083666
 20
-84.897506
 30
0.0
  0
SPLINE
  5
107
100
AcDbEntity
  8
0
 62
7
100
AcDbSpline
 70
8
 71
3
 72
8
 73
4
 74
0
 40
0
 40
0
 40
0
 40
0
 40
1
 40
1
 40
1
 40
1
 10
197.083666
 20
-84.897506
 30
0.0
 10
196.913407
 20
-85.308548
 30
0.0
 10
197.007518
 20
-85.781678
 30
0.0
 10
197.322116
 20
-86.096275
 30
0.0
  0
SPLINE
  5
108
100
AcDbEntity
  8
0
 62
7
100
AcDbSpline
 70
8
 71
3
 72
8
 73
4
 74
0
 40
0
 40
0
 40
0
 40
0
 40
1
 40
1
 40
1
 40
1
 10
197.322116
 20
-86.096275
 30
0.0
 10
197.636714
 20
-86.410873
 30
0.0
 10
198.109844
 20
-86.504985
 30
0.0
 10
198.520886
 20
-86.334726
 30
0.0
  0
SPLINE
  5
109
100
AcDbEntity
  8
0
 62
7
100
AcDbSpline
 70
8
 71
3
 72
8
 73
4
 74
0
 40
0
 40
0
 40
0
 40
0
 40
1
 40
1
 40
1
 40
1
 10
198.520886
 20
-86.334726
 30
0.0
 10
198.931928
 20
-86.164466
 30
0.0
 10
199.199934
 20
-85.763366
 30
0.0
 10
199.199934
 20
-85.318458
 30
0.0
  0
SPLINE
  5
10a
100
AcDbEntity
  8
0
 62
7
100
AcDbSpline
 70
8
 71
3
 72
8
 73
4
 74
0
 40
0
 40
0
 40
0
 40
0
 40
1
 40
1
 40
1
 40
1
 10
199.199934
 20
-85.318458
 30
0.0
 10
199.199934
 20
-85.026720
 30
0.0
 10
199.084042
 20
-84.746930
 30
0.0
 10
198.877752
 20
-84.540640
 30
0.0
  0
SPLINE
  5
10b
100
AcDbEntity
  8
0
 62
7
100
AcDbSpline
 70
8
 71
3
 72
8
 73
4
 74
0
 40
0
 40
0
 40
0
 40
0
 40
1
 40
1
 40
1
 40
1
 10
198.877752
 20
-84.540640
 30
0.0
 10
198.671462
 20
-84.334350
 30
0.0
 10
198.391672
 20
-84.218457
 30
0.0
 10
198.099934
 20
-84.218457
 30
0.0
  0
LWPOLYLINE
  5
10c
100
AcDbEntity
  8
0
 62
7
100
AcDbPolyline
 90
1
 70
1
 10
298.099480
 20
-84.218457
 30
0.0
  0
SPLINE
  5
10d
100
AcDbEntity
  8
0
 62
7
100
AcDbSpline
 70
8
 71
3
 72
8
 73
4
 74
0
 40
0
 40
0
 40
0
 40
0
 40
1
 40
1
 40
1
 40
1
 10
113.100104
 20
-84.218457
 30
0.0
 10
112.655195
 20
-84.218457
 30
0.0
 10
112.254095
 20
-84.486464
 30
0.0
 10
112.083836
 20
-84.897506
 30
0.0
  0
SPLINE
  5
10e
100
AcDbEntity
  8
0
 62
7
100
AcDbSpline
 70
8
 71
3
 72
8
 73
4
 74
0
 40
0
 40
0
 40
0
 40
0
 40
1
 40
1
 40
1
 40
1
 10
112.083836
 20
-84.897506
 30
0.0
 10
111.913577
 20
-85.308548
 30
0.0
 10
112.007688
 20
-85.781678
 30
0.0
 10
112.322286
 20
-86.096275
 30
0.0
  0
SPLINE
  5
10f
100
AcDbEntity
  8
0
 62
7
100
AcDbSpline
 70
8
 71
3
 72
8
 73
4
 74
0
 40
0
 40
0
 40
0
 40
0
 40
1
 40
1
 40
1
 40
1
 10
112.322286
 20
-86.096275
 30
0.0
 10
112.636884
 20
-86.410873
 30
0.0
 10
113.110014
 20
-86.504985
 30
0.0
 10
113.521056
 20
-86.334726
 30
0.0
  0
SPLINE
  5
110
100
AcDbEntity
  8
0
 62
7
100
AcDbSpline
 70
8
 71
3
 72
8
 73
4
 74
0
 40
0
 40
0
 40
0
 40
0
 40
1
 40
1
 40
1
 40
1
 10
113.521056
 20
-86.334726
 30
0.0
 10
113.932098
 20
-86.164466
 30
0.0
 10
114.200104
 20
-85.763366
 30
0.0
 10
114.200104
 20
-85.318458
 30
0.0
  0
SPLINE
  5
111
100
AcDbEntity
  8
0
 62
7
100
AcDbSpline
 70
8
 71
3
 72
8
 73
4
 74
0
 40
0
 40
0
 40
0
 40
0
 40
1
 40
1
 40
1
 40
1
 10
114.200104
 20
-85.318458
 30
0.0
 10
114.200104
 20
-85.026720
 30
0.0
 10
114.084212
 20
-84.746930
 30
0.0
 10
113.877922
 20
-84.540640
 30
0.0
  0
SPLINE
  5
112
100
AcDbEntity
  8
0
 62
7
100
AcDbSpline
 70
8
 71
3
 72
8
 73
4
 74
0
 40
0
 40
0
 40
0
 40
0
 40
1
 40
1
 40
1
 40
1
 10
113.877922
 20
-84.540640
 30
0.0
 10
113.671632
 20
-84.334350
 30
0.0
 10
113.391842
 20
-84.218457
 30
0.0
 10
113.100104
 20
-84.218457
 30
0.0
  0
LWPOLYLINE
  5
113
100
AcDbEntity
  8
0
 62
7
100
AcDbPolyline
 90
1
 70
1
 10
198.099934
 20
-84.218457
 30
0.0
  0
SPLINE
  5
114
100
AcDbEntity
  8
0
 62
7
100
AcDbSpline
 70
8
 71
3
 72
8
 73
4
 74
0
 40
0
 40
0
 40
0
 40
0
 40
1
 40
1
 40
1
 40
1
 10
13.099999
 20
-84.218457
 30
0.0
 10
12.655091
 20
-84.218457
 30
0.0
 10
12.253991
 20
-84.486464
 30
0.0
 10
12.083731
 20
-84.897506
 30
0.0
  0
SPLINE
  5
115
100
AcDbEntity
  8
0
 62
7
100
AcDbSpline
 70
8
 71
3
 72
8
 73
4
 74
0
 40
0
 40
0
 40
0
 40
0
 40
1
 40
1
 40
1
 40
1
 10
12.083731
 20
-84.897506
 30
0.0
 10
11.913472
 20
-85.308548
 30
0.0
 10
12.007584
 20
-85.781678
 30
0.0
 10
12.322182
 20
-86.096275
 30
0.0
  0
SPLINE
  5
116
100
AcDbEntity
  8
0
 62
7
100
AcDbSpline
 70
8
 71
3
 72
8
 73
4
 74
0
 40
0
 40
0
 40
0
 40
0
 40
1
 40
1
 40
1
 40
1
 10
12.322182
 20
-86.096275
 30
0.0
 10
12.636779
 20
-86.410873
 30
0.0
 10
13.109909
 20
-86.504985
 30
0.0
 10
13.520951
 20
-86.334726
 30
0.0
  0
SPLINE
  5
117
100
AcDbEntity
  8
0
 62
7
100
AcDbSpline
 70
8
 71
3
 72
8
 73
4
 74
0
 40
0
 40
0
 40
0
 40
0
 40
1
 40
1
 40
1
 40
1
 10
13.520951
 20
-86.334726
 30
0.0
 10
13.931993
 20
-86.164466
 30
0.0
 10
14.200000
 20
-85.763366
 30
0.0
 10
14.200000
 20
-85.318458
 30
0.0
  0
SPLINE
  5
118
100
AcDbEntity
  8
0
 62
7
100
AcDbSpline
 70
8
 71
3
 72
8
 73
4
 74
0
 40
0
 40
0
 40
0
 40
0
 40
1
 40
1
 40
1
 40
1
 10
14.200000
 20
-85.318458
 30
0.0
 10
14.200000
 20
-85.026720
 30
0.0
 10
14.084107
 20
-84.746930
 30
0.0
 10
13.877817
 20
-84.540640
 30
0.0
  0
SPLINE
  5
119
100
AcDbEntity
  8
0
 62
7
100
AcDbSpline
 70
8
 71
3
 72
8
 73
4
 74
0
 40
0
 40
0
 40
0
 40
0
 40
1
 40
1
 40
1
 40
1
 10
13.877817
 20
-84.540640
 30
0.0
 10
13.671527
 20
-84.334350
 30
0.0
 10
13.391737
 20
-84.218457
 30
0.0
 10
13.099999
 20
-84.218457
 30
0.0
  0
LWPOLYLINE
  5
11a
100
AcDbEntity
  8
0
 62
7
100
AcDbPolyline
 90
1
 70
1
 10
113.100104
 20
-84.218457
 30
0.0
  0
SPLINE
  5
11b
100
AcDbEntity
  8
0
 62
7
100
AcDbSpline
 70
8
 71
3
 72
8
 73
4
 74
0
 40
0
 40
0
 40
0
 40
0
 40
1
 40
1
 40
1
 40
1
 10
298.099480
 20
-1.068890
 30
0.0
 10
297.654571
 20
-1.068890
 30
0.0
 10
297.253471
 20
-1.336897
 30
0.0
 10
297.083212
 20
-1.747939
 30
0.0
  0
SPLINE
  5
11c
100
AcDbEntity
  8
0
 62
7
100
AcDbSpline
 70
8
 71
3
 72
8
 73
4
 74
0
 40
0
 40
0
 40
0
 40
0
 40
1
 40
1
 40
1
 40
1
 10
297.083212
 20
-1.747939
 30
0.0
 10
296.912953
 20
-2.158981
 30
0.0
 10
297.007064
 20
-2.632111
 30
0.0
 10
297.321662
 20
-2.946708
 30
0.0
  0
SPLINE
  5
11d
100
AcDbEntity
  8
0
 62
7
100
AcDbSpline
 70
8
 71
3
 72
8
 73
4
 74
0
 40
0
 40
0
 40
0
 40
0
 40
1
 40
1
 40
1
 40
1
 10
297.321662
 20
-2.946708
 30
0.0
 10
297.636260
 20
-3.261306
 30
0.0
 10
298.109390
 20
-3.355418
 30
0.0
 10
298.520432
 20
-3.185159
 30
0.0
  0
SPLINE
  5
11e
100
AcDbEntity
  8
0
 62
7
100
AcDbSpline
 70
8
 71
3
 72
8
 73
4
 74
0
 40
0
 40
0
 40
0
 40
0
 40
1
 40
1
 40
1
 40
1
 10
298.520432
 20
-3.185159
 30
0.0
 10
298.931474
 20
-3.014899
 30
0.0
 10
299.199480
 20
-2.613799
 30
0.0
 10
299.199480
 20
-2.168891
 30
0.0
  0
SPLINE
  5
11f
100
AcDbEntity
  8
0
 62
7
100
AcDbSpline
 70
8
 71
3
 72
8
 73
4
 74
0
 40
0
 40
0
 40
0
 40
0
 40
1
 40
1
 40
1
 40
1
 10
299.199480
 20
-2.168891
 30
0.0
 10
299.199480
 20
-1.877153
 30
0.0
 10
299.083588
 20
-1.597363
 30
0.0
 10
298.877298
 20
-1.391073
 30
0.0
  0
SPLINE
  5
120
100
AcDbEntity
  8
0
 62
7
100
AcDbSpline
 70
8
 71
3
 72
8
 73
4
 74
0
 40
0
 40
0
 40
0
 40
0
 40
1
 40
1
 40
1
 40
1
 10
298.877298
 20
-1.391073
 30
0.0
 10
298.671008
 20
-1.184783
 30
0.0
 10
298.391218
 20
-1.068890
 30
0.0
 10
298.099480
 20
-1.068890
 30
0.0
  0
LWPOLYLINE
  5
121
100
AcDbEntity
  8
0
 62
7
100
AcDbPolyline
 90
1
 70
1
 10
13.099999
 20
-84.218457
 30
0.0
  0
SPLINE
  5
122
100
AcDbEntity
  8
0
 62
7
100
AcDbSpline
 70
8
 71
3
 72
8
 73
4
 74
0
 40
0
 40
0
 40
0
 40
0
 40
1
 40
1
 40
1
 40
1
 10
198.099934
 20
-1.068890
 30
0.0
 10
197.655025
 20
-1.068890
 30
0.0
 10
197.253925
 20
-1.336897
 30
0.0
 10
197.083666
 20
-1.747939
 30
0.0
  0
SPLINE
  5
123
100
AcDbEntity
  8
0
 62
7
100
AcDbSpline
 70
8
 71
3
 72
8
 73
4
 74
0
 40
0
 40
0
 40
0
 40
0
 40
1
 40
1
 40
1
 40
1
 10
197.083666
 20
-1.747939
 30
0.0
 10
196.913407
 20
-2.158981
 30
0.0
 10
197.007518
 20
-2.632111
 30
0.0
 10
197.322116
 20
-2.946708
 30
0.0
  0
SPLINE
  5
124
100
AcDbEntity
  8
0
 62
7
100
AcDbSpline
 70
8
 71
3
 72
8
 73
4
 74
0
 40
0
 40
0
 40
0
 40
0
 40
1
 40
1
 40
1
 40
1
 10
197.322116
 20
-2.946708
 30
0.0
 10
197.636714
 20
-3.261306
 30
0.0
 10
198.109844
 20
-3.355418
 30
0.0
 10
198.520886
 20
-3.185159
 30
0.0
  0
SPLINE
  5
125
100
AcDbEntity
  8
0
 62
7
100
AcDbSpline
 70
8
 71
3
 72
8
 73
4
 74
0
 40
0
 40
0
 40
0
 40
0
 40
1
 40
1
 40
1
 40
1
 10
198.520886
 20
-3.185159
 30
0.0
 10
198.931928
 20
-3.014899
 30
0.0
 10
199.199934
 20
-2.613799
 30
0.0
 10
199.199934
 20
-2.168891
 30
0.0
  0
SPLINE
  5
126
100
AcDbEntity
  8
0
 62
7
100
AcDbSpline
 70
8
 71
3
 72
8
 73
4
 74
0
 40
0
 40
0
 40
0
 40
0
 40
1
 40
1
 40
1
 40
1
 10
199.199934
 20
-2.168891
 30
0.0
 10
199.199934
 20
-1.877153
 30
0.0
 10
199.084042
 20
-1.597363
 30
0.0
 10
198.877752
 20
-1.391073
 30
0.0
  0
SPLINE
  5
127
100
AcDbEntity
  8
0
 62
7
100
AcDbSpline
 70
8
 71
3
 72
8
 73
4
 74
0
 40
0
 40
0
 40
0
 40
0
 40
1
 40
1
 40
1
 40
1
 10
198.877752
 20
-1.391073
 30
0.0
 10
198.671462
 20
-1.184783
 30
0.0
 10
198.391672
 20
-1.068890
 30
0.0
 10
198.099934
 20
-1.068890
 30
0.0
  0
LWPOLYLINE
  5
128
100
AcDbEntity
  8
0
 62
7
100
AcDbPolyline
 90
1
 70
1
 10
298.099480
 20
-1.068890
 30
0.0
  0
SPLINE
  5
129
100
AcDbEntity
  8
0
 62
7
100
AcDbSpline
 70
8
 71
3
 72
8
 73
4
 74
0
 40
0
 40
0
 40
0
 40
0
 40
1
 40
1
 40
1
 40
1
 10
113.100104
 20
-1.068890
 30
0.0
 10
112.655195
 20
-1.068890
 30
0.0
 10
112.254095
 20
-1.336897
 30
0.0
 10
112.083836
 20
-1.747939
 30
0.0
  0
SPLINE
  5
12a
100
AcDbEntity
  8
0
 62
7
100
AcDbSpline
 70
8
 71
3
 72
8
 73
4
 74
0
 40
0
 40
0
 40
0
 40
0
 40
1
 40
1
 40
1
 40
1
 10
112.083836
 20
-1.747939
 30
0.0
 10
111.913577
 20
-2.158981
 30
0.0
 10
112.007688
 20
-2.632111
 30
0.0
 10
112.322286
 20
-2.946708
 30
0.0
  0
SPLINE
  5
12b
100
AcDbEntity
  8
0
 62
7
100
AcDbSpline
 70
8
 71
3
 72
8
 73
4
 74
0
 40
0
 40
0
 40
0
 40
0
 40
1
 40
1
 40
1
 40
1
 10
112.322286
 20
-2.946708
 30
0.0
 10
112.636884
 20
-3.261306
 30
0.0
 10
113.110014
 20
-3.355418
 30
0.0
 10
113.521056
 20
-3.185159
 30
0.0
  0
SPLINE
  5
12c
100
AcDbEntity
  8
0
 62
7
100
AcDbSpline
 70
8
 71
3
 72
8
 73
4
 74
0
 40
0
 40
0
 40
0
 40
0
 40
1
 40
1
 40
1
 40
1
 10
113.521056
 20
-3.185159
 30
0.0
 10
113.932098
 20
-3.014899
 30
0.0
 10
114.200104
 20
-2.613799
 30
0.0
 10
114.200104
 20
-2.168891
 30
0.0
  0
SPLINE
  5
12d
100
AcDbEntity
  8
0
 62
7
100
AcDbSpline
 70
8
 71
3
 72
8
 73
4
 74
0
 40
0
 40
0
 40
0
 40
0
 40
1
 40
1
 40
1
 40
1
 10
114.200104
 20
-2.168891
 30
0.0
 10
114.200104
 20
-1.877153
 30
0.0
 10
114.084212
 20
-1.597363
 30
0.0
 10
113.877922
 20
-1.391073
 30
0.0
  0
SPLINE
  5
12e
100
AcDbEntity
  8
0
 62
7
100
AcDbSpline
 70
8
 71
3
 72
8
 73
4
 74
0
 40
0
 40
0
 40
0
 40
0
 40
1
 40
1
 40
1
 40
1
 10
113.877922
 20
-1.391073
 30
0.0
 10
113.671632
 20
-1.184783
 30
0.0
 10
113.391842
 20
-1.068890
 30
0.0
 10
113.100104
 20
-1.068890
 30
0.0
  0
LWPOLYLINE
  5
12f
100
AcDbEntity
  8
0
 62
7
100
AcDbPolyline
 90
1
 70
1
 10
198.099934
 20
-1.068890
 30
0.0
  0
SPLINE
  5
130
100
AcDbEntity
  8
0
 62
7
100
AcDbSpline
 70
8
 71
3
 72
8
 73
4
 74
0
 40
0
 40
0
 40
0
 40
0
 40
1
 40
1
 40
1
 40
1
 10
13.099999
 20
-1.068890
 30
0.0
 10
12.655091
 20
-1.068890
 30
0.0
 10
12.253991
 20
-1.336897
 30
0.0
 10
12.083731
 20
-1.747939
 30
0.0
  0
SPLINE
  5
131
100
AcDbEntity
  8
0
 62
7
100
AcDbSpline
 70
8
 71
3
 72
8
 73
4
 74
0
 40
0
 40
0
 40
0
 40
0
 40
1
 40
1
 40
1
 40
1
 10
12.083731
 20
-1.747939
 30
0.0
 10
11.913472
 20
-2.158981
 30
0.0
 10
12.007584
 20
-2.632111
 30
0.0
 10
12.322182
 20
-2.946708
 30
0.0
  0
SPLINE
  5
132
100
AcDbEntity
  8
0
 62
7
100
AcDbSpline
 70
8
 71
3
 72
8
 73
4
 74
0
 40
0
 40
0
 40
0
 40
0
 40
1
 40
1
 40
1
 40
1
 10
12.322182
 20
-2.946708
 30
0.0
 10
12.636779
 20
-3.261306
 30
0.0
 10
13.109909
 20
-3.355418
 30
0.0
 10
13.520951
 20
-3.185159
 30
0.0
  0
SPLINE
  5
133
100
AcDbEntity
  8
0
 62
7
100
AcDbSpline
 70
8
 71
3
 72
8
 73
4
 74
0
 40
0
 40
0
 40
0
 40
0
 40
1
 40
1
 40
1
 40
1
 10
13.520951
 20
-3.185159
 30
0.0
 10
13.931993
 20
-3.014899
 30
0.0
 10
14.200000
 20
-2.613799
 30
0.0
 10
14.200000
 20
-2.168891
 30
0.0
  0
SPLINE
  5
134
100
AcDbEntity
  8
0
 62
7
100
AcDbSpline
 70
8
 71
3
 72
8
 73
4
 74
0
 40
0
 40
0
 40
0
 40
0
 40
1
 40
1
 40
1
 40
1
 10
14.200000
 20
-2.168891
 30
0.0
 10
14.200000
 20
-1.877153
 30
0.0
 10
14.084107
 20
-1.597363
 30
0.0
 10
13.877817
 20
-1.391073
 30
0.0
  0
SPLINE
  5
135
100
AcDbEntity
  8
0
 62
7
100
AcDbSpline
 70
8
 71
3
 72
8
 73
4
 74
0
 40
0
 40
0
 40
0
 40
0
 40
1
 40
1
 40
1
 40
1
 10
13.877817
 20
-1.391073
 30
0.0
 10
13.671527
 20
-1.184783
 30
0.0
 10
13.391737
 20
-1.068890
 30
0.0
 10
13.099999
 20
-1.068890
 30
0.0
  0
LWPOLYLINE
  5
136
100
AcDbEntity
  8
0
 62
7
100
AcDbPolyline
 90
1
 70
1
 10
113.100104
 20
-1.068890
 30
0.0
  0
LWPOLYLINE
  5
137
100
AcDbEntity
  8
0
 62
7
100
AcDbPolyline
 90
1
 70
1
 10
13.099999
 20
-1.068890
 30
0.0
  0
LWPOLYLINE
  5
138
100
AcDbEntity
  8
0
 62
7
100
AcDbPolyline
 90
2
 70
0
 10
301.099220
 20
-83.316938
 30
0.0
 10
309.598060
 20
-83.316938
 30
0.0
  0
LWPOLYLINE
  5
139
100
AcDbEntity
  8
0
 62
7
100
AcDbPolyline
 90
2
 70
0
 10
201.099420
 20
-83.316938
 30
0.0
 10
295.099740
 20
-83.316938
 30
0.0
  0
LWPOLYLINE
  5
13a
100
AcDbEntity
  8
0
 62
7
100
AcDbPolyline
 90
2
 70
0
 10
116.098320
 20
-83.316938
 30
0.0
 10
195.099940
 20
-83.316938
 30
0.0
  0
LWPOLYLINE
  5
13b
100
AcDbEntity
  8
0
 62
7
100
AcDbPolyline
 90
2
 70
0
 10
16.098520
 20
-83.316938
 30
0.0
 10
110.098840
 20
-83.316938
 30
0.0
  0
LWPOLYLINE
  5
13c
100
AcDbEntity
  8
0
 62
7
100
AcDbPolyline
 90
2
 70
0
 10
301.099220
 20
-4.167998
 30
0.0
 10
309.598060
 20
-4.167998
 30
0.0
  0
LWPOLYLINE
  5
13d
100
AcDbEntity
  8
0
 62
7
100
AcDbPolyline
 90
2
 70
0
 10
201.099420
 20
-4.167998
 30
0.0
 10
295.099740
 20
-4.167998
 30
0.0
  0
LWPOLYLINE
  5
13e
100
AcDbEntity
  8
0
 62
7
100
AcDbPolyline
 90
2
 70
0
 10
116.098320
 20
-4.167998
 30
0.0
 10
195.099940
 20
-4.167998
 30
0.0
  0
LWPOLYLINE
  5
13f
100
AcDbEntity
  8
0
 62
7
100
AcDbPolyline
 90
2
 70
0
 10
16.098520
 20
-4.167998
 30
0.0
 10
110.098840
 20
-4.167998
 30
0.0
  0
LWPOLYLINE
  5
140
100
AcDbEntity
  8
0
 62
7
100
AcDbPolyline
 90
2
 70
0
 10
16.098520
 20
-2.166478
 30
0.0
 10
16.098520
 20
-4.167998
 30
0.0
  0
LWPOLYLINE
  5
141
100
AcDbEntity
  8
0
 62
7
100
AcDbPolyline
 90
2
 70
0
 10
10.099040
 20
-2.166478
 30
0.0
 10
10.099040
 20
-4.167998
 30
0.0
  0
LWPOLYLINE
  5
142
100
AcDbEntity
  8
0
 62
7
100
AcDbPolyline
 90
2
 70
0
 10
116.098320
 20
-2.166478
 30
0.0
 10
116.098320
 20
-4.167998
 30
0.0
  0
LWPOLYLINE
  5
143
100
AcDbEntity
  8
0
 62
7
100
AcDbPolyline
 90
2
 70
0
 10
110.098840
 20
-2.166478
 30
0.0
 10
110.098840
 20
-4.167998
 30
0.0
  0
LWPOLYLINE
  5
144
100
AcDbEntity
  8
0
 62
7
100
AcDbPolyline
 90
2
 70
0
 10
195.099940
 20
-2.166478
 30
0.0
 10
195.099940
 20
-4.167998
 30
0.0
  0
LWPOLYLINE
  5
145
100
AcDbEntity
  8
0
 62
7
100
AcDbPolyline
 90
2
 70
0
 10
201.099420
 20
-2.166478
 30
0.0
 10
201.099420
 20
-4.167998
 30
0.0
  0
LWPOLYLINE
  5
146
100
AcDbEntity
  8
0
 62
7
100
AcDbPolyline
 90
2
 70
0
 10
295.099740
 20
-2.166478
 30
0.0
 10
295.099740
 20
-4.167998
 30
0.0
  0
SPLINE
  5
147
100
AcDbEntity
  8
0
 62
7
100
AcDbSpline
 70
8
 71
3
 72
8
 73
4
 74
0
 40
0
 40
0
 40
0
 40
0
 40
1
 40
1
 40
1
 40
1
 10
301.099220
 20
-2.168891
 30
0.0
 10
301.077858
 20
-0.527404
 30
0.0
 10
299.741106
 20
0.792066
 30
0.0
 10
298.099480
 20
0.792066
 30
0.0
  0
SPLINE
  5
148
100
AcDbEntity
  8
0
 62
7
100
AcDbSpline
 70
8
 71
3
 72
8
 73
4
 74
0
 40
0
 40
0
 40
0
 40
0
 40
1
 40
1
 40
1
 40
1
 10
298.099480
 20
0.792066
 30
0.0
 10
296.457854
 20
0.792066
 30
0.0
 10
295.121102
 20
-0.527404
 30
0.0
 10
295.099740
 20
-2.168891
 30
0.0
  0
SPLINE
  5
149
100
AcDbEntity
  8
0
 62
7
100
AcDbSpline
 70
8
 71
3
 72
8
 73
4
 74
0
 40
0
 40
0
 40
0
 40
0
 40
1
 40
1
 40
1
 40
1
 10
201.099928
 20
-2.168891
 30
0.0
 10
201.099928
 20
-1.097096
 30
0.0
 10
200.528132
 20
-0.106717
 30
0.0
 10
199.599931
 20
0.429180
 30
0.0
  0
SPLINE
  5
14a
100
AcDbEntity
  8
0
 62
7
100
AcDbSpline
 70
8
 71
3
 72
8
 73
4
 74
0
 40
0
 40
0
 40
0
 40
0
 40
1
 40
1
 40
1
 40
1
 10
199.599931
 20
0.429180
 30
0.0
 10
198.671730
 20
0.965078
 30
0.0
 10
197.528138
 20
0.965078
 30
0.0
 10
196.599937
 20
0.429180
 30
0.0
  0
SPLINE
  5
14b
100
AcDbEntity
  8
0
 62
7
100
AcDbSpline
 70
8
 71
3
 72
8
 73
4
 74
0
 40
0
 40
0
 40
0
 40
0
 40
1
 40
1
 40
1
 40
1
 10
196.599937
 20
0.429180
 30
0.0
 10
195.671736
 20
-0.106717
 30
0.0
 10
195.099940
 20
-1.097096
 30
0.0
 10
195.099940
 20
-2.168891
 30
0.0
  0
SPLINE
  5
14c
100
AcDbEntity
  8
0
 62
7
100
AcDbSpline
 70
8
 71
3
 72
8
 73
4
 74
0
 40
0
 40
0
 40
0
 40
0
 40
1
 40
1
 40
1
 40
1
 10
116.100098
 20
-2.168891
 30
0.0
 10
116.100098
 20
-0.512040
 30
0.0
 10
114.756955
 20
0.831103
 30
0.0
 10
113.100104
 20
0.831103
 30
0.0
  0
SPLINE
  5
14d
100
AcDbEntity
  8
0
 62
7
100
AcDbSpline
 70
8
 71
3
 72
8
 73
4
 74
0
 40
0
 40
0
 40
0
 40
0
 40
1
 40
1
 40
1
 40
1
 10
113.100104
 20
0.831103
 30
0.0
 10
111.443253
 20
0.831103
 30
0.0
 10
110.100110
 20
-0.512040
 30
0.0
 10
110.100110
 20
-2.168891
 30
0.0
  0
SPLINE
  5
14e
100
AcDbEntity
  8
0
 62
7
100
AcDbSpline
 70
8
 71
3
 72
8
 73
4
 74
0
 40
0
 40
0
 40
0
 40
0
 40
1
 40
1
 40
1
 40
1
 10
16.099993
 20
-2.168891
 30
0.0
 10
16.099993
 20
-1.097096
 30
0.0
 10
15.528198
 20
-0.106717
 30
0.0
 10
14.599996
 20
0.429180
 30
0.0
  0
SPLINE
  5
14f
100
AcDbEntity
  8
0
 62
7
100
AcDbSpline
 70
8
 71
3
 72
8
 73
4
 74
0
 40
0
 40
0
 40
0
 40
0
 40
1
 40
1
 40
1
 40
1
 10
14.599996
 20
0.429180
 30
0.0
 10
13.671795
 20
0.965078
 30
0.0
 10
12.528204
 20
0.965078
 30
0.0
 10
11.600002
 20
0.429180
 30
0.0
  0
SPLINE
  5
150
100
AcDbEntity
  8
0
 62
7
100
AcDbSpline
 70
8
 71
3
 72
8
 73
4
 74
0
 40
0
 40
0
 40
0
 40
0
 40
1
 40
1
 40
1
 40
1
 10
11.600002
 20
0.429180
 30
0.0
 10
10.671801
 20
-0.106717
 30
0.0
 10
10.100005
 20
-1.097096
 30
0.0
 10
10.100005
 20
-2.168891
 30
0.0
  0
SPLINE
  5
151
100
AcDbEntity
  8
0
 62
7
100
AcDbSpline
 70
8
 71
3
 72
8
 73
4
 74
0
 40
0
 40
0
 40
0
 40
0
 40
1
 40
1
 40
1
 40
1
 10
10.100005
 20
-85.318458
 30
0.0
 10
10.100005
 20
-86.390252
 30
0.0
 10
10.671801
 20
-87.380631
 30
0.0
 10
11.600002
 20
-87.916529
 30
0.0
  0
SPLINE
  5
152
100
AcDbEntity
  8
0
 62
7
100
AcDbSpline
 70
8
 71
3
 72
8
 73
4
 74
0
 40
0
 40
0
 40
0
 40
0
 40
1
 40
1
 40
1
 40
1
 10
11.600002
 20
-87.916529
 30
0.0
 10
12.528204
 20
-88.452426
 30
0.0
 10
13.671795
 20
-88.452426
 30
0.0
 10
14.599996
 20
-87.916529
 30
0.0
  0
SPLINE
  5
153
100
AcDbEntity
  8
0
 62
7
100
AcDbSpline
 70
8
 71
3
 72
8
 73
4
 74
0
 40
0
 40
0
 40
0
 40
0
 40
1
 40
1
 40
1
 40
1
 10
14.599996
 20
-87.916529
 30
0.0
 10
15.528198
 20
-87.380631
 30
0.0
 10
16.099993
 20
-86.390252
 30
0.0
 10
16.099993
 20
-85.318458
 30
0.0
  0
SPLINE
  5
154
100
AcDbEntity
  8
0
 62
7
100
AcDbSpline
 70
8
 71
3
 72
8
 73
4
 74
0
 40
0
 40
0
 40
0
 40
0
 40
1
 40
1
 40
1
 40
1
 10
110.100110
 20
-85.318458
 30
0.0
 10
110.100110
 20
-86.975309
 30
0.0
 10
111.443253
 20
-88.318452
 30
0.0
 10
113.100104
 20
-88.318452
 30
0.0
  0
SPLINE
  5
155
100
AcDbEntity
  8
0
 62
7
100
AcDbSpline
 70
8
 71
3
 72
8
 73
4
 74
0
 40
0
 40
0
 40
0
 40
0
 40
1
 40
1
 40
1
 40
1
 10
113.100104
 20
-88.318452
 30
0.0
 10
114.756955
 20
-88.318452
 30
0.0
 10
116.100098
 20
-86.975309
 30
0.0
 10
116.100098
 20
-85.318458
 30
0.0
  0
SPLINE
  5
156
100
AcDbEntity
  8
0
 62
7
100
AcDbSpline
 70
8
 71
3
 72
8
 73
4
 74
0
 40
0
 40
0
 40
0
 40
0
 40
1
 40
1
 40
1
 40
1
 10
195.099940
 20
-85.318458
 30
0.0
 10
195.099940
 20
-86.390252
 30
0.0
 10
195.671736
 20
-87.380631
 30
0.0
 10
196.599937
 20
-87.916529
 30
0.0
  0
SPLINE
  5
157
100
AcDbEntity
  8
0
 62
7
100
AcDbSpline
 70
8
 71
3
 72
8
 73
4
 74
0
 40
0
 40
0
 40
0
 40
0
 40
1
 40
1
 40
1
 40
1
 10
196.599937
 20
-87.916529
 30
0.0
 10
197.528138
 20
-88.452426
 30
0.0
 10
198.671730
 20
-88.452426
 30
0.0
 10
199.599931
 20
-87.916529
 30
0.0
  0
SPLINE
  5
158
100
AcDbEntity
  8
0
 62
7
100
AcDbSpline
 70
8
 71
3
 72
8
 73
4
 74
0
 40
0
 40
0
 40
0
 40
0
 40
1
 40
1
 40
1
 40
1
 10
199.599931
 20
-87.916529
 30
0.0
 10
200.528132
 20
-87.380631
 30
0.0
 10
201.099928
 20
-86.390252
 30
0.0
 10
201.099928
 20
-85.318458
 30
0.0
  0
SPLINE
  5
159
100
AcDbEntity
  8
0
 62
7
100
AcDbSpline
 70
8
 71
3
 72
8
 73
4
 74
0
 40
0
 40
0
 40
0
 40
0
 40
1
 40
1
 40
1
 40
1
 10
295.099740
 20
-85.318458
 30
0.0
 10
295.121102
 20
-86.959945
 30
0.0
 10
296.457854
 20
-88.279414
 30
0.0
 10
298.099480
 20
-88.279414
 30
0.0
  0
SPLINE
  5
15a
100
AcDbEntity
  8
0
 62
7
100
AcDbSpline
 70
8
 71
3
 72
8
 73
4
 74
0
 40
0
 40
0
 40
0
 40
0
 40
1
 40
1
 40
1
 40
1
 10
298.099480
 20
-88.279414
 30
0.0
 10
299.741106
 20
-88.279414
 30
0.0
 10
301.077858
 20
-86.959945
 30
0.0
 10
301.099220
 20
-85.318458
 30
0.0
  0
LWPOLYLINE
  5
15b
100
AcDbEntity
  8
0
 62
7
100
AcDbPolyline
 90
2
 70
0
 10
301.099220
 20
-2.166478
 30
0.0
 10
301.099220
 20
-4.167998
 30
0.0
  0
LWPOLYLINE
  5
15c
100
AcDbEntity
  8
0
 62
7
100
AcDbPolyline
 90
2
 70
0
 10
16.098520
 20
-83.316938
 30
0.0
 10
16.098520
 20
-85.315918
 30
0.0
  0
LWPOLYLINE
  5
15d
100
AcDbEntity
  8
0
 62
7
100
AcDbPolyline
 90
2
 70
0
 10
10.099040
 20
-83.316938
 30
0.0
 10
10.099040
 20
-85.315918
 30
0.0
  0
LWPOLYLINE
  5
15e
100
AcDbEntity
  8
0
 62
7
100
AcDbPolyline
 90
2
 70
0
 10
110.098840
 20
-83.316938
 30
0.0
 10
110.098840
 20
-85.315918
 30
0.0
  0
LWPOLYLINE
  5
15f
100
AcDbEntity
  8
0
 62
7
100
AcDbPolyline
 90
2
 70
0
 10
116.098320
 20
-83.316938
 30
0.0
 10
116.098320
 20
-85.315918
 30
0.0
  0
LWPOLYLINE
  5
160
100
AcDbEntity
  8
0
 62
7
100
AcDbPolyline
 90
2
 70
0
 10
201.099420
 20
-83.316938
 30
0.0
 10
201.099420
 20
-85.315918
 30
0.0
  0
LWPOLYLINE
  5
161
100
AcDbEntity
  8
0
 62
7
100
AcDbPolyline
 90
2
 70
0
 10
195.099940
 20
-83.316938
 30
0.0
 10
195.099940
 20
-85.315918
 30
0.0
  0
LWPOLYLINE
  5
162
100
AcDbEntity
  8
0
 62
7
100
AcDbPolyline
 90
2
 70
0
 10
301.099220
 20
-83.316938
 30
0.0
 10
301.099220
 20
-85.315918
 30
0.0
  0
LWPOLYLINE
  5
163
100
AcDbEntity
  8
0
 62
7
100
AcDbPolyline
 90
2
 70
0
 10
295.099740
 20
-83.316938
 30
0.0
 10
295.099740
 20
-85.315918
 30
0.0
  0
LWPOLYLINE
  5
164
100
AcDbEntity
  8
0
 62
7
100
AcDbPolyline
 90
3
 70
0
 10
4.439920
 20
-17.586818
 30
0.0
 10
4.439920
 20
-31.787958
 30
0.0
 10
20.439380
 20
-31.787958
 30
0.0
  0
LWPOLYLINE
  5
165
100
AcDbEntity
  8
0
 62
7
100
AcDbPolyline
 90
2
 70
0
 10
20.439380
 20
-17.586818
 30
0.0
 10
20.439380
 20
-31.787958
 30
0.0
  0
SPLINE
  5
166
100
AcDbEntity
  8
0
 62
7
100
AcDbSpline
 70
8
 71
3
 72
8
 73
4
 74
0
 40
0
 40
0
 40
0
 40
0
 40
1
 40
1
 40
1
 40
1
 10
1.600002
 20
-4.168887
 30
0.0
 10
0.771576
 20
-4.168886
 30
0.0
 10
0.100002
 20
-4.840457
 30
0.0
 10
0.100001
 20
-5.668884
 30
0.0
  0
SPLINE
  5
167
100
AcDbEntity
  8
0
 62
7
100
AcDbSpline
 70
8
 71
3
 72
8
 73
4
 74
0
 40
0
 40
0
 40
0
 40
0
 40
1
 40
1
 40
1
 40
1
 10
0.100001
 20
-81.818338
 30
0.0
 10
0.099968
 20
-82.216184
 30
0.0
 10
0.257989
 20
-82.597747
 30
0.0
 10
0.539297
 20
-82.879079
 30
0.0
  0
SPLINE
  5
168
100
AcDbEntity
  8
0
 62
7
100
AcDbSpline
 70
8
 71
3
 72
8
 73
4
 74
0
 40
0
 40
0
 40
0
 40
0
 40
1
 40
1
 40
1
 40
1
 10
0.539297
 20
-82.879079
 30
0.0
 10
0.820606
 20
-83.160410
 30
0.0
 10
1.202155
 20
-83.318462
 30
0.0
 10
1.600002
 20
-83.318462
 30
0.0
  0
SPLINE
  5
169
100
AcDbEntity
  8
0
 62
7
100
AcDbSpline
 70
8
 71
3
 72
8
 73
4
 74
0
 40
0
 40
0
 40
0
 40
0
 40
1
 40
1
 40
1
 40
1
 10
309.600600
 20
-83.318462
 30
0.0
 10
310.428529
 20
-83.317689
 30
0.0
 10
311.099269
 20
-82.646267
 30
0.0
 10
311.099200
 20
-81.818338
 30
0.0
  0
SPLINE
  5
16a
100
AcDbEntity
  8
0
 62
7
100
AcDbSpline
 70
8
 71
3
 72
8
 73
4
 74
0
 40
0
 40
0
 40
0
 40
0
 40
1
 40
1
 40
1
 40
1
 10
311.099200
 20
-5.668884
 30
0.0
 10
311.099199
 20
-4.841004
 30
0.0
 10
310.428479
 20
-4.169659
 30
0.0
 10
309.600600
 20
-4.168887
 30
0.0
  0
LWPOLYLINE
  5
16b
100
AcDbEntity
  8
0
 62
7
100
AcDbPolyline
 90
2
 70
0
 10
4.439920
 20
-17.586818
 30
0.0
 10
20.439380
 20
-17.586818
 30
0.0
  0
LWPOLYLINE
  5
16c
100
AcDbEntity
  8
0
 62
7
100
AcDbPolyline
 90
2
 70
0
 10
0.099060
 20
-81.818338
 30
0.0
 10
0.099060
 20
-5.666598
 30
0.0
  0
LWPOLYLINE
  5
16d
100
AcDbEntity
  8
0
 62
7
100
AcDbPolyline
 90
2
 70
0
 10
268.048740
 20
-79.316438
 30
0.0
 10
301.099220
 20
-79.316438
 30
0.0
  0
LWPOLYLINE
  5
16e
100
AcDbEntity
  8
0
 62
7
100
AcDbPolyline
 90
2
 70
0
 10
1.597660
 20
-4.167998
 30
0.0
 10
10.099040
 20
-4.167998
 30
0.0
  0
LWPOLYLINE
  5
16f
100
AcDbEntity
  8
0
 62
7
100
AcDbPolyline
 90
2
 70
0
 10
268.048740
 20
-65.318498
 30
0.0
 10
268.048740
 20
-79.316438
 30
0.0
  0
LWPOLYLINE
  5
170
100
AcDbEntity
  8
0
 62
7
100
AcDbPolyline
 90
2
 70
0
 10
271.025620
 20
-65.318498
 30
0.0
 10
268.048740
 20
-65.318498
 30
0.0
  0
LWPOLYLINE
  5
171
100
AcDbEntity
  8
0
 62
7
100
AcDbPolyline
 90
2
 70
0
 10
10.099040
 20
-83.316938
 30
0.0
 10
1.597660
 20
-83.316938
 30
0.0
  0
LWPOLYLINE
  5
172
100
AcDbEntity
  8
0
 62
7
100
AcDbPolyline
 90
2
 70
0
 10
301.099220
 20
-65.318498
 30
0.0
 10
298.124880
 20
-65.318498
 30
0.0
  0
LWPOLYLINE
  5
173
100
AcDbEntity
  8
0
 62
7
100
AcDbPolyline
 90
2
 70
0
 10
301.099220
 20
-79.316438
 30
0.0
 10
301.099220
 20
-65.318498
 30
0.0
  0
LWPOLYLINE
  5
174
100
AcDbEntity
  8
0
 62
7
100
AcDbPolyline
 90
2
 70
0
 10
271.025620
 20
-64.348218
 30
0.0
 10
271.025620
 20
-65.318498
 30
0.0
  0
LWPOLYLINE
  5
175
100
AcDbEntity
  8
0
 62
7
100
AcDbPolyline
 90
2
 70
0
 10
311.099200
 20
-5.666598
 30
0.0
 10
311.099200
 20
-81.818338
 30
0.0
  0
LWPOLYLINE
  5
176
100
AcDbEntity
  8
0
 62
7
100
AcDbPolyline
 90
2
 70
0
 10
98.691700
 20
-65.318498
 30
0.0
 10
90.967560
 20
-65.318498
 30
0.0
  0
LWPOLYLINE
  5
177
100
AcDbEntity
  8
0
 62
7
100
AcDbPolyline
 90
2
 70
0
 10
111.480600
 20
-64.348218
 30
0.0
 10
111.480600
 20
-65.547098
 30
0.0
  0
LWPOLYLINE
  5
178
100
AcDbEntity
  8
0
 62
7
100
AcDbPolyline
 90
2
 70
0
 10
98.691700
 20
-74.617438
 30
0.0
 10
109.755940
 20
-74.617438
 30
0.0
  0
LWPOLYLINE
  5
179
100
AcDbEntity
  8
0
 62
7
100
AcDbPolyline
 90
2
 70
0
 10
87.665560
 20
-65.318498
 30
0.0
 10
82.311240
 20
-65.318498
 30
0.0
  0
LWPOLYLINE
  5
17a
100
AcDbEntity
  8
0
 62
7
100
AcDbPolyline
 90
2
 70
0
 10
118.031260
 20
-79.316438
 30
0.0
 10
146.316700
 20
-79.316438
 30
0.0
  0
LWPOLYLINE
  5
17b
100
AcDbEntity
  8
0
 62
7
100
AcDbPolyline
 90
2
 70
0
 10
98.691700
 20
-70.017498
 30
0.0
 10
98.691700
 20
-65.318498
 30
0.0
  0
LWPOLYLINE
  5
17c
100
AcDbEntity
  8
0
 62
7
100
AcDbPolyline
 90
2
 70
0
 10
109.755940
 20
-74.617438
 30
0.0
 10
109.755940
 20
-77.848318
 30
0.0
  0
LWPOLYLINE
  5
17d
100
AcDbEntity
  8
0
 62
7
100
AcDbPolyline
 90
2
 70
0
 10
82.311240
 20
-65.318498
 30
0.0
 10
82.311240
 20
-79.316438
 30
0.0
  0
LWPOLYLINE
  5
17e
100
AcDbEntity
  8
0
 62
7
100
AcDbPolyline
 90
2
 70
0
 10
111.480600
 20
-65.547098
 30
0.0
 10
109.755940
 20
-65.547098
 30
0.0
  0
LWPOLYLINE
  5
17f
100
AcDbEntity
  8
0
 62
7
100
AcDbPolyline
 90
2
 70
0
 10
82.311240
 20
-79.316438
 30
0.0
 10
98.691700
 20
-79.316438
 30
0.0
  0
LWPOLYLINE
  5
180
100
AcDbEntity
  8
0
 62
7
100
AcDbPolyline
 90
2
 70
0
 10
109.755940
 20
-70.017498
 30
0.0
 10
98.691700
 20
-70.017498
 30
0.0
  0
LWPOLYLINE
  5
181
100
AcDbEntity
  8
0
 62
7
100
AcDbPolyline
 90
3
 70
0
 10
90.967560
 20
-64.348218
 30
0.0
 10
87.665560
 20
-64.348218
 30
0.0
 10
87.665560
 20
-65.318498
 30
0.0
  0
LWPOLYLINE
  5
182
100
AcDbEntity
  8
0
 62
7
100
AcDbPolyline
 90
2
 70
0
 10
98.691700
 20
-79.316438
 30
0.0
 10
98.691700
 20
-74.617438
 30
0.0
  0
LWPOLYLINE
  5
183
100
AcDbEntity
  8
0
 62
7
100
AcDbPolyline
 90
2
 70
0
 10
118.031260
 20
-77.848318
 30
0.0
 10
118.031260
 20
-79.316438
 30
0.0
  0
LWPOLYLINE
  5
184
100
AcDbEntity
  8
0
 62
7
100
AcDbPolyline
 90
2
 70
0
 10
90.967560
 20
-65.318498
 30
0.0
 10
90.967560
 20
-64.348218
 30
0.0
  0
LWPOLYLINE
  5
185
100
AcDbEntity
  8
0
 62
7
100
AcDbPolyline
 90
2
 70
0
 10
109.755940
 20
-77.848318
 30
0.0
 10
118.031260
 20
-77.848318
 30
0.0
  0
LWPOLYLINE
  5
186
100
AcDbEntity
  8
0
 62
7
100
AcDbPolyline
 90
2
 70
0
 10
109.755940
 20
-65.547098
 30
0.0
 10
109.755940
 20
-70.017498
 30
0.0
  0
LWPOLYLINE
  5
187
100
AcDbEntity
  8
0
 62
7
100
AcDbPolyline
 90
2
 70
0
 10
159.105600
 20
-65.318498
 30
0.0
 10
156.131260
 20
-65.318498
 30
0.0
  0
LWPOLYLINE
  5
188
100
AcDbEntity
  8
0
 62
7
100
AcDbPolyline
 90
2
 70
0
 10
182.905400
 20
-65.318498
 30
0.0
 10
162.405060
 20
-65.318498
 30
0.0
  0
LWPOLYLINE
  5
189
100
AcDbEntity
  8
0
 62
7
100
AcDbPolyline
 90
2
 70
0
 10
138.579860
 20
-64.348218
 30
0.0
 10
135.280400
 20
-64.348218
 30
0.0
  0
LWPOLYLINE
  5
18a
100
AcDbEntity
  8
0
 62
7
100
AcDbPolyline
 90
2
 70
0
 10
114.780060
 20
-64.348218
 30
0.0
 10
111.480600
 20
-64.348218
 30
0.0
  0
LWPOLYLINE
  5
18b
100
AcDbEntity
  8
0
 62
7
100
AcDbPolyline
 90
2
 70
0
 10
114.780060
 20
-65.318498
 30
0.0
 10
114.780060
 20
-64.348218
 30
0.0
  0
LWPOLYLINE
  5
18c
100
AcDbEntity
  8
0
 62
7
100
AcDbPolyline
 90
2
 70
0
 10
162.405060
 20
-64.348218
 30
0.0
 10
159.105600
 20
-64.348218
 30
0.0
  0
LWPOLYLINE
  5
18d
100
AcDbEntity
  8
0
 62
7
100
AcDbPolyline
 90
2
 70
0
 10
146.316700
 20
-70.017498
 30
0.0
 10
146.316700
 20
-65.318498
 30
0.0
  0
LWPOLYLINE
  5
18e
100
AcDbEntity
  8
0
 62
7
100
AcDbPolyline
 90
2
 70
0
 10
159.105600
 20
-64.348218
 30
0.0
 10
159.105600
 20
-65.318498
 30
0.0
  0
LWPOLYLINE
  5
18f
100
AcDbEntity
  8
0
 62
7
100
AcDbPolyline
 90
2
 70
0
 10
135.280400
 20
-65.318498
 30
0.0
 10
114.780060
 20
-65.318498
 30
0.0
  0
LWPOLYLINE
  5
190
100
AcDbEntity
  8
0
 62
7
100
AcDbPolyline
 90
2
 70
0
 10
146.316700
 20
-65.318498
 30
0.0
 10
138.579860
 20
-65.318498
 30
0.0
  0
LWPOLYLINE
  5
191
100
AcDbEntity
  8
0
 62
7
100
AcDbPolyline
 90
2
 70
0
 10
156.131260
 20
-70.017498
 30
0.0
 10
146.316700
 20
-70.017498
 30
0.0
  0
LWPOLYLINE
  5
192
100
AcDbEntity
  8
0
 62
7
100
AcDbPolyline
 90
2
 70
0
 10
135.280400
 20
-64.348218
 30
0.0
 10
135.280400
 20
-65.318498
 30
0.0
  0
LWPOLYLINE
  5
193
100
AcDbEntity
  8
0
 62
7
100
AcDbPolyline
 90
2
 70
0
 10
162.405060
 20
-65.318498
 30
0.0
 10
162.405060
 20
-64.348218
 30
0.0
  0
LWPOLYLINE
  5
194
100
AcDbEntity
  8
0
 62
7
100
AcDbPolyline
 90
2
 70
0
 10
138.579860
 20
-65.318498
 30
0.0
 10
138.579860
 20
-64.348218
 30
0.0
  0
LWPOLYLINE
  5
195
100
AcDbEntity
  8
0
 62
7
100
AcDbPolyline
 90
2
 70
0
 10
156.131260
 20
-65.318498
 30
0.0
 10
156.131260
 20
-70.017498
 30
0.0
  0
LWPOLYLINE
  5
196
100
AcDbEntity
  8
0
 62
7
100
AcDbPolyline
 90
2
 70
0
 10
227.566220
 20
-65.318498
 30
0.0
 10
241.566700
 20
-65.318498
 30
0.0
  0
LWPOLYLINE
  5
197
100
AcDbEntity
  8
0
 62
7
100
AcDbPolyline
 90
2
 70
0
 10
227.566220
 20
-79.316438
 30
0.0
 10
227.566220
 20
-65.318498
 30
0.0
  0
LWPOLYLINE
  5
198
100
AcDbEntity
  8
0
 62
7
100
AcDbPolyline
 90
2
 70
0
 10
248.998740
 20
-79.316438
 30
0.0
 10
248.998740
 20
-65.318498
 30
0.0
  0
LWPOLYLINE
  5
199
100
AcDbEntity
  8
0
 62
7
100
AcDbPolyline
 90
2
 70
0
 10
262.999220
 20
-65.318498
 30
0.0
 10
262.999220
 20
-79.316438
 30
0.0
  0
LWPOLYLINE
  5
19a
100
AcDbEntity
  8
0
 62
7
100
AcDbPolyline
 90
2
 70
0
 10
274.322540
 20
-64.348218
 30
0.0
 10
271.025620
 20
-64.348218
 30
0.0
  0
LWPOLYLINE
  5
19b
100
AcDbEntity
  8
0
 62
7
100
AcDbPolyline
 90
2
 70
0
 10
241.566700
 20
-65.318498
 30
0.0
 10
241.566700
 20
-79.316438
 30
0.0
  0
LWPOLYLINE
  5
19c
100
AcDbEntity
  8
0
 62
7
100
AcDbPolyline
 90
2
 70
0
 10
248.998740
 20
-65.318498
 30
0.0
 10
262.999220
 20
-65.318498
 30
0.0
  0
LWPOLYLINE
  5
19d
100
AcDbEntity
  8
0
 62
7
100
AcDbPolyline
 90
2
 70
0
 10
294.825420
 20
-65.318498
 30
0.0
 10
274.322540
 20
-65.318498
 30
0.0
  0
LWPOLYLINE
  5
19e
100
AcDbEntity
  8
0
 62
7
100
AcDbPolyline
 90
2
 70
0
 10
298.124880
 20
-64.348218
 30
0.0
 10
294.825420
 20
-64.348218
 30
0.0
  0
LWPOLYLINE
  5
19f
100
AcDbEntity
  8
0
 62
7
100
AcDbPolyline
 90
2
 70
0
 10
241.566700
 20
-79.316438
 30
0.0
 10
227.566220
 20
-79.316438
 30
0.0
  0
LWPOLYLINE
  5
1a0
100
AcDbEntity
  8
0
 62
7
100
AcDbPolyline
 90
2
 70
0
 10
182.905400
 20
-64.348218
 30
0.0
 10
182.905400
 20
-65.318498
 30
0.0
  0
LWPOLYLINE
  5
1a1
100
AcDbEntity
  8
0
 62
7
100
AcDbPolyline
 90
2
 70
0
 10
190.967360
 20
-64.348218
 30
0.0
 10
182.905400
 20
-64.348218
 30
0.0
  0
LWPOLYLINE
  5
1a2
100
AcDbEntity
  8
0
 62
7
100
AcDbPolyline
 90
2
 70
0
 10
294.825420
 20
-64.348218
 30
0.0
 10
294.825420
 20
-65.318498
 30
0.0
  0
LWPOLYLINE
  5
1a3
100
AcDbEntity
  8
0
 62
7
100
AcDbPolyline
 90
2
 70
0
 10
262.999220
 20
-79.316438
 30
0.0
 10
248.998740
 20
-79.316438
 30
0.0
  0
LWPOLYLINE
  5
1a4
100
AcDbEntity
  8
0
 62
7
100
AcDbPolyline
 90
2
 70
0
 10
274.322540
 20
-65.318498
 30
0.0
 10
274.322540
 20
-64.348218
 30
0.0
  0
LWPOLYLINE
  5
1a5
100
AcDbEntity
  8
0
 62
7
100
AcDbPolyline
 90
2
 70
0
 10
298.124880
 20
-65.318498
 30
0.0
 10
298.124880
 20
-64.348218
 30
0.0
  0
LWPOLYLINE
  5
1a6
100
AcDbEntity
  8
0
 62
7
100
AcDbPolyline
 90
2
 70
0
 10
134.698740
 20
-46.268498
 30
0.0
 10
148.699220
 20
-46.268498
 30
0.0
  0
LWPOLYLINE
  5
1a7
100
AcDbEntity
  8
0
 62
7
100
AcDbPolyline
 90
3
 70
0
 10
167.749220
 20
-46.268498
 30
0.0
 10
167.749220
 20
-60.266438
 30
0.0
 10
153.748740
 20
-60.266438
 30
0.0
  0
LWPOLYLINE
  5
1a8
100
AcDbEntity
  8
0
 62
7
100
AcDbPolyline
 90
2
 70
0
 10
191.848740
 20
-60.266438
 30
0.0
 10
191.848740
 20
-46.268498
 30
0.0
  0
LWPOLYLINE
  5
1a9
100
AcDbEntity
  8
0
 62
7
100
AcDbPolyline
 90
2
 70
0
 10
153.748740
 20
-46.268498
 30
0.0
 10
167.749220
 20
-46.268498
 30
0.0
  0
LWPOLYLINE
  5
1aa
100
AcDbEntity
  8
0
 62
7
100
AcDbPolyline
 90
2
 70
0
 10
172.798740
 20
-60.266438
 30
0.0
 10
172.798740
 20
-46.268498
 30
0.0
  0
LWPOLYLINE
  5
1ab
100
AcDbEntity
  8
0
 62
7
100
AcDbPolyline
 90
2
 70
0
 10
186.799220
 20
-46.268498
 30
0.0
 10
186.799220
 20
-60.266438
 30
0.0
  0
LWPOLYLINE
  5
1ac
100
AcDbEntity
  8
0
 62
7
100
AcDbPolyline
 90
2
 70
0
 10
134.698740
 20
-60.266438
 30
0.0
 10
134.698740
 20
-46.268498
 30
0.0
  0
LWPOLYLINE
  5
1ad
100
AcDbEntity
  8
0
 62
7
100
AcDbPolyline
 90
2
 70
0
 10
153.748740
 20
-60.266438
 30
0.0
 10
153.748740
 20
-46.268498
 30
0.0
  0
LWPOLYLINE
  5
1ae
100
AcDbEntity
  8
0
 62
7
100
AcDbPolyline
 90
2
 70
0
 10
148.699220
 20
-46.268498
 30
0.0
 10
148.699220
 20
-60.266438
 30
0.0
  0
LWPOLYLINE
  5
1af
100
AcDbEntity
  8
0
 62
7
100
AcDbPolyline
 90
2
 70
0
 10
205.849220
 20
-60.266438
 30
0.0
 10
191.848740
 20
-60.266438
 30
0.0
  0
LWPOLYLINE
  5
1b0
100
AcDbEntity
  8
0
 62
7
100
AcDbPolyline
 90
2
 70
0
 10
191.848740
 20
-46.268498
 30
0.0
 10
205.849220
 20
-46.268498
 30
0.0
  0
LWPOLYLINE
  5
1b1
100
AcDbEntity
  8
0
 62
7
100
AcDbPolyline
 90
2
 70
0
 10
110.599220
 20
-60.266438
 30
0.0
 10
96.598740
 20
-60.266438
 30
0.0
  0
LWPOLYLINE
  5
1b2
100
AcDbEntity
  8
0
 62
7
100
AcDbPolyline
 90
2
 70
0
 10
110.599220
 20
-46.268498
 30
0.0
 10
110.599220
 20
-60.266438
 30
0.0
  0
LWPOLYLINE
  5
1b3
100
AcDbEntity
  8
0
 62
7
100
AcDbPolyline
 90
2
 70
0
 10
129.649220
 20
-60.266438
 30
0.0
 10
115.648740
 20
-60.266438
 30
0.0
  0
LWPOLYLINE
  5
1b4
100
AcDbEntity
  8
0
 62
7
100
AcDbPolyline
 90
2
 70
0
 10
115.648740
 20
-46.268498
 30
0.0
 10
129.649220
 20
-46.268498
 30
0.0
  0
LWPOLYLINE
  5
1b5
100
AcDbEntity
  8
0
 62
7
100
AcDbPolyline
 90
2
 70
0
 10
186.799220
 20
-60.266438
 30
0.0
 10
172.798740
 20
-60.266438
 30
0.0
  0
LWPOLYLINE
  5
1b6
100
AcDbEntity
  8
0
 62
7
100
AcDbPolyline
 90
2
 70
0
 10
96.598740
 20
-46.268498
 30
0.0
 10
110.599220
 20
-46.268498
 30
0.0
  0
LWPOLYLINE
  5
1b7
100
AcDbEntity
  8
0
 62
7
100
AcDbPolyline
 90
2
 70
0
 10
115.648740
 20
-60.266438
 30
0.0
 10
115.648740
 20
-46.268498
 30
0.0
  0
LWPOLYLINE
  5
1b8
100
AcDbEntity
  8
0
 62
7
100
AcDbPolyline
 90
2
 70
0
 10
148.699220
 20
-60.266438
 30
0.0
 10
134.698740
 20
-60.266438
 30
0.0
  0
LWPOLYLINE
  5
1b9
100
AcDbEntity
  8
0
 62
7
100
AcDbPolyline
 90
2
 70
0
 10
172.798740
 20
-46.268498
 30
0.0
 10
186.799220
 20
-46.268498
 30
0.0
  0
LWPOLYLINE
  5
1ba
100
AcDbEntity
  8
0
 62
7
100
AcDbPolyline
 90
2
 70
0
 10
129.649220
 20
-46.268498
 30
0.0
 10
129.649220
 20
-60.266438
 30
0.0
  0
LWPOLYLINE
  5
1bb
100
AcDbEntity
  8
0
 62
7
100
AcDbPolyline
 90
2
 70
0
 10
205.849220
 20
-46.268498
 30
0.0
 10
205.849220
 20
-60.266438
 30
0.0
  0
LWPOLYLINE
  5
1bc
100
AcDbEntity
  8
0
 62
7
100
AcDbPolyline
 90
2
 70
0
 10
287.098740
 20
-60.266438
 30
0.0
 10
287.098740
 20
-46.268498
 30
0.0
  0
LWPOLYLINE
  5
1bd
100
AcDbEntity
  8
0
 62
7
100
AcDbPolyline
 90
2
 70
0
 10
262.999220
 20
-60.266438
 30
0.0
 10
248.998740
 20
-60.266438
 30
0.0
  0
LWPOLYLINE
  5
1be
100
AcDbEntity
  8
0
 62
7
100
AcDbPolyline
 90
2
 70
0
 10
282.049220
 20
-46.268498
 30
0.0
 10
282.049220
 20
-60.266438
 30
0.0
  0
LWPOLYLINE
  5
1bf
100
AcDbEntity
  8
0
 62
7
100
AcDbPolyline
 90
2
 70
0
 10
287.098740
 20
-46.268498
 30
0.0
 10
301.099220
 20
-46.268498
 30
0.0
  0
LWPOLYLINE
  5
1c0
100
AcDbEntity
  8
0
 62
7
100
AcDbPolyline
 90
2
 70
0
 10
268.048740
 20
-46.268498
 30
0.0
 10
282.049220
 20
-46.268498
 30
0.0
  0
LWPOLYLINE
  5
1c1
100
AcDbEntity
  8
0
 62
7
100
AcDbPolyline
 90
2
 70
0
 10
282.049220
 20
-60.266438
 30
0.0
 10
268.048740
 20
-60.266438
 30
0.0
  0
LWPOLYLINE
  5
1c2
100
AcDbEntity
  8
0
 62
7
100
AcDbPolyline
 90
2
 70
0
 10
51.066700
 20
-46.268498
 30
0.0
 10
15.636240
 20
-46.268498
 30
0.0
  0
LWPOLYLINE
  5
1c3
100
AcDbEntity
  8
0
 62
7
100
AcDbPolyline
 90
2
 70
0
 10
268.048740
 20
-60.266438
 30
0.0
 10
268.048740
 20
-46.268498
 30
0.0
  0
LWPOLYLINE
  5
1c4
100
AcDbEntity
  8
0
 62
7
100
AcDbPolyline
 90
3
 70
0
 10
229.948740
 20
-60.266438
 30
0.0
 10
229.948740
 20
-46.268498
 30
0.0
 10
243.949220
 20
-46.268498
 30
0.0
  0
LWPOLYLINE
  5
1c5
100
AcDbEntity
  8
0
 62
7
100
AcDbPolyline
 90
2
 70
0
 10
248.998740
 20
-46.268498
 30
0.0
 10
262.999220
 20
-46.268498
 30
0.0
  0
LWPOLYLINE
  5
1c6
100
AcDbEntity
  8
0
 62
7
100
AcDbPolyline
 90
2
 70
0
 10
301.099220
 20
-46.268498
 30
0.0
 10
301.099220
 20
-60.266438
 30
0.0
  0
LWPOLYLINE
  5
1c7
100
AcDbEntity
  8
0
 62
7
100
AcDbPolyline
 90
2
 70
0
 10
210.898740
 20
-60.266438
 30
0.0
 10
210.898740
 20
-46.268498
 30
0.0
  0
LWPOLYLINE
  5
1c8
100
AcDbEntity
  8
0
 62
7
100
AcDbPolyline
 90
2
 70
0
 10
301.099220
 20
-60.266438
 30
0.0
 10
287.098740
 20
-60.266438
 30
0.0
  0
LWPOLYLINE
  5
1c9
100
AcDbEntity
  8
0
 62
7
100
AcDbPolyline
 90
2
 70
0
 10
51.066700
 20
-60.266438
 30
0.0
 10
51.066700
 20
-46.268498
 30
0.0
  0
LWPOLYLINE
  5
1ca
100
AcDbEntity
  8
0
 62
7
100
AcDbPolyline
 90
2
 70
0
 10
224.899220
 20
-60.266438
 30
0.0
 10
210.898740
 20
-60.266438
 30
0.0
  0
LWPOLYLINE
  5
1cb
100
AcDbEntity
  8
0
 62
7
100
AcDbPolyline
 90
2
 70
0
 10
224.899220
 20
-46.268498
 30
0.0
 10
224.899220
 20
-60.266438
 30
0.0
  0
LWPOLYLINE
  5
1cc
100
AcDbEntity
  8
0
 62
7
100
AcDbPolyline
 90
2
 70
0
 10
243.949220
 20
-46.268498
 30
0.0
 10
243.949220
 20
-60.266438
 30
0.0
  0
LWPOLYLINE
  5
1cd
100
AcDbEntity
  8
0
 62
7
100
AcDbPolyline
 90
2
 70
0
 10
248.998740
 20
-60.266438
 30
0.0
 10
248.998740
 20
-46.268498
 30
0.0
  0
LWPOLYLINE
  5
1ce
100
AcDbEntity
  8
0
 62
7
100
AcDbPolyline
 90
2
 70
0
 10
48.092360
 20
-60.266438
 30
0.0
 10
51.066700
 20
-60.266438
 30
0.0
  0
LWPOLYLINE
  5
1cf
100
AcDbEntity
  8
0
 62
7
100
AcDbPolyline
 90
2
 70
0
 10
262.999220
 20
-46.268498
 30
0.0
 10
262.999220
 20
-60.266438
 30
0.0
  0
LWPOLYLINE
  5
1d0
100
AcDbEntity
  8
0
 62
7
100
AcDbPolyline
 90
2
 70
0
 10
210.898740
 20
-46.268498
 30
0.0
 10
224.899220
 20
-46.268498
 30
0.0
  0
LWPOLYLINE
  5
1d1
100
AcDbEntity
  8
0
 62
7
100
AcDbPolyline
 90
2
 70
0
 10
243.949220
 20
-60.266438
 30
0.0
 10
229.948740
 20
-60.266438
 30
0.0
  0
LWPOLYLINE
  5
1d2
100
AcDbEntity
  8
0
 62
7
100
AcDbPolyline
 90
2
 70
0
 10
60.881260
 20
-79.316438
 30
0.0
 10
60.881260
 20
-65.318498
 30
0.0
  0
LWPOLYLINE
  5
1d3
100
AcDbEntity
  8
0
 62
7
100
AcDbPolyline
 90
2
 70
0
 10
74.879200
 20
-65.318498
 30
0.0
 10
74.879200
 20
-79.316438
 30
0.0
  0
LWPOLYLINE
  5
1d4
100
AcDbEntity
  8
0
 62
7
100
AcDbPolyline
 90
2
 70
0
 10
37.066220
 20
-65.318498
 30
0.0
 10
51.066700
 20
-65.318498
 30
0.0
  0
LWPOLYLINE
  5
1d5
100
AcDbEntity
  8
0
 62
7
100
AcDbPolyline
 90
2
 70
0
 10
20.993100
 20
-60.266438
 30
0.0
 10
20.993100
 20
-61.236718
 30
0.0
  0
LWPOLYLINE
  5
1d6
100
AcDbEntity
  8
0
 62
7
100
AcDbPolyline
 90
2
 70
0
 10
13.256260
 20
-79.316438
 30
0.0
 10
13.256260
 20
-65.318498
 30
0.0
  0
LWPOLYLINE
  5
1d7
100
AcDbEntity
  8
0
 62
7
100
AcDbPolyline
 90
2
 70
0
 10
27.254200
 20
-65.318498
 30
0.0
 10
27.254200
 20
-79.316438
 30
0.0
  0
LWPOLYLINE
  5
1d8
100
AcDbEntity
  8
0
 62
7
100
AcDbPolyline
 90
2
 70
0
 10
37.066220
 20
-79.316438
 30
0.0
 10
37.066220
 20
-65.318498
 30
0.0
  0
LWPOLYLINE
  5
1d9
100
AcDbEntity
  8
0
 62
7
100
AcDbPolyline
 90
2
 70
0
 10
51.066700
 20
-79.316438
 30
0.0
 10
37.066220
 20
-79.316438
 30
0.0
  0
LWPOLYLINE
  5
1da
100
AcDbEntity
  8
0
 62
7
100
AcDbPolyline
 90
2
 70
0
 10
60.881260
 20
-65.318498
 30
0.0
 10
74.879200
 20
-65.318498
 30
0.0
  0
LWPOLYLINE
  5
1db
100
AcDbEntity
  8
0
 62
7
100
AcDbPolyline
 90
2
 70
0
 10
190.967360
 20
-65.547098
 30
0.0
 10
190.967360
 20
-64.345678
 30
0.0
  0
LWPOLYLINE
  5
1dc
100
AcDbEntity
  8
0
 62
7
100
AcDbPolyline
 90
2
 70
0
 10
48.092360
 20
-61.236718
 30
0.0
 10
48.092360
 20
-60.266438
 30
0.0
  0
LWPOLYLINE
  5
1dd
100
AcDbEntity
  8
0
 62
7
100
AcDbPolyline
 90
2
 70
0
 10
44.792900
 20
-61.236718
 30
0.0
 10
48.092360
 20
-61.236718
 30
0.0
  0
LWPOLYLINE
  5
1de
100
AcDbEntity
  8
0
 62
7
100
AcDbPolyline
 90
2
 70
0
 10
44.792900
 20
-60.266438
 30
0.0
 10
44.792900
 20
-61.236718
 30
0.0
  0
LWPOLYLINE
  5
1df
100
AcDbEntity
  8
0
 62
7
100
AcDbPolyline
 90
2
 70
0
 10
15.636240
 20
-46.268498
 30
0.0
 10
15.636240
 20
-60.266438
 30
0.0
  0
LWPOLYLINE
  5
1e0
100
AcDbEntity
  8
0
 62
7
100
AcDbPolyline
 90
2
 70
0
 10
13.256260
 20
-65.318498
 30
0.0
 10
27.254200
 20
-65.318498
 30
0.0
  0
LWPOLYLINE
  5
1e1
100
AcDbEntity
  8
0
 62
7
100
AcDbPolyline
 90
2
 70
0
 10
24.292560
 20
-60.266438
 30
0.0
 10
44.792900
 20
-60.266438
 30
0.0
  0
LWPOLYLINE
  5
1e2
100
AcDbEntity
  8
0
 62
7
100
AcDbPolyline
 90
2
 70
0
 10
24.292560
 20
-61.236718
 30
0.0
 10
24.292560
 20
-60.266438
 30
0.0
  0
LWPOLYLINE
  5
1e3
100
AcDbEntity
  8
0
 62
7
100
AcDbPolyline
 90
2
 70
0
 10
20.993100
 20
-61.236718
 30
0.0
 10
24.292560
 20
-61.236718
 30
0.0
  0
LWPOLYLINE
  5
1e4
100
AcDbEntity
  8
0
 62
7
100
AcDbPolyline
 90
2
 70
0
 10
15.636240
 20
-60.266438
 30
0.0
 10
20.993100
 20
-60.266438
 30
0.0
  0
LWPOLYLINE
  5
1e5
100
AcDbEntity
  8
0
 62
7
100
AcDbPolyline
 90
2
 70
0
 10
74.879200
 20
-79.316438
 30
0.0
 10
60.881260
 20
-79.316438
 30
0.0
  0
LWPOLYLINE
  5
1e6
100
AcDbEntity
  8
0
 62
7
100
AcDbPolyline
 90
2
 70
0
 10
27.254200
 20
-79.316438
 30
0.0
 10
13.256260
 20
-79.316438
 30
0.0
  0
LWPOLYLINE
  5
1e7
100
AcDbEntity
  8
0
 62
7
100
AcDbPolyline
 90
2
 70
0
 10
51.066700
 20
-65.318498
 30
0.0
 10
51.066700
 20
-79.316438
 30
0.0
  0
LWPOLYLINE
  5
1e8
100
AcDbEntity
  8
0
 62
7
100
AcDbPolyline
 90
2
 70
0
 10
192.692020
 20
-65.547098
 30
0.0
 10
190.967360
 20
-65.547098
 30
0.0
  0
LWPOLYLINE
  5
1e9
100
AcDbEntity
  8
0
 62
7
100
AcDbPolyline
 90
3
 70
0
 10
201.373740
 20
-70.017498
 30
0.0
 10
192.692020
 20
-70.017498
 30
0.0
 10
192.692020
 20
-65.547098
 30
0.0
  0
LWPOLYLINE
  5
1ea
100
AcDbEntity
  8
0
 62
7
100
AcDbPolyline
 90
2
 70
0
 10
211.480400
 20
-65.318498
 30
0.0
 10
201.373740
 20
-65.318498
 30
0.0
  0
LWPOLYLINE
  5
1eb
100
AcDbEntity
  8
0
 62
7
100
AcDbPolyline
 90
2
 70
0
 10
201.373740
 20
-79.316438
 30
0.0
 10
217.754200
 20
-79.316438
 30
0.0
  0
LWPOLYLINE
  5
1ec
100
AcDbEntity
  8
0
 62
7
100
AcDbPolyline
 90
2
 70
0
 10
211.480400
 20
-64.345678
 30
0.0
 10
211.480400
 20
-65.318498
 30
0.0
  0
LWPOLYLINE
  5
1ed
100
AcDbEntity
  8
0
 62
7
100
AcDbPolyline
 90
2
 70
0
 10
192.692020
 20
-77.845778
 30
0.0
 10
192.692020
 20
-74.617438
 30
0.0
  0
LWPOLYLINE
  5
1ee
100
AcDbEntity
  8
0
 62
7
100
AcDbPolyline
 90
2
 70
0
 10
201.373740
 20
-74.617438
 30
0.0
 10
201.373740
 20
-79.316438
 30
0.0
  0
LWPOLYLINE
  5
1ef
100
AcDbEntity
  8
0
 62
7
100
AcDbPolyline
 90
2
 70
0
 10
214.779860
 20
-65.318498
 30
0.0
 10
214.779860
 20
-64.345678
 30
0.0
  0
LWPOLYLINE
  5
1f0
100
AcDbEntity
  8
0
 62
7
100
AcDbPolyline
 90
2
 70
0
 10
217.754200
 20
-65.318498
 30
0.0
 10
214.779860
 20
-65.318498
 30
0.0
  0
LWPOLYLINE
  5
1f1
100
AcDbEntity
  8
0
 62
7
100
AcDbPolyline
 90
2
 70
0
 10
156.131260
 20
-79.316438
 30
0.0
 10
179.654200
 20
-79.316438
 30
0.0
  0
LWPOLYLINE
  5
1f2
100
AcDbEntity
  8
0
 62
7
100
AcDbPolyline
 90
2
 70
0
 10
217.754200
 20
-79.316438
 30
0.0
 10
217.754200
 20
-65.318498
 30
0.0
  0
LWPOLYLINE
  5
1f3
100
AcDbEntity
  8
0
 62
7
100
AcDbPolyline
 90
2
 70
0
 10
192.692020
 20
-74.617438
 30
0.0
 10
201.373740
 20
-74.617438
 30
0.0
  0
LWPOLYLINE
  5
1f4
100
AcDbEntity
  8
0
 62
7
100
AcDbPolyline
 90
2
 70
0
 10
179.654200
 20
-77.848318
 30
0.0
 10
192.692020
 20
-77.845778
 30
0.0
  0
LWPOLYLINE
  5
1f5
100
AcDbEntity
  8
0
 62
7
100
AcDbPolyline
 90
2
 70
0
 10
156.131260
 20
-74.617438
 30
0.0
 10
156.131260
 20
-79.316438
 30
0.0
  0
LWPOLYLINE
  5
1f6
100
AcDbEntity
  8
0
 62
7
100
AcDbPolyline
 90
3
 70
0
 10
146.316700
 20
-79.316438
 30
0.0
 10
146.316700
 20
-74.617438
 30
0.0
 10
156.131260
 20
-74.617438
 30
0.0
  0
LWPOLYLINE
  5
1f7
100
AcDbEntity
  8
0
 62
7
100
AcDbPolyline
 90
2
 70
0
 10
214.779860
 20
-64.345678
 30
0.0
 10
211.480400
 20
-64.345678
 30
0.0
  0
LWPOLYLINE
  5
1f8
100
AcDbEntity
  8
0
 62
7
100
AcDbPolyline
 90
2
 70
0
 10
201.373740
 20
-65.318498
 30
0.0
 10
201.373740
 20
-70.017498
 30
0.0
  0
LWPOLYLINE
  5
1f9
100
AcDbEntity
  8
0
 62
7
100
AcDbPolyline
 90
2
 70
0
 10
179.654200
 20
-79.316438
 30
0.0
 10
179.654200
 20
-77.848318
 30
0.0
  0
LWPOLYLINE
  5
1fa
100
AcDbEntity
  8
0
 62
7
100
AcDbPolyline
 90
2
 70
0
 10
248.998740
 20
-41.216438
 30
0.0
 10
248.998740
 20
-27.218498
 30
0.0
  0
LWPOLYLINE
  5
1fb
100
AcDbEntity
  8
0
 62
7
100
AcDbPolyline
 90
2
 70
0
 10
72.499220
 20
-46.268498
 30
0.0
 10
72.499220
 20
-60.266438
 30
0.0
  0
LWPOLYLINE
  5
1fc
100
AcDbEntity
  8
0
 62
7
100
AcDbPolyline
 90
2
 70
0
 10
268.048740
 20
-34.942638
 30
0.0
 10
267.081000
 20
-34.942638
 30
0.0
  0
LWPOLYLINE
  5
1fd
100
AcDbEntity
  8
0
 62
7
100
AcDbPolyline
 90
2
 70
0
 10
262.999220
 20
-27.218498
 30
0.0
 10
262.999220
 20
-41.216438
 30
0.0
  0
LWPOLYLINE
  5
1fe
100
AcDbEntity
  8
0
 62
7
100
AcDbPolyline
 90
2
 70
0
 10
268.048740
 20
-11.142838
 30
0.0
 10
267.081000
 20
-11.142838
 30
0.0
  0
LWPOLYLINE
  5
1ff
100
AcDbEntity
  8
0
 62
7
100
AcDbPolyline
 90
2
 70
0
 10
91.549220
 20
-46.268498
 30
0.0
 10
91.549220
 20
-60.266438
 30
0.0
  0
LWPOLYLINE
  5
200
100
AcDbEntity
  8
0
 62
7
100
AcDbPolyline
 90
2
 70
0
 10
282.049220
 20
-8.168498
 30
0.0
 10
268.048740
 20
-8.168498
 30
0.0
  0
LWPOLYLINE
  5
201
100
AcDbEntity
  8
0
 62
7
100
AcDbPolyline
 90
2
 70
0
 10
287.098740
 20
-41.216438
 30
0.0
 10
287.098740
 20
-27.218498
 30
0.0
  0
LWPOLYLINE
  5
202
100
AcDbEntity
  8
0
 62
7
100
AcDbPolyline
 90
2
 70
0
 10
301.099220
 20
-41.216438
 30
0.0
 10
287.098740
 20
-41.216438
 30
0.0
  0
LWPOLYLINE
  5
203
100
AcDbEntity
  8
0
 62
7
100
AcDbPolyline
 90
2
 70
0
 10
58.498740
 20
-60.266438
 30
0.0
 10
58.498740
 20
-46.268498
 30
0.0
  0
LWPOLYLINE
  5
204
100
AcDbEntity
  8
0
 62
7
100
AcDbPolyline
 90
2
 70
0
 10
153.748740
 20
-27.218498
 30
0.0
 10
167.749220
 20
-27.218498
 30
0.0
  0
LWPOLYLINE
  5
205
100
AcDbEntity
  8
0
 62
7
100
AcDbPolyline
 90
2
 70
0
 10
172.798740
 20
-41.216438
 30
0.0
 10
172.798740
 20
-27.218498
 30
0.0
  0
LWPOLYLINE
  5
206
100
AcDbEntity
  8
0
 62
7
100
AcDbPolyline
 90
2
 70
0
 10
210.898740
 20
-27.218498
 30
0.0
 10
224.899220
 20
-27.218498
 30
0.0
  0
LWPOLYLINE
  5
207
100
AcDbEntity
  8
0
 62
7
100
AcDbPolyline
 90
2
 70
0
 10
58.498740
 20
-46.268498
 30
0.0
 10
72.499220
 20
-46.268498
 30
0.0
  0
LWPOLYLINE
  5
208
100
AcDbEntity
  8
0
 62
7
100
AcDbPolyline
 90
2
 70
0
 10
91.549220
 20
-60.266438
 30
0.0
 10
77.548740
 20
-60.266438
 30
0.0
  0
LWPOLYLINE
  5
209
100
AcDbEntity
  8
0
 62
7
100
AcDbPolyline
 90
2
 70
0
 10
224.899220
 20
-27.218498
 30
0.0
 10
224.899220
 20
-41.216438
 30
0.0
  0
LWPOLYLINE
  5
20a
100
AcDbEntity
  8
0
 62
7
100
AcDbPolyline
 90
2
 70
0
 10
191.848740
 20
-41.216438
 30
0.0
 10
191.848740
 20
-27.218498
 30
0.0
  0
LWPOLYLINE
  5
20b
100
AcDbEntity
  8
0
 62
7
100
AcDbPolyline
 90
2
 70
0
 10
205.849220
 20
-27.218498
 30
0.0
 10
205.849220
 20
-41.216438
 30
0.0
  0
LWPOLYLINE
  5
20c
100
AcDbEntity
  8
0
 62
7
100
AcDbPolyline
 90
2
 70
0
 10
229.948740
 20
-41.216438
 30
0.0
 10
229.948740
 20
-27.218498
 30
0.0
  0
LWPOLYLINE
  5
20d
100
AcDbEntity
  8
0
 62
7
100
AcDbPolyline
 90
2
 70
0
 10
77.548740
 20
-60.266438
 30
0.0
 10
77.548740
 20
-46.268498
 30
0.0
  0
LWPOLYLINE
  5
20e
100
AcDbEntity
  8
0
 62
7
100
AcDbPolyline
 90
2
 70
0
 10
243.949220
 20
-27.218498
 30
0.0
 10
243.949220
 20
-41.216438
 30
0.0
  0
LWPOLYLINE
  5
20f
100
AcDbEntity
  8
0
 62
7
100
AcDbPolyline
 90
2
 70
0
 10
268.048740
 20
-38.242098
 30
0.0
 10
268.048740
 20
-41.216438
 30
0.0
  0
LWPOLYLINE
  5
210
100
AcDbEntity
  8
0
 62
7
100
AcDbPolyline
 90
2
 70
0
 10
267.081000
 20
-14.442298
 30
0.0
 10
268.048740
 20
-14.442298
 30
0.0
  0
LWPOLYLINE
  5
211
100
AcDbEntity
  8
0
 62
7
100
AcDbPolyline
 90
2
 70
0
 10
287.098740
 20
-27.218498
 30
0.0
 10
301.099220
 20
-27.218498
 30
0.0
  0
LWPOLYLINE
  5
212
100
AcDbEntity
  8
0
 62
7
100
AcDbPolyline
 90
2
 70
0
 10
72.499220
 20
-60.266438
 30
0.0
 10
58.498740
 20
-60.266438
 30
0.0
  0
LWPOLYLINE
  5
213
100
AcDbEntity
  8
0
 62
7
100
AcDbPolyline
 90
2
 70
0
 10
268.048740
 20
-14.442298
 30
0.0
 10
268.048740
 20
-34.942638
 30
0.0
  0
LWPOLYLINE
  5
214
100
AcDbEntity
  8
0
 62
7
100
AcDbPolyline
 90
2
 70
0
 10
77.548740
 20
-46.268498
 30
0.0
 10
91.549220
 20
-46.268498
 30
0.0
  0
LWPOLYLINE
  5
215
100
AcDbEntity
  8
0
 62
7
100
AcDbPolyline
 90
2
 70
0
 10
96.598740
 20
-60.266438
 30
0.0
 10
96.598740
 20
-46.268498
 30
0.0
  0
LWPOLYLINE
  5
216
100
AcDbEntity
  8
0
 62
7
100
AcDbPolyline
 90
2
 70
0
 10
224.899220
 20
-41.216438
 30
0.0
 10
210.898740
 20
-41.216438
 30
0.0
  0
LWPOLYLINE
  5
217
100
AcDbEntity
  8
0
 62
7
100
AcDbPolyline
 90
2
 70
0
 10
243.949220
 20
-41.216438
 30
0.0
 10
229.948740
 20
-41.216438
 30
0.0
  0
LWPOLYLINE
  5
218
100
AcDbEntity
  8
0
 62
7
100
AcDbPolyline
 90
2
 70
0
 10
301.099220
 20
-27.218498
 30
0.0
 10
301.099220
 20
-41.216438
 30
0.0
  0
LWPOLYLINE
  5
219
100
AcDbEntity
  8
0
 62
7
100
AcDbPolyline
 90
2
 70
0
 10
262.999220
 20
-41.216438
 30
0.0
 10
248.998740
 20
-41.216438
 30
0.0
  0
LWPOLYLINE
  5
21a
100
AcDbEntity
  8
0
 62
7
100
AcDbPolyline
 90
2
 70
0
 10
205.849220
 20
-41.216438
 30
0.0
 10
191.848740
 20
-41.216438
 30
0.0
  0
LWPOLYLINE
  5
21b
100
AcDbEntity
  8
0
 62
7
100
AcDbPolyline
 90
2
 70
0
 10
186.799220
 20
-41.216438
 30
0.0
 10
172.798740
 20
-41.216438
 30
0.0
  0
LWPOLYLINE
  5
21c
100
AcDbEntity
  8
0
 62
7
100
AcDbPolyline
 90
2
 70
0
 10
268.048740
 20
-41.216438
 30
0.0
 10
282.049220
 20
-41.216438
 30
0.0
  0
LWPOLYLINE
  5
21d
100
AcDbEntity
  8
0
 62
7
100
AcDbPolyline
 90
2
 70
0
 10
267.081000
 20
-38.242098
 30
0.0
 10
268.048740
 20
-38.242098
 30
0.0
  0
LWPOLYLINE
  5
21e
100
AcDbEntity
  8
0
 62
7
100
AcDbPolyline
 90
2
 70
0
 10
186.799220
 20
-27.218498
 30
0.0
 10
186.799220
 20
-41.216438
 30
0.0
  0
LWPOLYLINE
  5
21f
100
AcDbEntity
  8
0
 62
7
100
AcDbPolyline
 90
2
 70
0
 10
172.798740
 20
-27.218498
 30
0.0
 10
186.799220
 20
-27.218498
 30
0.0
  0
LWPOLYLINE
  5
220
100
AcDbEntity
  8
0
 62
7
100
AcDbPolyline
 90
2
 70
0
 10
267.081000
 20
-11.142838
 30
0.0
 10
267.081000
 20
-14.442298
 30
0.0
  0
LWPOLYLINE
  5
221
100
AcDbEntity
  8
0
 62
7
100
AcDbPolyline
 90
2
 70
0
 10
248.998740
 20
-27.218498
 30
0.0
 10
262.999220
 20
-27.218498
 30
0.0
  0
LWPOLYLINE
  5
222
100
AcDbEntity
  8
0
 62
7
100
AcDbPolyline
 90
2
 70
0
 10
191.848740
 20
-27.218498
 30
0.0
 10
205.849220
 20
-27.218498
 30
0.0
  0
LWPOLYLINE
  5
223
100
AcDbEntity
  8
0
 62
7
100
AcDbPolyline
 90
2
 70
0
 10
282.049220
 20
-41.216438
 30
0.0
 10
282.049220
 20
-8.168498
 30
0.0
  0
LWPOLYLINE
  5
224
100
AcDbEntity
  8
0
 62
7
100
AcDbPolyline
 90
2
 70
0
 10
267.081000
 20
-34.942638
 30
0.0
 10
267.081000
 20
-38.242098
 30
0.0
  0
LWPOLYLINE
  5
225
100
AcDbEntity
  8
0
 62
7
100
AcDbPolyline
 90
2
 70
0
 10
268.048740
 20
-8.168498
 30
0.0
 10
268.048740
 20
-11.142838
 30
0.0
  0
LWPOLYLINE
  5
226
100
AcDbEntity
  8
0
 62
7
100
AcDbPolyline
 90
2
 70
0
 10
210.898740
 20
-41.216438
 30
0.0
 10
210.898740
 20
-27.218498
 30
0.0
  0
LWPOLYLINE
  5
227
100
AcDbEntity
  8
0
 62
7
100
AcDbPolyline
 90
2
 70
0
 10
229.948740
 20
-27.218498
 30
0.0
 10
243.949220
 20
-27.218498
 30
0.0
  0
LWPOLYLINE
  5
228
100
AcDbEntity
  8
0
 62
7
100
AcDbPolyline
 90
2
 70
0
 10
91.549220
 20
-8.168498
 30
0.0
 10
91.549220
 20
-22.166438
 30
0.0
  0
LWPOLYLINE
  5
229
100
AcDbEntity
  8
0
 62
7
100
AcDbPolyline
 90
3
 70
0
 10
110.599220
 20
-22.166438
 30
0.0
 10
96.598740
 20
-22.166438
 30
0.0
 10
96.598740
 20
-8.168498
 30
0.0
  0
LWPOLYLINE
  5
22a
100
AcDbEntity
  8
0
 62
7
100
AcDbPolyline
 90
2
 70
0
 10
58.498740
 20
-8.168498
 30
0.0
 10
72.499220
 20
-8.168498
 30
0.0
  0
LWPOLYLINE
  5
22b
100
AcDbEntity
  8
0
 62
7
100
AcDbPolyline
 90
2
 70
0
 10
58.498740
 20
-22.166438
 30
0.0
 10
58.498740
 20
-8.168498
 30
0.0
  0
LWPOLYLINE
  5
22c
100
AcDbEntity
  8
0
 62
7
100
AcDbPolyline
 90
2
 70
0
 10
53.449220
 20
-22.166438
 30
0.0
 10
39.448740
 20
-22.166438
 30
0.0
  0
LWPOLYLINE
  5
22d
100
AcDbEntity
  8
0
 62
7
100
AcDbPolyline
 90
2
 70
0
 10
53.449220
 20
-8.168498
 30
0.0
 10
53.449220
 20
-22.166438
 30
0.0
  0
LWPOLYLINE
  5
22e
100
AcDbEntity
  8
0
 62
7
100
AcDbPolyline
 90
2
 70
0
 10
39.448740
 20
-22.166438
 30
0.0
 10
39.448740
 20
-8.168498
 30
0.0
  0
LWPOLYLINE
  5
22f
100
AcDbEntity
  8
0
 62
7
100
AcDbPolyline
 90
2
 70
0
 10
110.599220
 20
-8.168498
 30
0.0
 10
110.599220
 20
-22.166438
 30
0.0
  0
LWPOLYLINE
  5
230
100
AcDbEntity
  8
0
 62
7
100
AcDbPolyline
 90
2
 70
0
 10
39.448740
 20
-8.168498
 30
0.0
 10
53.449220
 20
-8.168498
 30
0.0
  0
LWPOLYLINE
  5
231
100
AcDbEntity
  8
0
 62
7
100
AcDbPolyline
 90
2
 70
0
 10
77.548740
 20
-22.166438
 30
0.0
 10
77.548740
 20
-8.168498
 30
0.0
  0
LWPOLYLINE
  5
232
100
AcDbEntity
  8
0
 62
7
100
AcDbPolyline
 90
2
 70
0
 10
91.549220
 20
-22.166438
 30
0.0
 10
77.548740
 20
-22.166438
 30
0.0
  0
LWPOLYLINE
  5
233
100
AcDbEntity
  8
0
 62
7
100
AcDbPolyline
 90
2
 70
0
 10
77.548740
 20
-8.168498
 30
0.0
 10
91.549220
 20
-8.168498
 30
0.0
  0
LWPOLYLINE
  5
234
100
AcDbEntity
  8
0
 62
7
100
AcDbPolyline
 90
2
 70
0
 10
72.499220
 20
-22.166438
 30
0.0
 10
58.498740
 20
-22.166438
 30
0.0
  0
LWPOLYLINE
  5
235
100
AcDbEntity
  8
0
 62
7
100
AcDbPolyline
 90
2
 70
0
 10
72.499220
 20
-8.168498
 30
0.0
 10
72.499220
 20
-22.166438
 30
0.0
  0
LWPOLYLINE
  5
236
100
AcDbEntity
  8
0
 62
7
100
AcDbPolyline
 90
2
 70
0
 10
134.698740
 20
-8.168498
 30
0.0
 10
148.699220
 20
-8.168498
 30
0.0
  0
LWPOLYLINE
  5
237
100
AcDbEntity
  8
0
 62
7
100
AcDbPolyline
 90
2
 70
0
 10
153.748740
 20
-8.168498
 30
0.0
 10
167.749220
 20
-8.168498
 30
0.0
  0
LWPOLYLINE
  5
238
100
AcDbEntity
  8
0
 62
7
100
AcDbPolyline
 90
2
 70
0
 10
167.749220
 20
-41.216438
 30
0.0
 10
153.748740
 20
-41.216438
 30
0.0
  0
LWPOLYLINE
  5
239
100
AcDbEntity
  8
0
 62
7
100
AcDbPolyline
 90
2
 70
0
 10
167.749220
 20
-8.168498
 30
0.0
 10
167.749220
 20
-22.166438
 30
0.0
  0
LWPOLYLINE
  5
23a
100
AcDbEntity
  8
0
 62
7
100
AcDbPolyline
 90
2
 70
0
 10
186.799220
 20
-22.166438
 30
0.0
 10
172.798740
 20
-22.166438
 30
0.0
  0
LWPOLYLINE
  5
23b
100
AcDbEntity
  8
0
 62
7
100
AcDbPolyline
 90
2
 70
0
 10
172.798740
 20
-8.168498
 30
0.0
 10
186.799220
 20
-8.168498
 30
0.0
  0
LWPOLYLINE
  5
23c
100
AcDbEntity
  8
0
 62
7
100
AcDbPolyline
 90
2
 70
0
 10
243.949220
 20
-22.166438
 30
0.0
 10
229.948740
 20
-22.166438
 30
0.0
  0
LWPOLYLINE
  5
23d
100
AcDbEntity
  8
0
 62
7
100
AcDbPolyline
 90
2
 70
0
 10
110.599220
 20
-41.216438
 30
0.0
 10
96.598740
 20
-41.216438
 30
0.0
  0
LWPOLYLINE
  5
23e
100
AcDbEntity
  8
0
 62
7
100
AcDbPolyline
 90
2
 70
0
 10
134.698740
 20
-41.216438
 30
0.0
 10
134.698740
 20
-27.218498
 30
0.0
  0
LWPOLYLINE
  5
23f
100
AcDbEntity
  8
0
 62
7
100
AcDbPolyline
 90
2
 70
0
 10
148.699220
 20
-27.218498
 30
0.0
 10
148.699220
 20
-41.216438
 30
0.0
  0
LWPOLYLINE
  5
240
100
AcDbEntity
  8
0
 62
7
100
AcDbPolyline
 90
2
 70
0
 10
224.899220
 20
-8.168498
 30
0.0
 10
224.899220
 20
-22.166438
 30
0.0
  0
LWPOLYLINE
  5
241
100
AcDbEntity
  8
0
 62
7
100
AcDbPolyline
 90
2
 70
0
 10
248.998740
 20
-8.168498
 30
0.0
 10
262.999220
 20
-8.168498
 30
0.0
  0
LWPOLYLINE
  5
242
100
AcDbEntity
  8
0
 62
7
100
AcDbPolyline
 90
2
 70
0
 10
48.686720
 20
-41.216438
 30
0.0
 10
34.686240
 20
-41.216438
 30
0.0
  0
LWPOLYLINE
  5
243
100
AcDbEntity
  8
0
 62
7
100
AcDbPolyline
 90
2
 70
0
 10
77.548740
 20
-41.216438
 30
0.0
 10
77.548740
 20
-27.218498
 30
0.0
  0
LWPOLYLINE
  5
244
100
AcDbEntity
  8
0
 62
7
100
AcDbPolyline
 90
2
 70
0
 10
129.649220
 20
-41.216438
 30
0.0
 10
115.648740
 20
-41.216438
 30
0.0
  0
LWPOLYLINE
  5
245
100
AcDbEntity
  8
0
 62
7
100
AcDbPolyline
 90
2
 70
0
 10
229.948740
 20
-22.166438
 30
0.0
 10
229.948740
 20
-8.168498
 30
0.0
  0
LWPOLYLINE
  5
246
100
AcDbEntity
  8
0
 62
7
100
AcDbPolyline
 90
2
 70
0
 10
129.649220
 20
-27.218498
 30
0.0
 10
129.649220
 20
-41.216438
 30
0.0
  0
LWPOLYLINE
  5
247
100
AcDbEntity
  8
0
 62
7
100
AcDbPolyline
 90
2
 70
0
 10
243.949220
 20
-8.168498
 30
0.0
 10
243.949220
 20
-22.166438
 30
0.0
  0
LWPOLYLINE
  5
248
100
AcDbEntity
  8
0
 62
7
100
AcDbPolyline
 90
2
 70
0
 10
96.598740
 20
-8.168498
 30
0.0
 10
110.599220
 20
-8.168498
 30
0.0
  0
LWPOLYLINE
  5
249
100
AcDbEntity
  8
0
 62
7
100
AcDbPolyline
 90
2
 70
0
 10
229.948740
 20
-8.168498
 30
0.0
 10
243.949220
 20
-8.168498
 30
0.0
  0
LWPOLYLINE
  5
24a
100
AcDbEntity
  8
0
 62
7
100
AcDbPolyline
 90
2
 70
0
 10
262.999220
 20
-22.166438
 30
0.0
 10
248.998740
 20
-22.166438
 30
0.0
  0
LWPOLYLINE
  5
24b
100
AcDbEntity
  8
0
 62
7
100
AcDbPolyline
 90
2
 70
0
 10
115.648740
 20
-22.166438
 30
0.0
 10
115.648740
 20
-8.168498
 30
0.0
  0
LWPOLYLINE
  5
24c
100
AcDbEntity
  8
0
 62
7
100
AcDbPolyline
 90
2
 70
0
 10
72.499220
 20
-41.216438
 30
0.0
 10
58.498740
 20
-41.216438
 30
0.0
  0
LWPOLYLINE
  5
24d
100
AcDbEntity
  8
0
 62
7
100
AcDbPolyline
 90
2
 70
0
 10
91.549220
 20
-27.218498
 30
0.0
 10
91.549220
 20
-41.216438
 30
0.0
  0
LWPOLYLINE
  5
24e
100
AcDbEntity
  8
0
 62
7
100
AcDbPolyline
 90
2
 70
0
 10
210.898740
 20
-8.168498
 30
0.0
 10
224.899220
 20
-8.168498
 30
0.0
  0
LWPOLYLINE
  5
24f
100
AcDbEntity
  8
0
 62
7
100
AcDbPolyline
 90
2
 70
0
 10
77.548740
 20
-27.218498
 30
0.0
 10
91.549220
 20
-27.218498
 30
0.0
  0
LWPOLYLINE
  5
250
100
AcDbEntity
  8
0
 62
7
100
AcDbPolyline
 90
2
 70
0
 10
129.649220
 20
-22.166438
 30
0.0
 10
115.648740
 20
-22.166438
 30
0.0
  0
LWPOLYLINE
  5
251
100
AcDbEntity
  8
0
 62
7
100
AcDbPolyline
 90
2
 70
0
 10
172.798740
 20
-22.166438
 30
0.0
 10
172.798740
 20
-8.168498
 30
0.0
  0
LWPOLYLINE
  5
252
100
AcDbEntity
  8
0
 62
7
100
AcDbPolyline
 90
2
 70
0
 10
186.799220
 20
-8.168498
 30
0.0
 10
186.799220
 20
-22.166438
 30
0.0
  0
LWPOLYLINE
  5
253
100
AcDbEntity
  8
0
 62
7
100
AcDbPolyline
 90
2
 70
0
 10
110.599220
 20
-27.218498
 30
0.0
 10
110.599220
 20
-41.216438
 30
0.0
  0
LWPOLYLINE
  5
254
100
AcDbEntity
  8
0
 62
7
100
AcDbPolyline
 90
2
 70
0
 10
205.849220
 20
-22.166438
 30
0.0
 10
191.848740
 20
-22.166438
 30
0.0
  0
LWPOLYLINE
  5
255
100
AcDbEntity
  8
0
 62
7
100
AcDbPolyline
 90
2
 70
0
 10
191.848740
 20
-8.168498
 30
0.0
 10
205.849220
 20
-8.168498
 30
0.0
  0
LWPOLYLINE
  5
256
100
AcDbEntity
  8
0
 62
7
100
AcDbPolyline
 90
2
 70
0
 10
301.099220
 20
-8.168498
 30
0.0
 10
301.099220
 20
-22.166438
 30
0.0
  0
LWPOLYLINE
  5
257
100
AcDbEntity
  8
0
 62
7
100
AcDbPolyline
 90
2
 70
0
 10
287.098740
 20
-22.166438
 30
0.0
 10
287.098740
 20
-8.168498
 30
0.0
  0
LWPOLYLINE
  5
258
100
AcDbEntity
  8
0
 62
7
100
AcDbPolyline
 90
2
 70
0
 10
224.899220
 20
-22.166438
 30
0.0
 10
210.898740
 20
-22.166438
 30
0.0
  0
LWPOLYLINE
  5
259
100
AcDbEntity
  8
0
 62
7
100
AcDbPolyline
 90
2
 70
0
 10
148.699220
 20
-22.166438
 30
0.0
 10
134.698740
 20
-22.166438
 30
0.0
  0
LWPOLYLINE
  5
25a
100
AcDbEntity
  8
0
 62
7
100
AcDbPolyline
 90
2
 70
0
 10
153.748740
 20
-22.166438
 30
0.0
 10
153.748740
 20
-8.168498
 30
0.0
  0
LWPOLYLINE
  5
25b
100
AcDbEntity
  8
0
 62
7
100
AcDbPolyline
 90
2
 70
0
 10
134.698740
 20
-27.218498
 30
0.0
 10
148.699220
 20
-27.218498
 30
0.0
  0
LWPOLYLINE
  5
25c
100
AcDbEntity
  8
0
 62
7
100
AcDbPolyline
 90
2
 70
0
 10
91.549220
 20
-41.216438
 30
0.0
 10
77.548740
 20
-41.216438
 30
0.0
  0
LWPOLYLINE
  5
25d
100
AcDbEntity
  8
0
 62
7
100
AcDbPolyline
 90
2
 70
0
 10
129.649220
 20
-8.168498
 30
0.0
 10
129.649220
 20
-22.166438
 30
0.0
  0
LWPOLYLINE
  5
25e
100
AcDbEntity
  8
0
 62
7
100
AcDbPolyline
 90
2
 70
0
 10
115.648740
 20
-41.216438
 30
0.0
 10
115.648740
 20
-27.218498
 30
0.0
  0
LWPOLYLINE
  5
25f
100
AcDbEntity
  8
0
 62
7
100
AcDbPolyline
 90
2
 70
0
 10
96.598740
 20
-41.216438
 30
0.0
 10
96.598740
 20
-27.218498
 30
0.0
  0
LWPOLYLINE
  5
260
100
AcDbEntity
  8
0
 62
7
100
AcDbPolyline
 90
2
 70
0
 10
148.699220
 20
-41.216438
 30
0.0
 10
134.698740
 20
-41.216438
 30
0.0
  0
LWPOLYLINE
  5
261
100
AcDbEntity
  8
0
 62
7
100
AcDbPolyline
 90
2
 70
0
 10
115.648740
 20
-8.168498
 30
0.0
 10
129.649220
 20
-8.168498
 30
0.0
  0
LWPOLYLINE
  5
262
100
AcDbEntity
  8
0
 62
7
100
AcDbPolyline
 90
2
 70
0
 10
205.849220
 20
-8.168498
 30
0.0
 10
205.849220
 20
-22.166438
 30
0.0
  0
LWPOLYLINE
  5
263
100
AcDbEntity
  8
0
 62
7
100
AcDbPolyline
 90
2
 70
0
 10
287.098740
 20
-8.168498
 30
0.0
 10
301.099220
 20
-8.168498
 30
0.0
  0
LWPOLYLINE
  5
264
100
AcDbEntity
  8
0
 62
7
100
AcDbPolyline
 90
2
 70
0
 10
115.648740
 20
-27.218498
 30
0.0
 10
129.649220
 20
-27.218498
 30
0.0
  0
LWPOLYLINE
  5
265
100
AcDbEntity
  8
0
 62
7
100
AcDbPolyline
 90
2
 70
0
 10
34.686240
 20
-41.216438
 30
0.0
 10
34.686240
 20
-27.218498
 30
0.0
  0
LWPOLYLINE
  5
266
100
AcDbEntity
  8
0
 62
7
100
AcDbPolyline
 90
2
 70
0
 10
248.998740
 20
-22.166438
 30
0.0
 10
248.998740
 20
-8.168498
 30
0.0
  0
LWPOLYLINE
  5
267
100
AcDbEntity
  8
0
 62
7
100
AcDbPolyline
 90
2
 70
0
 10
58.498740
 20
-41.216438
 30
0.0
 10
58.498740
 20
-27.218498
 30
0.0
  0
LWPOLYLINE
  5
268
100
AcDbEntity
  8
0
 62
7
100
AcDbPolyline
 90
2
 70
0
 10
134.698740
 20
-22.166438
 30
0.0
 10
134.698740
 20
-8.168498
 30
0.0
  0
LWPOLYLINE
  5
269
100
AcDbEntity
  8
0
 62
7
100
AcDbPolyline
 90
2
 70
0
 10
148.699220
 20
-8.168498
 30
0.0
 10
148.699220
 20
-22.166438
 30
0.0
  0
LWPOLYLINE
  5
26a
100
AcDbEntity
  8
0
 62
7
100
AcDbPolyline
 90
2
 70
0
 10
167.749220
 20
-22.166438
 30
0.0
 10
153.748740
 20
-22.166438
 30
0.0
  0
LWPOLYLINE
  5
26b
100
AcDbEntity
  8
0
 62
7
100
AcDbPolyline
 90
2
 70
0
 10
153.748740
 20
-41.216438
 30
0.0
 10
153.748740
 20
-27.218498
 30
0.0
  0
LWPOLYLINE
  5
26c
100
AcDbEntity
  8
0
 62
7
100
AcDbPolyline
 90
2
 70
0
 10
191.848740
 20
-22.166438
 30
0.0
 10
191.848740
 20
-8.168498
 30
0.0
  0
LWPOLYLINE
  5
26d
100
AcDbEntity
  8
0
 62
7
100
AcDbPolyline
 90
2
 70
0
 10
210.898740
 20
-22.166438
 30
0.0
 10
210.898740
 20
-8.168498
 30
0.0
  0
LWPOLYLINE
  5
26e
100
AcDbEntity
  8
0
 62
7
100
AcDbPolyline
 90
2
 70
0
 10
34.686240
 20
-27.218498
 30
0.0
 10
48.686720
 20
-27.218498
 30
0.0
  0
LWPOLYLINE
  5
26f
100
AcDbEntity
  8
0
 62
7
100
AcDbPolyline
 90
2
 70
0
 10
72.499220
 20
-27.218498
 30
0.0
 10
72.499220
 20
-41.216438
 30
0.0
  0
LWPOLYLINE
  5
270
100
AcDbEntity
  8
0
 62
7
100
AcDbPolyline
 90
2
 70
0
 10
262.999220
 20
-8.168498
 30
0.0
 10
262.999220
 20
-22.166438
 30
0.0
  0
LWPOLYLINE
  5
271
100
AcDbEntity
  8
0
 62
7
100
AcDbPolyline
 90
2
 70
0
 10
48.686720
 20
-27.218498
 30
0.0
 10
48.686720
 20
-41.216438
 30
0.0
  0
LWPOLYLINE
  5
272
100
AcDbEntity
  8
0
 62
7
100
AcDbPolyline
 90
2
 70
0
 10
96.598740
 20
-27.218498
 30
0.0
 10
110.599220
 20
-27.218498
 30
0.0
  0
LWPOLYLINE
  5
273
100
AcDbEntity
  8
0
 62
7
100
AcDbPolyline
 90
2
 70
0
 10
58.498740
 20
-27.218498
 30
0.0
 10
72.499220
 20
-27.218498
 30
0.0
  0
LWPOLYLINE
  5
274
100
AcDbEntity
  8
0
 62
7
100
AcDbPolyline
 90
2
 70
0
 10
167.749220
 20
-27.218498
 30
0.0
 10
167.749220
 20
-41.216438
 30
0.0
  0
LWPOLYLINE
  5
275
100
AcDbEntity
  8
0
 62
7
100
AcDbPolyline
 90
2
 70
0
 10
301.099220
 20
-22.166438
 30
0.0
 10
287.098740
 20
-22.166438
 30
0.0
  0
ENDSEC
  0
SECTION
  2
OBJECTS
  0
DICTIONARY
  5
C
330
0
100
AcDbDictionary
  3
ACAD_GROUP
350
D
  3
ACAD_MLINESTYLE
350
17
  0
DICTIONARY
  5
D
330
C
100
AcDbDictionary
  0
DICTIONARY
  5
1A
330
C
100
AcDbDictionary
  0
DICTIONARY
  5
17
330
C
100
AcDbDictionary
  3
STANDARD
350
18
  0
DICTIONARY
  5
19
330
C
100
AcDbDictionary
  0
ENDSEC
  0
EOF
