%TF.GenerationSoftware,KiCad,Pcbnew,(5.1.10)-1*%
%TF.CreationDate,2021-10-28T21:04:48+02:00*%
%TF.ProjectId,yaohkib - right,79616f68-6b69-4622-902d-207269676874,rev?*%
%TF.SameCoordinates,Original*%
%TF.FileFunction,Soldermask,Top*%
%TF.FilePolarity,Negative*%
%FSLAX46Y46*%
G04 Gerber Fmt 4.6, Leading zero omitted, Abs format (unit mm)*
G04 Created by KiCad (PCBNEW (5.1.10)-1) date 2021-10-28 21:04:48*
%MOMM*%
%LPD*%
G01*
G04 APERTURE LIST*
%ADD10C,4.700000*%
%ADD11O,2.900000X2.100000*%
%ADD12C,1.600000*%
%ADD13C,1.924000*%
%ADD14C,3.400000*%
%ADD15C,2.300000*%
%ADD16C,4.500000*%
%ADD17O,2.178000X1.797000*%
%ADD18O,2.100000X2.900000*%
%ADD19O,1.797000X2.178000*%
%ADD20C,2.400000*%
G04 APERTURE END LIST*
D10*
%TO.C,Ref\u002A\u002A*%
X97345000Y-130775000D03*
%TD*%
D11*
%TO.C,J1*%
X100410000Y-93060000D03*
X98910000Y-88860000D03*
X94910000Y-88860000D03*
X91910000Y-88860000D03*
D12*
X97110000Y-90960000D03*
X90110000Y-90960000D03*
%TD*%
D13*
%TO.C,U2*%
X99506400Y-58156000D03*
X99506400Y-60696000D03*
X99506400Y-63236000D03*
X99506400Y-65776000D03*
X99506400Y-68316000D03*
X99506400Y-70856000D03*
X99506400Y-73396000D03*
X99506400Y-75936000D03*
X99506400Y-78476000D03*
X99506400Y-81016000D03*
X99506400Y-83556000D03*
X99506400Y-86096000D03*
X114726400Y-86096000D03*
X114726400Y-83556000D03*
X114726400Y-81016000D03*
X114726400Y-78476000D03*
X114726400Y-75936000D03*
X114726400Y-73396000D03*
X114726400Y-70856000D03*
X114726400Y-68316000D03*
X114726400Y-65776000D03*
X114726400Y-63236000D03*
X114726400Y-60696000D03*
X114726400Y-58156000D03*
%TD*%
D10*
%TO.C,Ref\u002A\u002A*%
X174723000Y-82657500D03*
%TD*%
%TO.C,Ref\u002A\u002A*%
X193697200Y-104203640D03*
%TD*%
%TO.C,Ref\u002A\u002A*%
X195843500Y-65999500D03*
%TD*%
%TO.C,Ref\u002A\u002A*%
X136553000Y-66147500D03*
%TD*%
%TO.C,Ref\u002A\u002A*%
X136553000Y-104257500D03*
%TD*%
%TO.C,Ref\u002A\u002A*%
X155673000Y-82707500D03*
%TD*%
D14*
%TO.C,SW22*%
X211422090Y-55357331D03*
X204841374Y-57219661D03*
D15*
X203312829Y-59612995D03*
X213417171Y-60675005D03*
D16*
X208365000Y-60144000D03*
%TD*%
D14*
%TO.C,SW37*%
X129657500Y-93456500D03*
X123307500Y-95996500D03*
D15*
X122037500Y-98536500D03*
X132197500Y-98536500D03*
D16*
X127117500Y-98536500D03*
%TD*%
D14*
%TO.C,SW23*%
X186807500Y-51419500D03*
X180457500Y-53959500D03*
D15*
X179187500Y-56499500D03*
X189347500Y-56499500D03*
D16*
X184267500Y-56499500D03*
%TD*%
D14*
%TO.C,SW24*%
X167757500Y-48943000D03*
X161407500Y-51483000D03*
D15*
X160137500Y-54023000D03*
X170297500Y-54023000D03*
D16*
X165217500Y-54023000D03*
%TD*%
D14*
%TO.C,SW29*%
X167757500Y-67993000D03*
X161407500Y-70533000D03*
D15*
X160137500Y-73073000D03*
X170297500Y-73073000D03*
D16*
X165217500Y-73073000D03*
%TD*%
D14*
%TO.C,SW26*%
X129657500Y-55356500D03*
X123307500Y-57896500D03*
D15*
X122037500Y-60436500D03*
X132197500Y-60436500D03*
D16*
X127117500Y-60436500D03*
%TD*%
D17*
%TO.C,J4*%
X90690000Y-69720000D03*
X90690000Y-72260000D03*
X90690000Y-74800000D03*
X90690000Y-77340000D03*
%TD*%
D18*
%TO.C,J3*%
X91469180Y-66689140D03*
X95669180Y-65189140D03*
X95669180Y-61189140D03*
X95669180Y-58189140D03*
D12*
X93569180Y-63389140D03*
X93569180Y-56389140D03*
%TD*%
D19*
%TO.C,J6*%
X110925000Y-90154500D03*
X108385000Y-90154500D03*
X105845000Y-90154500D03*
X103305000Y-90154500D03*
%TD*%
D20*
%TO.C,RSW2*%
X90040000Y-81820000D03*
X96540000Y-81820000D03*
%TD*%
D14*
%TO.C,SW34*%
X93509370Y-134945357D03*
X88950723Y-129847040D03*
D15*
X86129538Y-129522361D03*
X89604462Y-139069639D03*
D16*
X87867000Y-134296000D03*
%TD*%
D14*
%TO.C,SW41*%
X132478890Y-125413279D03*
X128874812Y-119600816D03*
D15*
X126152867Y-118791177D03*
X127917133Y-128796823D03*
D16*
X127035000Y-123794000D03*
%TD*%
D14*
%TO.C,SW36*%
X148705000Y-89494000D03*
X142355000Y-92034000D03*
D15*
X141085000Y-94574000D03*
X151245000Y-94574000D03*
D16*
X146165000Y-94574000D03*
%TD*%
D14*
%TO.C,SW32*%
X207422090Y-93317331D03*
X200841374Y-95179661D03*
D15*
X199312829Y-97572995D03*
X209417171Y-98635005D03*
D16*
X204365000Y-98104000D03*
%TD*%
D14*
%TO.C,SW39*%
X167757500Y-106093000D03*
X161407500Y-108633000D03*
D15*
X160137500Y-111173000D03*
X170297500Y-111173000D03*
D16*
X165217500Y-111173000D03*
%TD*%
D14*
%TO.C,SW31*%
X129657500Y-74406500D03*
X123307500Y-76946500D03*
D15*
X122037500Y-79486500D03*
X132197500Y-79486500D03*
D16*
X127117500Y-79486500D03*
%TD*%
D14*
%TO.C,SW27*%
X209432090Y-74367331D03*
X202851374Y-76229661D03*
D15*
X201322829Y-78622995D03*
X211427171Y-79685005D03*
D16*
X206375000Y-79154000D03*
%TD*%
D14*
%TO.C,SW28*%
X186807500Y-70469500D03*
X180457500Y-73009500D03*
D15*
X179187500Y-75549500D03*
X189347500Y-75549500D03*
D16*
X184267500Y-75549500D03*
%TD*%
D14*
%TO.C,SW25*%
X148707500Y-51419500D03*
X142357500Y-53959500D03*
D15*
X141087500Y-56499500D03*
X151247500Y-56499500D03*
D16*
X146167500Y-56499500D03*
%TD*%
D14*
%TO.C,SW38*%
X186807500Y-108569500D03*
X180457500Y-111109500D03*
D15*
X179187500Y-113649500D03*
X189347500Y-113649500D03*
D16*
X184267500Y-113649500D03*
%TD*%
D14*
%TO.C,SW33*%
X186807500Y-89519500D03*
X180457500Y-92059500D03*
D15*
X179187500Y-94599500D03*
X189347500Y-94599500D03*
D16*
X184267500Y-94599500D03*
%TD*%
D14*
%TO.C,SW40*%
X148707500Y-108569500D03*
X142357500Y-111109500D03*
D15*
X141087500Y-113649500D03*
X151247500Y-113649500D03*
D16*
X146167500Y-113649500D03*
%TD*%
D14*
%TO.C,SW35*%
X167757500Y-87043000D03*
X161407500Y-89583000D03*
D15*
X160137500Y-92123000D03*
X170297500Y-92123000D03*
D16*
X165217500Y-92123000D03*
%TD*%
D14*
%TO.C,SW30*%
X148707500Y-70469500D03*
X142357500Y-73009500D03*
D15*
X141087500Y-75549500D03*
X151247500Y-75549500D03*
D16*
X146167500Y-75549500D03*
%TD*%
D14*
%TO.C,SW42*%
X112799304Y-129344513D03*
X108702351Y-123868284D03*
D15*
X105920199Y-123298959D03*
X108549801Y-133112765D03*
D16*
X107235000Y-128205862D03*
%TD*%
M02*
