M48
; DRILL file {KiCad (5.1.10)-1} date 10/28/21 15:19:54
; FORMAT={-:-/ absolute / inch / decimal}
; #@! TF.CreationDate,2021-10-28T15:19:54+02:00
; #@! TF.GenerationSoftware,Kicad,Pcbnew,(5.1.10)-1
; #@! TF.FileFunction,NonPlated,1,2,NPTH
FMAT,2
INCH
T1C0.0472
T2C0.0748
T3C0.1181
T4C0.1614
T5C0.1693
%
G90
G05
T1
X3.5476Y-3.5811
X3.6838Y-2.22
X3.6838Y-2.4956
X3.8232Y-3.5811
T2
X3.3909Y-5.0993
X3.5277Y-5.4752
X4.1701Y-4.8543
X4.2736Y-5.2407
X4.8046Y-2.3794
X4.8046Y-3.1294
X4.8046Y-3.8794
X4.9666Y-4.6768
X5.0361Y-5.0707
X5.2046Y-2.3794
X5.2046Y-3.1294
X5.2046Y-3.8794
X5.5545Y-3.7234
X5.5546Y-2.2244
X5.5546Y-2.9744
X5.5546Y-4.4744
X5.9545Y-3.7234
X5.9546Y-2.2244
X5.9546Y-2.9744
X5.9546Y-4.4744
X6.3046Y-2.1269
X6.3046Y-2.8769
X6.3046Y-3.6269
X6.3046Y-4.3769
X6.7046Y-2.1269
X6.7046Y-2.8769
X6.7046Y-3.6269
X6.7046Y-4.3769
X7.0546Y-2.2244
X7.0546Y-2.9744
X7.0546Y-3.7244
X7.0546Y-4.4744
X7.4546Y-2.2244
X7.4546Y-2.9744
X7.4546Y-3.7244
X7.4546Y-4.4744
X7.847Y-3.8415
X7.9261Y-3.0954
X8.0044Y-2.347
X8.2448Y-3.8833
X8.3239Y-3.1372
X8.4023Y-2.3888
T3
X3.502Y-5.1121
X3.6815Y-5.3128
X4.2796Y-4.8767
X4.4409Y-5.0923
X4.8546Y-2.2794
X4.8546Y-3.0294
X4.8546Y-3.7794
X5.0738Y-4.7087
X5.1046Y-2.1794
X5.1046Y-2.9294
X5.1046Y-3.6794
X5.2157Y-4.9375
X5.6045Y-3.6234
X5.6046Y-2.1244
X5.6046Y-2.8744
X5.6046Y-4.3744
X5.8545Y-3.5234
X5.8546Y-2.0244
X5.8546Y-2.7744
X5.8546Y-4.2744
X6.3546Y-2.0269
X6.3546Y-2.7769
X6.3546Y-3.5269
X6.3546Y-4.2769
X6.6046Y-1.9269
X6.6046Y-2.6769
X6.6046Y-3.4269
X6.6046Y-4.1769
X7.1046Y-2.1244
X7.1046Y-2.8744
X7.1046Y-3.6244
X7.1046Y-4.3744
X7.3546Y-2.0244
X7.3546Y-2.7744
X7.3546Y-3.5244
X7.3546Y-4.2744
X7.9071Y-3.7472
X7.9863Y-3.0012
X8.0646Y-2.2527
X8.1662Y-3.6739
X8.2454Y-2.9278
X8.3237Y-2.1794
T4
X3.4593Y-5.2872
X4.2219Y-5.0475
X5.0014Y-4.8738
X5.0046Y-2.3794
X5.0046Y-3.1294
X5.0046Y-3.8794
X5.7545Y-3.7234
X5.7546Y-2.2244
X5.7546Y-2.9744
X5.7546Y-4.4744
X6.5046Y-2.1269
X6.5046Y-2.8769
X6.5046Y-3.6269
X6.5046Y-4.3769
X7.2546Y-2.2244
X7.2546Y-2.9744
X7.2546Y-3.7244
X7.2546Y-4.4744
X8.0459Y-3.8624
X8.125Y-3.1163
X8.2033Y-2.3679
T5
X3.8325Y-5.1486
X5.3761Y-2.6042
X5.3761Y-4.1046
X6.1289Y-3.2562
X6.8789Y-3.2542
X7.6259Y-4.1025
X7.7104Y-2.5984
T0
M30
