%TF.GenerationSoftware,KiCad,Pcbnew,(5.1.10)-1*%
%TF.CreationDate,2021-10-28T21:04:49+02:00*%
%TF.ProjectId,yaohkib - right,79616f68-6b69-4622-902d-207269676874,rev?*%
%TF.SameCoordinates,Original*%
%TF.FileFunction,Soldermask,Bot*%
%TF.FilePolarity,Negative*%
%FSLAX46Y46*%
G04 Gerber Fmt 4.6, Leading zero omitted, Abs format (unit mm)*
G04 Created by KiCad (PCBNEW (5.1.10)-1) date 2021-10-28 21:04:49*
%MOMM*%
%LPD*%
G01*
G04 APERTURE LIST*
%ADD10C,4.700000*%
%ADD11O,2.900000X2.100000*%
%ADD12C,1.600000*%
%ADD13C,1.924000*%
%ADD14C,3.400000*%
%ADD15C,2.300000*%
%ADD16C,4.500000*%
%ADD17O,2.178000X1.797000*%
%ADD18O,2.100000X2.900000*%
%ADD19O,1.797000X2.178000*%
%ADD20C,2.400000*%
G04 APERTURE END LIST*
%TO.C,LED53*%
G36*
G01*
X103040077Y-131367434D02*
X104006003Y-131108615D01*
G75*
G02*
X104250952Y-131250036I51764J-193185D01*
G01*
X104690944Y-132892109D01*
G75*
G02*
X104549523Y-133137058I-193185J-51764D01*
G01*
X103583597Y-133395877D01*
G75*
G02*
X103338648Y-133254456I-51764J193185D01*
G01*
X102898656Y-131612383D01*
G75*
G02*
X103040077Y-131367434I193185J51764D01*
G01*
G37*
G36*
G01*
X101687781Y-131729780D02*
X102653707Y-131470961D01*
G75*
G02*
X102898656Y-131612382I51764J-193185D01*
G01*
X103338648Y-133254455D01*
G75*
G02*
X103197227Y-133499404I-193185J-51764D01*
G01*
X102231301Y-133758223D01*
G75*
G02*
X101986352Y-133616802I-51764J193185D01*
G01*
X101546360Y-131974729D01*
G75*
G02*
X101687781Y-131729780I193185J51764D01*
G01*
G37*
G36*
G01*
X101616573Y-126054842D02*
X102582499Y-125796023D01*
G75*
G02*
X102827448Y-125937444I51764J-193185D01*
G01*
X103267440Y-127579517D01*
G75*
G02*
X103126019Y-127824466I-193185J-51764D01*
G01*
X102160093Y-128083285D01*
G75*
G02*
X101915144Y-127941864I-51764J193185D01*
G01*
X101475152Y-126299791D01*
G75*
G02*
X101616573Y-126054842I193185J51764D01*
G01*
G37*
G36*
G01*
X100264277Y-126417188D02*
X101230203Y-126158369D01*
G75*
G02*
X101475152Y-126299790I51764J-193185D01*
G01*
X101915144Y-127941863D01*
G75*
G02*
X101773723Y-128186812I-193185J-51764D01*
G01*
X100807797Y-128445631D01*
G75*
G02*
X100562848Y-128304210I-51764J193185D01*
G01*
X100122856Y-126662137D01*
G75*
G02*
X100264277Y-126417188I193185J51764D01*
G01*
G37*
%TD*%
%TO.C,LED50*%
G36*
G01*
X166917500Y-115746500D02*
X166917500Y-114746500D01*
G75*
G02*
X167117500Y-114546500I200000J0D01*
G01*
X168817500Y-114546500D01*
G75*
G02*
X169017500Y-114746500I0J-200000D01*
G01*
X169017500Y-115746500D01*
G75*
G02*
X168817500Y-115946500I-200000J0D01*
G01*
X167117500Y-115946500D01*
G75*
G02*
X166917500Y-115746500I0J200000D01*
G01*
G37*
G36*
G01*
X166917500Y-117146500D02*
X166917500Y-116146500D01*
G75*
G02*
X167117500Y-115946500I200000J0D01*
G01*
X168817500Y-115946500D01*
G75*
G02*
X169017500Y-116146500I0J-200000D01*
G01*
X169017500Y-117146500D01*
G75*
G02*
X168817500Y-117346500I-200000J0D01*
G01*
X167117500Y-117346500D01*
G75*
G02*
X166917500Y-117146500I0J200000D01*
G01*
G37*
G36*
G01*
X161417500Y-115746500D02*
X161417500Y-114746500D01*
G75*
G02*
X161617500Y-114546500I200000J0D01*
G01*
X163317500Y-114546500D01*
G75*
G02*
X163517500Y-114746500I0J-200000D01*
G01*
X163517500Y-115746500D01*
G75*
G02*
X163317500Y-115946500I-200000J0D01*
G01*
X161617500Y-115946500D01*
G75*
G02*
X161417500Y-115746500I0J200000D01*
G01*
G37*
G36*
G01*
X161417500Y-117146500D02*
X161417500Y-116146500D01*
G75*
G02*
X161617500Y-115946500I200000J0D01*
G01*
X163317500Y-115946500D01*
G75*
G02*
X163517500Y-116146500I0J-200000D01*
G01*
X163517500Y-117146500D01*
G75*
G02*
X163317500Y-117346500I-200000J0D01*
G01*
X161617500Y-117346500D01*
G75*
G02*
X161417500Y-117146500I0J200000D01*
G01*
G37*
%TD*%
%TO.C,LED47*%
G36*
G01*
X185967500Y-99173000D02*
X185967500Y-98173000D01*
G75*
G02*
X186167500Y-97973000I200000J0D01*
G01*
X187867500Y-97973000D01*
G75*
G02*
X188067500Y-98173000I0J-200000D01*
G01*
X188067500Y-99173000D01*
G75*
G02*
X187867500Y-99373000I-200000J0D01*
G01*
X186167500Y-99373000D01*
G75*
G02*
X185967500Y-99173000I0J200000D01*
G01*
G37*
G36*
G01*
X185967500Y-100573000D02*
X185967500Y-99573000D01*
G75*
G02*
X186167500Y-99373000I200000J0D01*
G01*
X187867500Y-99373000D01*
G75*
G02*
X188067500Y-99573000I0J-200000D01*
G01*
X188067500Y-100573000D01*
G75*
G02*
X187867500Y-100773000I-200000J0D01*
G01*
X186167500Y-100773000D01*
G75*
G02*
X185967500Y-100573000I0J200000D01*
G01*
G37*
G36*
G01*
X180467500Y-99173000D02*
X180467500Y-98173000D01*
G75*
G02*
X180667500Y-97973000I200000J0D01*
G01*
X182367500Y-97973000D01*
G75*
G02*
X182567500Y-98173000I0J-200000D01*
G01*
X182567500Y-99173000D01*
G75*
G02*
X182367500Y-99373000I-200000J0D01*
G01*
X180667500Y-99373000D01*
G75*
G02*
X180467500Y-99173000I0J200000D01*
G01*
G37*
G36*
G01*
X180467500Y-100573000D02*
X180467500Y-99573000D01*
G75*
G02*
X180667500Y-99373000I200000J0D01*
G01*
X182367500Y-99373000D01*
G75*
G02*
X182567500Y-99573000I0J-200000D01*
G01*
X182567500Y-100573000D01*
G75*
G02*
X182367500Y-100773000I-200000J0D01*
G01*
X180667500Y-100773000D01*
G75*
G02*
X180467500Y-100573000I0J200000D01*
G01*
G37*
%TD*%
%TO.C,LED45*%
G36*
G01*
X147867500Y-99173000D02*
X147867500Y-98173000D01*
G75*
G02*
X148067500Y-97973000I200000J0D01*
G01*
X149767500Y-97973000D01*
G75*
G02*
X149967500Y-98173000I0J-200000D01*
G01*
X149967500Y-99173000D01*
G75*
G02*
X149767500Y-99373000I-200000J0D01*
G01*
X148067500Y-99373000D01*
G75*
G02*
X147867500Y-99173000I0J200000D01*
G01*
G37*
G36*
G01*
X147867500Y-100573000D02*
X147867500Y-99573000D01*
G75*
G02*
X148067500Y-99373000I200000J0D01*
G01*
X149767500Y-99373000D01*
G75*
G02*
X149967500Y-99573000I0J-200000D01*
G01*
X149967500Y-100573000D01*
G75*
G02*
X149767500Y-100773000I-200000J0D01*
G01*
X148067500Y-100773000D01*
G75*
G02*
X147867500Y-100573000I0J200000D01*
G01*
G37*
G36*
G01*
X142367500Y-99173000D02*
X142367500Y-98173000D01*
G75*
G02*
X142567500Y-97973000I200000J0D01*
G01*
X144267500Y-97973000D01*
G75*
G02*
X144467500Y-98173000I0J-200000D01*
G01*
X144467500Y-99173000D01*
G75*
G02*
X144267500Y-99373000I-200000J0D01*
G01*
X142567500Y-99373000D01*
G75*
G02*
X142367500Y-99173000I0J200000D01*
G01*
G37*
G36*
G01*
X142367500Y-100573000D02*
X142367500Y-99573000D01*
G75*
G02*
X142567500Y-99373000I200000J0D01*
G01*
X144267500Y-99373000D01*
G75*
G02*
X144467500Y-99573000I0J-200000D01*
G01*
X144467500Y-100573000D01*
G75*
G02*
X144267500Y-100773000I-200000J0D01*
G01*
X142567500Y-100773000D01*
G75*
G02*
X142367500Y-100573000I0J200000D01*
G01*
G37*
%TD*%
%TO.C,LED46*%
G36*
G01*
X166981000Y-96696500D02*
X166981000Y-95696500D01*
G75*
G02*
X167181000Y-95496500I200000J0D01*
G01*
X168881000Y-95496500D01*
G75*
G02*
X169081000Y-95696500I0J-200000D01*
G01*
X169081000Y-96696500D01*
G75*
G02*
X168881000Y-96896500I-200000J0D01*
G01*
X167181000Y-96896500D01*
G75*
G02*
X166981000Y-96696500I0J200000D01*
G01*
G37*
G36*
G01*
X166981000Y-98096500D02*
X166981000Y-97096500D01*
G75*
G02*
X167181000Y-96896500I200000J0D01*
G01*
X168881000Y-96896500D01*
G75*
G02*
X169081000Y-97096500I0J-200000D01*
G01*
X169081000Y-98096500D01*
G75*
G02*
X168881000Y-98296500I-200000J0D01*
G01*
X167181000Y-98296500D01*
G75*
G02*
X166981000Y-98096500I0J200000D01*
G01*
G37*
G36*
G01*
X161481000Y-96696500D02*
X161481000Y-95696500D01*
G75*
G02*
X161681000Y-95496500I200000J0D01*
G01*
X163381000Y-95496500D01*
G75*
G02*
X163581000Y-95696500I0J-200000D01*
G01*
X163581000Y-96696500D01*
G75*
G02*
X163381000Y-96896500I-200000J0D01*
G01*
X161681000Y-96896500D01*
G75*
G02*
X161481000Y-96696500I0J200000D01*
G01*
G37*
G36*
G01*
X161481000Y-98096500D02*
X161481000Y-97096500D01*
G75*
G02*
X161681000Y-96896500I200000J0D01*
G01*
X163381000Y-96896500D01*
G75*
G02*
X163581000Y-97096500I0J-200000D01*
G01*
X163581000Y-98096500D01*
G75*
G02*
X163381000Y-98296500I-200000J0D01*
G01*
X161681000Y-98296500D01*
G75*
G02*
X161481000Y-98096500I0J200000D01*
G01*
G37*
%TD*%
%TO.C,LED52*%
G36*
G01*
X122762330Y-126564218D02*
X123747138Y-126390570D01*
G75*
G02*
X123978830Y-126552802I34730J-196962D01*
G01*
X124274032Y-128226976D01*
G75*
G02*
X124111800Y-128458668I-196962J-34730D01*
G01*
X123126992Y-128632316D01*
G75*
G02*
X122895300Y-128470084I-34730J196962D01*
G01*
X122600098Y-126795910D01*
G75*
G02*
X122762330Y-126564218I196962J34730D01*
G01*
G37*
G36*
G01*
X121383599Y-126807325D02*
X122368407Y-126633677D01*
G75*
G02*
X122600099Y-126795909I34730J-196962D01*
G01*
X122895301Y-128470083D01*
G75*
G02*
X122733069Y-128701775I-196962J-34730D01*
G01*
X121748261Y-128875423D01*
G75*
G02*
X121516569Y-128713191I-34730J196962D01*
G01*
X121221367Y-127039017D01*
G75*
G02*
X121383599Y-126807325I196962J34730D01*
G01*
G37*
G36*
G01*
X121807265Y-121147775D02*
X122792073Y-120974127D01*
G75*
G02*
X123023765Y-121136359I34730J-196962D01*
G01*
X123318967Y-122810533D01*
G75*
G02*
X123156735Y-123042225I-196962J-34730D01*
G01*
X122171927Y-123215873D01*
G75*
G02*
X121940235Y-123053641I-34730J196962D01*
G01*
X121645033Y-121379467D01*
G75*
G02*
X121807265Y-121147775I196962J34730D01*
G01*
G37*
G36*
G01*
X120428534Y-121390882D02*
X121413342Y-121217234D01*
G75*
G02*
X121645034Y-121379466I34730J-196962D01*
G01*
X121940236Y-123053640D01*
G75*
G02*
X121778004Y-123285332I-196962J-34730D01*
G01*
X120793196Y-123458980D01*
G75*
G02*
X120561504Y-123296748I-34730J196962D01*
G01*
X120266302Y-121622574D01*
G75*
G02*
X120428534Y-121390882I196962J34730D01*
G01*
G37*
%TD*%
%TO.C,LED44*%
G36*
G01*
X128754000Y-103110000D02*
X128754000Y-102110000D01*
G75*
G02*
X128954000Y-101910000I200000J0D01*
G01*
X130654000Y-101910000D01*
G75*
G02*
X130854000Y-102110000I0J-200000D01*
G01*
X130854000Y-103110000D01*
G75*
G02*
X130654000Y-103310000I-200000J0D01*
G01*
X128954000Y-103310000D01*
G75*
G02*
X128754000Y-103110000I0J200000D01*
G01*
G37*
G36*
G01*
X128754000Y-104510000D02*
X128754000Y-103510000D01*
G75*
G02*
X128954000Y-103310000I200000J0D01*
G01*
X130654000Y-103310000D01*
G75*
G02*
X130854000Y-103510000I0J-200000D01*
G01*
X130854000Y-104510000D01*
G75*
G02*
X130654000Y-104710000I-200000J0D01*
G01*
X128954000Y-104710000D01*
G75*
G02*
X128754000Y-104510000I0J200000D01*
G01*
G37*
G36*
G01*
X123254000Y-103110000D02*
X123254000Y-102110000D01*
G75*
G02*
X123454000Y-101910000I200000J0D01*
G01*
X125154000Y-101910000D01*
G75*
G02*
X125354000Y-102110000I0J-200000D01*
G01*
X125354000Y-103110000D01*
G75*
G02*
X125154000Y-103310000I-200000J0D01*
G01*
X123454000Y-103310000D01*
G75*
G02*
X123254000Y-103110000I0J200000D01*
G01*
G37*
G36*
G01*
X123254000Y-104510000D02*
X123254000Y-103510000D01*
G75*
G02*
X123454000Y-103310000I200000J0D01*
G01*
X125154000Y-103310000D01*
G75*
G02*
X125354000Y-103510000I0J-200000D01*
G01*
X125354000Y-104510000D01*
G75*
G02*
X125154000Y-104710000I-200000J0D01*
G01*
X123454000Y-104710000D01*
G75*
G02*
X123254000Y-104510000I0J200000D01*
G01*
G37*
%TD*%
%TO.C,LED1*%
G36*
G01*
X84164144Y-137814142D02*
X85103836Y-137472122D01*
G75*
G02*
X85360179Y-137591657I68404J-187939D01*
G01*
X85941613Y-139189135D01*
G75*
G02*
X85822078Y-139445478I-187939J-68404D01*
G01*
X84882386Y-139787498D01*
G75*
G02*
X84626043Y-139667963I-68404J187939D01*
G01*
X84044609Y-138070485D01*
G75*
G02*
X84164144Y-137814142I187939J68404D01*
G01*
G37*
G36*
G01*
X82848575Y-138292970D02*
X83788267Y-137950950D01*
G75*
G02*
X84044610Y-138070485I68404J-187939D01*
G01*
X84626044Y-139667963D01*
G75*
G02*
X84506509Y-139924306I-187939J-68404D01*
G01*
X83566817Y-140266326D01*
G75*
G02*
X83310474Y-140146791I-68404J187939D01*
G01*
X82729040Y-138549313D01*
G75*
G02*
X82848575Y-138292970I187939J68404D01*
G01*
G37*
G36*
G01*
X82283033Y-132645832D02*
X83222725Y-132303812D01*
G75*
G02*
X83479068Y-132423347I68404J-187939D01*
G01*
X84060502Y-134020825D01*
G75*
G02*
X83940967Y-134277168I-187939J-68404D01*
G01*
X83001275Y-134619188D01*
G75*
G02*
X82744932Y-134499653I-68404J187939D01*
G01*
X82163498Y-132902175D01*
G75*
G02*
X82283033Y-132645832I187939J68404D01*
G01*
G37*
G36*
G01*
X80967464Y-133124660D02*
X81907156Y-132782640D01*
G75*
G02*
X82163499Y-132902175I68404J-187939D01*
G01*
X82744933Y-134499653D01*
G75*
G02*
X82625398Y-134755996I-187939J-68404D01*
G01*
X81685706Y-135098016D01*
G75*
G02*
X81429363Y-134978481I-68404J187939D01*
G01*
X80847929Y-133381003D01*
G75*
G02*
X80967464Y-133124660I187939J68404D01*
G01*
G37*
%TD*%
%TO.C,LED43*%
G36*
G01*
X128817500Y-84060000D02*
X128817500Y-83060000D01*
G75*
G02*
X129017500Y-82860000I200000J0D01*
G01*
X130717500Y-82860000D01*
G75*
G02*
X130917500Y-83060000I0J-200000D01*
G01*
X130917500Y-84060000D01*
G75*
G02*
X130717500Y-84260000I-200000J0D01*
G01*
X129017500Y-84260000D01*
G75*
G02*
X128817500Y-84060000I0J200000D01*
G01*
G37*
G36*
G01*
X128817500Y-85460000D02*
X128817500Y-84460000D01*
G75*
G02*
X129017500Y-84260000I200000J0D01*
G01*
X130717500Y-84260000D01*
G75*
G02*
X130917500Y-84460000I0J-200000D01*
G01*
X130917500Y-85460000D01*
G75*
G02*
X130717500Y-85660000I-200000J0D01*
G01*
X129017500Y-85660000D01*
G75*
G02*
X128817500Y-85460000I0J200000D01*
G01*
G37*
G36*
G01*
X123317500Y-84060000D02*
X123317500Y-83060000D01*
G75*
G02*
X123517500Y-82860000I200000J0D01*
G01*
X125217500Y-82860000D01*
G75*
G02*
X125417500Y-83060000I0J-200000D01*
G01*
X125417500Y-84060000D01*
G75*
G02*
X125217500Y-84260000I-200000J0D01*
G01*
X123517500Y-84260000D01*
G75*
G02*
X123317500Y-84060000I0J200000D01*
G01*
G37*
G36*
G01*
X123317500Y-85460000D02*
X123317500Y-84460000D01*
G75*
G02*
X123517500Y-84260000I200000J0D01*
G01*
X125217500Y-84260000D01*
G75*
G02*
X125417500Y-84460000I0J-200000D01*
G01*
X125417500Y-85460000D01*
G75*
G02*
X125217500Y-85660000I-200000J0D01*
G01*
X123517500Y-85660000D01*
G75*
G02*
X123317500Y-85460000I0J200000D01*
G01*
G37*
%TD*%
%TO.C,LED49*%
G36*
G01*
X185967500Y-118223000D02*
X185967500Y-117223000D01*
G75*
G02*
X186167500Y-117023000I200000J0D01*
G01*
X187867500Y-117023000D01*
G75*
G02*
X188067500Y-117223000I0J-200000D01*
G01*
X188067500Y-118223000D01*
G75*
G02*
X187867500Y-118423000I-200000J0D01*
G01*
X186167500Y-118423000D01*
G75*
G02*
X185967500Y-118223000I0J200000D01*
G01*
G37*
G36*
G01*
X185967500Y-119623000D02*
X185967500Y-118623000D01*
G75*
G02*
X186167500Y-118423000I200000J0D01*
G01*
X187867500Y-118423000D01*
G75*
G02*
X188067500Y-118623000I0J-200000D01*
G01*
X188067500Y-119623000D01*
G75*
G02*
X187867500Y-119823000I-200000J0D01*
G01*
X186167500Y-119823000D01*
G75*
G02*
X185967500Y-119623000I0J200000D01*
G01*
G37*
G36*
G01*
X180467500Y-118223000D02*
X180467500Y-117223000D01*
G75*
G02*
X180667500Y-117023000I200000J0D01*
G01*
X182367500Y-117023000D01*
G75*
G02*
X182567500Y-117223000I0J-200000D01*
G01*
X182567500Y-118223000D01*
G75*
G02*
X182367500Y-118423000I-200000J0D01*
G01*
X180667500Y-118423000D01*
G75*
G02*
X180467500Y-118223000I0J200000D01*
G01*
G37*
G36*
G01*
X180467500Y-119623000D02*
X180467500Y-118623000D01*
G75*
G02*
X180667500Y-118423000I200000J0D01*
G01*
X182367500Y-118423000D01*
G75*
G02*
X182567500Y-118623000I0J-200000D01*
G01*
X182567500Y-119623000D01*
G75*
G02*
X182367500Y-119823000I-200000J0D01*
G01*
X180667500Y-119823000D01*
G75*
G02*
X180467500Y-119623000I0J200000D01*
G01*
G37*
%TD*%
%TO.C,LED48*%
G36*
G01*
X205698488Y-103021506D02*
X205803017Y-102026984D01*
G75*
G02*
X206022827Y-101848986I198904J-20906D01*
G01*
X207713514Y-102026684D01*
G75*
G02*
X207891512Y-102246494I-20906J-198904D01*
G01*
X207786983Y-103241016D01*
G75*
G02*
X207567173Y-103419014I-198904J20906D01*
G01*
X205876486Y-103241316D01*
G75*
G02*
X205698488Y-103021506I20906J198904D01*
G01*
G37*
G36*
G01*
X205552148Y-104413837D02*
X205656677Y-103419315D01*
G75*
G02*
X205876487Y-103241317I198904J-20906D01*
G01*
X207567174Y-103419015D01*
G75*
G02*
X207745172Y-103638825I-20906J-198904D01*
G01*
X207640643Y-104633347D01*
G75*
G02*
X207420833Y-104811345I-198904J20906D01*
G01*
X205730146Y-104633647D01*
G75*
G02*
X205552148Y-104413837I20906J198904D01*
G01*
G37*
G36*
G01*
X200228618Y-102446599D02*
X200333147Y-101452077D01*
G75*
G02*
X200552957Y-101274079I198904J-20906D01*
G01*
X202243644Y-101451777D01*
G75*
G02*
X202421642Y-101671587I-20906J-198904D01*
G01*
X202317113Y-102666109D01*
G75*
G02*
X202097303Y-102844107I-198904J20906D01*
G01*
X200406616Y-102666409D01*
G75*
G02*
X200228618Y-102446599I20906J198904D01*
G01*
G37*
G36*
G01*
X200082278Y-103838930D02*
X200186807Y-102844408D01*
G75*
G02*
X200406617Y-102666410I198904J-20906D01*
G01*
X202097304Y-102844108D01*
G75*
G02*
X202275302Y-103063918I-20906J-198904D01*
G01*
X202170773Y-104058440D01*
G75*
G02*
X201950963Y-104236438I-198904J20906D01*
G01*
X200260276Y-104058740D01*
G75*
G02*
X200082278Y-103838930I20906J198904D01*
G01*
G37*
%TD*%
%TO.C,LED51*%
G36*
G01*
X147867500Y-118223000D02*
X147867500Y-117223000D01*
G75*
G02*
X148067500Y-117023000I200000J0D01*
G01*
X149767500Y-117023000D01*
G75*
G02*
X149967500Y-117223000I0J-200000D01*
G01*
X149967500Y-118223000D01*
G75*
G02*
X149767500Y-118423000I-200000J0D01*
G01*
X148067500Y-118423000D01*
G75*
G02*
X147867500Y-118223000I0J200000D01*
G01*
G37*
G36*
G01*
X147867500Y-119623000D02*
X147867500Y-118623000D01*
G75*
G02*
X148067500Y-118423000I200000J0D01*
G01*
X149767500Y-118423000D01*
G75*
G02*
X149967500Y-118623000I0J-200000D01*
G01*
X149967500Y-119623000D01*
G75*
G02*
X149767500Y-119823000I-200000J0D01*
G01*
X148067500Y-119823000D01*
G75*
G02*
X147867500Y-119623000I0J200000D01*
G01*
G37*
G36*
G01*
X142367500Y-118223000D02*
X142367500Y-117223000D01*
G75*
G02*
X142567500Y-117023000I200000J0D01*
G01*
X144267500Y-117023000D01*
G75*
G02*
X144467500Y-117223000I0J-200000D01*
G01*
X144467500Y-118223000D01*
G75*
G02*
X144267500Y-118423000I-200000J0D01*
G01*
X142567500Y-118423000D01*
G75*
G02*
X142367500Y-118223000I0J200000D01*
G01*
G37*
G36*
G01*
X142367500Y-119623000D02*
X142367500Y-118623000D01*
G75*
G02*
X142567500Y-118423000I200000J0D01*
G01*
X144267500Y-118423000D01*
G75*
G02*
X144467500Y-118623000I0J-200000D01*
G01*
X144467500Y-119623000D01*
G75*
G02*
X144267500Y-119823000I-200000J0D01*
G01*
X142567500Y-119823000D01*
G75*
G02*
X142367500Y-119623000I0J200000D01*
G01*
G37*
%TD*%
%TO.C,LED34*%
G36*
G01*
X128817500Y-65010000D02*
X128817500Y-64010000D01*
G75*
G02*
X129017500Y-63810000I200000J0D01*
G01*
X130717500Y-63810000D01*
G75*
G02*
X130917500Y-64010000I0J-200000D01*
G01*
X130917500Y-65010000D01*
G75*
G02*
X130717500Y-65210000I-200000J0D01*
G01*
X129017500Y-65210000D01*
G75*
G02*
X128817500Y-65010000I0J200000D01*
G01*
G37*
G36*
G01*
X128817500Y-66410000D02*
X128817500Y-65410000D01*
G75*
G02*
X129017500Y-65210000I200000J0D01*
G01*
X130717500Y-65210000D01*
G75*
G02*
X130917500Y-65410000I0J-200000D01*
G01*
X130917500Y-66410000D01*
G75*
G02*
X130717500Y-66610000I-200000J0D01*
G01*
X129017500Y-66610000D01*
G75*
G02*
X128817500Y-66410000I0J200000D01*
G01*
G37*
G36*
G01*
X123317500Y-65010000D02*
X123317500Y-64010000D01*
G75*
G02*
X123517500Y-63810000I200000J0D01*
G01*
X125217500Y-63810000D01*
G75*
G02*
X125417500Y-64010000I0J-200000D01*
G01*
X125417500Y-65010000D01*
G75*
G02*
X125217500Y-65210000I-200000J0D01*
G01*
X123517500Y-65210000D01*
G75*
G02*
X123317500Y-65010000I0J200000D01*
G01*
G37*
G36*
G01*
X123317500Y-66410000D02*
X123317500Y-65410000D01*
G75*
G02*
X123517500Y-65210000I200000J0D01*
G01*
X125217500Y-65210000D01*
G75*
G02*
X125417500Y-65410000I0J-200000D01*
G01*
X125417500Y-66410000D01*
G75*
G02*
X125217500Y-66610000I-200000J0D01*
G01*
X123517500Y-66610000D01*
G75*
G02*
X123317500Y-66410000I0J200000D01*
G01*
G37*
%TD*%
%TO.C,LED35*%
G36*
G01*
X147867500Y-61073000D02*
X147867500Y-60073000D01*
G75*
G02*
X148067500Y-59873000I200000J0D01*
G01*
X149767500Y-59873000D01*
G75*
G02*
X149967500Y-60073000I0J-200000D01*
G01*
X149967500Y-61073000D01*
G75*
G02*
X149767500Y-61273000I-200000J0D01*
G01*
X148067500Y-61273000D01*
G75*
G02*
X147867500Y-61073000I0J200000D01*
G01*
G37*
G36*
G01*
X147867500Y-62473000D02*
X147867500Y-61473000D01*
G75*
G02*
X148067500Y-61273000I200000J0D01*
G01*
X149767500Y-61273000D01*
G75*
G02*
X149967500Y-61473000I0J-200000D01*
G01*
X149967500Y-62473000D01*
G75*
G02*
X149767500Y-62673000I-200000J0D01*
G01*
X148067500Y-62673000D01*
G75*
G02*
X147867500Y-62473000I0J200000D01*
G01*
G37*
G36*
G01*
X142367500Y-61073000D02*
X142367500Y-60073000D01*
G75*
G02*
X142567500Y-59873000I200000J0D01*
G01*
X144267500Y-59873000D01*
G75*
G02*
X144467500Y-60073000I0J-200000D01*
G01*
X144467500Y-61073000D01*
G75*
G02*
X144267500Y-61273000I-200000J0D01*
G01*
X142567500Y-61273000D01*
G75*
G02*
X142367500Y-61073000I0J200000D01*
G01*
G37*
G36*
G01*
X142367500Y-62473000D02*
X142367500Y-61473000D01*
G75*
G02*
X142567500Y-61273000I200000J0D01*
G01*
X144267500Y-61273000D01*
G75*
G02*
X144467500Y-61473000I0J-200000D01*
G01*
X144467500Y-62473000D01*
G75*
G02*
X144267500Y-62673000I-200000J0D01*
G01*
X142567500Y-62673000D01*
G75*
G02*
X142367500Y-62473000I0J200000D01*
G01*
G37*
%TD*%
%TO.C,LED39*%
G36*
G01*
X207436593Y-83972794D02*
X207541122Y-82978272D01*
G75*
G02*
X207760932Y-82800274I198904J-20906D01*
G01*
X209451619Y-82977972D01*
G75*
G02*
X209629617Y-83197782I-20906J-198904D01*
G01*
X209525088Y-84192304D01*
G75*
G02*
X209305278Y-84370302I-198904J20906D01*
G01*
X207614591Y-84192604D01*
G75*
G02*
X207436593Y-83972794I20906J198904D01*
G01*
G37*
G36*
G01*
X207290253Y-85365125D02*
X207394782Y-84370603D01*
G75*
G02*
X207614592Y-84192605I198904J-20906D01*
G01*
X209305279Y-84370303D01*
G75*
G02*
X209483277Y-84590113I-20906J-198904D01*
G01*
X209378748Y-85584635D01*
G75*
G02*
X209158938Y-85762633I-198904J20906D01*
G01*
X207468251Y-85584935D01*
G75*
G02*
X207290253Y-85365125I20906J198904D01*
G01*
G37*
G36*
G01*
X201966723Y-83397887D02*
X202071252Y-82403365D01*
G75*
G02*
X202291062Y-82225367I198904J-20906D01*
G01*
X203981749Y-82403065D01*
G75*
G02*
X204159747Y-82622875I-20906J-198904D01*
G01*
X204055218Y-83617397D01*
G75*
G02*
X203835408Y-83795395I-198904J20906D01*
G01*
X202144721Y-83617697D01*
G75*
G02*
X201966723Y-83397887I20906J198904D01*
G01*
G37*
G36*
G01*
X201820383Y-84790218D02*
X201924912Y-83795696D01*
G75*
G02*
X202144722Y-83617698I198904J-20906D01*
G01*
X203835409Y-83795396D01*
G75*
G02*
X204013407Y-84015206I-20906J-198904D01*
G01*
X203908878Y-85009728D01*
G75*
G02*
X203689068Y-85187726I-198904J20906D01*
G01*
X201998381Y-85010028D01*
G75*
G02*
X201820383Y-84790218I20906J198904D01*
G01*
G37*
%TD*%
%TO.C,LED42*%
G36*
G01*
X147867500Y-80123000D02*
X147867500Y-79123000D01*
G75*
G02*
X148067500Y-78923000I200000J0D01*
G01*
X149767500Y-78923000D01*
G75*
G02*
X149967500Y-79123000I0J-200000D01*
G01*
X149967500Y-80123000D01*
G75*
G02*
X149767500Y-80323000I-200000J0D01*
G01*
X148067500Y-80323000D01*
G75*
G02*
X147867500Y-80123000I0J200000D01*
G01*
G37*
G36*
G01*
X147867500Y-81523000D02*
X147867500Y-80523000D01*
G75*
G02*
X148067500Y-80323000I200000J0D01*
G01*
X149767500Y-80323000D01*
G75*
G02*
X149967500Y-80523000I0J-200000D01*
G01*
X149967500Y-81523000D01*
G75*
G02*
X149767500Y-81723000I-200000J0D01*
G01*
X148067500Y-81723000D01*
G75*
G02*
X147867500Y-81523000I0J200000D01*
G01*
G37*
G36*
G01*
X142367500Y-80123000D02*
X142367500Y-79123000D01*
G75*
G02*
X142567500Y-78923000I200000J0D01*
G01*
X144267500Y-78923000D01*
G75*
G02*
X144467500Y-79123000I0J-200000D01*
G01*
X144467500Y-80123000D01*
G75*
G02*
X144267500Y-80323000I-200000J0D01*
G01*
X142567500Y-80323000D01*
G75*
G02*
X142367500Y-80123000I0J200000D01*
G01*
G37*
G36*
G01*
X142367500Y-81523000D02*
X142367500Y-80523000D01*
G75*
G02*
X142567500Y-80323000I200000J0D01*
G01*
X144267500Y-80323000D01*
G75*
G02*
X144467500Y-80523000I0J-200000D01*
G01*
X144467500Y-81523000D01*
G75*
G02*
X144267500Y-81723000I-200000J0D01*
G01*
X142567500Y-81723000D01*
G75*
G02*
X142367500Y-81523000I0J200000D01*
G01*
G37*
%TD*%
%TO.C,LED36*%
G36*
G01*
X166917500Y-58596500D02*
X166917500Y-57596500D01*
G75*
G02*
X167117500Y-57396500I200000J0D01*
G01*
X168817500Y-57396500D01*
G75*
G02*
X169017500Y-57596500I0J-200000D01*
G01*
X169017500Y-58596500D01*
G75*
G02*
X168817500Y-58796500I-200000J0D01*
G01*
X167117500Y-58796500D01*
G75*
G02*
X166917500Y-58596500I0J200000D01*
G01*
G37*
G36*
G01*
X166917500Y-59996500D02*
X166917500Y-58996500D01*
G75*
G02*
X167117500Y-58796500I200000J0D01*
G01*
X168817500Y-58796500D01*
G75*
G02*
X169017500Y-58996500I0J-200000D01*
G01*
X169017500Y-59996500D01*
G75*
G02*
X168817500Y-60196500I-200000J0D01*
G01*
X167117500Y-60196500D01*
G75*
G02*
X166917500Y-59996500I0J200000D01*
G01*
G37*
G36*
G01*
X161417500Y-58596500D02*
X161417500Y-57596500D01*
G75*
G02*
X161617500Y-57396500I200000J0D01*
G01*
X163317500Y-57396500D01*
G75*
G02*
X163517500Y-57596500I0J-200000D01*
G01*
X163517500Y-58596500D01*
G75*
G02*
X163317500Y-58796500I-200000J0D01*
G01*
X161617500Y-58796500D01*
G75*
G02*
X161417500Y-58596500I0J200000D01*
G01*
G37*
G36*
G01*
X161417500Y-59996500D02*
X161417500Y-58996500D01*
G75*
G02*
X161617500Y-58796500I200000J0D01*
G01*
X163317500Y-58796500D01*
G75*
G02*
X163517500Y-58996500I0J-200000D01*
G01*
X163517500Y-59996500D01*
G75*
G02*
X163317500Y-60196500I-200000J0D01*
G01*
X161617500Y-60196500D01*
G75*
G02*
X161417500Y-59996500I0J200000D01*
G01*
G37*
%TD*%
%TO.C,LED38*%
G36*
G01*
X209508488Y-65071506D02*
X209613017Y-64076984D01*
G75*
G02*
X209832827Y-63898986I198904J-20906D01*
G01*
X211523514Y-64076684D01*
G75*
G02*
X211701512Y-64296494I-20906J-198904D01*
G01*
X211596983Y-65291016D01*
G75*
G02*
X211377173Y-65469014I-198904J20906D01*
G01*
X209686486Y-65291316D01*
G75*
G02*
X209508488Y-65071506I20906J198904D01*
G01*
G37*
G36*
G01*
X209362148Y-66463837D02*
X209466677Y-65469315D01*
G75*
G02*
X209686487Y-65291317I198904J-20906D01*
G01*
X211377174Y-65469015D01*
G75*
G02*
X211555172Y-65688825I-20906J-198904D01*
G01*
X211450643Y-66683347D01*
G75*
G02*
X211230833Y-66861345I-198904J20906D01*
G01*
X209540146Y-66683647D01*
G75*
G02*
X209362148Y-66463837I20906J198904D01*
G01*
G37*
G36*
G01*
X204038618Y-64496599D02*
X204143147Y-63502077D01*
G75*
G02*
X204362957Y-63324079I198904J-20906D01*
G01*
X206053644Y-63501777D01*
G75*
G02*
X206231642Y-63721587I-20906J-198904D01*
G01*
X206127113Y-64716109D01*
G75*
G02*
X205907303Y-64894107I-198904J20906D01*
G01*
X204216616Y-64716409D01*
G75*
G02*
X204038618Y-64496599I20906J198904D01*
G01*
G37*
G36*
G01*
X203892278Y-65888930D02*
X203996807Y-64894408D01*
G75*
G02*
X204216617Y-64716410I198904J-20906D01*
G01*
X205907304Y-64894108D01*
G75*
G02*
X206085302Y-65113918I-20906J-198904D01*
G01*
X205980773Y-66108440D01*
G75*
G02*
X205760963Y-66286438I-198904J20906D01*
G01*
X204070276Y-66108740D01*
G75*
G02*
X203892278Y-65888930I20906J198904D01*
G01*
G37*
%TD*%
%TO.C,LED40*%
G36*
G01*
X185967500Y-80123000D02*
X185967500Y-79123000D01*
G75*
G02*
X186167500Y-78923000I200000J0D01*
G01*
X187867500Y-78923000D01*
G75*
G02*
X188067500Y-79123000I0J-200000D01*
G01*
X188067500Y-80123000D01*
G75*
G02*
X187867500Y-80323000I-200000J0D01*
G01*
X186167500Y-80323000D01*
G75*
G02*
X185967500Y-80123000I0J200000D01*
G01*
G37*
G36*
G01*
X185967500Y-81523000D02*
X185967500Y-80523000D01*
G75*
G02*
X186167500Y-80323000I200000J0D01*
G01*
X187867500Y-80323000D01*
G75*
G02*
X188067500Y-80523000I0J-200000D01*
G01*
X188067500Y-81523000D01*
G75*
G02*
X187867500Y-81723000I-200000J0D01*
G01*
X186167500Y-81723000D01*
G75*
G02*
X185967500Y-81523000I0J200000D01*
G01*
G37*
G36*
G01*
X180467500Y-80123000D02*
X180467500Y-79123000D01*
G75*
G02*
X180667500Y-78923000I200000J0D01*
G01*
X182367500Y-78923000D01*
G75*
G02*
X182567500Y-79123000I0J-200000D01*
G01*
X182567500Y-80123000D01*
G75*
G02*
X182367500Y-80323000I-200000J0D01*
G01*
X180667500Y-80323000D01*
G75*
G02*
X180467500Y-80123000I0J200000D01*
G01*
G37*
G36*
G01*
X180467500Y-81523000D02*
X180467500Y-80523000D01*
G75*
G02*
X180667500Y-80323000I200000J0D01*
G01*
X182367500Y-80323000D01*
G75*
G02*
X182567500Y-80523000I0J-200000D01*
G01*
X182567500Y-81523000D01*
G75*
G02*
X182367500Y-81723000I-200000J0D01*
G01*
X180667500Y-81723000D01*
G75*
G02*
X180467500Y-81523000I0J200000D01*
G01*
G37*
%TD*%
%TO.C,LED37*%
G36*
G01*
X185967500Y-61073000D02*
X185967500Y-60073000D01*
G75*
G02*
X186167500Y-59873000I200000J0D01*
G01*
X187867500Y-59873000D01*
G75*
G02*
X188067500Y-60073000I0J-200000D01*
G01*
X188067500Y-61073000D01*
G75*
G02*
X187867500Y-61273000I-200000J0D01*
G01*
X186167500Y-61273000D01*
G75*
G02*
X185967500Y-61073000I0J200000D01*
G01*
G37*
G36*
G01*
X185967500Y-62473000D02*
X185967500Y-61473000D01*
G75*
G02*
X186167500Y-61273000I200000J0D01*
G01*
X187867500Y-61273000D01*
G75*
G02*
X188067500Y-61473000I0J-200000D01*
G01*
X188067500Y-62473000D01*
G75*
G02*
X187867500Y-62673000I-200000J0D01*
G01*
X186167500Y-62673000D01*
G75*
G02*
X185967500Y-62473000I0J200000D01*
G01*
G37*
G36*
G01*
X180467500Y-61073000D02*
X180467500Y-60073000D01*
G75*
G02*
X180667500Y-59873000I200000J0D01*
G01*
X182367500Y-59873000D01*
G75*
G02*
X182567500Y-60073000I0J-200000D01*
G01*
X182567500Y-61073000D01*
G75*
G02*
X182367500Y-61273000I-200000J0D01*
G01*
X180667500Y-61273000D01*
G75*
G02*
X180467500Y-61073000I0J200000D01*
G01*
G37*
G36*
G01*
X180467500Y-62473000D02*
X180467500Y-61473000D01*
G75*
G02*
X180667500Y-61273000I200000J0D01*
G01*
X182367500Y-61273000D01*
G75*
G02*
X182567500Y-61473000I0J-200000D01*
G01*
X182567500Y-62473000D01*
G75*
G02*
X182367500Y-62673000I-200000J0D01*
G01*
X180667500Y-62673000D01*
G75*
G02*
X180467500Y-62473000I0J200000D01*
G01*
G37*
%TD*%
%TO.C,LED41*%
G36*
G01*
X166854000Y-77646500D02*
X166854000Y-76646500D01*
G75*
G02*
X167054000Y-76446500I200000J0D01*
G01*
X168754000Y-76446500D01*
G75*
G02*
X168954000Y-76646500I0J-200000D01*
G01*
X168954000Y-77646500D01*
G75*
G02*
X168754000Y-77846500I-200000J0D01*
G01*
X167054000Y-77846500D01*
G75*
G02*
X166854000Y-77646500I0J200000D01*
G01*
G37*
G36*
G01*
X166854000Y-79046500D02*
X166854000Y-78046500D01*
G75*
G02*
X167054000Y-77846500I200000J0D01*
G01*
X168754000Y-77846500D01*
G75*
G02*
X168954000Y-78046500I0J-200000D01*
G01*
X168954000Y-79046500D01*
G75*
G02*
X168754000Y-79246500I-200000J0D01*
G01*
X167054000Y-79246500D01*
G75*
G02*
X166854000Y-79046500I0J200000D01*
G01*
G37*
G36*
G01*
X161354000Y-77646500D02*
X161354000Y-76646500D01*
G75*
G02*
X161554000Y-76446500I200000J0D01*
G01*
X163254000Y-76446500D01*
G75*
G02*
X163454000Y-76646500I0J-200000D01*
G01*
X163454000Y-77646500D01*
G75*
G02*
X163254000Y-77846500I-200000J0D01*
G01*
X161554000Y-77846500D01*
G75*
G02*
X161354000Y-77646500I0J200000D01*
G01*
G37*
G36*
G01*
X161354000Y-79046500D02*
X161354000Y-78046500D01*
G75*
G02*
X161554000Y-77846500I200000J0D01*
G01*
X163254000Y-77846500D01*
G75*
G02*
X163454000Y-78046500I0J-200000D01*
G01*
X163454000Y-79046500D01*
G75*
G02*
X163254000Y-79246500I-200000J0D01*
G01*
X161554000Y-79246500D01*
G75*
G02*
X161354000Y-79046500I0J200000D01*
G01*
G37*
%TD*%
D10*
%TO.C,Ref\u002A\u002A*%
X97345000Y-130775000D03*
%TD*%
D11*
%TO.C,J1*%
X100410000Y-93060000D03*
X98910000Y-88860000D03*
X94910000Y-88860000D03*
X91910000Y-88860000D03*
D12*
X97110000Y-90960000D03*
X90110000Y-90960000D03*
%TD*%
D13*
%TO.C,U2*%
X99506400Y-58156000D03*
X99506400Y-60696000D03*
X99506400Y-63236000D03*
X99506400Y-65776000D03*
X99506400Y-68316000D03*
X99506400Y-70856000D03*
X99506400Y-73396000D03*
X99506400Y-75936000D03*
X99506400Y-78476000D03*
X99506400Y-81016000D03*
X99506400Y-83556000D03*
X99506400Y-86096000D03*
X114726400Y-86096000D03*
X114726400Y-83556000D03*
X114726400Y-81016000D03*
X114726400Y-78476000D03*
X114726400Y-75936000D03*
X114726400Y-73396000D03*
X114726400Y-70856000D03*
X114726400Y-68316000D03*
X114726400Y-65776000D03*
X114726400Y-63236000D03*
X114726400Y-60696000D03*
X114726400Y-58156000D03*
%TD*%
D10*
%TO.C,Ref\u002A\u002A*%
X174723000Y-82657500D03*
%TD*%
%TO.C,Ref\u002A\u002A*%
X193697200Y-104203640D03*
%TD*%
%TO.C,Ref\u002A\u002A*%
X195843500Y-65999500D03*
%TD*%
%TO.C,Ref\u002A\u002A*%
X136553000Y-66147500D03*
%TD*%
%TO.C,Ref\u002A\u002A*%
X136553000Y-104257500D03*
%TD*%
%TO.C,Ref\u002A\u002A*%
X155673000Y-82707500D03*
%TD*%
D14*
%TO.C,SW22*%
X211422090Y-55357331D03*
X204841374Y-57219661D03*
G36*
G01*
X216303582Y-54613511D02*
X216042261Y-57099816D01*
G75*
G02*
X215822451Y-57277814I-198904J20906D01*
G01*
X213286420Y-57011267D01*
G75*
G02*
X213108422Y-56791457I20906J198904D01*
G01*
X213369743Y-54305152D01*
G75*
G02*
X213589553Y-54127154I198904J-20906D01*
G01*
X216125584Y-54393701D01*
G75*
G02*
X216303582Y-54613511I-20906J-198904D01*
G01*
G37*
D15*
X203312829Y-59612995D03*
X213417171Y-60675005D03*
D16*
X208365000Y-60144000D03*
G36*
G01*
X203181895Y-55788357D02*
X202920574Y-58274662D01*
G75*
G02*
X202700764Y-58452660I-198904J20906D01*
G01*
X200164733Y-58186113D01*
G75*
G02*
X199986735Y-57966303I20906J198904D01*
G01*
X200248056Y-55479998D01*
G75*
G02*
X200467866Y-55302000I198904J-20906D01*
G01*
X203003897Y-55568547D01*
G75*
G02*
X203181895Y-55788357I-20906J-198904D01*
G01*
G37*
%TD*%
%TO.C,D41*%
G36*
G01*
X129433065Y-132033236D02*
X129259416Y-131048428D01*
G75*
G02*
X129421648Y-130816736I196962J34730D01*
G01*
X130800379Y-130573628D01*
G75*
G02*
X131032071Y-130735860I34730J-196962D01*
G01*
X131205720Y-131720668D01*
G75*
G02*
X131043488Y-131952360I-196962J-34730D01*
G01*
X129664757Y-132195468D01*
G75*
G02*
X129433065Y-132033236I-34730J196962D01*
G01*
G37*
G36*
G01*
X125936997Y-132649688D02*
X125763348Y-131664880D01*
G75*
G02*
X125925580Y-131433188I196962J34730D01*
G01*
X127304311Y-131190080D01*
G75*
G02*
X127536003Y-131352312I34730J-196962D01*
G01*
X127709652Y-132337120D01*
G75*
G02*
X127547420Y-132568812I-196962J-34730D01*
G01*
X126168689Y-132811920D01*
G75*
G02*
X125936997Y-132649688I-34730J196962D01*
G01*
G37*
%TD*%
%TO.C,D24*%
G36*
G01*
X173980120Y-53498520D02*
X172980120Y-53498520D01*
G75*
G02*
X172780120Y-53298520I0J200000D01*
G01*
X172780120Y-51898520D01*
G75*
G02*
X172980120Y-51698520I200000J0D01*
G01*
X173980120Y-51698520D01*
G75*
G02*
X174180120Y-51898520I0J-200000D01*
G01*
X174180120Y-53298520D01*
G75*
G02*
X173980120Y-53498520I-200000J0D01*
G01*
G37*
G36*
G01*
X173980120Y-57048520D02*
X172980120Y-57048520D01*
G75*
G02*
X172780120Y-56848520I0J200000D01*
G01*
X172780120Y-55448520D01*
G75*
G02*
X172980120Y-55248520I200000J0D01*
G01*
X173980120Y-55248520D01*
G75*
G02*
X174180120Y-55448520I0J-200000D01*
G01*
X174180120Y-56848520D01*
G75*
G02*
X173980120Y-57048520I-200000J0D01*
G01*
G37*
%TD*%
%TO.C,D31*%
G36*
G01*
X135727720Y-78812160D02*
X134727720Y-78812160D01*
G75*
G02*
X134527720Y-78612160I0J200000D01*
G01*
X134527720Y-77212160D01*
G75*
G02*
X134727720Y-77012160I200000J0D01*
G01*
X135727720Y-77012160D01*
G75*
G02*
X135927720Y-77212160I0J-200000D01*
G01*
X135927720Y-78612160D01*
G75*
G02*
X135727720Y-78812160I-200000J0D01*
G01*
G37*
G36*
G01*
X135727720Y-82362160D02*
X134727720Y-82362160D01*
G75*
G02*
X134527720Y-82162160I0J200000D01*
G01*
X134527720Y-80762160D01*
G75*
G02*
X134727720Y-80562160I200000J0D01*
G01*
X135727720Y-80562160D01*
G75*
G02*
X135927720Y-80762160I0J-200000D01*
G01*
X135927720Y-82162160D01*
G75*
G02*
X135727720Y-82362160I-200000J0D01*
G01*
G37*
%TD*%
%TO.C,D26*%
G36*
G01*
X135910600Y-59677880D02*
X134910600Y-59677880D01*
G75*
G02*
X134710600Y-59477880I0J200000D01*
G01*
X134710600Y-58077880D01*
G75*
G02*
X134910600Y-57877880I200000J0D01*
G01*
X135910600Y-57877880D01*
G75*
G02*
X136110600Y-58077880I0J-200000D01*
G01*
X136110600Y-59477880D01*
G75*
G02*
X135910600Y-59677880I-200000J0D01*
G01*
G37*
G36*
G01*
X135910600Y-63227880D02*
X134910600Y-63227880D01*
G75*
G02*
X134710600Y-63027880I0J200000D01*
G01*
X134710600Y-61627880D01*
G75*
G02*
X134910600Y-61427880I200000J0D01*
G01*
X135910600Y-61427880D01*
G75*
G02*
X136110600Y-61627880I0J-200000D01*
G01*
X136110600Y-63027880D01*
G75*
G02*
X135910600Y-63227880I-200000J0D01*
G01*
G37*
%TD*%
D14*
%TO.C,SW37*%
X129657500Y-93456500D03*
X123307500Y-95996500D03*
G36*
G01*
X134434500Y-92206500D02*
X134434500Y-94706500D01*
G75*
G02*
X134234500Y-94906500I-200000J0D01*
G01*
X131684500Y-94906500D01*
G75*
G02*
X131484500Y-94706500I0J200000D01*
G01*
X131484500Y-92206500D01*
G75*
G02*
X131684500Y-92006500I200000J0D01*
G01*
X134234500Y-92006500D01*
G75*
G02*
X134434500Y-92206500I0J-200000D01*
G01*
G37*
D15*
X122037500Y-98536500D03*
X132197500Y-98536500D03*
D16*
X127117500Y-98536500D03*
G36*
G01*
X121507500Y-94746500D02*
X121507500Y-97246500D01*
G75*
G02*
X121307500Y-97446500I-200000J0D01*
G01*
X118757500Y-97446500D01*
G75*
G02*
X118557500Y-97246500I0J200000D01*
G01*
X118557500Y-94746500D01*
G75*
G02*
X118757500Y-94546500I200000J0D01*
G01*
X121307500Y-94546500D01*
G75*
G02*
X121507500Y-94746500I0J-200000D01*
G01*
G37*
%TD*%
%TO.C,D22*%
G36*
G01*
X214783723Y-64256058D02*
X213789201Y-64151529D01*
G75*
G02*
X213611203Y-63931719I20906J198904D01*
G01*
X213757543Y-62539388D01*
G75*
G02*
X213977353Y-62361390I198904J-20906D01*
G01*
X214971875Y-62465919D01*
G75*
G02*
X215149873Y-62685729I-20906J-198904D01*
G01*
X215003533Y-64078060D01*
G75*
G02*
X214783723Y-64256058I-198904J20906D01*
G01*
G37*
G36*
G01*
X214412647Y-67786610D02*
X213418125Y-67682081D01*
G75*
G02*
X213240127Y-67462271I20906J198904D01*
G01*
X213386467Y-66069940D01*
G75*
G02*
X213606277Y-65891942I198904J-20906D01*
G01*
X214600799Y-65996471D01*
G75*
G02*
X214778797Y-66216281I-20906J-198904D01*
G01*
X214632457Y-67608612D01*
G75*
G02*
X214412647Y-67786610I-198904J20906D01*
G01*
G37*
%TD*%
D14*
%TO.C,SW23*%
X186807500Y-51419500D03*
X180457500Y-53959500D03*
G36*
G01*
X191584500Y-50169500D02*
X191584500Y-52669500D01*
G75*
G02*
X191384500Y-52869500I-200000J0D01*
G01*
X188834500Y-52869500D01*
G75*
G02*
X188634500Y-52669500I0J200000D01*
G01*
X188634500Y-50169500D01*
G75*
G02*
X188834500Y-49969500I200000J0D01*
G01*
X191384500Y-49969500D01*
G75*
G02*
X191584500Y-50169500I0J-200000D01*
G01*
G37*
D15*
X179187500Y-56499500D03*
X189347500Y-56499500D03*
D16*
X184267500Y-56499500D03*
G36*
G01*
X178657500Y-52709500D02*
X178657500Y-55209500D01*
G75*
G02*
X178457500Y-55409500I-200000J0D01*
G01*
X175907500Y-55409500D01*
G75*
G02*
X175707500Y-55209500I0J200000D01*
G01*
X175707500Y-52709500D01*
G75*
G02*
X175907500Y-52509500I200000J0D01*
G01*
X178457500Y-52509500D01*
G75*
G02*
X178657500Y-52709500I0J-200000D01*
G01*
G37*
%TD*%
D14*
%TO.C,SW24*%
X167757500Y-48943000D03*
X161407500Y-51483000D03*
G36*
G01*
X172534500Y-47693000D02*
X172534500Y-50193000D01*
G75*
G02*
X172334500Y-50393000I-200000J0D01*
G01*
X169784500Y-50393000D01*
G75*
G02*
X169584500Y-50193000I0J200000D01*
G01*
X169584500Y-47693000D01*
G75*
G02*
X169784500Y-47493000I200000J0D01*
G01*
X172334500Y-47493000D01*
G75*
G02*
X172534500Y-47693000I0J-200000D01*
G01*
G37*
D15*
X160137500Y-54023000D03*
X170297500Y-54023000D03*
D16*
X165217500Y-54023000D03*
G36*
G01*
X159607500Y-50233000D02*
X159607500Y-52733000D01*
G75*
G02*
X159407500Y-52933000I-200000J0D01*
G01*
X156857500Y-52933000D01*
G75*
G02*
X156657500Y-52733000I0J200000D01*
G01*
X156657500Y-50233000D01*
G75*
G02*
X156857500Y-50033000I200000J0D01*
G01*
X159407500Y-50033000D01*
G75*
G02*
X159607500Y-50233000I0J-200000D01*
G01*
G37*
%TD*%
D14*
%TO.C,SW29*%
X167757500Y-67993000D03*
X161407500Y-70533000D03*
G36*
G01*
X172534500Y-66743000D02*
X172534500Y-69243000D01*
G75*
G02*
X172334500Y-69443000I-200000J0D01*
G01*
X169784500Y-69443000D01*
G75*
G02*
X169584500Y-69243000I0J200000D01*
G01*
X169584500Y-66743000D01*
G75*
G02*
X169784500Y-66543000I200000J0D01*
G01*
X172334500Y-66543000D01*
G75*
G02*
X172534500Y-66743000I0J-200000D01*
G01*
G37*
D15*
X160137500Y-73073000D03*
X170297500Y-73073000D03*
D16*
X165217500Y-73073000D03*
G36*
G01*
X159607500Y-69283000D02*
X159607500Y-71783000D01*
G75*
G02*
X159407500Y-71983000I-200000J0D01*
G01*
X156857500Y-71983000D01*
G75*
G02*
X156657500Y-71783000I0J200000D01*
G01*
X156657500Y-69283000D01*
G75*
G02*
X156857500Y-69083000I200000J0D01*
G01*
X159407500Y-69083000D01*
G75*
G02*
X159607500Y-69283000I0J-200000D01*
G01*
G37*
%TD*%
%TO.C,D34*%
G36*
G01*
X173939480Y-91151480D02*
X172939480Y-91151480D01*
G75*
G02*
X172739480Y-90951480I0J200000D01*
G01*
X172739480Y-89551480D01*
G75*
G02*
X172939480Y-89351480I200000J0D01*
G01*
X173939480Y-89351480D01*
G75*
G02*
X174139480Y-89551480I0J-200000D01*
G01*
X174139480Y-90951480D01*
G75*
G02*
X173939480Y-91151480I-200000J0D01*
G01*
G37*
G36*
G01*
X173939480Y-94701480D02*
X172939480Y-94701480D01*
G75*
G02*
X172739480Y-94501480I0J200000D01*
G01*
X172739480Y-93101480D01*
G75*
G02*
X172939480Y-92901480I200000J0D01*
G01*
X173939480Y-92901480D01*
G75*
G02*
X174139480Y-93101480I0J-200000D01*
G01*
X174139480Y-94501480D01*
G75*
G02*
X173939480Y-94701480I-200000J0D01*
G01*
G37*
%TD*%
%TO.C,D35*%
G36*
G01*
X154737080Y-94148680D02*
X153737080Y-94148680D01*
G75*
G02*
X153537080Y-93948680I0J200000D01*
G01*
X153537080Y-92548680D01*
G75*
G02*
X153737080Y-92348680I200000J0D01*
G01*
X154737080Y-92348680D01*
G75*
G02*
X154937080Y-92548680I0J-200000D01*
G01*
X154937080Y-93948680D01*
G75*
G02*
X154737080Y-94148680I-200000J0D01*
G01*
G37*
G36*
G01*
X154737080Y-97698680D02*
X153737080Y-97698680D01*
G75*
G02*
X153537080Y-97498680I0J200000D01*
G01*
X153537080Y-96098680D01*
G75*
G02*
X153737080Y-95898680I200000J0D01*
G01*
X154737080Y-95898680D01*
G75*
G02*
X154937080Y-96098680I0J-200000D01*
G01*
X154937080Y-97498680D01*
G75*
G02*
X154737080Y-97698680I-200000J0D01*
G01*
G37*
%TD*%
%TO.C,D25*%
G36*
G01*
X154772640Y-55566080D02*
X153772640Y-55566080D01*
G75*
G02*
X153572640Y-55366080I0J200000D01*
G01*
X153572640Y-53966080D01*
G75*
G02*
X153772640Y-53766080I200000J0D01*
G01*
X154772640Y-53766080D01*
G75*
G02*
X154972640Y-53966080I0J-200000D01*
G01*
X154972640Y-55366080D01*
G75*
G02*
X154772640Y-55566080I-200000J0D01*
G01*
G37*
G36*
G01*
X154772640Y-59116080D02*
X153772640Y-59116080D01*
G75*
G02*
X153572640Y-58916080I0J200000D01*
G01*
X153572640Y-57516080D01*
G75*
G02*
X153772640Y-57316080I200000J0D01*
G01*
X154772640Y-57316080D01*
G75*
G02*
X154972640Y-57516080I0J-200000D01*
G01*
X154972640Y-58916080D01*
G75*
G02*
X154772640Y-59116080I-200000J0D01*
G01*
G37*
%TD*%
%TO.C,D28*%
G36*
G01*
X192903120Y-74661800D02*
X191903120Y-74661800D01*
G75*
G02*
X191703120Y-74461800I0J200000D01*
G01*
X191703120Y-73061800D01*
G75*
G02*
X191903120Y-72861800I200000J0D01*
G01*
X192903120Y-72861800D01*
G75*
G02*
X193103120Y-73061800I0J-200000D01*
G01*
X193103120Y-74461800D01*
G75*
G02*
X192903120Y-74661800I-200000J0D01*
G01*
G37*
G36*
G01*
X192903120Y-78211800D02*
X191903120Y-78211800D01*
G75*
G02*
X191703120Y-78011800I0J200000D01*
G01*
X191703120Y-76611800D01*
G75*
G02*
X191903120Y-76411800I200000J0D01*
G01*
X192903120Y-76411800D01*
G75*
G02*
X193103120Y-76611800I0J-200000D01*
G01*
X193103120Y-78011800D01*
G75*
G02*
X192903120Y-78211800I-200000J0D01*
G01*
G37*
%TD*%
%TO.C,D33*%
G36*
G01*
X192918360Y-93630520D02*
X191918360Y-93630520D01*
G75*
G02*
X191718360Y-93430520I0J200000D01*
G01*
X191718360Y-92030520D01*
G75*
G02*
X191918360Y-91830520I200000J0D01*
G01*
X192918360Y-91830520D01*
G75*
G02*
X193118360Y-92030520I0J-200000D01*
G01*
X193118360Y-93430520D01*
G75*
G02*
X192918360Y-93630520I-200000J0D01*
G01*
G37*
G36*
G01*
X192918360Y-97180520D02*
X191918360Y-97180520D01*
G75*
G02*
X191718360Y-96980520I0J200000D01*
G01*
X191718360Y-95580520D01*
G75*
G02*
X191918360Y-95380520I200000J0D01*
G01*
X192918360Y-95380520D01*
G75*
G02*
X193118360Y-95580520I0J-200000D01*
G01*
X193118360Y-96980520D01*
G75*
G02*
X192918360Y-97180520I-200000J0D01*
G01*
G37*
%TD*%
%TO.C,D29*%
G36*
G01*
X173995360Y-72272120D02*
X172995360Y-72272120D01*
G75*
G02*
X172795360Y-72072120I0J200000D01*
G01*
X172795360Y-70672120D01*
G75*
G02*
X172995360Y-70472120I200000J0D01*
G01*
X173995360Y-70472120D01*
G75*
G02*
X174195360Y-70672120I0J-200000D01*
G01*
X174195360Y-72072120D01*
G75*
G02*
X173995360Y-72272120I-200000J0D01*
G01*
G37*
G36*
G01*
X173995360Y-75822120D02*
X172995360Y-75822120D01*
G75*
G02*
X172795360Y-75622120I0J200000D01*
G01*
X172795360Y-74222120D01*
G75*
G02*
X172995360Y-74022120I200000J0D01*
G01*
X173995360Y-74022120D01*
G75*
G02*
X174195360Y-74222120I0J-200000D01*
G01*
X174195360Y-75622120D01*
G75*
G02*
X173995360Y-75822120I-200000J0D01*
G01*
G37*
%TD*%
%TO.C,D38*%
G36*
G01*
X192918360Y-112832920D02*
X191918360Y-112832920D01*
G75*
G02*
X191718360Y-112632920I0J200000D01*
G01*
X191718360Y-111232920D01*
G75*
G02*
X191918360Y-111032920I200000J0D01*
G01*
X192918360Y-111032920D01*
G75*
G02*
X193118360Y-111232920I0J-200000D01*
G01*
X193118360Y-112632920D01*
G75*
G02*
X192918360Y-112832920I-200000J0D01*
G01*
G37*
G36*
G01*
X192918360Y-116382920D02*
X191918360Y-116382920D01*
G75*
G02*
X191718360Y-116182920I0J200000D01*
G01*
X191718360Y-114782920D01*
G75*
G02*
X191918360Y-114582920I200000J0D01*
G01*
X192918360Y-114582920D01*
G75*
G02*
X193118360Y-114782920I0J-200000D01*
G01*
X193118360Y-116182920D01*
G75*
G02*
X192918360Y-116382920I-200000J0D01*
G01*
G37*
%TD*%
D14*
%TO.C,SW26*%
X129657500Y-55356500D03*
X123307500Y-57896500D03*
G36*
G01*
X134434500Y-54106500D02*
X134434500Y-56606500D01*
G75*
G02*
X134234500Y-56806500I-200000J0D01*
G01*
X131684500Y-56806500D01*
G75*
G02*
X131484500Y-56606500I0J200000D01*
G01*
X131484500Y-54106500D01*
G75*
G02*
X131684500Y-53906500I200000J0D01*
G01*
X134234500Y-53906500D01*
G75*
G02*
X134434500Y-54106500I0J-200000D01*
G01*
G37*
D15*
X122037500Y-60436500D03*
X132197500Y-60436500D03*
D16*
X127117500Y-60436500D03*
G36*
G01*
X121507500Y-56646500D02*
X121507500Y-59146500D01*
G75*
G02*
X121307500Y-59346500I-200000J0D01*
G01*
X118757500Y-59346500D01*
G75*
G02*
X118557500Y-59146500I0J200000D01*
G01*
X118557500Y-56646500D01*
G75*
G02*
X118757500Y-56446500I200000J0D01*
G01*
X121307500Y-56446500D01*
G75*
G02*
X121507500Y-56646500I0J-200000D01*
G01*
G37*
%TD*%
D17*
%TO.C,J4*%
X90690000Y-69720000D03*
X90690000Y-72260000D03*
X90690000Y-74800000D03*
X90690000Y-77340000D03*
%TD*%
D18*
%TO.C,J3*%
X91469180Y-66689140D03*
X95669180Y-65189140D03*
X95669180Y-61189140D03*
X95669180Y-58189140D03*
D12*
X93569180Y-63389140D03*
X93569180Y-56389140D03*
%TD*%
D19*
%TO.C,J6*%
X110925000Y-90154500D03*
X108385000Y-90154500D03*
X105845000Y-90154500D03*
X103305000Y-90154500D03*
%TD*%
D20*
%TO.C,RSW2*%
X90040000Y-81820000D03*
X96540000Y-81820000D03*
%TD*%
D14*
%TO.C,SW34*%
X93509370Y-134945357D03*
X88950723Y-129847040D03*
G36*
G01*
X96317815Y-139006744D02*
X93968584Y-139861794D01*
G75*
G02*
X93712241Y-139742259I-68404J187939D01*
G01*
X92840090Y-137346043D01*
G75*
G02*
X92959625Y-137089700I187939J68404D01*
G01*
X95308856Y-136234650D01*
G75*
G02*
X95565199Y-136354185I68404J-187939D01*
G01*
X96437350Y-138750401D01*
G75*
G02*
X96317815Y-139006744I-187939J-68404D01*
G01*
G37*
D15*
X86129538Y-129522361D03*
X89604462Y-139069639D03*
D16*
X87867000Y-134296000D03*
G36*
G01*
X89509702Y-127728069D02*
X87160471Y-128583119D01*
G75*
G02*
X86904128Y-128463584I-68404J187939D01*
G01*
X86031977Y-126067368D01*
G75*
G02*
X86151512Y-125811025I187939J68404D01*
G01*
X88500743Y-124955975D01*
G75*
G02*
X88757086Y-125075510I68404J-187939D01*
G01*
X89629237Y-127471726D01*
G75*
G02*
X89509702Y-127728069I-187939J-68404D01*
G01*
G37*
%TD*%
D14*
%TO.C,SW41*%
X132478890Y-125413279D03*
X128874812Y-119600816D03*
G36*
G01*
X134539417Y-129900646D02*
X132077398Y-130334766D01*
G75*
G02*
X131845706Y-130172534I-34730J196962D01*
G01*
X131402903Y-127661274D01*
G75*
G02*
X131565135Y-127429582I196962J34730D01*
G01*
X134027154Y-126995462D01*
G75*
G02*
X134258846Y-127157694I34730J-196962D01*
G01*
X134701649Y-129668954D01*
G75*
G02*
X134539417Y-129900646I-196962J-34730D01*
G01*
G37*
D15*
X126152867Y-118791177D03*
X127917133Y-128796823D03*
D16*
X127035000Y-123794000D03*
G36*
G01*
X129793255Y-117611103D02*
X127331236Y-118045223D01*
G75*
G02*
X127099544Y-117882991I-34730J196962D01*
G01*
X126656741Y-115371731D01*
G75*
G02*
X126818973Y-115140039I196962J34730D01*
G01*
X129280992Y-114705919D01*
G75*
G02*
X129512684Y-114868151I34730J-196962D01*
G01*
X129955487Y-117379411D01*
G75*
G02*
X129793255Y-117611103I-196962J-34730D01*
G01*
G37*
%TD*%
%TO.C,D23*%
G36*
G01*
X192969160Y-55972480D02*
X191969160Y-55972480D01*
G75*
G02*
X191769160Y-55772480I0J200000D01*
G01*
X191769160Y-54372480D01*
G75*
G02*
X191969160Y-54172480I200000J0D01*
G01*
X192969160Y-54172480D01*
G75*
G02*
X193169160Y-54372480I0J-200000D01*
G01*
X193169160Y-55772480D01*
G75*
G02*
X192969160Y-55972480I-200000J0D01*
G01*
G37*
G36*
G01*
X192969160Y-59522480D02*
X191969160Y-59522480D01*
G75*
G02*
X191769160Y-59322480I0J200000D01*
G01*
X191769160Y-57922480D01*
G75*
G02*
X191969160Y-57722480I200000J0D01*
G01*
X192969160Y-57722480D01*
G75*
G02*
X193169160Y-57922480I0J-200000D01*
G01*
X193169160Y-59322480D01*
G75*
G02*
X192969160Y-59522480I-200000J0D01*
G01*
G37*
%TD*%
%TO.C,D27*%
G36*
G01*
X212748185Y-83271334D02*
X211753663Y-83166805D01*
G75*
G02*
X211575665Y-82946995I20906J198904D01*
G01*
X211722005Y-81554664D01*
G75*
G02*
X211941815Y-81376666I198904J-20906D01*
G01*
X212936337Y-81481195D01*
G75*
G02*
X213114335Y-81701005I-20906J-198904D01*
G01*
X212967995Y-83093336D01*
G75*
G02*
X212748185Y-83271334I-198904J20906D01*
G01*
G37*
G36*
G01*
X212377109Y-86801886D02*
X211382587Y-86697357D01*
G75*
G02*
X211204589Y-86477547I20906J198904D01*
G01*
X211350929Y-85085216D01*
G75*
G02*
X211570739Y-84907218I198904J-20906D01*
G01*
X212565261Y-85011747D01*
G75*
G02*
X212743259Y-85231557I-20906J-198904D01*
G01*
X212596919Y-86623888D01*
G75*
G02*
X212377109Y-86801886I-198904J20906D01*
G01*
G37*
%TD*%
D14*
%TO.C,SW36*%
X148705000Y-89494000D03*
X142355000Y-92034000D03*
G36*
G01*
X153482000Y-88244000D02*
X153482000Y-90744000D01*
G75*
G02*
X153282000Y-90944000I-200000J0D01*
G01*
X150732000Y-90944000D01*
G75*
G02*
X150532000Y-90744000I0J200000D01*
G01*
X150532000Y-88244000D01*
G75*
G02*
X150732000Y-88044000I200000J0D01*
G01*
X153282000Y-88044000D01*
G75*
G02*
X153482000Y-88244000I0J-200000D01*
G01*
G37*
D15*
X141085000Y-94574000D03*
X151245000Y-94574000D03*
D16*
X146165000Y-94574000D03*
G36*
G01*
X140555000Y-90784000D02*
X140555000Y-93284000D01*
G75*
G02*
X140355000Y-93484000I-200000J0D01*
G01*
X137805000Y-93484000D01*
G75*
G02*
X137605000Y-93284000I0J200000D01*
G01*
X137605000Y-90784000D01*
G75*
G02*
X137805000Y-90584000I200000J0D01*
G01*
X140355000Y-90584000D01*
G75*
G02*
X140555000Y-90784000I0J-200000D01*
G01*
G37*
%TD*%
D14*
%TO.C,SW32*%
X207422090Y-93317331D03*
X200841374Y-95179661D03*
G36*
G01*
X212303582Y-92573511D02*
X212042261Y-95059816D01*
G75*
G02*
X211822451Y-95237814I-198904J20906D01*
G01*
X209286420Y-94971267D01*
G75*
G02*
X209108422Y-94751457I20906J198904D01*
G01*
X209369743Y-92265152D01*
G75*
G02*
X209589553Y-92087154I198904J-20906D01*
G01*
X212125584Y-92353701D01*
G75*
G02*
X212303582Y-92573511I-20906J-198904D01*
G01*
G37*
D15*
X199312829Y-97572995D03*
X209417171Y-98635005D03*
D16*
X204365000Y-98104000D03*
G36*
G01*
X199181895Y-93748357D02*
X198920574Y-96234662D01*
G75*
G02*
X198700764Y-96412660I-198904J20906D01*
G01*
X196164733Y-96146113D01*
G75*
G02*
X195986735Y-95926303I20906J198904D01*
G01*
X196248056Y-93439998D01*
G75*
G02*
X196467866Y-93262000I198904J-20906D01*
G01*
X199003897Y-93528547D01*
G75*
G02*
X199181895Y-93748357I-20906J-198904D01*
G01*
G37*
%TD*%
%TO.C,D39*%
G36*
G01*
X173959800Y-110409760D02*
X172959800Y-110409760D01*
G75*
G02*
X172759800Y-110209760I0J200000D01*
G01*
X172759800Y-108809760D01*
G75*
G02*
X172959800Y-108609760I200000J0D01*
G01*
X173959800Y-108609760D01*
G75*
G02*
X174159800Y-108809760I0J-200000D01*
G01*
X174159800Y-110209760D01*
G75*
G02*
X173959800Y-110409760I-200000J0D01*
G01*
G37*
G36*
G01*
X173959800Y-113959760D02*
X172959800Y-113959760D01*
G75*
G02*
X172759800Y-113759760I0J200000D01*
G01*
X172759800Y-112359760D01*
G75*
G02*
X172959800Y-112159760I200000J0D01*
G01*
X173959800Y-112159760D01*
G75*
G02*
X174159800Y-112359760I0J-200000D01*
G01*
X174159800Y-113759760D01*
G75*
G02*
X173959800Y-113959760I-200000J0D01*
G01*
G37*
%TD*%
%TO.C,D30*%
G36*
G01*
X154828520Y-74780720D02*
X153828520Y-74780720D01*
G75*
G02*
X153628520Y-74580720I0J200000D01*
G01*
X153628520Y-73180720D01*
G75*
G02*
X153828520Y-72980720I200000J0D01*
G01*
X154828520Y-72980720D01*
G75*
G02*
X155028520Y-73180720I0J-200000D01*
G01*
X155028520Y-74580720D01*
G75*
G02*
X154828520Y-74780720I-200000J0D01*
G01*
G37*
G36*
G01*
X154828520Y-78330720D02*
X153828520Y-78330720D01*
G75*
G02*
X153628520Y-78130720I0J200000D01*
G01*
X153628520Y-76730720D01*
G75*
G02*
X153828520Y-76530720I200000J0D01*
G01*
X154828520Y-76530720D01*
G75*
G02*
X155028520Y-76730720I0J-200000D01*
G01*
X155028520Y-78130720D01*
G75*
G02*
X154828520Y-78330720I-200000J0D01*
G01*
G37*
%TD*%
%TO.C,D40*%
G36*
G01*
X154808200Y-112914200D02*
X153808200Y-112914200D01*
G75*
G02*
X153608200Y-112714200I0J200000D01*
G01*
X153608200Y-111314200D01*
G75*
G02*
X153808200Y-111114200I200000J0D01*
G01*
X154808200Y-111114200D01*
G75*
G02*
X155008200Y-111314200I0J-200000D01*
G01*
X155008200Y-112714200D01*
G75*
G02*
X154808200Y-112914200I-200000J0D01*
G01*
G37*
G36*
G01*
X154808200Y-116464200D02*
X153808200Y-116464200D01*
G75*
G02*
X153608200Y-116264200I0J200000D01*
G01*
X153608200Y-114864200D01*
G75*
G02*
X153808200Y-114664200I200000J0D01*
G01*
X154808200Y-114664200D01*
G75*
G02*
X155008200Y-114864200I0J-200000D01*
G01*
X155008200Y-116264200D01*
G75*
G02*
X154808200Y-116464200I-200000J0D01*
G01*
G37*
%TD*%
%TO.C,D42*%
G36*
G01*
X110312076Y-136082400D02*
X110053257Y-135116474D01*
G75*
G02*
X110194678Y-134871525I193185J51764D01*
G01*
X111546975Y-134509179D01*
G75*
G02*
X111791924Y-134650600I51764J-193185D01*
G01*
X112050743Y-135616526D01*
G75*
G02*
X111909322Y-135861475I-193185J-51764D01*
G01*
X110557025Y-136223821D01*
G75*
G02*
X110312076Y-136082400I-51764J193185D01*
G01*
G37*
G36*
G01*
X106883040Y-137001208D02*
X106624221Y-136035282D01*
G75*
G02*
X106765642Y-135790333I193185J51764D01*
G01*
X108117939Y-135427987D01*
G75*
G02*
X108362888Y-135569408I51764J-193185D01*
G01*
X108621707Y-136535334D01*
G75*
G02*
X108480286Y-136780283I-193185J-51764D01*
G01*
X107127989Y-137142629D01*
G75*
G02*
X106883040Y-137001208I-51764J193185D01*
G01*
G37*
%TD*%
%TO.C,D37*%
G36*
G01*
X135727720Y-97679280D02*
X134727720Y-97679280D01*
G75*
G02*
X134527720Y-97479280I0J200000D01*
G01*
X134527720Y-96079280D01*
G75*
G02*
X134727720Y-95879280I200000J0D01*
G01*
X135727720Y-95879280D01*
G75*
G02*
X135927720Y-96079280I0J-200000D01*
G01*
X135927720Y-97479280D01*
G75*
G02*
X135727720Y-97679280I-200000J0D01*
G01*
G37*
G36*
G01*
X135727720Y-101229280D02*
X134727720Y-101229280D01*
G75*
G02*
X134527720Y-101029280I0J200000D01*
G01*
X134527720Y-99629280D01*
G75*
G02*
X134727720Y-99429280I200000J0D01*
G01*
X135727720Y-99429280D01*
G75*
G02*
X135927720Y-99629280I0J-200000D01*
G01*
X135927720Y-101029280D01*
G75*
G02*
X135727720Y-101229280I-200000J0D01*
G01*
G37*
%TD*%
%TO.C,D32*%
G36*
G01*
X210723723Y-102246058D02*
X209729201Y-102141529D01*
G75*
G02*
X209551203Y-101921719I20906J198904D01*
G01*
X209697543Y-100529388D01*
G75*
G02*
X209917353Y-100351390I198904J-20906D01*
G01*
X210911875Y-100455919D01*
G75*
G02*
X211089873Y-100675729I-20906J-198904D01*
G01*
X210943533Y-102068060D01*
G75*
G02*
X210723723Y-102246058I-198904J20906D01*
G01*
G37*
G36*
G01*
X210352647Y-105776610D02*
X209358125Y-105672081D01*
G75*
G02*
X209180127Y-105452271I20906J198904D01*
G01*
X209326467Y-104059940D01*
G75*
G02*
X209546277Y-103881942I198904J-20906D01*
G01*
X210540799Y-103986471D01*
G75*
G02*
X210718797Y-104206281I-20906J-198904D01*
G01*
X210572457Y-105598612D01*
G75*
G02*
X210352647Y-105776610I-198904J20906D01*
G01*
G37*
%TD*%
D14*
%TO.C,SW39*%
X167757500Y-106093000D03*
X161407500Y-108633000D03*
G36*
G01*
X172534500Y-104843000D02*
X172534500Y-107343000D01*
G75*
G02*
X172334500Y-107543000I-200000J0D01*
G01*
X169784500Y-107543000D01*
G75*
G02*
X169584500Y-107343000I0J200000D01*
G01*
X169584500Y-104843000D01*
G75*
G02*
X169784500Y-104643000I200000J0D01*
G01*
X172334500Y-104643000D01*
G75*
G02*
X172534500Y-104843000I0J-200000D01*
G01*
G37*
D15*
X160137500Y-111173000D03*
X170297500Y-111173000D03*
D16*
X165217500Y-111173000D03*
G36*
G01*
X159607500Y-107383000D02*
X159607500Y-109883000D01*
G75*
G02*
X159407500Y-110083000I-200000J0D01*
G01*
X156857500Y-110083000D01*
G75*
G02*
X156657500Y-109883000I0J200000D01*
G01*
X156657500Y-107383000D01*
G75*
G02*
X156857500Y-107183000I200000J0D01*
G01*
X159407500Y-107183000D01*
G75*
G02*
X159607500Y-107383000I0J-200000D01*
G01*
G37*
%TD*%
D14*
%TO.C,SW31*%
X129657500Y-74406500D03*
X123307500Y-76946500D03*
G36*
G01*
X134434500Y-73156500D02*
X134434500Y-75656500D01*
G75*
G02*
X134234500Y-75856500I-200000J0D01*
G01*
X131684500Y-75856500D01*
G75*
G02*
X131484500Y-75656500I0J200000D01*
G01*
X131484500Y-73156500D01*
G75*
G02*
X131684500Y-72956500I200000J0D01*
G01*
X134234500Y-72956500D01*
G75*
G02*
X134434500Y-73156500I0J-200000D01*
G01*
G37*
D15*
X122037500Y-79486500D03*
X132197500Y-79486500D03*
D16*
X127117500Y-79486500D03*
G36*
G01*
X121507500Y-75696500D02*
X121507500Y-78196500D01*
G75*
G02*
X121307500Y-78396500I-200000J0D01*
G01*
X118757500Y-78396500D01*
G75*
G02*
X118557500Y-78196500I0J200000D01*
G01*
X118557500Y-75696500D01*
G75*
G02*
X118757500Y-75496500I200000J0D01*
G01*
X121307500Y-75496500D01*
G75*
G02*
X121507500Y-75696500I0J-200000D01*
G01*
G37*
%TD*%
D14*
%TO.C,SW27*%
X209432090Y-74367331D03*
X202851374Y-76229661D03*
G36*
G01*
X214313582Y-73623511D02*
X214052261Y-76109816D01*
G75*
G02*
X213832451Y-76287814I-198904J20906D01*
G01*
X211296420Y-76021267D01*
G75*
G02*
X211118422Y-75801457I20906J198904D01*
G01*
X211379743Y-73315152D01*
G75*
G02*
X211599553Y-73137154I198904J-20906D01*
G01*
X214135584Y-73403701D01*
G75*
G02*
X214313582Y-73623511I-20906J-198904D01*
G01*
G37*
D15*
X201322829Y-78622995D03*
X211427171Y-79685005D03*
D16*
X206375000Y-79154000D03*
G36*
G01*
X201191895Y-74798357D02*
X200930574Y-77284662D01*
G75*
G02*
X200710764Y-77462660I-198904J20906D01*
G01*
X198174733Y-77196113D01*
G75*
G02*
X197996735Y-76976303I20906J198904D01*
G01*
X198258056Y-74489998D01*
G75*
G02*
X198477866Y-74312000I198904J-20906D01*
G01*
X201013897Y-74578547D01*
G75*
G02*
X201191895Y-74798357I-20906J-198904D01*
G01*
G37*
%TD*%
D14*
%TO.C,SW28*%
X186807500Y-70469500D03*
X180457500Y-73009500D03*
G36*
G01*
X191584500Y-69219500D02*
X191584500Y-71719500D01*
G75*
G02*
X191384500Y-71919500I-200000J0D01*
G01*
X188834500Y-71919500D01*
G75*
G02*
X188634500Y-71719500I0J200000D01*
G01*
X188634500Y-69219500D01*
G75*
G02*
X188834500Y-69019500I200000J0D01*
G01*
X191384500Y-69019500D01*
G75*
G02*
X191584500Y-69219500I0J-200000D01*
G01*
G37*
D15*
X179187500Y-75549500D03*
X189347500Y-75549500D03*
D16*
X184267500Y-75549500D03*
G36*
G01*
X178657500Y-71759500D02*
X178657500Y-74259500D01*
G75*
G02*
X178457500Y-74459500I-200000J0D01*
G01*
X175907500Y-74459500D01*
G75*
G02*
X175707500Y-74259500I0J200000D01*
G01*
X175707500Y-71759500D01*
G75*
G02*
X175907500Y-71559500I200000J0D01*
G01*
X178457500Y-71559500D01*
G75*
G02*
X178657500Y-71759500I0J-200000D01*
G01*
G37*
%TD*%
D14*
%TO.C,SW25*%
X148707500Y-51419500D03*
X142357500Y-53959500D03*
G36*
G01*
X153484500Y-50169500D02*
X153484500Y-52669500D01*
G75*
G02*
X153284500Y-52869500I-200000J0D01*
G01*
X150734500Y-52869500D01*
G75*
G02*
X150534500Y-52669500I0J200000D01*
G01*
X150534500Y-50169500D01*
G75*
G02*
X150734500Y-49969500I200000J0D01*
G01*
X153284500Y-49969500D01*
G75*
G02*
X153484500Y-50169500I0J-200000D01*
G01*
G37*
D15*
X141087500Y-56499500D03*
X151247500Y-56499500D03*
D16*
X146167500Y-56499500D03*
G36*
G01*
X140557500Y-52709500D02*
X140557500Y-55209500D01*
G75*
G02*
X140357500Y-55409500I-200000J0D01*
G01*
X137807500Y-55409500D01*
G75*
G02*
X137607500Y-55209500I0J200000D01*
G01*
X137607500Y-52709500D01*
G75*
G02*
X137807500Y-52509500I200000J0D01*
G01*
X140357500Y-52509500D01*
G75*
G02*
X140557500Y-52709500I0J-200000D01*
G01*
G37*
%TD*%
D14*
%TO.C,SW38*%
X186807500Y-108569500D03*
X180457500Y-111109500D03*
G36*
G01*
X191584500Y-107319500D02*
X191584500Y-109819500D01*
G75*
G02*
X191384500Y-110019500I-200000J0D01*
G01*
X188834500Y-110019500D01*
G75*
G02*
X188634500Y-109819500I0J200000D01*
G01*
X188634500Y-107319500D01*
G75*
G02*
X188834500Y-107119500I200000J0D01*
G01*
X191384500Y-107119500D01*
G75*
G02*
X191584500Y-107319500I0J-200000D01*
G01*
G37*
D15*
X179187500Y-113649500D03*
X189347500Y-113649500D03*
D16*
X184267500Y-113649500D03*
G36*
G01*
X178657500Y-109859500D02*
X178657500Y-112359500D01*
G75*
G02*
X178457500Y-112559500I-200000J0D01*
G01*
X175907500Y-112559500D01*
G75*
G02*
X175707500Y-112359500I0J200000D01*
G01*
X175707500Y-109859500D01*
G75*
G02*
X175907500Y-109659500I200000J0D01*
G01*
X178457500Y-109659500D01*
G75*
G02*
X178657500Y-109859500I0J-200000D01*
G01*
G37*
%TD*%
D14*
%TO.C,SW33*%
X186807500Y-89519500D03*
X180457500Y-92059500D03*
G36*
G01*
X191584500Y-88269500D02*
X191584500Y-90769500D01*
G75*
G02*
X191384500Y-90969500I-200000J0D01*
G01*
X188834500Y-90969500D01*
G75*
G02*
X188634500Y-90769500I0J200000D01*
G01*
X188634500Y-88269500D01*
G75*
G02*
X188834500Y-88069500I200000J0D01*
G01*
X191384500Y-88069500D01*
G75*
G02*
X191584500Y-88269500I0J-200000D01*
G01*
G37*
D15*
X179187500Y-94599500D03*
X189347500Y-94599500D03*
D16*
X184267500Y-94599500D03*
G36*
G01*
X178657500Y-90809500D02*
X178657500Y-93309500D01*
G75*
G02*
X178457500Y-93509500I-200000J0D01*
G01*
X175907500Y-93509500D01*
G75*
G02*
X175707500Y-93309500I0J200000D01*
G01*
X175707500Y-90809500D01*
G75*
G02*
X175907500Y-90609500I200000J0D01*
G01*
X178457500Y-90609500D01*
G75*
G02*
X178657500Y-90809500I0J-200000D01*
G01*
G37*
%TD*%
D14*
%TO.C,SW40*%
X148707500Y-108569500D03*
X142357500Y-111109500D03*
G36*
G01*
X153484500Y-107319500D02*
X153484500Y-109819500D01*
G75*
G02*
X153284500Y-110019500I-200000J0D01*
G01*
X150734500Y-110019500D01*
G75*
G02*
X150534500Y-109819500I0J200000D01*
G01*
X150534500Y-107319500D01*
G75*
G02*
X150734500Y-107119500I200000J0D01*
G01*
X153284500Y-107119500D01*
G75*
G02*
X153484500Y-107319500I0J-200000D01*
G01*
G37*
D15*
X141087500Y-113649500D03*
X151247500Y-113649500D03*
D16*
X146167500Y-113649500D03*
G36*
G01*
X140557500Y-109859500D02*
X140557500Y-112359500D01*
G75*
G02*
X140357500Y-112559500I-200000J0D01*
G01*
X137807500Y-112559500D01*
G75*
G02*
X137607500Y-112359500I0J200000D01*
G01*
X137607500Y-109859500D01*
G75*
G02*
X137807500Y-109659500I200000J0D01*
G01*
X140357500Y-109659500D01*
G75*
G02*
X140557500Y-109859500I0J-200000D01*
G01*
G37*
%TD*%
%TO.C,D36*%
G36*
G01*
X91581286Y-141859164D02*
X91239266Y-140919472D01*
G75*
G02*
X91358801Y-140663129I187939J68404D01*
G01*
X92674371Y-140184301D01*
G75*
G02*
X92930714Y-140303836I68404J-187939D01*
G01*
X93272734Y-141243528D01*
G75*
G02*
X93153199Y-141499871I-187939J-68404D01*
G01*
X91837629Y-141978699D01*
G75*
G02*
X91581286Y-141859164I-68404J187939D01*
G01*
G37*
G36*
G01*
X88245378Y-143073336D02*
X87903358Y-142133644D01*
G75*
G02*
X88022893Y-141877301I187939J68404D01*
G01*
X89338463Y-141398473D01*
G75*
G02*
X89594806Y-141518008I68404J-187939D01*
G01*
X89936826Y-142457700D01*
G75*
G02*
X89817291Y-142714043I-187939J-68404D01*
G01*
X88501721Y-143192871D01*
G75*
G02*
X88245378Y-143073336I-68404J187939D01*
G01*
G37*
%TD*%
D14*
%TO.C,SW35*%
X167757500Y-87043000D03*
X161407500Y-89583000D03*
G36*
G01*
X172534500Y-85793000D02*
X172534500Y-88293000D01*
G75*
G02*
X172334500Y-88493000I-200000J0D01*
G01*
X169784500Y-88493000D01*
G75*
G02*
X169584500Y-88293000I0J200000D01*
G01*
X169584500Y-85793000D01*
G75*
G02*
X169784500Y-85593000I200000J0D01*
G01*
X172334500Y-85593000D01*
G75*
G02*
X172534500Y-85793000I0J-200000D01*
G01*
G37*
D15*
X160137500Y-92123000D03*
X170297500Y-92123000D03*
D16*
X165217500Y-92123000D03*
G36*
G01*
X159607500Y-88333000D02*
X159607500Y-90833000D01*
G75*
G02*
X159407500Y-91033000I-200000J0D01*
G01*
X156857500Y-91033000D01*
G75*
G02*
X156657500Y-90833000I0J200000D01*
G01*
X156657500Y-88333000D01*
G75*
G02*
X156857500Y-88133000I200000J0D01*
G01*
X159407500Y-88133000D01*
G75*
G02*
X159607500Y-88333000I0J-200000D01*
G01*
G37*
%TD*%
D14*
%TO.C,SW30*%
X148707500Y-70469500D03*
X142357500Y-73009500D03*
G36*
G01*
X153484500Y-69219500D02*
X153484500Y-71719500D01*
G75*
G02*
X153284500Y-71919500I-200000J0D01*
G01*
X150734500Y-71919500D01*
G75*
G02*
X150534500Y-71719500I0J200000D01*
G01*
X150534500Y-69219500D01*
G75*
G02*
X150734500Y-69019500I200000J0D01*
G01*
X153284500Y-69019500D01*
G75*
G02*
X153484500Y-69219500I0J-200000D01*
G01*
G37*
D15*
X141087500Y-75549500D03*
X151247500Y-75549500D03*
D16*
X146167500Y-75549500D03*
G36*
G01*
X140557500Y-71759500D02*
X140557500Y-74259500D01*
G75*
G02*
X140357500Y-74459500I-200000J0D01*
G01*
X137807500Y-74459500D01*
G75*
G02*
X137607500Y-74259500I0J200000D01*
G01*
X137607500Y-71759500D01*
G75*
G02*
X137807500Y-71559500I200000J0D01*
G01*
X140357500Y-71559500D01*
G75*
G02*
X140557500Y-71759500I0J-200000D01*
G01*
G37*
%TD*%
D14*
%TO.C,SW42*%
X112799304Y-129344513D03*
X108702351Y-123868284D03*
G36*
G01*
X115243090Y-133635217D02*
X112828275Y-134282264D01*
G75*
G02*
X112583326Y-134140843I-51764J193185D01*
G01*
X111923337Y-131677732D01*
G75*
G02*
X112064758Y-131432783I193185J51764D01*
G01*
X114479573Y-130785736D01*
G75*
G02*
X114724522Y-130927157I51764J-193185D01*
G01*
X115384511Y-133390268D01*
G75*
G02*
X115243090Y-133635217I-193185J-51764D01*
G01*
G37*
D15*
X105920199Y-123298959D03*
X108549801Y-133112765D03*
D16*
X107235000Y-128205862D03*
G36*
G01*
X109443885Y-121806094D02*
X107029070Y-122453141D01*
G75*
G02*
X106784121Y-122311720I-51764J193185D01*
G01*
X106124132Y-119848609D01*
G75*
G02*
X106265553Y-119603660I193185J51764D01*
G01*
X108680368Y-118956613D01*
G75*
G02*
X108925317Y-119098034I51764J-193185D01*
G01*
X109585306Y-121561145D01*
G75*
G02*
X109443885Y-121806094I-193185J-51764D01*
G01*
G37*
%TD*%
M02*
