M48
; DRILL file {KiCad (5.1.10)-1} date 10/28/21 21:04:53
; FORMAT={-:-/ absolute / inch / decimal}
; #@! TF.CreationDate,2021-10-28T21:04:53+02:00
; #@! TF.GenerationSoftware,Kicad,Pcbnew,(5.1.10)-1
FMAT,2
INCH
T1C0.0157
T2C0.0327
T3C0.0354
T4C0.0394
T5C0.0512
T6C0.0472
T7C0.0748
T8C0.1181
T9C0.1614
T10C0.1693
%
G90
G05
T1
X3.5346Y-5.6644
X3.6146Y-5.2269
X3.7021Y-5.1419
X3.7815Y-3.3213
X3.7857Y-3.3855
X3.8005Y-3.4352
X3.8335Y-3.3768
X3.8421Y-2.6119
X3.8446Y-2.5244
X3.9547Y-3.5524
X3.9598Y-3.4453
X3.9846Y-4.9289
X3.985Y-3.4069
X3.9858Y-3.565
X4.0021Y-5.3094
X4.0118Y-3.3128
X4.0372Y-3.5969
X4.0402Y-3.6854
X4.0455Y-3.4323
X4.0672Y-3.4843
X4.0746Y-5.3094
X4.0771Y-3.4324
X4.1004Y-3.3492
X4.1396Y-3.4844
X4.2067Y-3.6571
X4.2074Y-3.5158
X4.2394Y-2.8696
X4.2732Y-3.0218
X4.2764Y-2.9902
X4.2771Y-2.8019
X4.3121Y-3.6194
X4.3546Y-4.7394
X4.3593Y-3.6665
X4.4763Y-3.8525
X4.4796Y-3.6819
X4.5021Y-3.8344
X4.5146Y-3.6832
X4.5333Y-3.8444
X4.551Y-3.9915
X4.5571Y-4.9019
X4.5688Y-4.0221
X4.5721Y-4.1994
X4.5865Y-4.0519
X4.595Y-5.357
X4.5978Y-2.8722
X4.6025Y-4.1698
X4.6042Y-3.6344
X4.6221Y-4.2469
X4.644Y-4.2118
X4.6696Y-2.4694
X4.6702Y-2.7175
X4.6857Y-2.8722
X4.6971Y-4.7069
X4.6996Y-3.6369
X4.7249Y-2.9311
X4.7249Y-3.1283
X4.7249Y-3.6893
X4.7257Y-2.3735
X4.7257Y-3.8695
X4.7346Y-4.2364
X4.7573Y-2.671
X4.7721Y-4.7419
X4.7977Y-3.4409
X4.8021Y-3.3515
X4.8071Y-4.0969
X4.8196Y-5.2874
X4.8671Y-5.0944
X4.8921Y-5.2594
X5.0911Y-2.4519
X5.0927Y-4.2698
X5.104Y-4.1862
X5.1371Y-4.5444
X5.1421Y-3.9369
X5.1946Y-4.1869
X5.2373Y-3.4156
X5.2671Y-3.9769
X5.2921Y-3.2919
X5.3471Y-4.6294
X5.4175Y-4.4667
X5.4246Y-4.6344
X5.4725Y-2.7931
X5.4749Y-3.5297
X5.4749Y-3.7139
X5.4749Y-4.2867
X5.4761Y-2.2137
X5.4761Y-2.9749
X5.4778Y-4.2059
X5.5234Y-3.3217
X5.5271Y-3.9194
X5.6421Y-4.7569
X5.6486Y-3.2406
X5.702Y-4.325
X5.7404Y-4.2777
X5.9443Y-3.16
X5.9571Y-4.6544
X5.9573Y-3.234
X5.995Y-3.1475
X5.9996Y-3.8144
X6.1246Y-4.2049
X6.1297Y-3.3659
X6.2053Y-3.3832
X6.2235Y-2.6917
X6.2235Y-3.6123
X6.2249Y-2.1135
X6.2249Y-2.8725
X6.2249Y-3.4287
X6.2263Y-4.1865
X6.3921Y-4.6494
X6.3921Y-4.7196
X6.3935Y-3.3824
X6.4041Y-3.1556
X6.4101Y-3.2206
X6.4435Y-3.3419
X6.4786Y-3.2206
X6.6798Y-3.1929
X6.7496Y-4.6194
X6.9721Y-2.9675
X6.9751Y-2.7909
X6.9751Y-4.2879
X6.9765Y-2.2155
X6.9765Y-3.7131
X6.9771Y-4.1644
X6.9779Y-3.5311
X7.0465Y-3.4303
X7.0496Y-4.6969
X7.0496Y-4.7742
X7.0805Y-3.285
X7.1521Y-3.2569
X7.2796Y-3.3449
X7.4294Y-3.2048
X7.4371Y-4.7444
X7.4396Y-4.8019
X7.6809Y-3.8588
X7.7146Y-3.2594
X7.7226Y-3.8214
X7.7346Y-3.1619
X7.7421Y-2.7319
X7.7621Y-3.3719
X7.7632Y-2.9679
X7.7659Y-3.8194
X7.7852Y-3.621
X7.8415Y-2.2608
X7.8624Y-3.312
X7.863Y-2.7003
X7.901Y-3.9643
X7.9285Y-3.173
X7.9305Y-3.897
X7.9376Y-2.5308
X7.9644Y-3.9639
X7.9943Y-2.5761
X8.1593Y-4.1553
T2
X3.5705Y-2.7449
X3.5705Y-2.8449
X3.5705Y-2.9449
X3.5705Y-3.0449
X4.0671Y-3.5494
X4.1671Y-3.5494
X4.2671Y-3.5494
X4.3671Y-3.5494
T3
X3.9176Y-2.2896
X3.9176Y-2.3896
X3.9176Y-2.4896
X3.9176Y-2.5896
X3.9176Y-2.6896
X3.9176Y-2.7896
X3.9176Y-2.8896
X3.9176Y-2.9896
X3.9176Y-3.0896
X3.9176Y-3.1896
X3.9176Y-3.2896
X3.9176Y-3.3896
X4.5168Y-2.2896
X4.5168Y-2.3896
X4.5168Y-2.4896
X4.5168Y-2.5896
X4.5168Y-2.6896
X4.5168Y-2.7896
X4.5168Y-2.8896
X4.5168Y-2.9896
X4.5168Y-3.0896
X4.5168Y-3.1896
X4.5168Y-3.2896
X4.5168Y-3.3896
T5
X3.5449Y-3.2213
X3.8008Y-3.2213
T6
X3.5476Y-3.5811
X3.6838Y-2.22
X3.6838Y-2.4956
X3.8232Y-3.5811
T7
X3.3909Y-5.0993
X3.5277Y-5.4752
X4.1701Y-4.8543
X4.2736Y-5.2407
X4.8046Y-2.3794
X4.8046Y-3.1294
X4.8046Y-3.8794
X4.9666Y-4.6768
X5.0361Y-5.0707
X5.2046Y-2.3794
X5.2046Y-3.1294
X5.2046Y-3.8794
X5.5545Y-3.7234
X5.5546Y-2.2244
X5.5546Y-2.9744
X5.5546Y-4.4744
X5.9545Y-3.7234
X5.9546Y-2.2244
X5.9546Y-2.9744
X5.9546Y-4.4744
X6.3046Y-2.1269
X6.3046Y-2.8769
X6.3046Y-3.6269
X6.3046Y-4.3769
X6.7046Y-2.1269
X6.7046Y-2.8769
X6.7046Y-3.6269
X6.7046Y-4.3769
X7.0546Y-2.2244
X7.0546Y-2.9744
X7.0546Y-3.7244
X7.0546Y-4.4744
X7.4546Y-2.2244
X7.4546Y-2.9744
X7.4546Y-3.7244
X7.4546Y-4.4744
X7.847Y-3.8415
X7.9261Y-3.0954
X8.0044Y-2.347
X8.2448Y-3.8833
X8.3239Y-3.1372
X8.4023Y-2.3888
T8
X3.502Y-5.1121
X3.6815Y-5.3128
X4.2796Y-4.8767
X4.4409Y-5.0923
X4.8546Y-2.2794
X4.8546Y-3.0294
X4.8546Y-3.7794
X5.0738Y-4.7087
X5.1046Y-2.1794
X5.1046Y-2.9294
X5.1046Y-3.6794
X5.2157Y-4.9375
X5.6045Y-3.6234
X5.6046Y-2.1244
X5.6046Y-2.8744
X5.6046Y-4.3744
X5.8545Y-3.5234
X5.8546Y-2.0244
X5.8546Y-2.7744
X5.8546Y-4.2744
X6.3546Y-2.0269
X6.3546Y-2.7769
X6.3546Y-3.5269
X6.3546Y-4.2769
X6.6046Y-1.9269
X6.6046Y-2.6769
X6.6046Y-3.4269
X6.6046Y-4.1769
X7.1046Y-2.1244
X7.1046Y-2.8744
X7.1046Y-3.6244
X7.1046Y-4.3744
X7.3546Y-2.0244
X7.3546Y-2.7744
X7.3546Y-3.5244
X7.3546Y-4.2744
X7.9071Y-3.7472
X7.9863Y-3.0012
X8.0646Y-2.2527
X8.1662Y-3.6739
X8.2454Y-2.9278
X8.3237Y-2.1794
T9
X3.4593Y-5.2872
X4.2219Y-5.0475
X5.0014Y-4.8738
X5.0046Y-2.3794
X5.0046Y-3.1294
X5.0046Y-3.8794
X5.7545Y-3.7234
X5.7546Y-2.2244
X5.7546Y-2.9744
X5.7546Y-4.4744
X6.5046Y-2.1269
X6.5046Y-2.8769
X6.5046Y-3.6269
X6.5046Y-4.3769
X7.2546Y-2.2244
X7.2546Y-2.9744
X7.2546Y-3.7244
X7.2546Y-4.4744
X8.0459Y-3.8624
X8.125Y-3.1163
X8.2033Y-2.3679
T10
X3.8325Y-5.1486
X5.3761Y-2.6042
X5.3761Y-4.1046
X6.1289Y-3.2562
X6.8789Y-3.2542
X7.6259Y-4.1025
X7.7104Y-2.5984
T4
G00X3.6011Y-2.6157
M15
G01X3.6011Y-2.6354
M16
G05
G00X3.6087Y-3.4984
M15
G01X3.6283Y-3.4984
M16
G05
G00X3.7268Y-3.4984
M15
G01X3.7465Y-3.4984
M16
G05
G00X3.7665Y-2.2811
M15
G01X3.7665Y-2.3008
M16
G05
G00X3.7665Y-2.3992
M15
G01X3.7665Y-2.4189
M16
G05
G00X3.7665Y-2.5567
M15
G01X3.7665Y-2.5763
M16
G05
G00X3.8843Y-3.4984
M15
G01X3.9039Y-3.4984
M16
G05
G00X3.9433Y-3.6638
M15
G01X3.963Y-3.6638
M16
G05
T0
M30
