<svg xmlns="http://www.w3.org/2000/svg" xmlns:cc="http://web.resource.org/cc/" xmlns:ns1="http://sozi.baierouge.fr" xmlns:xlink="http://www.w3.org/1999/xlink" id="Layer_1" x="0" y="0" enable-background="new 0 0 360 360" version="1.1" viewBox="0 0 360 360" xml:space="preserve"><g><g><path fill="#E0C3D3" d="m193.8 167.46l113.52-113.89c-23.457-23.36-50.2-38.727-82.193-47.23l-41.313 155.45c3.15 0.84 7.66 3.37 9.98 5.67z"/><path fill="#E0A0C3" d="m209.95 151.26l97.367-97.688c-23.457-23.36-50.2-38.727-82.193-47.23l-35.43 133.29c7.71 1.86 14.76 5.91 20.25 11.63z"/><path fill="#E080B5" d="m225.94 135.21l81.375-81.643c-23.457-23.36-50.2-38.727-82.193-47.23l-29.61 111.4c11.55 2.89 22.11 8.95 30.42 17.47z"/><path fill="#E061A7" d="m241.95 119.15l65.369-65.585c-23.457-23.36-50.2-38.727-82.193-47.23l-23.784 89.491c15.38 3.919 29.46 12.004 40.6 23.324z"/><path fill="#E04198" d="m257.95 103.1l49.371-49.533c-23.457-23.36-50.2-38.727-82.193-47.23l-17.962 67.589c19.22 4.944 36.82 15.052 50.78 29.174z"/><path fill="#E0228B" d="m273.95 87.05l33.373-33.482c-23.457-23.36-50.2-38.727-82.193-47.23l-12.142 45.687c23.07 5.968 44.18 18.099 60.96 35.025z"/><path fill="#E10071" d="m289.94 70.999l17.375-17.431c-23.457-23.36-50.2-38.728-82.193-47.231l-6.321 23.784c26.91 6.994 51.54 21.148 71.13 40.878z"/></g><g><path fill="#FFD9D9" d="m174.73 162.13c2.934-0.792 6.094-0.876 8.876-0.292l41-155.36c-31.994-8.502-61.625-8.332-93.483 0.274l42.101 155.85c-0.01-0.02 1.13-0.37 1.5-0.47z"/><path fill="#FFB6B6" d="m168.93 139.99c6.926-1.871 14.036-1.906 20.556-0.349l35.12-133.16c-31.994-8.502-61.625-8.332-93.483 0.274l36.127 133.73c0.95-0.27 1.19-0.36 1.67-0.49z"/><path fill="#FF8F8F" d="m163.03 118.12c10.904-2.946 22.03-2.917 32.267-0.373l29.31-111.27c-31.994-8.502-61.625-8.332-93.483 0.274l30.218 111.86c0.96-0.27 1.19-0.36 1.68-0.49z"/><path fill="#FF6E6E" d="m157.12 96.243c14.884-4.021 30.029-3.944 43.982-0.413l23.51-89.354c-31.994-8.502-61.625-8.332-93.483 0.274l24.304 89.968c0.96-0.268 1.2-0.344 1.69-0.475z"/><path fill="#FF4848" d="m151.21 74.369c18.863-5.096 38.024-4.964 55.695-0.446l17.71-67.447c-31.994-8.502-61.625-8.332-93.483 0.274l18.395 68.094c0.96-0.267 1.2-0.344 1.69-0.475z"/><path fill="#FF2424" d="m145.06 52.56c22.919-6.191 46.298-6.016 67.745-0.456l11.81-45.628c-31.994-8.502-61.625-8.332-93.483 0.274l12.484 46.214c0.97-0.263 1.13-0.317 1.45-0.404z"/><path fill="red" d="m139.15 30.685c26.906-7.269 54.312-7.036 79.48-0.483l5.978-23.726c-31.994-8.502-61.625-8.332-93.483 0.274l6.575 24.34c0.97-0.262 1.13-0.318 1.45-0.405z"/></g><g><path fill="#FFEBD9" d="m173.23 162.6l-42.1-155.85c-31.858 8.606-56.824 23.185-80.185 46.64l114.57 114.36c2.08-2.33 4.86-4.17 7.71-5.15z"/><path fill="#FFD7B3" d="m167.25 140.48l-36.12-133.73c-31.858 8.606-56.824 23.185-80.185 46.64l98.442 98.288c4.77-5.09 11.17-9.11 17.86-11.2z"/><path fill="#FFC48F" d="m161.34 118.61l-30.21-111.86c-31.858 8.606-56.824 23.185-80.185 46.64l82.386 82.283c7.49-7.82 17.47-13.93 28.01-17.06z"/><path fill="#FFB26C" d="m155.43 96.719l-24.3-89.969c-31.858 8.606-56.824 23.185-80.185 46.64l66.336 66.282c10.2-10.55 23.74-18.78 38.15-22.951z"/><path fill="#FF9F48" d="m149.52 74.845l-18.39-68.095c-31.858 8.606-56.824 23.185-80.185 46.64l50.287 50.283c12.91-13.273 30.02-23.612 48.29-28.825z"/><path fill="#FF8C24" d="m143.61 52.964l-12.48-46.214c-31.858 8.606-56.824 23.185-80.185 46.64l34.05 34.204c15.705-16.028 35.495-28.198 58.615-34.63z"/><path fill="#FF8000" d="m137.7 31.091l-6.575-24.34c-31.858 8.606-56.824 23.185-80.185 46.64l17.99 18.216c18.435-18.762 41.795-33.041 68.775-40.516z"/></g><g><path fill="#FFFED9" d="m166.24 167.56l-114.82-114.3c-23.36 23.457-36.884 48.514-45.386 80.507l155.98 41.453c0.85-3.15 1.92-5.35 4.23-7.66z"/><path fill="#FFFDB3" d="m149.96 151.35l-98.535-98.09c-23.36 23.457-36.884 48.514-45.386 80.507l133.85 35.573c1.8-6.74 5.26-12.94 10.07-17.99z"/><path fill="#FFFC8F" d="m133.9 135.37l-82.475-82.11c-23.36 23.457-36.884 48.514-45.386 80.507l111.95 29.753c2.82-10.58 8.31-20.29 15.91-28.15z"/><path fill="#FFFB6C" d="m117.84 119.37l-66.415-66.11c-23.36 23.457-36.884 48.514-45.386 80.507l90.037 23.929c3.845-14.42 11.364-27.64 21.764-38.33z"/><path fill="#FFFA48" d="m101.78 103.39l-50.355-50.13c-23.36 23.457-36.884 48.514-45.386 80.507l68.136 18.108c4.869-18.26 14.403-34.99 27.605-48.49z"/><path fill="#FFF924" d="m85.716 87.398l-34.291-34.138c-23.36 23.457-36.884 48.514-45.386 80.507l46.235 12.288c5.893-22.09 17.445-42.34 33.442-58.662z"/><path fill="#FF0" d="m69.657 71.411l-18.232-18.151c-23.36 23.457-36.884 48.514-45.386 80.507l24.334 6.468c6.917-25.93 20.488-49.694 39.284-68.829z"/></g><g><path fill="#EBFFD9" d="m162.13 185.27c-0.792-2.934-0.647-7.06-0.061-9.842l-155.89-41.15c-8.503 31.994-8.034 62.733 0.572 94.591l155.85-42.1c-0.02 0.01-0.37-1.13-0.47-1.5z"/><path fill="#D8FFB6" d="m139.99 191.07c-1.963-7.268-1.891-14.725-0.095-21.517l-133.72-35.27c-8.503 31.994-8.034 62.733 0.572 94.591l133.73-36.127c-0.27-0.96-0.36-1.19-0.49-1.67z"/><path fill="#C5FF92" d="m118.12 196.98c-3.039-11.249-2.905-22.722-0.121-33.231l-111.82-29.47c-8.503 31.994-8.034 62.733 0.572 94.591l111.86-30.218c-0.27-0.96-0.36-1.19-0.49-1.67z"/><path fill="#B1FF6C" d="m96.244 202.89c-4.114-15.228-3.942-30.725-0.169-44.949l-89.897-23.66c-8.503 31.994-8.034 62.733 0.572 94.591l89.968-24.304c-0.268-0.97-0.343-1.2-0.474-1.68z"/><path fill="#9DFF48" d="m74.371 208.8c-5.189-19.208-4.962-38.724-0.201-56.666l-67.992-17.85c-8.503 31.994-8.034 62.733 0.572 94.591l68.094-18.395c-0.267-0.96-0.343-1.2-0.473-1.68z"/><path fill="#8AFF24" d="m52.563 214.95c-6.285-23.265-6.011-46.996-0.205-68.714l-46.18-11.96c-8.503 31.994-8.034 62.733 0.572 94.591l46.214-12.484c-0.263-0.97-0.315-1.12-0.401-1.44z"/><path fill="#71FF00" d="m30.688 220.86c-7.362-27.251-7.029-55.011-0.229-80.452l-24.28-6.125c-8.503 31.994-8.034 62.733 0.572 94.591l24.34-6.575c-0.264-0.97-0.317-1.12-0.403-1.44z"/></g><g><path fill="#DCFFDC" d="m162.6 186.77l-155.85 42.1c8.606 31.857 23.185 56.824 46.641 80.185l114.36-114.57c-2.33-2.09-4.17-4.87-5.15-7.72z"/><path fill="#B6FFB6" d="m140.48 192.75l-133.73 36.12c8.606 31.857 23.185 56.824 46.641 80.185l98.286-98.442c-5.1-4.78-9.11-11.18-11.2-17.87z"/><path fill="#92FF92" d="m118.61 198.66l-111.86 30.21c8.606 31.857 23.185 56.824 46.641 80.185l82.281-82.387c-7.82-7.49-13.93-17.47-17.06-28.01z"/><path fill="#6EFF6E" d="m96.719 204.57l-89.969 24.3c8.606 31.857 23.185 56.824 46.641 80.185l66.28-66.336c-10.55-10.2-18.78-23.74-22.951-38.15z"/><path fill="#4AFF4A" d="m74.845 210.48l-68.095 18.39c8.606 31.857 23.185 56.824 46.641 80.185l50.281-50.287c-13.274-12.92-23.614-30.02-28.825-48.29z"/><path fill="#27FF27" d="m52.964 216.39l-46.214 12.48c8.606 31.857 23.185 56.824 46.641 80.185l34.202-34.049c-16.028-15.71-28.198-35.5-34.629-58.62z"/><path fill="#0F0" d="m31.091 222.3l-24.34 6.575c8.606 31.857 23.185 56.824 46.641 80.185l18.214-17.989c-18.763-18.43-33.043-41.79-40.515-68.77z"/></g><g><path fill="#DCFFED" d="m167.59 193.87l-114.31 114.78c23.455 23.359 47.388 37.112 79.381 45.616l41.606-156.55c-3.16-0.85-4.37-1.55-6.68-3.85z"/><path fill="#B6FFD9" d="m151.42 210.11l-98.14 98.54c23.455 23.359 47.388 37.112 79.381 45.616l35.721-134.41c-6.34-1.86-12.17-5.21-16.96-9.75z"/><path fill="#92FFC6" d="m135.43 226.16l-82.15 82.49c23.455 23.359 47.388 37.112 79.381 45.616l29.9-112.51c-10.18-2.89-19.52-8.26-27.13-15.6z"/><path fill="#6EFFB3" d="m119.43 242.22l-66.15 66.43c23.456 23.359 47.388 37.112 79.381 45.616l24.079-90.603c-14.02-3.92-26.87-11.31-37.31-21.45z"/><path fill="#4AFFA0" d="m103.44 258.28l-50.16 50.37c23.455 23.359 47.388 37.112 79.381 45.616l18.258-68.701c-17.86-4.95-34.22-14.35-47.48-27.29z"/><path fill="#27FF8D" d="m87.451 274.34l-34.17 34.31c23.455 23.359 47.388 37.112 79.381 45.616l12.438-46.801c-21.69-5.97-41.58-17.4-57.649-33.13z"/><path fill="#00FF80" d="m71.459 290.39l-18.179 18.26c23.455 23.359 47.388 37.112 79.381 45.616l6.618-24.9c-25.53-6.99-48.93-20.44-67.821-38.98z"/></g><g><path fill="#DCFFFE" d="m173.85 197.82l-41.812 156.61c31.993 8.501 61.11 8.47 92.969-0.136l-42.101-155.85c-2.95 0.59-6.08 0.35-9.06-0.62z"/><path fill="#B6FFFD" d="m167.98 219.87l-35.941 134.56c31.993 8.501 61.11 8.47 92.969-0.136l-36.127-133.73c-6.82 1.57-14.22 1.29-20.9-0.69z"/><path fill="#92FFFC" d="m162.15 241.77l-30.107 112.65c31.993 8.501 61.11 8.47 92.969-0.136l-30.219-111.86c-10.69 2.62-22.24 2.33-32.64-0.65z"/><path fill="#6EFFFB" d="m156.32 263.68l-24.276 90.754c31.993 8.501 61.11 8.47 92.969-0.136l-24.305-89.969c-14.54 3.66-30.26 3.33-44.38-0.64z"/><path fill="#4AFFFA" d="m150.49 285.57l-18.446 68.856c31.993 8.501 61.11 8.47 92.969-0.136l-18.396-68.095c-18.41 4.7-38.28 4.34-56.12-0.63z"/><path fill="#27FFF9" d="m144.7 307.61l-12.655 46.815c31.993 8.501 61.11 8.47 92.969-0.136l-12.484-46.215c-23.22 6.1-46.19 5.49-67.83-0.45z"/><path fill="#0FF" d="m138.88 329.52l-6.839 24.913c31.994 8.501 61.11 8.47 92.969-0.136l-6.575-24.341c-27.08 7.13-54.2 6.49-79.56-0.43z"/></g><g><path fill="#DCEFFF" d="m192.47 193.82c-2.109 1.906-5.088 3.48-8.022 4.273-0.373 0.101-1.527 0.377-1.533 0.354l42.101 155.85c31.857-8.606 57.647-23.407 81.009-46.862l-113.56-113.61z"/><path fill="#B6DEFF" d="m208.69 210.01c-4.857 4.652-11.156 8.255-18.107 10.133-0.485 0.131-0.729 0.176-1.699 0.42l36.127 133.73c31.857-8.606 57.647-23.407 81.009-46.862l-97.33-97.42z"/><path fill="#92CEFF" d="m224.73 226.01c-7.572 7.374-17.307 13.052-28.233 16.004-0.486 0.131-0.732 0.17-1.701 0.42l30.219 111.86c31.857-8.606 57.647-23.407 81.009-46.862l-81.3-81.42z"/><path fill="#6EBEFF" d="m240.78 242.02c-10.285 10.097-23.467 17.838-38.372 21.864-0.484 0.131-0.729 0.186-1.696 0.438l24.305 89.969c31.857-8.606 57.647-23.407 81.009-46.862l-65.25-65.41z"/><path fill="#4AADFF" d="m208.31 285.76c-0.485 0.132-0.731 0.185-1.698 0.439l18.396 68.095c31.857-8.606 57.647-23.407 81.009-46.862l-49.444-49.336c-13 12.81-29.38 22.56-48.27 27.66z"/><path fill="#279EFF" d="m213.98 307.7c-0.324 0.088-0.49 0.122-1.456 0.38l12.484 46.215c31.857-8.606 57.647-23.407 81.009-46.862l-33.533-33.371c-15.72 15.59-35.58 27.44-58.5 33.63z"/><path fill="#0080FF" d="m219.89 329.57c-0.325 0.088-0.491 0.121-1.457 0.38l6.575 24.341c31.857-8.606 57.647-23.407 81.009-46.862l-17.47-17.385c-18.43 18.34-41.75 32.27-68.65 39.53z"/></g><g><path fill="#DCDCFF" d="m197.71 185.73c-0.843 3.153-2.941 5.768-5.242 8.083l113.97 113.5c23.359-23.456 39.325-47.987 47.829-79.98l-156.56-41.6z"/><path fill="#B6B6FF" d="m219.85 191.62c-2.041 6.976-5.889 13.329-11.148 18.372l97.727 97.328c23.359-23.456 39.325-47.987 47.829-79.98l-134.41-35.72z"/><path fill="#9292FF" d="m241.75 197.44c-3.064 10.814-8.936 20.677-16.995 28.538l81.675 81.342c23.359-23.456 39.325-47.987 47.829-79.98l-112.52-29.9z"/><path fill="#6E6EFF" d="m263.66 203.26c-4.089 14.652-11.976 28.037-22.837 38.716l65.61 65.343c23.359-23.456 39.325-47.987 47.829-79.98l-90.6-24.08z"/><path fill="#4A4AFF" d="m285.56 209.08c-5.112 18.491-15.019 35.392-28.682 48.887l49.554 49.352c23.359-23.456 39.325-47.987 47.829-79.98l-68.7-18.26z"/><path fill="#2727FF" d="m307.46 214.9c-6.137 22.329-18.063 42.745-34.525 59.06l33.496 33.358c23.359-23.456 39.325-47.987 47.829-79.98l-46.81-12.44z"/><path fill="#00F" d="m329.36 220.72c-7.161 26.167-21.104 50.1-40.368 69.23l17.438 17.366c23.359-23.456 39.325-47.987 47.829-79.98l-24.9-6.62z"/></g><g><path fill="#ECDCFF" d="m198.44 177.09c0.588 2.949 0.342 6.08-0.624 9.056l156.61 41.813c8.501-31.994 8.47-61.111-0.136-92.969l-155.85 42.1z"/><path fill="#D8B6FF" d="m220.56 171.12c1.57 6.827 1.293 14.228-0.688 20.901l134.56 35.941c8.501-31.994 8.47-61.111-0.136-92.969l-133.73 36.13z"/><path fill="#C492FF" d="m242.43 165.21c2.612 10.689 2.32 22.245-0.657 32.643l112.65 30.108c8.501-31.994 8.47-61.111-0.136-92.969l-111.85 30.22z"/><path fill="#B16EFF" d="m264.32 159.29c3.655 14.55 3.324 30.265-0.649 44.388l90.754 24.277c8.501-31.994 8.47-61.111-0.136-92.969l-89.96 24.3z"/><path fill="#9E4AFF" d="m286.2 153.38c4.699 18.412 4.345 38.281-0.625 56.128l68.855 18.446c8.501-31.994 8.47-61.111-0.136-92.969l-68.1 18.39z"/><path fill="#8B27FF" d="m308.08 147.47c6.088 23.216 5.471 46.185-0.464 67.83l46.814 12.655c8.501-31.994 8.47-61.111-0.136-92.969l-46.21 12.48z"/><path fill="#8000FF" d="m329.95 141.56c7.131 27.078 6.49 54.192-0.435 79.554l24.911 6.84c8.501-31.994 8.47-61.111-0.136-92.969l-24.34 6.58z"/></g><g><path fill="#FEDCFF" d="m198.09 175.56c0.101 0.374 0.377 1.528 0.354 1.534l155.85-42.101c-8.606-31.858-23.408-57.649-46.862-81.009l-113.63 113.48c1.9 2.11 3.5 5.16 4.29 8.1z"/><path fill="#FDB6FF" d="m220.14 169.42c0.131 0.486 0.176 0.729 0.42 1.699l133.73-36.126c-8.606-31.858-23.407-57.648-46.862-81.009l-97.479 97.275c4.61 4.84 8.32 11.25 10.19 18.16z"/><path fill="#FC92FF" d="m242.01 163.51c0.131 0.484 0.169 0.729 0.419 1.697l111.86-30.218c-8.606-31.858-23.408-57.649-46.862-81.009l-81.486 81.231c7.34 7.56 13.13 17.41 16.07 28.3z"/><path fill="#FB6EFF" d="m263.89 157.6c0.13 0.484 0.185 0.725 0.438 1.692l89.969-24.304c-8.606-31.858-23.408-57.649-46.862-81.009l-65.48 65.173c10.06 10.28 17.91 23.57 21.93 38.45z"/><path fill="#FA4AFF" d="m285.76 151.69c0.131 0.483 0.183 0.724 0.438 1.69l68.095-18.395c-8.606-31.858-23.408-57.649-46.862-81.009l-49.482 49.121c12.79 13 22.71 29.74 27.8 48.6z"/><path fill="#F927FF" d="m307.7 146.03c0.087 0.321 0.12 0.48 0.378 1.447l46.215-12.484c-8.606-31.858-23.408-57.649-46.862-81.009l-33.484 33.07c15.59 15.719 27.55 36.039 33.74 58.969z"/><path fill="#F0F" d="m329.58 140.12c0.086 0.321 0.118 0.48 0.377 1.446l24.341-6.575c-8.606-31.858-23.52-58.061-46.974-81.421l-17.375 17.432c18.32 18.435 32.35 42.199 39.62 69.109z"/></g></g><metadata/></svg>