M48
; DRILL file {KiCad (5.1.10)-1} date 10/28/21 15:20:16
; FORMAT={-:-/ absolute / inch / decimal}
; #@! TF.CreationDate,2021-10-28T15:20:16+02:00
; #@! TF.GenerationSoftware,Kicad,Pcbnew,(5.1.10)-1
; #@! TF.FileFunction,NonPlated,1,2,NPTH
FMAT,2
INCH
T1C0.0472
T2C0.0748
T3C0.1181
T4C0.1614
T5C0.1693
%
G90
G05
T1
X7.623Y-3.4813
X7.7555Y-2.1196
X7.7555Y-2.3952
X7.8986Y-3.4813
T2
X3.0491Y-2.2914
X3.1266Y-3.0364
X3.2041Y-3.7839
X3.4469Y-2.2496
X3.5244Y-2.9946
X3.6019Y-3.7421
X3.993Y-2.1255
X3.993Y-2.8755
X3.993Y-3.6255
X3.993Y-4.3755
X4.393Y-2.1255
X4.393Y-2.8755
X4.393Y-3.6255
X4.393Y-4.3755
X4.743Y-2.028
X4.743Y-2.778
X4.743Y-3.528
X4.743Y-4.278
X5.143Y-2.028
X5.143Y-2.778
X5.143Y-3.528
X5.143Y-4.278
X5.493Y-2.1255
X5.493Y-2.8755
X5.493Y-3.6255
X5.493Y-4.3755
X5.893Y-2.1255
X5.893Y-2.8755
X5.893Y-3.6255
X5.893Y-4.3755
X6.243Y-2.2805
X6.243Y-3.0305
X6.243Y-3.7805
X6.4133Y-4.9725
X6.4827Y-4.5786
X6.643Y-2.2805
X6.643Y-3.0305
X6.643Y-3.7805
X7.1762Y-5.1412
X7.2798Y-4.7548
X7.9196Y-5.376
X8.0564Y-5.0001
T3
X3.0884Y-2.1867
X3.1659Y-2.9317
X3.2434Y-3.6792
X3.3265Y-2.0612
X3.404Y-2.8062
X3.4815Y-3.5537
X4.043Y-2.0255
X4.043Y-2.7755
X4.043Y-3.5255
X4.043Y-4.2755
X4.293Y-1.9255
X4.293Y-2.6755
X4.293Y-3.4255
X4.293Y-4.1755
X4.793Y-1.928
X4.793Y-2.678
X4.793Y-3.428
X4.793Y-4.178
X5.043Y-1.828
X5.043Y-2.578
X5.043Y-3.328
X5.043Y-4.078
X5.543Y-2.0255
X5.543Y-2.7755
X5.543Y-3.5255
X5.543Y-4.2755
X5.793Y-1.9255
X5.793Y-2.6755
X5.793Y-3.4255
X5.793Y-4.1755
X6.2684Y-4.6423
X6.293Y-2.1805
X6.293Y-2.9305
X6.293Y-3.6805
X6.3235Y-4.9059
X6.543Y-2.0805
X6.543Y-2.8305
X6.543Y-3.5805
X7.0607Y-4.7997
X7.0926Y-5.067
X7.8343Y-5.0256
X7.8427Y-5.2948
T4
X3.248Y-2.2705
X3.3255Y-3.0155
X3.403Y-3.763
X4.193Y-2.1255
X4.193Y-2.8755
X4.193Y-3.6255
X4.193Y-4.3755
X4.943Y-2.028
X4.943Y-2.778
X4.943Y-3.528
X4.943Y-4.278
X5.693Y-2.1255
X5.693Y-2.8755
X5.693Y-3.6255
X5.693Y-4.3755
X6.443Y-2.2805
X6.443Y-3.0305
X6.443Y-3.7805
X6.448Y-4.7755
X7.228Y-4.948
X7.988Y-5.188
T5
X3.7355Y-2.498
X3.82Y-4.0021
X4.567Y-3.1538
X5.317Y-3.1558
X6.0698Y-2.5038
X6.0698Y-4.0042
X7.6152Y-5.0502
T0
M30
