M48
; DRILL file {KiCad (5.1.10)-1} date 10/28/21 21:07:43
; FORMAT={-:-/ absolute / inch / decimal}
; #@! TF.CreationDate,2021-10-28T21:07:43+02:00
; #@! TF.GenerationSoftware,Kicad,Pcbnew,(5.1.10)-1
FMAT,2
INCH
T1C0.0157
T2C0.0327
T3C0.0354
T4C0.0394
T5C0.0512
T6C0.0472
T7C0.0748
T8C0.1181
T9C0.1614
T10C0.1693
%
G90
G05
T1
X3.1855Y-3.2505
X3.2005Y-3.988
X3.2405Y-3.9105
X3.353Y-4.053
X3.5293Y-2.5717
X3.643Y-3.978
X3.6455Y-4.088
X3.6455Y-4.2455
X3.7705Y-4.248
X3.818Y-4.278
X3.8185Y-3.8184
X3.8215Y-3.7173
X3.8662Y-2.6318
X3.913Y-2.1255
X3.913Y-2.8805
X3.9155Y-2.6805
X3.9155Y-3.4305
X3.998Y-3.7564
X4.02Y-4.5887
X4.0462Y-3.955
X4.088Y-2.438
X4.1405Y-3.9555
X4.208Y-3.913
X4.2763Y-2.4439
X4.2887Y-3.9801
X4.3255Y-3.9155
X4.393Y-3.803
X4.3955Y-2.303
X4.433Y-4.5606
X4.568Y-4.178
X4.5955Y-3.9455
X4.663Y-2.028
X4.663Y-2.5755
X4.663Y-2.778
X4.663Y-4.0505
X4.663Y-4.278
X4.6655Y-3.3255
X4.6655Y-3.573
X4.688Y-2.448
X4.7455Y-2.2505
X4.748Y-2.3706
X4.7805Y-3.793
X4.7805Y-3.9976
X4.8055Y-3.918
X5.1405Y-3.7534
X5.2305Y-2.2105
X5.2837Y-4.0222
X5.3205Y-4.278
X5.3451Y-4.0222
X5.353Y-3.9205
X5.408Y-4.183
X5.408Y-4.3555
X5.413Y-2.8805
X5.413Y-3.428
X5.4155Y-2.1255
X5.4155Y-3.6755
X5.418Y-2.678
X5.448Y-2.453
X5.513Y-2.3455
X5.5141Y-3.9911
X5.5155Y-2.4241
X5.5155Y-3.848
X5.516Y-3.9241
X5.8755Y-3.8005
X5.8755Y-4.0153
X5.878Y-2.3055
X6.073Y-4.6151
X6.093Y-3.4684
X6.163Y-2.2805
X6.163Y-2.828
X6.163Y-3.7855
X6.1655Y-3.0305
X6.1655Y-3.578
X6.1719Y-4.673
X6.198Y-3.4455
X6.2005Y-5.028
X6.253Y-2.473
X6.273Y-3.988
X6.4055Y-4.1322
X6.448Y-3.4105
X6.5003Y-2.5966
X6.593Y-5.003
X6.6059Y-3.253
X6.6153Y-4.0473
X6.6255Y-2.463
X6.6405Y-3.9855
X6.6755Y-3.253
X6.713Y-4.598
X6.7155Y-4.5205
X6.758Y-4.6955
X6.7855Y-3.403
X6.818Y-3.1005
X6.818Y-3.843
X6.8422Y-3.9428
X6.853Y-2.413
X6.8555Y-2.313
X6.963Y-5.1755
X7.0105Y-2.518
X7.013Y-2.3705
X7.013Y-2.418
X7.0555Y-2.468
X7.1671Y-3.4969
X7.2455Y-3.2558
X7.293Y-5.1005
X7.3138Y-5.241
X7.423Y-2.3605
X7.463Y-2.7405
X7.463Y-3.0955
X7.473Y-2.313
X7.5561Y-3.4449
X7.5974Y-2.6634
X7.5974Y-2.9439
X7.6005Y-2.9921
X7.6831Y-3.0699
X7.6831Y-2.9429
X7.7205Y-3.2982
X7.7323Y-2.9675
X7.7362Y-3.1929
X7.7697Y-2.877
X7.7702Y-2.8069
X7.7736Y-3.1535
X7.81Y-2.7589
X7.8406Y-3.1929
X7.8605Y-5.463
X8.058Y-5.333
T2
X7.083Y-3.448
X7.183Y-3.448
X7.283Y-3.448
X7.383Y-3.448
X7.876Y-2.6445
X7.876Y-2.7445
X7.876Y-2.8445
X7.876Y-2.9445
T3
X6.9336Y-2.1901
X6.9336Y-2.2901
X6.9336Y-2.3901
X6.9336Y-2.4901
X6.9336Y-2.5901
X6.9336Y-2.6901
X6.9336Y-2.7901
X6.9336Y-2.8901
X6.9336Y-2.9901
X6.9336Y-3.0901
X6.9336Y-3.1901
X6.9336Y-3.2901
X7.5328Y-2.1901
X7.5328Y-2.2901
X7.5328Y-2.3901
X7.5328Y-2.4901
X7.5328Y-2.5901
X7.5328Y-2.6901
X7.5328Y-2.7901
X7.5328Y-2.8901
X7.5328Y-2.9901
X7.5328Y-3.0901
X7.5328Y-3.1901
X7.5328Y-3.2901
T5
X7.6457Y-3.1201
X7.9016Y-3.1201
T6
X7.623Y-3.4813
X7.7555Y-2.1196
X7.7555Y-2.3952
X7.8986Y-3.4813
T7
X3.0491Y-2.2914
X3.1266Y-3.0364
X3.2041Y-3.7839
X3.4469Y-2.2496
X3.5244Y-2.9946
X3.6019Y-3.7421
X3.993Y-2.1255
X3.993Y-2.8755
X3.993Y-3.6255
X3.993Y-4.3755
X4.393Y-2.1255
X4.393Y-2.8755
X4.393Y-3.6255
X4.393Y-4.3755
X4.743Y-2.028
X4.743Y-2.778
X4.743Y-3.528
X4.743Y-4.278
X5.143Y-2.028
X5.143Y-2.778
X5.143Y-3.528
X5.143Y-4.278
X5.493Y-2.1255
X5.493Y-2.8755
X5.493Y-3.6255
X5.493Y-4.3755
X5.893Y-2.1255
X5.893Y-2.8755
X5.893Y-3.6255
X5.893Y-4.3755
X6.243Y-2.2805
X6.243Y-3.0305
X6.243Y-3.7805
X6.4133Y-4.9725
X6.4827Y-4.5786
X6.643Y-2.2805
X6.643Y-3.0305
X6.643Y-3.7805
X7.1762Y-5.1412
X7.2798Y-4.7548
X7.9196Y-5.376
X8.0564Y-5.0001
T8
X3.0884Y-2.1867
X3.1659Y-2.9317
X3.2434Y-3.6792
X3.3265Y-2.0612
X3.404Y-2.8062
X3.4815Y-3.5537
X4.043Y-2.0255
X4.043Y-2.7755
X4.043Y-3.5255
X4.043Y-4.2755
X4.293Y-1.9255
X4.293Y-2.6755
X4.293Y-3.4255
X4.293Y-4.1755
X4.793Y-1.928
X4.793Y-2.678
X4.793Y-3.428
X4.793Y-4.178
X5.043Y-1.828
X5.043Y-2.578
X5.043Y-3.328
X5.043Y-4.078
X5.543Y-2.0255
X5.543Y-2.7755
X5.543Y-3.5255
X5.543Y-4.2755
X5.793Y-1.9255
X5.793Y-2.6755
X5.793Y-3.4255
X5.793Y-4.1755
X6.2684Y-4.6423
X6.293Y-2.1805
X6.293Y-2.9305
X6.293Y-3.6805
X6.3235Y-4.9059
X6.543Y-2.0805
X6.543Y-2.8305
X6.543Y-3.5805
X7.0607Y-4.7997
X7.0926Y-5.067
X7.8343Y-5.0256
X7.8427Y-5.2948
T9
X3.248Y-2.2705
X3.3255Y-3.0155
X3.403Y-3.763
X4.193Y-2.1255
X4.193Y-2.8755
X4.193Y-3.6255
X4.193Y-4.3755
X4.943Y-2.028
X4.943Y-2.778
X4.943Y-3.528
X4.943Y-4.278
X5.693Y-2.1255
X5.693Y-2.8755
X5.693Y-3.6255
X5.693Y-4.3755
X6.443Y-2.2805
X6.443Y-3.0305
X6.443Y-3.7805
X6.448Y-4.7755
X7.228Y-4.948
X7.988Y-5.188
T10
X3.7355Y-2.498
X3.82Y-4.0021
X4.567Y-3.1538
X5.317Y-3.1558
X6.0698Y-2.5038
X6.0698Y-4.0042
X7.6152Y-5.0502
T4
G00X7.503Y-3.3986
M15
G01X7.4833Y-3.3986
M16
G05
G00X7.562Y-3.564
M15
G01X7.5423Y-3.564
M16
G05
G00X7.6728Y-2.5152
M15
G01X7.6728Y-2.5349
M16
G05
G00X7.7195Y-3.564
M15
G01X7.6998Y-3.564
M16
G05
G00X7.8376Y-3.564
M15
G01X7.8179Y-3.564
M16
G05
G00X7.8382Y-2.1806
M15
G01X7.8382Y-2.2003
M16
G05
G00X7.8382Y-2.2987
M15
G01X7.8382Y-2.3184
M16
G05
G00X7.8382Y-2.4562
M15
G01X7.8382Y-2.4759
M16
G05
T0
M30
