%TF.GenerationSoftware,KiCad,Pcbnew,(5.1.10)-1*%
%TF.CreationDate,2021-10-28T21:07:41+02:00*%
%TF.ProjectId,yaohkib - lefft,79616f68-6b69-4622-902d-206c65666674,rev?*%
%TF.SameCoordinates,Original*%
%TF.FileFunction,Profile,NP*%
%FSLAX46Y46*%
G04 Gerber Fmt 4.6, Leading zero omitted, Abs format (unit mm)*
G04 Created by KiCad (PCBNEW (5.1.10)-1) date 2021-10-28 21:07:41*
%MOMM*%
%LPD*%
G01*
G04 APERTURE LIST*
%TA.AperFunction,Profile*%
%ADD10C,0.200000*%
%TD*%
%TA.AperFunction,Profile*%
%ADD11C,0.120000*%
%TD*%
G04 APERTURE END LIST*
D10*
X72021500Y-49225500D02*
X77927000Y-106058000D01*
X202387000Y-66053000D02*
X202323500Y-91389500D01*
X151904500Y-133680500D02*
X170700500Y-137046000D01*
X200545500Y-51765500D02*
X201117000Y-51765500D01*
X189052000Y-141935500D02*
X206959000Y-148476000D01*
X77927000Y-106058000D02*
X96977000Y-120663000D01*
X135077000Y-120663000D02*
X151904500Y-133680500D01*
X173177000Y-51765500D02*
X200545500Y-51765500D01*
X173177000Y-48400000D02*
X173177000Y-51765500D01*
X116027000Y-41986500D02*
X135077000Y-41986500D01*
X201117000Y-51765500D02*
X202387000Y-66053000D01*
X189052000Y-141935500D02*
X170700500Y-137046000D01*
X96977000Y-120663000D02*
X135077000Y-120663000D01*
X154125000Y-44450000D02*
X135077000Y-41986500D01*
X216738000Y-121552000D02*
X215023500Y-126441500D01*
X173177000Y-48400000D02*
X154125000Y-44450000D01*
X116027000Y-41986500D02*
X96975000Y-44475000D01*
X216738000Y-121552000D02*
X202323500Y-91389500D01*
X215023500Y-126441500D02*
X206959000Y-148476000D01*
X96975000Y-44475000D02*
X72021500Y-49225500D01*
D11*
%TO.C,LED13*%
X108321500Y-79363000D02*
X104721500Y-79363000D01*
X108321500Y-76263000D02*
X108321500Y-79363000D01*
X104721500Y-76263000D02*
X108321500Y-76263000D01*
X104721500Y-79363000D02*
X104721500Y-76263000D01*
%TO.C,LED19*%
X127415500Y-95935000D02*
X123815500Y-95935000D01*
X127415500Y-92835000D02*
X127415500Y-95935000D01*
X123815500Y-92835000D02*
X127415500Y-92835000D01*
X123815500Y-95935000D02*
X123815500Y-92835000D01*
%TO.C,LED14*%
X127415500Y-76823000D02*
X123815500Y-76823000D01*
X127415500Y-73723000D02*
X127415500Y-76823000D01*
X123815500Y-73723000D02*
X127415500Y-73723000D01*
X123815500Y-76823000D02*
X123815500Y-73723000D01*
%TO.C,LED27*%
X209573889Y-132294754D02*
X208342616Y-135677647D01*
X206660842Y-131234491D02*
X209573889Y-132294754D01*
X205429569Y-134617384D02*
X206660842Y-131234491D01*
X208342616Y-135677647D02*
X205429569Y-134617384D01*
%TO.C,LED15*%
X146421500Y-79363000D02*
X142821500Y-79363000D01*
X146421500Y-76263000D02*
X146421500Y-79363000D01*
X142821500Y-76263000D02*
X146421500Y-76263000D01*
X142821500Y-79363000D02*
X142821500Y-76263000D01*
%TO.C,LED22*%
X108321500Y-117463000D02*
X104721500Y-117463000D01*
X108321500Y-114363000D02*
X108321500Y-117463000D01*
X104721500Y-114363000D02*
X108321500Y-114363000D01*
X104721500Y-117463000D02*
X104721500Y-114363000D01*
%TO.C,LED8*%
X146338500Y-60311500D02*
X142738500Y-60311500D01*
X146338500Y-57211500D02*
X146338500Y-60311500D01*
X142738500Y-57211500D02*
X146338500Y-57211500D01*
X142738500Y-60311500D02*
X142738500Y-57211500D01*
%TO.C,LED9*%
X127225000Y-57835000D02*
X123625000Y-57835000D01*
X127225000Y-54735000D02*
X127225000Y-57835000D01*
X123625000Y-54735000D02*
X127225000Y-54735000D01*
X123625000Y-57835000D02*
X123625000Y-54735000D01*
%TO.C,LED7*%
X165388500Y-64248500D02*
X161788500Y-64248500D01*
X165388500Y-61148500D02*
X165388500Y-64248500D01*
X161788500Y-61148500D02*
X165388500Y-61148500D01*
X161788500Y-64248500D02*
X161788500Y-61148500D01*
%TO.C,LED20*%
X108302000Y-98411500D02*
X104702000Y-98411500D01*
X108302000Y-95311500D02*
X108302000Y-98411500D01*
X104702000Y-95311500D02*
X108302000Y-95311500D01*
X104702000Y-98411500D02*
X104702000Y-95311500D01*
%TO.C,LED12*%
X87059894Y-82677477D02*
X83479615Y-83053779D01*
X86735855Y-79594459D02*
X87059894Y-82677477D01*
X83155576Y-79970761D02*
X86735855Y-79594459D01*
X83479615Y-83053779D02*
X83155576Y-79970761D01*
%TO.C,LED21*%
X89091894Y-101854477D02*
X85511615Y-102230779D01*
X88767855Y-98771459D02*
X89091894Y-101854477D01*
X85187576Y-99147761D02*
X88767855Y-98771459D01*
X85511615Y-102230779D02*
X85187576Y-99147761D01*
%TO.C,LED24*%
X146421500Y-117463000D02*
X142821500Y-117463000D01*
X146421500Y-114363000D02*
X146421500Y-117463000D01*
X142821500Y-114363000D02*
X146421500Y-114363000D01*
X142821500Y-117463000D02*
X142821500Y-114363000D01*
%TO.C,LED18*%
X146465500Y-98411500D02*
X142865500Y-98411500D01*
X146465500Y-95311500D02*
X146465500Y-98411500D01*
X142865500Y-95311500D02*
X146465500Y-95311500D01*
X142865500Y-98411500D02*
X142865500Y-95311500D01*
%TO.C,LED23*%
X127308000Y-114986500D02*
X123708000Y-114986500D01*
X127308000Y-111886500D02*
X127308000Y-114986500D01*
X123708000Y-111886500D02*
X127308000Y-111886500D01*
X123708000Y-114986500D02*
X123708000Y-111886500D01*
%TO.C,LED26*%
X190344455Y-125655472D02*
X189412707Y-129132805D01*
X187350085Y-124853133D02*
X190344455Y-125655472D01*
X186418337Y-128330466D02*
X187350085Y-124853133D01*
X189412707Y-129132805D02*
X186418337Y-128330466D01*
%TO.C,LED25*%
X170338352Y-120719276D02*
X169713218Y-124264584D01*
X167285448Y-120180966D02*
X170338352Y-120719276D01*
X166660314Y-123726274D02*
X167285448Y-120180966D01*
X169713218Y-124264584D02*
X166660314Y-123726274D01*
%TO.C,LED17*%
X165452000Y-102348500D02*
X161852000Y-102348500D01*
X165452000Y-99248500D02*
X165452000Y-102348500D01*
X161852000Y-99248500D02*
X165452000Y-99248500D01*
X161852000Y-102348500D02*
X161852000Y-99248500D01*
%TO.C,LED10*%
X108302000Y-60311500D02*
X104702000Y-60311500D01*
X108302000Y-57211500D02*
X108302000Y-60311500D01*
X104702000Y-57211500D02*
X108302000Y-57211500D01*
X104702000Y-60311500D02*
X104702000Y-57211500D01*
%TO.C,LED16*%
X165408000Y-83300000D02*
X161808000Y-83300000D01*
X165408000Y-80200000D02*
X165408000Y-83300000D01*
X161808000Y-80200000D02*
X165408000Y-80200000D01*
X161808000Y-83300000D02*
X161808000Y-80200000D01*
%TO.C,LED11*%
X85091394Y-63627477D02*
X81511115Y-64003779D01*
X84767355Y-60544459D02*
X85091394Y-63627477D01*
X81187076Y-60920761D02*
X84767355Y-60544459D01*
X81511115Y-64003779D02*
X81187076Y-60920761D01*
%TD*%
M02*
