%TF.GenerationSoftware,KiCad,Pcbnew,(5.1.10)-1*%
%TF.CreationDate,2021-10-28T21:07:41+02:00*%
%TF.ProjectId,yaohkib - lefft,79616f68-6b69-4622-902d-206c65666674,rev?*%
%TF.SameCoordinates,Original*%
%TF.FileFunction,Legend,Bot*%
%TF.FilePolarity,Positive*%
%FSLAX46Y46*%
G04 Gerber Fmt 4.6, Leading zero omitted, Abs format (unit mm)*
G04 Created by KiCad (PCBNEW (5.1.10)-1) date 2021-10-28 21:07:41*
%MOMM*%
%LPD*%
G01*
G04 APERTURE LIST*
%ADD10C,0.120000*%
%ADD11C,0.400000*%
%ADD12C,0.500000*%
%ADD13C,0.150000*%
%ADD14C,3.500000*%
%ADD15C,1.000000*%
%ADD16C,3.000000*%
%ADD17C,0.800000*%
%ADD18C,0.300000*%
G04 APERTURE END LIST*
D10*
%TO.C,LED13*%
X102807933Y-76333000D02*
G75*
G03*
X102807933Y-76333000I-166433J0D01*
G01*
X102695352Y-76333000D02*
G75*
G03*
X102695352Y-76333000I-53852J0D01*
G01*
%TO.C,LED19*%
X121901933Y-92905000D02*
G75*
G03*
X121901933Y-92905000I-166433J0D01*
G01*
X121789352Y-92905000D02*
G75*
G03*
X121789352Y-92905000I-53852J0D01*
G01*
%TO.C,LED14*%
X121901933Y-73793000D02*
G75*
G03*
X121901933Y-73793000I-166433J0D01*
G01*
X121789352Y-73793000D02*
G75*
G03*
X121789352Y-73793000I-53852J0D01*
G01*
%TO.C,LED27*%
X204950380Y-136595887D02*
G75*
G03*
X204950380Y-136595887I-166434J0D01*
G01*
X204837798Y-136595887D02*
G75*
G03*
X204837798Y-136595887I-53852J0D01*
G01*
%TO.C,LED15*%
X140907933Y-76333000D02*
G75*
G03*
X140907933Y-76333000I-166433J0D01*
G01*
X140795352Y-76333000D02*
G75*
G03*
X140795352Y-76333000I-53852J0D01*
G01*
%TO.C,LED22*%
X102807933Y-114433000D02*
G75*
G03*
X102807933Y-114433000I-166433J0D01*
G01*
X102695352Y-114433000D02*
G75*
G03*
X102695352Y-114433000I-53852J0D01*
G01*
%TO.C,LED8*%
X140824933Y-57281500D02*
G75*
G03*
X140824933Y-57281500I-166433J0D01*
G01*
X140712352Y-57281500D02*
G75*
G03*
X140712352Y-57281500I-53852J0D01*
G01*
%TO.C,LED9*%
X121711433Y-54805000D02*
G75*
G03*
X121711433Y-54805000I-166433J0D01*
G01*
X121598852Y-54805000D02*
G75*
G03*
X121598852Y-54805000I-53852J0D01*
G01*
%TO.C,LED7*%
X159874933Y-61218500D02*
G75*
G03*
X159874933Y-61218500I-166433J0D01*
G01*
X159762352Y-61218500D02*
G75*
G03*
X159762352Y-61218500I-53852J0D01*
G01*
%TO.C,LED20*%
X102788433Y-95381500D02*
G75*
G03*
X102788433Y-95381500I-166433J0D01*
G01*
X102675852Y-95381500D02*
G75*
G03*
X102675852Y-95381500I-53852J0D01*
G01*
%TO.C,LED12*%
X81260722Y-80257797D02*
G75*
G03*
X81260722Y-80257797I-166434J0D01*
G01*
X81148140Y-80257797D02*
G75*
G03*
X81148140Y-80257797I-53852J0D01*
G01*
%TO.C,LED21*%
X83292722Y-99434797D02*
G75*
G03*
X83292722Y-99434797I-166434J0D01*
G01*
X83180140Y-99434797D02*
G75*
G03*
X83180140Y-99434797I-53852J0D01*
G01*
%TO.C,LED24*%
X140907933Y-114433000D02*
G75*
G03*
X140907933Y-114433000I-166433J0D01*
G01*
X140795352Y-114433000D02*
G75*
G03*
X140795352Y-114433000I-53852J0D01*
G01*
%TO.C,LED18*%
X140951933Y-95381500D02*
G75*
G03*
X140951933Y-95381500I-166433J0D01*
G01*
X140839352Y-95381500D02*
G75*
G03*
X140839352Y-95381500I-53852J0D01*
G01*
%TO.C,LED23*%
X121794433Y-111956500D02*
G75*
G03*
X121794433Y-111956500I-166433J0D01*
G01*
X121681852Y-111956500D02*
G75*
G03*
X121681852Y-111956500I-53852J0D01*
G01*
%TO.C,LED26*%
X186114041Y-130357709D02*
G75*
G03*
X186114041Y-130357709I-166433J0D01*
G01*
X186001459Y-130357709D02*
G75*
G03*
X186001459Y-130357709I-53851J0D01*
G01*
%TO.C,LED25*%
X166534496Y-125786830D02*
G75*
G03*
X166534496Y-125786830I-166433J0D01*
G01*
X166421915Y-125786830D02*
G75*
G03*
X166421915Y-125786830I-53852J0D01*
G01*
%TO.C,LED17*%
X159938433Y-99318500D02*
G75*
G03*
X159938433Y-99318500I-166433J0D01*
G01*
X159825852Y-99318500D02*
G75*
G03*
X159825852Y-99318500I-53852J0D01*
G01*
%TO.C,LED10*%
X102788433Y-57281500D02*
G75*
G03*
X102788433Y-57281500I-166433J0D01*
G01*
X102675852Y-57281500D02*
G75*
G03*
X102675852Y-57281500I-53852J0D01*
G01*
%TO.C,LED16*%
X159894433Y-80270000D02*
G75*
G03*
X159894433Y-80270000I-166433J0D01*
G01*
X159781852Y-80270000D02*
G75*
G03*
X159781852Y-80270000I-53852J0D01*
G01*
%TO.C,LED11*%
X79292222Y-61207797D02*
G75*
G03*
X79292222Y-61207797I-166434J0D01*
G01*
X79179640Y-61207797D02*
G75*
G03*
X79179640Y-61207797I-53852J0D01*
G01*
D11*
%TO.C,SW4*%
X148852000Y-47588000D02*
X147602000Y-47588000D01*
D12*
X139152000Y-52688000D02*
X141602000Y-52688000D01*
D13*
X149002000Y-47388000D02*
X140801999Y-47388000D01*
X144202000Y-50988000D02*
X149002000Y-50988000D01*
X138952000Y-52888000D02*
X141982000Y-52888000D01*
X138702000Y-49288000D02*
X138702000Y-50038000D01*
X138952000Y-48438000D02*
X138952000Y-52888000D01*
X138702000Y-50038000D02*
X138902000Y-50038000D01*
X148982000Y-49988000D02*
X148982000Y-47738000D01*
X149002000Y-50988000D02*
X149002000Y-47388000D01*
D14*
X147202000Y-49188000D02*
X140502000Y-49188000D01*
D15*
X148502000Y-47988000D02*
X148502000Y-50488000D01*
D12*
X148802000Y-50738000D02*
X147502000Y-50688000D01*
D16*
X140432000Y-48888000D02*
X140432000Y-51128000D01*
D17*
X139302000Y-52388000D02*
X139302000Y-50588001D01*
D18*
X138802000Y-49938000D02*
X138802000Y-49288000D01*
D13*
X141985682Y-52866529D02*
G75*
G02*
X144202000Y-50988000I2151318J-291471D01*
G01*
X138702000Y-49288001D02*
G75*
G02*
X140801999Y-47388000I2000000J-99999D01*
G01*
D15*
X141585682Y-52466529D02*
G75*
G02*
X143802000Y-50588000I2151318J-291471D01*
G01*
D11*
%TO.C,SW5*%
X167902000Y-51525000D02*
X166652000Y-51525000D01*
D12*
X158202000Y-56625000D02*
X160652000Y-56625000D01*
D13*
X168052000Y-51325000D02*
X159851999Y-51325000D01*
X163252000Y-54925000D02*
X168052000Y-54925000D01*
X158002000Y-56825000D02*
X161032000Y-56825000D01*
X157752000Y-53225000D02*
X157752000Y-53975000D01*
X158002000Y-52375000D02*
X158002000Y-56825000D01*
X157752000Y-53975000D02*
X157952000Y-53975000D01*
X168032000Y-53925000D02*
X168032000Y-51675000D01*
X168052000Y-54925000D02*
X168052000Y-51325000D01*
D14*
X166252000Y-53125000D02*
X159552000Y-53125000D01*
D15*
X167552000Y-51925000D02*
X167552000Y-54425000D01*
D12*
X167852000Y-54675000D02*
X166552000Y-54625000D01*
D16*
X159482000Y-52825000D02*
X159482000Y-55065000D01*
D17*
X158352000Y-56325000D02*
X158352000Y-54525001D01*
D18*
X157852000Y-53875000D02*
X157852000Y-53225000D01*
D13*
X161035682Y-56803529D02*
G75*
G02*
X163252000Y-54925000I2151318J-291471D01*
G01*
X157752000Y-53225001D02*
G75*
G02*
X159851999Y-51325000I2000000J-99999D01*
G01*
D15*
X160635682Y-56403529D02*
G75*
G02*
X162852000Y-54525000I2151318J-291471D01*
G01*
D11*
%TO.C,SW17*%
X129802000Y-102261500D02*
X128552000Y-102261500D01*
D12*
X120102000Y-107361500D02*
X122552000Y-107361500D01*
D13*
X129952000Y-102061500D02*
X121751999Y-102061500D01*
X125152000Y-105661500D02*
X129952000Y-105661500D01*
X119902000Y-107561500D02*
X122932000Y-107561500D01*
X119652000Y-103961500D02*
X119652000Y-104711500D01*
X119902000Y-103111500D02*
X119902000Y-107561500D01*
X119652000Y-104711500D02*
X119852000Y-104711500D01*
X129932000Y-104661500D02*
X129932000Y-102411500D01*
X129952000Y-105661500D02*
X129952000Y-102061500D01*
D14*
X128152000Y-103861500D02*
X121452000Y-103861500D01*
D15*
X129452000Y-102661500D02*
X129452000Y-105161500D01*
D12*
X129752000Y-105411500D02*
X128452000Y-105361500D01*
D16*
X121382000Y-103561500D02*
X121382000Y-105801500D01*
D17*
X120252000Y-107061500D02*
X120252000Y-105261501D01*
D18*
X119752000Y-104611500D02*
X119752000Y-103961500D01*
D13*
X122935682Y-107540029D02*
G75*
G02*
X125152000Y-105661500I2151318J-291471D01*
G01*
X119652000Y-103961501D02*
G75*
G02*
X121751999Y-102061500I2000000J-99999D01*
G01*
D15*
X122535682Y-107140029D02*
G75*
G02*
X124752000Y-105261500I2151318J-291471D01*
G01*
D11*
%TO.C,SW13*%
X129802000Y-83211500D02*
X128552000Y-83211500D01*
D12*
X120102000Y-88311500D02*
X122552000Y-88311500D01*
D13*
X129952000Y-83011500D02*
X121751999Y-83011500D01*
X125152000Y-86611500D02*
X129952000Y-86611500D01*
X119902000Y-88511500D02*
X122932000Y-88511500D01*
X119652000Y-84911500D02*
X119652000Y-85661500D01*
X119902000Y-84061500D02*
X119902000Y-88511500D01*
X119652000Y-85661500D02*
X119852000Y-85661500D01*
X129932000Y-85611500D02*
X129932000Y-83361500D01*
X129952000Y-86611500D02*
X129952000Y-83011500D01*
D14*
X128152000Y-84811500D02*
X121452000Y-84811500D01*
D15*
X129452000Y-83611500D02*
X129452000Y-86111500D01*
D12*
X129752000Y-86361500D02*
X128452000Y-86311500D01*
D16*
X121382000Y-84511500D02*
X121382000Y-86751500D01*
D17*
X120252000Y-88011500D02*
X120252000Y-86211501D01*
D18*
X119752000Y-85561500D02*
X119752000Y-84911500D01*
D13*
X122935682Y-88490029D02*
G75*
G02*
X125152000Y-86611500I2151318J-291471D01*
G01*
X119652000Y-84911501D02*
G75*
G02*
X121751999Y-83011500I2000000J-99999D01*
G01*
D15*
X122535682Y-88090029D02*
G75*
G02*
X124752000Y-86211500I2151318J-291471D01*
G01*
D11*
%TO.C,SW19*%
X158214235Y-116001219D02*
X157997175Y-117232228D01*
D12*
X161552367Y-126439460D02*
X161977805Y-124026681D01*
D13*
X158043321Y-115818768D02*
X156619406Y-123894192D01*
X160755117Y-121170979D02*
X161588629Y-116443901D01*
X161714599Y-126671151D02*
X162240753Y-123687183D01*
X158125879Y-126292219D02*
X158864485Y-126422455D01*
X157332205Y-125898416D02*
X161714599Y-126671151D01*
X158864485Y-126422455D02*
X158899215Y-126225494D01*
X160600348Y-116289949D02*
X158384531Y-115899241D01*
X161588629Y-116443901D02*
X158043321Y-115818768D01*
D14*
X159503408Y-117903989D02*
X158339965Y-124502201D01*
D15*
X158547381Y-116415361D02*
X161009401Y-116849481D01*
D12*
X161307697Y-116597451D02*
X161032714Y-117869019D01*
D16*
X158032368Y-124519043D02*
X160238337Y-124908015D01*
D17*
X161282972Y-126239644D02*
X159510319Y-125927077D01*
D18*
X158783369Y-126306610D02*
X158143244Y-126193739D01*
D13*
X162220248Y-123679830D02*
G75*
G02*
X160755117Y-121170979I660615J2068022D01*
G01*
X158125879Y-126292219D02*
G75*
G02*
X156619406Y-123894192I445777J1952250D01*
G01*
D15*
X161756866Y-124004293D02*
G75*
G02*
X160291735Y-121495442I660615J2068022D01*
G01*
D11*
%TO.C,SW15*%
X167902000Y-89625000D02*
X166652000Y-89625000D01*
D12*
X158202000Y-94725000D02*
X160652000Y-94725000D01*
D13*
X168052000Y-89425000D02*
X159851999Y-89425000D01*
X163252000Y-93025000D02*
X168052000Y-93025000D01*
X158002000Y-94925000D02*
X161032000Y-94925000D01*
X157752000Y-91325000D02*
X157752000Y-92075000D01*
X158002000Y-90475000D02*
X158002000Y-94925000D01*
X157752000Y-92075000D02*
X157952000Y-92075000D01*
X168032000Y-92025000D02*
X168032000Y-89775000D01*
X168052000Y-93025000D02*
X168052000Y-89425000D01*
D14*
X166252000Y-91225000D02*
X159552000Y-91225000D01*
D15*
X167552000Y-90025000D02*
X167552000Y-92525000D01*
D12*
X167852000Y-92775000D02*
X166552000Y-92725000D01*
D16*
X159482000Y-90925000D02*
X159482000Y-93165000D01*
D17*
X158352000Y-94425000D02*
X158352000Y-92625001D01*
D18*
X157852000Y-91975000D02*
X157852000Y-91325000D01*
D13*
X161035682Y-94903529D02*
G75*
G02*
X163252000Y-93025000I2151318J-291471D01*
G01*
X157752000Y-91325001D02*
G75*
G02*
X159851999Y-89425000I2000000J-99999D01*
G01*
D15*
X160635682Y-94503529D02*
G75*
G02*
X162852000Y-92625000I2151318J-291471D01*
G01*
D11*
%TO.C,SW2*%
X110752000Y-47588000D02*
X109502000Y-47588000D01*
D12*
X101052000Y-52688000D02*
X103502000Y-52688000D01*
D13*
X110902000Y-47388000D02*
X102701999Y-47388000D01*
X106102000Y-50988000D02*
X110902000Y-50988000D01*
X100852000Y-52888000D02*
X103882000Y-52888000D01*
X100602000Y-49288000D02*
X100602000Y-50038000D01*
X100852000Y-48438000D02*
X100852000Y-52888000D01*
X100602000Y-50038000D02*
X100802000Y-50038000D01*
X110882000Y-49988000D02*
X110882000Y-47738000D01*
X110902000Y-50988000D02*
X110902000Y-47388000D01*
D14*
X109102000Y-49188000D02*
X102402000Y-49188000D01*
D15*
X110402000Y-47988000D02*
X110402000Y-50488000D01*
D12*
X110702000Y-50738000D02*
X109402000Y-50688000D01*
D16*
X102332000Y-48888000D02*
X102332000Y-51128000D01*
D17*
X101202000Y-52388000D02*
X101202000Y-50588001D01*
D18*
X100702000Y-49938000D02*
X100702000Y-49288000D01*
D13*
X103885682Y-52866529D02*
G75*
G02*
X106102000Y-50988000I2151318J-291471D01*
G01*
X100602000Y-49288001D02*
G75*
G02*
X102701999Y-47388000I2000000J-99999D01*
G01*
D15*
X103485682Y-52466529D02*
G75*
G02*
X105702000Y-50588000I2151318J-291471D01*
G01*
D11*
%TO.C,SW7*%
X110752000Y-66638000D02*
X109502000Y-66638000D01*
D12*
X101052000Y-71738000D02*
X103502000Y-71738000D01*
D13*
X110902000Y-66438000D02*
X102701999Y-66438000D01*
X106102000Y-70038000D02*
X110902000Y-70038000D01*
X100852000Y-71938000D02*
X103882000Y-71938000D01*
X100602000Y-68338000D02*
X100602000Y-69088000D01*
X100852000Y-67488000D02*
X100852000Y-71938000D01*
X100602000Y-69088000D02*
X100802000Y-69088000D01*
X110882000Y-69038000D02*
X110882000Y-66788000D01*
X110902000Y-70038000D02*
X110902000Y-66438000D01*
D14*
X109102000Y-68238000D02*
X102402000Y-68238000D01*
D15*
X110402000Y-67038000D02*
X110402000Y-69538000D01*
D12*
X110702000Y-69788000D02*
X109402000Y-69738000D01*
D16*
X102332000Y-67938000D02*
X102332000Y-70178000D01*
D17*
X101202000Y-71438000D02*
X101202000Y-69638001D01*
D18*
X100702000Y-68988000D02*
X100702000Y-68338000D01*
D13*
X103885682Y-71916529D02*
G75*
G02*
X106102000Y-70038000I2151318J-291471D01*
G01*
X100602000Y-68338001D02*
G75*
G02*
X102701999Y-66438000I2000000J-99999D01*
G01*
D15*
X103485682Y-71516529D02*
G75*
G02*
X105702000Y-69638000I2151318J-291471D01*
G01*
D11*
%TO.C,SW6*%
X88025236Y-69784814D02*
X86782084Y-69915474D01*
D12*
X78911469Y-75870802D02*
X81348047Y-75614707D01*
D13*
X88153508Y-69570230D02*
X79998428Y-70427364D01*
X83756106Y-73652246D02*
X88529811Y-73150509D01*
X78733470Y-76090612D02*
X81746871Y-75773890D01*
X78108537Y-72536465D02*
X78186933Y-73282356D01*
X78268318Y-71664989D02*
X78733470Y-76090612D01*
X78186933Y-73282356D02*
X78385838Y-73261451D01*
X88405392Y-72158078D02*
X88170203Y-69920403D01*
X88529811Y-73150509D02*
X88153508Y-69570230D01*
D14*
X86551520Y-71548521D02*
X79888224Y-72248862D01*
D15*
X87718965Y-70219208D02*
X87980286Y-72705512D01*
D12*
X88304774Y-72922784D02*
X87006670Y-73008945D01*
D16*
X79787249Y-71957822D02*
X80021392Y-74185551D01*
D17*
X79029288Y-75556766D02*
X78841137Y-73766627D01*
D18*
X78275933Y-73172451D02*
X78207989Y-72526012D01*
D13*
X81748289Y-75752153D02*
G75*
G02*
X83756106Y-73652246I2170000J-65000D01*
G01*
X78108538Y-72536466D02*
G75*
G02*
X79998428Y-70427364I1999496J109606D01*
G01*
D15*
X81308669Y-75396155D02*
G75*
G02*
X83316486Y-73296248I2170000J-65000D01*
G01*
D11*
%TO.C,SW21*%
X198334553Y-125592877D02*
X197907028Y-126767493D01*
D12*
X199809390Y-136452199D02*
X200647339Y-134149952D01*
D13*
X198197917Y-125383520D02*
X195393352Y-133089000D01*
X199939114Y-131125317D02*
X201580811Y-126614792D01*
X199928924Y-136708541D02*
X200965245Y-133861273D01*
X196460526Y-135712192D02*
X197165295Y-135968707D01*
X195747292Y-135186552D02*
X199928924Y-136708541D01*
X197165295Y-135968707D02*
X197233699Y-135780768D01*
X200634278Y-126291566D02*
X198519969Y-125522020D01*
X201580811Y-126614792D02*
X198197917Y-125383520D01*
D14*
X199273728Y-127690602D02*
X196982193Y-133986543D01*
D15*
X198590723Y-126058578D02*
X200939954Y-126913628D01*
D12*
X201277484Y-126717226D02*
X200785873Y-127921725D01*
D16*
X196676344Y-133949715D02*
X198781255Y-134715841D01*
D17*
X199578785Y-136208639D02*
X197887339Y-135593003D01*
D18*
X197105528Y-135840536D02*
X196494728Y-135618223D01*
D13*
X200946330Y-133850469D02*
G75*
G02*
X199939114Y-131125317I1009686J1921889D01*
G01*
X196460526Y-135712192D02*
G75*
G02*
X195393352Y-133089000I778009J1845183D01*
G01*
D15*
X200433645Y-134089538D02*
G75*
G02*
X199426429Y-131364386I1009686J1921889D01*
G01*
D11*
%TO.C,SW20*%
X178509056Y-119917873D02*
X178185532Y-121125281D01*
D12*
X180924733Y-130607331D02*
X181558839Y-128240813D01*
D13*
X178354693Y-119721221D02*
X176232377Y-127641813D01*
X180589695Y-125289413D02*
X181832026Y-120652969D01*
X181066154Y-130852280D02*
X181850376Y-127925525D01*
X177524116Y-130162013D02*
X178248561Y-130356127D01*
X176767784Y-129700535D02*
X181066154Y-130852280D01*
X178248561Y-130356127D02*
X178300324Y-130162942D01*
X180860924Y-120413469D02*
X178687591Y-119831126D01*
X181832026Y-120652969D02*
X178354693Y-119721221D01*
D14*
X179627486Y-121925761D02*
X177893398Y-128397464D01*
D15*
X178804839Y-120359475D02*
X181219654Y-121006523D01*
D12*
X181538781Y-120781450D02*
X181154020Y-122024212D01*
D16*
X177585503Y-128387434D02*
X179749177Y-128967188D01*
D17*
X180673778Y-130384796D02*
X178935112Y-129918922D01*
D18*
X178177850Y-130233653D02*
X177549998Y-130065420D01*
D13*
X181830589Y-127916412D02*
G75*
G02*
X180589695Y-125289413I838342J2002576D01*
G01*
X177524117Y-130162013D02*
G75*
G02*
X176232377Y-127641813I614230J1905970D01*
G01*
D15*
X181340692Y-128199254D02*
G75*
G02*
X180099797Y-125572256I838341J2002576D01*
G01*
D13*
%TO.C,D17*%
X134116500Y-109285500D02*
X133116500Y-109285500D01*
X133616500Y-109185500D02*
X134116500Y-108285500D01*
X133116500Y-108285500D02*
X133616500Y-109185500D01*
X134116500Y-108285500D02*
X133116500Y-108285500D01*
X134366500Y-106085500D02*
X132866500Y-106085500D01*
X134366500Y-111485500D02*
X132866500Y-111485500D01*
X134366500Y-106085500D02*
X134366500Y-111485500D01*
X132866500Y-111485500D02*
X132866500Y-106085500D01*
%TO.C,D19*%
X165768423Y-113390146D02*
X165594775Y-114374954D01*
X165583118Y-113865185D02*
X164783615Y-113216498D01*
X164609967Y-114201306D02*
X165583118Y-113865185D01*
X164783615Y-113216498D02*
X164609967Y-114201306D01*
X162660450Y-112588270D02*
X162399978Y-114065482D01*
X167978412Y-113525970D02*
X167717940Y-115003182D01*
X162660450Y-112588270D02*
X167978412Y-113525970D01*
X167717940Y-115003182D02*
X162399978Y-114065482D01*
%TO.C,D5*%
X172343500Y-58552000D02*
X171343500Y-58552000D01*
X171843500Y-58452000D02*
X172343500Y-57552000D01*
X171343500Y-57552000D02*
X171843500Y-58452000D01*
X172343500Y-57552000D02*
X171343500Y-57552000D01*
X172593500Y-55352000D02*
X171093500Y-55352000D01*
X172593500Y-60752000D02*
X171093500Y-60752000D01*
X172593500Y-55352000D02*
X172593500Y-60752000D01*
X171093500Y-60752000D02*
X171093500Y-55352000D01*
D11*
%TO.C,SW14*%
X148852000Y-85688000D02*
X147602000Y-85688000D01*
D12*
X139152000Y-90788000D02*
X141602000Y-90788000D01*
D13*
X149002000Y-85488000D02*
X140801999Y-85488000D01*
X144202000Y-89088000D02*
X149002000Y-89088000D01*
X138952000Y-90988000D02*
X141982000Y-90988000D01*
X138702000Y-87388000D02*
X138702000Y-88138000D01*
X138952000Y-86538000D02*
X138952000Y-90988000D01*
X138702000Y-88138000D02*
X138902000Y-88138000D01*
X148982000Y-88088000D02*
X148982000Y-85838000D01*
X149002000Y-89088000D02*
X149002000Y-85488000D01*
D14*
X147202000Y-87288000D02*
X140502000Y-87288000D01*
D15*
X148502000Y-86088000D02*
X148502000Y-88588000D01*
D12*
X148802000Y-88838000D02*
X147502000Y-88788000D01*
D16*
X140432000Y-86988000D02*
X140432000Y-89228000D01*
D17*
X139302000Y-90488000D02*
X139302000Y-88688001D01*
D18*
X138802000Y-88038000D02*
X138802000Y-87388000D01*
D13*
X141985682Y-90966529D02*
G75*
G02*
X144202000Y-89088000I2151318J-291471D01*
G01*
X138702000Y-87388001D02*
G75*
G02*
X140801999Y-85488000I2000000J-99999D01*
G01*
D15*
X141585682Y-90566529D02*
G75*
G02*
X143802000Y-88688000I2151318J-291471D01*
G01*
D13*
%TO.C,D3*%
X134180000Y-52072000D02*
X133180000Y-52072000D01*
X133680000Y-51972000D02*
X134180000Y-51072000D01*
X133180000Y-51072000D02*
X133680000Y-51972000D01*
X134180000Y-51072000D02*
X133180000Y-51072000D01*
X134430000Y-48872000D02*
X132930000Y-48872000D01*
X134430000Y-54272000D02*
X132930000Y-54272000D01*
X134430000Y-48872000D02*
X134430000Y-54272000D01*
X132930000Y-54272000D02*
X132930000Y-48872000D01*
D11*
%TO.C,SW16*%
X110752000Y-104738000D02*
X109502000Y-104738000D01*
D12*
X101052000Y-109838000D02*
X103502000Y-109838000D01*
D13*
X110902000Y-104538000D02*
X102701999Y-104538000D01*
X106102000Y-108138000D02*
X110902000Y-108138000D01*
X100852000Y-110038000D02*
X103882000Y-110038000D01*
X100602000Y-106438000D02*
X100602000Y-107188000D01*
X100852000Y-105588000D02*
X100852000Y-110038000D01*
X100602000Y-107188000D02*
X100802000Y-107188000D01*
X110882000Y-107138000D02*
X110882000Y-104888000D01*
X110902000Y-108138000D02*
X110902000Y-104538000D01*
D14*
X109102000Y-106338000D02*
X102402000Y-106338000D01*
D15*
X110402000Y-105138000D02*
X110402000Y-107638000D01*
D12*
X110702000Y-107888000D02*
X109402000Y-107838000D01*
D16*
X102332000Y-106038000D02*
X102332000Y-108278000D01*
D17*
X101202000Y-109538000D02*
X101202000Y-107738001D01*
D18*
X100702000Y-107088000D02*
X100702000Y-106438000D01*
D13*
X103885682Y-110016529D02*
G75*
G02*
X106102000Y-108138000I2151318J-291471D01*
G01*
X100602000Y-106438001D02*
G75*
G02*
X102701999Y-104538000I2000000J-99999D01*
G01*
D15*
X103485682Y-109616529D02*
G75*
G02*
X105702000Y-107738000I2151318J-291471D01*
G01*
D13*
%TO.C,D7*%
X115130000Y-73538000D02*
X114130000Y-73538000D01*
X114630000Y-73438000D02*
X115130000Y-72538000D01*
X114130000Y-72538000D02*
X114630000Y-73438000D01*
X115130000Y-72538000D02*
X114130000Y-72538000D01*
X115380000Y-70338000D02*
X113880000Y-70338000D01*
X115380000Y-75738000D02*
X113880000Y-75738000D01*
X115380000Y-70338000D02*
X115380000Y-75738000D01*
X113880000Y-75738000D02*
X113880000Y-70338000D01*
D11*
%TO.C,SW1*%
X86056736Y-50861814D02*
X84813584Y-50992474D01*
D12*
X76942969Y-56947802D02*
X79379547Y-56691707D01*
D13*
X86185008Y-50647230D02*
X78029928Y-51504364D01*
X81787606Y-54729246D02*
X86561311Y-54227509D01*
X76764970Y-57167612D02*
X79778371Y-56850890D01*
X76140037Y-53613465D02*
X76218433Y-54359356D01*
X76299818Y-52741989D02*
X76764970Y-57167612D01*
X76218433Y-54359356D02*
X76417338Y-54338451D01*
X86436892Y-53235078D02*
X86201703Y-50997403D01*
X86561311Y-54227509D02*
X86185008Y-50647230D01*
D14*
X84583020Y-52625521D02*
X77919724Y-53325862D01*
D15*
X85750465Y-51296208D02*
X86011786Y-53782512D01*
D12*
X86336274Y-53999784D02*
X85038170Y-54085945D01*
D16*
X77818749Y-53034822D02*
X78052892Y-55262551D01*
D17*
X77060788Y-56633766D02*
X76872637Y-54843627D01*
D18*
X76307433Y-54249451D02*
X76239489Y-53603012D01*
D13*
X79779789Y-56829153D02*
G75*
G02*
X81787606Y-54729246I2170000J-65000D01*
G01*
X76140038Y-53613466D02*
G75*
G02*
X78029928Y-51504364I1999496J109606D01*
G01*
D15*
X79340169Y-56473155D02*
G75*
G02*
X81347986Y-54373248I2170000J-65000D01*
G01*
D13*
%TO.C,D11*%
X94859525Y-95390497D02*
X93865003Y-95495025D01*
X94351811Y-95343309D02*
X94754997Y-94395975D01*
X93760475Y-94500503D02*
X94351811Y-95343309D01*
X94754997Y-94395975D02*
X93760475Y-94500503D01*
X94773665Y-92181895D02*
X93281882Y-92338687D01*
X95338118Y-97552313D02*
X93846335Y-97709105D01*
X94773665Y-92181895D02*
X95338118Y-97552313D01*
X93846335Y-97709105D02*
X93281882Y-92338687D01*
%TO.C,D20*%
X186235390Y-118038351D02*
X185976571Y-119004276D01*
X186009388Y-118495432D02*
X185269465Y-117779532D01*
X185010646Y-118745457D02*
X186009388Y-118495432D01*
X185269465Y-117779532D02*
X185010646Y-118745457D01*
X183209133Y-116968648D02*
X182820904Y-118417537D01*
X188425132Y-118366271D02*
X188036903Y-119815160D01*
X183209133Y-116968648D02*
X188425132Y-118366271D01*
X188036903Y-119815160D02*
X182820904Y-118417537D01*
%TO.C,D13*%
X134116500Y-90175000D02*
X133116500Y-90175000D01*
X133616500Y-90075000D02*
X134116500Y-89175000D01*
X133116500Y-89175000D02*
X133616500Y-90075000D01*
X134116500Y-89175000D02*
X133116500Y-89175000D01*
X134366500Y-86975000D02*
X132866500Y-86975000D01*
X134366500Y-92375000D02*
X132866500Y-92375000D01*
X134366500Y-86975000D02*
X134366500Y-92375000D01*
X132866500Y-92375000D02*
X132866500Y-86975000D01*
%TO.C,D8*%
X134053000Y-71061500D02*
X133053000Y-71061500D01*
X133553000Y-70961500D02*
X134053000Y-70061500D01*
X133053000Y-70061500D02*
X133553000Y-70961500D01*
X134053000Y-70061500D02*
X133053000Y-70061500D01*
X134303000Y-67861500D02*
X132803000Y-67861500D01*
X134303000Y-73261500D02*
X132803000Y-73261500D01*
X134303000Y-67861500D02*
X134303000Y-73261500D01*
X132803000Y-73261500D02*
X132803000Y-67861500D01*
D11*
%TO.C,SW11*%
X89993736Y-88771314D02*
X88750584Y-88901974D01*
D12*
X80879969Y-94857302D02*
X83316547Y-94601207D01*
D13*
X90122008Y-88556730D02*
X81966928Y-89413864D01*
X85724606Y-92638746D02*
X90498311Y-92137009D01*
X80701970Y-95077112D02*
X83715371Y-94760390D01*
X80077037Y-91522965D02*
X80155433Y-92268856D01*
X80236818Y-90651489D02*
X80701970Y-95077112D01*
X80155433Y-92268856D02*
X80354338Y-92247951D01*
X90373892Y-91144578D02*
X90138703Y-88906903D01*
X90498311Y-92137009D02*
X90122008Y-88556730D01*
D14*
X88520020Y-90535021D02*
X81856724Y-91235362D01*
D15*
X89687465Y-89205708D02*
X89948786Y-91692012D01*
D12*
X90273274Y-91909284D02*
X88975170Y-91995445D01*
D16*
X81755749Y-90944322D02*
X81989892Y-93172051D01*
D17*
X80997788Y-94543266D02*
X80809637Y-92753127D01*
D18*
X80244433Y-92158951D02*
X80176489Y-91512512D01*
D13*
X83716789Y-94738653D02*
G75*
G02*
X85724606Y-92638746I2170000J-65000D01*
G01*
X80077038Y-91522966D02*
G75*
G02*
X81966928Y-89413864I1999496J109606D01*
G01*
D15*
X83277169Y-94382655D02*
G75*
G02*
X85284986Y-92282748I2170000J-65000D01*
G01*
D13*
%TO.C,D4*%
X153293500Y-54551500D02*
X152293500Y-54551500D01*
X152793500Y-54451500D02*
X153293500Y-53551500D01*
X152293500Y-53551500D02*
X152793500Y-54451500D01*
X153293500Y-53551500D02*
X152293500Y-53551500D01*
X153543500Y-51351500D02*
X152043500Y-51351500D01*
X153543500Y-56751500D02*
X152043500Y-56751500D01*
X153543500Y-51351500D02*
X153543500Y-56751500D01*
X152043500Y-56751500D02*
X152043500Y-51351500D01*
D11*
%TO.C,SW10*%
X167902000Y-70575000D02*
X166652000Y-70575000D01*
D12*
X158202000Y-75675000D02*
X160652000Y-75675000D01*
D13*
X168052000Y-70375000D02*
X159851999Y-70375000D01*
X163252000Y-73975000D02*
X168052000Y-73975000D01*
X158002000Y-75875000D02*
X161032000Y-75875000D01*
X157752000Y-72275000D02*
X157752000Y-73025000D01*
X158002000Y-71425000D02*
X158002000Y-75875000D01*
X157752000Y-73025000D02*
X157952000Y-73025000D01*
X168032000Y-72975000D02*
X168032000Y-70725000D01*
X168052000Y-73975000D02*
X168052000Y-70375000D01*
D14*
X166252000Y-72175000D02*
X159552000Y-72175000D01*
D15*
X167552000Y-70975000D02*
X167552000Y-73475000D01*
D12*
X167852000Y-73725000D02*
X166552000Y-73675000D01*
D16*
X159482000Y-71875000D02*
X159482000Y-74115000D01*
D17*
X158352000Y-75375000D02*
X158352000Y-73575001D01*
D18*
X157852000Y-72925000D02*
X157852000Y-72275000D01*
D13*
X161035682Y-75853529D02*
G75*
G02*
X163252000Y-73975000I2151318J-291471D01*
G01*
X157752000Y-72275001D02*
G75*
G02*
X159851999Y-70375000I2000000J-99999D01*
G01*
D15*
X160635682Y-75453529D02*
G75*
G02*
X162852000Y-73575000I2151318J-291471D01*
G01*
D11*
%TO.C,SW9*%
X148852000Y-66638000D02*
X147602000Y-66638000D01*
D12*
X139152000Y-71738000D02*
X141602000Y-71738000D01*
D13*
X149002000Y-66438000D02*
X140801999Y-66438000D01*
X144202000Y-70038000D02*
X149002000Y-70038000D01*
X138952000Y-71938000D02*
X141982000Y-71938000D01*
X138702000Y-68338000D02*
X138702000Y-69088000D01*
X138952000Y-67488000D02*
X138952000Y-71938000D01*
X138702000Y-69088000D02*
X138902000Y-69088000D01*
X148982000Y-69038000D02*
X148982000Y-66788000D01*
X149002000Y-70038000D02*
X149002000Y-66438000D01*
D14*
X147202000Y-68238000D02*
X140502000Y-68238000D01*
D15*
X148502000Y-67038000D02*
X148502000Y-69538000D01*
D12*
X148802000Y-69788000D02*
X147502000Y-69738000D01*
D16*
X140432000Y-67938000D02*
X140432000Y-70178000D01*
D17*
X139302000Y-71438000D02*
X139302000Y-69638001D01*
D18*
X138802000Y-68988000D02*
X138802000Y-68338000D01*
D13*
X141985682Y-71916529D02*
G75*
G02*
X144202000Y-70038000I2151318J-291471D01*
G01*
X138702000Y-68338001D02*
G75*
G02*
X140801999Y-66438000I2000000J-99999D01*
G01*
D15*
X141585682Y-71516529D02*
G75*
G02*
X143802000Y-69638000I2151318J-291471D01*
G01*
D13*
%TO.C,D2*%
X115066500Y-54424500D02*
X114066500Y-54424500D01*
X114566500Y-54324500D02*
X115066500Y-53424500D01*
X114066500Y-53424500D02*
X114566500Y-54324500D01*
X115066500Y-53424500D02*
X114066500Y-53424500D01*
X115316500Y-51224500D02*
X113816500Y-51224500D01*
X115316500Y-56624500D02*
X113816500Y-56624500D01*
X115316500Y-51224500D02*
X115316500Y-56624500D01*
X113816500Y-56624500D02*
X113816500Y-51224500D01*
%TO.C,D21*%
X206346810Y-124273250D02*
X206004790Y-125212942D01*
X206081831Y-124708894D02*
X205407118Y-123931230D01*
X205065098Y-124870922D02*
X206081831Y-124708894D01*
X205407118Y-123931230D02*
X205065098Y-124870922D01*
X203425299Y-122943862D02*
X202912269Y-124353401D01*
X208499639Y-124790771D02*
X207986609Y-126200310D01*
X203425299Y-122943862D02*
X208499639Y-124790771D01*
X207986609Y-126200310D02*
X202912269Y-124353401D01*
D11*
%TO.C,SW12*%
X110752000Y-85688000D02*
X109502000Y-85688000D01*
D12*
X101052000Y-90788000D02*
X103502000Y-90788000D01*
D13*
X110902000Y-85488000D02*
X102701999Y-85488000D01*
X106102000Y-89088000D02*
X110902000Y-89088000D01*
X100852000Y-90988000D02*
X103882000Y-90988000D01*
X100602000Y-87388000D02*
X100602000Y-88138000D01*
X100852000Y-86538000D02*
X100852000Y-90988000D01*
X100602000Y-88138000D02*
X100802000Y-88138000D01*
X110882000Y-88088000D02*
X110882000Y-85838000D01*
X110902000Y-89088000D02*
X110902000Y-85488000D01*
D14*
X109102000Y-87288000D02*
X102402000Y-87288000D01*
D15*
X110402000Y-86088000D02*
X110402000Y-88588000D01*
D12*
X110702000Y-88838000D02*
X109402000Y-88788000D01*
D16*
X102332000Y-86988000D02*
X102332000Y-89228000D01*
D17*
X101202000Y-90488000D02*
X101202000Y-88688001D01*
D18*
X100702000Y-88038000D02*
X100702000Y-87388000D01*
D13*
X103885682Y-90966529D02*
G75*
G02*
X106102000Y-89088000I2151318J-291471D01*
G01*
X100602000Y-87388001D02*
G75*
G02*
X102701999Y-85488000I2000000J-99999D01*
G01*
D15*
X103485682Y-90566529D02*
G75*
G02*
X105702000Y-88688000I2151318J-291471D01*
G01*
D11*
%TO.C,SW3*%
X129802000Y-45111500D02*
X128552000Y-45111500D01*
D12*
X120102000Y-50211500D02*
X122552000Y-50211500D01*
D13*
X129952000Y-44911500D02*
X121751999Y-44911500D01*
X125152000Y-48511500D02*
X129952000Y-48511500D01*
X119902000Y-50411500D02*
X122932000Y-50411500D01*
X119652000Y-46811500D02*
X119652000Y-47561500D01*
X119902000Y-45961500D02*
X119902000Y-50411500D01*
X119652000Y-47561500D02*
X119852000Y-47561500D01*
X129932000Y-47511500D02*
X129932000Y-45261500D01*
X129952000Y-48511500D02*
X129952000Y-44911500D01*
D14*
X128152000Y-46711500D02*
X121452000Y-46711500D01*
D15*
X129452000Y-45511500D02*
X129452000Y-48011500D01*
D12*
X129752000Y-48261500D02*
X128452000Y-48211500D01*
D16*
X121382000Y-46411500D02*
X121382000Y-48651500D01*
D17*
X120252000Y-49911500D02*
X120252000Y-48111501D01*
D18*
X119752000Y-47461500D02*
X119752000Y-46811500D01*
D13*
X122935682Y-50390029D02*
G75*
G02*
X125152000Y-48511500I2151318J-291471D01*
G01*
X119652000Y-46811501D02*
G75*
G02*
X121751999Y-44911500I2000000J-99999D01*
G01*
D15*
X122535682Y-49990029D02*
G75*
G02*
X124752000Y-48111500I2151318J-291471D01*
G01*
D13*
%TO.C,D16*%
X115003000Y-111952500D02*
X114003000Y-111952500D01*
X114503000Y-111852500D02*
X115003000Y-110952500D01*
X114003000Y-110952500D02*
X114503000Y-111852500D01*
X115003000Y-110952500D02*
X114003000Y-110952500D01*
X115253000Y-108752500D02*
X113753000Y-108752500D01*
X115253000Y-114152500D02*
X113753000Y-114152500D01*
X115253000Y-108752500D02*
X115253000Y-114152500D01*
X113753000Y-114152500D02*
X113753000Y-108752500D01*
%TO.C,D1*%
X90859025Y-57290497D02*
X89864503Y-57395025D01*
X90351311Y-57243309D02*
X90754497Y-56295975D01*
X89759975Y-56400503D02*
X90351311Y-57243309D01*
X90754497Y-56295975D02*
X89759975Y-56400503D01*
X90773165Y-54081895D02*
X89281382Y-54238687D01*
X91337618Y-59452313D02*
X89845835Y-59609105D01*
X90773165Y-54081895D02*
X91337618Y-59452313D01*
X89845835Y-59609105D02*
X89281382Y-54238687D01*
%TO.C,D12*%
X115130000Y-92648500D02*
X114130000Y-92648500D01*
X114630000Y-92548500D02*
X115130000Y-91648500D01*
X114130000Y-91648500D02*
X114630000Y-92548500D01*
X115130000Y-91648500D02*
X114130000Y-91648500D01*
X115380000Y-89448500D02*
X113880000Y-89448500D01*
X115380000Y-94848500D02*
X113880000Y-94848500D01*
X115380000Y-89448500D02*
X115380000Y-94848500D01*
X113880000Y-94848500D02*
X113880000Y-89448500D01*
%TO.C,D6*%
X92822563Y-76327773D02*
X91828041Y-76432301D01*
X92314849Y-76280585D02*
X92718035Y-75333251D01*
X91723513Y-75437779D02*
X92314849Y-76280585D01*
X92718035Y-75333251D02*
X91723513Y-75437779D01*
X92736703Y-73119171D02*
X91244920Y-73275963D01*
X93301156Y-78489589D02*
X91809373Y-78646381D01*
X92736703Y-73119171D02*
X93301156Y-78489589D01*
X91809373Y-78646381D02*
X91244920Y-73275963D01*
%TO.C,D14*%
X153166500Y-92648500D02*
X152166500Y-92648500D01*
X152666500Y-92548500D02*
X153166500Y-91648500D01*
X152166500Y-91648500D02*
X152666500Y-92548500D01*
X153166500Y-91648500D02*
X152166500Y-91648500D01*
X153416500Y-89448500D02*
X151916500Y-89448500D01*
X153416500Y-94848500D02*
X151916500Y-94848500D01*
X153416500Y-89448500D02*
X153416500Y-94848500D01*
X151916500Y-94848500D02*
X151916500Y-89448500D01*
%TO.C,D10*%
X172280000Y-77411500D02*
X171280000Y-77411500D01*
X171780000Y-77311500D02*
X172280000Y-76411500D01*
X171280000Y-76411500D02*
X171780000Y-77311500D01*
X172280000Y-76411500D02*
X171280000Y-76411500D01*
X172530000Y-74211500D02*
X171030000Y-74211500D01*
X172530000Y-79611500D02*
X171030000Y-79611500D01*
X172530000Y-74211500D02*
X172530000Y-79611500D01*
X171030000Y-79611500D02*
X171030000Y-74211500D01*
%TO.C,D15*%
X172153000Y-96458500D02*
X171153000Y-96458500D01*
X171653000Y-96358500D02*
X172153000Y-95458500D01*
X171153000Y-95458500D02*
X171653000Y-96358500D01*
X172153000Y-95458500D02*
X171153000Y-95458500D01*
X172403000Y-93258500D02*
X170903000Y-93258500D01*
X172403000Y-98658500D02*
X170903000Y-98658500D01*
X172403000Y-93258500D02*
X172403000Y-98658500D01*
X170903000Y-98658500D02*
X170903000Y-93258500D01*
D11*
%TO.C,SW8*%
X129802000Y-64161500D02*
X128552000Y-64161500D01*
D12*
X120102000Y-69261500D02*
X122552000Y-69261500D01*
D13*
X129952000Y-63961500D02*
X121751999Y-63961500D01*
X125152000Y-67561500D02*
X129952000Y-67561500D01*
X119902000Y-69461500D02*
X122932000Y-69461500D01*
X119652000Y-65861500D02*
X119652000Y-66611500D01*
X119902000Y-65011500D02*
X119902000Y-69461500D01*
X119652000Y-66611500D02*
X119852000Y-66611500D01*
X129932000Y-66561500D02*
X129932000Y-64311500D01*
X129952000Y-67561500D02*
X129952000Y-63961500D01*
D14*
X128152000Y-65761500D02*
X121452000Y-65761500D01*
D15*
X129452000Y-64561500D02*
X129452000Y-67061500D01*
D12*
X129752000Y-67311500D02*
X128452000Y-67261500D01*
D16*
X121382000Y-65461500D02*
X121382000Y-67701500D01*
D17*
X120252000Y-68961500D02*
X120252000Y-67161501D01*
D18*
X119752000Y-66511500D02*
X119752000Y-65861500D01*
D13*
X122935682Y-69440029D02*
G75*
G02*
X125152000Y-67561500I2151318J-291471D01*
G01*
X119652000Y-65861501D02*
G75*
G02*
X121751999Y-63961500I2000000J-99999D01*
G01*
D15*
X122535682Y-69040029D02*
G75*
G02*
X124752000Y-67161500I2151318J-291471D01*
G01*
D13*
%TO.C,D9*%
X153230000Y-73601500D02*
X152230000Y-73601500D01*
X152730000Y-73501500D02*
X153230000Y-72601500D01*
X152230000Y-72601500D02*
X152730000Y-73501500D01*
X153230000Y-72601500D02*
X152230000Y-72601500D01*
X153480000Y-70401500D02*
X151980000Y-70401500D01*
X153480000Y-75801500D02*
X151980000Y-75801500D01*
X153480000Y-70401500D02*
X153480000Y-75801500D01*
X151980000Y-75801500D02*
X151980000Y-70401500D01*
%TO.C,D18*%
X153103000Y-111825500D02*
X152103000Y-111825500D01*
X152603000Y-111725500D02*
X153103000Y-110825500D01*
X152103000Y-110825500D02*
X152603000Y-111725500D01*
X153103000Y-110825500D02*
X152103000Y-110825500D01*
X153353000Y-108625500D02*
X151853000Y-108625500D01*
X153353000Y-114025500D02*
X151853000Y-114025500D01*
X153353000Y-108625500D02*
X153353000Y-114025500D01*
X151853000Y-114025500D02*
X151853000Y-108625500D01*
D11*
%TO.C,SW18*%
X148852000Y-104738000D02*
X147602000Y-104738000D01*
D12*
X139152000Y-109838000D02*
X141602000Y-109838000D01*
D13*
X149002000Y-104538000D02*
X140801999Y-104538000D01*
X144202000Y-108138000D02*
X149002000Y-108138000D01*
X138952000Y-110038000D02*
X141982000Y-110038000D01*
X138702000Y-106438000D02*
X138702000Y-107188000D01*
X138952000Y-105588000D02*
X138952000Y-110038000D01*
X138702000Y-107188000D02*
X138902000Y-107188000D01*
X148982000Y-107138000D02*
X148982000Y-104888000D01*
X149002000Y-108138000D02*
X149002000Y-104538000D01*
D14*
X147202000Y-106338000D02*
X140502000Y-106338000D01*
D15*
X148502000Y-105138000D02*
X148502000Y-107638000D01*
D12*
X148802000Y-107888000D02*
X147502000Y-107838000D01*
D16*
X140432000Y-106038000D02*
X140432000Y-108278000D01*
D17*
X139302000Y-109538000D02*
X139302000Y-107738001D01*
D18*
X138802000Y-107088000D02*
X138802000Y-106438000D01*
D13*
X141985682Y-110016529D02*
G75*
G02*
X144202000Y-108138000I2151318J-291471D01*
G01*
X138702000Y-106438001D02*
G75*
G02*
X140801999Y-104538000I2000000J-99999D01*
G01*
D15*
X141585682Y-109616529D02*
G75*
G02*
X143802000Y-107738000I2151318J-291471D01*
G01*
%TD*%
M02*
