%TF.GenerationSoftware,KiCad,Pcbnew,(5.1.10)-1*%
%TF.CreationDate,2021-10-28T21:07:40+02:00*%
%TF.ProjectId,yaohkib - lefft,79616f68-6b69-4622-902d-206c65666674,rev?*%
%TF.SameCoordinates,Original*%
%TF.FileFunction,Copper,L2,Bot*%
%TF.FilePolarity,Positive*%
%FSLAX46Y46*%
G04 Gerber Fmt 4.6, Leading zero omitted, Abs format (unit mm)*
G04 Created by KiCad (PCBNEW (5.1.10)-1) date 2021-10-28 21:07:41*
%MOMM*%
%LPD*%
G01*
G04 APERTURE LIST*
%TA.AperFunction,SMDPad,CuDef*%
%ADD10R,1.700000X1.000000*%
%TD*%
%TA.AperFunction,SMDPad,CuDef*%
%ADD11C,0.100000*%
%TD*%
%TA.AperFunction,ComponentPad*%
%ADD12O,2.500000X1.700000*%
%TD*%
%TA.AperFunction,ComponentPad*%
%ADD13O,1.397000X1.778000*%
%TD*%
%TA.AperFunction,ComponentPad*%
%ADD14C,1.524000*%
%TD*%
%TA.AperFunction,SMDPad,CuDef*%
%ADD15R,2.550000X2.500000*%
%TD*%
%TA.AperFunction,ComponentPad*%
%ADD16C,2.000000*%
%TD*%
%TA.AperFunction,SMDPad,CuDef*%
%ADD17R,1.000000X1.400000*%
%TD*%
%TA.AperFunction,ComponentPad*%
%ADD18O,1.778000X1.397000*%
%TD*%
%TA.AperFunction,ComponentPad*%
%ADD19O,1.700000X2.500000*%
%TD*%
%TA.AperFunction,ViaPad*%
%ADD20C,0.600000*%
%TD*%
%TA.AperFunction,Conductor*%
%ADD21C,0.250000*%
%TD*%
%TA.AperFunction,Conductor*%
%ADD22C,0.500000*%
%TD*%
%TA.AperFunction,Conductor*%
%ADD23C,0.203200*%
%TD*%
G04 APERTURE END LIST*
D10*
%TO.P,LED13,2*%
%TO.N,Net-(LED13-Pad2)*%
X109271500Y-77113000D03*
%TO.P,LED13,1*%
%TO.N,VCC*%
X109271500Y-78513000D03*
%TO.P,LED13,3*%
%TO.N,GND*%
X103771500Y-77113000D03*
%TO.P,LED13,4*%
%TO.N,Net-(LED12-Pad2)*%
X103771500Y-78513000D03*
%TD*%
%TO.P,LED19,2*%
%TO.N,Net-(LED19-Pad2)*%
X128365500Y-93685000D03*
%TO.P,LED19,1*%
%TO.N,VCC*%
X128365500Y-95085000D03*
%TO.P,LED19,3*%
%TO.N,GND*%
X122865500Y-93685000D03*
%TO.P,LED19,4*%
%TO.N,Net-(LED18-Pad2)*%
X122865500Y-95085000D03*
%TD*%
%TO.P,LED14,2*%
%TO.N,Net-(LED14-Pad2)*%
X128365500Y-74573000D03*
%TO.P,LED14,1*%
%TO.N,VCC*%
X128365500Y-75973000D03*
%TO.P,LED14,3*%
%TO.N,GND*%
X122865500Y-74573000D03*
%TO.P,LED14,4*%
%TO.N,Net-(LED13-Pad2)*%
X122865500Y-75973000D03*
%TD*%
%TA.AperFunction,SMDPad,CuDef*%
D11*
%TO.P,LED27,2*%
%TO.N,Net-(LED27-Pad2)*%
G36*
X207963629Y-131602249D02*
G01*
X207023937Y-131260229D01*
X207605371Y-129662751D01*
X208545063Y-130004771D01*
X207963629Y-131602249D01*
G37*
%TD.AperFunction*%
%TA.AperFunction,SMDPad,CuDef*%
%TO.P,LED27,1*%
%TO.N,VCC*%
G36*
X209279198Y-132081077D02*
G01*
X208339506Y-131739057D01*
X208920940Y-130141579D01*
X209860632Y-130483599D01*
X209279198Y-132081077D01*
G37*
%TD.AperFunction*%
%TA.AperFunction,SMDPad,CuDef*%
%TO.P,LED27,3*%
%TO.N,GND*%
G36*
X206082518Y-136770559D02*
G01*
X205142826Y-136428539D01*
X205724260Y-134831061D01*
X206663952Y-135173081D01*
X206082518Y-136770559D01*
G37*
%TD.AperFunction*%
%TA.AperFunction,SMDPad,CuDef*%
%TO.P,LED27,4*%
%TO.N,Net-(LED26-Pad2)*%
G36*
X207398087Y-137249387D02*
G01*
X206458395Y-136907367D01*
X207039829Y-135309889D01*
X207979521Y-135651909D01*
X207398087Y-137249387D01*
G37*
%TD.AperFunction*%
%TD*%
D10*
%TO.P,LED15,2*%
%TO.N,Net-(LED15-Pad2)*%
X147371500Y-77113000D03*
%TO.P,LED15,1*%
%TO.N,VCC*%
X147371500Y-78513000D03*
%TO.P,LED15,3*%
%TO.N,GND*%
X141871500Y-77113000D03*
%TO.P,LED15,4*%
%TO.N,Net-(LED14-Pad2)*%
X141871500Y-78513000D03*
%TD*%
%TO.P,LED22,2*%
%TO.N,Net-(LED22-Pad2)*%
X109271500Y-115213000D03*
%TO.P,LED22,1*%
%TO.N,VCC*%
X109271500Y-116613000D03*
%TO.P,LED22,3*%
%TO.N,GND*%
X103771500Y-115213000D03*
%TO.P,LED22,4*%
%TO.N,Net-(LED21-Pad2)*%
X103771500Y-116613000D03*
%TD*%
%TO.P,LED8,2*%
%TO.N,Net-(LED8-Pad2)*%
X147288500Y-58061500D03*
%TO.P,LED8,1*%
%TO.N,VCC*%
X147288500Y-59461500D03*
%TO.P,LED8,3*%
%TO.N,GND*%
X141788500Y-58061500D03*
%TO.P,LED8,4*%
%TO.N,Net-(LED7-Pad2)*%
X141788500Y-59461500D03*
%TD*%
%TO.P,LED9,2*%
%TO.N,Net-(LED10-Pad4)*%
X128175000Y-55585000D03*
%TO.P,LED9,1*%
%TO.N,VCC*%
X128175000Y-56985000D03*
%TO.P,LED9,3*%
%TO.N,GND*%
X122675000Y-55585000D03*
%TO.P,LED9,4*%
%TO.N,Net-(LED8-Pad2)*%
X122675000Y-56985000D03*
%TD*%
%TO.P,LED7,2*%
%TO.N,Net-(LED7-Pad2)*%
X166338500Y-61998500D03*
%TO.P,LED7,1*%
%TO.N,VCC*%
X166338500Y-63398500D03*
%TO.P,LED7,3*%
%TO.N,GND*%
X160838500Y-61998500D03*
%TO.P,LED7,4*%
%TO.N,LED*%
X160838500Y-63398500D03*
%TD*%
%TO.P,LED20,2*%
%TO.N,Net-(LED20-Pad2)*%
X109252000Y-96161500D03*
%TO.P,LED20,1*%
%TO.N,VCC*%
X109252000Y-97561500D03*
%TO.P,LED20,3*%
%TO.N,GND*%
X103752000Y-96161500D03*
%TO.P,LED20,4*%
%TO.N,Net-(LED19-Pad2)*%
X103752000Y-97561500D03*
%TD*%
%TA.AperFunction,SMDPad,CuDef*%
D11*
%TO.P,LED12,2*%
%TO.N,Net-(LED12-Pad2)*%
G36*
X86976421Y-80926610D02*
G01*
X86871892Y-79932088D01*
X88562579Y-79754390D01*
X88667108Y-80748912D01*
X86976421Y-80926610D01*
G37*
%TD.AperFunction*%
%TA.AperFunction,SMDPad,CuDef*%
%TO.P,LED12,1*%
%TO.N,VCC*%
G36*
X87122761Y-82318941D02*
G01*
X87018232Y-81324419D01*
X88708919Y-81146721D01*
X88813448Y-82141243D01*
X87122761Y-82318941D01*
G37*
%TD.AperFunction*%
%TA.AperFunction,SMDPad,CuDef*%
%TO.P,LED12,3*%
%TO.N,GND*%
G36*
X81506551Y-81501517D02*
G01*
X81402022Y-80506995D01*
X83092709Y-80329297D01*
X83197238Y-81323819D01*
X81506551Y-81501517D01*
G37*
%TD.AperFunction*%
%TA.AperFunction,SMDPad,CuDef*%
%TO.P,LED12,4*%
%TO.N,Net-(LED11-Pad2)*%
G36*
X81652891Y-82893848D02*
G01*
X81548362Y-81899326D01*
X83239049Y-81721628D01*
X83343578Y-82716150D01*
X81652891Y-82893848D01*
G37*
%TD.AperFunction*%
%TD*%
%TA.AperFunction,SMDPad,CuDef*%
%TO.P,LED21,2*%
%TO.N,Net-(LED21-Pad2)*%
G36*
X89008421Y-100103610D02*
G01*
X88903892Y-99109088D01*
X90594579Y-98931390D01*
X90699108Y-99925912D01*
X89008421Y-100103610D01*
G37*
%TD.AperFunction*%
%TA.AperFunction,SMDPad,CuDef*%
%TO.P,LED21,1*%
%TO.N,VCC*%
G36*
X89154761Y-101495941D02*
G01*
X89050232Y-100501419D01*
X90740919Y-100323721D01*
X90845448Y-101318243D01*
X89154761Y-101495941D01*
G37*
%TD.AperFunction*%
%TA.AperFunction,SMDPad,CuDef*%
%TO.P,LED21,3*%
%TO.N,GND*%
G36*
X83538551Y-100678517D02*
G01*
X83434022Y-99683995D01*
X85124709Y-99506297D01*
X85229238Y-100500819D01*
X83538551Y-100678517D01*
G37*
%TD.AperFunction*%
%TA.AperFunction,SMDPad,CuDef*%
%TO.P,LED21,4*%
%TO.N,Net-(LED20-Pad2)*%
G36*
X83684891Y-102070848D02*
G01*
X83580362Y-101076326D01*
X85271049Y-100898628D01*
X85375578Y-101893150D01*
X83684891Y-102070848D01*
G37*
%TD.AperFunction*%
%TD*%
D10*
%TO.P,LED24,2*%
%TO.N,Net-(LED24-Pad2)*%
X147371500Y-115213000D03*
%TO.P,LED24,1*%
%TO.N,VCC*%
X147371500Y-116613000D03*
%TO.P,LED24,3*%
%TO.N,GND*%
X141871500Y-115213000D03*
%TO.P,LED24,4*%
%TO.N,Net-(LED23-Pad2)*%
X141871500Y-116613000D03*
%TD*%
%TO.P,LED18,2*%
%TO.N,Net-(LED18-Pad2)*%
X147415500Y-96161500D03*
%TO.P,LED18,1*%
%TO.N,VCC*%
X147415500Y-97561500D03*
%TO.P,LED18,3*%
%TO.N,GND*%
X141915500Y-96161500D03*
%TO.P,LED18,4*%
%TO.N,Net-(LED17-Pad2)*%
X141915500Y-97561500D03*
%TD*%
%TO.P,LED23,2*%
%TO.N,Net-(LED23-Pad2)*%
X128258000Y-112736500D03*
%TO.P,LED23,1*%
%TO.N,VCC*%
X128258000Y-114136500D03*
%TO.P,LED23,3*%
%TO.N,GND*%
X122758000Y-112736500D03*
%TO.P,LED23,4*%
%TO.N,Net-(LED22-Pad2)*%
X122758000Y-114136500D03*
%TD*%
%TA.AperFunction,SMDPad,CuDef*%
D11*
%TO.P,LED26,2*%
%TO.N,Net-(LED26-Pad2)*%
G36*
X188679967Y-125105946D02*
G01*
X187714041Y-124847127D01*
X188154033Y-123205054D01*
X189119959Y-123463873D01*
X188679967Y-125105946D01*
G37*
%TD.AperFunction*%
%TA.AperFunction,SMDPad,CuDef*%
%TO.P,LED26,1*%
%TO.N,VCC*%
G36*
X190032263Y-125468292D02*
G01*
X189066337Y-125209473D01*
X189506329Y-123567400D01*
X190472255Y-123826219D01*
X190032263Y-125468292D01*
G37*
%TD.AperFunction*%
%TA.AperFunction,SMDPad,CuDef*%
%TO.P,LED26,3*%
%TO.N,GND*%
G36*
X187256463Y-130418538D02*
G01*
X186290537Y-130159719D01*
X186730529Y-128517646D01*
X187696455Y-128776465D01*
X187256463Y-130418538D01*
G37*
%TD.AperFunction*%
%TA.AperFunction,SMDPad,CuDef*%
%TO.P,LED26,4*%
%TO.N,Net-(LED25-Pad2)*%
G36*
X188608759Y-130780884D02*
G01*
X187642833Y-130522065D01*
X188082825Y-128879992D01*
X189048751Y-129138811D01*
X188608759Y-130780884D01*
G37*
%TD.AperFunction*%
%TD*%
%TA.AperFunction,SMDPad,CuDef*%
%TO.P,LED25,2*%
%TO.N,Net-(LED25-Pad2)*%
G36*
X168632303Y-120316911D02*
G01*
X167647495Y-120143263D01*
X167942697Y-118469089D01*
X168927505Y-118642737D01*
X168632303Y-120316911D01*
G37*
%TD.AperFunction*%
%TA.AperFunction,SMDPad,CuDef*%
%TO.P,LED25,1*%
%TO.N,VCC*%
G36*
X170011034Y-120560018D02*
G01*
X169026226Y-120386370D01*
X169321428Y-118712196D01*
X170306236Y-118885844D01*
X170011034Y-120560018D01*
G37*
%TD.AperFunction*%
%TA.AperFunction,SMDPad,CuDef*%
%TO.P,LED25,3*%
%TO.N,GND*%
G36*
X167677238Y-125733354D02*
G01*
X166692430Y-125559706D01*
X166987632Y-123885532D01*
X167972440Y-124059180D01*
X167677238Y-125733354D01*
G37*
%TD.AperFunction*%
%TA.AperFunction,SMDPad,CuDef*%
%TO.P,LED25,4*%
%TO.N,Net-(LED24-Pad2)*%
G36*
X169055969Y-125976461D02*
G01*
X168071161Y-125802813D01*
X168366363Y-124128639D01*
X169351171Y-124302287D01*
X169055969Y-125976461D01*
G37*
%TD.AperFunction*%
%TD*%
D10*
%TO.P,LED17,2*%
%TO.N,Net-(LED17-Pad2)*%
X166402000Y-100098500D03*
%TO.P,LED17,1*%
%TO.N,VCC*%
X166402000Y-101498500D03*
%TO.P,LED17,3*%
%TO.N,GND*%
X160902000Y-100098500D03*
%TO.P,LED17,4*%
%TO.N,Net-(LED16-Pad2)*%
X160902000Y-101498500D03*
%TD*%
%TO.P,LED10,2*%
%TO.N,Net-(LED10-Pad2)*%
X109252000Y-58061500D03*
%TO.P,LED10,1*%
%TO.N,VCC*%
X109252000Y-59461500D03*
%TO.P,LED10,3*%
%TO.N,GND*%
X103752000Y-58061500D03*
%TO.P,LED10,4*%
%TO.N,Net-(LED10-Pad4)*%
X103752000Y-59461500D03*
%TD*%
%TO.P,LED16,2*%
%TO.N,Net-(LED16-Pad2)*%
X166358000Y-81050000D03*
%TO.P,LED16,1*%
%TO.N,VCC*%
X166358000Y-82450000D03*
%TO.P,LED16,3*%
%TO.N,GND*%
X160858000Y-81050000D03*
%TO.P,LED16,4*%
%TO.N,Net-(LED15-Pad2)*%
X160858000Y-82450000D03*
%TD*%
%TA.AperFunction,SMDPad,CuDef*%
D11*
%TO.P,LED11,2*%
%TO.N,Net-(LED11-Pad2)*%
G36*
X85007921Y-61876610D02*
G01*
X84903392Y-60882088D01*
X86594079Y-60704390D01*
X86698608Y-61698912D01*
X85007921Y-61876610D01*
G37*
%TD.AperFunction*%
%TA.AperFunction,SMDPad,CuDef*%
%TO.P,LED11,1*%
%TO.N,VCC*%
G36*
X85154261Y-63268941D02*
G01*
X85049732Y-62274419D01*
X86740419Y-62096721D01*
X86844948Y-63091243D01*
X85154261Y-63268941D01*
G37*
%TD.AperFunction*%
%TA.AperFunction,SMDPad,CuDef*%
%TO.P,LED11,3*%
%TO.N,GND*%
G36*
X79538051Y-62451517D02*
G01*
X79433522Y-61456995D01*
X81124209Y-61279297D01*
X81228738Y-62273819D01*
X79538051Y-62451517D01*
G37*
%TD.AperFunction*%
%TA.AperFunction,SMDPad,CuDef*%
%TO.P,LED11,4*%
%TO.N,Net-(LED10-Pad2)*%
G36*
X79684391Y-63843848D02*
G01*
X79579862Y-62849326D01*
X81270549Y-62671628D01*
X81375078Y-63666150D01*
X79684391Y-63843848D01*
G37*
%TD.AperFunction*%
%TD*%
D12*
%TO.P,J7,A*%
%TO.N,Net-(J7-PadA)*%
X190325000Y-86325000D03*
%TO.P,J7,D*%
%TO.N,VCC*%
X191825000Y-90525000D03*
%TO.P,J7,C*%
%TO.N,GND*%
X195825000Y-90525000D03*
%TO.P,J7,B*%
%TO.N,P0.08*%
X198825000Y-90525000D03*
%TD*%
D13*
%TO.P,J5,4*%
%TO.N,GND*%
X187528000Y-87579500D03*
%TO.P,J5,3*%
%TO.N,VCC*%
X184988000Y-87579500D03*
%TO.P,J5,2*%
%TO.N,P0.17*%
X182448000Y-87579500D03*
%TO.P,J5,1*%
%TO.N,P0.15*%
X179908000Y-87579500D03*
%TD*%
D14*
%TO.P,U1,24*%
%TO.N,Net-(U1-Pad24)*%
X176113400Y-55629500D03*
%TO.P,U1,23*%
%TO.N,GND*%
X176113400Y-58169500D03*
%TO.P,U1,22*%
%TO.N,RESET*%
X176113400Y-60709500D03*
%TO.P,U1,21*%
%TO.N,VCC*%
X176113400Y-63249500D03*
%TO.P,U1,20*%
%TO.N,P0.30*%
X176113400Y-65789500D03*
%TO.P,U1,19*%
%TO.N,P0.31*%
X176113400Y-68329500D03*
%TO.P,U1,18*%
%TO.N,P0.29*%
X176113400Y-70869500D03*
%TO.P,U1,17*%
%TO.N,P0.02*%
X176113400Y-73409500D03*
%TO.P,U1,16*%
%TO.N,P1.13*%
X176113400Y-75949500D03*
%TO.P,U1,15*%
%TO.N,P0.03*%
X176113400Y-78489500D03*
%TO.P,U1,14*%
%TO.N,P0.28*%
X176113400Y-81029500D03*
%TO.P,U1,13*%
%TO.N,P1.11*%
X176113400Y-83569500D03*
%TO.P,U1,12*%
%TO.N,P1.06*%
X191333400Y-83569500D03*
%TO.P,U1,11*%
%TO.N,P0.10*%
X191333400Y-81029500D03*
%TO.P,U1,10*%
%TO.N,P0.09*%
X191333400Y-78489500D03*
%TO.P,U1,9*%
%TO.N,P0.24*%
X191333400Y-75949500D03*
%TO.P,U1,8*%
%TO.N,P0.13*%
X191333400Y-73409500D03*
%TO.P,U1,7*%
%TO.N,P0.20*%
X191333400Y-70869500D03*
%TO.P,U1,6*%
%TO.N,P0.17*%
X191333400Y-68329500D03*
%TO.P,U1,5*%
%TO.N,P0.15*%
X191333400Y-65789500D03*
%TO.P,U1,4*%
%TO.N,GND*%
X191333400Y-63249500D03*
%TO.P,U1,3*%
X191333400Y-60709500D03*
%TO.P,U1,2*%
%TO.N,P0.08*%
X191333400Y-58169500D03*
%TO.P,U1,1*%
%TO.N,LED*%
X191333400Y-55629500D03*
%TD*%
D15*
%TO.P,SW4,2*%
%TO.N,Net-(D4-Pad2)*%
X150444000Y-48908000D03*
%TO.P,SW4,1*%
%TO.N,P0.02*%
X137517000Y-51448000D03*
%TD*%
%TO.P,SW5,2*%
%TO.N,Net-(D5-Pad2)*%
X169494000Y-52845000D03*
%TO.P,SW5,1*%
%TO.N,P1.13*%
X156567000Y-55385000D03*
%TD*%
%TO.P,SW17,2*%
%TO.N,Net-(D17-Pad2)*%
X131394000Y-103581500D03*
%TO.P,SW17,1*%
%TO.N,P0.31*%
X118467000Y-106121500D03*
%TD*%
%TO.P,SW13,2*%
%TO.N,Net-(D13-Pad2)*%
X131394000Y-84531500D03*
%TO.P,SW13,1*%
%TO.N,P0.29*%
X118467000Y-87071500D03*
%TD*%
%TA.AperFunction,SMDPad,CuDef*%
D11*
%TO.P,SW19,2*%
%TO.N,Net-(D19-Pad2)*%
G36*
X158781021Y-113189930D02*
G01*
X161243040Y-113624050D01*
X160800237Y-116135310D01*
X158338218Y-115701190D01*
X158781021Y-113189930D01*
G37*
%TD.AperFunction*%
%TA.AperFunction,SMDPad,CuDef*%
%TO.P,SW19,1*%
%TO.N,P0.02*%
G36*
X159037683Y-126361607D02*
G01*
X161499702Y-126795727D01*
X161056899Y-129306987D01*
X158594880Y-128872867D01*
X159037683Y-126361607D01*
G37*
%TD.AperFunction*%
%TD*%
D15*
%TO.P,SW15,2*%
%TO.N,Net-(D15-Pad2)*%
X169494000Y-90945000D03*
%TO.P,SW15,1*%
%TO.N,P1.13*%
X156567000Y-93485000D03*
%TD*%
%TO.P,SW2,2*%
%TO.N,Net-(D2-Pad2)*%
X112344000Y-48908000D03*
%TO.P,SW2,1*%
%TO.N,P0.31*%
X99417000Y-51448000D03*
%TD*%
%TO.P,SW7,2*%
%TO.N,Net-(D7-Pad2)*%
X112344000Y-67958000D03*
%TO.P,SW7,1*%
%TO.N,P0.31*%
X99417000Y-70498000D03*
%TD*%
D16*
%TO.P,RSW1,2*%
%TO.N,GND*%
X194200000Y-79250000D03*
%TO.P,RSW1,1*%
%TO.N,RESET*%
X200700000Y-79250000D03*
%TD*%
%TA.AperFunction,SMDPad,CuDef*%
D11*
%TO.P,SW6,2*%
%TO.N,Net-(D6-Pad2)*%
G36*
X90883847Y-69554747D02*
G01*
X91145168Y-72041052D01*
X88609137Y-72307599D01*
X88347816Y-69821294D01*
X90883847Y-69554747D01*
G37*
%TD.AperFunction*%
%TA.AperFunction,SMDPad,CuDef*%
%TO.P,SW6,1*%
%TO.N,P0.30*%
G36*
X78293165Y-73432073D02*
G01*
X78554486Y-75918378D01*
X76018455Y-76184925D01*
X75757134Y-73698620D01*
X78293165Y-73432073D01*
G37*
%TD.AperFunction*%
%TD*%
%TA.AperFunction,SMDPad,CuDef*%
%TO.P,SW21,2*%
%TO.N,Net-(D21-Pad2)*%
G36*
X199380903Y-122922720D02*
G01*
X201730134Y-123777770D01*
X200857983Y-126173986D01*
X198508752Y-125318936D01*
X199380903Y-122922720D01*
G37*
%TD.AperFunction*%
%TA.AperFunction,SMDPad,CuDef*%
%TO.P,SW21,1*%
%TO.N,P1.13*%
G36*
X197346428Y-135938858D02*
G01*
X199695659Y-136793908D01*
X198823508Y-139190124D01*
X196474277Y-138335074D01*
X197346428Y-135938858D01*
G37*
%TD.AperFunction*%
%TD*%
%TA.AperFunction,SMDPad,CuDef*%
%TO.P,SW20,2*%
%TO.N,Net-(D20-Pad2)*%
G36*
X179318705Y-117166682D02*
G01*
X181733520Y-117813729D01*
X181073531Y-120276840D01*
X178658716Y-119629793D01*
X179318705Y-117166682D01*
G37*
%TD.AperFunction*%
%TA.AperFunction,SMDPad,CuDef*%
%TO.P,SW20,1*%
%TO.N,P1.13*%
G36*
X178426402Y-130310605D02*
G01*
X180841217Y-130957652D01*
X180181228Y-133420763D01*
X177766413Y-132773716D01*
X178426402Y-130310605D01*
G37*
%TD.AperFunction*%
%TD*%
D17*
%TO.P,D17,2*%
%TO.N,Net-(D17-Pad2)*%
X133616500Y-107010500D03*
%TO.P,D17,1*%
%TO.N,P0.09*%
X133616500Y-110560500D03*
%TD*%
%TA.AperFunction,SMDPad,CuDef*%
D11*
%TO.P,D19,2*%
%TO.N,Net-(D19-Pad2)*%
G36*
X164217351Y-113116650D02*
G01*
X164043702Y-114101458D01*
X162664971Y-113858350D01*
X162838620Y-112873542D01*
X164217351Y-113116650D01*
G37*
%TD.AperFunction*%
%TA.AperFunction,SMDPad,CuDef*%
%TO.P,D19,1*%
%TO.N,P0.09*%
G36*
X167713419Y-113733102D02*
G01*
X167539770Y-114717910D01*
X166161039Y-114474802D01*
X166334688Y-113489994D01*
X167713419Y-113733102D01*
G37*
%TD.AperFunction*%
%TD*%
D17*
%TO.P,D5,2*%
%TO.N,Net-(D5-Pad2)*%
X171843500Y-56277000D03*
%TO.P,D5,1*%
%TO.N,P0.20*%
X171843500Y-59827000D03*
%TD*%
D15*
%TO.P,SW14,2*%
%TO.N,Net-(D14-Pad2)*%
X150444000Y-87008000D03*
%TO.P,SW14,1*%
%TO.N,P0.02*%
X137517000Y-89548000D03*
%TD*%
D17*
%TO.P,D3,2*%
%TO.N,Net-(D3-Pad2)*%
X133680000Y-49797000D03*
%TO.P,D3,1*%
%TO.N,P0.20*%
X133680000Y-53347000D03*
%TD*%
D15*
%TO.P,SW16,2*%
%TO.N,Net-(D16-Pad2)*%
X112344000Y-106058000D03*
%TO.P,SW16,1*%
%TO.N,P0.30*%
X99417000Y-108598000D03*
%TD*%
D18*
%TO.P,J2,4*%
%TO.N,GND*%
X200050000Y-67170000D03*
%TO.P,J2,3*%
%TO.N,VCC*%
X200050000Y-69710000D03*
%TO.P,J2,2*%
%TO.N,P0.17*%
X200050000Y-72250000D03*
%TO.P,J2,1*%
%TO.N,P0.15*%
X200050000Y-74790000D03*
%TD*%
D17*
%TO.P,D7,2*%
%TO.N,Net-(D7-Pad2)*%
X114630000Y-71263000D03*
%TO.P,D7,1*%
%TO.N,P0.13*%
X114630000Y-74813000D03*
%TD*%
%TA.AperFunction,SMDPad,CuDef*%
D11*
%TO.P,SW1,2*%
%TO.N,Net-(D1-Pad2)*%
G36*
X88915347Y-50631747D02*
G01*
X89176668Y-53118052D01*
X86640637Y-53384599D01*
X86379316Y-50898294D01*
X88915347Y-50631747D01*
G37*
%TD.AperFunction*%
%TA.AperFunction,SMDPad,CuDef*%
%TO.P,SW1,1*%
%TO.N,P0.30*%
G36*
X76324665Y-54509073D02*
G01*
X76585986Y-56995378D01*
X74049955Y-57261925D01*
X73788634Y-54775620D01*
X76324665Y-54509073D01*
G37*
%TD.AperFunction*%
%TD*%
%TA.AperFunction,SMDPad,CuDef*%
%TO.P,D11,2*%
%TO.N,Net-(D11-Pad2)*%
G36*
X94694893Y-93824125D02*
G01*
X93700371Y-93928654D01*
X93554031Y-92536323D01*
X94548553Y-92431794D01*
X94694893Y-93824125D01*
G37*
%TD.AperFunction*%
%TA.AperFunction,SMDPad,CuDef*%
%TO.P,D11,1*%
%TO.N,P0.24*%
G36*
X95065969Y-97354677D02*
G01*
X94071447Y-97459206D01*
X93925107Y-96066875D01*
X94919629Y-95962346D01*
X95065969Y-97354677D01*
G37*
%TD.AperFunction*%
%TD*%
%TA.AperFunction,SMDPad,CuDef*%
%TO.P,D20,2*%
%TO.N,Net-(D20-Pad2)*%
G36*
X184714058Y-117630710D02*
G01*
X184455239Y-118596636D01*
X183102942Y-118234290D01*
X183361761Y-117268364D01*
X184714058Y-117630710D01*
G37*
%TD.AperFunction*%
%TA.AperFunction,SMDPad,CuDef*%
%TO.P,D20,1*%
%TO.N,P0.09*%
G36*
X188143094Y-118549518D02*
G01*
X187884275Y-119515444D01*
X186531978Y-119153098D01*
X186790797Y-118187172D01*
X188143094Y-118549518D01*
G37*
%TD.AperFunction*%
%TD*%
D17*
%TO.P,D13,2*%
%TO.N,Net-(D13-Pad2)*%
X133616500Y-87900000D03*
%TO.P,D13,1*%
%TO.N,P0.24*%
X133616500Y-91450000D03*
%TD*%
%TO.P,D8,2*%
%TO.N,Net-(D8-Pad2)*%
X133553000Y-68786500D03*
%TO.P,D8,1*%
%TO.N,P0.13*%
X133553000Y-72336500D03*
%TD*%
%TA.AperFunction,SMDPad,CuDef*%
D11*
%TO.P,SW11,2*%
%TO.N,Net-(D11-Pad2)*%
G36*
X92852347Y-88541247D02*
G01*
X93113668Y-91027552D01*
X90577637Y-91294099D01*
X90316316Y-88807794D01*
X92852347Y-88541247D01*
G37*
%TD.AperFunction*%
%TA.AperFunction,SMDPad,CuDef*%
%TO.P,SW11,1*%
%TO.N,P0.30*%
G36*
X80261665Y-92418573D02*
G01*
X80522986Y-94904878D01*
X77986955Y-95171425D01*
X77725634Y-92685120D01*
X80261665Y-92418573D01*
G37*
%TD.AperFunction*%
%TD*%
D17*
%TO.P,D4,2*%
%TO.N,Net-(D4-Pad2)*%
X152793500Y-52276500D03*
%TO.P,D4,1*%
%TO.N,P0.20*%
X152793500Y-55826500D03*
%TD*%
D15*
%TO.P,SW10,2*%
%TO.N,Net-(D10-Pad2)*%
X169494000Y-71895000D03*
%TO.P,SW10,1*%
%TO.N,P1.13*%
X156567000Y-74435000D03*
%TD*%
D19*
%TO.P,J1,A*%
%TO.N,Net-(J1-PadA)*%
X194889500Y-64137000D03*
%TO.P,J1,D*%
%TO.N,VCC*%
X199089500Y-62637000D03*
%TO.P,J1,C*%
%TO.N,GND*%
X199089500Y-58637000D03*
%TO.P,J1,B*%
%TO.N,P0.08*%
X199089500Y-55637000D03*
%TD*%
D15*
%TO.P,SW9,2*%
%TO.N,Net-(D9-Pad2)*%
X150444000Y-67958000D03*
%TO.P,SW9,1*%
%TO.N,P0.02*%
X137517000Y-70498000D03*
%TD*%
D17*
%TO.P,D2,2*%
%TO.N,Net-(D2-Pad2)*%
X114566500Y-52149500D03*
%TO.P,D2,1*%
%TO.N,P0.20*%
X114566500Y-55699500D03*
%TD*%
%TA.AperFunction,SMDPad,CuDef*%
D11*
%TO.P,D21,2*%
%TO.N,Net-(D21-Pad2)*%
G36*
X204866795Y-123734568D02*
G01*
X204524775Y-124674260D01*
X203209205Y-124195432D01*
X203551225Y-123255740D01*
X204866795Y-123734568D01*
G37*
%TD.AperFunction*%
%TA.AperFunction,SMDPad,CuDef*%
%TO.P,D21,1*%
%TO.N,P0.10*%
G36*
X208202703Y-124948740D02*
G01*
X207860683Y-125888432D01*
X206545113Y-125409604D01*
X206887133Y-124469912D01*
X208202703Y-124948740D01*
G37*
%TD.AperFunction*%
%TD*%
D15*
%TO.P,SW12,2*%
%TO.N,Net-(D12-Pad2)*%
X112344000Y-87008000D03*
%TO.P,SW12,1*%
%TO.N,P0.31*%
X99417000Y-89548000D03*
%TD*%
%TO.P,SW3,2*%
%TO.N,Net-(D3-Pad2)*%
X131394000Y-46431500D03*
%TO.P,SW3,1*%
%TO.N,P0.29*%
X118467000Y-48971500D03*
%TD*%
D17*
%TO.P,D16,2*%
%TO.N,Net-(D16-Pad2)*%
X114503000Y-109677500D03*
%TO.P,D16,1*%
%TO.N,P0.09*%
X114503000Y-113227500D03*
%TD*%
%TA.AperFunction,SMDPad,CuDef*%
D11*
%TO.P,D1,2*%
%TO.N,Net-(D1-Pad2)*%
G36*
X90694393Y-55724125D02*
G01*
X89699871Y-55828654D01*
X89553531Y-54436323D01*
X90548053Y-54331794D01*
X90694393Y-55724125D01*
G37*
%TD.AperFunction*%
%TA.AperFunction,SMDPad,CuDef*%
%TO.P,D1,1*%
%TO.N,P0.20*%
G36*
X91065469Y-59254677D02*
G01*
X90070947Y-59359206D01*
X89924607Y-57966875D01*
X90919129Y-57862346D01*
X91065469Y-59254677D01*
G37*
%TD.AperFunction*%
%TD*%
D17*
%TO.P,D12,2*%
%TO.N,Net-(D12-Pad2)*%
X114630000Y-90373500D03*
%TO.P,D12,1*%
%TO.N,P0.24*%
X114630000Y-93923500D03*
%TD*%
%TA.AperFunction,SMDPad,CuDef*%
D11*
%TO.P,D6,2*%
%TO.N,Net-(D6-Pad2)*%
G36*
X92657931Y-74761401D02*
G01*
X91663409Y-74865930D01*
X91517069Y-73473599D01*
X92511591Y-73369070D01*
X92657931Y-74761401D01*
G37*
%TD.AperFunction*%
%TA.AperFunction,SMDPad,CuDef*%
%TO.P,D6,1*%
%TO.N,P0.13*%
G36*
X93029007Y-78291953D02*
G01*
X92034485Y-78396482D01*
X91888145Y-77004151D01*
X92882667Y-76899622D01*
X93029007Y-78291953D01*
G37*
%TD.AperFunction*%
%TD*%
D17*
%TO.P,D14,2*%
%TO.N,Net-(D14-Pad2)*%
X152666500Y-90373500D03*
%TO.P,D14,1*%
%TO.N,P0.24*%
X152666500Y-93923500D03*
%TD*%
%TO.P,D10,2*%
%TO.N,Net-(D10-Pad2)*%
X171780000Y-75136500D03*
%TO.P,D10,1*%
%TO.N,P0.13*%
X171780000Y-78686500D03*
%TD*%
%TO.P,D15,2*%
%TO.N,Net-(D15-Pad2)*%
X171653000Y-94183500D03*
%TO.P,D15,1*%
%TO.N,P0.24*%
X171653000Y-97733500D03*
%TD*%
D15*
%TO.P,SW8,2*%
%TO.N,Net-(D8-Pad2)*%
X131394000Y-65481500D03*
%TO.P,SW8,1*%
%TO.N,P0.29*%
X118467000Y-68021500D03*
%TD*%
D17*
%TO.P,D9,2*%
%TO.N,Net-(D9-Pad2)*%
X152730000Y-71326500D03*
%TO.P,D9,1*%
%TO.N,P0.13*%
X152730000Y-74876500D03*
%TD*%
%TO.P,D18,2*%
%TO.N,Net-(D18-Pad2)*%
X152603000Y-109550500D03*
%TO.P,D18,1*%
%TO.N,P0.09*%
X152603000Y-113100500D03*
%TD*%
D15*
%TO.P,SW18,2*%
%TO.N,Net-(D18-Pad2)*%
X150444000Y-106058000D03*
%TO.P,SW18,1*%
%TO.N,P0.29*%
X137517000Y-108598000D03*
%TD*%
D20*
%TO.N,VCC*%
X178066500Y-63957500D03*
X172351500Y-86436500D03*
X170573500Y-114821000D03*
X171653000Y-119266000D03*
X168668500Y-101232000D03*
X170510000Y-116789500D03*
X167789500Y-82626500D03*
X112598000Y-115838000D03*
X169557500Y-82626500D03*
X95770500Y-107899500D03*
%TO.N,GND*%
X204673000Y-135458500D03*
X185242000Y-129553000D03*
X174129500Y-58750500D03*
X167462000Y-127076500D03*
X174066000Y-61290500D03*
X81292500Y-101295500D03*
X82308500Y-99327000D03*
X156767242Y-118694500D03*
X191925000Y-87500000D03*
%TO.N,LED*%
X158826000Y-62814500D03*
X189814000Y-58750500D03*
X179209500Y-62687500D03*
X188544000Y-59957000D03*
%TO.N,Net-(LED7-Pad2)*%
X140030000Y-59576000D03*
X140093500Y-61573010D03*
X168287500Y-62560500D03*
X165107000Y-65952500D03*
%TO.N,Net-(LED8-Pad2)*%
X149301000Y-58560000D03*
X120599000Y-60213000D03*
X138379000Y-62306500D03*
X120535500Y-57163000D03*
%TO.N,Net-(LED10-Pad4)*%
X108618831Y-62073831D03*
X119075000Y-62179500D03*
X103835000Y-61925500D03*
X132854500Y-56147000D03*
%TO.N,Net-(LED10-Pad2)*%
X98201280Y-66847761D03*
X111645500Y-58496500D03*
%TO.N,Net-(LED11-Pad2)*%
X80911500Y-82563000D03*
X89645335Y-65320165D03*
%TO.N,Net-(LED16-Pad2)*%
X159334000Y-101295500D03*
X163779000Y-86627000D03*
%TO.N,Net-(LED17-Pad2)*%
X162699500Y-104957039D03*
X168028549Y-102802069D03*
X140093500Y-97739500D03*
X140107000Y-99673010D03*
%TO.N,Net-(LED18-Pad2)*%
X121424500Y-96342500D03*
X149237500Y-96533000D03*
X149237500Y-101989510D03*
X121424500Y-101539500D03*
%TO.N,Net-(LED19-Pad2)*%
X122059500Y-99517500D03*
X106883000Y-99390500D03*
X109867500Y-99454000D03*
X130568500Y-95336500D03*
%TO.N,Net-(LED20-Pad2)*%
X105168500Y-100470000D03*
X102773280Y-100457300D03*
X85166000Y-102946500D03*
X111582000Y-96596500D03*
%TO.N,Net-(LED21-Pad2)*%
X102107000Y-116552500D03*
X92532000Y-101041500D03*
X92595500Y-103835500D03*
X92595500Y-107836000D03*
%TO.N,Net-(LED24-Pad2)*%
X154254000Y-117223010D03*
%TO.N,P0.20*%
X189560000Y-69609000D03*
X178130000Y-60211000D03*
%TO.N,P0.13*%
X173177000Y-78753000D03*
%TO.N,P0.24*%
X97065900Y-94419720D03*
X96989700Y-96987660D03*
X173177000Y-97612500D03*
%TO.N,P0.09*%
X189560000Y-78626000D03*
X173792000Y-100147500D03*
X118440000Y-102883000D03*
X118440000Y-108661500D03*
X137363000Y-110630000D03*
X137363000Y-106248500D03*
%TO.N,P0.08*%
X192975000Y-67650000D03*
X192975000Y-74775000D03*
X195150000Y-74750000D03*
X195149999Y-77975000D03*
X196500000Y-81100000D03*
%TO.N,P0.17*%
X198375000Y-70075000D03*
X196100000Y-83775000D03*
X182045273Y-88820273D03*
%TO.N,P0.15*%
X184035500Y-82698130D03*
X193053000Y-76000000D03*
X196400000Y-75375000D03*
%TO.N,RESET*%
X178130000Y-61417500D03*
X197363919Y-71295420D03*
X197350000Y-73075000D03*
X197450000Y-80100000D03*
X199150000Y-81100000D03*
%TO.N,P0.30*%
X134207000Y-102164500D03*
X135765500Y-102164500D03*
X96977000Y-108661500D03*
X140057000Y-101373021D03*
X108932000Y-101095000D03*
%TO.N,P0.31*%
X116725500Y-100216000D03*
X99390000Y-73165000D03*
X99390000Y-53988000D03*
X116027000Y-106121500D03*
X99453500Y-87135000D03*
X99453500Y-68085000D03*
X101549000Y-95413000D03*
%TO.N,P0.29*%
X118440000Y-70561500D03*
X118440000Y-65418000D03*
X135966000Y-99581000D03*
X135140500Y-108661500D03*
X118503500Y-90754500D03*
X118440000Y-51511500D03*
X118503500Y-84468000D03*
%TO.N,P0.02*%
X137490000Y-73165000D03*
X137553500Y-53988000D03*
X154762000Y-88097500D03*
X137553500Y-93358000D03*
X137617000Y-68021500D03*
X137490000Y-87071500D03*
X157492500Y-127711500D03*
%TO.N,P1.13*%
X157429000Y-87516000D03*
X156603500Y-90881500D03*
X156603500Y-76975000D03*
X156540000Y-96152000D03*
X199656500Y-138760500D03*
X156540000Y-71831500D03*
X185771447Y-133120773D03*
X156540000Y-57925000D03*
X176860000Y-131458000D03*
%TD*%
D21*
%TO.N,Net-(D1-Pad2)*%
X87777992Y-52008173D02*
X87777992Y-52734254D01*
X87777992Y-52734254D02*
X90123962Y-55080224D01*
%TO.N,Net-(D2-Pad2)*%
X112344000Y-48908000D02*
X112344000Y-49927000D01*
X112344000Y-48908000D02*
X112344000Y-49228500D01*
X112344000Y-49927000D02*
X114566500Y-52149500D01*
%TO.N,Net-(D3-Pad2)*%
X131394000Y-47511000D02*
X133680000Y-49797000D01*
X131394000Y-46431500D02*
X131394000Y-47511000D01*
%TO.N,Net-(D4-Pad2)*%
X150444000Y-48908000D02*
X150444000Y-49927000D01*
X150444000Y-49927000D02*
X152793500Y-52276500D01*
%TO.N,Net-(D5-Pad2)*%
X169494000Y-53927500D02*
X171843500Y-56277000D01*
X169494000Y-52845000D02*
X169494000Y-53927500D01*
%TO.N,Net-(D6-Pad2)*%
X92087500Y-74117500D02*
X92087500Y-73272181D01*
X92087500Y-73272181D02*
X89746492Y-70931173D01*
%TO.N,Net-(D7-Pad2)*%
X112344000Y-67958000D02*
X112344000Y-68977000D01*
X112344000Y-68977000D02*
X114630000Y-71263000D01*
%TO.N,Net-(D8-Pad2)*%
X131394000Y-65481500D02*
X131394000Y-66627500D01*
X131394000Y-66627500D02*
X133553000Y-68786500D01*
%TO.N,Net-(D9-Pad2)*%
X150444000Y-69040500D02*
X152730000Y-71326500D01*
X150444000Y-67958000D02*
X150444000Y-69040500D01*
%TO.N,Net-(D10-Pad2)*%
X169494000Y-72850500D02*
X171780000Y-75136500D01*
X169494000Y-71895000D02*
X169494000Y-72850500D01*
%TO.N,Net-(D11-Pad2)*%
X91714992Y-90770754D02*
X94124462Y-93180224D01*
X91714992Y-89917673D02*
X91714992Y-90770754D01*
%TO.N,Net-(D12-Pad2)*%
X112344000Y-87008000D02*
X112344000Y-88087500D01*
X112344000Y-88087500D02*
X114630000Y-90373500D01*
%TO.N,Net-(D13-Pad2)*%
X131394000Y-85677500D02*
X133616500Y-87900000D01*
X131394000Y-84531500D02*
X131394000Y-85677500D01*
%TO.N,Net-(D14-Pad2)*%
X150444000Y-87008000D02*
X151587000Y-87008000D01*
X150444000Y-87008000D02*
X150444000Y-88151000D01*
X150444000Y-88151000D02*
X152666500Y-90373500D01*
%TO.N,Net-(D15-Pad2)*%
X169494000Y-92024500D02*
X171653000Y-94183500D01*
X169494000Y-90945000D02*
X169494000Y-92024500D01*
%TO.N,Net-(D16-Pad2)*%
X112344000Y-107518500D02*
X114503000Y-109677500D01*
X112344000Y-106058000D02*
X112344000Y-107518500D01*
%TO.N,Net-(D17-Pad2)*%
X131394000Y-104788000D02*
X133616500Y-107010500D01*
X131394000Y-103581500D02*
X131394000Y-104788000D01*
%TO.N,Net-(D18-Pad2)*%
X150444000Y-106058000D02*
X150444000Y-107391500D01*
X150444000Y-107391500D02*
X152603000Y-109550500D01*
%TO.N,Net-(D19-Pad2)*%
X162266041Y-114662620D02*
X163441161Y-113487500D01*
X159790629Y-114662620D02*
X162266041Y-114662620D01*
%TO.N,Net-(D20-Pad2)*%
X183119239Y-118721761D02*
X183908500Y-117932500D01*
X180196118Y-118721761D02*
X183119239Y-118721761D01*
%TO.N,Net-(D21-Pad2)*%
X203454647Y-124548353D02*
X204038000Y-123965000D01*
X200119443Y-124548353D02*
X203454647Y-124548353D01*
D22*
%TO.N,VCC*%
X147371500Y-79513000D02*
X144126999Y-82757501D01*
X166711000Y-101232000D02*
X166446000Y-101497000D01*
X158311012Y-100022976D02*
X155851036Y-97563000D01*
X147011490Y-98923010D02*
X137453136Y-98923010D01*
X166358000Y-63400000D02*
X173699000Y-63400000D01*
X105837500Y-101997000D02*
X106058220Y-101776280D01*
X147371500Y-98563000D02*
X147011490Y-98923010D01*
X166446000Y-101497000D02*
X166446000Y-102497000D01*
X166358000Y-64400000D02*
X166358000Y-63400000D01*
X139435510Y-60823010D02*
X146720753Y-60823010D01*
X128258000Y-57986500D02*
X128258000Y-56986500D01*
X126825500Y-78513000D02*
X121444502Y-78513000D01*
X109271500Y-98563000D02*
X109271500Y-97563000D01*
X172081001Y-80959001D02*
X172081001Y-86166001D01*
X172081001Y-80959001D02*
X170413502Y-82626500D01*
X173699000Y-63400000D02*
X173927001Y-63628001D01*
X173927001Y-79113001D02*
X172081001Y-80959001D01*
X127762773Y-117973010D02*
X147011490Y-117973010D01*
X153875833Y-78513000D02*
X147371500Y-78513000D01*
X147371500Y-117613000D02*
X147371500Y-116613000D01*
X131070001Y-82757501D02*
X126825500Y-78513000D01*
X173699000Y-63400000D02*
X175962900Y-63400000D01*
X168668500Y-101232000D02*
X166711000Y-101232000D01*
X154364498Y-59463000D02*
X158612510Y-63711012D01*
X165997990Y-64760010D02*
X166358000Y-64400000D01*
X121444502Y-78513000D02*
X116999502Y-82958000D01*
X126845000Y-97563000D02*
X128321500Y-96086500D01*
X95779799Y-104253641D02*
X103580859Y-104253641D01*
X134616626Y-96086500D02*
X128321500Y-96086500D01*
X144126999Y-82757501D02*
X131070001Y-82757501D01*
X105798500Y-63833500D02*
X109169000Y-60463000D01*
X103580859Y-104253641D02*
X106058220Y-101776280D01*
X147371500Y-97563000D02*
X147371500Y-98563000D01*
X103324000Y-63833500D02*
X101059739Y-66097761D01*
X109271500Y-79513000D02*
X105826500Y-82958000D01*
X109169000Y-59463000D02*
X126781500Y-59463000D01*
X158311012Y-102858510D02*
X158311012Y-100022976D01*
X158612510Y-64760010D02*
X165997990Y-64760010D01*
X147011490Y-117973010D02*
X147371500Y-117613000D01*
X196024267Y-136652267D02*
X196024267Y-138521476D01*
X205643752Y-139640134D02*
X210125393Y-135158493D01*
X210125393Y-135158493D02*
X210125393Y-131604564D01*
X170510000Y-114884500D02*
X170573500Y-114821000D01*
X169666231Y-119636107D02*
X171282893Y-119636107D01*
X197142925Y-139640134D02*
X205643752Y-139640134D01*
X170510000Y-116789500D02*
X170510000Y-114884500D01*
X171282893Y-119636107D02*
X171653000Y-119266000D01*
X190891762Y-131519762D02*
X196024267Y-136652267D01*
X209632157Y-131111328D02*
X209100069Y-131111328D01*
X210125393Y-131604564D02*
X209632157Y-131111328D01*
X196024267Y-138521476D02*
X197142925Y-139640134D01*
X116999502Y-82958000D02*
X105826500Y-82958000D01*
X173927001Y-63628001D02*
X173927001Y-79113001D01*
X105798500Y-63833500D02*
X103324000Y-63833500D01*
X155851036Y-97563000D02*
X147371500Y-97563000D01*
X166534500Y-82626500D02*
X166358000Y-82450000D01*
X176821400Y-63957500D02*
X176113400Y-63249500D01*
X166358000Y-83071263D02*
X165619253Y-83810010D01*
X178066500Y-63957500D02*
X176821400Y-63957500D01*
X128258000Y-56986500D02*
X135599000Y-56986500D01*
X147371500Y-78513000D02*
X147371500Y-79513000D01*
X159172843Y-83810010D02*
X153875833Y-78513000D01*
X126781500Y-59463000D02*
X128258000Y-57986500D01*
X167789500Y-82626500D02*
X166534500Y-82626500D01*
X109271500Y-97563000D02*
X126845000Y-97563000D01*
X137453136Y-98923010D02*
X134616626Y-96086500D01*
X147459500Y-60084263D02*
X147459500Y-59463000D01*
X126402763Y-116613000D02*
X128258000Y-114757763D01*
X172081001Y-86166001D02*
X172351500Y-86436500D01*
X166358000Y-82450000D02*
X166358000Y-83071263D01*
X170413502Y-82626500D02*
X169557500Y-82626500D01*
X128365500Y-76973000D02*
X126825500Y-78513000D01*
X128321500Y-96086500D02*
X128321500Y-95086500D01*
X158612510Y-63711012D02*
X158612510Y-64760010D01*
X146720753Y-60823010D02*
X147459500Y-60084263D01*
X109169000Y-60463000D02*
X109169000Y-59463000D01*
X175962900Y-63400000D02*
X176113400Y-63249500D01*
X128365500Y-75973000D02*
X128365500Y-76973000D01*
X166084490Y-102858510D02*
X158311012Y-102858510D01*
X135599000Y-56986500D02*
X139435510Y-60823010D01*
X106058220Y-101776280D02*
X109271500Y-98563000D01*
X147459500Y-59463000D02*
X154364498Y-59463000D01*
X93532658Y-102006500D02*
X91044509Y-102006500D01*
X109271500Y-78513000D02*
X109271500Y-79513000D01*
X109271500Y-116613000D02*
X112457000Y-116613000D01*
D21*
X199089500Y-62637000D02*
X199089500Y-63191000D01*
D22*
X93532658Y-102006500D02*
X95779799Y-104253641D01*
X166446000Y-102497000D02*
X166084490Y-102858510D01*
X112598000Y-115838000D02*
X112598000Y-116472000D01*
X95779799Y-107890201D02*
X95770500Y-107899500D01*
X89362270Y-66097761D02*
X85947340Y-62682831D01*
X95779799Y-104253641D02*
X95779799Y-107890201D01*
X173219419Y-128927421D02*
X178162771Y-133870773D01*
X112457000Y-116613000D02*
X126402763Y-116613000D01*
X178162771Y-133870773D02*
X186155282Y-133870773D01*
X169666231Y-119636107D02*
X170173944Y-119636107D01*
X170173944Y-119636107D02*
X173219419Y-122681582D01*
X189980838Y-124517846D02*
X189769296Y-124517846D01*
X112598000Y-116472000D02*
X112457000Y-116613000D01*
X101059739Y-66097761D02*
X89362270Y-66097761D01*
X89141009Y-82958000D02*
X87915840Y-81732831D01*
X105826500Y-82958000D02*
X89141009Y-82958000D01*
X91044509Y-102006500D02*
X89947840Y-100909831D01*
X173219419Y-122681582D02*
X173219419Y-128927421D01*
X190891762Y-125428770D02*
X189980838Y-124517846D01*
X165619253Y-83810010D02*
X159172843Y-83810010D01*
X126402763Y-116613000D02*
X127762773Y-117973010D01*
X128258000Y-114757763D02*
X128258000Y-114136500D01*
X190387813Y-129638242D02*
X186155282Y-133870773D01*
X190387813Y-127464185D02*
X190387813Y-129638242D01*
X190891762Y-126960236D02*
X190387813Y-127464185D01*
X190891762Y-125428770D02*
X190891762Y-126960236D01*
X190891762Y-130142191D02*
X190387813Y-129638242D01*
X190891762Y-131519762D02*
X190891762Y-130142191D01*
X191675000Y-90375000D02*
X191825000Y-90525000D01*
X189525000Y-90425000D02*
X189575000Y-90375000D01*
X188558762Y-90425000D02*
X189525000Y-90425000D01*
X185713262Y-87579500D02*
X188558762Y-90425000D01*
X189575000Y-90375000D02*
X191675000Y-90375000D01*
X184988000Y-87579500D02*
X185713262Y-87579500D01*
%TO.N,GND*%
X160946000Y-100097000D02*
X159374998Y-100097000D01*
X187866502Y-58169500D02*
X190406502Y-60709500D01*
X175532400Y-58750500D02*
X176113400Y-58169500D01*
X190406502Y-60709500D02*
X191333400Y-60709500D01*
X116689502Y-55586500D02*
X122758000Y-55586500D01*
X104131510Y-94802990D02*
X103771500Y-95163000D01*
X103771500Y-114213000D02*
X103771500Y-115213000D01*
X122758000Y-112115237D02*
X122758000Y-112736500D01*
X103771500Y-95163000D02*
X103771500Y-96163000D01*
X113769999Y-95073501D02*
X113499488Y-94802990D01*
X132894502Y-115213000D02*
X129057992Y-111376490D01*
X103669000Y-57441737D02*
X104407747Y-56702990D01*
X122758000Y-54965237D02*
X123496747Y-54226490D01*
X191333400Y-60709500D02*
X193405900Y-58637000D01*
X141871500Y-95163000D02*
X141871500Y-96163000D01*
X141871500Y-115213000D02*
X132894502Y-115213000D01*
X122758000Y-112736500D02*
X117004002Y-112736500D01*
X150514990Y-114637990D02*
X156248304Y-114637990D01*
X193405900Y-58637000D02*
X194109900Y-58637000D01*
X191333400Y-60709500D02*
X191333400Y-63249500D01*
X123560247Y-92326490D02*
X122821500Y-93065237D01*
X117004002Y-112736500D02*
X115363001Y-114377501D01*
X141698010Y-56701490D02*
X141788500Y-56791980D01*
X151467490Y-95587990D02*
X150682490Y-94802990D01*
X132482988Y-92326490D02*
X123560247Y-92326490D01*
X176113400Y-58169500D02*
X187866502Y-58169500D01*
X146720753Y-56702990D02*
X146551253Y-56702990D01*
X110046990Y-113852990D02*
X104131510Y-113852990D01*
X113499488Y-94802990D02*
X104131510Y-94802990D01*
X174129500Y-58750500D02*
X175532400Y-58750500D01*
X122821500Y-93065237D02*
X122821500Y-93686500D01*
X141871500Y-96163000D02*
X140094990Y-94386490D01*
X146549753Y-56701490D02*
X141698010Y-56701490D01*
X150682490Y-94802990D02*
X142231510Y-94802990D01*
X171296998Y-61290500D02*
X174066000Y-61290500D01*
X132419488Y-73212990D02*
X136319498Y-77113000D01*
X142231510Y-94802990D02*
X141871500Y-95163000D01*
X122865500Y-74573000D02*
X122865500Y-73573000D01*
X103771500Y-76491737D02*
X104510247Y-75752990D01*
X146994264Y-56976501D02*
X146720753Y-56702990D01*
X120715497Y-75963001D02*
X122105498Y-74573000D01*
X199089500Y-58637000D02*
X194109900Y-58637000D01*
X151596488Y-75752990D02*
X152881998Y-77038500D01*
X122821500Y-93686500D02*
X122061498Y-93686500D01*
X134735873Y-54497001D02*
X138301872Y-58063000D01*
X155556998Y-77038500D02*
X159568498Y-81050000D01*
X123496747Y-54226490D02*
X127519253Y-54226490D01*
X127519253Y-54226490D02*
X127789764Y-54497001D01*
X103771500Y-77113000D02*
X103771500Y-76491737D01*
X160858000Y-62000000D02*
X160858000Y-61000000D01*
X115426501Y-56849501D02*
X116689502Y-55586500D01*
X149729990Y-113852990D02*
X150514990Y-114637990D01*
X152881998Y-77038500D02*
X155556998Y-77038500D01*
X120674497Y-95073501D02*
X113769999Y-95073501D01*
X159278000Y-61998500D02*
X160838500Y-61998500D01*
X104407747Y-56702990D02*
X108430253Y-56702990D01*
X160858000Y-61000000D02*
X161218010Y-60639990D01*
X134542988Y-94386490D02*
X132482988Y-92326490D01*
X129057992Y-111376490D02*
X123496747Y-111376490D01*
X146994264Y-56976501D02*
X149432999Y-56976501D01*
X108430253Y-56702990D02*
X108576764Y-56849501D01*
X104131510Y-113852990D02*
X103771500Y-114213000D01*
X141871500Y-115213000D02*
X141871500Y-114213000D01*
X154865988Y-95587990D02*
X151467490Y-95587990D01*
X138301872Y-58063000D02*
X141959500Y-58063000D01*
X193803000Y-65719100D02*
X193803000Y-67196000D01*
X155182000Y-57902500D02*
X159278000Y-61998500D01*
X141871500Y-77113000D02*
X141871500Y-76113000D01*
D21*
X193803000Y-66431100D02*
X193803000Y-67196000D01*
D22*
X136319498Y-77113000D02*
X141871500Y-77113000D01*
X122105498Y-74573000D02*
X122865500Y-74573000D01*
X102421500Y-77113000D02*
X103771500Y-77113000D01*
X140094990Y-94386490D02*
X134542988Y-94386490D01*
X127789764Y-54497001D02*
X134735873Y-54497001D01*
X122061498Y-93686500D02*
X120674497Y-95073501D01*
X115363001Y-114377501D02*
X110571501Y-114377501D01*
X104510247Y-75752990D02*
X113679999Y-75752990D01*
X141871500Y-76113000D02*
X142231510Y-75752990D01*
X161218010Y-60639990D02*
X170646488Y-60639990D01*
X150358998Y-57902500D02*
X155182000Y-57902500D01*
X113679999Y-75752990D02*
X113890010Y-75963001D01*
X122758000Y-55586500D02*
X122758000Y-54965237D01*
X191333400Y-63249500D02*
X193803000Y-65719100D01*
X159568498Y-81050000D02*
X160858000Y-81050000D01*
X110571501Y-114377501D02*
X110046990Y-113852990D01*
X93559000Y-115213000D02*
X103771500Y-115213000D01*
X159374998Y-100097000D02*
X154865988Y-95587990D01*
X141871500Y-114213000D02*
X142231510Y-113852990D01*
X123225510Y-73212990D02*
X132419488Y-73212990D01*
X149432999Y-56976501D02*
X150358998Y-57902500D01*
X99253499Y-80281001D02*
X102421500Y-77113000D01*
X142231510Y-113852990D02*
X149729990Y-113852990D01*
X122865500Y-73573000D02*
X123225510Y-73212990D01*
X141788500Y-56791980D02*
X141788500Y-58061500D01*
X170646488Y-60639990D02*
X171296998Y-61290500D01*
X146551253Y-56702990D02*
X146549753Y-56701490D01*
X123496747Y-111376490D02*
X122758000Y-112115237D01*
X96162501Y-96163001D02*
X95511836Y-95512336D01*
X108576764Y-56849501D02*
X115426501Y-56849501D01*
X142231510Y-75752990D02*
X151596488Y-75752990D01*
X103669000Y-58063000D02*
X103669000Y-57441737D01*
X101909001Y-96163001D02*
X96162501Y-96163001D01*
X82299630Y-80078167D02*
X82299630Y-80915407D01*
X174037990Y-61262490D02*
X174066000Y-61290500D01*
X113890010Y-75963001D02*
X120715497Y-75963001D01*
X99253499Y-80281001D02*
X98276878Y-79304380D01*
X95511836Y-95512336D02*
X93097332Y-95512336D01*
X156248304Y-118175562D02*
X156767242Y-118694500D01*
X80331130Y-61865407D02*
X79476449Y-61865407D01*
X83393338Y-98242162D02*
X85344635Y-98242162D01*
X90367506Y-98242162D02*
X89351662Y-98242162D01*
X81292500Y-103581500D02*
X81292500Y-101295500D01*
X90941395Y-60015162D02*
X84924140Y-60015162D01*
X84331630Y-99255167D02*
X84331630Y-100092407D01*
X87188050Y-79304380D02*
X86892640Y-79065162D01*
X79476449Y-61865407D02*
X79129852Y-62212004D01*
X93097332Y-95512336D02*
X90367506Y-98242162D01*
X80923671Y-60435626D02*
X80594000Y-60765297D01*
X79129852Y-62212004D02*
X79129852Y-67556350D01*
X156248304Y-114637990D02*
X156248304Y-118175562D01*
X167332435Y-124809443D02*
X167332435Y-126946935D01*
X92924000Y-115213000D02*
X81292500Y-103581500D01*
X82299630Y-80915407D02*
X81225593Y-80915407D01*
X84924140Y-60015162D02*
X80923671Y-60435626D01*
X98276878Y-79304380D02*
X87188050Y-79304380D01*
X82308500Y-99327000D02*
X83393338Y-98242162D01*
X89351662Y-94796160D02*
X89351662Y-98242162D01*
X80161499Y-81979501D02*
X80161499Y-85605997D01*
X79129852Y-67556350D02*
X87188050Y-75614548D01*
X81225593Y-80915407D02*
X80161499Y-81979501D01*
X103752000Y-58061500D02*
X92895057Y-58061500D01*
X103752000Y-96161500D02*
X101910502Y-96161500D01*
X80594000Y-61602537D02*
X80331130Y-61865407D01*
X89351662Y-98242162D02*
X85344635Y-98242162D01*
X80161499Y-85605997D02*
X89351662Y-94796160D01*
X87188050Y-75614548D02*
X87188050Y-79304380D01*
X101910502Y-96161500D02*
X101909001Y-96163001D01*
X86892640Y-79065162D02*
X82892171Y-79485626D01*
X167332435Y-126946935D02*
X167462000Y-127076500D01*
X85344635Y-98242162D02*
X84331630Y-99255167D01*
X92895057Y-58061500D02*
X90941395Y-60015162D01*
X93559000Y-115213000D02*
X92924000Y-115213000D01*
X82892171Y-79485626D02*
X82299630Y-80078167D01*
X80594000Y-60765297D02*
X80594000Y-61602537D01*
X185326908Y-129468092D02*
X185242000Y-129553000D01*
X186993496Y-129468092D02*
X185326908Y-129468092D01*
X205561079Y-135458500D02*
X205903389Y-135800810D01*
X204673000Y-135458500D02*
X205561079Y-135458500D01*
X193803000Y-78853000D02*
X194200000Y-79250000D01*
X193803000Y-67196000D02*
X193803000Y-78853000D01*
X195213900Y-67130000D02*
X193803000Y-65719100D01*
X200050000Y-67130000D02*
X195213900Y-67130000D01*
X194200000Y-85225000D02*
X191925000Y-87500000D01*
X194200000Y-79250000D02*
X194200000Y-85225000D01*
X195825000Y-86850000D02*
X195825000Y-90525000D01*
X194200000Y-85225000D02*
X195825000Y-86850000D01*
D21*
%TO.N,LED*%
X159410000Y-63398500D02*
X158826000Y-62814500D01*
X179209500Y-62687500D02*
X185813500Y-62687500D01*
X189814000Y-57148900D02*
X191333400Y-55629500D01*
X160838500Y-63398500D02*
X159410000Y-63398500D01*
X185813500Y-62687500D02*
X188544000Y-59957000D01*
X189814000Y-58750500D02*
X189814000Y-57148900D01*
%TO.N,Net-(LED7-Pad2)*%
X167725500Y-61998500D02*
X168287500Y-62560500D01*
X164401999Y-66657501D02*
X153568999Y-66657501D01*
X148484508Y-61573010D02*
X140093500Y-61573010D01*
X141674000Y-59576000D02*
X141788500Y-59461500D01*
X166338500Y-61998500D02*
X167725500Y-61998500D01*
X153568999Y-66657501D02*
X148484508Y-61573010D01*
X165107000Y-65952500D02*
X164401999Y-66657501D01*
X140030000Y-59576000D02*
X141674000Y-59576000D01*
%TO.N,Net-(LED8-Pad2)*%
X147288500Y-58061500D02*
X148802500Y-58061500D01*
X120773990Y-60038010D02*
X120599000Y-60213000D01*
X127975062Y-60038010D02*
X120773990Y-60038010D01*
X122497000Y-57163000D02*
X122675000Y-56985000D01*
X148802500Y-58061500D02*
X149301000Y-58560000D01*
X138379000Y-62306500D02*
X130243552Y-62306500D01*
X120535500Y-57163000D02*
X122497000Y-57163000D01*
X130243552Y-62306500D02*
X127975062Y-60038010D01*
%TO.N,Net-(LED10-Pad4)*%
X108724500Y-62179500D02*
X108618831Y-62073831D01*
X128175000Y-55585000D02*
X132292500Y-55585000D01*
X119075000Y-62179500D02*
X108724500Y-62179500D01*
X103835000Y-59544500D02*
X103752000Y-59461500D01*
X132292500Y-55585000D02*
X132854500Y-56147000D01*
X103835000Y-61925500D02*
X103835000Y-59544500D01*
%TO.N,Net-(LED10-Pad2)*%
X111210500Y-58061500D02*
X111645500Y-58496500D01*
X83564739Y-66847761D02*
X98201280Y-66847761D01*
X80477470Y-63760492D02*
X83564739Y-66847761D01*
X80477470Y-63257738D02*
X80477470Y-63760492D01*
X109252000Y-58061500D02*
X111210500Y-58061500D01*
%TO.N,Net-(LED11-Pad2)*%
X89645335Y-64280154D02*
X89645335Y-65320165D01*
X80911500Y-82563000D02*
X82190708Y-82563000D01*
X86655681Y-61290500D02*
X89645335Y-64280154D01*
X85801000Y-61290500D02*
X86655681Y-61290500D01*
X82190708Y-82563000D02*
X82445970Y-82307738D01*
%TO.N,Net-(LED12-Pad2)*%
X87769500Y-80340500D02*
X98499812Y-80340500D01*
X99717312Y-81558000D02*
X100726500Y-81558000D01*
X98499812Y-80340500D02*
X99717312Y-81558000D01*
X100726500Y-81558000D02*
X103771500Y-78513000D01*
%TO.N,Net-(LED13-Pad2)*%
X109271500Y-77113000D02*
X121725500Y-77113000D01*
X121725500Y-77113000D02*
X122865500Y-75973000D01*
%TO.N,Net-(LED14-Pad2)*%
X139946510Y-77688010D02*
X140771500Y-78513000D01*
X128365500Y-74573000D02*
X132966312Y-74573000D01*
X141507498Y-78627500D02*
X142042500Y-78627500D01*
X140771500Y-78513000D02*
X141871500Y-78513000D01*
X132966312Y-74573000D02*
X136081322Y-77688010D01*
X136081322Y-77688010D02*
X139946510Y-77688010D01*
%TO.N,Net-(LED15-Pad2)*%
X160830998Y-82566000D02*
X161366000Y-82566000D01*
X148972010Y-77613510D02*
X155318822Y-77613510D01*
X147371500Y-77113000D02*
X148471500Y-77113000D01*
X155318822Y-77613510D02*
X160155312Y-82450000D01*
X160155312Y-82450000D02*
X160858000Y-82450000D01*
X148471500Y-77113000D02*
X148972010Y-77613510D01*
X160322998Y-82450000D02*
X160858000Y-82450000D01*
%TO.N,Net-(LED16-Pad2)*%
X159334000Y-101295500D02*
X160699000Y-101295500D01*
X166128500Y-84277500D02*
X163779000Y-86627000D01*
X167458000Y-81050000D02*
X168605000Y-82197000D01*
X168605000Y-84277500D02*
X166128500Y-84277500D01*
X160699000Y-101295500D02*
X160902000Y-101498500D01*
X168605000Y-82197000D02*
X168605000Y-84277500D01*
X166358000Y-81050000D02*
X167458000Y-81050000D01*
%TO.N,Net-(LED17-Pad2)*%
X162699500Y-104957039D02*
X159586539Y-104957039D01*
X140093500Y-97739500D02*
X141737500Y-97739500D01*
X169293501Y-101537117D02*
X168028549Y-102802069D01*
X152807000Y-98177500D02*
X152767510Y-98138010D01*
X152767510Y-98138010D02*
X149957000Y-98138010D01*
X157714176Y-100585324D02*
X157736002Y-100563498D01*
X149957000Y-98138010D02*
X148773992Y-98138010D01*
X159586539Y-104957039D02*
X157714176Y-103084676D01*
X157714176Y-103084676D02*
X157714176Y-100585324D01*
X166446000Y-100097000D02*
X168458502Y-100097000D01*
X168458502Y-100097000D02*
X169293501Y-100931999D01*
X141737500Y-97739500D02*
X141915500Y-97561500D01*
X157736002Y-100261152D02*
X155612860Y-98138010D01*
X157736002Y-100563498D02*
X157736002Y-100261152D01*
X148773992Y-98138010D02*
X147238992Y-99673010D01*
X147238992Y-99673010D02*
X140107000Y-99673010D01*
X169293501Y-100931999D02*
X169293501Y-101537117D01*
X155612860Y-98138010D02*
X152767510Y-98138010D01*
%TO.N,Net-(LED18-Pad2)*%
X139168498Y-101539500D02*
X121424500Y-101539500D01*
X139918507Y-102289509D02*
X139168498Y-101539500D01*
X148866000Y-96161500D02*
X149237500Y-96533000D01*
X121424500Y-96342500D02*
X121608000Y-96342500D01*
X147415500Y-96161500D02*
X148866000Y-96161500D01*
X149237500Y-101989510D02*
X148937501Y-102289509D01*
X121608000Y-96342500D02*
X122865500Y-95085000D01*
X148937501Y-102289509D02*
X139918507Y-102289509D01*
%TO.N,Net-(LED19-Pad2)*%
X106883000Y-99390500D02*
X104831000Y-99390500D01*
X103752000Y-98311500D02*
X103752000Y-97561500D01*
X130568500Y-94374000D02*
X130568500Y-95336500D01*
X109931000Y-99517500D02*
X109867500Y-99454000D01*
X128365500Y-93685000D02*
X129879500Y-93685000D01*
X122059500Y-99517500D02*
X109931000Y-99517500D01*
X104831000Y-99390500D02*
X103752000Y-98311500D01*
X129879500Y-93685000D02*
X130568500Y-94374000D01*
%TO.N,Net-(LED20-Pad2)*%
X105155800Y-100457300D02*
X105168500Y-100470000D01*
X109252000Y-96161500D02*
X111147000Y-96161500D01*
X84477970Y-102258470D02*
X84477970Y-101484738D01*
X102773280Y-100457300D02*
X105155800Y-100457300D01*
X111147000Y-96161500D02*
X111582000Y-96596500D01*
X85166000Y-102946500D02*
X84477970Y-102258470D01*
%TO.N,Net-(LED21-Pad2)*%
X91008000Y-99517500D02*
X92532000Y-101041500D01*
X102107000Y-116552500D02*
X103711000Y-116552500D01*
X92595500Y-103835500D02*
X92595500Y-107836000D01*
X89801500Y-99517500D02*
X91008000Y-99517500D01*
X103711000Y-116552500D02*
X103771500Y-116613000D01*
X103757500Y-116599000D02*
X103771500Y-116613000D01*
%TO.N,Net-(LED22-Pad2)*%
X121681500Y-115213000D02*
X122758000Y-114136500D01*
X109271500Y-115213000D02*
X121681500Y-115213000D01*
%TO.N,Net-(LED23-Pad2)*%
X128258000Y-112736500D02*
X129358000Y-112736500D01*
X129358000Y-112736500D02*
X133234500Y-116613000D01*
X133234500Y-116613000D02*
X141871500Y-116613000D01*
%TO.N,Net-(LED24-Pad2)*%
X166931498Y-127965500D02*
X168478000Y-127965500D01*
X152243990Y-115213000D02*
X154254000Y-117223010D01*
X161403999Y-122438001D02*
X166931498Y-127965500D01*
X168478000Y-125285716D02*
X168711166Y-125052550D01*
X168478000Y-127965500D02*
X168478000Y-125285716D01*
X159468991Y-122438001D02*
X161403999Y-122438001D01*
X147371500Y-115213000D02*
X152243990Y-115213000D01*
X154254000Y-117223010D02*
X159468991Y-122438001D01*
%TO.N,Net-(LED25-Pad2)*%
X172783684Y-118387186D02*
X185140046Y-130743548D01*
X187432682Y-130743548D02*
X188345792Y-129830438D01*
X168287500Y-119393000D02*
X168287500Y-118529887D01*
X185140046Y-130743548D02*
X187432682Y-130743548D01*
X168430201Y-118387186D02*
X172783684Y-118387186D01*
X168287500Y-118529887D02*
X168430201Y-118387186D01*
%TO.N,Net-(LED26-Pad2)*%
X206403027Y-137095569D02*
X207218958Y-136279638D01*
X204700067Y-137095569D02*
X206403027Y-137095569D01*
X197165092Y-126965092D02*
X197165092Y-129560594D01*
X193442390Y-123242390D02*
X197165092Y-126965092D01*
X189330110Y-123242390D02*
X193442390Y-123242390D01*
X197165092Y-129560594D02*
X204700067Y-137095569D01*
X188417000Y-124155500D02*
X189330110Y-123242390D01*
%TO.N,P0.20*%
X98247000Y-48781000D02*
X97050660Y-49977340D01*
X111403498Y-55702500D02*
X110693000Y-55702500D01*
X110693000Y-55702500D02*
X109740500Y-54750000D01*
X154063500Y-53734000D02*
X154063500Y-54556500D01*
D23*
X177564899Y-59645899D02*
X175133101Y-59645899D01*
D21*
X128600000Y-50495500D02*
X124409000Y-46304500D01*
X143459000Y-48590500D02*
X136410500Y-48590500D01*
X147459500Y-52591000D02*
X143459000Y-48590500D01*
X168094000Y-59827000D02*
X166763500Y-58496500D01*
X136410500Y-48590500D02*
X135204000Y-49797000D01*
X162191500Y-52337000D02*
X155460500Y-52337000D01*
X97050660Y-52055154D02*
X90495038Y-58610776D01*
X105486000Y-48781000D02*
X98247000Y-48781000D01*
X152793500Y-55826500D02*
X148663000Y-55826500D01*
X114566500Y-55699500D02*
X111406498Y-55699500D01*
X129622000Y-53347000D02*
X128600000Y-52325000D01*
X155460500Y-52337000D02*
X154063500Y-53734000D01*
X135204000Y-51823000D02*
X133680000Y-53347000D01*
X117233500Y-46304500D02*
X116027000Y-47511000D01*
X128600000Y-52325000D02*
X128600000Y-50495500D01*
D23*
X190072900Y-69609000D02*
X189560000Y-69609000D01*
D21*
X148663000Y-55826500D02*
X147459500Y-54623000D01*
X109740500Y-54750000D02*
X109740500Y-53035500D01*
X171843500Y-59827000D02*
X174952000Y-59827000D01*
X116027000Y-54239000D02*
X114566500Y-55699500D01*
X109740500Y-53035500D02*
X105486000Y-48781000D01*
X124409000Y-46304500D02*
X117233500Y-46304500D01*
X171843500Y-59827000D02*
X168094000Y-59827000D01*
X166763500Y-58496500D02*
X166763500Y-56909000D01*
X116027000Y-47511000D02*
X116027000Y-54239000D01*
X97050660Y-49977340D02*
X97050660Y-52055154D01*
D23*
X175133101Y-59645899D02*
X174952000Y-59827000D01*
D21*
X135204000Y-49797000D02*
X135204000Y-51823000D01*
X111406498Y-55699500D02*
X111403498Y-55702500D01*
X147459500Y-54623000D02*
X147459500Y-52591000D01*
D23*
X178130000Y-60211000D02*
X177564899Y-59645899D01*
D21*
X154063500Y-54556500D02*
X152793500Y-55826500D01*
X133680000Y-53347000D02*
X129622000Y-53347000D01*
X166763500Y-56909000D02*
X162191500Y-52337000D01*
X178130000Y-60147500D02*
X178130000Y-60211000D01*
D23*
X191333400Y-70869500D02*
X190072900Y-69609000D01*
D21*
X191329400Y-71378400D02*
X191329400Y-71577500D01*
%TO.N,P0.13*%
X154063500Y-71641000D02*
X154063500Y-73543000D01*
X128600000Y-69291500D02*
X123393000Y-64084500D01*
X96977000Y-69388342D02*
X96977000Y-77670500D01*
X173177000Y-78753000D02*
X171846500Y-78753000D01*
X99486842Y-66878500D02*
X96977000Y-69388342D01*
X114630000Y-74813000D02*
X110753500Y-74813000D01*
X116090500Y-73352500D02*
X114630000Y-74813000D01*
X135140500Y-70749000D02*
X133553000Y-72336500D01*
X166700000Y-78239000D02*
X166700000Y-75959000D01*
X133553000Y-72336500D02*
X129682500Y-72336500D01*
X136474000Y-66370500D02*
X135140500Y-67704000D01*
X123393000Y-64084500D02*
X117487500Y-64084500D01*
X135140500Y-67704000D02*
X135140500Y-70749000D01*
X109804000Y-73863500D02*
X109804000Y-72149000D01*
X152730000Y-74876500D02*
X149633498Y-74876500D01*
X167147500Y-78686500D02*
X166700000Y-78239000D01*
X147840500Y-72022000D02*
X142189000Y-66370500D01*
X171846500Y-78753000D02*
X171780000Y-78686500D01*
X128600000Y-71254000D02*
X128600000Y-69291500D01*
X147840500Y-73609500D02*
X147840500Y-72022000D01*
X129682500Y-72336500D02*
X128600000Y-71254000D01*
X92481024Y-77670500D02*
X92458576Y-77648052D01*
X161239000Y-70498000D02*
X155206500Y-70498000D01*
X149630498Y-74879500D02*
X149110500Y-74879500D01*
X109804000Y-72149000D02*
X104533500Y-66878500D01*
X110753500Y-74813000D02*
X109804000Y-73863500D01*
X142189000Y-66370500D02*
X136474000Y-66370500D01*
X96977000Y-77670500D02*
X92481024Y-77670500D01*
X149633498Y-74876500D02*
X149630498Y-74879500D01*
X155206500Y-70498000D02*
X154063500Y-71641000D01*
X171780000Y-78686500D02*
X167147500Y-78686500D01*
X154063500Y-73543000D02*
X152730000Y-74876500D01*
X104533500Y-66878500D02*
X99486842Y-66878500D01*
X117487500Y-64084500D02*
X116090500Y-65481500D01*
X116090500Y-65481500D02*
X116090500Y-73352500D01*
X166700000Y-75959000D02*
X161239000Y-70498000D01*
X149110500Y-74879500D02*
X147840500Y-73609500D01*
%TO.N,P0.24*%
X147523000Y-90818000D02*
X142443000Y-85738000D01*
X94772422Y-96987660D02*
X94495538Y-96710776D01*
X171653000Y-97733500D02*
X167964000Y-97733500D01*
X135204000Y-89862500D02*
X133616500Y-91450000D01*
X97065900Y-86715900D02*
X97040500Y-86690500D01*
X167964000Y-97733500D02*
X166636500Y-96406000D01*
X171774000Y-97612500D02*
X171653000Y-97733500D01*
X173177000Y-97612500D02*
X171774000Y-97612500D01*
X142443000Y-85738000D02*
X135204000Y-85738000D01*
X166636500Y-94945500D02*
X160413500Y-88722500D01*
X110127500Y-93923500D02*
X109486500Y-93282500D01*
X122758000Y-83261500D02*
X118784998Y-83261500D01*
X109486500Y-93282500D02*
X109486500Y-90945000D01*
X160413500Y-88722500D02*
X154127000Y-88722500D01*
X109486500Y-90945000D02*
X103644500Y-85103000D01*
X154127000Y-92463000D02*
X152666500Y-93923500D01*
X116027000Y-86019498D02*
X116027000Y-93929500D01*
X116027000Y-93929500D02*
X114636000Y-93929500D01*
X129994000Y-91450000D02*
X128600000Y-90056000D01*
X147523000Y-92786500D02*
X147523000Y-90818000D01*
X154127000Y-88722500D02*
X154127000Y-92463000D01*
X148660000Y-93923500D02*
X147523000Y-92786500D01*
X114636000Y-93929500D02*
X114630000Y-93923500D01*
X96989700Y-96987660D02*
X94772422Y-96987660D01*
X133616500Y-91450000D02*
X129994000Y-91450000D01*
X98628000Y-85103000D02*
X97040500Y-86690500D01*
X114630000Y-93923500D02*
X110127500Y-93923500D01*
X128600000Y-87740502D02*
X127613498Y-86754000D01*
X128600000Y-90056000D02*
X128600000Y-87740502D01*
X126250500Y-86754000D02*
X122758000Y-83261500D01*
X103644500Y-85103000D02*
X98628000Y-85103000D01*
X97065900Y-94419720D02*
X97065900Y-86715900D01*
X152666500Y-93923500D02*
X148660000Y-93923500D01*
X135204000Y-85738000D02*
X135204000Y-89862500D01*
X118784998Y-83261500D02*
X116027000Y-86019498D01*
X127613498Y-86754000D02*
X126250500Y-86754000D01*
X166636500Y-96406000D02*
X166636500Y-94945500D01*
%TO.N,P0.09*%
X128727000Y-107836000D02*
X123774000Y-102883000D01*
X133616500Y-110560500D02*
X129864000Y-110560500D01*
X137363000Y-110630000D02*
X133686000Y-110630000D01*
X152666500Y-113164000D02*
X152603000Y-113100500D01*
X173792000Y-100147500D02*
X165436000Y-108503500D01*
X157200000Y-108503500D02*
X152603000Y-113100500D01*
X147408000Y-111328500D02*
X147408000Y-109753000D01*
X129864000Y-110560500D02*
X128727000Y-109423500D01*
X147408000Y-109753000D02*
X143395500Y-105740500D01*
X118440000Y-108661500D02*
X118440000Y-109290500D01*
X165436000Y-108503500D02*
X157200000Y-108503500D01*
X149180000Y-113100500D02*
X147408000Y-111328500D01*
X118440000Y-109290500D02*
X114503000Y-113227500D01*
X190757900Y-78626000D02*
X191329400Y-79197500D01*
X182590180Y-114103952D02*
X187337536Y-118851308D01*
X128727000Y-109423500D02*
X128727000Y-107836000D01*
X143395500Y-105740500D02*
X137363000Y-105740500D01*
X133686000Y-110630000D02*
X133616500Y-110560500D01*
X165436000Y-108503500D02*
X165436000Y-112602723D01*
X137363000Y-105740500D02*
X137363000Y-106248500D01*
X152603000Y-113100500D02*
X149180000Y-113100500D01*
X165436000Y-112602723D02*
X166937229Y-114103952D01*
X123774000Y-102883000D02*
X118440000Y-102883000D01*
X166937229Y-114103952D02*
X182590180Y-114103952D01*
%TO.N,P0.10*%
X170295442Y-113653942D02*
X165886010Y-109244510D01*
X182776580Y-113653942D02*
X170295442Y-113653942D01*
X179935548Y-93688184D02*
X179935548Y-91010362D01*
D23*
X190625400Y-81737500D02*
X191333400Y-81029500D01*
D21*
X199238236Y-117043500D02*
X186166138Y-117043500D01*
X165886010Y-109244510D02*
X174417001Y-100713519D01*
X179935548Y-91010362D02*
X180751890Y-90194020D01*
X190246399Y-82116501D02*
X191333400Y-81029500D01*
X179935548Y-93688184D02*
X174222000Y-99401731D01*
X207373908Y-125179172D02*
X199238236Y-117043500D01*
X174417001Y-99596732D02*
X174222000Y-99401731D01*
X186166138Y-117043500D02*
X182776580Y-113653942D01*
X174417001Y-100713519D02*
X174417001Y-99596732D01*
X181555410Y-90194020D02*
X180751890Y-90194020D01*
X183471510Y-87458029D02*
X183471510Y-88277920D01*
X183471510Y-88277920D02*
X181555410Y-90194020D01*
X188813038Y-82116501D02*
X183471510Y-87458029D01*
X190246399Y-82116501D02*
X188813038Y-82116501D01*
%TO.N,P0.08*%
X193865900Y-55637000D02*
X191333400Y-58169500D01*
X199089500Y-55637000D02*
X193865900Y-55637000D01*
X192975000Y-67650000D02*
X192975000Y-74775000D01*
X195150000Y-74750000D02*
X195150000Y-77700000D01*
X195150000Y-77974999D02*
X195149999Y-77975000D01*
X195150000Y-77700000D02*
X195150000Y-77974999D01*
X198825000Y-83425000D02*
X198825000Y-90525000D01*
X196500000Y-81100000D02*
X198825000Y-83425000D01*
%TO.N,P0.17*%
X200050000Y-71750000D02*
X200050000Y-72210000D01*
X198375000Y-70075000D02*
X200050000Y-71750000D01*
X198559999Y-73700001D02*
X200050000Y-72210000D01*
X197049999Y-73700001D02*
X198559999Y-73700001D01*
X195774999Y-74975001D02*
X197049999Y-73700001D01*
X195774999Y-83449999D02*
X195774999Y-74975001D01*
X196100000Y-83775000D02*
X195774999Y-83449999D01*
X182448000Y-88417546D02*
X182045273Y-88820273D01*
X182448000Y-87579500D02*
X182448000Y-88417546D01*
D23*
%TO.N,P0.15*%
X188861500Y-68261400D02*
X188861500Y-68965400D01*
D21*
X188861500Y-79007000D02*
X188861500Y-68965400D01*
X187726630Y-79007000D02*
X188861500Y-79007000D01*
X184035500Y-82698130D02*
X187726630Y-79007000D01*
D23*
X191333400Y-65789500D02*
X188861500Y-68261400D01*
D21*
X191650501Y-77402499D02*
X193053000Y-76000000D01*
X190246399Y-77967739D02*
X190811639Y-77402499D01*
X190811639Y-77402499D02*
X191650501Y-77402499D01*
X189860001Y-79251001D02*
X190246399Y-78864603D01*
X190246399Y-78864603D02*
X190246399Y-77967739D01*
X189105501Y-79251001D02*
X189860001Y-79251001D01*
X188861500Y-79007000D02*
X189105501Y-79251001D01*
X199425000Y-75375000D02*
X200050000Y-74750000D01*
X196400000Y-75375000D02*
X199425000Y-75375000D01*
D23*
%TO.N,RESET*%
X176821400Y-61417500D02*
X176113400Y-60709500D01*
X178130000Y-61417500D02*
X176821400Y-61417500D01*
D21*
X197363919Y-73061081D02*
X197350000Y-73075000D01*
X197363919Y-71295420D02*
X197363919Y-73061081D01*
X198150000Y-80100000D02*
X199150000Y-81100000D01*
X197450000Y-80100000D02*
X198150000Y-80100000D01*
%TO.N,P0.30*%
X148297019Y-101373021D02*
X148305531Y-101364509D01*
X180565490Y-89744010D02*
X179485539Y-90823961D01*
X77155810Y-74808499D02*
X77155810Y-79732312D01*
X148305531Y-101364509D02*
X150166007Y-101364509D01*
X155321518Y-106520020D02*
X166467300Y-106520020D01*
X79124310Y-97969902D02*
X89815908Y-108661500D01*
X77155810Y-61774902D02*
X77155810Y-74808499D01*
X179485540Y-69873640D02*
X179485540Y-84589490D01*
D23*
X179485540Y-69161640D02*
X176113400Y-65789500D01*
D21*
X108932000Y-101095000D02*
X107913686Y-101095000D01*
X96977000Y-108661500D02*
X99353500Y-108661500D01*
X135765500Y-102164500D02*
X134207000Y-102164500D01*
X166467300Y-106520020D02*
X179485538Y-93501784D01*
X179485539Y-93501783D02*
X179324161Y-93663161D01*
X100049686Y-108598000D02*
X99417000Y-108598000D01*
X75187310Y-55885499D02*
X75187310Y-59806402D01*
X75187310Y-59806402D02*
X77155810Y-61774902D01*
X107733186Y-100914500D02*
X100049686Y-108598000D01*
X179485539Y-90823961D02*
X179485539Y-93501783D01*
X150166007Y-101364509D02*
X155321518Y-106520020D01*
D23*
X179485540Y-69873640D02*
X179485540Y-69161640D01*
D21*
X107913686Y-101095000D02*
X107733186Y-100914500D01*
X140057000Y-101373021D02*
X148297019Y-101373021D01*
X99353500Y-108661500D02*
X99417000Y-108598000D01*
X89815908Y-108661500D02*
X96977000Y-108661500D01*
X79124310Y-93794999D02*
X79124310Y-97969902D01*
X77155810Y-79732312D02*
X79124310Y-81700812D01*
X79124310Y-81700812D02*
X79124310Y-93794999D01*
X181381520Y-86485470D02*
X181381520Y-89731500D01*
X179485540Y-84589490D02*
X181381520Y-86485470D01*
X181381520Y-89731500D02*
X181369010Y-89744010D01*
X181369010Y-89744010D02*
X180565490Y-89744010D01*
%TO.N,P0.31*%
X99417000Y-53961000D02*
X99390000Y-53988000D01*
D23*
X176113400Y-69031840D02*
X176113400Y-68329500D01*
D21*
X99453500Y-70461500D02*
X99417000Y-70498000D01*
X116735499Y-100206001D02*
X116725500Y-100216000D01*
X99417000Y-91997500D02*
X99417000Y-93281000D01*
X99417000Y-91997500D02*
X99390000Y-92024500D01*
X99453500Y-87135000D02*
X99453500Y-89511500D01*
X99417000Y-89548000D02*
X99417000Y-91997500D01*
X99417000Y-73138000D02*
X99390000Y-73165000D01*
D23*
X179035530Y-71963630D02*
X179035530Y-71953970D01*
D21*
X99453500Y-89511500D02*
X99417000Y-89548000D01*
X99417000Y-70498000D02*
X99417000Y-73138000D01*
D23*
X178902530Y-71820970D02*
X176113400Y-69031840D01*
D21*
X99453500Y-68085000D02*
X99453500Y-70461500D01*
X99417000Y-93281000D02*
X101549000Y-95413000D01*
X179035530Y-71953970D02*
X178902530Y-71820970D01*
X99417000Y-51448000D02*
X99417000Y-53961000D01*
X116027000Y-106121500D02*
X118467000Y-106121500D01*
X117257521Y-100748021D02*
X116725500Y-100216000D01*
X147436801Y-100748021D02*
X117257521Y-100748021D01*
X149146792Y-99038030D02*
X147436801Y-100748021D01*
X151731980Y-99038030D02*
X149146792Y-99038030D01*
X151731990Y-99038040D02*
X151731980Y-99038030D01*
X151911249Y-99077519D02*
X151871770Y-99038040D01*
X180931510Y-86781510D02*
X180931510Y-89231490D01*
X179035530Y-84885530D02*
X180931510Y-86781510D01*
X180931510Y-89231490D02*
X180869000Y-89294000D01*
X179035530Y-71953970D02*
X179035530Y-84885530D01*
X179035529Y-93315383D02*
X166280901Y-106070011D01*
X180869000Y-89294000D02*
X180379090Y-89294000D01*
X180379090Y-89294000D02*
X179035529Y-90637561D01*
X179035529Y-90637561D02*
X179035529Y-93315383D01*
X151871770Y-99038040D02*
X151731990Y-99038040D01*
X166280901Y-106070011D02*
X159426691Y-106070011D01*
X159426691Y-106070011D02*
X156814158Y-103457478D01*
X155279549Y-99077519D02*
X151911249Y-99077519D01*
X156814158Y-103457478D02*
X156814158Y-100612128D01*
X156814158Y-100612128D02*
X155279549Y-99077519D01*
D23*
%TO.N,P0.29*%
X178585520Y-73341620D02*
X176113400Y-70869500D01*
X178585520Y-74053620D02*
X178585520Y-73341620D01*
D21*
X118467000Y-51484500D02*
X118440000Y-51511500D01*
X137453500Y-108661500D02*
X137517000Y-108598000D01*
X157264167Y-103271077D02*
X159613091Y-105620001D01*
X159613091Y-105620001D02*
X166094501Y-105620001D01*
X155465949Y-98627509D02*
X157264166Y-100425726D01*
X118467000Y-48971500D02*
X118467000Y-51484500D01*
X118467000Y-70534500D02*
X118440000Y-70561500D01*
X152356990Y-98611374D02*
X152356990Y-98588020D01*
X118467000Y-87071500D02*
X118467000Y-90718000D01*
X118503500Y-84468000D02*
X118503500Y-87035000D01*
X178585520Y-93128982D02*
X166094501Y-105620001D01*
X118440000Y-65418000D02*
X118440000Y-67994500D01*
X152356990Y-98588020D02*
X148960392Y-98588020D01*
X157264166Y-100425726D02*
X157264167Y-103271077D01*
X152388126Y-98611374D02*
X152404261Y-98627509D01*
X147250401Y-100298011D02*
X136683011Y-100298011D01*
X178585520Y-74053620D02*
X178585520Y-93128982D01*
X118467000Y-68021500D02*
X118467000Y-70534500D01*
X118467000Y-90718000D02*
X118503500Y-90754500D01*
X152356990Y-98611374D02*
X152388126Y-98611374D01*
X135140500Y-108661500D02*
X137453500Y-108661500D01*
X118440000Y-67994500D02*
X118467000Y-68021500D01*
X148960392Y-98588020D02*
X147250401Y-100298011D01*
X118503500Y-87035000D02*
X118467000Y-87071500D01*
X136683011Y-100298011D02*
X135966000Y-99581000D01*
X152404261Y-98627509D02*
X155465949Y-98627509D01*
%TO.N,P0.02*%
X177696909Y-88141001D02*
X154805501Y-88141001D01*
X137517000Y-51448000D02*
X137517000Y-53951500D01*
X137517000Y-53951500D02*
X137553500Y-53988000D01*
X137617000Y-68021500D02*
X137617000Y-70398000D01*
X137490000Y-87071500D02*
X137490000Y-89521000D01*
X154805501Y-88141001D02*
X154762000Y-88097500D01*
X137517000Y-89548000D02*
X137517000Y-93321500D01*
X178135510Y-87702400D02*
X177696909Y-88141001D01*
X178135510Y-76143610D02*
X178135510Y-76661600D01*
X137490000Y-89521000D02*
X137517000Y-89548000D01*
X157492500Y-127711500D02*
X159924494Y-127711500D01*
X137617000Y-70398000D02*
X137517000Y-70498000D01*
X137517000Y-70498000D02*
X137517000Y-73138000D01*
X137517000Y-73138000D02*
X137490000Y-73165000D01*
D23*
X178135510Y-76143610D02*
X178135510Y-75431610D01*
D21*
X159924494Y-127711500D02*
X160047291Y-127834297D01*
X178135510Y-87389000D02*
X178135510Y-87702400D01*
X137517000Y-93321500D02*
X137553500Y-93358000D01*
X178135510Y-76661600D02*
X178135510Y-87389000D01*
D23*
X178135510Y-75431610D02*
X176113400Y-73409500D01*
D21*
%TO.N,P1.13*%
X156603500Y-90881500D02*
X156603500Y-93448500D01*
D23*
X176821400Y-76657500D02*
X176113400Y-75949500D01*
D21*
X156567000Y-74435000D02*
X156567000Y-76938500D01*
X156567000Y-55385000D02*
X156567000Y-57898000D01*
X156540000Y-71831500D02*
X156540000Y-74408000D01*
X156567000Y-96125000D02*
X156540000Y-96152000D01*
X177495000Y-76657500D02*
X177685500Y-76848000D01*
X156567000Y-93485000D02*
X156567000Y-96125000D01*
X156567000Y-57898000D02*
X156540000Y-57925000D01*
X156540000Y-74408000D02*
X156567000Y-74435000D01*
X156567000Y-76938500D02*
X156603500Y-76975000D01*
X177685500Y-87516000D02*
X157429000Y-87516000D01*
X156603500Y-93448500D02*
X156567000Y-93485000D01*
X199280977Y-138760500D02*
X198084968Y-137564491D01*
X176860000Y-131458000D02*
X178896131Y-131458000D01*
X184516358Y-131865684D02*
X185771447Y-133120773D01*
X179303815Y-131865684D02*
X184516358Y-131865684D01*
X199656500Y-138760500D02*
X199280977Y-138760500D01*
D23*
X177495000Y-76657500D02*
X176821400Y-76657500D01*
D21*
X177685500Y-76848000D02*
X177685500Y-87516000D01*
X178896131Y-131458000D02*
X179303815Y-131865684D01*
%TO.N,Net-(J7-PadA)*%
X190587019Y-86190699D02*
X190246399Y-85850079D01*
%TD*%
M02*
