%TF.GenerationSoftware,KiCad,Pcbnew,(5.1.10)-1*%
%TF.CreationDate,2021-10-28T21:07:41+02:00*%
%TF.ProjectId,yaohkib - lefft,79616f68-6b69-4622-902d-206c65666674,rev?*%
%TF.SameCoordinates,Original*%
%TF.FileFunction,Soldermask,Bot*%
%TF.FilePolarity,Negative*%
%FSLAX46Y46*%
G04 Gerber Fmt 4.6, Leading zero omitted, Abs format (unit mm)*
G04 Created by KiCad (PCBNEW (5.1.10)-1) date 2021-10-28 21:07:41*
%MOMM*%
%LPD*%
G01*
G04 APERTURE LIST*
%ADD10O,2.900000X2.100000*%
%ADD11C,1.600000*%
%ADD12O,1.797000X2.178000*%
%ADD13C,1.924000*%
%ADD14C,3.400000*%
%ADD15C,2.300000*%
%ADD16C,4.500000*%
%ADD17C,2.400000*%
%ADD18C,4.700000*%
%ADD19O,2.178000X1.797000*%
%ADD20O,2.100000X2.900000*%
G04 APERTURE END LIST*
%TO.C,LED13*%
G36*
G01*
X108221500Y-77613000D02*
X108221500Y-76613000D01*
G75*
G02*
X108421500Y-76413000I200000J0D01*
G01*
X110121500Y-76413000D01*
G75*
G02*
X110321500Y-76613000I0J-200000D01*
G01*
X110321500Y-77613000D01*
G75*
G02*
X110121500Y-77813000I-200000J0D01*
G01*
X108421500Y-77813000D01*
G75*
G02*
X108221500Y-77613000I0J200000D01*
G01*
G37*
G36*
G01*
X108221500Y-79013000D02*
X108221500Y-78013000D01*
G75*
G02*
X108421500Y-77813000I200000J0D01*
G01*
X110121500Y-77813000D01*
G75*
G02*
X110321500Y-78013000I0J-200000D01*
G01*
X110321500Y-79013000D01*
G75*
G02*
X110121500Y-79213000I-200000J0D01*
G01*
X108421500Y-79213000D01*
G75*
G02*
X108221500Y-79013000I0J200000D01*
G01*
G37*
G36*
G01*
X102721500Y-77613000D02*
X102721500Y-76613000D01*
G75*
G02*
X102921500Y-76413000I200000J0D01*
G01*
X104621500Y-76413000D01*
G75*
G02*
X104821500Y-76613000I0J-200000D01*
G01*
X104821500Y-77613000D01*
G75*
G02*
X104621500Y-77813000I-200000J0D01*
G01*
X102921500Y-77813000D01*
G75*
G02*
X102721500Y-77613000I0J200000D01*
G01*
G37*
G36*
G01*
X102721500Y-79013000D02*
X102721500Y-78013000D01*
G75*
G02*
X102921500Y-77813000I200000J0D01*
G01*
X104621500Y-77813000D01*
G75*
G02*
X104821500Y-78013000I0J-200000D01*
G01*
X104821500Y-79013000D01*
G75*
G02*
X104621500Y-79213000I-200000J0D01*
G01*
X102921500Y-79213000D01*
G75*
G02*
X102721500Y-79013000I0J200000D01*
G01*
G37*
%TD*%
%TO.C,LED19*%
G36*
G01*
X127315500Y-94185000D02*
X127315500Y-93185000D01*
G75*
G02*
X127515500Y-92985000I200000J0D01*
G01*
X129215500Y-92985000D01*
G75*
G02*
X129415500Y-93185000I0J-200000D01*
G01*
X129415500Y-94185000D01*
G75*
G02*
X129215500Y-94385000I-200000J0D01*
G01*
X127515500Y-94385000D01*
G75*
G02*
X127315500Y-94185000I0J200000D01*
G01*
G37*
G36*
G01*
X127315500Y-95585000D02*
X127315500Y-94585000D01*
G75*
G02*
X127515500Y-94385000I200000J0D01*
G01*
X129215500Y-94385000D01*
G75*
G02*
X129415500Y-94585000I0J-200000D01*
G01*
X129415500Y-95585000D01*
G75*
G02*
X129215500Y-95785000I-200000J0D01*
G01*
X127515500Y-95785000D01*
G75*
G02*
X127315500Y-95585000I0J200000D01*
G01*
G37*
G36*
G01*
X121815500Y-94185000D02*
X121815500Y-93185000D01*
G75*
G02*
X122015500Y-92985000I200000J0D01*
G01*
X123715500Y-92985000D01*
G75*
G02*
X123915500Y-93185000I0J-200000D01*
G01*
X123915500Y-94185000D01*
G75*
G02*
X123715500Y-94385000I-200000J0D01*
G01*
X122015500Y-94385000D01*
G75*
G02*
X121815500Y-94185000I0J200000D01*
G01*
G37*
G36*
G01*
X121815500Y-95585000D02*
X121815500Y-94585000D01*
G75*
G02*
X122015500Y-94385000I200000J0D01*
G01*
X123715500Y-94385000D01*
G75*
G02*
X123915500Y-94585000I0J-200000D01*
G01*
X123915500Y-95585000D01*
G75*
G02*
X123715500Y-95785000I-200000J0D01*
G01*
X122015500Y-95785000D01*
G75*
G02*
X121815500Y-95585000I0J200000D01*
G01*
G37*
%TD*%
%TO.C,LED14*%
G36*
G01*
X127315500Y-75073000D02*
X127315500Y-74073000D01*
G75*
G02*
X127515500Y-73873000I200000J0D01*
G01*
X129215500Y-73873000D01*
G75*
G02*
X129415500Y-74073000I0J-200000D01*
G01*
X129415500Y-75073000D01*
G75*
G02*
X129215500Y-75273000I-200000J0D01*
G01*
X127515500Y-75273000D01*
G75*
G02*
X127315500Y-75073000I0J200000D01*
G01*
G37*
G36*
G01*
X127315500Y-76473000D02*
X127315500Y-75473000D01*
G75*
G02*
X127515500Y-75273000I200000J0D01*
G01*
X129215500Y-75273000D01*
G75*
G02*
X129415500Y-75473000I0J-200000D01*
G01*
X129415500Y-76473000D01*
G75*
G02*
X129215500Y-76673000I-200000J0D01*
G01*
X127515500Y-76673000D01*
G75*
G02*
X127315500Y-76473000I0J200000D01*
G01*
G37*
G36*
G01*
X121815500Y-75073000D02*
X121815500Y-74073000D01*
G75*
G02*
X122015500Y-73873000I200000J0D01*
G01*
X123715500Y-73873000D01*
G75*
G02*
X123915500Y-74073000I0J-200000D01*
G01*
X123915500Y-75073000D01*
G75*
G02*
X123715500Y-75273000I-200000J0D01*
G01*
X122015500Y-75273000D01*
G75*
G02*
X121815500Y-75073000I0J200000D01*
G01*
G37*
G36*
G01*
X121815500Y-76473000D02*
X121815500Y-75473000D01*
G75*
G02*
X122015500Y-75273000I200000J0D01*
G01*
X123715500Y-75273000D01*
G75*
G02*
X123915500Y-75473000I0J-200000D01*
G01*
X123915500Y-76473000D01*
G75*
G02*
X123715500Y-76673000I-200000J0D01*
G01*
X122015500Y-76673000D01*
G75*
G02*
X121815500Y-76473000I0J200000D01*
G01*
G37*
%TD*%
%TO.C,LED27*%
G36*
G01*
X207895225Y-131790188D02*
X206955533Y-131448168D01*
G75*
G02*
X206835998Y-131191825I68404J187939D01*
G01*
X207417432Y-129594347D01*
G75*
G02*
X207673775Y-129474812I187939J-68404D01*
G01*
X208613467Y-129816832D01*
G75*
G02*
X208733002Y-130073175I-68404J-187939D01*
G01*
X208151568Y-131670653D01*
G75*
G02*
X207895225Y-131790188I-187939J68404D01*
G01*
G37*
G36*
G01*
X209210794Y-132269016D02*
X208271102Y-131926996D01*
G75*
G02*
X208151567Y-131670653I68404J187939D01*
G01*
X208733001Y-130073175D01*
G75*
G02*
X208989344Y-129953640I187939J-68404D01*
G01*
X209929036Y-130295660D01*
G75*
G02*
X210048571Y-130552003I-68404J-187939D01*
G01*
X209467137Y-132149481D01*
G75*
G02*
X209210794Y-132269016I-187939J68404D01*
G01*
G37*
G36*
G01*
X206014114Y-136958498D02*
X205074422Y-136616478D01*
G75*
G02*
X204954887Y-136360135I68404J187939D01*
G01*
X205536321Y-134762657D01*
G75*
G02*
X205792664Y-134643122I187939J-68404D01*
G01*
X206732356Y-134985142D01*
G75*
G02*
X206851891Y-135241485I-68404J-187939D01*
G01*
X206270457Y-136838963D01*
G75*
G02*
X206014114Y-136958498I-187939J68404D01*
G01*
G37*
G36*
G01*
X207329683Y-137437326D02*
X206389991Y-137095306D01*
G75*
G02*
X206270456Y-136838963I68404J187939D01*
G01*
X206851890Y-135241485D01*
G75*
G02*
X207108233Y-135121950I187939J-68404D01*
G01*
X208047925Y-135463970D01*
G75*
G02*
X208167460Y-135720313I-68404J-187939D01*
G01*
X207586026Y-137317791D01*
G75*
G02*
X207329683Y-137437326I-187939J68404D01*
G01*
G37*
%TD*%
%TO.C,LED15*%
G36*
G01*
X146321500Y-77613000D02*
X146321500Y-76613000D01*
G75*
G02*
X146521500Y-76413000I200000J0D01*
G01*
X148221500Y-76413000D01*
G75*
G02*
X148421500Y-76613000I0J-200000D01*
G01*
X148421500Y-77613000D01*
G75*
G02*
X148221500Y-77813000I-200000J0D01*
G01*
X146521500Y-77813000D01*
G75*
G02*
X146321500Y-77613000I0J200000D01*
G01*
G37*
G36*
G01*
X146321500Y-79013000D02*
X146321500Y-78013000D01*
G75*
G02*
X146521500Y-77813000I200000J0D01*
G01*
X148221500Y-77813000D01*
G75*
G02*
X148421500Y-78013000I0J-200000D01*
G01*
X148421500Y-79013000D01*
G75*
G02*
X148221500Y-79213000I-200000J0D01*
G01*
X146521500Y-79213000D01*
G75*
G02*
X146321500Y-79013000I0J200000D01*
G01*
G37*
G36*
G01*
X140821500Y-77613000D02*
X140821500Y-76613000D01*
G75*
G02*
X141021500Y-76413000I200000J0D01*
G01*
X142721500Y-76413000D01*
G75*
G02*
X142921500Y-76613000I0J-200000D01*
G01*
X142921500Y-77613000D01*
G75*
G02*
X142721500Y-77813000I-200000J0D01*
G01*
X141021500Y-77813000D01*
G75*
G02*
X140821500Y-77613000I0J200000D01*
G01*
G37*
G36*
G01*
X140821500Y-79013000D02*
X140821500Y-78013000D01*
G75*
G02*
X141021500Y-77813000I200000J0D01*
G01*
X142721500Y-77813000D01*
G75*
G02*
X142921500Y-78013000I0J-200000D01*
G01*
X142921500Y-79013000D01*
G75*
G02*
X142721500Y-79213000I-200000J0D01*
G01*
X141021500Y-79213000D01*
G75*
G02*
X140821500Y-79013000I0J200000D01*
G01*
G37*
%TD*%
%TO.C,LED22*%
G36*
G01*
X108221500Y-115713000D02*
X108221500Y-114713000D01*
G75*
G02*
X108421500Y-114513000I200000J0D01*
G01*
X110121500Y-114513000D01*
G75*
G02*
X110321500Y-114713000I0J-200000D01*
G01*
X110321500Y-115713000D01*
G75*
G02*
X110121500Y-115913000I-200000J0D01*
G01*
X108421500Y-115913000D01*
G75*
G02*
X108221500Y-115713000I0J200000D01*
G01*
G37*
G36*
G01*
X108221500Y-117113000D02*
X108221500Y-116113000D01*
G75*
G02*
X108421500Y-115913000I200000J0D01*
G01*
X110121500Y-115913000D01*
G75*
G02*
X110321500Y-116113000I0J-200000D01*
G01*
X110321500Y-117113000D01*
G75*
G02*
X110121500Y-117313000I-200000J0D01*
G01*
X108421500Y-117313000D01*
G75*
G02*
X108221500Y-117113000I0J200000D01*
G01*
G37*
G36*
G01*
X102721500Y-115713000D02*
X102721500Y-114713000D01*
G75*
G02*
X102921500Y-114513000I200000J0D01*
G01*
X104621500Y-114513000D01*
G75*
G02*
X104821500Y-114713000I0J-200000D01*
G01*
X104821500Y-115713000D01*
G75*
G02*
X104621500Y-115913000I-200000J0D01*
G01*
X102921500Y-115913000D01*
G75*
G02*
X102721500Y-115713000I0J200000D01*
G01*
G37*
G36*
G01*
X102721500Y-117113000D02*
X102721500Y-116113000D01*
G75*
G02*
X102921500Y-115913000I200000J0D01*
G01*
X104621500Y-115913000D01*
G75*
G02*
X104821500Y-116113000I0J-200000D01*
G01*
X104821500Y-117113000D01*
G75*
G02*
X104621500Y-117313000I-200000J0D01*
G01*
X102921500Y-117313000D01*
G75*
G02*
X102721500Y-117113000I0J200000D01*
G01*
G37*
%TD*%
%TO.C,LED8*%
G36*
G01*
X146238500Y-58561500D02*
X146238500Y-57561500D01*
G75*
G02*
X146438500Y-57361500I200000J0D01*
G01*
X148138500Y-57361500D01*
G75*
G02*
X148338500Y-57561500I0J-200000D01*
G01*
X148338500Y-58561500D01*
G75*
G02*
X148138500Y-58761500I-200000J0D01*
G01*
X146438500Y-58761500D01*
G75*
G02*
X146238500Y-58561500I0J200000D01*
G01*
G37*
G36*
G01*
X146238500Y-59961500D02*
X146238500Y-58961500D01*
G75*
G02*
X146438500Y-58761500I200000J0D01*
G01*
X148138500Y-58761500D01*
G75*
G02*
X148338500Y-58961500I0J-200000D01*
G01*
X148338500Y-59961500D01*
G75*
G02*
X148138500Y-60161500I-200000J0D01*
G01*
X146438500Y-60161500D01*
G75*
G02*
X146238500Y-59961500I0J200000D01*
G01*
G37*
G36*
G01*
X140738500Y-58561500D02*
X140738500Y-57561500D01*
G75*
G02*
X140938500Y-57361500I200000J0D01*
G01*
X142638500Y-57361500D01*
G75*
G02*
X142838500Y-57561500I0J-200000D01*
G01*
X142838500Y-58561500D01*
G75*
G02*
X142638500Y-58761500I-200000J0D01*
G01*
X140938500Y-58761500D01*
G75*
G02*
X140738500Y-58561500I0J200000D01*
G01*
G37*
G36*
G01*
X140738500Y-59961500D02*
X140738500Y-58961500D01*
G75*
G02*
X140938500Y-58761500I200000J0D01*
G01*
X142638500Y-58761500D01*
G75*
G02*
X142838500Y-58961500I0J-200000D01*
G01*
X142838500Y-59961500D01*
G75*
G02*
X142638500Y-60161500I-200000J0D01*
G01*
X140938500Y-60161500D01*
G75*
G02*
X140738500Y-59961500I0J200000D01*
G01*
G37*
%TD*%
%TO.C,LED9*%
G36*
G01*
X127125000Y-56085000D02*
X127125000Y-55085000D01*
G75*
G02*
X127325000Y-54885000I200000J0D01*
G01*
X129025000Y-54885000D01*
G75*
G02*
X129225000Y-55085000I0J-200000D01*
G01*
X129225000Y-56085000D01*
G75*
G02*
X129025000Y-56285000I-200000J0D01*
G01*
X127325000Y-56285000D01*
G75*
G02*
X127125000Y-56085000I0J200000D01*
G01*
G37*
G36*
G01*
X127125000Y-57485000D02*
X127125000Y-56485000D01*
G75*
G02*
X127325000Y-56285000I200000J0D01*
G01*
X129025000Y-56285000D01*
G75*
G02*
X129225000Y-56485000I0J-200000D01*
G01*
X129225000Y-57485000D01*
G75*
G02*
X129025000Y-57685000I-200000J0D01*
G01*
X127325000Y-57685000D01*
G75*
G02*
X127125000Y-57485000I0J200000D01*
G01*
G37*
G36*
G01*
X121625000Y-56085000D02*
X121625000Y-55085000D01*
G75*
G02*
X121825000Y-54885000I200000J0D01*
G01*
X123525000Y-54885000D01*
G75*
G02*
X123725000Y-55085000I0J-200000D01*
G01*
X123725000Y-56085000D01*
G75*
G02*
X123525000Y-56285000I-200000J0D01*
G01*
X121825000Y-56285000D01*
G75*
G02*
X121625000Y-56085000I0J200000D01*
G01*
G37*
G36*
G01*
X121625000Y-57485000D02*
X121625000Y-56485000D01*
G75*
G02*
X121825000Y-56285000I200000J0D01*
G01*
X123525000Y-56285000D01*
G75*
G02*
X123725000Y-56485000I0J-200000D01*
G01*
X123725000Y-57485000D01*
G75*
G02*
X123525000Y-57685000I-200000J0D01*
G01*
X121825000Y-57685000D01*
G75*
G02*
X121625000Y-57485000I0J200000D01*
G01*
G37*
%TD*%
%TO.C,LED7*%
G36*
G01*
X165288500Y-62498500D02*
X165288500Y-61498500D01*
G75*
G02*
X165488500Y-61298500I200000J0D01*
G01*
X167188500Y-61298500D01*
G75*
G02*
X167388500Y-61498500I0J-200000D01*
G01*
X167388500Y-62498500D01*
G75*
G02*
X167188500Y-62698500I-200000J0D01*
G01*
X165488500Y-62698500D01*
G75*
G02*
X165288500Y-62498500I0J200000D01*
G01*
G37*
G36*
G01*
X165288500Y-63898500D02*
X165288500Y-62898500D01*
G75*
G02*
X165488500Y-62698500I200000J0D01*
G01*
X167188500Y-62698500D01*
G75*
G02*
X167388500Y-62898500I0J-200000D01*
G01*
X167388500Y-63898500D01*
G75*
G02*
X167188500Y-64098500I-200000J0D01*
G01*
X165488500Y-64098500D01*
G75*
G02*
X165288500Y-63898500I0J200000D01*
G01*
G37*
G36*
G01*
X159788500Y-62498500D02*
X159788500Y-61498500D01*
G75*
G02*
X159988500Y-61298500I200000J0D01*
G01*
X161688500Y-61298500D01*
G75*
G02*
X161888500Y-61498500I0J-200000D01*
G01*
X161888500Y-62498500D01*
G75*
G02*
X161688500Y-62698500I-200000J0D01*
G01*
X159988500Y-62698500D01*
G75*
G02*
X159788500Y-62498500I0J200000D01*
G01*
G37*
G36*
G01*
X159788500Y-63898500D02*
X159788500Y-62898500D01*
G75*
G02*
X159988500Y-62698500I200000J0D01*
G01*
X161688500Y-62698500D01*
G75*
G02*
X161888500Y-62898500I0J-200000D01*
G01*
X161888500Y-63898500D01*
G75*
G02*
X161688500Y-64098500I-200000J0D01*
G01*
X159988500Y-64098500D01*
G75*
G02*
X159788500Y-63898500I0J200000D01*
G01*
G37*
%TD*%
%TO.C,LED20*%
G36*
G01*
X108202000Y-96661500D02*
X108202000Y-95661500D01*
G75*
G02*
X108402000Y-95461500I200000J0D01*
G01*
X110102000Y-95461500D01*
G75*
G02*
X110302000Y-95661500I0J-200000D01*
G01*
X110302000Y-96661500D01*
G75*
G02*
X110102000Y-96861500I-200000J0D01*
G01*
X108402000Y-96861500D01*
G75*
G02*
X108202000Y-96661500I0J200000D01*
G01*
G37*
G36*
G01*
X108202000Y-98061500D02*
X108202000Y-97061500D01*
G75*
G02*
X108402000Y-96861500I200000J0D01*
G01*
X110102000Y-96861500D01*
G75*
G02*
X110302000Y-97061500I0J-200000D01*
G01*
X110302000Y-98061500D01*
G75*
G02*
X110102000Y-98261500I-200000J0D01*
G01*
X108402000Y-98261500D01*
G75*
G02*
X108202000Y-98061500I0J200000D01*
G01*
G37*
G36*
G01*
X102702000Y-96661500D02*
X102702000Y-95661500D01*
G75*
G02*
X102902000Y-95461500I200000J0D01*
G01*
X104602000Y-95461500D01*
G75*
G02*
X104802000Y-95661500I0J-200000D01*
G01*
X104802000Y-96661500D01*
G75*
G02*
X104602000Y-96861500I-200000J0D01*
G01*
X102902000Y-96861500D01*
G75*
G02*
X102702000Y-96661500I0J200000D01*
G01*
G37*
G36*
G01*
X102702000Y-98061500D02*
X102702000Y-97061500D01*
G75*
G02*
X102902000Y-96861500I200000J0D01*
G01*
X104602000Y-96861500D01*
G75*
G02*
X104802000Y-97061500I0J-200000D01*
G01*
X104802000Y-98061500D01*
G75*
G02*
X104602000Y-98261500I-200000J0D01*
G01*
X102902000Y-98261500D01*
G75*
G02*
X102702000Y-98061500I0J200000D01*
G01*
G37*
%TD*%
%TO.C,LED12*%
G36*
G01*
X86777517Y-80947516D02*
X86672988Y-79952994D01*
G75*
G02*
X86850986Y-79733184I198904J20906D01*
G01*
X88541673Y-79555486D01*
G75*
G02*
X88761483Y-79733484I20906J-198904D01*
G01*
X88866012Y-80728006D01*
G75*
G02*
X88688014Y-80947816I-198904J-20906D01*
G01*
X86997327Y-81125514D01*
G75*
G02*
X86777517Y-80947516I-20906J198904D01*
G01*
G37*
G36*
G01*
X86923857Y-82339847D02*
X86819328Y-81345325D01*
G75*
G02*
X86997326Y-81125515I198904J20906D01*
G01*
X88688013Y-80947817D01*
G75*
G02*
X88907823Y-81125815I20906J-198904D01*
G01*
X89012352Y-82120337D01*
G75*
G02*
X88834354Y-82340147I-198904J-20906D01*
G01*
X87143667Y-82517845D01*
G75*
G02*
X86923857Y-82339847I-20906J198904D01*
G01*
G37*
G36*
G01*
X81307647Y-81522423D02*
X81203118Y-80527901D01*
G75*
G02*
X81381116Y-80308091I198904J20906D01*
G01*
X83071803Y-80130393D01*
G75*
G02*
X83291613Y-80308391I20906J-198904D01*
G01*
X83396142Y-81302913D01*
G75*
G02*
X83218144Y-81522723I-198904J-20906D01*
G01*
X81527457Y-81700421D01*
G75*
G02*
X81307647Y-81522423I-20906J198904D01*
G01*
G37*
G36*
G01*
X81453987Y-82914754D02*
X81349458Y-81920232D01*
G75*
G02*
X81527456Y-81700422I198904J20906D01*
G01*
X83218143Y-81522724D01*
G75*
G02*
X83437953Y-81700722I20906J-198904D01*
G01*
X83542482Y-82695244D01*
G75*
G02*
X83364484Y-82915054I-198904J-20906D01*
G01*
X81673797Y-83092752D01*
G75*
G02*
X81453987Y-82914754I-20906J198904D01*
G01*
G37*
%TD*%
%TO.C,LED21*%
G36*
G01*
X88809517Y-100124516D02*
X88704988Y-99129994D01*
G75*
G02*
X88882986Y-98910184I198904J20906D01*
G01*
X90573673Y-98732486D01*
G75*
G02*
X90793483Y-98910484I20906J-198904D01*
G01*
X90898012Y-99905006D01*
G75*
G02*
X90720014Y-100124816I-198904J-20906D01*
G01*
X89029327Y-100302514D01*
G75*
G02*
X88809517Y-100124516I-20906J198904D01*
G01*
G37*
G36*
G01*
X88955857Y-101516847D02*
X88851328Y-100522325D01*
G75*
G02*
X89029326Y-100302515I198904J20906D01*
G01*
X90720013Y-100124817D01*
G75*
G02*
X90939823Y-100302815I20906J-198904D01*
G01*
X91044352Y-101297337D01*
G75*
G02*
X90866354Y-101517147I-198904J-20906D01*
G01*
X89175667Y-101694845D01*
G75*
G02*
X88955857Y-101516847I-20906J198904D01*
G01*
G37*
G36*
G01*
X83339647Y-100699423D02*
X83235118Y-99704901D01*
G75*
G02*
X83413116Y-99485091I198904J20906D01*
G01*
X85103803Y-99307393D01*
G75*
G02*
X85323613Y-99485391I20906J-198904D01*
G01*
X85428142Y-100479913D01*
G75*
G02*
X85250144Y-100699723I-198904J-20906D01*
G01*
X83559457Y-100877421D01*
G75*
G02*
X83339647Y-100699423I-20906J198904D01*
G01*
G37*
G36*
G01*
X83485987Y-102091754D02*
X83381458Y-101097232D01*
G75*
G02*
X83559456Y-100877422I198904J20906D01*
G01*
X85250143Y-100699724D01*
G75*
G02*
X85469953Y-100877722I20906J-198904D01*
G01*
X85574482Y-101872244D01*
G75*
G02*
X85396484Y-102092054I-198904J-20906D01*
G01*
X83705797Y-102269752D01*
G75*
G02*
X83485987Y-102091754I-20906J198904D01*
G01*
G37*
%TD*%
%TO.C,LED24*%
G36*
G01*
X146321500Y-115713000D02*
X146321500Y-114713000D01*
G75*
G02*
X146521500Y-114513000I200000J0D01*
G01*
X148221500Y-114513000D01*
G75*
G02*
X148421500Y-114713000I0J-200000D01*
G01*
X148421500Y-115713000D01*
G75*
G02*
X148221500Y-115913000I-200000J0D01*
G01*
X146521500Y-115913000D01*
G75*
G02*
X146321500Y-115713000I0J200000D01*
G01*
G37*
G36*
G01*
X146321500Y-117113000D02*
X146321500Y-116113000D01*
G75*
G02*
X146521500Y-115913000I200000J0D01*
G01*
X148221500Y-115913000D01*
G75*
G02*
X148421500Y-116113000I0J-200000D01*
G01*
X148421500Y-117113000D01*
G75*
G02*
X148221500Y-117313000I-200000J0D01*
G01*
X146521500Y-117313000D01*
G75*
G02*
X146321500Y-117113000I0J200000D01*
G01*
G37*
G36*
G01*
X140821500Y-115713000D02*
X140821500Y-114713000D01*
G75*
G02*
X141021500Y-114513000I200000J0D01*
G01*
X142721500Y-114513000D01*
G75*
G02*
X142921500Y-114713000I0J-200000D01*
G01*
X142921500Y-115713000D01*
G75*
G02*
X142721500Y-115913000I-200000J0D01*
G01*
X141021500Y-115913000D01*
G75*
G02*
X140821500Y-115713000I0J200000D01*
G01*
G37*
G36*
G01*
X140821500Y-117113000D02*
X140821500Y-116113000D01*
G75*
G02*
X141021500Y-115913000I200000J0D01*
G01*
X142721500Y-115913000D01*
G75*
G02*
X142921500Y-116113000I0J-200000D01*
G01*
X142921500Y-117113000D01*
G75*
G02*
X142721500Y-117313000I-200000J0D01*
G01*
X141021500Y-117313000D01*
G75*
G02*
X140821500Y-117113000I0J200000D01*
G01*
G37*
%TD*%
%TO.C,LED18*%
G36*
G01*
X146365500Y-96661500D02*
X146365500Y-95661500D01*
G75*
G02*
X146565500Y-95461500I200000J0D01*
G01*
X148265500Y-95461500D01*
G75*
G02*
X148465500Y-95661500I0J-200000D01*
G01*
X148465500Y-96661500D01*
G75*
G02*
X148265500Y-96861500I-200000J0D01*
G01*
X146565500Y-96861500D01*
G75*
G02*
X146365500Y-96661500I0J200000D01*
G01*
G37*
G36*
G01*
X146365500Y-98061500D02*
X146365500Y-97061500D01*
G75*
G02*
X146565500Y-96861500I200000J0D01*
G01*
X148265500Y-96861500D01*
G75*
G02*
X148465500Y-97061500I0J-200000D01*
G01*
X148465500Y-98061500D01*
G75*
G02*
X148265500Y-98261500I-200000J0D01*
G01*
X146565500Y-98261500D01*
G75*
G02*
X146365500Y-98061500I0J200000D01*
G01*
G37*
G36*
G01*
X140865500Y-96661500D02*
X140865500Y-95661500D01*
G75*
G02*
X141065500Y-95461500I200000J0D01*
G01*
X142765500Y-95461500D01*
G75*
G02*
X142965500Y-95661500I0J-200000D01*
G01*
X142965500Y-96661500D01*
G75*
G02*
X142765500Y-96861500I-200000J0D01*
G01*
X141065500Y-96861500D01*
G75*
G02*
X140865500Y-96661500I0J200000D01*
G01*
G37*
G36*
G01*
X140865500Y-98061500D02*
X140865500Y-97061500D01*
G75*
G02*
X141065500Y-96861500I200000J0D01*
G01*
X142765500Y-96861500D01*
G75*
G02*
X142965500Y-97061500I0J-200000D01*
G01*
X142965500Y-98061500D01*
G75*
G02*
X142765500Y-98261500I-200000J0D01*
G01*
X141065500Y-98261500D01*
G75*
G02*
X140865500Y-98061500I0J200000D01*
G01*
G37*
%TD*%
%TO.C,LED23*%
G36*
G01*
X127208000Y-113236500D02*
X127208000Y-112236500D01*
G75*
G02*
X127408000Y-112036500I200000J0D01*
G01*
X129108000Y-112036500D01*
G75*
G02*
X129308000Y-112236500I0J-200000D01*
G01*
X129308000Y-113236500D01*
G75*
G02*
X129108000Y-113436500I-200000J0D01*
G01*
X127408000Y-113436500D01*
G75*
G02*
X127208000Y-113236500I0J200000D01*
G01*
G37*
G36*
G01*
X127208000Y-114636500D02*
X127208000Y-113636500D01*
G75*
G02*
X127408000Y-113436500I200000J0D01*
G01*
X129108000Y-113436500D01*
G75*
G02*
X129308000Y-113636500I0J-200000D01*
G01*
X129308000Y-114636500D01*
G75*
G02*
X129108000Y-114836500I-200000J0D01*
G01*
X127408000Y-114836500D01*
G75*
G02*
X127208000Y-114636500I0J200000D01*
G01*
G37*
G36*
G01*
X121708000Y-113236500D02*
X121708000Y-112236500D01*
G75*
G02*
X121908000Y-112036500I200000J0D01*
G01*
X123608000Y-112036500D01*
G75*
G02*
X123808000Y-112236500I0J-200000D01*
G01*
X123808000Y-113236500D01*
G75*
G02*
X123608000Y-113436500I-200000J0D01*
G01*
X121908000Y-113436500D01*
G75*
G02*
X121708000Y-113236500I0J200000D01*
G01*
G37*
G36*
G01*
X121708000Y-114636500D02*
X121708000Y-113636500D01*
G75*
G02*
X121908000Y-113436500I200000J0D01*
G01*
X123608000Y-113436500D01*
G75*
G02*
X123808000Y-113636500I0J-200000D01*
G01*
X123808000Y-114636500D01*
G75*
G02*
X123608000Y-114836500I-200000J0D01*
G01*
X121908000Y-114836500D01*
G75*
G02*
X121708000Y-114636500I0J200000D01*
G01*
G37*
%TD*%
%TO.C,LED26*%
G36*
G01*
X188628203Y-125299131D02*
X187662277Y-125040312D01*
G75*
G02*
X187520856Y-124795363I51764J193185D01*
G01*
X187960848Y-123153290D01*
G75*
G02*
X188205797Y-123011869I193185J-51764D01*
G01*
X189171723Y-123270688D01*
G75*
G02*
X189313144Y-123515637I-51764J-193185D01*
G01*
X188873152Y-125157710D01*
G75*
G02*
X188628203Y-125299131I-193185J51764D01*
G01*
G37*
G36*
G01*
X189980499Y-125661477D02*
X189014573Y-125402658D01*
G75*
G02*
X188873152Y-125157709I51764J193185D01*
G01*
X189313144Y-123515636D01*
G75*
G02*
X189558093Y-123374215I193185J-51764D01*
G01*
X190524019Y-123633034D01*
G75*
G02*
X190665440Y-123877983I-51764J-193185D01*
G01*
X190225448Y-125520056D01*
G75*
G02*
X189980499Y-125661477I-193185J51764D01*
G01*
G37*
G36*
G01*
X187204699Y-130611723D02*
X186238773Y-130352904D01*
G75*
G02*
X186097352Y-130107955I51764J193185D01*
G01*
X186537344Y-128465882D01*
G75*
G02*
X186782293Y-128324461I193185J-51764D01*
G01*
X187748219Y-128583280D01*
G75*
G02*
X187889640Y-128828229I-51764J-193185D01*
G01*
X187449648Y-130470302D01*
G75*
G02*
X187204699Y-130611723I-193185J51764D01*
G01*
G37*
G36*
G01*
X188556995Y-130974069D02*
X187591069Y-130715250D01*
G75*
G02*
X187449648Y-130470301I51764J193185D01*
G01*
X187889640Y-128828228D01*
G75*
G02*
X188134589Y-128686807I193185J-51764D01*
G01*
X189100515Y-128945626D01*
G75*
G02*
X189241936Y-129190575I-51764J-193185D01*
G01*
X188801944Y-130832648D01*
G75*
G02*
X188556995Y-130974069I-193185J51764D01*
G01*
G37*
%TD*%
%TO.C,LED25*%
G36*
G01*
X168597573Y-120513873D02*
X167612765Y-120340225D01*
G75*
G02*
X167450533Y-120108533I34730J196962D01*
G01*
X167745735Y-118434359D01*
G75*
G02*
X167977427Y-118272127I196962J-34730D01*
G01*
X168962235Y-118445775D01*
G75*
G02*
X169124467Y-118677467I-34730J-196962D01*
G01*
X168829265Y-120351641D01*
G75*
G02*
X168597573Y-120513873I-196962J34730D01*
G01*
G37*
G36*
G01*
X169976304Y-120756980D02*
X168991496Y-120583332D01*
G75*
G02*
X168829264Y-120351640I34730J196962D01*
G01*
X169124466Y-118677466D01*
G75*
G02*
X169356158Y-118515234I196962J-34730D01*
G01*
X170340966Y-118688882D01*
G75*
G02*
X170503198Y-118920574I-34730J-196962D01*
G01*
X170207996Y-120594748D01*
G75*
G02*
X169976304Y-120756980I-196962J34730D01*
G01*
G37*
G36*
G01*
X167642508Y-125930316D02*
X166657700Y-125756668D01*
G75*
G02*
X166495468Y-125524976I34730J196962D01*
G01*
X166790670Y-123850802D01*
G75*
G02*
X167022362Y-123688570I196962J-34730D01*
G01*
X168007170Y-123862218D01*
G75*
G02*
X168169402Y-124093910I-34730J-196962D01*
G01*
X167874200Y-125768084D01*
G75*
G02*
X167642508Y-125930316I-196962J34730D01*
G01*
G37*
G36*
G01*
X169021239Y-126173423D02*
X168036431Y-125999775D01*
G75*
G02*
X167874199Y-125768083I34730J196962D01*
G01*
X168169401Y-124093909D01*
G75*
G02*
X168401093Y-123931677I196962J-34730D01*
G01*
X169385901Y-124105325D01*
G75*
G02*
X169548133Y-124337017I-34730J-196962D01*
G01*
X169252931Y-126011191D01*
G75*
G02*
X169021239Y-126173423I-196962J34730D01*
G01*
G37*
%TD*%
%TO.C,LED17*%
G36*
G01*
X165352000Y-100598500D02*
X165352000Y-99598500D01*
G75*
G02*
X165552000Y-99398500I200000J0D01*
G01*
X167252000Y-99398500D01*
G75*
G02*
X167452000Y-99598500I0J-200000D01*
G01*
X167452000Y-100598500D01*
G75*
G02*
X167252000Y-100798500I-200000J0D01*
G01*
X165552000Y-100798500D01*
G75*
G02*
X165352000Y-100598500I0J200000D01*
G01*
G37*
G36*
G01*
X165352000Y-101998500D02*
X165352000Y-100998500D01*
G75*
G02*
X165552000Y-100798500I200000J0D01*
G01*
X167252000Y-100798500D01*
G75*
G02*
X167452000Y-100998500I0J-200000D01*
G01*
X167452000Y-101998500D01*
G75*
G02*
X167252000Y-102198500I-200000J0D01*
G01*
X165552000Y-102198500D01*
G75*
G02*
X165352000Y-101998500I0J200000D01*
G01*
G37*
G36*
G01*
X159852000Y-100598500D02*
X159852000Y-99598500D01*
G75*
G02*
X160052000Y-99398500I200000J0D01*
G01*
X161752000Y-99398500D01*
G75*
G02*
X161952000Y-99598500I0J-200000D01*
G01*
X161952000Y-100598500D01*
G75*
G02*
X161752000Y-100798500I-200000J0D01*
G01*
X160052000Y-100798500D01*
G75*
G02*
X159852000Y-100598500I0J200000D01*
G01*
G37*
G36*
G01*
X159852000Y-101998500D02*
X159852000Y-100998500D01*
G75*
G02*
X160052000Y-100798500I200000J0D01*
G01*
X161752000Y-100798500D01*
G75*
G02*
X161952000Y-100998500I0J-200000D01*
G01*
X161952000Y-101998500D01*
G75*
G02*
X161752000Y-102198500I-200000J0D01*
G01*
X160052000Y-102198500D01*
G75*
G02*
X159852000Y-101998500I0J200000D01*
G01*
G37*
%TD*%
%TO.C,LED10*%
G36*
G01*
X108202000Y-58561500D02*
X108202000Y-57561500D01*
G75*
G02*
X108402000Y-57361500I200000J0D01*
G01*
X110102000Y-57361500D01*
G75*
G02*
X110302000Y-57561500I0J-200000D01*
G01*
X110302000Y-58561500D01*
G75*
G02*
X110102000Y-58761500I-200000J0D01*
G01*
X108402000Y-58761500D01*
G75*
G02*
X108202000Y-58561500I0J200000D01*
G01*
G37*
G36*
G01*
X108202000Y-59961500D02*
X108202000Y-58961500D01*
G75*
G02*
X108402000Y-58761500I200000J0D01*
G01*
X110102000Y-58761500D01*
G75*
G02*
X110302000Y-58961500I0J-200000D01*
G01*
X110302000Y-59961500D01*
G75*
G02*
X110102000Y-60161500I-200000J0D01*
G01*
X108402000Y-60161500D01*
G75*
G02*
X108202000Y-59961500I0J200000D01*
G01*
G37*
G36*
G01*
X102702000Y-58561500D02*
X102702000Y-57561500D01*
G75*
G02*
X102902000Y-57361500I200000J0D01*
G01*
X104602000Y-57361500D01*
G75*
G02*
X104802000Y-57561500I0J-200000D01*
G01*
X104802000Y-58561500D01*
G75*
G02*
X104602000Y-58761500I-200000J0D01*
G01*
X102902000Y-58761500D01*
G75*
G02*
X102702000Y-58561500I0J200000D01*
G01*
G37*
G36*
G01*
X102702000Y-59961500D02*
X102702000Y-58961500D01*
G75*
G02*
X102902000Y-58761500I200000J0D01*
G01*
X104602000Y-58761500D01*
G75*
G02*
X104802000Y-58961500I0J-200000D01*
G01*
X104802000Y-59961500D01*
G75*
G02*
X104602000Y-60161500I-200000J0D01*
G01*
X102902000Y-60161500D01*
G75*
G02*
X102702000Y-59961500I0J200000D01*
G01*
G37*
%TD*%
%TO.C,LED16*%
G36*
G01*
X165308000Y-81550000D02*
X165308000Y-80550000D01*
G75*
G02*
X165508000Y-80350000I200000J0D01*
G01*
X167208000Y-80350000D01*
G75*
G02*
X167408000Y-80550000I0J-200000D01*
G01*
X167408000Y-81550000D01*
G75*
G02*
X167208000Y-81750000I-200000J0D01*
G01*
X165508000Y-81750000D01*
G75*
G02*
X165308000Y-81550000I0J200000D01*
G01*
G37*
G36*
G01*
X165308000Y-82950000D02*
X165308000Y-81950000D01*
G75*
G02*
X165508000Y-81750000I200000J0D01*
G01*
X167208000Y-81750000D01*
G75*
G02*
X167408000Y-81950000I0J-200000D01*
G01*
X167408000Y-82950000D01*
G75*
G02*
X167208000Y-83150000I-200000J0D01*
G01*
X165508000Y-83150000D01*
G75*
G02*
X165308000Y-82950000I0J200000D01*
G01*
G37*
G36*
G01*
X159808000Y-81550000D02*
X159808000Y-80550000D01*
G75*
G02*
X160008000Y-80350000I200000J0D01*
G01*
X161708000Y-80350000D01*
G75*
G02*
X161908000Y-80550000I0J-200000D01*
G01*
X161908000Y-81550000D01*
G75*
G02*
X161708000Y-81750000I-200000J0D01*
G01*
X160008000Y-81750000D01*
G75*
G02*
X159808000Y-81550000I0J200000D01*
G01*
G37*
G36*
G01*
X159808000Y-82950000D02*
X159808000Y-81950000D01*
G75*
G02*
X160008000Y-81750000I200000J0D01*
G01*
X161708000Y-81750000D01*
G75*
G02*
X161908000Y-81950000I0J-200000D01*
G01*
X161908000Y-82950000D01*
G75*
G02*
X161708000Y-83150000I-200000J0D01*
G01*
X160008000Y-83150000D01*
G75*
G02*
X159808000Y-82950000I0J200000D01*
G01*
G37*
%TD*%
%TO.C,LED11*%
G36*
G01*
X84809017Y-61897516D02*
X84704488Y-60902994D01*
G75*
G02*
X84882486Y-60683184I198904J20906D01*
G01*
X86573173Y-60505486D01*
G75*
G02*
X86792983Y-60683484I20906J-198904D01*
G01*
X86897512Y-61678006D01*
G75*
G02*
X86719514Y-61897816I-198904J-20906D01*
G01*
X85028827Y-62075514D01*
G75*
G02*
X84809017Y-61897516I-20906J198904D01*
G01*
G37*
G36*
G01*
X84955357Y-63289847D02*
X84850828Y-62295325D01*
G75*
G02*
X85028826Y-62075515I198904J20906D01*
G01*
X86719513Y-61897817D01*
G75*
G02*
X86939323Y-62075815I20906J-198904D01*
G01*
X87043852Y-63070337D01*
G75*
G02*
X86865854Y-63290147I-198904J-20906D01*
G01*
X85175167Y-63467845D01*
G75*
G02*
X84955357Y-63289847I-20906J198904D01*
G01*
G37*
G36*
G01*
X79339147Y-62472423D02*
X79234618Y-61477901D01*
G75*
G02*
X79412616Y-61258091I198904J20906D01*
G01*
X81103303Y-61080393D01*
G75*
G02*
X81323113Y-61258391I20906J-198904D01*
G01*
X81427642Y-62252913D01*
G75*
G02*
X81249644Y-62472723I-198904J-20906D01*
G01*
X79558957Y-62650421D01*
G75*
G02*
X79339147Y-62472423I-20906J198904D01*
G01*
G37*
G36*
G01*
X79485487Y-63864754D02*
X79380958Y-62870232D01*
G75*
G02*
X79558956Y-62650422I198904J20906D01*
G01*
X81249643Y-62472724D01*
G75*
G02*
X81469453Y-62650722I20906J-198904D01*
G01*
X81573982Y-63645244D01*
G75*
G02*
X81395984Y-63865054I-198904J-20906D01*
G01*
X79705297Y-64042752D01*
G75*
G02*
X79485487Y-63864754I-20906J198904D01*
G01*
G37*
%TD*%
D10*
%TO.C,J7*%
X190325000Y-86325000D03*
X191825000Y-90525000D03*
X195825000Y-90525000D03*
X198825000Y-90525000D03*
D11*
X193625000Y-88425000D03*
X200625000Y-88425000D03*
%TD*%
D12*
%TO.C,J5*%
X187528000Y-87579500D03*
X184988000Y-87579500D03*
X182448000Y-87579500D03*
X179908000Y-87579500D03*
%TD*%
D13*
%TO.C,U1*%
X176113400Y-55629500D03*
X176113400Y-58169500D03*
X176113400Y-60709500D03*
X176113400Y-63249500D03*
X176113400Y-65789500D03*
X176113400Y-68329500D03*
X176113400Y-70869500D03*
X176113400Y-73409500D03*
X176113400Y-75949500D03*
X176113400Y-78489500D03*
X176113400Y-81029500D03*
X176113400Y-83569500D03*
X191333400Y-83569500D03*
X191333400Y-81029500D03*
X191333400Y-78489500D03*
X191333400Y-75949500D03*
X191333400Y-73409500D03*
X191333400Y-70869500D03*
X191333400Y-68329500D03*
X191333400Y-65789500D03*
X191333400Y-63249500D03*
X191333400Y-60709500D03*
X191333400Y-58169500D03*
X191333400Y-55629500D03*
%TD*%
D14*
%TO.C,SW4*%
X147142000Y-48908000D03*
X140792000Y-51448000D03*
G36*
G01*
X151919000Y-47658000D02*
X151919000Y-50158000D01*
G75*
G02*
X151719000Y-50358000I-200000J0D01*
G01*
X149169000Y-50358000D01*
G75*
G02*
X148969000Y-50158000I0J200000D01*
G01*
X148969000Y-47658000D01*
G75*
G02*
X149169000Y-47458000I200000J0D01*
G01*
X151719000Y-47458000D01*
G75*
G02*
X151919000Y-47658000I0J-200000D01*
G01*
G37*
D15*
X139522000Y-53988000D03*
X149682000Y-53988000D03*
D16*
X144602000Y-53988000D03*
G36*
G01*
X138992000Y-50198000D02*
X138992000Y-52698000D01*
G75*
G02*
X138792000Y-52898000I-200000J0D01*
G01*
X136242000Y-52898000D01*
G75*
G02*
X136042000Y-52698000I0J200000D01*
G01*
X136042000Y-50198000D01*
G75*
G02*
X136242000Y-49998000I200000J0D01*
G01*
X138792000Y-49998000D01*
G75*
G02*
X138992000Y-50198000I0J-200000D01*
G01*
G37*
%TD*%
D14*
%TO.C,SW5*%
X166192000Y-52845000D03*
X159842000Y-55385000D03*
G36*
G01*
X170969000Y-51595000D02*
X170969000Y-54095000D01*
G75*
G02*
X170769000Y-54295000I-200000J0D01*
G01*
X168219000Y-54295000D01*
G75*
G02*
X168019000Y-54095000I0J200000D01*
G01*
X168019000Y-51595000D01*
G75*
G02*
X168219000Y-51395000I200000J0D01*
G01*
X170769000Y-51395000D01*
G75*
G02*
X170969000Y-51595000I0J-200000D01*
G01*
G37*
D15*
X158572000Y-57925000D03*
X168732000Y-57925000D03*
D16*
X163652000Y-57925000D03*
G36*
G01*
X158042000Y-54135000D02*
X158042000Y-56635000D01*
G75*
G02*
X157842000Y-56835000I-200000J0D01*
G01*
X155292000Y-56835000D01*
G75*
G02*
X155092000Y-56635000I0J200000D01*
G01*
X155092000Y-54135000D01*
G75*
G02*
X155292000Y-53935000I200000J0D01*
G01*
X157842000Y-53935000D01*
G75*
G02*
X158042000Y-54135000I0J-200000D01*
G01*
G37*
%TD*%
D14*
%TO.C,SW17*%
X128092000Y-103581500D03*
X121742000Y-106121500D03*
G36*
G01*
X132869000Y-102331500D02*
X132869000Y-104831500D01*
G75*
G02*
X132669000Y-105031500I-200000J0D01*
G01*
X130119000Y-105031500D01*
G75*
G02*
X129919000Y-104831500I0J200000D01*
G01*
X129919000Y-102331500D01*
G75*
G02*
X130119000Y-102131500I200000J0D01*
G01*
X132669000Y-102131500D01*
G75*
G02*
X132869000Y-102331500I0J-200000D01*
G01*
G37*
D15*
X120472000Y-108661500D03*
X130632000Y-108661500D03*
D16*
X125552000Y-108661500D03*
G36*
G01*
X119942000Y-104871500D02*
X119942000Y-107371500D01*
G75*
G02*
X119742000Y-107571500I-200000J0D01*
G01*
X117192000Y-107571500D01*
G75*
G02*
X116992000Y-107371500I0J200000D01*
G01*
X116992000Y-104871500D01*
G75*
G02*
X117192000Y-104671500I200000J0D01*
G01*
X119742000Y-104671500D01*
G75*
G02*
X119942000Y-104871500I0J-200000D01*
G01*
G37*
%TD*%
D14*
%TO.C,SW13*%
X128092000Y-84531500D03*
X121742000Y-87071500D03*
G36*
G01*
X132869000Y-83281500D02*
X132869000Y-85781500D01*
G75*
G02*
X132669000Y-85981500I-200000J0D01*
G01*
X130119000Y-85981500D01*
G75*
G02*
X129919000Y-85781500I0J200000D01*
G01*
X129919000Y-83281500D01*
G75*
G02*
X130119000Y-83081500I200000J0D01*
G01*
X132669000Y-83081500D01*
G75*
G02*
X132869000Y-83281500I0J-200000D01*
G01*
G37*
D15*
X120472000Y-89611500D03*
X130632000Y-89611500D03*
D16*
X125552000Y-89611500D03*
G36*
G01*
X119942000Y-85821500D02*
X119942000Y-88321500D01*
G75*
G02*
X119742000Y-88521500I-200000J0D01*
G01*
X117192000Y-88521500D01*
G75*
G02*
X116992000Y-88321500I0J200000D01*
G01*
X116992000Y-85821500D01*
G75*
G02*
X117192000Y-85621500I200000J0D01*
G01*
X119742000Y-85621500D01*
G75*
G02*
X119942000Y-85821500I0J-200000D01*
G01*
G37*
%TD*%
D14*
%TO.C,SW19*%
X159217243Y-117914456D03*
X160615989Y-124609051D03*
G36*
G01*
X158815751Y-112992968D02*
X161277770Y-113427088D01*
G75*
G02*
X161440002Y-113658780I-34730J-196962D01*
G01*
X160997199Y-116170040D01*
G75*
G02*
X160765507Y-116332272I-196962J34730D01*
G01*
X158303488Y-115898152D01*
G75*
G02*
X158141256Y-115666460I34730J196962D01*
G01*
X158584059Y-113155200D01*
G75*
G02*
X158815751Y-112992968I196962J-34730D01*
G01*
G37*
D15*
X162896867Y-126300823D03*
X164661133Y-116295177D03*
D16*
X163779000Y-121298000D03*
G36*
G01*
X159072413Y-126164645D02*
X161534432Y-126598765D01*
G75*
G02*
X161696664Y-126830457I-34730J-196962D01*
G01*
X161253861Y-129341717D01*
G75*
G02*
X161022169Y-129503949I-196962J34730D01*
G01*
X158560150Y-129069829D01*
G75*
G02*
X158397918Y-128838137I34730J196962D01*
G01*
X158840721Y-126326877D01*
G75*
G02*
X159072413Y-126164645I196962J-34730D01*
G01*
G37*
%TD*%
D14*
%TO.C,SW15*%
X166192000Y-90945000D03*
X159842000Y-93485000D03*
G36*
G01*
X170969000Y-89695000D02*
X170969000Y-92195000D01*
G75*
G02*
X170769000Y-92395000I-200000J0D01*
G01*
X168219000Y-92395000D01*
G75*
G02*
X168019000Y-92195000I0J200000D01*
G01*
X168019000Y-89695000D01*
G75*
G02*
X168219000Y-89495000I200000J0D01*
G01*
X170769000Y-89495000D01*
G75*
G02*
X170969000Y-89695000I0J-200000D01*
G01*
G37*
D15*
X158572000Y-96025000D03*
X168732000Y-96025000D03*
D16*
X163652000Y-96025000D03*
G36*
G01*
X158042000Y-92235000D02*
X158042000Y-94735000D01*
G75*
G02*
X157842000Y-94935000I-200000J0D01*
G01*
X155292000Y-94935000D01*
G75*
G02*
X155092000Y-94735000I0J200000D01*
G01*
X155092000Y-92235000D01*
G75*
G02*
X155292000Y-92035000I200000J0D01*
G01*
X157842000Y-92035000D01*
G75*
G02*
X158042000Y-92235000I0J-200000D01*
G01*
G37*
%TD*%
D14*
%TO.C,SW2*%
X109042000Y-48908000D03*
X102692000Y-51448000D03*
G36*
G01*
X113819000Y-47658000D02*
X113819000Y-50158000D01*
G75*
G02*
X113619000Y-50358000I-200000J0D01*
G01*
X111069000Y-50358000D01*
G75*
G02*
X110869000Y-50158000I0J200000D01*
G01*
X110869000Y-47658000D01*
G75*
G02*
X111069000Y-47458000I200000J0D01*
G01*
X113619000Y-47458000D01*
G75*
G02*
X113819000Y-47658000I0J-200000D01*
G01*
G37*
D15*
X101422000Y-53988000D03*
X111582000Y-53988000D03*
D16*
X106502000Y-53988000D03*
G36*
G01*
X100892000Y-50198000D02*
X100892000Y-52698000D01*
G75*
G02*
X100692000Y-52898000I-200000J0D01*
G01*
X98142000Y-52898000D01*
G75*
G02*
X97942000Y-52698000I0J200000D01*
G01*
X97942000Y-50198000D01*
G75*
G02*
X98142000Y-49998000I200000J0D01*
G01*
X100692000Y-49998000D01*
G75*
G02*
X100892000Y-50198000I0J-200000D01*
G01*
G37*
%TD*%
D14*
%TO.C,SW7*%
X109042000Y-67958000D03*
X102692000Y-70498000D03*
G36*
G01*
X113819000Y-66708000D02*
X113819000Y-69208000D01*
G75*
G02*
X113619000Y-69408000I-200000J0D01*
G01*
X111069000Y-69408000D01*
G75*
G02*
X110869000Y-69208000I0J200000D01*
G01*
X110869000Y-66708000D01*
G75*
G02*
X111069000Y-66508000I200000J0D01*
G01*
X113619000Y-66508000D01*
G75*
G02*
X113819000Y-66708000I0J-200000D01*
G01*
G37*
D15*
X101422000Y-73038000D03*
X111582000Y-73038000D03*
D16*
X106502000Y-73038000D03*
G36*
G01*
X100892000Y-69248000D02*
X100892000Y-71748000D01*
G75*
G02*
X100692000Y-71948000I-200000J0D01*
G01*
X98142000Y-71948000D01*
G75*
G02*
X97942000Y-71748000I0J200000D01*
G01*
X97942000Y-69248000D01*
G75*
G02*
X98142000Y-69048000I200000J0D01*
G01*
X100692000Y-69048000D01*
G75*
G02*
X100892000Y-69248000I0J-200000D01*
G01*
G37*
%TD*%
D17*
%TO.C,RSW1*%
X194200000Y-79250000D03*
X200700000Y-79250000D03*
%TD*%
D18*
%TO.C,Ref\u002A\u002A*%
X97027800Y-101653640D03*
%TD*%
D14*
%TO.C,SW6*%
X86462581Y-71276326D03*
X80412869Y-74466168D03*
G36*
G01*
X91082751Y-69533841D02*
X91344072Y-72020146D01*
G75*
G02*
X91166074Y-72239956I-198904J-20906D01*
G01*
X88630043Y-72506503D01*
G75*
G02*
X88410233Y-72328505I-20906J198904D01*
G01*
X88148912Y-69842200D01*
G75*
G02*
X88326910Y-69622390I198904J20906D01*
G01*
X90862941Y-69355843D01*
G75*
G02*
X91082751Y-69533841I20906J-198904D01*
G01*
G37*
D15*
X79415329Y-77125005D03*
X89519671Y-76062995D03*
D16*
X84467500Y-76594000D03*
G36*
G01*
X78492069Y-73411167D02*
X78753390Y-75897472D01*
G75*
G02*
X78575392Y-76117282I-198904J-20906D01*
G01*
X76039361Y-76383829D01*
G75*
G02*
X75819551Y-76205831I-20906J198904D01*
G01*
X75558230Y-73719526D01*
G75*
G02*
X75736228Y-73499716I198904J20906D01*
G01*
X78272259Y-73233169D01*
G75*
G02*
X78492069Y-73411167I20906J-198904D01*
G01*
G37*
%TD*%
D18*
%TO.C,Ref\u002A\u002A*%
X116002000Y-80107500D03*
%TD*%
D14*
%TO.C,SW21*%
X198990093Y-127651218D03*
X199205084Y-134486998D03*
G36*
G01*
X199449307Y-122734781D02*
X201798538Y-123589831D01*
G75*
G02*
X201918073Y-123846174I-68404J-187939D01*
G01*
X201045922Y-126242390D01*
G75*
G02*
X200789579Y-126361925I-187939J68404D01*
G01*
X198440348Y-125506875D01*
G75*
G02*
X198320813Y-125250532I68404J187939D01*
G01*
X199192964Y-122854316D01*
G75*
G02*
X199449307Y-122734781I187939J-68404D01*
G01*
G37*
D15*
X201157538Y-136549139D03*
X204632462Y-127001861D03*
D16*
X202895000Y-131775500D03*
G36*
G01*
X197414832Y-135750919D02*
X199764063Y-136605969D01*
G75*
G02*
X199883598Y-136862312I-68404J-187939D01*
G01*
X199011447Y-139258528D01*
G75*
G02*
X198755104Y-139378063I-187939J68404D01*
G01*
X196405873Y-138523013D01*
G75*
G02*
X196286338Y-138266670I68404J187939D01*
G01*
X197158489Y-135870454D01*
G75*
G02*
X197414832Y-135750919I187939J-68404D01*
G01*
G37*
%TD*%
D18*
%TO.C,Ref\u002A\u002A*%
X154172000Y-101707500D03*
%TD*%
%TO.C,Ref\u002A\u002A*%
X193425000Y-128275000D03*
%TD*%
D14*
%TO.C,SW20*%
X179341497Y-121911248D03*
X180151448Y-128702277D03*
G36*
G01*
X179370469Y-116973497D02*
X181785284Y-117620544D01*
G75*
G02*
X181926705Y-117865493I-51764J-193185D01*
G01*
X181266716Y-120328604D01*
G75*
G02*
X181021767Y-120470025I-193185J51764D01*
G01*
X178606952Y-119822978D01*
G75*
G02*
X178465531Y-119578029I51764J193185D01*
G01*
X179125520Y-117114918D01*
G75*
G02*
X179370469Y-116973497I193185J-51764D01*
G01*
G37*
D15*
X182276199Y-130586403D03*
X184905801Y-120772597D03*
D16*
X183591000Y-125679500D03*
G36*
G01*
X178478166Y-130117420D02*
X180892981Y-130764467D01*
G75*
G02*
X181034402Y-131009416I-51764J-193185D01*
G01*
X180374413Y-133472527D01*
G75*
G02*
X180129464Y-133613948I-193185J51764D01*
G01*
X177714649Y-132966901D01*
G75*
G02*
X177573228Y-132721952I51764J193185D01*
G01*
X178233217Y-130258841D01*
G75*
G02*
X178478166Y-130117420I193185J-51764D01*
G01*
G37*
%TD*%
%TO.C,D17*%
G36*
G01*
X134116500Y-107910500D02*
X133116500Y-107910500D01*
G75*
G02*
X132916500Y-107710500I0J200000D01*
G01*
X132916500Y-106310500D01*
G75*
G02*
X133116500Y-106110500I200000J0D01*
G01*
X134116500Y-106110500D01*
G75*
G02*
X134316500Y-106310500I0J-200000D01*
G01*
X134316500Y-107710500D01*
G75*
G02*
X134116500Y-107910500I-200000J0D01*
G01*
G37*
G36*
G01*
X134116500Y-111460500D02*
X133116500Y-111460500D01*
G75*
G02*
X132916500Y-111260500I0J200000D01*
G01*
X132916500Y-109860500D01*
G75*
G02*
X133116500Y-109660500I200000J0D01*
G01*
X134116500Y-109660500D01*
G75*
G02*
X134316500Y-109860500I0J-200000D01*
G01*
X134316500Y-111260500D01*
G75*
G02*
X134116500Y-111460500I-200000J0D01*
G01*
G37*
%TD*%
%TO.C,D19*%
G36*
G01*
X164414313Y-113151380D02*
X164240664Y-114136188D01*
G75*
G02*
X164008972Y-114298420I-196962J34730D01*
G01*
X162630241Y-114055312D01*
G75*
G02*
X162468009Y-113823620I34730J196962D01*
G01*
X162641658Y-112838812D01*
G75*
G02*
X162873350Y-112676580I196962J-34730D01*
G01*
X164252081Y-112919688D01*
G75*
G02*
X164414313Y-113151380I-34730J-196962D01*
G01*
G37*
G36*
G01*
X167910381Y-113767832D02*
X167736732Y-114752640D01*
G75*
G02*
X167505040Y-114914872I-196962J34730D01*
G01*
X166126309Y-114671764D01*
G75*
G02*
X165964077Y-114440072I34730J196962D01*
G01*
X166137726Y-113455264D01*
G75*
G02*
X166369418Y-113293032I196962J-34730D01*
G01*
X167748149Y-113536140D01*
G75*
G02*
X167910381Y-113767832I-34730J-196962D01*
G01*
G37*
%TD*%
%TO.C,D5*%
G36*
G01*
X172343500Y-57177000D02*
X171343500Y-57177000D01*
G75*
G02*
X171143500Y-56977000I0J200000D01*
G01*
X171143500Y-55577000D01*
G75*
G02*
X171343500Y-55377000I200000J0D01*
G01*
X172343500Y-55377000D01*
G75*
G02*
X172543500Y-55577000I0J-200000D01*
G01*
X172543500Y-56977000D01*
G75*
G02*
X172343500Y-57177000I-200000J0D01*
G01*
G37*
G36*
G01*
X172343500Y-60727000D02*
X171343500Y-60727000D01*
G75*
G02*
X171143500Y-60527000I0J200000D01*
G01*
X171143500Y-59127000D01*
G75*
G02*
X171343500Y-58927000I200000J0D01*
G01*
X172343500Y-58927000D01*
G75*
G02*
X172543500Y-59127000I0J-200000D01*
G01*
X172543500Y-60527000D01*
G75*
G02*
X172343500Y-60727000I-200000J0D01*
G01*
G37*
%TD*%
D14*
%TO.C,SW14*%
X147142000Y-87008000D03*
X140792000Y-89548000D03*
G36*
G01*
X151919000Y-85758000D02*
X151919000Y-88258000D01*
G75*
G02*
X151719000Y-88458000I-200000J0D01*
G01*
X149169000Y-88458000D01*
G75*
G02*
X148969000Y-88258000I0J200000D01*
G01*
X148969000Y-85758000D01*
G75*
G02*
X149169000Y-85558000I200000J0D01*
G01*
X151719000Y-85558000D01*
G75*
G02*
X151919000Y-85758000I0J-200000D01*
G01*
G37*
D15*
X139522000Y-92088000D03*
X149682000Y-92088000D03*
D16*
X144602000Y-92088000D03*
G36*
G01*
X138992000Y-88298000D02*
X138992000Y-90798000D01*
G75*
G02*
X138792000Y-90998000I-200000J0D01*
G01*
X136242000Y-90998000D01*
G75*
G02*
X136042000Y-90798000I0J200000D01*
G01*
X136042000Y-88298000D01*
G75*
G02*
X136242000Y-88098000I200000J0D01*
G01*
X138792000Y-88098000D01*
G75*
G02*
X138992000Y-88298000I0J-200000D01*
G01*
G37*
%TD*%
%TO.C,D3*%
G36*
G01*
X134180000Y-50697000D02*
X133180000Y-50697000D01*
G75*
G02*
X132980000Y-50497000I0J200000D01*
G01*
X132980000Y-49097000D01*
G75*
G02*
X133180000Y-48897000I200000J0D01*
G01*
X134180000Y-48897000D01*
G75*
G02*
X134380000Y-49097000I0J-200000D01*
G01*
X134380000Y-50497000D01*
G75*
G02*
X134180000Y-50697000I-200000J0D01*
G01*
G37*
G36*
G01*
X134180000Y-54247000D02*
X133180000Y-54247000D01*
G75*
G02*
X132980000Y-54047000I0J200000D01*
G01*
X132980000Y-52647000D01*
G75*
G02*
X133180000Y-52447000I200000J0D01*
G01*
X134180000Y-52447000D01*
G75*
G02*
X134380000Y-52647000I0J-200000D01*
G01*
X134380000Y-54047000D01*
G75*
G02*
X134180000Y-54247000I-200000J0D01*
G01*
G37*
%TD*%
D14*
%TO.C,SW16*%
X109042000Y-106058000D03*
X102692000Y-108598000D03*
G36*
G01*
X113819000Y-104808000D02*
X113819000Y-107308000D01*
G75*
G02*
X113619000Y-107508000I-200000J0D01*
G01*
X111069000Y-107508000D01*
G75*
G02*
X110869000Y-107308000I0J200000D01*
G01*
X110869000Y-104808000D01*
G75*
G02*
X111069000Y-104608000I200000J0D01*
G01*
X113619000Y-104608000D01*
G75*
G02*
X113819000Y-104808000I0J-200000D01*
G01*
G37*
D15*
X101422000Y-111138000D03*
X111582000Y-111138000D03*
D16*
X106502000Y-111138000D03*
G36*
G01*
X100892000Y-107348000D02*
X100892000Y-109848000D01*
G75*
G02*
X100692000Y-110048000I-200000J0D01*
G01*
X98142000Y-110048000D01*
G75*
G02*
X97942000Y-109848000I0J200000D01*
G01*
X97942000Y-107348000D01*
G75*
G02*
X98142000Y-107148000I200000J0D01*
G01*
X100692000Y-107148000D01*
G75*
G02*
X100892000Y-107348000I0J-200000D01*
G01*
G37*
%TD*%
D19*
%TO.C,J2*%
X200050000Y-67170000D03*
X200050000Y-69710000D03*
X200050000Y-72250000D03*
X200050000Y-74790000D03*
%TD*%
%TO.C,D7*%
G36*
G01*
X115130000Y-72163000D02*
X114130000Y-72163000D01*
G75*
G02*
X113930000Y-71963000I0J200000D01*
G01*
X113930000Y-70563000D01*
G75*
G02*
X114130000Y-70363000I200000J0D01*
G01*
X115130000Y-70363000D01*
G75*
G02*
X115330000Y-70563000I0J-200000D01*
G01*
X115330000Y-71963000D01*
G75*
G02*
X115130000Y-72163000I-200000J0D01*
G01*
G37*
G36*
G01*
X115130000Y-75713000D02*
X114130000Y-75713000D01*
G75*
G02*
X113930000Y-75513000I0J200000D01*
G01*
X113930000Y-74113000D01*
G75*
G02*
X114130000Y-73913000I200000J0D01*
G01*
X115130000Y-73913000D01*
G75*
G02*
X115330000Y-74113000I0J-200000D01*
G01*
X115330000Y-75513000D01*
G75*
G02*
X115130000Y-75713000I-200000J0D01*
G01*
G37*
%TD*%
D14*
%TO.C,SW1*%
X84494081Y-52353326D03*
X78444369Y-55543168D03*
G36*
G01*
X89114251Y-50610841D02*
X89375572Y-53097146D01*
G75*
G02*
X89197574Y-53316956I-198904J-20906D01*
G01*
X86661543Y-53583503D01*
G75*
G02*
X86441733Y-53405505I-20906J198904D01*
G01*
X86180412Y-50919200D01*
G75*
G02*
X86358410Y-50699390I198904J20906D01*
G01*
X88894441Y-50432843D01*
G75*
G02*
X89114251Y-50610841I20906J-198904D01*
G01*
G37*
D15*
X77446829Y-58202005D03*
X87551171Y-57139995D03*
D16*
X82499000Y-57671000D03*
G36*
G01*
X76523569Y-54488167D02*
X76784890Y-56974472D01*
G75*
G02*
X76606892Y-57194282I-198904J-20906D01*
G01*
X74070861Y-57460829D01*
G75*
G02*
X73851051Y-57282831I-20906J198904D01*
G01*
X73589730Y-54796526D01*
G75*
G02*
X73767728Y-54576716I198904J20906D01*
G01*
X76303759Y-54310169D01*
G75*
G02*
X76523569Y-54488167I20906J-198904D01*
G01*
G37*
%TD*%
%TO.C,D11*%
G36*
G01*
X94715799Y-94023029D02*
X93721277Y-94127558D01*
G75*
G02*
X93501467Y-93949560I-20906J198904D01*
G01*
X93355127Y-92557229D01*
G75*
G02*
X93533125Y-92337419I198904J20906D01*
G01*
X94527647Y-92232890D01*
G75*
G02*
X94747457Y-92410888I20906J-198904D01*
G01*
X94893797Y-93803219D01*
G75*
G02*
X94715799Y-94023029I-198904J-20906D01*
G01*
G37*
G36*
G01*
X95086875Y-97553581D02*
X94092353Y-97658110D01*
G75*
G02*
X93872543Y-97480112I-20906J198904D01*
G01*
X93726203Y-96087781D01*
G75*
G02*
X93904201Y-95867971I198904J20906D01*
G01*
X94898723Y-95763442D01*
G75*
G02*
X95118533Y-95941440I20906J-198904D01*
G01*
X95264873Y-97333771D01*
G75*
G02*
X95086875Y-97553581I-198904J-20906D01*
G01*
G37*
%TD*%
D18*
%TO.C,Ref\u002A\u002A*%
X154172000Y-63597500D03*
%TD*%
%TO.C,D20*%
G36*
G01*
X184907243Y-117682474D02*
X184648424Y-118648400D01*
G75*
G02*
X184403475Y-118789821I-193185J51764D01*
G01*
X183051178Y-118427475D01*
G75*
G02*
X182909757Y-118182526I51764J193185D01*
G01*
X183168576Y-117216600D01*
G75*
G02*
X183413525Y-117075179I193185J-51764D01*
G01*
X184765822Y-117437525D01*
G75*
G02*
X184907243Y-117682474I-51764J-193185D01*
G01*
G37*
G36*
G01*
X188336279Y-118601282D02*
X188077460Y-119567208D01*
G75*
G02*
X187832511Y-119708629I-193185J51764D01*
G01*
X186480214Y-119346283D01*
G75*
G02*
X186338793Y-119101334I51764J193185D01*
G01*
X186597612Y-118135408D01*
G75*
G02*
X186842561Y-117993987I193185J-51764D01*
G01*
X188194858Y-118356333D01*
G75*
G02*
X188336279Y-118601282I-51764J-193185D01*
G01*
G37*
%TD*%
%TO.C,D13*%
G36*
G01*
X134116500Y-88800000D02*
X133116500Y-88800000D01*
G75*
G02*
X132916500Y-88600000I0J200000D01*
G01*
X132916500Y-87200000D01*
G75*
G02*
X133116500Y-87000000I200000J0D01*
G01*
X134116500Y-87000000D01*
G75*
G02*
X134316500Y-87200000I0J-200000D01*
G01*
X134316500Y-88600000D01*
G75*
G02*
X134116500Y-88800000I-200000J0D01*
G01*
G37*
G36*
G01*
X134116500Y-92350000D02*
X133116500Y-92350000D01*
G75*
G02*
X132916500Y-92150000I0J200000D01*
G01*
X132916500Y-90750000D01*
G75*
G02*
X133116500Y-90550000I200000J0D01*
G01*
X134116500Y-90550000D01*
G75*
G02*
X134316500Y-90750000I0J-200000D01*
G01*
X134316500Y-92150000D01*
G75*
G02*
X134116500Y-92350000I-200000J0D01*
G01*
G37*
%TD*%
%TO.C,D8*%
G36*
G01*
X134053000Y-69686500D02*
X133053000Y-69686500D01*
G75*
G02*
X132853000Y-69486500I0J200000D01*
G01*
X132853000Y-68086500D01*
G75*
G02*
X133053000Y-67886500I200000J0D01*
G01*
X134053000Y-67886500D01*
G75*
G02*
X134253000Y-68086500I0J-200000D01*
G01*
X134253000Y-69486500D01*
G75*
G02*
X134053000Y-69686500I-200000J0D01*
G01*
G37*
G36*
G01*
X134053000Y-73236500D02*
X133053000Y-73236500D01*
G75*
G02*
X132853000Y-73036500I0J200000D01*
G01*
X132853000Y-71636500D01*
G75*
G02*
X133053000Y-71436500I200000J0D01*
G01*
X134053000Y-71436500D01*
G75*
G02*
X134253000Y-71636500I0J-200000D01*
G01*
X134253000Y-73036500D01*
G75*
G02*
X134053000Y-73236500I-200000J0D01*
G01*
G37*
%TD*%
D14*
%TO.C,SW11*%
X88431081Y-90262826D03*
X82381369Y-93452668D03*
G36*
G01*
X93051251Y-88520341D02*
X93312572Y-91006646D01*
G75*
G02*
X93134574Y-91226456I-198904J-20906D01*
G01*
X90598543Y-91493003D01*
G75*
G02*
X90378733Y-91315005I-20906J198904D01*
G01*
X90117412Y-88828700D01*
G75*
G02*
X90295410Y-88608890I198904J20906D01*
G01*
X92831441Y-88342343D01*
G75*
G02*
X93051251Y-88520341I20906J-198904D01*
G01*
G37*
D15*
X81383829Y-96111505D03*
X91488171Y-95049495D03*
D16*
X86436000Y-95580500D03*
G36*
G01*
X80460569Y-92397667D02*
X80721890Y-94883972D01*
G75*
G02*
X80543892Y-95103782I-198904J-20906D01*
G01*
X78007861Y-95370329D01*
G75*
G02*
X77788051Y-95192331I-20906J198904D01*
G01*
X77526730Y-92706026D01*
G75*
G02*
X77704728Y-92486216I198904J20906D01*
G01*
X80240759Y-92219669D01*
G75*
G02*
X80460569Y-92397667I20906J-198904D01*
G01*
G37*
%TD*%
%TO.C,D4*%
G36*
G01*
X153293500Y-53176500D02*
X152293500Y-53176500D01*
G75*
G02*
X152093500Y-52976500I0J200000D01*
G01*
X152093500Y-51576500D01*
G75*
G02*
X152293500Y-51376500I200000J0D01*
G01*
X153293500Y-51376500D01*
G75*
G02*
X153493500Y-51576500I0J-200000D01*
G01*
X153493500Y-52976500D01*
G75*
G02*
X153293500Y-53176500I-200000J0D01*
G01*
G37*
G36*
G01*
X153293500Y-56726500D02*
X152293500Y-56726500D01*
G75*
G02*
X152093500Y-56526500I0J200000D01*
G01*
X152093500Y-55126500D01*
G75*
G02*
X152293500Y-54926500I200000J0D01*
G01*
X153293500Y-54926500D01*
G75*
G02*
X153493500Y-55126500I0J-200000D01*
G01*
X153493500Y-56526500D01*
G75*
G02*
X153293500Y-56726500I-200000J0D01*
G01*
G37*
%TD*%
D18*
%TO.C,Ref\u002A\u002A*%
X94881500Y-63449500D03*
%TD*%
D14*
%TO.C,SW10*%
X166192000Y-71895000D03*
X159842000Y-74435000D03*
G36*
G01*
X170969000Y-70645000D02*
X170969000Y-73145000D01*
G75*
G02*
X170769000Y-73345000I-200000J0D01*
G01*
X168219000Y-73345000D01*
G75*
G02*
X168019000Y-73145000I0J200000D01*
G01*
X168019000Y-70645000D01*
G75*
G02*
X168219000Y-70445000I200000J0D01*
G01*
X170769000Y-70445000D01*
G75*
G02*
X170969000Y-70645000I0J-200000D01*
G01*
G37*
D15*
X158572000Y-76975000D03*
X168732000Y-76975000D03*
D16*
X163652000Y-76975000D03*
G36*
G01*
X158042000Y-73185000D02*
X158042000Y-75685000D01*
G75*
G02*
X157842000Y-75885000I-200000J0D01*
G01*
X155292000Y-75885000D01*
G75*
G02*
X155092000Y-75685000I0J200000D01*
G01*
X155092000Y-73185000D01*
G75*
G02*
X155292000Y-72985000I200000J0D01*
G01*
X157842000Y-72985000D01*
G75*
G02*
X158042000Y-73185000I0J-200000D01*
G01*
G37*
%TD*%
D20*
%TO.C,J1*%
X194889500Y-64137000D03*
X199089500Y-62637000D03*
X199089500Y-58637000D03*
X199089500Y-55637000D03*
D11*
X196989500Y-60837000D03*
X196989500Y-53837000D03*
%TD*%
D14*
%TO.C,SW9*%
X147142000Y-67958000D03*
X140792000Y-70498000D03*
G36*
G01*
X151919000Y-66708000D02*
X151919000Y-69208000D01*
G75*
G02*
X151719000Y-69408000I-200000J0D01*
G01*
X149169000Y-69408000D01*
G75*
G02*
X148969000Y-69208000I0J200000D01*
G01*
X148969000Y-66708000D01*
G75*
G02*
X149169000Y-66508000I200000J0D01*
G01*
X151719000Y-66508000D01*
G75*
G02*
X151919000Y-66708000I0J-200000D01*
G01*
G37*
D15*
X139522000Y-73038000D03*
X149682000Y-73038000D03*
D16*
X144602000Y-73038000D03*
G36*
G01*
X138992000Y-69248000D02*
X138992000Y-71748000D01*
G75*
G02*
X138792000Y-71948000I-200000J0D01*
G01*
X136242000Y-71948000D01*
G75*
G02*
X136042000Y-71748000I0J200000D01*
G01*
X136042000Y-69248000D01*
G75*
G02*
X136242000Y-69048000I200000J0D01*
G01*
X138792000Y-69048000D01*
G75*
G02*
X138992000Y-69248000I0J-200000D01*
G01*
G37*
%TD*%
%TO.C,D2*%
G36*
G01*
X115066500Y-53049500D02*
X114066500Y-53049500D01*
G75*
G02*
X113866500Y-52849500I0J200000D01*
G01*
X113866500Y-51449500D01*
G75*
G02*
X114066500Y-51249500I200000J0D01*
G01*
X115066500Y-51249500D01*
G75*
G02*
X115266500Y-51449500I0J-200000D01*
G01*
X115266500Y-52849500D01*
G75*
G02*
X115066500Y-53049500I-200000J0D01*
G01*
G37*
G36*
G01*
X115066500Y-56599500D02*
X114066500Y-56599500D01*
G75*
G02*
X113866500Y-56399500I0J200000D01*
G01*
X113866500Y-54999500D01*
G75*
G02*
X114066500Y-54799500I200000J0D01*
G01*
X115066500Y-54799500D01*
G75*
G02*
X115266500Y-54999500I0J-200000D01*
G01*
X115266500Y-56399500D01*
G75*
G02*
X115066500Y-56599500I-200000J0D01*
G01*
G37*
%TD*%
%TO.C,D21*%
G36*
G01*
X205054734Y-123802972D02*
X204712714Y-124742664D01*
G75*
G02*
X204456371Y-124862199I-187939J68404D01*
G01*
X203140801Y-124383371D01*
G75*
G02*
X203021266Y-124127028I68404J187939D01*
G01*
X203363286Y-123187336D01*
G75*
G02*
X203619629Y-123067801I187939J-68404D01*
G01*
X204935199Y-123546629D01*
G75*
G02*
X205054734Y-123802972I-68404J-187939D01*
G01*
G37*
G36*
G01*
X208390642Y-125017144D02*
X208048622Y-125956836D01*
G75*
G02*
X207792279Y-126076371I-187939J68404D01*
G01*
X206476709Y-125597543D01*
G75*
G02*
X206357174Y-125341200I68404J187939D01*
G01*
X206699194Y-124401508D01*
G75*
G02*
X206955537Y-124281973I187939J-68404D01*
G01*
X208271107Y-124760801D01*
G75*
G02*
X208390642Y-125017144I-68404J-187939D01*
G01*
G37*
%TD*%
D14*
%TO.C,SW12*%
X109042000Y-87008000D03*
X102692000Y-89548000D03*
G36*
G01*
X113819000Y-85758000D02*
X113819000Y-88258000D01*
G75*
G02*
X113619000Y-88458000I-200000J0D01*
G01*
X111069000Y-88458000D01*
G75*
G02*
X110869000Y-88258000I0J200000D01*
G01*
X110869000Y-85758000D01*
G75*
G02*
X111069000Y-85558000I200000J0D01*
G01*
X113619000Y-85558000D01*
G75*
G02*
X113819000Y-85758000I0J-200000D01*
G01*
G37*
D15*
X101422000Y-92088000D03*
X111582000Y-92088000D03*
D16*
X106502000Y-92088000D03*
G36*
G01*
X100892000Y-88298000D02*
X100892000Y-90798000D01*
G75*
G02*
X100692000Y-90998000I-200000J0D01*
G01*
X98142000Y-90998000D01*
G75*
G02*
X97942000Y-90798000I0J200000D01*
G01*
X97942000Y-88298000D01*
G75*
G02*
X98142000Y-88098000I200000J0D01*
G01*
X100692000Y-88098000D01*
G75*
G02*
X100892000Y-88298000I0J-200000D01*
G01*
G37*
%TD*%
D14*
%TO.C,SW3*%
X128092000Y-46431500D03*
X121742000Y-48971500D03*
G36*
G01*
X132869000Y-45181500D02*
X132869000Y-47681500D01*
G75*
G02*
X132669000Y-47881500I-200000J0D01*
G01*
X130119000Y-47881500D01*
G75*
G02*
X129919000Y-47681500I0J200000D01*
G01*
X129919000Y-45181500D01*
G75*
G02*
X130119000Y-44981500I200000J0D01*
G01*
X132669000Y-44981500D01*
G75*
G02*
X132869000Y-45181500I0J-200000D01*
G01*
G37*
D15*
X120472000Y-51511500D03*
X130632000Y-51511500D03*
D16*
X125552000Y-51511500D03*
G36*
G01*
X119942000Y-47721500D02*
X119942000Y-50221500D01*
G75*
G02*
X119742000Y-50421500I-200000J0D01*
G01*
X117192000Y-50421500D01*
G75*
G02*
X116992000Y-50221500I0J200000D01*
G01*
X116992000Y-47721500D01*
G75*
G02*
X117192000Y-47521500I200000J0D01*
G01*
X119742000Y-47521500D01*
G75*
G02*
X119942000Y-47721500I0J-200000D01*
G01*
G37*
%TD*%
%TO.C,D16*%
G36*
G01*
X115003000Y-110577500D02*
X114003000Y-110577500D01*
G75*
G02*
X113803000Y-110377500I0J200000D01*
G01*
X113803000Y-108977500D01*
G75*
G02*
X114003000Y-108777500I200000J0D01*
G01*
X115003000Y-108777500D01*
G75*
G02*
X115203000Y-108977500I0J-200000D01*
G01*
X115203000Y-110377500D01*
G75*
G02*
X115003000Y-110577500I-200000J0D01*
G01*
G37*
G36*
G01*
X115003000Y-114127500D02*
X114003000Y-114127500D01*
G75*
G02*
X113803000Y-113927500I0J200000D01*
G01*
X113803000Y-112527500D01*
G75*
G02*
X114003000Y-112327500I200000J0D01*
G01*
X115003000Y-112327500D01*
G75*
G02*
X115203000Y-112527500I0J-200000D01*
G01*
X115203000Y-113927500D01*
G75*
G02*
X115003000Y-114127500I-200000J0D01*
G01*
G37*
%TD*%
%TO.C,D1*%
G36*
G01*
X90715299Y-55923029D02*
X89720777Y-56027558D01*
G75*
G02*
X89500967Y-55849560I-20906J198904D01*
G01*
X89354627Y-54457229D01*
G75*
G02*
X89532625Y-54237419I198904J20906D01*
G01*
X90527147Y-54132890D01*
G75*
G02*
X90746957Y-54310888I20906J-198904D01*
G01*
X90893297Y-55703219D01*
G75*
G02*
X90715299Y-55923029I-198904J-20906D01*
G01*
G37*
G36*
G01*
X91086375Y-59453581D02*
X90091853Y-59558110D01*
G75*
G02*
X89872043Y-59380112I-20906J198904D01*
G01*
X89725703Y-57987781D01*
G75*
G02*
X89903701Y-57767971I198904J20906D01*
G01*
X90898223Y-57663442D01*
G75*
G02*
X91118033Y-57841440I20906J-198904D01*
G01*
X91264373Y-59233771D01*
G75*
G02*
X91086375Y-59453581I-198904J-20906D01*
G01*
G37*
%TD*%
%TO.C,D12*%
G36*
G01*
X115130000Y-91273500D02*
X114130000Y-91273500D01*
G75*
G02*
X113930000Y-91073500I0J200000D01*
G01*
X113930000Y-89673500D01*
G75*
G02*
X114130000Y-89473500I200000J0D01*
G01*
X115130000Y-89473500D01*
G75*
G02*
X115330000Y-89673500I0J-200000D01*
G01*
X115330000Y-91073500D01*
G75*
G02*
X115130000Y-91273500I-200000J0D01*
G01*
G37*
G36*
G01*
X115130000Y-94823500D02*
X114130000Y-94823500D01*
G75*
G02*
X113930000Y-94623500I0J200000D01*
G01*
X113930000Y-93223500D01*
G75*
G02*
X114130000Y-93023500I200000J0D01*
G01*
X115130000Y-93023500D01*
G75*
G02*
X115330000Y-93223500I0J-200000D01*
G01*
X115330000Y-94623500D01*
G75*
G02*
X115130000Y-94823500I-200000J0D01*
G01*
G37*
%TD*%
%TO.C,D6*%
G36*
G01*
X92678837Y-74960305D02*
X91684315Y-75064834D01*
G75*
G02*
X91464505Y-74886836I-20906J198904D01*
G01*
X91318165Y-73494505D01*
G75*
G02*
X91496163Y-73274695I198904J20906D01*
G01*
X92490685Y-73170166D01*
G75*
G02*
X92710495Y-73348164I20906J-198904D01*
G01*
X92856835Y-74740495D01*
G75*
G02*
X92678837Y-74960305I-198904J-20906D01*
G01*
G37*
G36*
G01*
X93049913Y-78490857D02*
X92055391Y-78595386D01*
G75*
G02*
X91835581Y-78417388I-20906J198904D01*
G01*
X91689241Y-77025057D01*
G75*
G02*
X91867239Y-76805247I198904J20906D01*
G01*
X92861761Y-76700718D01*
G75*
G02*
X93081571Y-76878716I20906J-198904D01*
G01*
X93227911Y-78271047D01*
G75*
G02*
X93049913Y-78490857I-198904J-20906D01*
G01*
G37*
%TD*%
%TO.C,D14*%
G36*
G01*
X153166500Y-91273500D02*
X152166500Y-91273500D01*
G75*
G02*
X151966500Y-91073500I0J200000D01*
G01*
X151966500Y-89673500D01*
G75*
G02*
X152166500Y-89473500I200000J0D01*
G01*
X153166500Y-89473500D01*
G75*
G02*
X153366500Y-89673500I0J-200000D01*
G01*
X153366500Y-91073500D01*
G75*
G02*
X153166500Y-91273500I-200000J0D01*
G01*
G37*
G36*
G01*
X153166500Y-94823500D02*
X152166500Y-94823500D01*
G75*
G02*
X151966500Y-94623500I0J200000D01*
G01*
X151966500Y-93223500D01*
G75*
G02*
X152166500Y-93023500I200000J0D01*
G01*
X153166500Y-93023500D01*
G75*
G02*
X153366500Y-93223500I0J-200000D01*
G01*
X153366500Y-94623500D01*
G75*
G02*
X153166500Y-94823500I-200000J0D01*
G01*
G37*
%TD*%
%TO.C,D10*%
G36*
G01*
X172280000Y-76036500D02*
X171280000Y-76036500D01*
G75*
G02*
X171080000Y-75836500I0J200000D01*
G01*
X171080000Y-74436500D01*
G75*
G02*
X171280000Y-74236500I200000J0D01*
G01*
X172280000Y-74236500D01*
G75*
G02*
X172480000Y-74436500I0J-200000D01*
G01*
X172480000Y-75836500D01*
G75*
G02*
X172280000Y-76036500I-200000J0D01*
G01*
G37*
G36*
G01*
X172280000Y-79586500D02*
X171280000Y-79586500D01*
G75*
G02*
X171080000Y-79386500I0J200000D01*
G01*
X171080000Y-77986500D01*
G75*
G02*
X171280000Y-77786500I200000J0D01*
G01*
X172280000Y-77786500D01*
G75*
G02*
X172480000Y-77986500I0J-200000D01*
G01*
X172480000Y-79386500D01*
G75*
G02*
X172280000Y-79586500I-200000J0D01*
G01*
G37*
%TD*%
%TO.C,D15*%
G36*
G01*
X172153000Y-95083500D02*
X171153000Y-95083500D01*
G75*
G02*
X170953000Y-94883500I0J200000D01*
G01*
X170953000Y-93483500D01*
G75*
G02*
X171153000Y-93283500I200000J0D01*
G01*
X172153000Y-93283500D01*
G75*
G02*
X172353000Y-93483500I0J-200000D01*
G01*
X172353000Y-94883500D01*
G75*
G02*
X172153000Y-95083500I-200000J0D01*
G01*
G37*
G36*
G01*
X172153000Y-98633500D02*
X171153000Y-98633500D01*
G75*
G02*
X170953000Y-98433500I0J200000D01*
G01*
X170953000Y-97033500D01*
G75*
G02*
X171153000Y-96833500I200000J0D01*
G01*
X172153000Y-96833500D01*
G75*
G02*
X172353000Y-97033500I0J-200000D01*
G01*
X172353000Y-98433500D01*
G75*
G02*
X172153000Y-98633500I-200000J0D01*
G01*
G37*
%TD*%
D14*
%TO.C,SW8*%
X128092000Y-65481500D03*
X121742000Y-68021500D03*
G36*
G01*
X132869000Y-64231500D02*
X132869000Y-66731500D01*
G75*
G02*
X132669000Y-66931500I-200000J0D01*
G01*
X130119000Y-66931500D01*
G75*
G02*
X129919000Y-66731500I0J200000D01*
G01*
X129919000Y-64231500D01*
G75*
G02*
X130119000Y-64031500I200000J0D01*
G01*
X132669000Y-64031500D01*
G75*
G02*
X132869000Y-64231500I0J-200000D01*
G01*
G37*
D15*
X120472000Y-70561500D03*
X130632000Y-70561500D03*
D16*
X125552000Y-70561500D03*
G36*
G01*
X119942000Y-66771500D02*
X119942000Y-69271500D01*
G75*
G02*
X119742000Y-69471500I-200000J0D01*
G01*
X117192000Y-69471500D01*
G75*
G02*
X116992000Y-69271500I0J200000D01*
G01*
X116992000Y-66771500D01*
G75*
G02*
X117192000Y-66571500I200000J0D01*
G01*
X119742000Y-66571500D01*
G75*
G02*
X119942000Y-66771500I0J-200000D01*
G01*
G37*
%TD*%
%TO.C,D9*%
G36*
G01*
X153230000Y-72226500D02*
X152230000Y-72226500D01*
G75*
G02*
X152030000Y-72026500I0J200000D01*
G01*
X152030000Y-70626500D01*
G75*
G02*
X152230000Y-70426500I200000J0D01*
G01*
X153230000Y-70426500D01*
G75*
G02*
X153430000Y-70626500I0J-200000D01*
G01*
X153430000Y-72026500D01*
G75*
G02*
X153230000Y-72226500I-200000J0D01*
G01*
G37*
G36*
G01*
X153230000Y-75776500D02*
X152230000Y-75776500D01*
G75*
G02*
X152030000Y-75576500I0J200000D01*
G01*
X152030000Y-74176500D01*
G75*
G02*
X152230000Y-73976500I200000J0D01*
G01*
X153230000Y-73976500D01*
G75*
G02*
X153430000Y-74176500I0J-200000D01*
G01*
X153430000Y-75576500D01*
G75*
G02*
X153230000Y-75776500I-200000J0D01*
G01*
G37*
%TD*%
D18*
%TO.C,Ref\u002A\u002A*%
X135052000Y-80157500D03*
%TD*%
%TO.C,D18*%
G36*
G01*
X153103000Y-110450500D02*
X152103000Y-110450500D01*
G75*
G02*
X151903000Y-110250500I0J200000D01*
G01*
X151903000Y-108850500D01*
G75*
G02*
X152103000Y-108650500I200000J0D01*
G01*
X153103000Y-108650500D01*
G75*
G02*
X153303000Y-108850500I0J-200000D01*
G01*
X153303000Y-110250500D01*
G75*
G02*
X153103000Y-110450500I-200000J0D01*
G01*
G37*
G36*
G01*
X153103000Y-114000500D02*
X152103000Y-114000500D01*
G75*
G02*
X151903000Y-113800500I0J200000D01*
G01*
X151903000Y-112400500D01*
G75*
G02*
X152103000Y-112200500I200000J0D01*
G01*
X153103000Y-112200500D01*
G75*
G02*
X153303000Y-112400500I0J-200000D01*
G01*
X153303000Y-113800500D01*
G75*
G02*
X153103000Y-114000500I-200000J0D01*
G01*
G37*
%TD*%
D14*
%TO.C,SW18*%
X147142000Y-106058000D03*
X140792000Y-108598000D03*
G36*
G01*
X151919000Y-104808000D02*
X151919000Y-107308000D01*
G75*
G02*
X151719000Y-107508000I-200000J0D01*
G01*
X149169000Y-107508000D01*
G75*
G02*
X148969000Y-107308000I0J200000D01*
G01*
X148969000Y-104808000D01*
G75*
G02*
X149169000Y-104608000I200000J0D01*
G01*
X151719000Y-104608000D01*
G75*
G02*
X151919000Y-104808000I0J-200000D01*
G01*
G37*
D15*
X139522000Y-111138000D03*
X149682000Y-111138000D03*
D16*
X144602000Y-111138000D03*
G36*
G01*
X138992000Y-107348000D02*
X138992000Y-109848000D01*
G75*
G02*
X138792000Y-110048000I-200000J0D01*
G01*
X136242000Y-110048000D01*
G75*
G02*
X136042000Y-109848000I0J200000D01*
G01*
X136042000Y-107348000D01*
G75*
G02*
X136242000Y-107148000I200000J0D01*
G01*
X138792000Y-107148000D01*
G75*
G02*
X138992000Y-107348000I0J-200000D01*
G01*
G37*
%TD*%
M02*
