<?xml version="1.0"?>
<!DOCTYPE svg PUBLIC "-//W3C//DTD SVG 1.1//EN" "http://www.w3.org/Graphics/SVG/1.1/DTD/svg11.dtd">
<svg width="271.94474999999994mm" height="107.42552813941316mm" viewBox="0 0 271.94474999999994 107.42552813941316" xmlns="http://www.w3.org/2000/svg" version="1.1">
<g id="Sketch062" transform="translate(19.291125,76.441125) scale(1,-1)">
<circle cx="1.3749999999999822" cy="61.77499999999995" r="2.1499999999999986" stroke="#000000" stroke-width="0.35 px" style="stroke-width:0.35;stroke-miterlimit:4;stroke-dasharray:none;fill:none"/>
<circle cx="231.9875" cy="61.77499999999995" r="2.1499999999999986" stroke="#000000" stroke-width="0.35 px" style="stroke-width:0.35;stroke-miterlimit:4;stroke-dasharray:none;fill:none"/>
<title>b'Sketch062'</title>
</g>
<g id="Sketch063" transform="translate(19.291125,76.441125) scale(1,-1)">
<circle cx="99.00624999999997" cy="70.27499999999996" r="1.6" stroke="#000000" stroke-width="0.35 px" style="stroke-width:0.35;stroke-miterlimit:4;stroke-dasharray:none;fill:none"/>
<circle cx="134.35625" cy="70.27499999999996" r="1.6" stroke="#000000" stroke-width="0.35 px" style="stroke-width:0.35;stroke-miterlimit:4;stroke-dasharray:none;fill:none"/>
<circle cx="245.22500000001034" cy="70.27499999999996" r="1.6" stroke="#000000" stroke-width="0.35 px" style="stroke-width:0.35;stroke-miterlimit:4;stroke-dasharray:none;fill:none"/>
<circle cx="-11.862499999998132" cy="70.27499999999996" r="1.6" stroke="#000000" stroke-width="0.35 px" style="stroke-width:0.35;stroke-miterlimit:4;stroke-dasharray:none;fill:none"/>
<circle cx="-11.862499999998132" cy="-13.125" r="1.6" stroke="#000000" stroke-width="0.35 px" style="stroke-width:0.35;stroke-miterlimit:4;stroke-dasharray:none;fill:none"/>
<circle cx="245.22500000001034" cy="-13.17499999999568" r="1.6" stroke="#000000" stroke-width="0.35 px" style="stroke-width:0.35;stroke-miterlimit:4;stroke-dasharray:none;fill:none"/>
<circle cx="100.92681963366437" cy="-24.90185330225477" r="1.6" stroke="#000000" stroke-width="0.35 px" style="stroke-width:0.35;stroke-miterlimit:4;stroke-dasharray:none;fill:none"/>
<circle cx="132.43568088406678" cy="-24.901853302254754" r="1.6" stroke="#000000" stroke-width="0.35 px" style="stroke-width:0.35;stroke-miterlimit:4;stroke-dasharray:none;fill:none"/>
<title>b'CaseHoles002'</title>
</g>
<g id="Sketch064" transform="translate(19.291125,76.441125) scale(1,-1)">
<path id="Sketch064_w0000"  d="M -13.625000000000018 73.77499999999992 A 3 3 0 0 1 -16.625 70.775L -16.624999999999975 -13.624999999993307 A 3 3 0 0 1 -13.625 -16.625L 9.624999999999993 -16.624999999960956 L 24.790196257635873 -17.685453826755325 L 100.44667243535208 -28.31827813941318 L 132.915828082379 -28.318278139413177 L 208.57230477223538 -17.68545375477872 L 223.7375 -16.6250000000002 L 246.98750000000456 -16.624999999995328 A 3 3 0 0 1 249.987 -13.625L 249.98749999999998 70.77500000000005 A 3 3 0 0 1 246.987 73.775L -13.625000000000018 73.77499999999992 " stroke="#000000" stroke-width="0.35 px" style="stroke-width:0.35;stroke-miterlimit:4;stroke-dasharray:none;fill:none;fill-rule: evenodd "/>
<title>b'KeebBorder001'</title>
</g>
</svg>