<?xml version="1.0"?>
<!DOCTYPE svg PUBLIC "-//W3C//DTD SVG 1.1//EN" "http://www.w3.org/Graphics/SVG/1.1/DTD/svg11.dtd">
<svg width="271.94474999999994mm" height="107.42552813941316mm" viewBox="0 0 271.94474999999994 107.42552813941316" xmlns="http://www.w3.org/2000/svg" version="1.1">
<g id="Sketch061" transform="translate(19.291125,76.441125) scale(1,-1)">
<path id="Sketch061_w0000"  d="M -10.100000000000001 66.775 L -10.099999999999994 53.675000000000004 L -13.999999999999996 53.675000000000004 L -13.999999999999977 3.475 L -10.099999999999985 3.475 L -10.09999999999998 -9.625000000000004 L 9.624999999999993 -9.624999999999996 L 24.334341339237923 -10.65357734564202 L 38.014925560193866 -12.57625807127154 L 37.47215046644961 -16.438303539363666 L 87.18360751727647 -23.424793207558974 L 87.72638261102074 -19.562747739466808 L 101.40696683197655 -21.485428465096348 L 131.95553368575455 -21.485428465096334 L 144.92804350522005 -19.66226110688368 L 145.47081859896366 -23.524306574971213 L 195.1822756497905 -16.537816906775905 L 194.63950055604624 -12.675771438683785 L 207.61201037560255 -10.852604080458367 L 223.7375 -9.724999999996097 L 243.462500000016 -9.724999999996088 L 243.462500000016 3.474999999999181 L 247.36250000001326 3.474999999999182 L 247.36250000001326 53.675 L 243.46250000000003 53.675 L 243.46250000000003 66.77500000000006 L 203.46250000000003 66.77500000000005 L 203.46250000000003 70.67500000000007 L 153.26250000000005 70.67500000000004 L 153.26250000000005 66.77500000000005 L 80.10000000000001 66.77500000000002 L 80.1 70.67500000000004 L 29.9 70.67500000000001 L 29.9 66.77500000000002 L -10.100000000000001 66.775 " stroke="#000000" stroke-width="0.35 px" style="stroke-width:0.35;stroke-miterlimit:4;stroke-dasharray:none;fill:none;fill-rule: evenodd "/>
<title>b'PlateSurround001'</title>
</g>
<g id="Sketch062" transform="translate(19.291125,76.441125) scale(1,-1)">
<path id="Sketch062_w0000"  d="M -13.625000000000018 73.77499999999992 A 3 3 0 0 1 -16.625 70.775L -16.624999999999975 -13.624999999993307 A 3 3 0 0 1 -13.625 -16.625L 9.624999999999993 -16.624999999960956 L 24.790196257635873 -17.685453826755325 L 100.44667243535208 -28.31827813941318 L 132.915828082379 -28.318278139413177 L 208.57230477223538 -17.68545375477872 L 223.7375 -16.6250000000002 L 246.98750000000456 -16.624999999995328 A 3 3 0 0 1 249.987 -13.625L 249.98749999999998 70.77500000000005 A 3 3 0 0 1 246.987 73.775L -13.625000000000018 73.77499999999992 " stroke="#000000" stroke-width="0.35 px" style="stroke-width:0.35;stroke-miterlimit:4;stroke-dasharray:none;fill:none;fill-rule: evenodd "/>
<title>b'KeebBorder001'</title>
</g>
<g id="Sketch063" transform="translate(19.291125,76.441125) scale(1,-1)">
<circle cx="99.00624999999997" cy="70.27499999999996" r="1.6" stroke="#000000" stroke-width="0.35 px" style="stroke-width:0.35;stroke-miterlimit:4;stroke-dasharray:none;fill:none"/>
<circle cx="134.35625" cy="70.27499999999996" r="1.6" stroke="#000000" stroke-width="0.35 px" style="stroke-width:0.35;stroke-miterlimit:4;stroke-dasharray:none;fill:none"/>
<circle cx="245.22500000001034" cy="70.27499999999996" r="1.6" stroke="#000000" stroke-width="0.35 px" style="stroke-width:0.35;stroke-miterlimit:4;stroke-dasharray:none;fill:none"/>
<circle cx="-11.862499999998132" cy="70.27499999999996" r="1.6" stroke="#000000" stroke-width="0.35 px" style="stroke-width:0.35;stroke-miterlimit:4;stroke-dasharray:none;fill:none"/>
<circle cx="-11.862499999998132" cy="-13.125" r="1.6" stroke="#000000" stroke-width="0.35 px" style="stroke-width:0.35;stroke-miterlimit:4;stroke-dasharray:none;fill:none"/>
<circle cx="245.22500000001034" cy="-13.17499999999568" r="1.6" stroke="#000000" stroke-width="0.35 px" style="stroke-width:0.35;stroke-miterlimit:4;stroke-dasharray:none;fill:none"/>
<circle cx="100.92681963366437" cy="-24.90185330225477" r="1.6" stroke="#000000" stroke-width="0.35 px" style="stroke-width:0.35;stroke-miterlimit:4;stroke-dasharray:none;fill:none"/>
<circle cx="132.43568088406678" cy="-24.901853302254754" r="1.6" stroke="#000000" stroke-width="0.35 px" style="stroke-width:0.35;stroke-miterlimit:4;stroke-dasharray:none;fill:none"/>
<title>b'CaseHoles002'</title>
</g>
</svg>