<?xml version="1.0"?>
<!DOCTYPE svg PUBLIC "-//W3C//DTD SVG 1.1//EN" "http://www.w3.org/Graphics/SVG/1.1/DTD/svg11.dtd">
<svg width="271.94474999999994mm" height="107.42552813941316mm" viewBox="0 0 271.94474999999994 107.42552813941316" xmlns="http://www.w3.org/2000/svg" version="1.1">
<g id="Sketch057" transform="translate(19.291125,76.441125) scale(1,-1)">
<circle cx="99.00624999999997" cy="70.27499999999996" r="1.6" stroke="#000000" stroke-width="0.35 px" style="stroke-width:0.35;stroke-miterlimit:4;stroke-dasharray:none;fill:none"/>
<circle cx="134.35625" cy="70.27499999999996" r="1.6" stroke="#000000" stroke-width="0.35 px" style="stroke-width:0.35;stroke-miterlimit:4;stroke-dasharray:none;fill:none"/>
<circle cx="245.22500000001034" cy="70.27499999999996" r="1.6" stroke="#000000" stroke-width="0.35 px" style="stroke-width:0.35;stroke-miterlimit:4;stroke-dasharray:none;fill:none"/>
<circle cx="-11.862499999998132" cy="70.27499999999996" r="1.6" stroke="#000000" stroke-width="0.35 px" style="stroke-width:0.35;stroke-miterlimit:4;stroke-dasharray:none;fill:none"/>
<circle cx="-11.862499999998132" cy="-13.125" r="1.6" stroke="#000000" stroke-width="0.35 px" style="stroke-width:0.35;stroke-miterlimit:4;stroke-dasharray:none;fill:none"/>
<circle cx="245.22500000001034" cy="-13.17499999999568" r="1.6" stroke="#000000" stroke-width="0.35 px" style="stroke-width:0.35;stroke-miterlimit:4;stroke-dasharray:none;fill:none"/>
<circle cx="100.92681963366437" cy="-24.90185330225477" r="1.6" stroke="#000000" stroke-width="0.35 px" style="stroke-width:0.35;stroke-miterlimit:4;stroke-dasharray:none;fill:none"/>
<circle cx="132.43568088406678" cy="-24.901853302254754" r="1.6" stroke="#000000" stroke-width="0.35 px" style="stroke-width:0.35;stroke-miterlimit:4;stroke-dasharray:none;fill:none"/>
<title>b'CaseHoles001'</title>
</g>
<g id="Sketch058" transform="translate(19.291125,76.441125) scale(1,-1)">
<path id="Sketch058_w0000"  d="M -13.625000000000018 73.77499999999992 A 3 3 0 0 1 -16.625 70.775L -16.624999999999975 -13.624999999993307 A 3 3 0 0 1 -13.625 -16.625L 9.624999999999993 -16.624999999960956 L 24.790196257635873 -17.685453826755325 L 100.44667243535208 -28.31827813941318 L 132.915828082379 -28.318278139413177 L 208.57230477223538 -17.68545375477872 L 223.7375 -16.6250000000002 L 246.98750000000456 -16.624999999995328 A 3 3 0 0 1 249.987 -13.625L 249.98749999999998 70.77500000000005 A 3 3 0 0 1 246.987 73.775L -13.625000000000018 73.77499999999992 " stroke="#000000" stroke-width="0.35 px" style="stroke-width:0.35;stroke-miterlimit:4;stroke-dasharray:none;fill:none;fill-rule: evenodd "/>
<title>b'KeebBorder001'</title>
</g>
<g id="Sketch059" transform="translate(19.291125,76.441125) scale(1,-1)">
<path id="Sketch059_w0000"  d="M 184.0137762731701 41.19467703447748 A 0.5 0.5 0 0 1 183.588 40.63L 185.3974791017602 27.75647155598625 A 0.5 0.5 0 0 1 185.962 27.3309L 198.83568458025144 29.140174384576344 A 0.5 0.5 0 0 1 199.261 29.7049L 197.45198175166132 42.57837986306757 A 0.5 0.5 0 0 1 196.887 43.0039L 184.0137762731701 41.19467703447748 " stroke="#000000" stroke-width="0.35 px" style="stroke-width:0.35;stroke-miterlimit:4;stroke-dasharray:none;fill:none;fill-rule: evenodd "/>
<path id="Sketch059_w0001"  d="M 186.66502384645935 22.33007032495056 A 0.5 0.5 0 0 1 186.239 21.7653L 188.04872667504944 8.891864846459331 A 0.5 0.5 0 0 1 188.613 8.46632L 201.48693215354066 10.275567675049432 A 0.5 0.5 0 0 1 201.912 10.8403L 200.10322932495055 23.713773153540668 A 0.5 0.5 0 0 1 199.539 24.1393L 186.66502384645935 22.33007032495056 " stroke="#000000" stroke-width="0.35 px" style="stroke-width:0.35;stroke-miterlimit:4;stroke-dasharray:none;fill:none;fill-rule: evenodd "/>
<path id="Sketch059_w0002"  d="M 181.36252869988084 60.05928374400436 A 0.5 0.5 0 0 1 180.937 59.4946L 182.74623152847096 46.62107826551313 A 0.5 0.5 0 0 1 183.311 46.1955L 196.18443700696218 48.00478109410322 A 0.5 0.5 0 0 1 196.61 48.5695L 194.80073417837207 61.44298657259445 A 0.5 0.5 0 0 1 194.236 61.8685L 181.36252869988084 60.05928374400436 " stroke="#000000" stroke-width="0.35 px" style="stroke-width:0.35;stroke-miterlimit:4;stroke-dasharray:none;fill:none;fill-rule: evenodd "/>
<path id="Sketch059_w0003"  d="M 165.14916956364314 38.543429461188204 A 0.5 0.5 0 0 1 164.724 37.9787L 166.53287239223326 25.105223982696973 A 0.5 0.5 0 0 1 167.098 24.6797L 179.97107787072449 26.488926811287076 A 0.5 0.5 0 0 1 180.397 27.0536L 178.58737504213437 39.92713228977831 A 0.5 0.5 0 0 1 178.023 40.3527L 165.14916956364314 38.543429461188204 " stroke="#000000" stroke-width="0.35 px" style="stroke-width:0.35;stroke-miterlimit:4;stroke-dasharray:none;fill:none;fill-rule: evenodd "/>
<path id="Sketch059_w0004"  d="M 167.8004171369324 19.678822751661322 A 0.5 0.5 0 0 1 167.375 19.1141L 169.1841199655225 6.240617273170091 A 0.5 0.5 0 0 1 169.749 5.81507L 182.62232544401374 7.62432010176019 A 0.5 0.5 0 0 1 183.048 8.18904L 181.23862261542365 21.06252558025144 A 0.5 0.5 0 0 1 180.674 21.4881L 167.8004171369324 19.678822751661322 " stroke="#000000" stroke-width="0.35 px" style="stroke-width:0.35;stroke-miterlimit:4;stroke-dasharray:none;fill:none;fill-rule: evenodd "/>
<path id="Sketch059_w0005"  d="M 162.49792199035394 57.408036170715214 A 0.5 0.5 0 0 1 162.072 56.8433L 163.88162481894403 43.96983069222398 A 0.5 0.5 0 0 1 164.446 43.5443L 177.3198302974353 45.35353352081408 A 0.5 0.5 0 0 1 177.745 45.9183L 175.93612746884517 58.791738999305295 A 0.5 0.5 0 0 1 175.371 59.2173L 162.49792199035394 57.408036170715214 " stroke="#000000" stroke-width="0.35 px" style="stroke-width:0.35;stroke-miterlimit:4;stroke-dasharray:none;fill:none;fill-rule: evenodd "/>
<path id="Sketch059_w0006"  d="M 127.41995614458935 33.240934314609724 A 0.5 0.5 0 0 1 126.994 32.6762L 128.80365897317944 19.802728836118494 A 0.5 0.5 0 0 1 129.368 19.3772L 142.24186445167066 21.186431664708593 A 0.5 0.5 0 0 1 142.667 21.7512L 140.85816162308055 34.624637143199834 A 0.5 0.5 0 0 1 140.293 35.0502L 127.41995614458935 33.240934314609724 " stroke="#000000" stroke-width="0.35 px" style="stroke-width:0.35;stroke-miterlimit:4;stroke-dasharray:none;fill:none;fill-rule: evenodd "/>
<path id="Sketch059_w0007"  d="M 130.07120371787857 14.376327605082817 A 0.5 0.5 0 0 1 129.646 13.8116L 131.4549065464687 0.938122126591585 A 0.5 0.5 0 0 1 132.02 0.512575L 144.8931120249599 2.3218249551816825 A 0.5 0.5 0 0 1 145.319 2.88655L 143.5094091963698 15.760030433672904 A 0.5 0.5 0 0 1 142.945 16.1856L 130.07120371787857 14.376327605082817 " stroke="#000000" stroke-width="0.35 px" style="stroke-width:0.35;stroke-miterlimit:4;stroke-dasharray:none;fill:none;fill-rule: evenodd "/>
<path id="Sketch059_w0008"  d="M 124.76870857130014 52.10554102413665 A 0.5 0.5 0 0 1 124.343 51.5408L 126.15241139989024 38.667335545645415 A 0.5 0.5 0 0 1 126.717 38.2418L 139.59061687838147 40.05103837423552 A 0.5 0.5 0 0 1 140.016 40.6158L 138.20691404979138 53.48924385272675 A 0.5 0.5 0 0 1 137.642 53.9148L 124.76870857130014 52.10554102413665 " stroke="#000000" stroke-width="0.35 px" style="stroke-width:0.35;stroke-miterlimit:4;stroke-dasharray:none;fill:none;fill-rule: evenodd "/>
<path id="Sketch059_w0009"  d="M 146.28456285411622 35.89218188789896 A 0.5 0.5 0 0 1 145.859 35.3275L 147.66826568270633 22.453976409407726 A 0.5 0.5 0 0 1 148.233 22.0284L 161.10647116119756 23.837679237997822 A 0.5 0.5 0 0 1 161.532 24.4024L 159.72276833260744 37.27588471648905 A 0.5 0.5 0 0 1 159.158 37.7014L 146.28456285411622 35.89218188789896 " stroke="#000000" stroke-width="0.35 px" style="stroke-width:0.35;stroke-miterlimit:4;stroke-dasharray:none;fill:none;fill-rule: evenodd "/>
<path id="Sketch059_w0010"  d="M 148.93581042740547 17.027575178372064 A 0.5 0.5 0 0 1 148.51 16.4629L 150.3195132559956 3.589369699880834 A 0.5 0.5 0 0 1 150.884 3.16382L 163.75771873448682 4.973072528470935 A 0.5 0.5 0 0 1 164.183 5.53779L 162.3740159058967 18.411278006962146 A 0.5 0.5 0 0 1 161.809 18.8368L 148.93581042740547 17.027575178372064 " stroke="#000000" stroke-width="0.35 px" style="stroke-width:0.35;stroke-miterlimit:4;stroke-dasharray:none;fill:none;fill-rule: evenodd "/>
<path id="Sketch059_w0011"  d="M 143.633315280827 54.756788597425874 A 0.5 0.5 0 0 1 143.208 54.1921L 145.0170181094171 41.31858311893464 A 0.5 0.5 0 0 1 145.582 40.893L 158.45522358790834 42.70228594752474 A 0.5 0.5 0 0 1 158.881 43.267L 157.07152075931822 56.14049142601597 A 0.5 0.5 0 0 1 156.507 56.566L 143.633315280827 54.756788597425874 " stroke="#000000" stroke-width="0.35 px" style="stroke-width:0.35;stroke-miterlimit:4;stroke-dasharray:none;fill:none;fill-rule: evenodd "/>
<path id="Sketch059_w0012"  d="M 183.8898701887129 2.197918870724522 A 0.5 0.5 0 0 1 183.325 2.62347L 170.45166471022168 0.814216042134426 A 0.5 0.5 0 0 1 170.026 0.249495L 171.8353675388118 -12.623989436356808 A 0.5 0.5 0 0 1 172.4 -13.0495L 185.27357301730302 -11.240286607766707 A 0.5 0.5 0 0 1 185.699 -10.6756L 183.8898701887129 2.1979188707245223 " stroke="#000000" stroke-width="0.35 px" style="stroke-width:0.35;stroke-miterlimit:4;stroke-dasharray:none;fill:none;fill-rule: evenodd "/>
<path id="Sketch059_w0013"  d="M 165.02526347918598 -0.453328702564724 A 0.5 0.5 0 0 1 164.461 -0.0277812A 0.5 0.5 0 0 0 163.896 0.397766L 163.7566492085243 1.388034333958356 A 0.5 0.5 0 0 1 163.192 1.81358L 157.25032021122408 0.978543212088717 A 0.5 0.5 0 0 1 156.825 0.413823L 156.9639458282934 -0.5764454415036716 A 0.5 0.5 0 0 0 156.538 -1.14117L 140.64458197174469 -3.374896245974371 A 0.5 0.5 0 0 0 140.08 -2.94935L 139.94068828593385 -1.959080693342046 A 0.5 0.5 0 0 1 139.376 -1.53353L 133.4343592886336 -2.368571815211687 A 0.5 0.5 0 0 1 133.009 -2.93329L 133.14798490570294 -3.9235604688040726 A 0.5 0.5 0 0 0 132.722 -4.48828A 0.5 0.5 0 0 1 132.297 -5.053L 134.10615411975795 -17.9264845829353 A 0.5 0.5 0 0 1 134.671 -18.352L 166.4089663077761 -13.891534181055953 A 0.5 0.5 0 0 1 166.835 -13.3268L 165.02526347918598 -0.453328702564724 " stroke="#000000" stroke-width="0.35 px" style="stroke-width:0.35;stroke-miterlimit:4;stroke-dasharray:none;fill:none;fill-rule: evenodd "/>
<path id="Sketch059_w0014"  d="M 15.024217907009435 44.80232758212555 A 0.5 0.5 0 0 1 14.4906 44.3384L 13.583723486333831 31.370091140489986 A 0.5 0.5 0 0 1 14.0476 30.8364L 27.015959927969398 29.92959671981438 A 0.5 0.5 0 0 1 27.5496 30.3935L 28.456454348645003 43.361833161449944 A 0.5 0.5 0 0 1 27.9926 43.8955L 15.024217907009435 44.80232758212555 " stroke="#000000" stroke-width="0.35 px" style="stroke-width:0.35;stroke-miterlimit:4;stroke-dasharray:none;fill:none;fill-rule: evenodd "/>
<path id="Sketch059_w0015"  d="M 13.69535698952002 25.79873243115558 A 0.5 0.5 0 0 1 13.1617 25.3348L 12.254862568844414 12.366495989520018 A 0.5 0.5 0 0 1 12.7188 11.8328L 25.68709901047998 10.926001568844413 A 0.5 0.5 0 0 1 26.2208 11.3899L 27.127593431155585 24.35823801047998 A 0.5 0.5 0 0 1 26.6637 24.8919L 13.69535698952002 25.79873243115558 " stroke="#000000" stroke-width="0.35 px" style="stroke-width:0.35;stroke-miterlimit:4;stroke-dasharray:none;fill:none;fill-rule: evenodd "/>
<path id="Sketch059_w0016"  d="M 16.35307883343533 63.80592273247062 A 0.5 0.5 0 0 1 15.8194 63.342L 14.912584412759728 50.37368629083506 A 0.5 0.5 0 0 1 15.3765 49.84L 28.34482085439529 48.93319187015945 A 0.5 0.5 0 0 1 28.8785 49.3971L 29.785315275070896 62.365428311795014 A 0.5 0.5 0 0 1 29.3214 62.8991L 16.35307883343533 63.80592273247062 " stroke="#000000" stroke-width="0.35 px" style="stroke-width:0.35;stroke-miterlimit:4;stroke-dasharray:none;fill:none;fill-rule: evenodd "/>
<path id="Sketch059_w0017"  d="M 205.36994894176215 43.89549338863878 A 0.5 0.5 0 0 1 204.906 43.3618L 205.81287931217793 30.39350047325909 A 0.5 0.5 0 0 1 206.347 29.9296L 219.31487222755763 30.836430843674865 A 0.5 0.5 0 0 1 219.779 31.3701L 218.87194185714185 44.33842375905456 A 0.5 0.5 0 0 1 218.338 44.8023L 205.36994894176215 43.89549338863878 " stroke="#000000" stroke-width="0.35 px" style="stroke-width:0.35;stroke-miterlimit:4;stroke-dasharray:none;fill:none;fill-rule: evenodd "/>
<path id="Sketch059_w0018"  d="M 206.69881035710225 24.891898272481953 A 0.5 0.5 0 0 1 206.235 24.3582L 207.14174072751803 11.389905357102263 A 0.5 0.5 0 0 1 207.675 10.926L 220.64373364289773 11.832835727518045 A 0.5 0.5 0 0 1 221.108 12.3665L 220.20080327248195 25.334828642897733 A 0.5 0.5 0 0 1 219.667 25.7987L 206.69881035710225 24.891898272481953 " stroke="#000000" stroke-width="0.35 px" style="stroke-width:0.35;stroke-miterlimit:4;stroke-dasharray:none;fill:none;fill-rule: evenodd "/>
<path id="Sketch059_w0019"  d="M 204.04108771914517 62.89908851827214 A 0.5 0.5 0 0 1 203.577 62.3654L 204.48401808956095 49.39709560289245 A 0.5 0.5 0 0 1 205.018 48.9332L 217.98601100494062 49.84002597330823 A 0.5 0.5 0 0 1 218.45 50.3737L 217.54308063452484 63.342018888687925 A 0.5 0.5 0 0 1 217.009 63.8059L 204.04108771914517 62.89908851827214 " stroke="#000000" stroke-width="0.35 px" style="stroke-width:0.35;stroke-miterlimit:4;stroke-dasharray:none;fill:none;fill-rule: evenodd "/>
<path id="Sketch059_w0020"  d="M 226.8625 7.000000000000005 A 0.5 0.5 0 0 1 226.363 6.5L 226.3625 -6.499999999999998 A 0.5 0.5 0 0 1 226.863 -7L 239.8625 -6.999999999999994 A 0.5 0.5 0 0 1 240.363 -6.5L 240.3625 6.500000000000005 A 0.5 0.5 0 0 1 239.863 7L 226.8625 7.000000000000005 " stroke="#000000" stroke-width="0.35 px" style="stroke-width:0.35;stroke-miterlimit:4;stroke-dasharray:none;fill:none;fill-rule: evenodd "/>
<path id="Sketch059_w0021"  d="M 226.8625 26.050000000000004 A 0.5 0.5 0 0 1 226.363 25.55L 226.3625 12.550000000000011 A 0.5 0.5 0 0 1 226.863 12.05L 239.8625 12.050000000000004 A 0.5 0.5 0 0 1 240.363 12.55L 240.3625 25.550000000000004 A 0.5 0.5 0 0 1 239.863 26.05L 226.8625 26.050000000000004 " stroke="#000000" stroke-width="0.35 px" style="stroke-width:0.35;stroke-miterlimit:4;stroke-dasharray:none;fill:none;fill-rule: evenodd "/>
<path id="Sketch059_w0022"  d="M 226.8625 45.10000000000001 A 0.5 0.5 0 0 1 226.363 44.6L 226.3625 31.6 A 0.5 0.5 0 0 1 226.863 31.1L 239.8625 31.100000000000005 A 0.5 0.5 0 0 1 240.363 31.6L 240.3625 44.60000000000001 A 0.5 0.5 0 0 1 239.863 45.1L 226.8625 45.10000000000001 " stroke="#000000" stroke-width="0.35 px" style="stroke-width:0.35;stroke-miterlimit:4;stroke-dasharray:none;fill:none;fill-rule: evenodd "/>
<path id="Sketch059_w0023"  d="M 226.86250000000004 64.14999999999998 A 0.5 0.5 0 0 1 226.363 63.65L 226.36250000000004 50.649999999999984 A 0.5 0.5 0 0 1 226.863 50.15L 239.86250000000004 50.14999999999997 A 0.5 0.5 0 0 1 240.363 50.65L 240.36250000000004 63.64999999999997 A 0.5 0.5 0 0 1 239.863 64.15L 226.86250000000004 64.14999999999998 " stroke="#000000" stroke-width="0.35 px" style="stroke-width:0.35;stroke-miterlimit:4;stroke-dasharray:none;fill:none;fill-rule: evenodd "/>
<path id="Sketch059_w0024"  d="M -6.5 7.0 A 0.5 0.5 0 0 1 -7 6.5L -7.0 -6.5 A 0.5 0.5 0 0 1 -6.5 -7L 6.500000000000001 -7.000000000000001 A 0.5 0.5 0 0 1 7 -6.5L 7.000000000000001 6.5 A 0.5 0.5 0 0 1 6.5 7L -6.5 7.0 " stroke="#000000" stroke-width="0.35 px" style="stroke-width:0.35;stroke-miterlimit:4;stroke-dasharray:none;fill:none;fill-rule: evenodd "/>
<path id="Sketch059_w0025"  d="M -6.5 26.05 A 0.5 0.5 0 0 1 -7 25.55L -7.0 12.55 A 0.5 0.5 0 0 1 -6.5 12.05L 6.5 12.05 A 0.5 0.5 0 0 1 7 12.55L 6.999999999999999 25.55 A 0.5 0.5 0 0 1 6.5 26.05L -6.5 26.05 " stroke="#000000" stroke-width="0.35 px" style="stroke-width:0.35;stroke-miterlimit:4;stroke-dasharray:none;fill:none;fill-rule: evenodd "/>
<path id="Sketch059_w0026"  d="M -6.499999999999998 45.1 A 0.5 0.5 0 0 1 -7 44.6L -6.999999999999998 31.599999999999998 A 0.5 0.5 0 0 1 -6.5 31.1L 6.500000000000002 31.099999999999998 A 0.5 0.5 0 0 1 7 31.6L 7.000000000000002 44.6 A 0.5 0.5 0 0 1 6.5 45.1L -6.499999999999998 45.1 " stroke="#000000" stroke-width="0.35 px" style="stroke-width:0.35;stroke-miterlimit:4;stroke-dasharray:none;fill:none;fill-rule: evenodd "/>
<path id="Sketch059_w0027"  d="M -6.499999999999999 64.15 A 0.5 0.5 0 0 1 -7 63.65L -6.999999999999999 50.65 A 0.5 0.5 0 0 1 -6.5 50.15L 6.500000000000001 50.15 A 0.5 0.5 0 0 1 7 50.65L 7.000000000000001 63.65 A 0.5 0.5 0 0 1 6.5 64.15L -6.499999999999999 64.15 " stroke="#000000" stroke-width="0.35 px" style="stroke-width:0.35;stroke-miterlimit:4;stroke-dasharray:none;fill:none;fill-rule: evenodd "/>
<path id="Sketch059_w0028"  d="M 74.20445226086552 37.701435959169324 A 0.5 0.5 0 0 1 73.6397 37.2759L 71.83048136353386 24.40240358163816 A 0.5 0.5 0 0 1 72.256 23.8377L 85.12951374106503 22.028432684306487 A 0.5 0.5 0 0 1 85.6942 22.454L 87.50348463839669 35.32746506183766 A 0.5 0.5 0 0 1 87.0779 35.8922L 74.20445226086552 37.701435959169324 " stroke="#000000" stroke-width="0.35 px" style="stroke-width:0.35;stroke-miterlimit:4;stroke-dasharray:none;fill:none;fill-rule: evenodd "/>
<path id="Sketch059_w0029"  d="M 71.55320519715247 18.836829178026168 A 0.5 0.5 0 0 1 70.9885 18.4113L 69.17923429982082 5.537796800494991 A 0.5 0.5 0 0 1 69.6048 4.97308L 82.47826667735197 3.163825903163332 A 0.5 0.5 0 0 1 83.043 3.58937L 84.85223757468364 16.462858280694498 A 0.5 0.5 0 0 1 84.4267 17.0276L 71.55320519715247 18.836829178026168 " stroke="#000000" stroke-width="0.35 px" style="stroke-width:0.35;stroke-miterlimit:4;stroke-dasharray:none;fill:none;fill-rule: evenodd "/>
<path id="Sketch059_w0030"  d="M 76.85570000669951 56.56604264444664 A 0.5 0.5 0 0 1 76.291 56.1405L 74.48172910936785 43.267010266915506 A 0.5 0.5 0 0 1 74.9073 42.7023L 87.78076148689902 40.89303936958384 A 0.5 0.5 0 0 1 88.3455 41.3186L 90.15473238423067 54.19207174711499 A 0.5 0.5 0 0 1 89.7292 54.7568L 76.85570000669951 56.56604264444664 " stroke="#000000" stroke-width="0.35 px" style="stroke-width:0.35;stroke-miterlimit:4;stroke-dasharray:none;fill:none;fill-rule: evenodd "/>
<path id="Sketch059_w0031"  d="M 55.33984532529342 40.352679907122656 A 0.5 0.5 0 0 1 54.7751 39.9271L 52.96587442796175 27.053647529591487 A 0.5 0.5 0 0 1 53.3914 26.4889L 66.26490680549291 24.679676632259817 A 0.5 0.5 0 0 1 66.8296 25.1052L 68.63887770282457 37.97870900979098 A 0.5 0.5 0 0 1 68.2133 38.5434L 55.33984532529342 40.352679907122656 " stroke="#000000" stroke-width="0.35 px" style="stroke-width:0.35;stroke-miterlimit:4;stroke-dasharray:none;fill:none;fill-rule: evenodd "/>
<path id="Sketch059_w0032"  d="M 52.68859798360826 21.488073165045908 A 0.5 0.5 0 0 1 52.1239 21.0625L 50.314627086276595 8.189040787514735 A 0.5 0.5 0 0 1 50.7402 7.62432L 63.61365946380776 5.815069890183073 A 0.5 0.5 0 0 1 64.1784 6.24062L 65.98763036113942 19.11410226771424 A 0.5 0.5 0 0 1 65.5621 19.6788L 52.68859798360826 21.488073165045908 " stroke="#000000" stroke-width="0.35 px" style="stroke-width:0.35;stroke-miterlimit:4;stroke-dasharray:none;fill:none;fill-rule: evenodd "/>
<path id="Sketch059_w0033"  d="M 57.99109269048286 59.217286645896095 A 0.5 0.5 0 0 1 57.4264 58.7917L 55.61712179315119 45.91825426836493 A 0.5 0.5 0 0 1 56.0427 45.3535L 68.91615417068236 43.54428337103326 A 0.5 0.5 0 0 1 69.4809 43.9698L 71.29012506801402 56.84331574856443 A 0.5 0.5 0 0 1 70.8646 57.408L 57.99109269048286 59.217286645896095 " stroke="#000000" stroke-width="0.35 px" style="stroke-width:0.35;stroke-miterlimit:4;stroke-dasharray:none;fill:none;fill-rule: evenodd "/>
<path id="Sketch059_w0034"  d="M 93.06905912626662 35.05018949498239 A 0.5 0.5 0 0 1 92.5043 34.6246L 90.69508822893494 21.75115711745123 A 0.5 0.5 0 0 1 91.1206 21.1864L 103.99412060646611 19.37718622011954 A 0.5 0.5 0 0 1 104.559 19.8027L 106.36809150379779 32.67621859765072 A 0.5 0.5 0 0 1 105.943 33.2409L 93.06905912626662 35.05018949498239 " stroke="#000000" stroke-width="0.35 px" style="stroke-width:0.35;stroke-miterlimit:4;stroke-dasharray:none;fill:none;fill-rule: evenodd "/>
<path id="Sketch059_w0035"  d="M 90.41781206255357 16.18558271383922 A 0.5 0.5 0 0 1 89.8531 15.76L 88.04384116522189 2.886550336308053 A 0.5 0.5 0 0 1 88.4694 2.32183L 101.34287354275305 0.512579438976372 A 0.5 0.5 0 0 1 101.908 0.938127L 103.71684444008474 13.811611816507542 A 0.5 0.5 0 0 1 103.291 14.3763L 90.41781206255357 16.18558271383922 " stroke="#000000" stroke-width="0.35 px" style="stroke-width:0.35;stroke-miterlimit:4;stroke-dasharray:none;fill:none;fill-rule: evenodd "/>
<path id="Sketch059_w0036"  d="M 95.72030619085646 53.91479627600232 A 0.5 0.5 0 0 1 95.1556 53.4892L 93.34633529352479 40.61576389847115 A 0.5 0.5 0 0 1 93.7719 40.051L 106.64536767105596 38.24179300113948 A 0.5 0.5 0 0 1 107.21 38.6673L 109.01933856838764 51.54082537867065 A 0.5 0.5 0 0 1 108.594 52.1055L 95.72030619085646 53.91479627600232 " stroke="#000000" stroke-width="0.35 px" style="stroke-width:0.35;stroke-miterlimit:4;stroke-dasharray:none;fill:none;fill-rule: evenodd "/>
<path id="Sketch059_w0037"  d="M 36.47523848020058 43.003927396567676 A 0.5 0.5 0 0 1 35.9105 42.5784L 34.101267582868914 29.704895019036513 A 0.5 0.5 0 0 1 34.5268 29.1402L 47.40029996040008 27.33092412170484 A 0.5 0.5 0 0 1 47.965 27.7565L 49.77427085773175 40.629956499236 A 0.5 0.5 0 0 1 49.3487 41.1947L 36.47523848020058 43.003927396567676 " stroke="#000000" stroke-width="0.35 px" style="stroke-width:0.35;stroke-miterlimit:4;stroke-dasharray:none;fill:none;fill-rule: evenodd "/>
<path id="Sketch059_w0038"  d="M 33.82399125990025 24.139320637431418 A 0.5 0.5 0 0 1 33.2593 23.7138L 31.45002036256858 10.840288259900252 A 0.5 0.5 0 0 1 31.8756 10.2756L 44.74905274009975 8.466317362568581 A 0.5 0.5 0 0 1 45.3138 8.89186L 47.123023637431416 21.765349740099747 A 0.5 0.5 0 0 1 46.6975 22.3301L 33.82399125990025 24.139320637431418 " stroke="#000000" stroke-width="0.35 px" style="stroke-width:0.35;stroke-miterlimit:4;stroke-dasharray:none;fill:none;fill-rule: evenodd "/>
<path id="Sketch059_w0039"  d="M 39.12648636111262 61.868534062861045 A 0.5 0.5 0 0 1 38.5618 61.443L 36.752515463780945 48.569501685329875 A 0.5 0.5 0 0 1 37.1781 48.0048L 50.051547841312114 46.19553078799821 A 0.5 0.5 0 0 1 50.6163 46.6211L 52.42551873864378 59.49456316552938 A 0.5 0.5 0 0 1 52 60.0593L 39.12648636111262 61.868534062861045 " stroke="#000000" stroke-width="0.35 px" style="stroke-width:0.35;stroke-miterlimit:4;stroke-dasharray:none;fill:none;fill-rule: evenodd "/>
<path id="Sketch059_w0040"  d="M 63.336383295553176 0.249495486834319 A 0.5 0.5 0 0 1 62.9108 0.814216L 50.037350918022014 2.623466384165989 A 0.5 0.5 0 0 1 49.4726 2.19792L 47.66338002069034 -10.67556599336518 A 0.5 0.5 0 0 1 48.0889 -11.2403L 60.96241239822151 -13.049536890696848 A 0.5 0.5 0 0 1 61.5271 -12.624L 63.336383295553176 0.24949548683431927 " stroke="#000000" stroke-width="0.35 px" style="stroke-width:0.35;stroke-miterlimit:4;stroke-dasharray:none;fill:none;fill-rule: evenodd "/>
<path id="Sketch059_w0041"  d="M 101.065596714607 -5.052999659744195 A 0.5 0.5 0 0 1 100.64 -4.48828A 0.5 0.5 0 0 0 100.215 -3.92356L 100.35367484778557 -2.933290421300991 A 0.5 0.5 0 0 1 99.9281 -2.36857L 93.9865189514454 -1.533531230689779 A 0.5 0.5 0 0 1 93.4218 -1.95908L 93.28262526563452 -2.9493467833221017 A 0.5 0.5 0 0 0 92.7179 -3.37489L 76.8241020988887 -1.1411659857583 A 0.5 0.5 0 0 0 76.3986 -0.576445L 76.53772771595803 0.413822667834086 A 0.5 0.5 0 0 1 76.1122 0.978543L 70.17057181961786 1.813581858445299 A 0.5 0.5 0 0 1 69.6059 1.38803L 69.46667813380698 0.3977663058129763 A 0.5 0.5 0 0 0 68.902 -0.0277812A 0.5 0.5 0 0 1 68.3372 -0.453329L 66.52798673021726 -13.326813566654433 A 0.5 0.5 0 0 1 66.9535 -13.8915L 98.69162581727532 -18.35203203727536 A 0.5 0.5 0 0 1 99.2563 -17.9265L 101.065596714607 -5.052999659744195 " stroke="#000000" stroke-width="0.35 px" style="stroke-width:0.35;stroke-miterlimit:4;stroke-dasharray:none;fill:none;fill-rule: evenodd "/>
<title>b'Switches001'</title>
</g>
</svg>