<?xml version="1.0"?>
<!DOCTYPE svg PUBLIC "-//W3C//DTD SVG 1.1//EN" "http://www.w3.org/Graphics/SVG/1.1/DTD/svg11.dtd">
<svg width="271.94474999999994mm" height="107.42552813941316mm" viewBox="0 0 271.94474999999994 107.42552813941316" xmlns="http://www.w3.org/2000/svg" version="1.1">
<g id="Sketch057" transform="translate(19.291125,76.441125) scale(1,-1)">
<circle cx="99.00624999999997" cy="70.27499999999996" r="1.6" stroke="#000000" stroke-width="0.35 px" style="stroke-width:0.35;stroke-miterlimit:4;stroke-dasharray:none;fill:none"/>
<circle cx="134.35625" cy="70.27499999999996" r="1.6" stroke="#000000" stroke-width="0.35 px" style="stroke-width:0.35;stroke-miterlimit:4;stroke-dasharray:none;fill:none"/>
<circle cx="245.22500000001034" cy="70.27499999999996" r="1.6" stroke="#000000" stroke-width="0.35 px" style="stroke-width:0.35;stroke-miterlimit:4;stroke-dasharray:none;fill:none"/>
<circle cx="-11.862499999998132" cy="70.27499999999996" r="1.6" stroke="#000000" stroke-width="0.35 px" style="stroke-width:0.35;stroke-miterlimit:4;stroke-dasharray:none;fill:none"/>
<circle cx="-11.862499999998132" cy="-13.125" r="1.6" stroke="#000000" stroke-width="0.35 px" style="stroke-width:0.35;stroke-miterlimit:4;stroke-dasharray:none;fill:none"/>
<circle cx="245.22500000001034" cy="-13.17499999999568" r="1.6" stroke="#000000" stroke-width="0.35 px" style="stroke-width:0.35;stroke-miterlimit:4;stroke-dasharray:none;fill:none"/>
<circle cx="100.92681963366437" cy="-24.90185330225477" r="1.6" stroke="#000000" stroke-width="0.35 px" style="stroke-width:0.35;stroke-miterlimit:4;stroke-dasharray:none;fill:none"/>
<circle cx="132.43568088406678" cy="-24.901853302254754" r="1.6" stroke="#000000" stroke-width="0.35 px" style="stroke-width:0.35;stroke-miterlimit:4;stroke-dasharray:none;fill:none"/>
<title>b'CaseHoles001'</title>
</g>
<g id="Sketch058" transform="translate(19.291125,76.441125) scale(1,-1)">
<path id="Sketch058_w0000"  d="M -13.625000000000018 73.77499999999992 A 3 3 0 0 1 -16.625 70.775L -16.624999999999975 -13.624999999993307 A 3 3 0 0 1 -13.625 -16.625L 9.624999999999993 -16.624999999960956 L 24.790196257635873 -17.685453826755325 L 100.44667243535208 -28.31827813941318 L 132.915828082379 -28.318278139413177 L 208.57230477223538 -17.68545375477872 L 223.7375 -16.6250000000002 L 246.98750000000456 -16.624999999995328 A 3 3 0 0 1 249.987 -13.625L 249.98749999999998 70.77500000000005 A 3 3 0 0 1 246.987 73.775L -13.625000000000018 73.77499999999992 " stroke="#000000" stroke-width="0.35 px" style="stroke-width:0.35;stroke-miterlimit:4;stroke-dasharray:none;fill:none;fill-rule: evenodd "/>
<title>b'KeebBorder001'</title>
</g>
<g id="Sketch059" transform="translate(19.291125,76.441125) scale(1,-1)">
<path id="Sketch059_w0000"  d="M -9.624999999999993 66.775 L -9.624999999999977 -9.625 L 9.624999999999998 -9.625 L 9.624999999999993 9.417763128997784 L 28.518138980194507 8.096626152506822 L 47.280257958851664 5.459782290460778 L 44.62901039974351 -13.404824318162417 L 101.42088414207255 -21.38640165822219 L 112.05370971531305 54.270083489005565 L 34.5165719987513 65.1672175441254 L 11.524211683891942 66.775 L -9.624999999999993 66.775 " stroke="#000000" stroke-width="0.35 px" style="stroke-width:0.35;stroke-miterlimit:4;stroke-dasharray:none;fill:none;fill-rule: evenodd "/>
<path id="Sketch059_w0001"  d="M 242.9875 66.77499999999998 L 242.9875 -9.625 L 223.7375 -9.624999999999995 L 223.7375 9.417763128997546 L 204.8443610198062 8.096626152506923 L 186.08224254885138 5.459782361813772 L 188.73349012214064 -13.404824347713117 L 131.94161637981162 -21.386401687772885 L 121.30879146646261 54.27007876408304 L 198.84599726525445 65.1672223875364 L 221.83828831610924 66.77499999999998 L 242.9875 66.77499999999998 " stroke="#000000" stroke-width="0.35 px" style="stroke-width:0.35;stroke-miterlimit:4;stroke-dasharray:none;fill:none;fill-rule: evenodd "/>
<title>b'BigSwitchOutline001'</title>
</g>
</svg>