<?xml version="1.0"?>
<!DOCTYPE svg PUBLIC "-//W3C//DTD SVG 1.1//EN" "http://www.w3.org/Graphics/SVG/1.1/DTD/svg11.dtd">
<svg width="271.94475000000403mm" height="107.42552813941671mm" viewBox="0 0 271.94475000000403 107.42552813941671" xmlns="http://www.w3.org/2000/svg" version="1.1">
<g id="Sketch057" transform="translate(19.291125,76.441125) scale(1,-1)">
<circle cx="99.00624999999997" cy="70.27499999999996" r="1.6" stroke="#000000" stroke-width="0.35 px" style="stroke-width:0.35;stroke-miterlimit:4;stroke-dasharray:none;fill:none"/>
<circle cx="134.35625" cy="70.27499999999996" r="1.6" stroke="#000000" stroke-width="0.35 px" style="stroke-width:0.35;stroke-miterlimit:4;stroke-dasharray:none;fill:none"/>
<circle cx="245.22500000001034" cy="70.27499999999996" r="1.6" stroke="#000000" stroke-width="0.35 px" style="stroke-width:0.35;stroke-miterlimit:4;stroke-dasharray:none;fill:none"/>
<circle cx="-11.862499999998132" cy="70.27499999999996" r="1.6" stroke="#000000" stroke-width="0.35 px" style="stroke-width:0.35;stroke-miterlimit:4;stroke-dasharray:none;fill:none"/>
<circle cx="-11.862499999998132" cy="-13.125" r="1.6" stroke="#000000" stroke-width="0.35 px" style="stroke-width:0.35;stroke-miterlimit:4;stroke-dasharray:none;fill:none"/>
<circle cx="245.22500000001034" cy="-13.17499999999568" r="1.6" stroke="#000000" stroke-width="0.35 px" style="stroke-width:0.35;stroke-miterlimit:4;stroke-dasharray:none;fill:none"/>
<circle cx="100.92681963366437" cy="-24.90185330225477" r="1.6" stroke="#000000" stroke-width="0.35 px" style="stroke-width:0.35;stroke-miterlimit:4;stroke-dasharray:none;fill:none"/>
<circle cx="132.43568088406678" cy="-24.901853302254754" r="1.6" stroke="#000000" stroke-width="0.35 px" style="stroke-width:0.35;stroke-miterlimit:4;stroke-dasharray:none;fill:none"/>
<title>b'CaseHoles001'</title>
</g>
<g id="Sketch058" transform="translate(19.291125,76.441125) scale(1,-1)">
<path id="Sketch058_w0000"  d="M -9.624999999999979 -6.6249999999882405 A 3 3 0 0 1 -6.625 -9.625L 9.624999999999993 -9.624999999960956 L 25.76440796435655 -10.753577345564363 L 101.42088414207255 -21.38640165822219 L 131.9416163756251 -21.386401658222187 L 207.5980930654484 -10.75357727359238 L 223.7375 -9.625000000000199 L 239.9875000000006 -9.624999999996795 A 3 3 0 0 1 242.987 -6.625L 242.98749999999984 63.77500000041407 A 3 3 0 0 1 239.987 66.775L 122.68124999999495 66.77500000020348 L 122.68124999998238 73.77499999999644 L 246.98749999999998 73.77499999999998 A 3 3 0 0 0 249.987 70.775L 249.98750000000393 -13.624999999995193 A 3 3 0 0 0 246.988 -16.625L 223.7375 -16.6250000000002 L 208.57230477223538 -17.68545375477872 L 132.915828082379 -28.318278139413177 L 100.44667243535208 -28.318278139413184 L 24.79019625763587 -17.685453826755325 L 9.624999999999995 -16.624999999960956 L -13.62500000003232 -16.62499999996096 A 3 3 0 0 0 -16.625 -13.625L -16.62499999999999 70.77499999999986 A 3 3 0 0 0 -13.625 73.775L 110.68124999998238 73.77500000000346 L 110.68124999999495 66.7750000002105 L -6.625000000005028 66.77499999999992 A 3 3 0 0 1 -9.625 63.775L -9.624999999999979 -6.6249999999882405 " stroke="#000000" stroke-width="0.35 px" style="stroke-width:0.35;stroke-miterlimit:4;stroke-dasharray:none;fill:none;fill-rule: evenodd "/>
<title>b'USB-Layer001'</title>
</g>
</svg>