<?xml version="1.0" encoding="UTF-8" standalone="no"?>
<svg
   version="1.1"
   width="29.700220cm"
   height="21.000720cm"
   viewBox="0 0 116930 82680"
   id="svg2834"
   sodipodi:docname="yaohkib - lefft-B_SilkS_logo.svg"
   inkscape:version="1.1 (c68e22c387, 2021-05-23)"
   xmlns:inkscape="http://www.inkscape.org/namespaces/inkscape"
   xmlns:sodipodi="http://sodipodi.sourceforge.net/DTD/sodipodi-0.dtd"
   xmlns="http://www.w3.org/2000/svg"
   xmlns:svg="http://www.w3.org/2000/svg"
   xmlns:rdf="http://www.w3.org/1999/02/22-rdf-syntax-ns#"
   xmlns:cc="http://creativecommons.org/ns#"
   xmlns:dc="http://purl.org/dc/elements/1.1/">
  <defs
     id="defs2838" />
  <sodipodi:namedview
     id="namedview2836"
     pagecolor="#ffffff"
     bordercolor="#666666"
     borderopacity="1.0"
     inkscape:pageshadow="2"
     inkscape:pageopacity="0.0"
     inkscape:pagecheckerboard="0"
     inkscape:document-units="cm"
     showgrid="false"
     inkscape:zoom="0.67082354"
     inkscape:cx="355.53314"
     inkscape:cy="436.03121"
     inkscape:window-width="2560"
     inkscape:window-height="1511"
     inkscape:window-x="-9"
     inkscape:window-y="-9"
     inkscape:window-maximized="1"
     inkscape:current-layer="svg2834" />
  <title
     id="title2">SVG Picture created as yaohkib - lefft-B_SilkS.svg date 2021/10/26 19:09:53 </title>
  <desc
     id="desc4">Picture generated by PCBNEW </desc>
  <g
     style="fill:#000000; fill-opacity:1;stroke:#000000; stroke-opacity:1; stroke-linecap:round; stroke-linejoin:round;"
     transform="translate(0 0) scale(1 1)"
     id="g6" />
  <g
     style="fill:#000000; fill-opacity:0.0;  stroke:#000000; stroke-width:-0.000393701; stroke-opacity:1;  stroke-linecap:round; stroke-linejoin:round;"
     id="g8" />
  <g
     style="fill:#000000; fill-opacity:0.0;  stroke:#000000; stroke-width:39.3701; stroke-opacity:1;  stroke-linecap:round; stroke-linejoin:round;"
     id="g10" />
  <g
     style="fill:#000000; fill-opacity:0.0;  stroke:#000000; stroke-width:39.3701; stroke-opacity:1;  stroke-linecap:round; stroke-linejoin:round;"
     id="g16" />
  <g
     style="fill:#000000; fill-opacity:0.0;  stroke:#000000; stroke-width:39.3701; stroke-opacity:1;  stroke-linecap:round; stroke-linejoin:round;"
     id="g22" />
  <g
     style="fill:#000000; fill-opacity:0.0;  stroke:#000000; stroke-width:39.3701; stroke-opacity:1;  stroke-linecap:round; stroke-linejoin:round;"
     id="g28" />
  <g
     style="fill:#000000; fill-opacity:0.0;  stroke:#000000; stroke-width:39.3701; stroke-opacity:1;  stroke-linecap:round; stroke-linejoin:round;"
     id="g34" />
  <g
     style="fill:#000000; fill-opacity:0.0;  stroke:#000000; stroke-width:39.3701; stroke-opacity:1;  stroke-linecap:round; stroke-linejoin:round;"
     id="g40" />
  <g
     style="fill:#000000; fill-opacity:0.0;  stroke:#000000; stroke-width:39.3701; stroke-opacity:1;  stroke-linecap:round; stroke-linejoin:round;"
     id="g46" />
  <g
     style="fill:#000000; fill-opacity:0.0;  stroke:#000000; stroke-width:39.3701; stroke-opacity:1;  stroke-linecap:round; stroke-linejoin:round;"
     id="g52" />
  <g
     style="fill:#000000; fill-opacity:0.0;  stroke:#000000; stroke-width:39.3701; stroke-opacity:1;  stroke-linecap:round; stroke-linejoin:round;"
     id="g58" />
  <g
     style="fill:#000000; fill-opacity:0.0;  stroke:#000000; stroke-width:39.3701; stroke-opacity:1;  stroke-linecap:round; stroke-linejoin:round;"
     id="g68" />
  <g
     style="fill:#000000; fill-opacity:0.0;  stroke:#000000; stroke-width:39.3701; stroke-opacity:1;  stroke-linecap:round; stroke-linejoin:round;"
     id="g76" />
  <g
     style="fill:#000000; fill-opacity:0.0;  stroke:#000000; stroke-width:39.3701; stroke-opacity:1;  stroke-linecap:round; stroke-linejoin:round;"
     id="g84" />
  <g
     style="fill:#000000; fill-opacity:0.0;  stroke:#000000; stroke-width:39.3701; stroke-opacity:1;  stroke-linecap:round; stroke-linejoin:round;"
     id="g94" />
  <g
     style="fill:#000000; fill-opacity:0.0;  stroke:#000000; stroke-width:39.3701; stroke-opacity:1;  stroke-linecap:round; stroke-linejoin:round;"
     id="g102" />
  <g
     style="fill:#000000; fill-opacity:0.0;  stroke:#000000; stroke-width:39.3701; stroke-opacity:1;  stroke-linecap:round; stroke-linejoin:round;"
     id="g110" />
  <g
     style="fill:#000000; fill-opacity:0.0;  stroke:#000000; stroke-width:39.3701; stroke-opacity:1;  stroke-linecap:round; stroke-linejoin:round;"
     id="g116" />
  <g
     style="fill:#000000; fill-opacity:0.0;  stroke:#000000; stroke-width:39.3701; stroke-opacity:1;  stroke-linecap:round; stroke-linejoin:round;"
     id="g122" />
  <g
     style="fill:#000000; fill-opacity:0.0;  stroke:#000000; stroke-width:39.3701; stroke-opacity:1;  stroke-linecap:round; stroke-linejoin:round;"
     id="g128" />
  <g
     style="fill:#000000; fill-opacity:0.0;  stroke:#000000; stroke-width:39.3701; stroke-opacity:1;  stroke-linecap:round; stroke-linejoin:round;"
     id="g134" />
  <g
     style="fill:#000000; fill-opacity:0.0;  stroke:#000000; stroke-width:39.3701; stroke-opacity:1;  stroke-linecap:round; stroke-linejoin:round;"
     id="g140" />
  <g
     style="fill:#000000; fill-opacity:0.0;  stroke:#000000; stroke-width:39.3701; stroke-opacity:1;  stroke-linecap:round; stroke-linejoin:round;"
     id="g150" />
  <g
     style="fill:#000000; fill-opacity:0.0;  stroke:#000000; stroke-width:39.3701; stroke-opacity:1;  stroke-linecap:round; stroke-linejoin:round;"
     id="g158" />
  <g
     style="fill:#000000; fill-opacity:0.0;  stroke:#000000; stroke-width:39.3701; stroke-opacity:1;  stroke-linecap:round; stroke-linejoin:round;"
     id="g166" />
  <g
     style="fill:#000000; fill-opacity:0.0;  stroke:#000000; stroke-width:39.3701; stroke-opacity:1;  stroke-linecap:round; stroke-linejoin:round;"
     id="g176" />
  <g
     style="fill:#000000; fill-opacity:0.0;  stroke:#000000; stroke-width:39.3701; stroke-opacity:1;  stroke-linecap:round; stroke-linejoin:round;"
     id="g184" />
  <g
     style="fill:#000000; fill-opacity:0.0;  stroke:#000000; stroke-width:39.3701; stroke-opacity:1;  stroke-linecap:round; stroke-linejoin:round;"
     id="g192" />
  <g
     style="fill:#000000; fill-opacity:0.0;  stroke:#000000; stroke-width:39.3701; stroke-opacity:1;  stroke-linecap:round; stroke-linejoin:round;"
     id="g198" />
  <g
     style="fill:#000000; fill-opacity:0.0;  stroke:#000000; stroke-width:39.3701; stroke-opacity:1;  stroke-linecap:round; stroke-linejoin:round;"
     id="g204" />
  <g
     style="fill:#000000; fill-opacity:0.0;  stroke:#000000; stroke-width:39.3701; stroke-opacity:1;  stroke-linecap:round; stroke-linejoin:round;"
     id="g210" />
  <g
     style="fill:#000000; fill-opacity:0.0;  stroke:#000000; stroke-width:39.3701; stroke-opacity:1;  stroke-linecap:round; stroke-linejoin:round;"
     id="g220" />
  <g
     style="fill:#000000; fill-opacity:0.0;  stroke:#000000; stroke-width:39.3701; stroke-opacity:1;  stroke-linecap:round; stroke-linejoin:round;"
     id="g228" />
  <g
     style="fill:#000000; fill-opacity:0.0;  stroke:#000000; stroke-width:39.3701; stroke-opacity:1;  stroke-linecap:round; stroke-linejoin:round;"
     id="g236" />
  <g
     style="fill:#000000; fill-opacity:0.0;  stroke:#000000; stroke-width:39.3701; stroke-opacity:1;  stroke-linecap:round; stroke-linejoin:round;"
     id="g244" />
  <g
     style="fill:#000000; fill-opacity:0.0;  stroke:#000000; stroke-width:39.3701; stroke-opacity:1;  stroke-linecap:round; stroke-linejoin:round;"
     id="g250" />
  <g
     style="fill:#000000; fill-opacity:0.0;  stroke:#000000; stroke-width:39.3701; stroke-opacity:1;  stroke-linecap:round; stroke-linejoin:round;"
     id="g256" />
  <g
     style="fill:#000000; fill-opacity:0.0;  stroke:#000000; stroke-width:39.3701; stroke-opacity:1;  stroke-linecap:round; stroke-linejoin:round;"
     id="g262" />
  <g
     style="fill:#000000; fill-opacity:0.0;  stroke:#000000; stroke-width:39.3701; stroke-opacity:1;  stroke-linecap:round; stroke-linejoin:round;"
     id="g272" />
  <g
     style="fill:#000000; fill-opacity:0.0;  stroke:#000000; stroke-width:39.3701; stroke-opacity:1;  stroke-linecap:round; stroke-linejoin:round;"
     id="g280" />
  <g
     style="fill:#000000; fill-opacity:0.0;  stroke:#000000; stroke-width:39.3701; stroke-opacity:1;  stroke-linecap:round; stroke-linejoin:round;"
     id="g288" />
  <g
     style="fill:#000000; fill-opacity:0.0;  stroke:#000000; stroke-width:39.3701; stroke-opacity:1;  stroke-linecap:round; stroke-linejoin:round;"
     id="g296" />
  <g
     style="fill:#000000; fill-opacity:0.0;  stroke:#000000; stroke-width:39.3701; stroke-opacity:1;  stroke-linecap:round; stroke-linejoin:round;"
     id="g318" />
  <g
     style="fill:#000000; fill-opacity:0.0;  stroke:#000000; stroke-width:39.3701; stroke-opacity:1;  stroke-linecap:round; stroke-linejoin:round;"
     id="g324" />
  <g
     style="fill:#000000; fill-opacity:0.0;  stroke:#000000; stroke-width:39.3701; stroke-opacity:1;  stroke-linecap:round; stroke-linejoin:round;"
     id="g412" />
  <g
     style="fill:#000000; fill-opacity:0.0;  stroke:#000000; stroke-width:39.3701; stroke-opacity:1;  stroke-linecap:round; stroke-linejoin:round;"
     id="g418" />
  <g
     style="fill:#000000; fill-opacity:0.0;  stroke:#000000; stroke-width:39.3701; stroke-opacity:1;  stroke-linecap:round; stroke-linejoin:round;"
     id="g436" />
  <g
     style="fill:#000000; fill-opacity:0.0;  stroke:#000000; stroke-width:39.3701; stroke-opacity:1;  stroke-linecap:round; stroke-linejoin:round;"
     id="g464" />
  <g
     style="fill:#000000; fill-opacity:0.0;  stroke:#000000; stroke-width:39.3701; stroke-opacity:1;  stroke-linecap:round; stroke-linejoin:round;"
     id="g490" />
  <g
     style="fill:#000000; fill-opacity:0.0;  stroke:#000000; stroke-width:39.3701; stroke-opacity:1;  stroke-linecap:round; stroke-linejoin:round;"
     id="g496" />
  <g
     style="fill:#000000; fill-opacity:0.0;  stroke:#000000; stroke-width:39.3701; stroke-opacity:1;  stroke-linecap:round; stroke-linejoin:round;"
     id="g522" />
  <g
     style="fill:#000000; fill-opacity:0.0;  stroke:#000000; stroke-width:39.3701; stroke-opacity:1;  stroke-linecap:round; stroke-linejoin:round;"
     id="g624" />
  <g
     style="fill:#000000; fill-opacity:0.0;  stroke:#000000; stroke-width:39.3701; stroke-opacity:1;  stroke-linecap:round; stroke-linejoin:round;"
     id="g630" />
  <g
     style="fill:#000000; fill-opacity:0.0;  stroke:#000000; stroke-width:39.3701; stroke-opacity:1;  stroke-linecap:round; stroke-linejoin:round;"
     id="g654" />
  <g
     style="fill:#000000; fill-opacity:0.0;  stroke:#000000; stroke-width:39.3701; stroke-opacity:1;  stroke-linecap:round; stroke-linejoin:round;"
     id="g660" />
  <g
     style="fill:#000000;fill-opacity:1;stroke:#000000;stroke-width:3.93701;stroke-linecap:round;stroke-linejoin:round;stroke-opacity:1"
     id="g674"
     transform="translate(-11520.762,15766.316)">
    <path
       style="fill:#000000;fill-opacity:1;fill-rule:evenodd;stroke:#000000;stroke-width:3.93701;stroke-linecap:round;stroke-linejoin:round;stroke-opacity:1"
       d="m 60274.3,118752 -5.8,48 152.2,194 47.8,6 194.2,-152 5.8,-48 -152.2,-194 -47.8,-6 z"
       id="path666" />
    <path
       style="fill:#000000;fill-opacity:1;fill-rule:evenodd;stroke:#000000;stroke-width:3.93701;stroke-linecap:round;stroke-linejoin:round;stroke-opacity:1"
       d="m 107792,-13566.7 -100,198 -232,472.9 -321,662.3 -161,333.5 -425,844.9 -441,811.6 -374,631.4 -73,112.1 -306,495.42 -428,749.62 -491,900.25 -474,904.71 -447,849.83 -389,702.85 -292,488.35 -157,206.36 -8,2.61 -119,-176.38 -153,-450.13 -86,-336.09 -172,-583.44 -291,-827 -366,-949.21 -305,-738.51 -367,-909.26 -296,-831.88 -193,-654.2 -56,-342.1 -50,-425.8 -232,-157.3 -318.5,-18.7 -312.4,12.5 -185.6,84.8 -69.7,227.9 35.7,442.1 130.4,727.1 99.9,505.6 259.9,1225.88 287.4,1170.81 336.9,1183.25 408,1263.18 502,1410.59 618,1625.5 755,1907.894 185,457.831 365,933.185 292,796.31 193,588.92 70,310.98 -6,28.26 -276,121.35 -539,139.06 -684,137.04 -714,115.25 -626,73.72 -421,12.44 -106,-29.07 -45,-89.26 h -1250.1 l -103,204.69 -234.7,98.82 -13,2.89 -615.9,122.99 -558.9,76.46 -610.7,35.55 -771.6,0.23 -1041.4,-29.47 -235.6,-8.43 -1101.5,-35.78 -1110.1,-28.62 -970.2,-18 -546.9,-4.45 H 89711 l 189.7,-844.29 161.1,-627.18 117,-280.72 59.2,80.41 -11.9,456.21 -1.5,18.37 15.7,501.44 184.4,224.32 93.8,28.35 292.3,-58.18 58.9,-134.07 88.4,-354.17 211,-482.13 1.9,-3.58 246.1,-634.92 46.5,-206.53 h -1010.9 l -36.8,259.41 -68.2,3.09 -47.8,-267.67 32,-115.66 88.8,-75.76 32,196.59 h 1010.9 l 90,-400.26 43.5,-283.07 h -928.6 l -73.2,164.62 -60.1,-31.29 -24,-237.35 24,-29.31 118.9,27.45 14.4,105.88 h 928.6 l 80.5,-523.307 173.2,-461.132 L 92051.5,100 h -983 l -100,100 -100,-100 100,-100 100,100 h 983 l 94.5,-54.3835 490,67.1835 532.5,171.182 549.2,134.743 815.5,132.607 948.5,110.674 531.9,44.485 2045.2,144.348 376.8,1024.581 325.2,917.36 176.9,613.95 34.2,376.39 h 1250.1 l -85,-169.54 -221.6,-570.94 -289.9,-812.16 -334.5,-982.46 -355.8,-1081.829 -328,-1030.475 h -1138.7 l -38.4,131.263 -156.7,84.196 -336.6,42.048 -578.6,4.816 -882.4,-27.496 -626.9,-26.654 -978.1,-48.004 -822.3,-48.911 -590.4,-44.637 -281.9,-35.186 -12.5,-5.318 20,-208.283 106.7,-507.87 174.4,-721.31 136.2,-526.23 374.3,-1456.84 326.2,-1355.91 240.9,-1085.39 h -473.9 l -100,100 -100,-100 100,-100 100,100 h 473.9 l 23.5,-105.75 188.6,-962.52 99,-670.06 11.6,-187.18 110.8,-492.97 192.6,-281.52 236.2,-137.88 63.5,189.8 0.3,36.51 71.9,376.26 182.9,575.51 122.5,322.72 444.2,1120.47 457.4,1184.45 447.5,1184.68 414.2,1121.16 357.6,993.88 277.7,802.85 174.4,548.07 49.7,217.236 h 1138.7 l -25.4,-79.819 -327.6,-1067.837 -278.3,-954.46 -118.9,-433.6 -290.5,-989.62 -379.5,-1155.08 -401.1,-1117.96 -130,-337.34 -364,-953 -345.3,-954.41 -273,-805.62 -88.7,-286.97 -244.1,-780.7 -212.5,-480.3 -246.1,-267.3 -344.6,-142.2 -229,-51.5 -440.8,-53.5 -174.3,118.6 -25,220.1 -82.7,390.6 -108.9,141 -124,220.8 -210.8,517.3 -268.4,727.26 -297,850.89 -296.4,888.09 -266.6,838.88 -207.7,703.28 -119.7,481.27 -17.8,135.23 -66.6,397.53 -179.7,676.22 -262.9,860.07 -316.1,949.1 -339.3,943.31 -242.8,624.69 -292,755.863 -235.3,670.621 -131,449.603 -4.8,23.912 -90.8,436.661 -150.1,682.3 -177.7,784.06 -8.8,38.26 -334.2,1450 h -1672.1 l -779.3,-20.68 -615.6,-55.05 -350.8,-78.97 -40.6,-29.95 21.3,-272.63 8.2,-19.49 h -1207 l -32,76.77 -264.9,192.53 -58.7,7.47 -108.4,-123.23 32,-76.77 264.9,-192.53 58.7,-7.47 108.4,123.23 h 1207 L 85585.2,3300 h -916.7 l -100,100 -100,-100 100,-100 100,100 h 916.7 l 6,-14.31 91.8,-165.27 303,-626.77 289.4,-777.42 107.5,-361.16 169.1,-948.776 91.1,-1187.364 8.8,-824.34 h -1209.8 l -12.4,689.596 -95.2,603.813 -197.1,673.879 -152.7,440.422 -521.5,1147.87 -644.9,803.59 -814,507.42 -515,165.16 -558.8,117.24 -372.8,-15.22 -386.8,-175.27 -236.6,-141.3 -746.2,-668.92 -625.1,-987.39 -476.4,-1235.317 -299.6,-1412.693 -95.6,-1373.37 49.8,-879.51 138.4,-1024.53 202.1,-1050.57 241.1,-957.65 255.2,-745.74 143.3,-286.37 528.7,-479.76 814.9,-247.02 1051.6,0.58 8.8,0.99 692.4,123.66 496.8,243.82 495.5,465.01 73.8,81.19 612.4,861.42 444,1063.21 296.3,1328.59 154.1,1431.96 51.5,931.21 h 1209.8 l 4.9,-461.91 -63,-1245.42 -139,-1064.88 -102.1,-436.08 -363,-962.01 -531.7,-1057.23 -624.5,-1025.37 -641.6,-866.38 -452.6,-474.09 -582.3,-384.63 -604.6,-203.3 -509.8,1.84 -274.1,184.87 -275.1,153.65 -346.6,46.35 -675.4,137.74 -778.5,362.35 -721,510.59 -57.2,51.19 -505.8,707.96 -377.3,1073.68 -245.7,1425.27 -110.9,1762.73 -6.5,605.45 7.8,1114.83 32.7,819.793 71.7,629.584 125,544.19 192.2,563.618 99.9,256.915 303.9,726.45 287.6,621.22 208.5,380.94 259.2,484.07 -58.7,243.65 -381,11.57 -54.7,-12.67 H 58804.9 l -8.2,77.45 -261.7,213.1 -598.8,93.65 -211.4,6.14 -670.5,52.99 -879.2,129.05 -909.8,178.48 -96.8,22.09 -927.9,211.1 -606.6,122.32 -352.6,40.13 -165.8,-35.46 -46.3,-104.46 -0.8,-27.7 -173.8,-140.43 -418.7,-59.55 -7.5,-0.02 -421.3,-59.08 -178.6,-142.34 -0.1,-2.55 107.9,-296.66 276.5,-502.8 374.7,-594.5 402.3,-571.75 226,-285.3 301.6,-356.84 473,-559.42 557.4,-659.154 181.1,-214.182 1137.1,-1344.574 677.5,944.574 696,1009.784 604.1,951.852 478.1,833.53 318.4,654.82 124.7,415.71 h 19957.7 l -144.1,-33.42 -297.6,-62.64 h -6424.6 l -265.7,34.63 -62.1,1.32 -341.6,-21.62 -30,-62.61 17.8,-7.97 397,-39.56 203,32.15 81.6,63.66 h 6424.6 l -277.2,-58.33 -760.9,-118.54 -464.4,-56.17 -787.3,-114.41 -511.7,-193.79 -283.7,-345.57 -103.2,-569.74 29.7,-866.31 32.6,-381.961 59.7,-655.908 42.8,-526.878 h -1238.4 v 939.992 l -101,1210.315 -16.5,141.41 -123.7,1029.18 -2624.6,-83.35 -1071.5,-40.25 -1005.9,-48.94 -831,-51.58 -546.4,-48.2 -19.8,-2.45 -850,-108.09 V 1115.66 L 66886,235 l 45.7,-860.48 58.1,-603.95 90.9,-543.93 143,-247.52 299,-51.33 317.1,23.46 810.5,81.39 961.8,108.89 1027.3,125.15 1007.1,130.2 901.2,124.03 709.4,106.65 431.9,78.03 75.9,20.69 195.3,280.964 98.7,630.209 h 1238.4 l 0.9,-10.989 26.5,-485.39 8.1,-498.484 -11.4,-577.13 -32.2,-721.36 -54.2,-931.15 -77.3,-1206.5 -89,-1356.45 -94.7,-1408.52 -79.1,-1058.71 -71.1,-758.42 -71,-507.63 -78.4,-306.32 -93.7,-154.6 -116.6,-52.4 -57.5,-3.4 -129.3,17.3 -94.7,86 -63.6,206.1 -36.4,377.52 -12.9,600.18 7,874.18 23,1199.49 14.8,664.14 90.7,4024.91 -1118.3,-114.73 -872.1,-95.65 -991.7,-118.6 -1032.7,-130.94 -995.6,-132.67 -879.9,-123.79 -685.8,-104.33 -413.4,-74.23 -84.4,-25.44 -36.1,-215.72 -47.2,-539.28 -52.8,-786.77 -52.9,-958.18 -11.3,-230.41 -47,-1091.87 -15.1,-761.21 21.6,-499.02 63.4,-305.27 110.2,-179.99 79.4,-68.2 176.5,-166.82 42.7,-219.74 -100.3,-378.83 -236.6,-605.23 -233,-548.9 -192,-379.5 -154.9,-185.8 -121.9,32.5 -92.6,275.3 -67.3,542.4 -46,834.15 -28.6,1150.33 -15.1,1490.99 -5.5,1856.14 -0.4,900.43 v 7090.93 l -650,104.91 -872.5,126.64 -945.9,114.46 -929.1,94.25 -822.4,65.99 -625.5,29.7 -338.5,-14.61 -26.5,-9.66 -51.6,-227.88 -45.1,-593.18 -37.6,-923.81 -29.1,-1219.78 -19.5,-1481.08 -9,-1707.71 -0.4,-401.91 -4.3,-1584.54 -11,-1470.95 -16.7,-1305.68 -21.5,-1088.72 -25.3,-820.05 -28.3,-499.76 -16.3,-118.5 -246.1,-367.3 -251.1,-82.7 -117.8,18.5 -90.3,86.5 -66.5,201.3 -46.4,362.7 -29.9,570.91 -17.1,825.77 -7.8,1127.35 -2.3,1475.62 V -5750 l -5.8,1443.47 -15.4,1391.14 -23.4,1262.28 -29.8,1056.837 -34.6,774.855 -20.3,274.816 -127.8,1353.402 -443.2,-653.4 -275.4,-423.913 -424.5,-674.5776 -516.1,-833.2794 -550.5,-900.02 -13.1,-21.61 -781.2,-1246.49 -835.8,-1264.81 -856.4,-1238.13 -843.1,-1166.47 -795.7,-1049.81 -714.2,-888.18 -598.8,-681.54 -449.4,-429.93 -250.7,-134.64 -302.8,176.9 -222,438.33 -65.9,420.5 112.9,206.27 308.4,456.34 454.8,639.94 552.2,757.06 600.3,807.74 599.6,791.94 549.6,709.68 450.6,560.95 100.9,120.35 381.3,487.95 240.4,383.31 43.3,128.74 -118.9,234.45 -320.3,473.23 -470.8,640.25 -495.6,640.709 -783.6,1037.758 -745.1,1070.833 -655.9,1023.76 -515.8,896.54 -325.2,689.17 -47.1,135.71 -258.2,372.22 -528.4,215.78 -852,79.5 -130.1,1.36 -750,2.73 v -6906.28 l -1.8,-1866.25 -6.5,-1504.87 -12.8,-1182.13 -21,-897.98 -30.7,-652.47 -42.3,-445.56 -55.4,-277.27 -70.3,-147.6 -67.8,-50.58 -320.9,-52.46 -86.7,33.02 -28.3,216.11 -35.8,569.74 -41.5,877.1 -45.2,1138.19 -47.3,1353.02 -47.3,1521.59 -38.4,1374.68 -44.7,1624.988 -44.2,1493.172 -41.9,1315.51 -38.1,1091.97 -32.7,822.58 -25.7,507.32 -15.1,149.04 -211.2,54.37 -501.9,93.11 -687.1,112.46 -55.9,8.65 -799.7,103.12 -499.2,6.44 -286.8,-92.04 -62,-51.16 -74.5,-187.58 -64.6,-421.62 -56.2,-683.7 -49.2,-973.79 -43.6,-1291.91 -39.6,-1638.0422 -34.1,-1841.3478 -6.3,-342.18 H 41588 l -14.7,511.06 -33.7,191.78 -272.3,24.96 -372.6,-292.48 -187.5,-232.44 -328.9,-291.89 -221.1,-70.35 -260,-84.2 -30,-65.8 -157.3,-189.2 -383.8,-267.12 -68.4,-39.86 -523,-464.79 -443.2,-693.53 -35.9,-77.98 -227.9,-557.93 -60.9,-376.17 100.5,-373.39 136.8,-300.12 253.4,-409.91 h -1389 l -100,100 -100,-100 100,-100 100,100 h 1389 l 40.4,-65.35 408.1,-304.39 637.7,-234.05 827.1,-218.61 528.7,-57.97 300.7,108.67 142.9,281.28 8.9,40.42 61.3,459.16 56.9,699.91 49.3,847.81 38.3,902.88 24,865.1 6.2,734.5 h 1566.2 l -23.3,-1265.97 -32.8,-1478.2 -24.2,-915.19 h -1005.4 l -100,100 -100,-100 100,-100 100,100 h 1005.4 l -10.2,-386.17 -3.7,-113.83 h -991.5 l -73.2,164.62 -60.1,-31.29 -24,-237.35 24,-29.31 118.9,27.45 14.4,105.88 h 991.5 l -31,-963.8 -32,-769.53 h -3595.2 l -27.4,118.9 -105.9,14.43 -164.6,-73.18 31.3,-60.15 237.3,-23.94 29.3,23.94 H 42997 l -1.5,-37.48 -30.8,-489.48 -20.6,-130.76 -297.1,-97.15 -648.5,-77.96 -951.5,-54.52 -978.5,-24.3 -1161.9,82.22 -900.7,308.17 -732,573.43 -293.4,347.65 -495.3,875.59 -188.8,977.34 65.6,1006.89 126.4,552.1 239.6,495.1 421.4,553.23 486.3,532.43 549.5,605.99 256.6,354.11 -28.4,114.14 -78.1,-15.24 -389.8,-25.82 -172,99.51 -276.7,154.74 -395.7,53.4 -442.4,85.19 -662.3,224.68 -748,317.863 -89,42.177 -1110.8,654.7152 -798.5,785.2128 -572.3,1009.992 -175.3,460.01 -202.2,805.57 55.4,656.04 338.8,676.34 169.3,244.02 595.4,821.82 -645.4,101.31 -531.6,83 -757.1,117.68 -764.9,118.53 -744.8,130.26 -431.9,128.56 -203.9,165.1 -60,223.74 67.9,469.82 114.9,219.15 102.4,331.97 -115.3,201.9 -130.1,407.16 261.2,427.35 644.8,443.85 1020.5,456.68 1388.3,465.8 1748.2,471.21 1508.7,347.5 686.2,122.6 832.7,96.6 1035,73.8 1292.9,54.7 1606.2,38.9 1047,16 2387.4,41.9 2221.5,64.7 2131.2,93 2116.8,126.6 2178,165.6 2315.1,210 2527.9,259.8 2816.4,315.1 1243.1,144.9 691.3,80.2 909.5,103.9 948.3,107.1 141.7,15.9 767.5,90.3 591.2,77.9 322,52.8 32.4,10.9 -3.9,204.5 -30.1,505.6 -50.5,709.2 -17,223.3 -42.2,1035.8 11.3,1137.1 57,927.1 150.9,3046.1 -159.3,3119.8 -130.6,1141.7 -159.1,1235.9 -175.3,1376.8 -165.3,1310.9 -83.3,668.8 -118.1,853.5 -150.5,946.5 -167.7,958.7 -169.4,890.1 -155.8,740.7 -126.6,510.5 -82.1,199.5 -2.3,0.3 -14.1,-187.3 -13.5,-510.8 -11.6,-757.8 -8.2,-928.2 -0.3,-65.9 -28.7,-1134 -66.7,-1161 -94.1,-1034.5 -85.6,-620.3 -259.8,-1207.5 -348.4,-1211.6 -411.3,-1161.6 -448.6,-1057.5 -460,-899.2 -445.9,-686.7 -405.9,-420.1 -340.2,-99.4 -69,29.9 -227.3,-60.6 -235.3,-301.2 -283.8,-438.3 -95.6,-124 h -2545.9 l -466.9,148.2 -414.5,237.4 -593.8,473 -697.9,635.4 -727.1,724.7 -681.3,740.7 -560.3,683.6 -209.7,294.8 -789.2,1097.2 -702.7,782.8 -591.9,442.6 -149.9,61.8 -321.1,49.9 -115.1,-201.4 -10.8,-269.4 85.3,-493.8 217.5,-670.3 197.2,-469.3 272.8,-651.7 180.9,-557.9 44.3,-259.5 112.6,-429.9 274.4,-511.6 31.7,-45.7 283,-512.8 -25.6,-397.5 -362.7,-373.4 -369.4,-237.7 -520.2,-253 -365,10.6 -303.3,315 -298.7,580.5 -320.6,641.4 -332.6,580.2 -63.4,97.6 -312.4,725.3 -166.5,933.9 -3.5,972.3 145.3,753.1 198.1,490 182.7,277.4 48.1,23.3 136.6,167.8 31.4,232.2 -138.3,320.3 -346.3,70 -451.4,-178.7 -280.8,-228.4 -180.4,-212.7 -75.7,-170.5 h -1327.1 l -73.2,164.6 -60.1,-31.3 -24,-237.3 24,-29.3 118.9,27.4 14.4,105.9 h 1327.1 l -39.8,-89.6 -61.4,-389.2 -17.7,-600 15.3,-892.7 9.7,-345.6 19.7,-1034.1 -15.4,-688.5 -55,-395.9 -98.9,-156.5 -39.9,-8.2 -298.9,-154.5 -61.1,-432.2 182.3,-661.7 21,-51 332.6,-628.4 483.3,-713.8 559,-708.6 559.4,-612.9 484.7,-426.7 265,-142.2 962.2,-92.6 1170.8,132.9 1272.7,337.3 1268.3,520.7 83.6,41.7 785.7,422.9 691.3,420.1 484.2,347 105.9,97.7 438.5,466.8 h 2545.9 L 60446.5,20500 H 59529 l -679.2,-600 -425.3,-370.7 -285.2,-239.4 -53.1,-39.9 80.5,-43.9 130.9,-6.1 297.2,150.7 370.9,374.3 95.5,125 467.8,650 h 917.5 l -125.7,-163.1 -484.9,-571.6 -468.4,-505.3 -373.9,-350.3 -186.8,-109.7 -279.6,-109.6 -436.8,-270.8 -103,-73.7 -532.9,-357 -562.2,-290.5 -659.1,-243.2 -823.4,-215.3 -1054.9,-206.6 -1354.1,-217.1 -758,-111 -1631.9,-168.8 -1712.1,-62.6 -1674.5,40.9 -1519,141.5 -1220.8,232.8 -1322.3,459.3 -1486.7,701 -1550.5,884.8 -1513.9,1010.6 -1376.6,1078.4 -165,143.3 -838.5,804.4 -771.9,895 -747.3,1048.1 -765,1263.6 -824.8,1541.6 -556.1,1115 -563.5,1165.4 -410.6,892.7 -286.6,703.5 -191.9,597.5 -126.2,575.1 -89.5,636.1 -34.5,313.2 -83.2,790.6 -65.1,617.4 -37.5,353.2 -5.2,49 -169,10.4 -184.6,-10.4 -198.3,27.8 -95.7,160.4 11.6,349.4 123.7,595 240.5,897.1 126.1,442.5 277.3,1021.9 299,1193.8 266.1,1145 55.5,255.4 395.3,1556.9 531,1666.5 618,1645.4 656.5,1493.8 568.4,1081.2 486.4,842.2 563.1,994.3 526.4,946.6 53.5,97.3 416,729.3 452.3,723 534.2,781.1 661.3,903.4 833.9,1089.9 894.4,1141.3 525.1,673.3 480,629.1 335.5,454.5 12.9,18.2 688.8,919.6 521.6,567.9 362.2,224.5 45.2,4.6 254.8,93.7 27.4,70.3 143.2,281.7 369.8,435.2 507,496.9 554.9,467 225.1,164.6 553.7,417.5 475.4,413.8 70.9,71.1 381.2,298.1 613.3,378.2 705.5,372.8 776.4,415.5 736.3,457.8 487.3,361.4 499.4,366.2 436.7,214.5 125.7,23.2 254.1,71.6 6.6,92.6 93.8,170 400.1,200.1 617.9,196.7 747.1,159.9 118.6,18.9 593.8,161.4 762.1,301.5 701,343.2 663,340.1 551,245.1 324.3,99.2 7.7,0.2 326.1,68.9 569.6,180 647.4,236.2 856.9,318.6 1010.8,357.5 886.3,299.1 912,304.8 938.9,324.6 749.1,269.2 557.6,162.6 865.8,198.1 1085.7,215.9 1217.2,216 1073.7,170.7 1003.1,147.6 876.4,119 810.6,93.6 805.5,71.2 861,52.1 977.4,36.1 1154.6,23.3 1392.4,13.6 1691,7.2 1328,2.6 1893.4,2.2 1538.5,-1.7 1229.1,-7.8 964.7,-16.4 745.6,-27.2 571.6,-40.4 443.1,-55.9 359.5,-73.8 321.4,-93.9 301.6,-106.9 h -2535.2 l -27.4,118.9 -105.9,14.4 -164.6,-73.2 31.3,-60.1 237.3,-24 29.3,24 H 87337 l 26.7,-9.5 4.8,-1.8 598.2,-203.4 277.8,-51.1 -64.2,104.5 -406,231.7 -244,62.9 -240.7,121.5 -21.1,78.5 171.2,150.3 328.8,49.7 375.9,-68.5 124.1,-131.5 153.8,-192.3 58,-7.7 286,-88.4 541,-233.5 700.4,-331 562.5,-280.4 h -968.4 l -27.4,118.9 -105.9,14.4 -164.6,-73.2 31.3,-60.1 47.7,-4.8 h -1875.6 l -119.6,126.2 -419.2,222.8 -617.4,236.5 -558.2,125.4 -124.4,6.5 -195,-40.4 147.9,-116.9 511.5,-208.8 35.6,-13.2 690.9,-232.7 459,-112.6 188.9,7.2 h 1875.6 l 189.6,-19.2 29.3,24 h 968.4 l 201.6,-100.6 732.4,-383.4 604.9,-338.3 359.4,-228.6 431.6,-302.7 522.2,-350.9 h -1753.8 l -167.6,155.7 -430.1,250.4 -583.3,292.1 -627.2,280.7 -562.1,216.1 -229.7,69.1 -540.1,118.4 -168.2,-10.5 207.1,-138 201.2,-96.4 1218.7,-546.2 615.3,-258.2 h -3652.4 l -27.1,124.5 -285.3,147 -506.5,178.1 -558.2,156 -440.2,80.8 -2.5,0.2 -140.1,-42.4 h -1358.7 l -221.4,208.8 -497.1,94.5 -94.5,8.8 -573.9,40.2 -406.8,9.9 -69.3,-4.7 -105.9,-198.4 -35,-161.4 h -1162.2 l -54.4,251 -212.1,169.9 -436.7,109.1 -728.2,69.1 -627.8,31.6 -762.4,32 645.3,-589.4 697.2,-548.8 614.4,-319.6 466.2,-64.4 217,140.3 149.6,428.7 31.9,290.5 h 1162.2 l -74.2,-342.2 -94.2,-714.5 -14.6,-160 h -3761.4 l -146.7,222 -386.5,360.6 -402.3,346.8 -630.1,511.4 -474.3,288.5 -444.9,125.9 -444.6,24.2 -531.2,-30.3 -314.6,-76.4 -37.3,-43.3 41.5,-406.3 103.8,-652.1 146.3,-800.4 169.1,-851 171.9,-804 155.1,-659.3 118.4,-416.9 18.3,-38.8 h -1336.8 l -40.1,493.2 -106.8,676.3 -162.3,852.8 -182.9,821.9 -147.5,555.4 -177.6,508.7 -201.8,217.9 -359.6,21.2 -277.7,-33.4 -524.2,-94.7 -332.1,-106.6 -32.7,-22.7 -1.1,-222.4 72,-512.8 124.9,-704.4 157.8,-797.5 170.7,-791.9 152.2,-640.6 h -1012.7 l -20.4,218.6 -137.3,503 -228.4,698.2 -137,385.6 -621.7,1706.7 -1180.1,-26.8 -627.5,-31.9 -428.6,-55.5 -125.7,-54 132.6,-189.9 354.4,-384.4 508.5,-514 594.4,-578.9 612.6,-579 562.9,-514.4 445.1,-385 259.5,-190.9 36.7,-7.4 h 1012.7 l 11.2,-47 136,-484.7 64.4,-159.9 266.8,-119.8 468.6,-17.8 487,79.1 237.7,99.8 145.8,153.2 51.3,276.7 h 1336.8 l 24.5,-52.3 332.4,-68 386.1,121.6 422.6,331.1 107.8,449.3 181.9,612.9 507.4,651 655,533.2 216.2,164.1 54.2,156.5 h 3761.4 l -12.5,-136.7 -76.1,-869.6 -75.2,-754.4 h -1003.1 l -80,426.3 -321.3,211.6 -257.9,46.5 -740.1,-46.3 -815,-230 -667.6,-348.2 -62,-48.6 -223.3,-341.4 129.3,-316.1 434.3,-262.3 691.9,-180.3 902.2,-69.9 27,-0.1 517.6,51.6 255.5,202.5 74.1,194.8 135.3,709.9 h 1003.1 l -3.9,-38.4 -67.5,-571.7 -12.4,-85.4 -21.2,-461.4 194,-245.9 309.2,-130.8 430.8,-101.4 234.4,36 1.9,2.9 89.8,252.9 150.8,525.9 172.6,659.3 220.5,812.7 236.5,776.7 161,462.7 232.5,681.2 21.7,404.4 h 1358.7 l -152.6,-46.2 -37.8,-43.4 -82.8,-273.7 -102.6,-518.9 -44.8,-278.7 -69.1,-562.7 47.1,-287.2 212.8,-130.8 239.7,-55.3 541.8,-130.5 360.5,-113.4 245.8,11 244.2,279.7 264.5,530.8 210.4,563.3 82.8,411.8 h 3652.4 l 280.8,-117.8 563.1,-201.8 219.4,-23.3 2.7,9.7 h 1753.8 l 78.9,-53 369.3,-242.5 h -1668.7 l -27.4,118.9 -105.9,14.4 -164.6,-73.2 31.3,-60.1 237.3,-24 29.3,24 h 1668.7 l 253.7,-166.7 h -1455.7 l -100,100 -100,-100 100,-100 100,100 h 1455.7 l 62.7,-41.1 685,-441.8 502.4,-317.1 h -4705.8 l -100,100 -100,-100 100,-100 100,100 h 4705.8 l 96.8,-61.1 229.1,-138.9 h -4631.7 l -100,100 -100,-100 100,-100 100,100 h 4631.7 l 199.3,-120.9 169,-87.1 235.8,-64.8 464.2,-150.3 159.1,-53.9 470.2,-191.5 143.4,-170.6 -95.6,-188.5 -326.2,-197 -182.9,9.2 -251,30.8 40.4,-199 251.3,-320.5 h -2660 l -1074.4,499 -1074.3,499 -100.8,-1214.1 -42.3,-349.1 h -1195.5 l -104,519.4 -359.9,400 -493.9,214.6 -506.1,-36.3 -257.5,-168.4 -249.5,-454.3 95.9,-436.3 390.7,-346 634.5,-183.3 132.9,-10 459.7,24.2 200.3,193 56.9,283.4 h 1195.5 l -45.8,-378.4 -156.8,-479.4 -289.1,-382.8 -219.2,-207.2 -805.6,-503.2 -830.8,-107.5 -832.4,287.2 -618.8,481.2 -555,684.8 -200.3,683.2 133.3,791 136,356.8 469.8,779.5 640.2,445.2 717.6,154.1 800,64.8 -1000,540.7 -585,298.5 -455.6,200.3 -176,51.2 -138.1,-176.3 -219.8,-487.7 -272.1,-726.3 -295.2,-892 -24.8,-79.7 -181.3,-596.5 h -1209.4 l -186.4,289.5 -386.8,268.7 -579.9,312.9 -358.9,41.4 -232.5,-255.8 -166.5,-462.1 -176.3,-663 -7.1,-400.2 196.2,-251.2 299.3,-149.2 H 70005.6 l -157.9,109.5 -183.6,77 -440.3,245.4 -576.8,403.7 -351.8,278.9 -484.5,393.7 -348,262.4 -113.1,66.2 -41.4,-182.4 -29.2,-477.2 -10.5,-635.4 v -1295 l 650,126.2 636.9,145.4 713.9,192.2 99.2,29.4 490.6,156.7 146.5,103.3 h 14206.7 l 134.3,-66.9 15.5,-6.5 601.9,-228.1 284.4,-51.4 -43.5,119.9 20.9,208.7 134.9,141.3 260.8,352.9 155.5,408 34.2,391.1 h 1209.4 l -99.8,-328.5 -231.3,-791.8 -158.4,-577.3 -62.4,-281.6 -0.2,-5.5 169.3,-181.6 437.2,-272.8 599.3,-313.1 655.3,-302.3 605.5,-240.7 449.7,-128.1 93.5,-8.9 331.5,-108.4 547.8,-286.9 657.6,-408.5 140.7,-94.9 1312.6,-898.6 4.4,1248.6 141.4,1296 397.8,1090 629.1,819.7 126.5,106.6 549.5,432.3 h 2660 l 64.4,-82.3 574.9,-580.3 79.6,-74.8 1236.2,-1167.1 806.3,-796 h -3195.4 l -41.2,422.8 -243,252.9 -390.5,163 -829.1,219.2 -588.8,-23.9 -428.9,-271.2 -21.2,-22.8 -291.6,-553.7 -162.1,-783 -15.1,-857.5 139.5,-749.3 261.2,-562 376.8,-549.6 419.8,-461.9 390.3,-299.4 288.5,-61.7 72.5,61.7 157.1,374.5 205.9,647.9 223.7,802.7 210.5,838.8 166.4,756.5 91.4,555.6 7.9,100.4 h 3195.4 l 217.6,-214.8 861.8,-921.9 749,-900.2 686,-946 675,-1059 711,-1239.5 799,-1487.2 624,-1197.3 507,-964.7 489,-909.9 420,-757 296,-505.9 16,-25.5 624,-1023.8 406,-750.6 208,-522.5 41,-255.8 81,-379.7 211,-588 206,-476.2 358,-863.1 128,-571.8 -97,-312.8 -109,-62.7 -74,-217.2 -2,-509.8 60,-704.2 83,-612.6 h -677 l -62,455.3 -6,29 -120,398.9 -109,136 -10,-6.3 -30,-244.3 62,-455.3 7,-29 119,-398.9 109,-136 10,6.3 30,244.3 h 677 l 25,-187.5 134,-728.2 h -604 l -74,164.6 -60,-31.3 -24,-237.3 24,-29.3 119,27.4 15,105.9 h 604 l 12,-69.4 173,-696.6 42,-134 146,-589.9 120,-722.4 21,-187.7 76,-648.9 80,-536.9 23,-119.9 37,-376.4 30,-704.2 23,-959.6 15,-1142.9 7,-1253.9 1,-1292.7 -1,-64 h -1661 l -39,2734.2 -310,2593 -293,1360.5 -242,959.1 -224,904.2 -174,723.6 -73,313.1 -227,999 -239,1009 -230,929.8 -197,761.5 -143,504.1 -44,126.3 23,383.7 134,173.4 167,386.4 -53,648.3 -252,854.7 -428,1005.6 -581,1101 -712,1141.1 -537,757.6 -430,611 -312,513.2 -132,311.7 v 14.1 l -103,253.4 -76,26.8 -176,169.4 -126,325.4 -192,479.9 -325,585.9 -105,162.1 -308,532.6 -175,452.8 -14,108 -96,369.3 -99,111.3 -209,248.2 -261,454.7 -44,90.2 -288,471 -473.5,635.9 -565.3,677.6 -112.5,125.9 -1120.1,1237.7 -564.3,-2017.5 -438.7,-1449 -411.7,-1122.1 -376,-775.9 -331.7,-410.4 -164.9,-63 -276.4,97.3 -548.8,267.5 -751,401.1 -883.4,498 -368.4,214.5 -1821.4,1055.2 -1552.7,860.5 -1348.3,692.3 -1208.3,550.8 -1132.6,435.9 -1121.4,347.6 -1174.6,286 -1292.1,250.9 -313.6,54.3 -1933.1,246 -2080.3,117.6 -2147.3,-4.7 -2134.1,-120.9 -999.9,-113.2 h -6457.1 l -26.4,2281.7 -17.2,994.9 -26.2,918.2 -31.1,725.5 -25.5,358.9 -73.6,716 -52.3,-31.9 h -1047.7 l -100,100 -100,-100 100,-100 100,100 h 1047.7 l -252.2,-153.5 h -1795.5 l -68.1,40.5 -385.7,-63 -727.6,-171.2 -688.8,-177 -463.1,-143.4 -225.7,-113.8 -2.7,-23.6 218.1,5.2 472.5,90.3 599,143 597.5,163 468.3,150.7 206.3,99.3 H 65464 l -295.5,-179.8 -600.3,-259.1 -599.7,-109.9 -553.6,-55.2 -345,-129.2 -24.5,-54.8 h -2216.8 l -60.1,35.4 -328.7,-99.6 -171.3,-94.3 -160.1,-158.5 60.1,-35.4 328.7,99.6 171.3,94.3 160.1,158.5 h 2216.8 l -47.3,-106.1 231.6,-140.1 203.9,-160.1 h -3651.8 l -196.6,32 -259.4,-36.8 -3.1,-68.2 267.6,-47.8 115.7,32 75.8,88.8 h 3651.8 l 220,-172.8 254.3,-632.6 66.7,-862.1 -86.3,-769.3 -304.6,-1178 -472.8,-969.1 -543.3,-732.9 -515.4,-612.5 1958.2,656.9 1958.1,656.9 h 6457.1 l -1040.7,-117.8 -1867,-335.1 -1613.2,-433 -936.2,-358.6 -717.4,-297.8 -950.5,-360.1 -1034.4,-367 -592,-198.3 -959.4,-333.3 -909.8,-351.7 -735.2,-320 -331.3,-171 -783.6,-363.8 -668.2,-137.8 -497,71.5 -270.1,264.3 12.4,440.7 160,332.1 317.3,550.4 246.4,487.4 1.8,4 281.9,375.7 483,430.9 231,165.4 927,772.3 791.3,1027 467.9,828.9 360.1,939.7 17.7,733.3 -263.2,470.7 -411.2,270.3 -501.3,-3.5 -410.2,-131.2 -379.8,-220 -450.8,-360.6 -440.6,-419.2 -349.3,-395.9 -176.9,-290.7 28.3,-99.5 309,48.2 419.7,212.8 517.1,218 389.4,-56.3 169.6,-313.9 1.3,-41.2 -159.5,-274.6 -495,-300.1 -854.7,-338.6 -541.6,-178.9 -782.8,-147.9 -534,149.5 -311.7,468 -115.9,808 -2.1,128.3 -39.8,428.7 -71.4,196.4 -224.7,-33.9 -505.1,-206.7 -723.6,-345.4 -599.2,-306.3 h -3859.5 l -7.7,53.4 -238.7,-91.4 -408.2,-215.8 -328.8,-198.2 -469,-319.4 -286,-239.6 -41,-64 148,12.8 448.3,251.8 755.3,494.4 142.9,97.2 284.9,218.8 h 3859.5 l -280.9,-143.5 -974.8,-519.9 -1007.6,-555.8 -978.6,-557.4 -461.6,-272.9 h -2535.4 l -100,100 -100,-100 100,-100 100,100 h 2535.4 l -426,-251.8 -734.9,-457.9 -520.3,-356.6 -243.7,-221.2 -10.5,-29.7 -157.9,-177.1 -426.4,-334.8 -100.5,-70.9 h -3553.2 l -192.9,-131.4 -269.1,-268.6 -231,-289.7 -31,-110.3 192.9,131.4 269.1,268.6 231,289.7 31,110.3 h 3553.2 l -522.8,-368.3 -518.7,-343 -261,-188.7 h -3212.7 l -100,100 -100,-100 100,-100 100,100 h 3212.7 l -2677.3,-1936 -2702.6,-2434.3 -2484.7,-2761 -1012,-1300.1 -681.6,-968.7 -677.7,-1060 -635.1,-1079.7 -553.7,-1028.1 -433.6,-905 -274.8,-710.5 -79.6,-398.1 -89.8,-480.5 -229.8,-645.9 -180.4,-392.1 -321.3,-809.7 -167.8,-788.5 -10.9,-202.2 -70.9,-641.6 -175,-540.3 -42.9,-74.7 -242.8,-522.4 -265.7,-809.9 -263,-988.1 -235,-1056.7 -181.5,-1015.9 -102.5,-865.7 -13.7,-356.2 42.2,-841.1 103.5,-1009 137.4,-926.9 148.1,-702.1 212.2,-843.5 252.7,-908.1 269.2,-896 261.9,-807.1 230.7,-641.4 175.8,-399 90.7,-89.2 13.6,232.2 -56,516.1 -106.6,694 -137.9,765.8 -150.3,731.6 -143.4,591.3 -117.5,344.9 -0.6,1.1 -94.3,505.5 63.5,820.8 212.4,1088 352.3,1306.7 354,1104.1 691.3,1747.2 831.9,1636.8 926.5,1453.4 974.8,1197 916.5,824.2 711.3,484.7 662.6,392.5 539.6,262.9 342.3,95.9 82.6,-57.3 104.1,-200.7 219.2,57.4 194.8,264.9 24,74.3 244.5,326.8 236.7,73.2 312.3,78.2 64.4,98.5 163.6,199.1 186.4,84 377.7,128.8 593.7,216.2 432.4,162.5 655.4,192.3 911.9,193.5 1026.3,166.8 637,78.5 981.9,97.2 724.9,39.9 608.4,-27.8 632.2,-106.2 796.4,-195.3 473.5,-126.2 1306.6,-388.7 949.4,-376.6 633.2,-388.5 358.3,-424.4 116.8,-386.6 -16,-231.2 h -1150 l -173,181.6 -436,231.5 -574.7,231.7 -588.9,182.3 -478.7,83.5 -36.4,1 -587.7,4.4 419.3,-390.7 342.3,-197.8 526.8,-184.4 592.2,-145.6 538.7,-81.4 366.1,8.3 90,75.6 h 1150 l -16.2,-233.7 -156.9,-264.6 -552.4,-136.8 -873.1,60.9 -1169.5,254 -1441.8,442.5 -940.1,336.9 -195,68.8 -227.9,63.7 -355.3,80 -576.9,117.9 -697.6,138.7 -672.8,106.6 -537.2,37.5 -226,-24.4 -220.4,-284.9 -172,-640.4 -116.9,-953.5 -55.2,-1224.5 -3.4,-528.7 41.5,-1157.7 129.9,-1144.4 237.2,-1241.6 363.4,-1449.2 216.4,-772.6 292.2,-1169.2 42.8,-329.2 h -1412.7 l -169.2,1052.2 -340.4,837.6 -418.3,1103.5 -267.6,1380 -123.4,1696.2 -9.4,994.4 25.4,993.3 55,892.7 76.3,689.6 82.1,367.6 220.3,543.1 -742.4,-341.9 -583.2,-289.4 -740.9,-395 -560.8,-314 -784.3,-539.5 -788.2,-681.1 -414.8,-437.6 -585.6,-618 -417.3,-267.5 -146.5,0.4 -339.9,-76.5 -469.4,-413.5 -123.8,-141.8 -628.6,-748.7 448.7,-1630.6 287.8,-936.4 337.2,-833.2 445.5,-849.6 612.6,-985.9 346.4,-520.7 778.2,-879.2 936.9,-625.7 1011.8,-339.1 1003.1,-19.4 577.4,161.7 779.4,515.1 473,738.9 156.9,918 h 1412.7 l 68.5,-526.2 -27.1,-436.5 -308.5,-728.3 -598.8,-728.6 -791.3,-633.8 -885.7,-443.5 -31,-10.7 -723.2,-225.3 -533,-83.1 -523.2,50.7 -589.9,147 -733.3,348.7 -831.5,625.1 -851.8,818.7 -794.8,929.3 -659.9,957.2 -447.6,902 -18.7,51.2 -227.1,475.2 -237.1,258.8 -58.2,16 -221.3,172.2 -148.5,377.8 -175.5,835 -130,470.4 -127.4,131.2 -167.3,-182.4 -250.1,-470.4 -106.6,-211.4 -382,-1045.6 -260.6,-1312.4 -136,-1464.2 -8.1,-1500.6 122.9,-1422 257.3,-1227.9 168.1,-477 180.5,-568.5 -47.3,-354.1 -48.8,-70.7 -90.9,-379.4 h -1292 l -100,100 -100,-100 100,-100 100,100 h 1292 l -4.2,-17.8 103.5,-639.4 266.2,-800 392.7,-879.1 483.1,-876.6 537.4,-792.4 512,-585.3 447.2,-469.1 296.8,-381.6 73.3,-162.9 128.8,-339.5 321.1,-473.2 416,-492.7 412.9,-398 312.4,-189.1 30.2,-3.3 355.9,-160.9 98.8,-149 319.7,-355.8 636,-354.4 869.4,-329.7 1019.7,-281.7 1087.1,-210.5 1071.4,-115.8 876.1,-4.3 1052,62.1 -514.9,755.8 -342,590.6 -379.5,787.9 -298.2,721.5 -291.6,716.5 -282.2,594.7 -212.4,345.8 -2.7,2.9 -143,347.5 -95.8,591.4 -45.9,711.7 6.7,708.3 61.8,581.1 119.7,330.5 26.1,22.2 134.8,274 -22.9,123.2 47.9,334.6 138.5,169.7 249.5,386.2 38.6,210 166.2,290.8 436,397.4 612,444.2 694,431 682.1,358.2 576.4,225.4 275.2,46.9 465.4,-83.2 610.8,-213.6 644.4,-290 566,-312.4 376,-280.9 90.2,-149.2 145.6,-253.1 364.2,-385.3 245.5,-217.5 810.5,-695 553,-530 358.1,-439.8 226.1,-424.2 129.1,-382.4 427.4,-902.6 733.2,-902.7 956,-808.8 441.7,-285.3 885,-523.1 1063.7,1189.2 738,946.8 597.2,996.6 202.9,446.2 347,734.5 353.3,505.2 197.2,156.4 290.3,164.3 184.6,230.1 126.4,400.2 115.4,674.5 23.5,159.5 141.7,975.6 -524.9,-484.1 -380.2,-282.1 -262.9,-73.2 -26.3,15.7 -4.2,241.5 111.2,523.2 204.6,711.1 115.3,351.9 274.1,839.5 154.9,625.3 53,571.1 -31.7,676.7 -76.9,744.2 -262.7,1529.8 -407.3,1270.4 -57.7,130.5 -405.5,1161.7 -124.1,956.5 -48.1,671 -177.5,426 -225.4,228.8 -557.2,574.6 -412.3,657.1 -178,593.9 -1.5,47.8 50,278.8 226.9,68.9 373.1,-59 593.2,-199.6 656.7,-326.8 145.8,-89.5 485.9,-294.4 345.1,-173.8 69,-19.4 288.1,-154.4 470.5,-409.1 590.4,-602.1 647.5,-733.8 259,-314.1 637.4,-902.5 717.9,-1212.5 761.1,-1450.2 766.9,-1615.6 735.4,-1708.8 197.4,-491 346.2,-848.7 306.9,-704.1 231.4,-479.7 112.3,-173.1 125.3,-224.2 207.7,-522.3 257.8,-735 200.4,-618.5 270.3,-861.1 232,-737 62,-196.3 h -1369.6 l -100,100 -100,-100 100,-100 100,100 h 1369.6 l 101.4,-320.9 57.2,-179.1 100.3,-324.5 20.4,-75.5 74.9,-225 174.5,-494 236.3,-656.5 1.4,-4 249.5,-765.5 81,-484.8 -75.6,-280.3 -11.8,-15.1 -117.4,-328.7 45.8,-566.7 66.4,-325.2 286.1,-1344.8 176,-1060.6 74,-874.7 -19.8,-786.6 -105.8,-796.8 -7.9,-44.9 -123.6,-735.5 -36.6,-450.4 45.1,-198.1 h -2067.8 l -35.2,210.4 -143.6,-105.7 -119.1,-151.9 -192.5,-324.6 -14.4,-145.4 216.7,-8.1 212,233.2 76.1,292.1 h 2067.8 l 17,-74.8 158.4,-187 h -1236.8 l -100,100 -100,-100 100,-100 100,100 h 1236.8 l 13.5,-16 112.6,-94.2 334.9,-359.8 97.2,-295.4 -169.5,-133.8 -25.5,-0.8 -160.7,-161.6 -28.5,-380.8 97.6,-443.8 141.6,-266.8 172.9,-160.9 214.6,22 348.5,239.5 368.2,311.2 569.1,602.7 536,806.2 516.3,1043.3 509.7,1314 516.6,1618 536.8,1955.7 446.1,1801.7 296.4,1280.9 237.1,1137 185,1065.7 140.3,1067.1 102.7,1140.9 72.5,1287.4 49.4,1506.4 33.6,1798 13,1016.2 11.1,1596.2 -3.2,1519.9 -16.3,1380.3 -28.3,1177 -39.1,910.4 -48.9,580 -5.2,36.2 -114.8,1052.3 33.8,691.5 184.5,342.2 294.6,19.4 369.5,35.4 128.5,181.9 128.1,176.5 270.8,82.3 506.4,1.7 568.4,-41.3 2076.6,-366.3 2101.2,-725.9 1801,-914.7 h -2418.3 l -160,217.3 -167,47.7 -184.6,-134.2 -3.6,-32.5 130.5,-289.8 270.8,-40.3 29.9,16.1 84,215.7 H 87602 l 271.8,-138.1 1991.7,-1346.9 1857.7,-1608.3 1670.8,-1836.8 525.1,-683.1 417.7,-566.8 332.6,-448.2 156,-206.8 492.9,-749.3 440.4,-850.7 h -9290.2 l -100,100 -100,-100 100,-100 100,100 h 9290.2 l 40.6,-78.4 418.3,-987 305.3,-923.1 141.4,-737.4 4.2,-111.7 111.3,-412.8 185.6,-176.1 204.8,-250.7 77.2,-574.5 0.7,-218.5 3.1,-501.5 17.4,-816.3 0.3,-12 h -1000.4 l -100,100 -100,-100 100,-100 100,100 h 1000.4 l 29.1,-1034.4 39,-1191.7 39.3,-1073.9 47.9,-1434.3 16.7,-1118.1 -15.9,-824 H 87017.4 l -53.7,2064.6 -61.6,1514 -71.7,1222 -94.2,1037.8 -129.2,961.7 -176.4,993.5 -236,1133.1 -33.8,154.8 -638.9,2511.4 -803.4,2402.7 -1017.1,2427.7 -968.5,1987.9 -524.6,986.7 -398.7,660.9 -302.3,377.8 -235.4,137.3 -33.7,2.5 -218.8,-41 -92.8,-187.4 9.2,-430.5 41.7,-391.1 112.3,-859.8 139.1,-936.7 55.5,-340.2 137.1,-1246.8 53.2,-1553.4 -26.5,-1776.8 -101.8,-1916.7 -172.8,-1973.2 -239.4,-1946.3 -276.5,-1700.1 -265.4,-1276.8 -365.7,-1538.1 -434.7,-1682.9 -472.6,-1711.3 -479.3,-1623.2 -454.8,-1418.5 -18.4,-54.3 -236,-714.6 -107,-417.4 15.4,-199.4 131.7,-60.4 83,-3.1 562.3,22.9 816.3,63 1000,94.7 1113.4,118 1156.5,132.7 1129.2,139.1 1031.4,137 863.5,126.4 625.1,107.5 316.5,80 23.4,15.9 162.8,505.1 108.6,900.3 54.4,1294.1 0.1,1686.9 H 97425 l -1.2,-60.9 -53.9,-734.5 -93.6,-667 -82.6,-432.6 -158.1,-856.6 -115.6,-804 -50.8,-592.6 -0.7,-50.8 -12.9,-124.6 h -8587.1 l -100,100 -100,-100 100,-100 100,100 h 8587.1 l -58.8,-566 -190.2,-920 -270.9,-1010.4 -314,-961.8 -319.4,-774.2 -31.6,-63.3 -385,-754.75 719.1,-116.7 772,13.02 363.9,162.21 452.4,240.92 304,24.2 70.4,-194.27 -17.7,-55.6 57,-210.56 399.2,-128.15 171.8,-23.67 374.7,-23.22 296,73.12 303.3,228.71 396.1,443.54 406.1,504.5 1051,1434.3 1059,1642.9 959,1677.7 389,757.5 439,925.7 396,915.1 371,955.6 359,1047.3 365,1190.2 386,1384.3 423,1629.5 476,1925.9 462,1926.4 498,2723 230,2777.6 h 1661 l -7,-1195.3 -15,-1153.5 -22,-975.7 -30,-725.6 -30,-350.5 -164,-1030.2 -240,-1297 -294,-1451.7 -323,-1494 -328,-1424 -308,-1241.8 -239,-862.4 -342,-1015.6 -416,-1054.3 -415,-910 -124,-237.2 -337,-645.9 -227,-501.1 -76,-264.4 6,-15.9 232,-9.4 491,81.2 392,91.4 638,208.6 476,304 466,507.3 192,251.6 506,756.9 474,838.9 217,457.9 327,909.4 345,1198 337,1377.8 303,1448.7 245,1410.6 86,612.6 108,825.3 147,1107 170,1274 178,1326.2 104,767.5 170,1313 161,1339.4 137,1248 101,1038.5 37,461.1 37,1270.6 -35,1595 -102,1851.5 -160,2040.4 -213,2161.6 -257,2215 -296,2200.8 -328,2118.7 -353,1969.1 -114,577.3 -239,1173.9 -284,1398.7 -294,1456.3 -271,1346.6 -25,124.5 -382,1791.2 -472,2025.5 -536,2165.2 -576,2210.3 -590,2160.8 -579,2016.7 -544,1778.1 -312,952.2 -227,717.4 -180,652.6 -66,297.3 -152,517 -176,324.3 -132,335.5 34,147.1 7,191.2 -64,17.6 -156,175 -192,446.3 -103,328.7 -200,637.2 -296,850.4 -337,906.5 -93,240.3 -343,885.4 -205,578.7 -73,337.2 49,161 163,49.7 147,3.6 374,-166.4 460,-448.3 184,-235.3 401,-582.5 454,-709.3 457,-748.4 407,-700.1 167,-309.7 h -902 l -100,100 -100,-100 100,-100 100,100 h 902 l 138,-254.7 65,-145.3 h -905 l -100,100 -100,-100 100,-100 100,100 h 905 l 87,-195.8 8,-42.7 64,-161.5 h -864 l -100,100 -100,-100 100,-100 100,100 h 864 l 39,-96.4 259,-441.2 109,-166 157,-261.4 h -1043 l -110,357.3 -148,230.3 -71,1 12,-223.7 107,-234.9 177,-235 33,105 h 1043 l 187,-312.1 57,-122.9 h -1072 l -100,100 -100,-100 100,-100 100,100 h 1072 l 192,-410.3 31,-89.7 220,-508 193,-292 191,-339.2 243,-592.4 226,-668.4 469,-1540.1 366,-1222.6 281,-969 213,-779.4 162,-653.6 130,-591.8 89,-452.6 159,-821.1 214,-1060.7 236,-1149.1 181,-860 245,-1224.8 248,-1364.2 216,-1303 19,-124.5 h -664 l -48,538.9 -98,759.6 -134,894 -156,942.4 -167,904.8 -163,781.1 -71,295.7 -246,1010.4 -245,1066.9 -225,1037.1 -188,921.2 -132,719.1 -58,430.6 -1,36.8 -104,474.9 -170,360 -209,456.6 -219,652.7 -90,333.7 -175,663.9 -167,554.6 -65,181.5 -184,470.6 -220,574 -2,5.4 -206,495.9 -103,110.7 -5,-276 54,-430.6 29,-138.4 h -607 l -73,494.4 -84,394 -178,646.3 -118,264.7 -43,-100.6 49,-449.9 105,-545.1 140,-557.7 126,-334.6 61,-47.7 15,236.2 h 607 l 97,-471 130,-494 h -488 l -31,153.4 -142,263.2 -52,36.8 -70,-163.3 -8,-136.7 104,-266.2 89,-33.8 110,146.6 h 488 l 77,-289.1 170,-557.5 313,-992.8 81,-273.6 h -650 l -35,376.1 -104,361.2 -122,186.3 -40,-8.6 3,-217.9 102,-430.1 3,-10.7 122,-307.8 68,17.1 3,34.4 h 650 l 217,-730.8 250,-902.7 172,-687.9 43,-212.2 73,-372.5 h -646 l -5,322.1 -54,482.5 -87,255.4 -23,12.1 -116,175.2 -130,434.4 -30,140.8 -109,424.5 -92,151.3 -20,-25.8 16,-281.3 113,-543.6 183,-675.1 197,-640.5 113,-281.6 44,49.6 h 646 l 68,-343.5 83,-384 h -538 l -74,164.6 -60,-31.3 -24,-237.3 24,-29.3 119,27.4 15,105.9 h 538 l 123,-567 76,-333 h -537 l -100,100 -100,-100 100,-100 100,100 h 537 l 161,-700 h -498 l -74,164.6 -60,-31.3 -24,-237.3 24,-29.3 119,27.4 15,105.9 h 498 v -0.8 l 234,-964.5 165,-634.7 190,-759.1 214,-952.8 194,-946.3 8,-41.8 202,-1050.5 145,-714.6 103,-436.2 73,-215.3 60,-52.1 31,19.9 15,232.3 h 664 l 86,-583.5 59,-416.7 h -557 l -37,259.4 -68,3.1 -48,-267.6 32,-115.7 89,-75.8 32,196.6 h 557 l 55,-383.3 h -1196 l -100,100 -100,-100 100,-100 100,100 h 1196 l 52,-366.6 93,-633.4 h -1141 l -100,100 -100,-100 100,-100 100,100 h 1141 l 95,-643.5 54,-356.5 h -1090 l -100,100 -100,-100 100,-100 100,100 h 1090 l 126,-826.2 27,-173.8 h -443 l -100,100 -100,-100 100,-100 100,100 h 443 l 47,-300 42,-300 h -532 l -100,100 -100,-100 100,-100 100,100 h 532 l 117,-856.5 49,-443.5 h -530 l -32,283.9 -69,-33.9 -26,-409.5 26,-90.5 73,-25.1 28,275.1 h 530 l 116,-1058.7 167,-1793.7 167,-2030.9 161,-2214.1 153,-2343 141,-2417.7 125,-2438.2 106,-2404.6 82,-2316.7 20,-682.4 43,-1337.8 49,-990.4 58,-695.5 75,-453 97,-263.1 84,-99.9 195,-289.3 3,-485.8 -38,-224.9 -125,-685.6 -107,-636.6 -6,-38.1 -109,-555.3 -172,-715.9 -35,-128.8 h -1148 l -100,100 -100,-100 100,-100 100,100 h 1148 l -53,-200 -610,-2171.2 -543,-1878.1 -466,-1552.6 -354,-1119.7 -224,-771 -143,-666.1 -35,-438.4 8,-51.2 -37,-439.7 -241,-586.2 -88,-152.5 -371,-635.5 -333,-612.3 -63,-125.5 -306,-476.3 -476,-593.3 -372,-404.6 -131,-125.8 h -3910 l -100,100 -100,-100 100,-100 100,100 h 3910 l -374,-361 -370,-246.5 -360,-66.8 -365,34.8 -591,22 -796,-51.9 -706,-95.9 -1352,-234.7 -998,-1782 -422,-789.5 -334,-692.9 -202,-502.56 -40,-179.33 -105,-395.55 -341,-377.29 -620,-388.34 -943,-428.72 -725.4,-283.8 -1163.2,-330.83 -1152.4,-137.32 -1065.3,47.92 -901.7,224.9 -662.1,393.64 -277.7,366.92 -118.4,332.68 -26.8,390.09 70.9,552.96 174.4,821.23 23.9,103 198.3,874.3 178,822 124.7,617.6 16.7,90.9 132.7,750 h -2419 l -1214.9,-18.5 -877.2,-59.4 -600,-106.5 -305.6,-114.9 -475.1,-170 -226.7,70 -290.3,132.6 -611.6,56 -862.2,-19.1 -1041.8,-92.7 -1117.5,-159.2 -1013.9,-155.9 -1084.7,-144 -930.5,-102.4 -47.1,-4.3 -889.5,-86 -1077.9,-113.9 -1057.9,-119.6 -174.7,-20.7 -863.4,-111.7 -560.3,-108.8 -352,-142 -238.8,-211.3 -185.5,-262.1 -446.7,-537.1 -563.7,-492.8 -69.2,-48.2 -373.9,-293.9 -48.9,-150.2 72.8,-13.4 283.7,-147.7 45.9,-152.3 -174.1,-202.07 -448.6,-93.45 -612,16.25 -664.6,127.01 -378.6,130.15 -419.8,222.31 -219.9,303.2 -111.8,528.3 -18.6,156.1 -84.1,575 -92.7,389 -38.8,78.5 -222.6,13.4 -562.1,-23.6 -843.1,-56.7 -1065.8,-85.5 -1230.1,-110.3 -607.7,-58.2 -1305.7,-120.6 -1186.6,-97 -1004.6,-69.2 -759.5,-37.2 -451.7,-1.2 -83.4,11.5 -359.4,31.8 -640.7,-16.4 -806.4,-60.1 -335.6,-34.6 -873.1,-88.7 -1136.8,-103.6 -1265.3,-106.6 -1258.4,-97.9 -237.8,-17.5 -1283.3,-96.3 -1525.3,-119.9 -1611,-130.7 -1540.2,-129.1 -640.2,-55.1 -1340.5,-116.2 -1373.1,-117.7 -1286.8,-109.2 -1081.4,-90.5 -518.2,-42.52 -2115.8,-180.13 -1921.6,-180.53 -1690.9,-176.72 -1423.8,-168.7 -1120.3,-156.47 -780.2,-140.03 -300.1,-77.72 -778.3,-219.18 -815.4,-177.51 -119.8,-20.32 -620.3,-193.3 -640.4,-344.76 -551,-418.12 -351.9,-413.37 -70.2,-222.57 181.9,-193.15 476.3,-152.3 666.5,-104.9 752.7,-50.91 734.6,9.64 612.4,76.77 386.1,150.46 25.2,22.37 569.6,342.58 881.9,252.12 1115.7,156.47 1270.8,55.64 1347.5,-50.4 1345.5,-161.63 633.3,-121.02 725.4,-124.8 1015.9,-129.73 1197.4,-122.95 1269.6,-104.41 691.7,-45.39 1289.2,-89.03 1302.4,-112.54 1198,-124.39 976.2,-124.55 375.7,-60.04 1567.2,-232.38 1364.4,-146.88 h -5560.9 l -276.5,31.56 -135.7,1.94 -363.9,-20.85 -42.8,-51.92 56.7,-18.7 507.2,-31.1 192.8,31.1 62.2,57.97 h 5560.9 l 558.2,-60.09 964.8,-77.85 H 41968.5 l -700,82.06 -591.5,30.35 -867.4,-2.74 -1020.6,-31.28 -1051.4,-55.26 -959.9,-74.7 -467.6,-50.58 -991.4,-321.92 -563.1,-396.23 -427,-415.25 -173,-341.23 12.7,-429.94 25.9,-150.06 380.2,-983.72 740.2,-899.77 1040.5,-756.866 723.9,-359.138 679.9,-175.837 852.7,-48.133 18.3,-0.039 908.2,40.333 848.3,110.646 699.4,161.374 461.3,192.514 138.2,166.999 18.1,281.497 36.1,589.93 48.7,807.48 47.1,788.43 133.2,2241.08 h 14196.1 l 1269.5,-102.45 2502.1,-152.34 2726.2,-123.12 2906.4,-92.62 3042.8,-60.84 3135.3,-27.79 3184.2,6.53 3189.1,42.13 3150.3,79 1398,48.1 3098.5,115.86 2724,101.07 2375.1,86.88 2051.4,73.28 1753.1,60.27 1480,47.86 1232.4,36.03 1010.1,24.81 813.2,14.18 641.5,4.13 495.2,-5.31 374,-14.17 279,-22.43 208,-30.1 164,-37.18 56,-16.11 552,-139.25 795,-170.07 889,-169.04 209,-36.66 1396,-261.44 1328,-287.29 1203,-297.34 1022,-291.57 783,-270 490,-232.64 142,-146.34 -37,-284.99 -94,-51.2 -115,-158.89 24,-241.11 12,-250.61 -161,-122.92 -382,6.82 -652,138.61 -973,272.44 -177,52.92 -813,215.28 -713,139.01 -494,40.97 -95,-11.86 -319,-247.83 -393,-560.63 -431,-801.81 -433,-971.383 -399,-1069.32 -218,-693.337 -338,-1163.65 828,-1678.88 537,-1002.01 655,-1099.05 643,-979.73 83,-117.72 476,-682.13 371,-567.35 213,-370.4 31,-87.58 136,-184.27 33,-3.58 178,-165.53 248,-416.88 105,-217.59 243,-484.9 191,-284.2 47,-30.9 121,-169.8 171,-413.5 172,-513.7 124,-470.2 31,-229.7 -111,-232.8 -254,-325.3 -284,-291.5 -201,-131.4 z"
       id="path668" />
    <path
       style="fill:#000000;fill-opacity:1;fill-rule:evenodd;stroke:#000000;stroke-width:3.93701;stroke-linecap:round;stroke-linejoin:round;stroke-opacity:1"
       d="m 58178.8,28745.2 -0.1,0.4 -116.3,449.1 -134.5,746.1 -138.3,941.3 -127.5,1034.7 -102.4,1026.5 -28.6,356.7 -70.1,717.2 -86.2,554.4 -84,275.4 -3,3.5 -230.3,-13.9 -411.2,-213.8 -177.1,-122.3 -477.4,-313.4 -367.5,-174.3 -70.4,-12.8 -260.8,-191 -236.2,-537.4 -192.8,-830.1 -89.9,-643.2 -98,-665 -120,-522 -74.7,-190.3 -286.7,-177.5 -535,-138.7 -320,-40.5 -507.9,-29.9 -356,54.2 -315.9,198.8 -387.1,403.9 -354.4,415 -468.8,612.6 -339.4,554.8 -141.1,383.4 -0.7,17.6 -100.5,464.2 -136.2,217.8 -140.2,266.7 32.3,98.7 311.1,138 587.2,136.2 739.8,113.4 769.2,69.8 351,11.8 631.5,58 501.9,212.5 559.2,447 7.4,6.7 545.1,476.7 499.9,405.7 189.6,139.4 316.8,314.8 -63,227.1 -427.3,113 -216.1,7.8 -535.5,66.4 -716.2,170.6 -486.5,151.6 -862.7,249.6 -934.1,197.6 -424.8,61.1 -668.1,100.6 -403.5,163.2 -274.2,293.8 -104.2,170 -235.4,458.7 -112,313.4 -1.5,19.6 180.6,90.6 467.9,51.5 644,10.2 709,-33.3 598.5,-68.3 1206,-230.3 1131,-289.9 952,-318.8 669.2,-316.8 52.6,-33.9 524.9,-300.1 441.5,-165.7 92.6,-11.4 410.2,-146.5 430.8,-354.7 332.3,-435.8 114.8,-389.7 -7.4,-40.8 -10.6,-357.3 55.6,-622.8 110,-761.6 16.7,-97 123.9,-914.8 87.4,-1059.5 47.6,-1091.6 4.6,-1011.5 -41.5,-819 -70.3,-447.4 -219.8,-372.6 -294.3,-40.4 z"
       id="path670" />
    <path
       style="fill:#000000;fill-opacity:1;fill-rule:evenodd;stroke:#000000;stroke-width:3.93701;stroke-linecap:round;stroke-linejoin:round;stroke-opacity:1"
       d="m 44071,32947 -527.4,395 -607.1,574.2 -628.6,684.3 -592.3,725.7 -497.9,697.9 -345.7,601.5 -135.3,435.9 28.1,132.5 111.4,116.7 205.8,51.3 384.5,-13.9 647.6,-79.1 508.1,-72.6 880.7,-198.2 561.6,-281.9 203.8,-345.9 0.2,-11.2 95,-258.2 249.1,-493.9 349.7,-623.6 6.2,-10.6 352.9,-640.9 251.5,-530.7 95.6,-305 -177.2,-328.8 -441,-258.3 -568.2,-109 -21.3,-0.2 z"
       id="path672" />
  </g>
  <g
     style="fill:#000000; fill-opacity:1.0;  stroke:#000000; stroke-width:118.11; stroke-opacity:1;  stroke-linecap:round; stroke-linejoin:round;"
     id="g844" />
  <g
     style="fill:#000000; fill-opacity:0.0;  stroke:#000000; stroke-width:393.701; stroke-opacity:1;  stroke-linecap:round; stroke-linejoin:round;"
     id="g2460" />
  <metadata
     id="metadata3805">
    <rdf:RDF>
      <cc:Work
         rdf:about="">
        <dc:title>SVG Picture created as yaohkib - lefft-B_SilkS.svg date 2021/10/26 19:09:53 </dc:title>
      </cc:Work>
    </rdf:RDF>
  </metadata>
</svg>
