<?xml version="1.0"?>
<!-- Generated by SVGo -->
<svg width="276.702mm" height="105.252mm"
     viewBox="0.000 0.000 276.702 105.252"
     xmlns="http://www.w3.org/2000/svg" 
     xmlns:xlink="http://www.w3.org/1999/xlink">
<polygon points="271.702,100.252 5.001,100.252 5.001,5.001 271.702,5.001" style="fill:none;stroke-width:0.050000mm;stroke:black"/>
<polygon points="112.301,83.726 112.301,84.326 111.501,84.326 111.501,97.126 112.301,97.126 112.301,97.726 126.301,97.726 126.301,97.126 127.101,97.126 127.101,84.326 126.301,84.326 126.301,83.726" style="fill:none;stroke-width:0.050000mm;stroke:black"/>
<polygon points="150.401,83.726 150.401,84.326 149.601,84.326 149.601,97.126 150.401,97.126 150.401,97.726 164.401,97.726 164.401,97.126 165.201,97.126 165.201,84.326 164.401,84.326 164.401,83.726" style="fill:none;stroke-width:0.050000mm;stroke:black"/>
<polygon points="93.251,78.963 93.251,79.563 92.451,79.563 92.451,92.363 93.251,92.363 93.251,92.963 107.251,92.963 107.251,92.363 108.051,92.363 108.051,79.563 107.251,79.563 107.251,78.963" style="fill:none;stroke-width:0.050000mm;stroke:black"/>
<polygon points="169.451,78.963 169.451,79.563 168.651,79.563 168.651,92.363 169.451,92.363 169.451,92.963 183.451,92.963 183.451,92.363 184.251,92.363 184.251,79.563 183.451,79.563 183.451,78.963" style="fill:none;stroke-width:0.050000mm;stroke:black"/>
<polygon points="74.201,74.201 74.201,74.801 73.401,74.801 73.401,87.601 74.201,87.601 74.201,88.201 88.201,88.201 88.201,87.601 89.001,87.601 89.001,74.801 88.201,74.801 88.201,74.201" style="fill:none;stroke-width:0.050000mm;stroke:black"/>
<polygon points="188.501,74.201 188.501,74.801 187.701,74.801 187.701,87.601 188.501,87.601 188.501,88.201 202.501,88.201 202.501,87.601 203.301,87.601 203.301,74.801 202.501,74.801 202.501,74.201" style="fill:none;stroke-width:0.050000mm;stroke:black"/>
<polygon points="7.526,59.913 7.526,60.513 6.726,60.513 6.726,73.313 7.526,73.313 7.526,73.913 21.526,73.913 21.526,73.313 22.326,73.313 22.326,60.513 21.526,60.513 21.526,59.913" style="fill:none;stroke-width:0.050000mm;stroke:black"/>
<polygon points="255.176,59.913 255.176,60.513 254.376,60.513 254.376,73.313 255.176,73.313 255.176,73.913 269.176,73.913 269.176,73.313 269.976,73.313 269.976,60.513 269.176,60.513 269.176,59.913" style="fill:none;stroke-width:0.050000mm;stroke:black"/>
<polygon points="26.576,55.151 26.576,55.751 25.776,55.751 25.776,68.551 26.576,68.551 26.576,69.151 40.576,69.151 40.576,68.551 41.376,68.551 41.376,55.751 40.576,55.751 40.576,55.151" style="fill:none;stroke-width:0.050000mm;stroke:black"/>
<polygon points="102.776,55.151 102.776,55.751 101.976,55.751 101.976,68.551 102.776,68.551 102.776,69.151 116.776,69.151 116.776,68.551 117.576,68.551 117.576,55.751 116.776,55.751 116.776,55.151" style="fill:none;stroke-width:0.050000mm;stroke:black"/>
<polygon points="159.926,55.151 159.926,55.751 159.126,55.751 159.126,68.551 159.926,68.551 159.926,69.151 173.926,69.151 173.926,68.551 174.726,68.551 174.726,55.751 173.926,55.751 173.926,55.151" style="fill:none;stroke-width:0.050000mm;stroke:black"/>
<polygon points="236.126,55.151 236.126,55.751 235.326,55.751 235.326,68.551 236.126,68.551 236.126,69.151 250.126,69.151 250.126,68.551 250.926,68.551 250.926,55.751 250.126,55.751 250.126,55.151" style="fill:none;stroke-width:0.050000mm;stroke:black"/>
<polygon points="45.626,50.388 45.626,50.988 44.826,50.988 44.826,63.788 45.626,63.788 45.626,64.388 59.626,64.388 59.626,63.788 60.426,63.788 60.426,50.988 59.626,50.988 59.626,50.388" style="fill:none;stroke-width:0.050000mm;stroke:black"/>
<polygon points="83.726,50.388 83.726,50.988 82.926,50.988 82.926,63.788 83.726,63.788 83.726,64.388 97.726,64.388 97.726,63.788 98.525,63.788 98.525,50.988 97.726,50.988 97.726,50.388" style="fill:none;stroke-width:0.050000mm;stroke:black"/>
<polygon points="178.976,50.388 178.976,50.988 178.176,50.988 178.176,63.788 178.976,63.788 178.976,64.388 192.976,64.388 192.976,63.788 193.776,63.788 193.776,50.988 192.976,50.988 192.976,50.388" style="fill:none;stroke-width:0.050000mm;stroke:black"/>
<polygon points="217.076,50.388 217.076,50.988 216.276,50.988 216.276,63.788 217.076,63.788 217.076,64.388 231.076,64.388 231.076,63.788 231.876,63.788 231.876,50.988 231.076,50.988 231.076,50.388" style="fill:none;stroke-width:0.050000mm;stroke:black"/>
<polygon points="64.676,45.626 64.676,46.226 63.876,46.226 63.876,59.026 64.676,59.026 64.676,59.626 78.676,59.626 78.676,59.026 79.476,59.026 79.476,46.226 78.676,46.226 78.676,45.626" style="fill:none;stroke-width:0.050000mm;stroke:black"/>
<polygon points="198.026,45.626 198.026,46.226 197.226,46.226 197.226,59.026 198.026,59.026 198.026,59.626 212.026,59.626 212.026,59.026 212.826,59.026 212.826,46.226 212.026,46.226 212.026,45.626" style="fill:none;stroke-width:0.050000mm;stroke:black"/>
<polygon points="7.526,40.863 7.526,41.463 6.726,41.463 6.726,54.263 7.526,54.263 7.526,54.863 21.526,54.863 21.526,54.263 22.326,54.263 22.326,41.463 21.526,41.463 21.526,40.863" style="fill:none;stroke-width:0.050000mm;stroke:black"/>
<polygon points="255.176,40.863 255.176,41.463 254.376,41.463 254.376,54.263 255.176,54.263 255.176,54.863 269.176,54.863 269.176,54.263 269.976,54.263 269.976,41.463 269.176,41.463 269.176,40.863" style="fill:none;stroke-width:0.050000mm;stroke:black"/>
<polygon points="26.576,36.101 26.576,36.701 25.776,36.701 25.776,49.501 26.576,49.501 26.576,50.101 40.576,50.101 40.576,49.501 41.376,49.501 41.376,36.701 40.576,36.701 40.576,36.101" style="fill:none;stroke-width:0.050000mm;stroke:black"/>
<polygon points="102.776,36.101 102.776,36.701 101.976,36.701 101.976,49.501 102.776,49.501 102.776,50.101 116.776,50.101 116.776,49.501 117.576,49.501 117.576,36.701 116.776,36.701 116.776,36.101" style="fill:none;stroke-width:0.050000mm;stroke:black"/>
<polygon points="159.926,36.101 159.926,36.701 159.126,36.701 159.126,49.501 159.926,49.501 159.926,50.101 173.926,50.101 173.926,49.501 174.726,49.501 174.726,36.701 173.926,36.701 173.926,36.101" style="fill:none;stroke-width:0.050000mm;stroke:black"/>
<polygon points="236.126,36.101 236.126,36.701 235.326,36.701 235.326,49.501 236.126,49.501 236.126,50.101 250.126,50.101 250.126,49.501 250.926,49.501 250.926,36.701 250.126,36.701 250.126,36.101" style="fill:none;stroke-width:0.050000mm;stroke:black"/>
<polygon points="45.626,31.338 45.626,31.938 44.826,31.938 44.826,44.738 45.626,44.738 45.626,45.338 59.626,45.338 59.626,44.738 60.426,44.738 60.426,31.938 59.626,31.938 59.626,31.338" style="fill:none;stroke-width:0.050000mm;stroke:black"/>
<polygon points="83.726,31.338 83.726,31.938 82.926,31.938 82.926,44.738 83.726,44.738 83.726,45.338 97.726,45.338 97.726,44.738 98.525,44.738 98.525,31.938 97.726,31.938 97.726,31.338" style="fill:none;stroke-width:0.050000mm;stroke:black"/>
<polygon points="178.976,31.338 178.976,31.938 178.176,31.938 178.176,44.738 178.976,44.738 178.976,45.338 192.976,45.338 192.976,44.738 193.776,44.738 193.776,31.938 192.976,31.938 192.976,31.338" style="fill:none;stroke-width:0.050000mm;stroke:black"/>
<polygon points="217.076,31.338 217.076,31.938 216.276,31.938 216.276,44.738 217.076,44.738 217.076,45.338 231.076,45.338 231.076,44.738 231.876,44.738 231.876,31.938 231.076,31.938 231.076,31.338" style="fill:none;stroke-width:0.050000mm;stroke:black"/>
<polygon points="64.676,26.576 64.676,27.176 63.876,27.176 63.876,39.976 64.676,39.976 64.676,40.576 78.676,40.576 78.676,39.976 79.476,39.976 79.476,27.176 78.676,27.176 78.676,26.576" style="fill:none;stroke-width:0.050000mm;stroke:black"/>
<polygon points="198.026,26.576 198.026,27.176 197.226,27.176 197.226,39.976 198.026,39.976 198.026,40.576 212.026,40.576 212.026,39.976 212.826,39.976 212.826,27.176 212.026,27.176 212.026,26.576" style="fill:none;stroke-width:0.050000mm;stroke:black"/>
<polygon points="7.526,21.813 7.526,22.413 6.726,22.413 6.726,35.213 7.526,35.213 7.526,35.813 21.526,35.813 21.526,35.213 22.326,35.213 22.326,22.413 21.526,22.413 21.526,21.813" style="fill:none;stroke-width:0.050000mm;stroke:black"/>
<polygon points="255.176,21.813 255.176,22.413 254.376,22.413 254.376,35.213 255.176,35.213 255.176,35.813 269.176,35.813 269.176,35.213 269.976,35.213 269.976,22.413 269.176,22.413 269.176,21.813" style="fill:none;stroke-width:0.050000mm;stroke:black"/>
<polygon points="26.576,17.051 26.576,17.651 25.776,17.651 25.776,30.451 26.576,30.451 26.576,31.051 40.576,31.051 40.576,30.451 41.376,30.451 41.376,17.651 40.576,17.651 40.576,17.051" style="fill:none;stroke-width:0.050000mm;stroke:black"/>
<polygon points="102.776,17.051 102.776,17.651 101.976,17.651 101.976,30.451 102.776,30.451 102.776,31.051 116.776,31.051 116.776,30.451 117.576,30.451 117.576,17.651 116.776,17.651 116.776,17.051" style="fill:none;stroke-width:0.050000mm;stroke:black"/>
<polygon points="159.926,17.051 159.926,17.651 159.126,17.651 159.126,30.451 159.926,30.451 159.926,31.051 173.926,31.051 173.926,30.451 174.726,30.451 174.726,17.651 173.926,17.651 173.926,17.051" style="fill:none;stroke-width:0.050000mm;stroke:black"/>
<polygon points="236.126,17.051 236.126,17.651 235.326,17.651 235.326,30.451 236.126,30.451 236.126,31.051 250.126,31.051 250.126,30.451 250.926,30.451 250.926,17.651 250.126,17.651 250.126,17.051" style="fill:none;stroke-width:0.050000mm;stroke:black"/>
<polygon points="45.626,12.288 45.626,12.888 44.826,12.888 44.826,25.688 45.626,25.688 45.626,26.288 59.626,26.288 59.626,25.688 60.426,25.688 60.426,12.888 59.626,12.888 59.626,12.288" style="fill:none;stroke-width:0.050000mm;stroke:black"/>
<polygon points="83.726,12.288 83.726,12.888 82.926,12.888 82.926,25.688 83.726,25.688 83.726,26.288 97.726,26.288 97.726,25.688 98.525,25.688 98.525,12.888 97.726,12.888 97.726,12.288" style="fill:none;stroke-width:0.050000mm;stroke:black"/>
<polygon points="178.976,12.288 178.976,12.888 178.176,12.888 178.176,25.688 178.976,25.688 178.976,26.288 192.976,26.288 192.976,25.688 193.776,25.688 193.776,12.888 192.976,12.888 192.976,12.288" style="fill:none;stroke-width:0.050000mm;stroke:black"/>
<polygon points="217.076,12.288 217.076,12.888 216.276,12.888 216.276,25.688 217.076,25.688 217.076,26.288 231.076,26.288 231.076,25.688 231.876,25.688 231.876,12.888 231.076,12.888 231.076,12.288" style="fill:none;stroke-width:0.050000mm;stroke:black"/>
<polygon points="64.676,7.526 64.676,8.126 63.876,8.126 63.876,20.926 64.676,20.926 64.676,21.526 78.676,21.526 78.676,20.926 79.476,20.926 79.476,8.126 78.676,8.126 78.676,7.526" style="fill:none;stroke-width:0.050000mm;stroke:black"/>
<polygon points="198.026,7.526 198.026,8.126 197.226,8.126 197.226,20.926 198.026,20.926 198.026,21.526 212.026,21.526 212.026,20.926 212.826,20.926 212.826,8.126 212.026,8.126 212.026,7.526" style="fill:none;stroke-width:0.050000mm;stroke:black"/>
</svg>
