<svg xmlns="http://www.w3.org/2000/svg" xmlns:xlink="http://www.w3.org/1999/xlink" width="829pt" height="754pt" viewBox="0 0 829.35 754.4"><g id="graph0" class="graph" transform="scale(1 1) rotate(0) translate(4 750.4)"><title>%0</title><polygon fill="#fff" stroke="transparent" points="-4 4 -4 -750.4 825.349 -750.4 825.349 4 -4 4"/><g id="node1" class="node"><title>IDLE</title><ellipse cx="492" cy="-728.4" fill="none" stroke="#000" rx="33.043" ry="18"/><text x="492" y="-724.2" fill="#000" font-family="Times,serif" font-size="14" text-anchor="middle">IDLE</text></g><g id="node2" class="node"><title>READY</title><ellipse cx="404" cy="-639.6" fill="none" stroke="#000" rx="44.081" ry="18"/><text x="404" y="-635.4" fill="#000" font-family="Times,serif" font-size="14" text-anchor="middle">READY</text></g><g id="edge12" class="edge"><title>IDLE-&gt;READY</title><path fill="none" stroke="orange" d="M487.6897,-710.0931C484.347,-699.0742 478.772,-685.3407 470,-675.6 463.1872,-668.0349 454.3989,-661.7377 445.4714,-656.6382"/><polygon fill="orange" stroke="orange" points="447.043 -653.51 436.565 -651.935 443.774 -659.7 447.043 -653.51"/><text x="524.317" y="-679.8" fill="#000" font-family="Times,serif" font-size="14" text-anchor="middle">all keys pressed</text></g><g id="edge8" class="edge"><title>READY-&gt;IDLE</title><path fill="none" stroke="red" d="M383.1899,-655.7528C371.9777,-666.4401 362.0803,-680.6044 370.88,-692.4 380.5143,-705.3144 418.9714,-715.2612 450.0017,-721.3939"/><polygon fill="red" stroke="red" points="449.711 -724.901 460.188 -723.326 451.016 -718.024 449.711 -724.901"/><text x="420.56" y="-679.8" fill="#000" font-family="Times,serif" font-size="14" text-anchor="middle">superchord active</text></g><g id="node3" class="node"><title>ACTIVATED</title><ellipse cx="404" cy="-550.8" fill="none" stroke="#000" rx="66.051" ry="18"/><text x="404" y="-546.6" fill="#000" font-family="Times,serif" font-size="14" text-anchor="middle">ACTIVATED</text></g><g id="edge15" class="edge"><title>READY-&gt;ACTIVATED</title><path fill="none" stroke="orange" d="M404,-621.2006C404,-609.0949 404,-593.0076 404,-579.2674"/><polygon fill="orange" stroke="orange" points="407.5 -578.872 404 -568.872 400.5 -578.872 407.5 -578.872"/><text x="436.461" y="-591" fill="#000" font-family="Times,serif" font-size="14" text-anchor="middle">chord timer</text></g><g id="node4" class="node"><title>DEACTIVATED</title><ellipse cx="301" cy="-284.4" fill="none" stroke="#000" rx="79.292" ry="18"/><text x="301" y="-280.2" fill="#000" font-family="Times,serif" font-size="14" text-anchor="middle">DEACTIVATED</text></g><g id="edge19" class="edge"><title>ACTIVATED-&gt;DEACTIVATED</title><path fill="none" stroke="#a020f0" d="M414.457,-532.6765C417.1337,-527.1214 419.6389,-520.8699 421,-514.8 426.1765,-491.7151 456.5634,-425.2497 416,-355.2 402.3607,-331.646 377.4429,-314.8951 354.2805,-303.6207"/><polygon fill="#a020f0" stroke="#a020f0" points="355.726 -300.433 345.18 -299.417 352.791 -306.788 355.726 -300.433"/><text x="468.488" y="-413.4" fill="#000" font-family="Times,serif" font-size="14" text-anchor="middle">a key lifted</text></g><g id="node5" class="node"><title>PRESS_FROM_ACTIVE</title><ellipse cx="279" cy="-462" fill="none" stroke="#000" rx="111.797" ry="18"/><text x="279" y="-457.8" fill="#000" font-family="Times,serif" font-size="14" text-anchor="middle">PRESS_FROM_ACTIVE</text></g><g id="edge5" class="edge"><title>ACTIVATED-&gt;PRESS_FROM_ACTIVE</title><path fill="none" stroke="#0f0" d="M381.0189,-533.8085C363.6663,-521.0049 341.3076,-504.5706 332,-498 326.1999,-493.9054 319.9973,-489.6147 313.9535,-485.4802"/><polygon fill="#0f0" stroke="#0f0" points="315.514 -482.308 305.278 -479.575 311.575 -488.095 315.514 -482.308"/><text x="387.845" y="-502.2" fill="#000" font-family="Times,serif" font-size="14" text-anchor="middle">dance timer</text></g><g id="edge17" class="edge"><title>ACTIVATED-&gt;PRESS_FROM_ACTIVE</title><path fill="none" stroke="orange" d="M346.8191,-541.6158C317.1162,-535.5544 285.1886,-526.5544 276.2896,-514.8 271.0903,-507.9325 270.0671,-499.0047 270.857,-490.45"/><polygon fill="orange" stroke="orange" points="274.346 -490.807 272.561 -480.364 267.444 -489.641 274.346 -490.807"/><text x="302.855" y="-502.2" fill="#000" font-family="Times,serif" font-size="14" text-anchor="middle">lock next</text></g><g id="node7" class="node"><title>IDLE_IN_DANCE</title><ellipse cx="293" cy="-195.6" fill="none" stroke="#000" rx="86.237" ry="18"/><text x="293" y="-191.4" fill="#000" font-family="Times,serif" font-size="14" text-anchor="middle">IDLE_IN_DANCE</text></g><g id="edge3" class="edge"><title>DEACTIVATED-&gt;IDLE_IN_DANCE</title><path fill="none" stroke="#000" d="M299.3424,-266.0006C298.241,-253.775 296.7738,-237.4887 295.5279,-223.6599"/><polygon fill="#000" stroke="#000" points="299.011 -223.318 294.628 -213.672 292.04 -223.946 299.011 -223.318"/></g><g id="node6" class="node"><title>FINISHED_FROM_ACTIVE</title><ellipse cx="280" cy="-373.2" fill="none" stroke="#000" rx="127.367" ry="18"/><text x="280" y="-369" fill="#000" font-family="Times,serif" font-size="14" text-anchor="middle">FINISHED_FROM_ACTIVE</text></g><g id="edge7" class="edge"><title>PRESS_FROM_ACTIVE-&gt;FINISHED_FROM_ACTIVE</title><path fill="none" stroke="#0f0" d="M279.2072,-443.6006C279.3435,-431.4949 279.5247,-415.4076 279.6794,-401.6674"/><polygon fill="#0f0" stroke="#0f0" points="283.184 -401.311 279.796 -391.272 276.184 -401.232 283.184 -401.311"/><text x="312.845" y="-413.4" fill="#000" font-family="Times,serif" font-size="14" text-anchor="middle">dance timer</text></g><g id="node10" class="node"><title>LOCKED</title><ellipse cx="84" cy="-373.2" fill="none" stroke="#000" rx="50.38" ry="18"/><text x="84" y="-369" fill="#000" font-family="Times,serif" font-size="14" text-anchor="middle">LOCKED</text></g><g id="edge18" class="edge"><title>PRESS_FROM_ACTIVE-&gt;LOCKED</title><path fill="none" stroke="orange" d="M241.402,-444.8785C207.8161,-429.584 158.7472,-407.2387 124.3482,-391.574"/><polygon fill="orange" stroke="orange" points="125.611 -388.303 115.06 -387.344 122.71 -394.674 125.611 -388.303"/><text x="224.855" y="-413.4" fill="#000" font-family="Times,serif" font-size="14" text-anchor="middle">lock next</text></g><g id="node12" class="node"><title>RESTART</title><ellipse cx="201" cy="-18" fill="none" stroke="#000" rx="53.91" ry="18"/><text x="201" y="-13.8" fill="#000" font-family="Times,serif" font-size="14" text-anchor="middle">RESTART</text></g><g id="edge20" class="edge"><title>PRESS_FROM_ACTIVE-&gt;RESTART</title><path fill="none" stroke="orange" d="M190.3393,-450.9993C108.6441,-438.3099 0,-413.8018 0,-373.2 0,-373.2 0,-373.2 0,-106.8 0,-74.7037 86.8374,-46.4364 146.3579,-30.8311"/><polygon fill="orange" stroke="orange" points="147.578 -34.131 156.392 -28.252 145.835 -27.352 147.578 -34.131"/><text x="31.488" y="-235.8" fill="#000" font-family="Times,serif" font-size="14" text-anchor="middle">a key lifted</text></g><g id="edge21" class="edge"><title>FINISHED_FROM_ACTIVE-&gt;DEACTIVATED</title><path fill="none" stroke="orange" d="M284.3512,-354.8006C287.2424,-342.575 291.0939,-326.2887 294.3642,-312.4599"/><polygon fill="orange" stroke="orange" points="297.831 -313.009 296.726 -302.472 291.019 -311.398 297.831 -313.009"/><text x="324.488" y="-324.6" fill="#000" font-family="Times,serif" font-size="14" text-anchor="middle">a key lifted</text></g><g id="node8" class="node"><title>READY_IN_DANCE</title><ellipse cx="402" cy="-106.8" fill="none" stroke="#000" rx="97.274" ry="18"/><text x="402" y="-102.6" fill="#000" font-family="Times,serif" font-size="14" text-anchor="middle">READY_IN_DANCE</text></g><g id="edge13" class="edge"><title>IDLE_IN_DANCE-&gt;READY_IN_DANCE</title><path fill="none" stroke="orange" d="M285.2465,-177.3414C281.8879,-166.3406 280.1649,-152.6093 287.366,-142.8 292.9374,-135.2107 308.8319,-128.4976 327.077,-122.9864"/><polygon fill="orange" stroke="orange" points="328.134 -126.325 336.79 -120.216 326.214 -119.593 328.134 -126.325"/><text x="332.317" y="-147" fill="#000" font-family="Times,serif" font-size="14" text-anchor="middle">all keys pressed</text></g><g id="node9" class="node"><title>FINISHED</title><ellipse cx="201" cy="-106.8" fill="none" stroke="#000" rx="55.032" ry="18"/><text x="201" y="-102.6" fill="#000" font-family="Times,serif" font-size="14" text-anchor="middle">FINISHED</text></g><g id="edge6" class="edge"><title>IDLE_IN_DANCE-&gt;FINISHED</title><path fill="none" stroke="#0f0" d="M231.9976,-182.6889C220.3684,-177.4272 209.5756,-170.022 202.3092,-159.6 197.3878,-152.5413 195.8986,-143.5625 195.9866,-135.0199"/><polygon fill="#0f0" stroke="#0f0" points="199.482 -135.211 196.751 -124.975 192.502 -134.68 199.482 -135.211"/><text x="235.845" y="-147" fill="#000" font-family="Times,serif" font-size="14" text-anchor="middle">dance timer</text></g><g id="edge16" class="edge"><title>READY_IN_DANCE-&gt;ACTIVATED</title><path fill="none" stroke="orange" d="M460.9306,-121.2262C473.3432,-126.4214 485.5301,-133.4169 495,-142.8 512.9398,-160.5753 516,-170.3454 516,-195.6 516,-462 516,-462 516,-462 516,-495.4749 484.8997,-518.3284 455.476,-532.4591"/><polygon fill="orange" stroke="orange" points="453.687 -529.427 446.023 -536.743 456.576 -535.803 453.687 -529.427"/><text x="548.461" y="-324.6" fill="#000" font-family="Times,serif" font-size="14" text-anchor="middle">chord timer</text></g><g id="edge9" class="edge"><title>READY_IN_DANCE-&gt;IDLE_IN_DANCE</title><path fill="none" stroke="red" d="M398.1917,-124.942C395.0071,-136.1761 389.421,-150.2021 380,-159.6 372.9696,-166.6132 364.3766,-172.3251 355.3586,-176.9585"/><polygon fill="red" stroke="red" points="353.805 -173.821 346.241 -181.241 356.78 -180.157 353.805 -173.821"/><text x="441.56" y="-147" fill="#000" font-family="Times,serif" font-size="14" text-anchor="middle">superchord active</text></g><g id="edge1" class="edge"><title>FINISHED-&gt;RESTART</title><path fill="none" stroke="#000" d="M201,-88.4006C201,-76.2949 201,-60.2076 201,-46.4674"/><polygon fill="#000" stroke="#000" points="204.5 -46.072 201 -36.072 197.5 -46.072 204.5 -46.072"/></g><g id="node11" class="node"><title>READY_LOCKED</title><ellipse cx="116" cy="-284.4" fill="none" stroke="#000" rx="88.044" ry="18"/><text x="116" y="-280.2" fill="#000" font-family="Times,serif" font-size="14" text-anchor="middle">READY_LOCKED</text></g><g id="edge11" class="edge"><title>LOCKED-&gt;READY_LOCKED</title><path fill="none" stroke="orange" d="M62.8266,-356.7262C52.2277,-346.3972 43.0571,-332.745 50.366,-320.4 53.6683,-314.8223 58.175,-310.0516 63.2916,-305.985"/><polygon fill="orange" stroke="orange" points="65.499 -308.715 71.749 -300.16 61.528 -302.95 65.499 -308.715"/><text x="95.317" y="-324.6" fill="#000" font-family="Times,serif" font-size="14" text-anchor="middle">all keys pressed</text></g><g id="edge10" class="edge"><title>READY_LOCKED-&gt;LOCKED</title><path fill="none" stroke="red" d="M134.3377,-302.181C142.7003,-312.508 149.4503,-325.708 143,-337.2 139.1182,-344.1159 133.3081,-349.8603 126.8241,-354.5772"/><polygon fill="red" stroke="red" points="124.874 -351.67 118.345 -360.013 128.653 -357.562 124.874 -351.67"/><text x="195.56" y="-324.6" fill="#000" font-family="Times,serif" font-size="14" text-anchor="middle">superchord active</text></g><g id="edge14" class="edge"><title>READY_LOCKED-&gt;RESTART</title><path fill="none" stroke="orange" d="M114.0574,-266.3175C111.0132,-230.457 108.1435,-148.6335 137,-88.8 145.6041,-70.9596 160.1275,-54.343 173.1661,-41.6972"/><polygon fill="orange" stroke="orange" points="175.702 -44.118 180.615 -34.731 170.921 -39.005 175.702 -44.118"/><text x="152.461" y="-147" fill="#000" font-family="Times,serif" font-size="14" text-anchor="middle">chord timer</text></g><g id="edge2" class="edge"><title>RESTART-&gt;IDLE</title><path fill="none" stroke="#000" d="M251.8307,-24.1482C358.5139,-37.7418 596,-71.9196 596,-106.8 596,-639.6 596,-639.6 596,-639.6 596,-665.1965 591.0323,-674.2337 573,-692.4 561.7252,-703.7586 546.243,-711.8298 531.8327,-717.4099"/><polygon fill="#000" stroke="#000" points="530.335 -714.228 522.092 -720.885 532.687 -720.821 530.335 -714.228"/></g><g id="node13" class="node"><title>IN_ONE_SHOT</title><ellipse cx="700" cy="-106.8" fill="none" stroke="#000" rx="75.864" ry="18"/><text x="700" y="-102.6" fill="#000" font-family="Times,serif" font-size="14" text-anchor="middle">IN_ONE_SHOT</text></g><g id="edge4" class="edge"><title>IN_ONE_SHOT-&gt;RESTART</title><path fill="none" stroke="#00f" d="M676.9312,-89.3704C659.5151,-77.2164 634.5042,-61.8271 610,-54 547.5343,-34.0473 363.5933,-24.1795 265.053,-20.2067"/><polygon fill="#00f" stroke="#00f" points="265.051 -16.704 254.921 -19.807 264.776 -23.699 265.051 -16.704"/><text x="733.674" y="-58.2" fill="#000" font-family="Times,serif" font-size="14" text-anchor="middle">non-one-shot key went through</text></g></g></svg>