<?xml version="1.0" encoding="UTF-8" standalone="no"?>
<!DOCTYPE svg PUBLIC "-//W3C//DTD SVG 1.1//EN"
 "http://www.w3.org/Graphics/SVG/1.1/DTD/svg11.dtd">
<!-- Generated by graphviz version 2.40.1 (20161225.0304)
 -->
<!-- Title: %0 Pages: 1 -->
<svg width="829pt" height="754pt"
 viewBox="0.00 0.00 829.35 754.40" xmlns="http://www.w3.org/2000/svg" xmlns:xlink="http://www.w3.org/1999/xlink">
<g id="graph0" class="graph" transform="scale(1 1) rotate(0) translate(4 750.4)">
<title>%0</title>
<polygon fill="#ffffff" stroke="transparent" points="-4,4 -4,-750.4 825.3486,-750.4 825.3486,4 -4,4"/>
<!-- IDLE -->
<g id="node1" class="node">
<title>IDLE</title>
<ellipse fill="none" stroke="#000000" cx="492" cy="-728.4" rx="33.043" ry="18"/>
<text text-anchor="middle" x="492" y="-724.2" font-family="Times,serif" font-size="14.00" fill="#000000">IDLE</text>
</g>
<!-- READY -->
<g id="node2" class="node">
<title>READY</title>
<ellipse fill="none" stroke="#000000" cx="404" cy="-639.6" rx="44.0814" ry="18"/>
<text text-anchor="middle" x="404" y="-635.4" font-family="Times,serif" font-size="14.00" fill="#000000">READY</text>
</g>
<!-- IDLE&#45;&gt;READY -->
<g id="edge12" class="edge">
<title>IDLE&#45;&gt;READY</title>
<path fill="none" stroke="#ffa500" d="M487.6897,-710.0931C484.347,-699.0742 478.772,-685.3407 470,-675.6 463.1872,-668.0349 454.3989,-661.7377 445.4714,-656.6382"/>
<polygon fill="#ffa500" stroke="#ffa500" points="447.0426,-653.5099 436.5654,-651.9352 443.7738,-659.6998 447.0426,-653.5099"/>
<text text-anchor="middle" x="524.317" y="-679.8" font-family="Times,serif" font-size="14.00" fill="#000000">all keys pressed</text>
</g>
<!-- READY&#45;&gt;IDLE -->
<g id="edge8" class="edge">
<title>READY&#45;&gt;IDLE</title>
<path fill="none" stroke="#ff0000" d="M383.1899,-655.7528C371.9777,-666.4401 362.0803,-680.6044 370.88,-692.4 380.5143,-705.3144 418.9714,-715.2612 450.0017,-721.3939"/>
<polygon fill="#ff0000" stroke="#ff0000" points="449.7109,-724.9011 460.188,-723.3263 451.0156,-718.0238 449.7109,-724.9011"/>
<text text-anchor="middle" x="420.56" y="-679.8" font-family="Times,serif" font-size="14.00" fill="#000000">superchord active</text>
</g>
<!-- ACTIVATED -->
<g id="node3" class="node">
<title>ACTIVATED</title>
<ellipse fill="none" stroke="#000000" cx="404" cy="-550.8" rx="66.0512" ry="18"/>
<text text-anchor="middle" x="404" y="-546.6" font-family="Times,serif" font-size="14.00" fill="#000000">ACTIVATED</text>
</g>
<!-- READY&#45;&gt;ACTIVATED -->
<g id="edge15" class="edge">
<title>READY&#45;&gt;ACTIVATED</title>
<path fill="none" stroke="#ffa500" d="M404,-621.2006C404,-609.0949 404,-593.0076 404,-579.2674"/>
<polygon fill="#ffa500" stroke="#ffa500" points="407.5001,-578.872 404,-568.872 400.5001,-578.8721 407.5001,-578.872"/>
<text text-anchor="middle" x="436.4611" y="-591" font-family="Times,serif" font-size="14.00" fill="#000000">chord timer</text>
</g>
<!-- DEACTIVATED -->
<g id="node4" class="node">
<title>DEACTIVATED</title>
<ellipse fill="none" stroke="#000000" cx="301" cy="-284.4" rx="79.2922" ry="18"/>
<text text-anchor="middle" x="301" y="-280.2" font-family="Times,serif" font-size="14.00" fill="#000000">DEACTIVATED</text>
</g>
<!-- ACTIVATED&#45;&gt;DEACTIVATED -->
<g id="edge19" class="edge">
<title>ACTIVATED&#45;&gt;DEACTIVATED</title>
<path fill="none" stroke="#a020f0" d="M414.457,-532.6765C417.1337,-527.1214 419.6389,-520.8699 421,-514.8 426.1765,-491.7151 456.5634,-425.2497 416,-355.2 402.3607,-331.646 377.4429,-314.8951 354.2805,-303.6207"/>
<polygon fill="#a020f0" stroke="#a020f0" points="355.7259,-300.433 345.1798,-299.4173 352.7907,-306.7879 355.7259,-300.433"/>
<text text-anchor="middle" x="468.4881" y="-413.4" font-family="Times,serif" font-size="14.00" fill="#000000">a key lifted</text>
</g>
<!-- PRESS_FROM_ACTIVE -->
<g id="node5" class="node">
<title>PRESS_FROM_ACTIVE</title>
<ellipse fill="none" stroke="#000000" cx="279" cy="-462" rx="111.797" ry="18"/>
<text text-anchor="middle" x="279" y="-457.8" font-family="Times,serif" font-size="14.00" fill="#000000">PRESS_FROM_ACTIVE</text>
</g>
<!-- ACTIVATED&#45;&gt;PRESS_FROM_ACTIVE -->
<g id="edge5" class="edge">
<title>ACTIVATED&#45;&gt;PRESS_FROM_ACTIVE</title>
<path fill="none" stroke="#00ff00" d="M381.0189,-533.8085C363.6663,-521.0049 341.3076,-504.5706 332,-498 326.1999,-493.9054 319.9973,-489.6147 313.9535,-485.4802"/>
<polygon fill="#00ff00" stroke="#00ff00" points="315.5139,-482.3085 305.2776,-479.5755 311.5753,-488.0954 315.5139,-482.3085"/>
<text text-anchor="middle" x="387.8454" y="-502.2" font-family="Times,serif" font-size="14.00" fill="#000000">dance timer</text>
</g>
<!-- ACTIVATED&#45;&gt;PRESS_FROM_ACTIVE -->
<g id="edge17" class="edge">
<title>ACTIVATED&#45;&gt;PRESS_FROM_ACTIVE</title>
<path fill="none" stroke="#ffa500" d="M346.8191,-541.6158C317.1162,-535.5544 285.1886,-526.5544 276.2896,-514.8 271.0903,-507.9325 270.0671,-499.0047 270.857,-490.45"/>
<polygon fill="#ffa500" stroke="#ffa500" points="274.3462,-490.8071 272.5608,-480.3638 267.444,-489.6411 274.3462,-490.8071"/>
<text text-anchor="middle" x="302.8552" y="-502.2" font-family="Times,serif" font-size="14.00" fill="#000000">lock next</text>
</g>
<!-- IDLE_IN_DANCE -->
<g id="node7" class="node">
<title>IDLE_IN_DANCE</title>
<ellipse fill="none" stroke="#000000" cx="293" cy="-195.6" rx="86.2367" ry="18"/>
<text text-anchor="middle" x="293" y="-191.4" font-family="Times,serif" font-size="14.00" fill="#000000">IDLE_IN_DANCE</text>
</g>
<!-- DEACTIVATED&#45;&gt;IDLE_IN_DANCE -->
<g id="edge3" class="edge">
<title>DEACTIVATED&#45;&gt;IDLE_IN_DANCE</title>
<path fill="none" stroke="#000000" d="M299.3424,-266.0006C298.241,-253.775 296.7738,-237.4887 295.5279,-223.6599"/>
<polygon fill="#000000" stroke="#000000" points="299.0114,-223.3176 294.6281,-213.672 292.0396,-223.9458 299.0114,-223.3176"/>
</g>
<!-- FINISHED_FROM_ACTIVE -->
<g id="node6" class="node">
<title>FINISHED_FROM_ACTIVE</title>
<ellipse fill="none" stroke="#000000" cx="280" cy="-373.2" rx="127.3672" ry="18"/>
<text text-anchor="middle" x="280" y="-369" font-family="Times,serif" font-size="14.00" fill="#000000">FINISHED_FROM_ACTIVE</text>
</g>
<!-- PRESS_FROM_ACTIVE&#45;&gt;FINISHED_FROM_ACTIVE -->
<g id="edge7" class="edge">
<title>PRESS_FROM_ACTIVE&#45;&gt;FINISHED_FROM_ACTIVE</title>
<path fill="none" stroke="#00ff00" d="M279.2072,-443.6006C279.3435,-431.4949 279.5247,-415.4076 279.6794,-401.6674"/>
<polygon fill="#00ff00" stroke="#00ff00" points="283.1836,-401.3108 279.7965,-391.272 276.184,-401.2319 283.1836,-401.3108"/>
<text text-anchor="middle" x="312.8454" y="-413.4" font-family="Times,serif" font-size="14.00" fill="#000000">dance timer</text>
</g>
<!-- LOCKED -->
<g id="node10" class="node">
<title>LOCKED</title>
<ellipse fill="none" stroke="#000000" cx="84" cy="-373.2" rx="50.38" ry="18"/>
<text text-anchor="middle" x="84" y="-369" font-family="Times,serif" font-size="14.00" fill="#000000">LOCKED</text>
</g>
<!-- PRESS_FROM_ACTIVE&#45;&gt;LOCKED -->
<g id="edge18" class="edge">
<title>PRESS_FROM_ACTIVE&#45;&gt;LOCKED</title>
<path fill="none" stroke="#ffa500" d="M241.402,-444.8785C207.8161,-429.584 158.7472,-407.2387 124.3482,-391.574"/>
<polygon fill="#ffa500" stroke="#ffa500" points="125.6113,-388.3034 115.06,-387.3442 122.7102,-394.6739 125.6113,-388.3034"/>
<text text-anchor="middle" x="224.8552" y="-413.4" font-family="Times,serif" font-size="14.00" fill="#000000">lock next</text>
</g>
<!-- RESTART -->
<g id="node12" class="node">
<title>RESTART</title>
<ellipse fill="none" stroke="#000000" cx="201" cy="-18" rx="53.9098" ry="18"/>
<text text-anchor="middle" x="201" y="-13.8" font-family="Times,serif" font-size="14.00" fill="#000000">RESTART</text>
</g>
<!-- PRESS_FROM_ACTIVE&#45;&gt;RESTART -->
<g id="edge20" class="edge">
<title>PRESS_FROM_ACTIVE&#45;&gt;RESTART</title>
<path fill="none" stroke="#ffa500" d="M190.3393,-450.9993C108.6441,-438.3099 0,-413.8018 0,-373.2 0,-373.2 0,-373.2 0,-106.8 0,-74.7037 86.8374,-46.4364 146.3579,-30.8311"/>
<polygon fill="#ffa500" stroke="#ffa500" points="147.578,-34.1313 156.3916,-28.2515 145.835,-27.3517 147.578,-34.1313"/>
<text text-anchor="middle" x="31.4881" y="-235.8" font-family="Times,serif" font-size="14.00" fill="#000000">a key lifted</text>
</g>
<!-- FINISHED_FROM_ACTIVE&#45;&gt;DEACTIVATED -->
<g id="edge21" class="edge">
<title>FINISHED_FROM_ACTIVE&#45;&gt;DEACTIVATED</title>
<path fill="none" stroke="#ffa500" d="M284.3512,-354.8006C287.2424,-342.575 291.0939,-326.2887 294.3642,-312.4599"/>
<polygon fill="#ffa500" stroke="#ffa500" points="297.8308,-313.0091 296.7262,-302.472 291.0187,-311.3981 297.8308,-313.0091"/>
<text text-anchor="middle" x="324.4881" y="-324.6" font-family="Times,serif" font-size="14.00" fill="#000000">a key lifted</text>
</g>
<!-- READY_IN_DANCE -->
<g id="node8" class="node">
<title>READY_IN_DANCE</title>
<ellipse fill="none" stroke="#000000" cx="402" cy="-106.8" rx="97.2741" ry="18"/>
<text text-anchor="middle" x="402" y="-102.6" font-family="Times,serif" font-size="14.00" fill="#000000">READY_IN_DANCE</text>
</g>
<!-- IDLE_IN_DANCE&#45;&gt;READY_IN_DANCE -->
<g id="edge13" class="edge">
<title>IDLE_IN_DANCE&#45;&gt;READY_IN_DANCE</title>
<path fill="none" stroke="#ffa500" d="M285.2465,-177.3414C281.8879,-166.3406 280.1649,-152.6093 287.366,-142.8 292.9374,-135.2107 308.8319,-128.4976 327.077,-122.9864"/>
<polygon fill="#ffa500" stroke="#ffa500" points="328.1338,-126.3246 336.79,-120.2157 326.2135,-119.5932 328.1338,-126.3246"/>
<text text-anchor="middle" x="332.317" y="-147" font-family="Times,serif" font-size="14.00" fill="#000000">all keys pressed</text>
</g>
<!-- FINISHED -->
<g id="node9" class="node">
<title>FINISHED</title>
<ellipse fill="none" stroke="#000000" cx="201" cy="-106.8" rx="55.0323" ry="18"/>
<text text-anchor="middle" x="201" y="-102.6" font-family="Times,serif" font-size="14.00" fill="#000000">FINISHED</text>
</g>
<!-- IDLE_IN_DANCE&#45;&gt;FINISHED -->
<g id="edge6" class="edge">
<title>IDLE_IN_DANCE&#45;&gt;FINISHED</title>
<path fill="none" stroke="#00ff00" d="M231.9976,-182.6889C220.3684,-177.4272 209.5756,-170.022 202.3092,-159.6 197.3878,-152.5413 195.8986,-143.5625 195.9866,-135.0199"/>
<polygon fill="#00ff00" stroke="#00ff00" points="199.4821,-135.2114 196.7515,-124.9745 192.5023,-134.6799 199.4821,-135.2114"/>
<text text-anchor="middle" x="235.8454" y="-147" font-family="Times,serif" font-size="14.00" fill="#000000">dance timer</text>
</g>
<!-- READY_IN_DANCE&#45;&gt;ACTIVATED -->
<g id="edge16" class="edge">
<title>READY_IN_DANCE&#45;&gt;ACTIVATED</title>
<path fill="none" stroke="#ffa500" d="M460.9306,-121.2262C473.3432,-126.4214 485.5301,-133.4169 495,-142.8 512.9398,-160.5753 516,-170.3454 516,-195.6 516,-462 516,-462 516,-462 516,-495.4749 484.8997,-518.3284 455.476,-532.4591"/>
<polygon fill="#ffa500" stroke="#ffa500" points="453.6869,-529.4272 446.0233,-536.7429 456.5764,-535.803 453.6869,-529.4272"/>
<text text-anchor="middle" x="548.4611" y="-324.6" font-family="Times,serif" font-size="14.00" fill="#000000">chord timer</text>
</g>
<!-- READY_IN_DANCE&#45;&gt;IDLE_IN_DANCE -->
<g id="edge9" class="edge">
<title>READY_IN_DANCE&#45;&gt;IDLE_IN_DANCE</title>
<path fill="none" stroke="#ff0000" d="M398.1917,-124.942C395.0071,-136.1761 389.421,-150.2021 380,-159.6 372.9696,-166.6132 364.3766,-172.3251 355.3586,-176.9585"/>
<polygon fill="#ff0000" stroke="#ff0000" points="353.8046,-173.8215 346.241,-181.2406 356.7803,-180.1575 353.8046,-173.8215"/>
<text text-anchor="middle" x="441.56" y="-147" font-family="Times,serif" font-size="14.00" fill="#000000">superchord active</text>
</g>
<!-- FINISHED&#45;&gt;RESTART -->
<g id="edge1" class="edge">
<title>FINISHED&#45;&gt;RESTART</title>
<path fill="none" stroke="#000000" d="M201,-88.4006C201,-76.2949 201,-60.2076 201,-46.4674"/>
<polygon fill="#000000" stroke="#000000" points="204.5001,-46.072 201,-36.072 197.5001,-46.0721 204.5001,-46.072"/>
</g>
<!-- READY_LOCKED -->
<g id="node11" class="node">
<title>READY_LOCKED</title>
<ellipse fill="none" stroke="#000000" cx="116" cy="-284.4" rx="88.0442" ry="18"/>
<text text-anchor="middle" x="116" y="-280.2" font-family="Times,serif" font-size="14.00" fill="#000000">READY_LOCKED</text>
</g>
<!-- LOCKED&#45;&gt;READY_LOCKED -->
<g id="edge11" class="edge">
<title>LOCKED&#45;&gt;READY_LOCKED</title>
<path fill="none" stroke="#ffa500" d="M62.8266,-356.7262C52.2277,-346.3972 43.0571,-332.745 50.366,-320.4 53.6683,-314.8223 58.175,-310.0516 63.2916,-305.985"/>
<polygon fill="#ffa500" stroke="#ffa500" points="65.4987,-308.7148 71.7485,-300.1596 61.5278,-302.9501 65.4987,-308.7148"/>
<text text-anchor="middle" x="95.317" y="-324.6" font-family="Times,serif" font-size="14.00" fill="#000000">all keys pressed</text>
</g>
<!-- READY_LOCKED&#45;&gt;LOCKED -->
<g id="edge10" class="edge">
<title>READY_LOCKED&#45;&gt;LOCKED</title>
<path fill="none" stroke="#ff0000" d="M134.3377,-302.181C142.7003,-312.508 149.4503,-325.708 143,-337.2 139.1182,-344.1159 133.3081,-349.8603 126.8241,-354.5772"/>
<polygon fill="#ff0000" stroke="#ff0000" points="124.8745,-351.6695 118.3451,-360.0132 128.6526,-357.5624 124.8745,-351.6695"/>
<text text-anchor="middle" x="195.56" y="-324.6" font-family="Times,serif" font-size="14.00" fill="#000000">superchord active</text>
</g>
<!-- READY_LOCKED&#45;&gt;RESTART -->
<g id="edge14" class="edge">
<title>READY_LOCKED&#45;&gt;RESTART</title>
<path fill="none" stroke="#ffa500" d="M114.0574,-266.3175C111.0132,-230.457 108.1435,-148.6335 137,-88.8 145.6041,-70.9596 160.1275,-54.343 173.1661,-41.6972"/>
<polygon fill="#ffa500" stroke="#ffa500" points="175.702,-44.1178 180.6155,-34.7312 170.9209,-39.0049 175.702,-44.1178"/>
<text text-anchor="middle" x="152.4611" y="-147" font-family="Times,serif" font-size="14.00" fill="#000000">chord timer</text>
</g>
<!-- RESTART&#45;&gt;IDLE -->
<g id="edge2" class="edge">
<title>RESTART&#45;&gt;IDLE</title>
<path fill="none" stroke="#000000" d="M251.8307,-24.1482C358.5139,-37.7418 596,-71.9196 596,-106.8 596,-639.6 596,-639.6 596,-639.6 596,-665.1965 591.0323,-674.2337 573,-692.4 561.7252,-703.7586 546.243,-711.8298 531.8327,-717.4099"/>
<polygon fill="#000000" stroke="#000000" points="530.3349,-714.2281 522.0925,-720.8849 532.6871,-720.8211 530.3349,-714.2281"/>
</g>
<!-- IN_ONE_SHOT -->
<g id="node13" class="node">
<title>IN_ONE_SHOT</title>
<ellipse fill="none" stroke="#000000" cx="700" cy="-106.8" rx="75.8643" ry="18"/>
<text text-anchor="middle" x="700" y="-102.6" font-family="Times,serif" font-size="14.00" fill="#000000">IN_ONE_SHOT</text>
</g>
<!-- IN_ONE_SHOT&#45;&gt;RESTART -->
<g id="edge4" class="edge">
<title>IN_ONE_SHOT&#45;&gt;RESTART</title>
<path fill="none" stroke="#0000ff" d="M676.9312,-89.3704C659.5151,-77.2164 634.5042,-61.8271 610,-54 547.5343,-34.0473 363.5933,-24.1795 265.053,-20.2067"/>
<polygon fill="#0000ff" stroke="#0000ff" points="265.0515,-16.704 254.9213,-19.8069 264.7755,-23.6986 265.0515,-16.704"/>
<text text-anchor="middle" x="733.6743" y="-58.2" font-family="Times,serif" font-size="14.00" fill="#000000">non&#45;one&#45;shot key went through</text>
</g>
</g>
</svg>
